<svg width="45" height="53" viewBox="0 0 45 53" fill="none" xmlns="http://www.w3.org/2000/svg">
<path d="M28.5316 18.3731V32.0169C27.6511 31.5177 26.8482 31.2672 26.1265 31.2672C23.822 31.2672 22.6715 33.0402 22.6715 36.5879V52.7206H10V34.1327C10 29.2206 11.3323 25.3051 13.9968 22.3827C16.6613 19.4603 20.2187 18 24.669 18C25.6624 18 26.9506 18.1261 28.5316 18.3748V18.3731Z" fill="#0077CC"/>
<path d="M35.1158 11.4408L35.1488 9.13327L43.4027 9.25135C43.4278 9.09891 43.4471 8.98192 43.4702 8.85078L44.0118 8.85853L43.9679 11.9281L43.4386 11.9205C43.4189 11.8207 43.3958 11.7067 43.3644 11.557L35.1158 11.439L35.1158 11.4408Z" fill="black"/>
<path d="M41.0656 3.49328C40.9311 2.28496 39.9741 1.33139 38.8088 1.24542C37.5572 1.15467 36.502 1.8858 36.1727 3.06971C36.0628 3.46968 35.8329 3.75422 35.4353 3.90844C33.5029 4.64833 31.9318 5.79138 31.1581 7.81999C31.0572 8.08505 30.5789 8.33583 30.3167 8.28056C29.7079 8.15459 29.1029 8.0109 28.4941 7.88493C28.2812 7.84102 28.2158 7.72815 28.1818 7.51268C27.7187 4.4803 25.2003 2.26601 22.1848 2.2282C19.18 2.19055 16.6101 4.31605 16.0606 7.31795C16.0128 7.57489 15.9108 7.67293 15.6809 7.71228C15.1766 7.80101 14.6757 7.90755 14.1715 7.9945C13.5222 8.10603 13.2249 7.917 12.9654 7.3092C12.8032 6.92666 12.6216 6.54563 12.3936 6.19946C11.5646 4.93323 10.3601 4.13425 8.99347 3.56747C8.54788 3.38164 8.29449 3.08308 8.17936 2.61949C7.93583 1.6317 7.05369 0.874636 6.07207 0.780641C4.94591 0.673917 3.95672 1.23187 3.50481 2.22747C3.0693 3.18778 3.27187 4.32422 4.00789 5.0561C5.2068 6.24589 7.13101 5.95538 7.97462 4.47145C8.26611 3.95682 8.48052 3.89593 8.9041 4.14007C9.19992 4.30953 9.51926 4.43847 9.81508 4.60794C10.9948 5.28576 11.9116 6.21033 12.4156 7.50033C12.4649 7.62541 12.4146 7.81124 12.3615 7.95084C12.213 8.33782 11.858 8.35406 11.517 8.38649C10.8295 8.45483 10.1437 8.52675 9.45269 8.59859L9.41002 11.5811C9.50333 11.5966 9.56135 11.6117 9.62129 11.6161C11.1077 11.7049 12.5942 11.7919 14.0806 11.8807C14.6889 11.916 15.3012 11.9212 15.9036 12.0027C16.978 12.1478 17.7002 12.7409 17.9351 13.8351C18.031 14.2878 18.0543 14.7554 18.1059 15.2181C18.1231 15.3711 18.0667 15.4911 18.0554 15.5425C17.857 16.4564 16.5891 17.4373 16.5 17.5C16 18 15.2935 19.1565 14 21C15.9163 19.0446 18.4547 17.7889 19.5 17.5C20.579 17.201 20.7543 17.1073 22.8629 17.0024C24.7985 16.9058 25.7658 17.0155 26.0388 17.0479C27.1364 17.1808 28.0366 17.4158 28.6778 17.6186L28.3351 16.9031C27.9914 16.6281 27.6832 16.4602 27.4605 16.3575C27.2046 16.2384 27.0358 16.1933 26.5834 15.9896C26.2117 15.8226 26.0241 15.7364 25.9496 15.6359C25.8665 15.5228 25.8589 15.313 25.9875 14.4709C26.2096 13.0083 26.9004 12.3341 28.3606 12.1614C28.8078 12.1073 29.2613 12.1103 29.7114 12.1043C30.737 12.0905 31.7639 12.1017 32.7878 12.0772C33.4198 12.0632 34.0489 12.0047 34.6883 11.9641L34.7313 8.96023C33.9563 8.85498 33.2058 8.76074 32.4592 8.64523C31.8324 8.54743 31.6283 8.13053 31.9065 7.56063C32.6701 5.99738 33.9922 5.1084 35.535 4.4642C35.8972 4.31303 36.0781 4.49684 36.2707 4.72524C36.3228 4.78817 36.3444 4.87909 36.3839 4.95428C36.9583 6.00898 38.1918 6.50457 39.3318 6.14066C40.454 5.78183 41.1937 4.65176 41.0656 3.49328ZM5.28988 1.42506C5.28988 1.42506 5.2828 1.42674 5.28101 1.42849C4.88674 1.60229 4.55785 1.8943 4.31156 2.33318C4.0979 2.71212 4.00427 3.08922 4.01481 3.46248L4.01458 3.47847C4.02973 3.89977 4.17726 4.31941 4.43963 4.73003C4.34565 4.63807 4.2641 4.54096 4.19144 4.43865C3.9579 4.11017 3.83269 3.73349 3.81706 3.34594L3.81719 3.33706C3.80473 2.97443 3.88946 2.60253 4.07262 2.25869C4.52597 1.4088 5.41056 1.00748 6.43475 1.21047C6.01477 1.20801 5.62912 1.27356 5.28988 1.42506ZM26.8959 8.57808C26.8157 11.1034 24.7489 13.0958 22.2239 13.0632C19.6867 13.0304 17.6724 10.9833 17.6628 8.44777C17.6613 8.42465 17.6617 8.39978 17.662 8.37669C17.6918 5.79909 19.8039 3.7239 22.3552 3.76573C24.8941 3.80738 26.9338 5.92776 26.899 8.48751C26.8985 8.51771 26.8981 8.54791 26.8959 8.57808ZM40.2306 5.23851C41.279 3.74685 40.3999 1.66795 38.3247 1.65958C39.284 1.46188 40.2095 1.90153 40.6472 2.76239C41.0798 3.61074 40.9115 4.64416 40.2306 5.23851Z" fill="#F2CC0D"/>
<path d="M0.0340576 8.23291L0.561614 8.24046C0.577479 8.36505 0.590069 8.47184 0.609108 8.62135L8.85769 8.73936L8.82473 11.0433L0.590262 10.9255C0.559923 11.0725 0.537098 11.1877 0.512306 11.317L-0.00995738 11.3096L0.0340322 8.23469L0.0340576 8.23291Z" fill="black"/>
<path d="M26.7219 8.39793C26.7103 5.8766 24.6893 3.80446 22.1786 3.76322C19.6627 3.72189 17.5743 5.7388 17.4887 8.26762C17.4865 8.30312 17.486 8.33865 17.4855 8.37417C17.4575 10.9429 19.4872 13.0276 22.0474 13.0607C24.6023 13.0937 26.6874 11.0536 26.7224 8.485C26.7228 8.45658 26.7232 8.42638 26.7219 8.39793ZM20.0183 7.36037C20.5198 6.35126 21.6688 5.8489 22.7546 6.18602C22.4495 6.78929 22.4839 7.21975 22.8517 7.53594C23.2248 7.8593 23.6612 7.82291 24.1663 7.42682C24.7107 8.22702 24.3893 9.47501 23.7434 10.0965C22.9274 10.8826 21.6622 10.996 20.7557 10.3416C19.8054 9.6564 19.4968 8.40828 20.0183 7.36037Z" fill="white"/>
<path d="M22.7572 6.00826C22.4521 6.61154 22.4865 7.042 22.8526 7.35816C23.2274 7.68155 23.6638 7.64516 24.1672 7.24904C24.7134 8.04927 24.3902 9.29724 23.7442 9.92051C22.9282 10.7066 21.6648 10.8182 20.7583 10.1656C19.808 9.48042 19.4994 8.2323 20.0209 7.18439C20.5224 6.17529 21.6714 5.67292 22.7572 6.01004L22.7572 6.00826Z" fill="black"/>
</svg>
