<svg version="1.2" xmlns="http://www.w3.org/2000/svg" viewBox="0 0 450 310" width="450" height="310">
	<title>11058759_46603-ai</title>
	<style>
		.s0 { fill: #e69917 } 
		.s1 { fill: #1b1c20 } 
		.s2 { fill: #c3c5c8 } 
		.s3 { fill: #98989c } 
		.s4 { fill: #edeeef } 
		.s5 { fill: #feb329 } 
		.s6 { fill: #fac657 } 
		.s7 { fill: #ffffff } 
		.s8 { fill: #000000 } 
		.s9 { fill: #c16546 } 
		.s10 { fill: #c9ac8f } 
		.s11 { fill: #d17343 } 
		.s12 { fill: #e94f0a } 
		.s13 { fill: #d8bc98 } 
		.s14 { fill: #e2c59a } 
		.s15 { fill: #e8cca7 } 
		.s16 { fill: #39373a } 
		.s17 { fill: #fcb681 } 
		.s18 { fill: #4e6984 } 
		.s19 { fill: #a55f38 } 
		.s20 { fill: #f7a872 } 
		.s21 { fill: #d8dadc } 
		.s22 { fill: #c4001d } 
		.s23 { fill: #4fac25 } 
		.s24 { fill: #ef9c62 } 
		.s25 { fill: #fc8b70 } 
		.s26 { fill: #58ba24 } 
		.s27 { fill: #586838 } 
		.s28 { fill: #8cc8dd } 
		.s29 { fill: #f7af2c } 
		.s30 { fill: #ffaf45 } 
	</style>
	<g id="_Artboards_">
	</g>
	<g id="rickshaw">
		<g id="&lt;Group&gt;">
		</g>
		<g id="&lt;Group&gt;">
		</g>
		<g id="&lt;Group&gt;">
			<g id="&lt;Group&gt;">
			</g>
		</g>
		<g id="&lt;Group&gt;">
		</g>
		<g id="&lt;Group&gt;">
			<g id="&lt;Group&gt;">
				<path id="&lt;Path&gt;" class="s0" d="m427.3 202.5h7.8v8.7h-7.8z"/>
			</g>
			<path id="&lt;Path&gt;" class="s1" d="m343.2 136.6l-25.5 4.6c-1.8 0.4-3.6-0.8-3.9-2.7l-0.1-0.3c-0.3-1.8 0.9-3.6 2.7-3.9l25.5-4.7z"/>
			<g id="&lt;Group&gt;">
				<g id="&lt;Group&gt;">
					<path id="&lt;Path&gt;" class="s2" d="m409.6 257.8l-4.6-0.2 0.7-15.2 4.6 0.2z"/>
					<path id="&lt;Path&gt;" class="s2" d="m399.6 261.2l-1.6 4.3-14.3-5.4 1.7-4.3z"/>
					<path id="&lt;Path&gt;" class="s2" d="m399.7 271.7l3.6 2.9-9.5 11.9-3.6-2.9z"/>
					<path id="&lt;Path&gt;" class="s2" d="m409.8 274.9l3.8-2.5 8.4 12.7-3.8 2.5z"/>
					<path id="&lt;Path&gt;" class="s2" d="m415.9 266.3l-1.2-4.4 14.7-4.1 1.2 4.4z"/>
					<path id="&lt;Path&gt;" class="s2" d="m420.1 267.2c-0.3 7.4-6.5 13-13.8 12.7-7.3-0.4-13-6.6-12.6-13.9 0.3-7.3 6.5-12.9 13.8-12.6 7.3 0.4 13 6.5 12.6 13.8z"/>
				</g>
				<path id="&lt;Compound Path&gt;" fill-rule="evenodd" class="s1" d="m407.2 223.9c23.5 0 42.5 19.1 42.5 42.6 0 23.6-19 42.6-42.5 42.6-23.6 0-42.6-19-42.6-42.6 0-23.5 19-42.6 42.6-42.6zm-21.6 42.6c0 12 9.6 21.6 21.6 21.6 11.9 0 21.6-9.6 21.6-21.6 0-11.9-9.7-21.6-21.6-21.6-12 0-21.6 9.7-21.6 21.6z"/>
				<path id="&lt;Compound Path&gt;" fill-rule="evenodd" class="s3" d="m407.2 241c14.1 0 25.5 11.4 25.5 25.5 0 14.1-11.4 25.5-25.5 25.5-14.1 0-25.5-11.4-25.5-25.5 0-14.1 11.4-25.5 25.5-25.5zm-21.4 25.5c0 11.8 9.5 21.4 21.4 21.4 11.8 0 21.3-9.6 21.3-21.4 0-11.8-9.5-21.3-21.3-21.3-11.9 0-21.4 9.5-21.4 21.3z"/>
			</g>
			<path id="&lt;Path&gt;" class="s4" d="m408.8 267.3l-0.8 0.4c-1.2 0.7-2.9 0.3-3.6-1l-16.9-28.6 5.4-3.2 16.8 28.7c0.8 1.3 0.4 2.9-0.9 3.7z"/>
			<g id="&lt;Group&gt;">
				<path id="&lt;Path&gt;" class="s5" d="m401.2 246.2l-7.9 4.6-58.7-99.5 8-4.7z"/>
			</g>
			<g id="&lt;Group&gt;">
				<path id="&lt;Path&gt;" class="s6" d="m388.7 197.1c-31.6 0-38.3 38.8-38.3 62.7 0.2 0.2 0.3 0.2 0.4 0.4h11.9c3.8 0 7.2-2.7 7.9-6.5 2.9-16.2 16.6-25.9 33.5-25.9 17 0 34.1 0 43.4 0v-4.7c-5-8.9-22.9-26-58.8-26z"/>
			</g>
			<path id="&lt;Path&gt;" class="s7" d="m366.9 250.3c-0.7 3.9-4.3 5.4-8.3 5.4h-8.1q-0.1 2-0.1 4.1c0.2 0.2 0.3 0.2 0.4 0.4h11.9c3.8 0 7.2-2.7 7.9-6.5 2.9-16.2 16.6-25.9 33.5-25.9 17 0 34.1 0 43.4 0v-4.7c-9.8 0-27.7 0-45.4 0-17.8 0-32.1 10.2-35.2 27.2z"/>
			<g id="&lt;Group&gt;">
				<path id="&lt;Path&gt;" class="s0" d="m375 145.1h18.6v25h-18.6z"/>
			</g>
			<path id="&lt;Path&gt;" class="s1" d="m394.9 171.5h1.5c2.1 0 3.7-1.7 3.7-3.7v-20.4c0-2-1.6-3.7-3.7-3.7h-1.5c-0.7 0-1.3 0.6-1.3 1.4v25.1c0 0.7 0.6 1.3 1.3 1.3z"/>
			<path id="&lt;Path&gt;" class="s1" d="m142.1 188h-84.4v-19.4h84.4c4.2 0 7.6 3.4 7.6 7.6v4.2c0 4.2-3.4 7.6-7.6 7.6z"/>
			<path id="&lt;Path&gt;" class="s1" d="m59.9 89l19.6 89.2-19 4.1-19.5-89.2c-0.9-4.1 1.7-8.2 5.8-9.1l4.1-0.9c4.1-0.9 8.1 1.8 9 5.9z"/>
			<g id="&lt;Group&gt;">
				<path id="&lt;Path&gt;" class="s1" d="m320 274.9h-51.1c-7.5 0-15-1-22.2-3.1l-18.2-5.2v-17.2h113.7v3.3c0 12.3-9.9 22.2-22.2 22.2z"/>
				<path id="&lt;Path&gt;" class="s1" d="m113.2 266.3h215.4c2.3 0 4.1-1.8 4.1-4.1v-1.6h-219.5z"/>
				<path id="&lt;Path&gt;" class="s8" d="m89.4 274.6c-0.8 0-1.5-0.7-1.5-1.6 0-0.9 0.7-1.6 1.5-1.6h27.4c0.4 0 41.1-2 62.5-8.4 0.8-0.3 1.7 0.2 2 1 0.2 0.9-0.3 1.8-1.1 2-21.8 6.5-61.6 8.5-63.3 8.6z"/>
				<path id="&lt;Path&gt;" class="s8" d="m89.4 278.3c-0.8 0-1.5-0.8-1.5-1.6 0-0.9 0.7-1.6 1.5-1.6h27.4c0.2 0 26.5-1.3 47.9-5.1 0.8-0.2 1.6 0.4 1.8 1.3 0.2 0.8-0.4 1.6-1.3 1.8-21.6 3.8-48 5.1-48.3 5.1z"/>
				<path id="&lt;Path&gt;" class="s8" d="m160.1 274.8l-2.7 0.3-1-8.2 2.7-0.3z"/>
				<g id="&lt;Group&gt;">
					<path id="&lt;Path&gt;" class="s8" d="m123.9 273.1h-27.4c-1.8-0.1-41.6-2-63.4-8.5-0.8-0.3-1.3-1.2-1-2 0.2-0.9 1.1-1.3 1.9-1.1 21.5 6.4 62.2 8.4 62.6 8.4h27.3c0.9 0 1.6 0.7 1.6 1.6 0 0.9-0.7 1.6-1.6 1.6z"/>
				</g>
				<path id="&lt;Path&gt;" class="s8" d="m34.2 260.7h5.3v6.3h-5.3z"/>
			</g>
			<g id="&lt;Group&gt;">
				<g id="&lt;Group&gt;">
					<path id="&lt;Path&gt;" class="s0" d="m342.3 215h-9.7c-6.4 0-12.6 1.8-17.1 5.2l-30.8 22.3v13.6h57.6z"/>
				</g>
				<g id="&lt;Group&gt;">
					<path id="&lt;Path&gt;" class="s0" d="m231.8 191.9h53.2v58.9h-53.2z"/>
				</g>
				<path id="&lt;Path&gt;" class="s1" d="m231.8 206.3h53.2v4.3h-53.2z"/>
			</g>
			<g id="&lt;Group&gt;">
				<path id="&lt;Path&gt;" class="s0" d="m152.7 236.9h79.1v14h-79.1z"/>
			</g>
			<path id="&lt;Path&gt;" class="s1" d="m242.2 179.7l-6.8-49.5c-0.4-3-3-5.3-6.1-5.3h-3.6c-4 0-7.1 3.5-6.5 7.5l9.2 67h16.5 48.5c1.9 0 3.4-1.5 3.4-3.4v-8.5c0-1.5-1.2-2.7-2.7-2.7h-46.1c-2.9 0-5.4-2.2-5.8-5.1z"/>
			<g id="&lt;Group&gt;">
				<path id="&lt;Path&gt;" class="s9" d="m331.5 140.9c6.6-0.8 9.8 0.4 8.7-7.8-0.5-3.6-1.9-4.8-4-5.4-4.8-1.4-9.5-2-12.6-1.7-11.4 1.3-26.4 0.3-46.2 1.6-0.9 0.1-4.5-1.7-5.1-4-6.2-21.6-18-37-18-37l-16.4 6.8c7.7 22.8 21.2 33.3 29.9 47.1 0.6 0.9 6.5 3.4 22.6 0.7 24.6-4.1 25.2-7.3 33.2-8.4 4.7 1.4 5.4-0.1 6.3 0.4 1.4 0.7 1.5 3.2 1.5 3.3 0.1 2.1-2.5 2.2-2.6 2.2 0 0-0.9 2.6 2.7 2.2z"/>
				<path id="&lt;Path&gt;" class="s10" d="m272.3 121.8c0 0-15 8.3-18.5 10.7-6.2-9.7-14.4-28.6-15.5-32.8-1.8-6.7-0.9-13.4 4.8-15.9 5.6-2.5 11.6 1 12.9 3.1 1.2 2.1 12.9 20.8 16.3 34.9z"/>
				<path id="&lt;Path&gt;" class="s11" d="m235.8 55.6c-0.4-3.3 1.5-6.7 4.5-6.2 0.7 0.1 1.4 0.4 1.9 0.9 1.6-3.7 3.8-5.9 6.3-6.9 5.1-1.9 14.8 1 14.8 1 0 0 2.4 6 2.2 7.5-0.2 1.5-2.3 1.5-1.5 3.7 0.9 2.2 3.9 6 3.9 6 1.2 1.5 0.9 2.7 0.3 3.2-0.4 0.3-1.1 0.5-2.3 0.5-1.6 1.6 0.4 2.4-0.9 3.9-0.7 0.8-0.7 1.6-0.2 2.6 0.4 0.9 1.4 5.7-6.1 5.6-1.7 0-3.4-0.3-5.1-0.8l-2.2 10.4-17.7-2.6 4.9-23c-1.3-1-2.5-3.1-2.8-5.8z"/>
				<path id="&lt;Path&gt;" class="s7" d="m260.5 53.5c0 0-0.7-0.6-2.8 0.1-1.2 0.4-2.4 1.4-3.6 1.6-0.5 0.1 2.9 1.4 6 1.3 0.8 0 1.8-1.7 0.4-3z"/>
				<path id="&lt;Path&gt;" class="s1" d="m260.5 53.5c1.1 0.9 0.8 2.1 0.2 2.7q-0.3 0.2-0.7 0.2c-0.7 0-1.3-0.8-1.3-1.9 0-0.4 0.1-0.9 0.4-1.2 1-0.1 1.4 0.2 1.4 0.2z"/>
				<path id="&lt;Path&gt;" class="s1" d="m265.1 65.3c0 0-1.5-0.1-2.5 0-0.7 0-3-0.1-4.2 1.4-2.7 3.5-5 6.2-2.2 7.2 0.9 0.3 1.1-0.7 1.5-2 1.4-4.4 2.3-3.1 4.6-3.4 2-0.2 2.8-0.2 2.8-0.2 0 0 1.6 0.4 1.5-2-0.1-1-1.5-1-1.5-1z"/>
				<path id="&lt;Path&gt;" class="s12" d="m262.3 68.5c2-0.2 2.8-0.2 2.8-0.2 0 0 0.3 0 0.4 0-0.1 0.3-0.2 0.8-0.5 1.1-0.3 0.5-0.8 0.5-2.1 0.4-1-0.2-1.8-0.8-2.4-1.2q1 0 1.8-0.1z"/>
				<path id="&lt;Path&gt;" class="s1" d="m266.2 51.2c0 0 0.3 1-0.3 1.7-0.4 0.5-3.1-0.6-4.1-1.1-2.1-0.9-5.4-0.3-6.5 0-1.2 0.2-0.6-0.7 1.3-1 1.5-0.3 4.2-0.6 5.8-0.4 1.6 0.2 3.5 0.5 3.8 0.8z"/>
				<path id="&lt;Path&gt;" class="s1" d="m253.2 42.3c0 0-0.7 2.5-1.2 3.4-0.5 0.9-3 2.3-3.7 5.7-0.4 1.7 0.3 5.3 1.3 8.8 0.8 3.2 0 6.2-0.9 6-2.2-0.7-4-1.6-4.3-2.8-0.4-1.8 0.1-4.2 0.1-5.6-0.2-4.3-1.7-6.2-2.5-6.8-1.5-1.1-3.8-1.7-5.1 0.5-2.3 3.9 2.4 9.9 2.3 12.1 0 2.2-0.5 9.1-0.8 9.9-0.2 0.5-0.7 0.7-1.2 0.7-1.9-0.3-6.4-1.2-5.5-3.9 3.1-9.4-2.5-19.1 4-25.7 3.1-3.1 16.3-4.4 17.5-2.3z"/>
				<path id="&lt;Path&gt;" class="s1" d="m257.4 31.1c4.6 1.8 7 5 7.4 9 0.3 3.4-0.6 4.4-1.3 4.6-2.4 1-6.6 1.3-11.5 1-1.8 2.3-11.2 2-12.3 2.2-2.5 0.3-4 2.8-4.5 7.9-0.3 2.3 2.2 13.1 1.6 14.1-0.6 0.9-1.1 4.2-4 3-2.3-1-0.5-5.1-3.4-16.8-3.6-14.1 1.4-22.8 10.8-25.3 9.5-2.4 15.2-0.5 17.2 0.3z"/>
				<path id="&lt;Path&gt;" class="s11" d="m284.1 188.2l2.7-27.8c0 0-16-1.4-16.3-3.1-6.8-30.7 0.1-32.2-7.3-55.5-3.7-11.7-5.9-12.1-16.6-23-5.7-5.8-20.3 2.2-19.5 18.8 1.1 22.4 9.5 58.6 10.7 69.7 1.8 17.6 11.4 17.3 20.4 19.3 8.4 2 24.8 1.8 25.9 1.6z"/>
				<path id="&lt;Path&gt;" class="s11" d="m336.9 255c8.3-0.3 11.3-2.6 11.1-5.1-0.3-2.9-7.4-1.7-18.4-5.7-2.6-0.9-7.1-1.8-10.8-2.7 3.6-21.9 12.7-31.8 18-56.8 0.9-4.2 0.8-12.9-3-15.2-4.9-3.1-6.9-4.1-10.9-5.4-8.1-2.7-18.9-4.2-59.6-5.5l0.1 28.9c13.7 0.5 39.6 1.2 52.9-1.1-7.9 13.1-1.1 19.3-10.2 50.3-2.2 7.6-2.7 8.8-1.9 14.2 0.9 6 5.4 4.1 14.5 3.4 10.8-1 9.8 1 18.2 0.7z"/>
				<path id="&lt;Path&gt;" class="s13" d="m250.1 187.5c-11.3-1.2-12.3-14-12.3-14l25.5-14.9c41.2 1 51.4 1.9 59.4 4.6 4.1 1.3 6.7 3.1 11.7 6.1 3.7 2.3 3.3 11.2 2.4 15.4-5.1 23.9-12 36.2-15.9 56.1-4.8-0.9-15.2 1.2-19.6 4.6 3.6-14.3 7.8-43.1 12.4-57.9-14.9 1.9-48.9 1.6-63.6 0z"/>
				<path id="&lt;Path&gt;" class="s14" d="m234.3 78.7c2.4-0.3 5.9 0.3 7.8 1.2 2.8 1.4 7.5 2.5 10.6 3.3 4.6 4.2 9.8 9.3 13.1 19.1 4.4 13.5 2.1 20.4 9.9 46.4 0.5 1.5 1.3 8.3 3 10.5-7.6-0.5-22 4.4-32.9 11.5-5.4 3.5-7.7 7.3-8.3 7.8-0.2-1.1-2-5.8-1.8-11.1 0.6-17.5-7.9-47.5-9-69.9-0.4-8.9 2.9-15.7 7.6-18.8z"/>
				<path id="&lt;Path&gt;" class="s11" d="m325.4 142.5c6.6-0.8 9.8 0.4 9-7.8-0.3-3.6-1.6-4.8-3.7-5.4-4.7-1.4-9.4-2.1-12.5-1.7-11.5 1.3-26.5 0.3-46.4 1.6-0.8 0-4.3-1.8-4.8-4.1-5.3-21.6-16.4-37-16.4-37l-16.7 6.9c10.4 35.6 18.9 35.7 26.5 46.9 0.6 0.8 7.7 3.6 23.9 0.9 24.7-4.1 25.5-7.4 33.5-8.4 4.7 1.3 5.5-0.2 6.4 0.3 1.3 0.8 1.3 3.2 1.3 3.4 0 2.1-2.6 2.1-2.7 2.2 0 0-1 2.6 2.6 2.2z"/>
				<path id="&lt;Path&gt;" class="s15" d="m267.1 123.3c0 0-15.4 8.4-19 10.7-5.8-9.6-13.2-28.6-14.1-32.8-1.5-6.7-0.3-13.4 5.5-15.9 5.8-2.5 11.6 1.1 12.7 3.1 1.2 2.1 12.1 20.8 14.9 34.9z"/>
				<path id="&lt;Path&gt;" class="s16" d="m322.6 241.3c0 0-1.6 4.7-7.1 5-5.4 0.3-10.5 0.5-12.5 0 0 2.4 0.6 6.4 0.8 7 0.1 0.6 0.1 2.7 0.1 2.7 0 0 4.7 0.4 10.6 0.4 4.4 0 7.8-0.7 13.4-0.1 5.6 0.6 17.8-1.4 19.5-1.7 1.7-0.3 1.6-1.9 1.5-2.8-0.7-0.7-0.1-2.8-0.9-3.4-0.8-0.6-7.2-1.6-12.5-3.3-5.3-1.7-10-3.3-12.9-3.8z"/>
				<path id="&lt;Path&gt;" class="s13" d="m232.9 80.4c0.1-2.3 1.5-6 1.5-6 0 0 3.9 0 8.8 1.1 3.5 0.7 8 2.6 8.9 3 0.8 3.1 0.9 7.6 0.9 7.6 0 0-3.6-3.7-10-5.4-4.5-1.2-8.3-1.2-10.1-0.3z"/>
			</g>
			<g id="&lt;Group&gt;">
				<path id="&lt;Path&gt;" class="s7" d="m96 59.3c-0.7 0-1.4-0.1-2.1-0.3-0.6-0.3-1.2-0.7-1.5-1.4 2.2-0.1 6.2-0.1 6.2-0.1l0.3 1.6c0 0-1.8 0.2-2.9 0.2z"/>
				<path id="&lt;Path&gt;" class="s17" d="m69.6 45.6c-0.3-3.2 2.1-5.9 5-5.5 0.7 0.1 1.4 0.5 1.9 0.9 1.5-3.6 3.7-5.7 6.2-6.7 5-1.9 14.5 1 14.5 1 0 0 2.3 5.9 2.1 7.3-0.2 1.5-1.7 2.2-0.9 3.7 1.1 2 3.3 5.8 3.3 5.8 1.1 1.5 0.9 2.6 0.3 3.2-0.4 0.3-1.4 0.5-2.6 0.4-0.6 0.5-0.3 2.5-0.3 2.5 0 0-4.3 0.5-6.2-0.1 0.7 2.7 5.6 2.9 5.6 2.9 0 0 0.3 5.6-5 5.7-1.7 0-3.7 0-5.6 0.2l-2.4 10.1-17.4-2.6 3.5-17.8c-0.5-3.5-1.7-8.4-2-11z"/>
				<path id="&lt;Path&gt;" class="s7" d="m95.9 44.2c0 0-0.6-0.5-2.6 0.2-1.2 0.4-1.5 0.7-2.4 1-0.5 0.2 1.3 1.8 4.4 1.7 0.8 0 1.2-1.8 0.6-2.9z"/>
				<path id="&lt;Path&gt;" class="s18" d="m94.2 45q0.1-0.5 0.3-0.9c1.1-0.2 1.4 0.1 1.4 0.1 0.4 0.8 0.3 2-0.1 2.6q-0.3 0.2-0.6 0.1c-0.6 0-1.1-0.9-1-1.9z"/>
				<path id="&lt;Path&gt;" class="s19" d="m99.4 41.3c0 0 0.4 0.6 0 1.3-0.2 0.5-1.7 0.1-2.6 0.1-1.8 0-2.3-0.1-3.3 0.2-0.9 0.3-0.9-0.6 0.5-1.1 1.2-0.3 1.7-0.5 3-0.6 1.3-0.1 2.1-0.1 2.4 0.1z"/>
				<path id="&lt;Path&gt;" class="s19" d="m74.7 23.6c9.2-2.5 15.3-0.9 17.3-0.1 4.5 1.7 6.5 5.8 6.6 7.6 0.2 3.3-0.6 4.5-1.2 4.8-2.4 1.3-6.5 0.9-11.3 0.7-0.6 0.4-2.4 3.4-3.4 5-0.3 0.5-0.2 2.9-0.5 6.2-0.1 1.4-2.4 1.3-2.4 0.6-0.3-4.2-0.9-5.6-1.6-6.2-1.5-1-4.3-0.3-4.4 2.2-0.2 4.2 0 7.7-1.6 11.7-0.1 0.2-0.9 0.9-1.1-0.7 0-0.1-0.3-1.4-1-3-0.6-1.6-2.2-2.8-3.4-5.5-5.4-12.2-1.3-20.9 8-23.3z"/>
				<path id="&lt;Path&gt;" class="s20" d="m118.1 177l2.7-27.8c0 0-15.9-1.4-16.2-3.1-6.9-30.7 0-32.2-7.3-55.5-3.7-11.7-5.3-12.9-16.7-23-5.6-5-19.8 3.6-19 20.1 1.1 22.4 9 57.3 10.2 68.4 1.9 17.6 10.9 18.8 19.9 20.9 8.4 1.9 25.4 0.2 26.4 0z"/>
				<path id="&lt;Path&gt;" class="s20" d="m190.4 243.8c8.2-0.3 11.5-2.6 11.6-4.9 0.1-2.9-7-1.7-17.1-5.6-1.9-0.7-4.7-1.4-7.5-2.1-1.6-0.3-2.8-1.6-3-3.2-2.7-20-0.9-38.5-2.9-54.1-0.5-4 0.7-11.3-2.6-13.5-4.4-3-27.7-9.3-67.1-10.7l-4.4 28.7c13.1 1.6 39.2 2.7 52.6-1.3-2.3 19.3 6.4 25 8.8 48.1 0.8 7.5 0.4 9.3 0.3 14.6 0 5.9 4.7 4 13.7 3.3 10.7-0.9 9.4 1 17.6 0.7z"/>
				<path id="&lt;Path&gt;" class="s21" d="m173.9 226.6c-1.1 0.8 0.7 5.2-4.6 6.3-8.7 1.9-10.6-2.8-10.5 0.5-0.1 2-1.2 3.6-1.2 7.8 0.1 0.6-0.2 2.7-0.2 2.7 0 0 4.5 0.4 10.3 0.4 4.3 0 7.7-0.7 13.1-0.1 5.4 0.6 17.7-0.9 19.3-1.2 1.7-0.3 2.5-2.3 2.5-3.1-0.2-1.5 0.1-2.8-1.8-3.9-0.8-0.4-6.2-1.3-11.2-2.7-10.5-2.9-14.7-7.5-15.7-6.7z"/>
				<path id="&lt;Path&gt;" class="s17" d="m202.7 243.8c8.3-0.3 11.4-2.6 11.1-5.1-0.3-2.9-7.4-1.7-18.3-5.7-2.1-0.7-5.1-1.4-8.1-2.1-1.7-0.4-3-1.7-3.5-3.3-5.9-20.6-6.8-39.5-11.3-55.4-1.1-4.1-1-11.6-4.8-14-4.9-3-29.8-9.5-70.5-10.9l0.1 30.4c13.7 1.6 40.7 2.8 53.7-1.4 0.7 19.9 10.3 24.7 16.4 48.4 2 7.7 1.8 9.6 2.5 15 0.9 6 5.4 4.1 14.5 3.3 10.9-0.9 9.9 1.1 18.2 0.8z"/>
				<path id="&lt;Path&gt;" class="s22" d="m84.2 176.3c-10.9-3.4-12.4-14-12.4-14l25.5-15c41.2 1.1 48.4 4 58.7 6 4.1 0.7 7.5 1.7 12.4 4.8 3.8 2.3 7 16.8 7.9 24.8-2.9 4.7-17 8.2-24.7 8.8-2.9-6-2.7-10-6.6-12.7-19 2.7-46.2 1.9-60.8-2.7z"/>
				<path id="&lt;Path&gt;" class="s23" d="m68.1 69.1c1.3-1.2 6.5-1.5 8.5-1 5.4 1.5 7 3.1 10.1 3.9 4.6 4.2 10.4 11.4 13.6 21.2 4.5 13.5 1.6 18.3 9.5 44.3 0.4 1.5 1.2 8.3 2.9 10.5-7.6-0.5-22 4.4-32.9 11.5-5.4 3.5-7.6 7.2-8.3 7.8-0.2-1.1-1.9-5.8-1.8-11.1 0.7-17.5-7.9-47.5-9-69.9-0.4-8.9 6.1-16 7.4-17.2z"/>
				<path id="&lt;Path&gt;" class="s4" d="m183.5 226.1c-1 0.8 1.5 5.3-3.8 6.5-8.7 1.9-11.3-2.9-10.8 0.5 0.2 2.1-0.7 3.7-0.1 8.1 0.1 0.6 0.2 2.7 0.2 2.7 0 0 4.6 0.4 10.5 0.4 4.4 0 7.9-0.7 13.5-0.1 5.5 0.6 17.9-0.9 19.6-1.2 1.7-0.3 2.2-2.4 2.1-3.2-0.4-1.6-0.2-2.9-2.4-4-0.8-0.4-6.4-1.4-11.8-2.8-11.2-2.9-16-7.6-17-6.9z"/>
				<path id="&lt;Path&gt;" class="s8" d="m95.1 45.2c0 0.5 0.2 1 0.5 1 0.3 0 0.6-0.5 0.6-1 0-0.5-0.3-1-0.6-1-0.3 0-0.5 0.5-0.5 1z"/>
				<path id="&lt;Path&gt;" class="s24" d="m96.4 44.5c0-0.6-0.7-1.2-0.7-1.2 0 0-3.5 0.2-4.8 2.1 0.8-0.1 2.7-0.8 5.5-0.9z"/>
				<path id="&lt;Path&gt;" class="s25" d="m92.9 58.1c0.7 2.7 5.6 2.9 5.6 2.9 0 0 0 0.5-0.1 1.1-4.6-0.7-5.5-3.4-5.8-4.3 4.4 0.5 5.3-0.6 6.5-0.1 0 0.3 0 0.5 0 0.5 0 0-4.3 0.5-6.2-0.1z"/>
			</g>
			<g id="&lt;Group&gt;">
				<path id="&lt;Path&gt;" class="s4" d="m228.5 67.4h-3.9c-2.7 0-5.1-1.6-6.1-4.1l-13-32.9 3.7-1.5 13 33c0.4 1 1.3 1.6 2.4 1.6h3.9z"/>
				<path id="&lt;Path&gt;" class="s4" d="m228.5 26.3h6.6v216h-6.6z"/>
			</g>
			<g id="&lt;Group&gt;">
				<path id="&lt;Path&gt;" class="s4" d="m123.3 138.1h4.3v33.5h-4.3z"/>
				<path id="&lt;Path&gt;" class="s4" d="m92.4 145.5h50.4v3.2h-50.4z"/>
				<g id="&lt;Group&gt;">
					<path id="&lt;Path&gt;" class="s4" d="m142 159h-31.5v-4.2h31.5c0.3 0 0.7-0.3 0.7-0.7v-6.9c0-3.3-0.9-5.7-2.5-7.2-2-1.9-4.8-1.8-4.8-1.8h-0.2-69.7v-4.2h69.7c0.7 0 4.7-0.1 7.9 2.9 2.5 2.3 3.8 5.8 3.8 10.3v6.9c0 2.7-2.2 4.9-4.9 4.9z"/>
				</g>
			</g>
			<path id="&lt;Path&gt;" class="s17" d="m147.7 153.9c4.9 0 5.3-5.9 6.3-14.1 0.5-3.6-0.6-5-2.5-6.1-4.3-2.4-8.8-4-11.8-4.3-11.5-1.3-25.9-5.5-45.6-8.5-0.8-0.2-3.9-2.7-3.9-5-0.5-22.2-8-39.7-8-39.7l-17.8 3.1c2.5 37 10.7 38.9 15.7 51.5 0.4 1 6.8 5.2 23.2 6.1 25 1.3 26.5-1.4 34.6-0.6 4.2 2.8 5.5 2.9 6.1 3 0.7 1.5 1.6 2.6 1.8 4.2 0.6 3.8 0.2 6.4 0.1 6.5 0 0 0 3.9 1.8 3.9z"/>
			<path id="&lt;Path&gt;" class="s26" d="m90.7 114.2c0 0-16.9 4.7-20.9 6.3-3.5-10.7-6.6-30.8-6.6-35.1 0-6.9 2.6-13.1 8.8-14.3 6.2-1.2 11 3.5 11.8 5.8 0.7 2.3 7.2 22.9 6.9 37.3z"/>
			<g id="&lt;Group&gt;">
				<g id="&lt;Group&gt;">
					<path id="&lt;Path&gt;" class="s5" d="m76.8 141.3c9.8 0 19.3 3 27.3 8.7l23.6 16.7c8.9 6.3 15.2 15.7 17.6 26.3l6.7 28.5c2.8 12.1 13.5 20.7 25.9 20.7h29c7.9 0 14.2-6.4 14.2-14.3v-45.7c0-1.9 1.5-3.3 3.4-3.3h14.6c1.9 0 3.3 1.4 3.3 3.3v45.7c0 7.9 6.4 14.3 14.3 14.3h41c13.1 0 24.2-9.5 26.3-22.4l10.2-62.5c0.8-4.7 0.8-9.5 0-14.2l-0.3-1.8h56.2c0.1 0.2 0.2 0.5 0.2 0.7 2.6 8.6 2.4 17.8-0.8 26.4l-27.5 73.6c-4.2 11.2-14.9 18.6-26.8 18.6h-301.7c-3.8 0-7.3-1.7-9.7-4.6l-3.9-4.8c-4.9-5.8-7.5-13.2-7.5-20.8v-89.1z"/>
				</g>
				<g id="&lt;Group&gt;">
					<path id="&lt;Path&gt;" class="s5" d="m389.4 139.4q-0.3-0.8-0.6-1.6 0.3 0.8 0.6 1.6z"/>
				</g>
			</g>
			<path id="&lt;Path&gt;" class="s27" d="m333.9 141.3l-16.5-104.9h13.3l2.6 4.5h-0.4c-2.3 0-3.9 2.2-3.3 4.4l24.1 82.8c1.1 3.6 4.5 6.2 8.3 6.2h25.1q1.8 3.4 3 7z"/>
			<g id="&lt;Group&gt;">
				<path id="&lt;Path&gt;" class="s1" d="m92.6 224.3c23.6 0 42.6 19 42.6 42.6 0 23.5-19 42.6-42.6 42.6-23.5 0-42.6-19.1-42.6-42.6 0-23.6 19.1-42.6 42.6-42.6z"/>
				<path id="&lt;Path&gt;" class="s3" d="m92.6 241.1c14.3 0 25.8 11.5 25.8 25.8 0 14.3-11.5 25.8-25.8 25.8-14.2 0-25.8-11.5-25.8-25.8 0-14.3 11.6-25.8 25.8-25.8z"/>
				<path id="&lt;Path&gt;" class="s2" d="m92.6 246.3c11.4 0 20.7 9.2 20.7 20.6 0 11.4-9.3 20.6-20.7 20.6-11.4 0-20.6-9.2-20.6-20.6 0-11.4 9.2-20.6 20.6-20.6z"/>
				<path id="&lt;Path&gt;" class="s4" d="m92.6 252.7c7.9 0 14.2 6.3 14.2 14.2 0 7.9-6.3 14.2-14.2 14.2-7.8 0-14.2-6.3-14.2-14.2 0-7.9 6.4-14.2 14.2-14.2z"/>
			</g>
			<g id="&lt;Group&gt;">
				<path id="&lt;Path&gt;" class="s6" d="m92.6 204.9c-31.2 0-56.5 22.6-56.7 55.3 0.1 0.1 0.2 0.2 0.4 0.4h14.4c3.9 0 7.3-2.7 7.9-6.5 3-16.2 17.1-25.9 34-25.9 17 0 31 9.7 34 25.9 0.7 3.8 4.1 6.5 7.9 6.5h14.8c0-32.9-25.4-55.7-56.7-55.7z"/>
			</g>
			<path id="&lt;Path&gt;" class="s4" d="m290.2 260.6h-129.1v-0.9c0-3.4 2.7-6.1 6-6.1h123.1c19.7 0 29.2-10.5 33-29.9 1.6-8.3 11.4-75.6 11.5-76.2h0.6c2 0 3.5 1.6 3.3 3.6-1.1 13.9-7.1 67-8.5 74.4-4.7 23.9-15.6 35.1-39.9 35.1z"/>
			<path id="&lt;Path&gt;" class="s4" d="m15.4 241.1h-4.4c-3 0-5.4-2.4-5.4-5.4v-12.7c0-2.9 2.4-5.4 5.4-5.4h4.4z"/>
			<path id="&lt;Path&gt;" class="s28" d="m360.1 134.3h27q0 0 0-0.1l-53.8-93.3h-2.4c-2.2 0-3.9 2.2-3.2 4.4l24.1 82.8c1.1 3.6 4.4 6.2 8.3 6.2z"/>
			<path id="&lt;Path&gt;" class="s1" d="m389.2 138.8h-55.6l0.6 4.3q0.1 0.3 0.1 0.6h56.5q-0.6-2.5-1.6-4.9z"/>
			<path id="&lt;Path&gt;" class="s27" d="m65.7 156.5h-0.4c-2 0-3.7-1.7-3.7-3.8v-16.6h7.8v16.6c0 2.1-1.7 3.8-3.7 3.8z"/>
			<g id="&lt;Group&gt;">
				<path id="&lt;Path&gt;" class="s5" d="m59.2 147.1h12.6v3.2h-12.6z"/>
			</g>
			<path id="&lt;Path&gt;" class="s27" d="m23.5 156.5h-0.4c-2 0-3.7-1.7-3.7-3.8v-16.6h7.8v16.6c0 2.1-1.6 3.8-3.7 3.8z"/>
			<g id="&lt;Group&gt;">
				<path id="&lt;Path&gt;" class="s5" d="m17 147.1h12.6v3.2h-12.6z"/>
			</g>
			<path id="&lt;Path&gt;" class="s4" d="m345.1 186.1l42.8 1.4c2.3 0 4.2-1.8 4.2-4.1v-0.5c0-2.3-1.9-4.1-4.2-4l-42.8 1.3c-1.6 0-2.9 1.3-2.9 2.9v0.1c0 1.6 1.3 2.9 2.9 2.9z"/>
			<path id="&lt;Path&gt;" class="s1" d="m343.2 165.5c0-1.1 0.9-2 2-2h19.5c1.1 0 2 0.9 2 2v7.3c0 1.1-0.9 2-2 2h-19.5c-1.1 0-2-0.9-2-2z"/>
			<path id="&lt;Path&gt;" class="s29" d="m344.7 166.3c0-0.6 0.5-1 1-1h18.5c0.5 0 0.9 0.4 0.9 1v5.8c0 0.5-0.4 0.9-0.9 0.9h-18.5c-0.5 0-1-0.4-1-0.9z"/>
			<g id="&lt;Group&gt;">
				<path id="&lt;Path&gt;" class="s5" d="m437.8 205.9l-9.4-1.1c-3.6-0.4-6.2-3.4-6.2-6.9v-1.6c0-3.6 2.6-6.6 6.2-7l9.4-1z"/>
			</g>
			<path id="&lt;Path&gt;" class="s1" d="m438.5 206.7h1.1c1.4 0 2.5-1.1 2.5-2.5v-14.2c0-1.4-1.1-2.5-2.5-2.5h-1.1c-0.5 0-0.9 0.4-0.9 0.9v17.4c0 0.5 0.4 0.9 0.9 0.9z"/>
			<path id="&lt;Path&gt;" class="s27" d="m231.8 30.6h-122c-11.7 0-21.5 8.8-22.8 20.3l-10.2 90.4h-64.4v-98.4c0-21.4 17.7-38.5 39.1-37.7l182.4 6.7q1.2 0.1 2.3 0.3l104 20.7c1.2 0.2 2 1.3 2 2.5v1h-24.8z"/>
			<g id="&lt;Group&gt;">
				<path id="&lt;Path&gt;" class="s30" d="m66.5 180.3h6.8v6.8h-6.8z"/>
				<path id="&lt;Path&gt;" class="s30" d="m59.8 187.1h6.7v6.7h-6.7z"/>
				<path id="&lt;Path&gt;" class="s30" d="m53 180.3h6.8v6.8h-6.8z"/>
				<path id="&lt;Path&gt;" class="s30" d="m46.2 187.1h6.8v6.7h-6.8z"/>
				<path id="&lt;Path&gt;" class="s30" d="m39.5 180.3h6.7v6.8h-6.7z"/>
				<path id="&lt;Path&gt;" class="s30" d="m32.7 187.1h6.8v6.7h-6.8z"/>
				<path id="&lt;Path&gt;" class="s30" d="m25.9 180.3h6.8v6.8h-6.8z"/>
				<path id="&lt;Path&gt;" class="s30" d="m19.1 187.1h6.8v6.7h-6.8z"/>
				<path id="&lt;Path&gt;" class="s30" d="m12.4 180.3h6.7v6.8h-6.7z"/>
				<path id="&lt;Path&gt;" class="s8" d="m66.5 187.1h6.8v6.7h-6.8z"/>
				<path id="&lt;Path&gt;" class="s8" d="m59.8 180.3h6.7v6.8h-6.7z"/>
				<path id="&lt;Path&gt;" class="s8" d="m53 187.1h6.8v6.7h-6.8z"/>
				<path id="&lt;Path&gt;" class="s8" d="m46.2 180.3h6.8v6.8h-6.8z"/>
				<path id="&lt;Path&gt;" class="s8" d="m39.5 187.1h6.7v6.7h-6.7z"/>
				<path id="&lt;Path&gt;" class="s8" d="m32.7 180.3h6.8v6.8h-6.8z"/>
				<path id="&lt;Path&gt;" class="s8" d="m25.9 187.1h6.8v6.7h-6.8z"/>
				<path id="&lt;Path&gt;" class="s8" d="m19.1 180.3h6.8v6.8h-6.8z"/>
				<path id="&lt;Path&gt;" class="s8" d="m12.4 187.1h6.7v6.7h-6.7z"/>
				<path id="&lt;Path&gt;" class="s30" d="m120.7 180.3h6.7v6.8h-6.7z"/>
				<path id="&lt;Path&gt;" class="s30" d="m113.9 187.1h6.8v6.7h-6.8z"/>
				<path id="&lt;Path&gt;" class="s30" d="m107.1 180.3h6.8v6.8h-6.8z"/>
				<path id="&lt;Path&gt;" class="s30" d="m100.4 187.1h6.7v6.7h-6.7z"/>
				<path id="&lt;Path&gt;" class="s30" d="m93.6 180.3h6.8v6.8h-6.8z"/>
				<path id="&lt;Path&gt;" class="s30" d="m86.8 187.1h6.8v6.7h-6.8z"/>
				<path id="&lt;Path&gt;" class="s30" d="m80 180.3h6.8v6.8h-6.8z"/>
				<path id="&lt;Path&gt;" class="s30" d="m73.3 187.1h6.7v6.7h-6.7z"/>
				<path id="&lt;Path&gt;" class="s8" d="m120.7 187.1h6.7v6.7h-6.7z"/>
				<path id="&lt;Path&gt;" class="s8" d="m113.9 180.3h6.8v6.8h-6.8z"/>
				<path id="&lt;Path&gt;" class="s8" d="m107.1 187.1h6.8v6.7h-6.8z"/>
				<path id="&lt;Path&gt;" class="s8" d="m100.4 180.3h6.7v6.8h-6.7z"/>
				<path id="&lt;Path&gt;" class="s8" d="m93.6 187.1h6.8v6.7h-6.8z"/>
				<path id="&lt;Path&gt;" class="s8" d="m86.8 180.3h6.8v6.8h-6.8z"/>
				<path id="&lt;Path&gt;" class="s8" d="m80 187.1h6.8v6.7h-6.8z"/>
				<path id="&lt;Path&gt;" class="s8" d="m73.3 180.3h6.7v6.8h-6.7z"/>
			</g>
		</g>
	</g>
</svg>