<svg version="1.2" xmlns="http://www.w3.org/2000/svg" viewBox="0 0 370 350" width="370" height="350">
	<title>earn-svg</title>
	<style>
		.s0 { fill: #ebebeb } 
		.s1 { fill: #f5f5f5 } 
		.s2 { fill: #e0e0e0 } 
		.s3 { fill: #0076cd } 
		.s4 { opacity: .5;fill: #ffffff } 
		.s5 { opacity: .2;fill: #000000 } 
		.s6 { fill: #000000 } 
		.s7 { opacity: .2;fill: #ffffff } 
		.s8 { opacity: .3;fill: #ffffff } 
		.s9 { opacity: .4;fill: #ffffff } 
		.s10 { fill: #ebb376 } 
		.s11 { opacity: .7;fill: #ffffff } 
		.s12 { fill: #b97964 } 
		.s13 { fill: #263238 } 
		.s14 { fill: #d58745 } 
		.s15 { fill: #ffffff } 
		.s16 { fill: #de5753 } 
	</style>
	<g id="freepik--background-complete--inject-2">
		<path id="Layer" class="s0" d="m-71 295.4h500v0.3h-500z"/>
		<path id="Layer" class="s0" d="m345.8 311.5h33.1v0.2h-33.1z"/>
		<path id="Layer" class="s0" d="m251.5 314.2h8.7v0.3h-8.7z"/>
		<path id="Layer" class="s0" d="m325.6 302.2h19.2v0.3h-19.2z"/>
		<path id="Layer" class="s0" d="m-18.5 303.9h43.2v0.2h-43.2z"/>
		<path id="Layer" class="s0" d="m33.6 303.9h6.3v0.2h-6.3z"/>
		<path id="Layer" class="s0" d="m60.5 308.1h93.7v0.3h-93.7z"/>
		<path id="Layer" fill-rule="evenodd" class="s0" d="m166 250.8h-193.1q-1.1 0-2.2-0.4-1-0.5-1.8-1.3-0.8-0.8-1.3-1.8-0.4-1.1-0.4-2.2v-271.4q0-1.2 0.5-2.2 0.4-1 1.2-1.8 0.8-0.8 1.8-1.3 1.1-0.4 2.2-0.4h193.1q1.1 0 2.2 0.4 1 0.5 1.8 1.3 0.8 0.8 1.3 1.8 0.4 1.1 0.4 2.2v271.4q0 1.1-0.4 2.2-0.5 1-1.3 1.8-0.8 0.8-1.8 1.3-1.1 0.4-2.2 0.4zm-193.1-282.6q-1.1 0-2.1 0.4-1 0.4-1.7 1.2-0.8 0.8-1.2 1.8-0.4 1-0.4 2.1v271.4q0 1.1 0.4 2.1 0.4 1 1.2 1.7 0.7 0.8 1.7 1.2 1 0.4 2.1 0.5l193.1-0.1q1.1 0 2.1-0.4 1-0.4 1.8-1.2 0.7-0.7 1.1-1.7 0.5-1 0.5-2.1v-271.4q0-1.1-0.5-2.1-0.4-1-1.1-1.8-0.8-0.8-1.8-1.2-1-0.4-2.1-0.4z"/>
		<path id="Layer" fill-rule="evenodd" class="s0" d="m382.3 250.8h-193.1q-1.1 0-2.2-0.4-1-0.5-1.8-1.3-0.8-0.8-1.3-1.8-0.4-1.1-0.4-2.2v-271.4q0-1.2 0.5-2.2 0.4-1 1.2-1.8 0.8-0.8 1.8-1.3 1.1-0.4 2.2-0.4h193.1q1.1 0 2.2 0.4 1 0.5 1.8 1.3 0.8 0.8 1.3 1.8 0.4 1 0.4 2.2v271.4q0 1.1-0.4 2.2-0.5 1-1.3 1.8-0.8 0.8-1.8 1.3-1.1 0.4-2.2 0.4zm-193.1-282.6q-1.1 0-2.1 0.4-1 0.4-1.7 1.2-0.8 0.8-1.2 1.8-0.4 1-0.5 2.1v271.4q0.1 1.1 0.5 2.1 0.4 1 1.2 1.7 0.7 0.8 1.7 1.2 1 0.4 2.1 0.4h193.1q1.1 0 2.1-0.4 1-0.4 1.8-1.2 0.7-0.7 1.2-1.7 0.4-1 0.4-2.1v-271.4q0-1.1-0.4-2.1-0.5-1-1.2-1.8-0.8-0.8-1.8-1.2-1-0.4-2.1-0.4z"/>
		<path id="Layer" class="s1" d="m154.1 27l10.3-1.5-10.3-1.5 2.5-4-4 2.5-1.5-10.3-1.5 10.3-4.1-2.5 2.6 4-10.3 1.5 10.3 1.5-2.6 4 4.1-2.5 1.5 10.3 1.5-10.3 4 2.5-2.5-4z"/>
		<path id="Layer" class="s1" d="m257.9 54.6l10.4-1.5-10.4-1.5 2.6-4.1-4.1 2.6-1.5-10.4-1.5 10.4-4-2.6 2.5 4.1-10.3 1.5 10.3 1.5-2.5 4 4-2.5 1.5 10.3 1.5-10.3 4.1 2.5-2.6-4z"/>
		<path id="Layer" class="s1" d="m112.7 99.4l10.3-1.5-10.3-1.6 2.6-4-4.1 2.6-1.5-10.4-1.5 10.4-4-2.6 2.5 4-10.3 1.6 10.3 1.5-2.5 4 4-2.5 1.5 10.3 1.5-10.3 4.1 2.5-2.6-4z"/>
		<path id="Layer" class="s1" d="m25.4 99.4l10.3-1.5-10.3-1.6 2.5-4-4 2.6-1.5-10.4-1.5 10.4-4.1-2.6 2.6 4-10.3 1.6 10.3 1.5-2.6 4 4.1-2.5 1.5 10.3 1.5-10.3 4 2.5-2.5-4z"/>
		<path id="Layer" class="s1" d="m74.8 160.9l10.4-1.5-10.4-1.6 2.6-4-4 2.6-1.5-10.4-1.6 10.4-4-2.6 2.6 4-10.4 1.6 10.4 1.5-2.6 4 4-2.6 1.6 10.4 1.5-10.4 4 2.6-2.6-4z"/>
		<path id="Layer" class="s1" d="m277.8 127.8l10.3-1.5-10.3-1.6 2.5-4-4 2.6-1.5-10.4-1.5 10.4-4.1-2.6 2.6 4-10.4 1.6 10.4 1.5-2.6 4 4.1-2.5 1.5 10.3 1.5-10.3 4 2.5-2.5-4z"/>
		<path id="Layer" class="s1" d="m350.6 219.3l10.3-1.5-10.3-1.5 2.6-4.1-4.1 2.6-1.5-10.4-1.5 10.4-4-2.6 2.5 4.1-10.3 1.5 10.3 1.5-2.5 4 4-2.5 1.5 10.3 1.5-10.3 4.1 2.5-2.6-4z"/>
		<path id="Layer" class="s1" d="m264.4 216.1l10.4-1.5-10.4-1.5 2.6-4-4 2.5-1.5-10.3-1.6 10.3-4-2.5 2.6 4-10.4 1.5 10.4 1.5-2.6 4 4-2.5 1.6 10.3 1.5-10.3 4 2.5-2.6-4z"/>
		<path id="Layer" class="s1" d="m74.8 237.6l10.4-1.5-10.4-1.5 2.6-4-4 2.5-1.5-10.3-1.6 10.3-4-2.5 2.6 4-10.4 1.5 10.4 1.5-2.6 4.1 4-2.6 1.6 10.3 1.5-10.3 4 2.6-2.6-4.1z"/>
		<path id="Layer" class="s1" d="m187.1 190.7l10.3-1.5-10.3-1.5 2.5-4.1-4 2.6-1.5-10.3-1.5 10.3-4-2.6 2.5 4.1-10.3 1.5 10.3 1.5-2.5 4 4-2.5 1.5 10.3 1.5-10.3 4 2.5-2.5-4z"/>
		<path id="Layer" class="s1" d="m128.5 301.9l10.3-1.5-10.3-1.5 2.5-4-4 2.5-1.5-10.3-1.5 10.3-4.1-2.5 2.6 4-10.3 1.5 10.3 1.5-2.6 4.1 4.1-2.6 1.5 10.3 1.5-10.3 4 2.6-2.5-4.1z"/>
		<path id="Layer" class="s1" d="m243.4 295.2l10.3-1.5-10.3-1.6 2.5-4-4 2.6-1.5-10.4-1.5 10.4-4-2.6 2.5 4-10.3 1.6 10.3 1.5-2.5 4 4-2.6 1.5 10.4 1.5-10.4 4 2.6-2.5-4z"/>
		<path id="Layer" class="s0" d="m244.7 108.7c-6.1-9.1-8.8-23.3-14.4-29q1.6-1.2 3.3-2.4 1.7-1.2 3.4-2.3 1.8-1.1 3.5-2.2 1.8-1 3.6-2c3.5 9.9 5.5 25.3 14.4 29q-1.6 1.2-3.3 2.4-1.7 1.2-3.4 2.3-1.7 1.1-3.5 2.2-1.8 1-3.6 2z"/>
		<path id="Layer" fill-rule="evenodd" class="s2" d="m253 102.9q-1 0.7-2.1 1.3-1 0.7-2.1 1.3-1.1 0.6-2.2 1.3-0.2-0.4-0.5-0.6-0.4-0.3-0.8-0.4-0.4-0.1-0.8-0.1-0.4 0-0.8 0.2c-4.5-8.1-7.1-19-11.2-24.9q0.3-0.2 0.6-0.5 0.3-0.3 0.4-0.7 0.1-0.4 0.1-0.8 0-0.4-0.1-0.8 1-0.7 2-1.4 1.1-0.7 2.1-1.3 1.1-0.7 2.2-1.3 1.1-0.7 2.2-1.3 0.1 0.4 0.3 0.7 0.3 0.2 0.6 0.4 0.3 0.2 0.7 0.2 0.4 0 0.8-0.2c2.7 8.6 5 20.2 11.1 25.1-1 0.7-1.3 1.8-0.4 2.4q-1 0.7-2.1 1.4zm-12.9-11.5c0.9 2.4 3.1 3.8 5 3 1.8-0.8 2.5-3.4 1.6-5.9-0.8-2.5-2.9-3.9-4.8-3-1.9 0.8-2.7 3.5-1.8 5.9z"/>
		<path id="Layer" class="s0" d="m105.1 78.9c-8.8 4.7-22.2 5.3-27.7 10q-1.1-1.7-2.1-3.6-0.9-1.8-1.8-3.6-1-1.9-1.8-3.7-0.8-1.9-1.6-3.8c9.4-2 23.7-1.9 27.7-10.1q1 1.8 2 3.6 1 1.8 1.9 3.7 0.9 1.8 1.7 3.7 0.9 1.9 1.7 3.8z"/>
		<path id="Layer" fill-rule="evenodd" class="s2" d="m99.1 67.7c1.7 3.2 3.1 6.2 4.3 9q-0.3 0.2-0.6 0.5-0.2 0.3-0.4 0.7-0.1 0.3-0.1 0.7 0 0.4 0.1 0.8c-7.8 3.3-18 4.3-23.7 7.6-0.6-1.2-1.7-1.8-2.5-1.4-1.7-3.2-3.1-6.2-4.3-9q0.3-0.1 0.6-0.3 0.3-0.2 0.5-0.5 0.1-0.3 0.1-0.7 0.1-0.4-0.1-0.7c8.2-1.5 18.9-2.1 23.9-7.4 0.6 1.1 1.6 1.5 2.2 0.7zm-7.2 8.9c-0.6-2-3-3-5.3-2.5-2.4 0.5-3.8 2.3-3.2 4.3q0.4 0.8 0.9 1.4 0.6 0.6 1.3 0.9 0.8 0.4 1.6 0.5 0.8 0 1.6-0.2c2.3-0.6 3.7-2.5 3.1-4.4z"/>
		<path id="Layer" class="s0" d="m192.3 65.6c-7.5-6.7-12.6-19-18.9-22.6q1.3-1.6 2.6-3.1 1.4-1.6 2.8-3 1.4-1.5 2.9-3 1.5-1.4 3-2.8c5.1 8.2 9.9 21.7 19 22.6q-1.4 1.6-2.7 3.1-1.4 1.6-2.8 3-1.4 1.5-2.9 3-1.5 1.4-3 2.8z"/>
		<path id="Layer" fill-rule="evenodd" class="s2" d="m200.8 56.2c-2.5 2.7-4.8 5-7 7.1q-0.4-0.2-0.7-0.4-0.4-0.1-0.8-0.1-0.4 0-0.7 0.1-0.4 0.2-0.7 0.4c-5.8-6.2-10.3-15.4-15.3-19.7 0.9-0.9 1.1-2.2 0.5-2.8 2.4-2.7 4.7-5.1 7-7.2q0.2 0.3 0.5 0.5 0.3 0.2 0.6 0.3 0.4 0.1 0.7-0.1 0.4-0.1 0.6-0.3c4.2 7.1 8.5 17 15.2 19.9-0.9 0.9-0.9 2 0 2.3zm-15.9-5.2c1.3 2 3.6 2.6 5.2 1.4 1.6-1.3 1.7-3.8 0.5-5.9-1.3-2-3.6-2.7-5.2-1.4q-0.6 0.5-0.9 1.2-0.4 0.8-0.5 1.6-0.1 0.8 0.1 1.6 0.2 0.8 0.7 1.5z"/>
		<path id="Layer" class="s0" d="m215.7 169.9c-3.4-9.4-2-22.7-5.9-28.9q1.9-0.8 3.9-1.5 1.9-0.7 3.9-1.3 1.9-0.6 3.9-1.2 2-0.5 4-1c0.6 9.6-1.6 23.8 5.9 28.9q-1.9 0.7-3.9 1.4-1.9 0.7-3.9 1.4-1.9 0.6-3.9 1.1-2 0.6-4 1.1z"/>
		<path id="Layer" fill-rule="evenodd" class="s2" d="m227.6 165.7c-3.4 1.2-6.6 2.1-9.6 2.9q-0.1-0.4-0.4-0.7-0.3-0.3-0.6-0.4-0.3-0.2-0.7-0.3-0.4-0.1-0.8 0c-2.1-8.2-1.6-18.4-4-24.6 1.2-0.4 2-1.4 1.7-2.2 3.4-1.3 6.6-2.2 9.6-3q0 0.4 0.2 0.7 0.2 0.3 0.4 0.5 0.3 0.2 0.7 0.3 0.3 0.1 0.7 0c0.3 8.3-0.7 19 3.8 24.7-1.1 0.4-1.6 1.3-1 2zm-7.5-8.4c2-0.4 3.3-2.5 3.2-4.9-0.2-2.4-1.9-4.1-3.9-3.8q-0.7 0.2-1.4 0.7-0.7 0.5-1.1 1.2-0.5 0.6-0.7 1.4-0.2 0.8-0.1 1.7c0.2 2.3 2 4 4 3.7z"/>
		<path id="Layer" class="s0" d="m348.6 131.6c-7.5-6.6-12.6-19-19-22.6q1.3-1.5 2.7-3.1 1.4-1.5 2.8-3 1.4-1.5 2.9-2.9 1.5-1.5 3-2.9c5.1 8.2 9.9 21.7 18.9 22.6q-1.3 1.6-2.6 3.1-1.4 1.6-2.8 3.1-1.5 1.5-2.9 2.9-1.5 1.4-3 2.8z"/>
		<path id="Layer" fill-rule="evenodd" class="s2" d="m357 122.2c-2.4 2.7-4.7 5-7 7.1q-0.3-0.2-0.7-0.4-0.3-0.1-0.7-0.1-0.4 0-0.8 0.1-0.3 0.2-0.7 0.4c-5.8-6.2-10.2-15.4-15.2-19.7 0.9-0.9 1.1-2.2 0.4-2.8 2.5-2.7 4.8-5.1 7-7.2q0.2 0.3 0.5 0.5 0.3 0.2 0.7 0.3 0.3 0.1 0.7-0.1 0.3-0.1 0.6-0.3c4.2 7.1 8.4 17 15.1 19.9-0.8 0.9-0.8 2 0.1 2.3zm-10.8-3.8c1.6-1.2 1.8-3.8 0.5-5.8-1.3-2.1-3.5-2.8-5.1-1.5q-0.6 0.6-1 1.3-0.4 0.7-0.4 1.5-0.1 0.9 0.1 1.6 0.2 0.8 0.7 1.5c1.3 2 3.6 2.7 5.2 1.4z"/>
		<g id="Layer">
			<path id="Layer" fill-rule="evenodd" class="s2" d="m342.6 116.4l-0.4 0.3-0.2-0.4 0.4-0.3q-0.1-0.2-0.2-0.4-0.1-0.1-0.1-0.3-0.1-0.2-0.1-0.4-0.1-0.2-0.1-0.3l0.6-0.1q0 0.1 0 0.3 0 0.1 0.1 0.3 0 0.1 0.1 0.3 0 0.1 0.1 0.3l0.7-0.6c-0.2-0.6-0.4-1.3 0.1-1.7 0.4-0.3 1-0.2 1.5 0.5l0.4-0.3 0.3 0.4-0.5 0.3q0.1 0.1 0.2 0.3 0.1 0.1 0.1 0.2 0.1 0.2 0.1 0.3 0 0.2 0 0.3l-0.5 0.1q0-0.1 0-0.2 0-0.1-0.1-0.2 0-0.2-0.1-0.3 0-0.1-0.1-0.2l-0.7 0.6c0.2 0.6 0.5 1.3 0 1.7-0.5 0.4-1 0.2-1.6-0.5zm1.4-1.7l0.7-0.5c-0.3-0.3-0.5-0.4-0.7-0.2-0.2 0.1-0.1 0.4 0 0.7zm-0.3 1.6c0.2-0.1 0.1-0.4 0-0.8l-0.7 0.6c0.3 0.3 0.5 0.3 0.7 0.2z"/>
		</g>
		<path id="Layer" class="s0" d="m171.4 111.9c-6.7 8.6-12.8 17.9-15.5 27.8-4.6-1.9-9.2-3.8-13.7-6 3.5-10.2 9.7-19.3 15.5-27.8 4.5 1.9 9.2 3.8 13.7 6z"/>
		<path id="Layer" fill-rule="evenodd" class="s2" d="m159.8 107.7c2.8 1.1 5.7 2.3 8.5 3.6q-0.2 0.3-0.3 0.7-0.1 0.4 0 0.8 0.1 0.4 0.3 0.7 0.3 0.3 0.6 0.4c-5.3 7.2-10.2 14.8-12.9 22.8q-0.4-0.1-0.8-0.1-0.4 0-0.7 0.2-0.4 0.1-0.6 0.4-0.3 0.3-0.4 0.7c-2.8-1.2-5.7-2.4-8.5-3.7q0.1-0.4 0.1-0.8 0-0.4-0.1-0.8-0.2-0.4-0.5-0.7-0.2-0.3-0.6-0.5c3.2-8.3 8.1-15.8 12.9-22.8q0.4 0.1 0.8 0.1 0.5 0 0.9-0.1 0.4-0.1 0.7-0.3 0.4-0.3 0.6-0.6zm-0.2 14.9q0.2-0.8 0-1.6-0.3-0.8-0.8-1.4-0.5-0.6-1.2-1-0.8-0.3-1.7-0.3-0.8-0.1-1.6 0.2-0.8 0.3-1.5 0.8-0.7 0.6-1.1 1.3-0.4 0.7-0.5 1.5-0.1 0.8 0.1 1.6 0.2 0.8 0.7 1.4 0.6 0.6 1.3 1 0.8 0.3 1.6 0.3 0.9 0 1.6-0.3 0.8-0.3 1.5-0.8 0.6-0.6 1-1.3 0.5-0.7 0.6-1.4z"/>
		<g id="Layer">
			<path id="Layer" fill-rule="evenodd" class="s2" d="m157.5 122.8l0.5 0.3-0.2 0.4-0.6-0.3q-0.1 0.2-0.2 0.3-0.1 0.2-0.2 0.3-0.2 0.1-0.3 0.2-0.2 0.2-0.3 0.2l-0.4-0.4q0.1-0.1 0.3-0.2 0.1-0.1 0.2-0.2 0.1-0.1 0.2-0.2 0.1-0.1 0.2-0.2l-1-0.5c-0.4 0.5-0.9 1-1.6 0.7-0.5-0.2-0.7-0.8-0.3-1.6l-0.6-0.2 0.2-0.4 0.6 0.2q0.1-0.1 0.2-0.2 0.1-0.2 0.2-0.3 0.1-0.1 0.2-0.2 0.1-0.1 0.3-0.1l0.3 0.4q-0.1 0-0.2 0.1-0.1 0.1-0.2 0.2-0.1 0.1-0.1 0.2-0.1 0-0.2 0.1l1 0.5c0.4-0.5 1-1 1.7-0.7 0.4 0.3 0.6 0.8 0.3 1.6zm-2.3-0.5l-0.9-0.4c-0.1 0.4-0.1 0.6 0.2 0.7 0.2 0.1 0.4-0.1 0.7-0.3zm1.6-0.4c-0.2-0.1-0.5 0-0.7 0.3l0.9 0.4c0.1-0.4 0-0.6-0.2-0.7z"/>
		</g>
		<path id="Layer" class="s0" d="m341.9 163.2c-6.7 8.6-12.8 17.9-15.5 27.8-4.5-1.9-9.2-3.8-13.7-6 3.5-10.3 9.7-19.3 15.5-27.8 4.6 1.9 9.2 3.8 13.7 6z"/>
		<path id="Layer" fill-rule="evenodd" class="s2" d="m330.3 158.9c2.9 1.2 5.7 2.4 8.6 3.7q-0.3 0.3-0.4 0.7-0.1 0.4 0 0.8 0.1 0.3 0.3 0.6 0.3 0.3 0.6 0.5c-5.3 7.2-10.2 14.8-12.9 22.8q-0.4-0.1-0.8-0.1-0.3 0-0.7 0.1-0.3 0.2-0.6 0.5-0.3 0.3-0.4 0.7c-2.8-1.2-5.7-2.4-8.5-3.7q0.2-0.4 0.1-0.8 0-0.5-0.1-0.9-0.2-0.3-0.4-0.7-0.3-0.3-0.7-0.5c3.3-8.2 8.1-15.7 12.9-22.8q0.4 0.2 0.9 0.2 0.4 0 0.8-0.1 0.4-0.1 0.7-0.4 0.4-0.2 0.6-0.6zm-0.3 15q0.1-0.8-0.1-1.6-0.2-0.8-0.7-1.4-0.5-0.6-1.2-0.9-0.8-0.3-1.6-0.4-0.9 0-1.7 0.3-0.8 0.2-1.4 0.7-0.7 0.6-1.1 1.3-0.5 0.7-0.6 1.5-0.1 0.8 0.1 1.6 0.3 0.8 0.8 1.4 0.5 0.6 1.2 1 0.8 0.3 1.7 0.3 0.8 0 1.6-0.3 0.8-0.3 1.4-0.8 0.6-0.6 1-1.3 0.5-0.7 0.6-1.4z"/>
		<g id="Layer">
			<path id="Layer" fill-rule="evenodd" class="s2" d="m328 174.1l0.5 0.3q-0.1 0.2-0.2 0.4l-0.5-0.3q-0.1 0.2-0.3 0.3-0.1 0.2-0.2 0.3-0.1 0.1-0.3 0.2-0.2 0.1-0.3 0.2l-0.4-0.4q0.2-0.1 0.3-0.2 0.1-0.1 0.2-0.2 0.2-0.1 0.3-0.2 0.1-0.1 0.2-0.2l-1.1-0.5c-0.4 0.5-0.9 1-1.6 0.7-0.5-0.2-0.7-0.8-0.3-1.6l-0.6-0.3q0.1-0.2 0.3-0.4l0.5 0.3q0.1-0.1 0.2-0.3 0.1-0.1 0.2-0.2 0.1-0.1 0.2-0.2 0.2-0.1 0.3-0.2l0.4 0.5q-0.2 0-0.3 0.1 0 0.1-0.1 0.2-0.1 0-0.2 0.1-0.1 0.1-0.2 0.2l1 0.5c0.5-0.5 1-1 1.7-0.7 0.4 0.3 0.7 0.8 0.3 1.6zm-2.3-0.5l-0.9-0.4c-0.1 0.3 0 0.6 0.2 0.7 0.2 0.1 0.4-0.1 0.7-0.3zm1.6-0.4c-0.2-0.1-0.5 0-0.7 0.3l0.8 0.4c0.2-0.4 0.1-0.6-0.1-0.7z"/>
		</g>
		<path id="Layer" class="s0" d="m298.8 46.7c-0.5-11-10.3-18.5-10.8-29.4l14-5.1c0.5 10.9 10.3 18.4 10.8 29.3z"/>
		<path id="Layer" fill-rule="evenodd" class="s2" d="m301.4 44.9q0-0.4-0.2-0.8-0.2-0.3-0.6-0.5-0.3-0.2-0.7-0.2-0.3 0-0.7 0.1c-1.7-8.5-8.4-15.1-10.1-23.6q0.4-0.2 0.7-0.4 0.3-0.3 0.5-0.7 0.2-0.4 0.3-0.8 0.1-0.4 0.1-0.8l8.7-3.2q0 0.3 0.2 0.7 0.2 0.3 0.5 0.5 0.4 0.2 0.7 0.2 0.4 0.1 0.8-0.1c1.7 8.5 8.4 15.1 10.1 23.6q-0.4 0.2-0.7 0.5-0.3 0.2-0.6 0.6-0.2 0.4-0.3 0.8-0.1 0.4 0 0.9c0 0-8.7 3.2-8.7 3.2zm-4.8-14.3q0.5 0.8 1.1 1.3 0.7 0.6 1.5 0.9 0.8 0.3 1.6 0.3 0.9 0.1 1.7-0.2 0.8-0.3 1.4-0.8 0.5-0.6 0.8-1.3 0.3-0.8 0.2-1.5-0.1-0.8-0.5-1.5-0.4-0.8-1.1-1.3-0.6-0.6-1.4-0.9-0.8-0.3-1.7-0.3-0.9 0-1.7 0.2-0.7 0.3-1.3 0.8-0.6 0.6-0.8 1.3-0.3 0.8-0.2 1.6 0 0.8 0.4 1.5z"/>
		<g id="Layer">
			<path id="Layer" fill-rule="evenodd" class="s2" d="m298.7 30.3l-0.6 0.2-0.2-0.4 0.6-0.2q-0.1-0.1-0.2-0.3-0.1-0.1-0.1-0.3 0-0.2 0-0.4 0-0.1 0-0.3h0.6q0 0.1 0 0.3 0 0.1 0 0.3 0.1 0.1 0.1 0.2 0 0.2 0.1 0.3l1-0.4c-0.2-0.6-0.3-1.2 0.4-1.5q0.3 0 0.5 0 0.3 0 0.5 0.1 0.2 0.1 0.4 0.3 0.2 0.1 0.3 0.3l0.6-0.2 0.2 0.4-0.6 0.3q0.1 0.1 0.1 0.2 0.1 0.1 0.1 0.3 0.1 0.1 0.1 0.3 0 0.1 0 0.2h-0.6q0-0.1 0-0.2 0-0.1 0-0.2 0-0.1-0.1-0.2 0-0.1-0.1-0.2l-1 0.3c0.2 0.6 0.3 1.3-0.4 1.5q-0.2 0.1-0.5 0.1-0.2 0-0.5-0.1-0.2-0.1-0.4-0.3-0.2-0.1-0.3-0.4zm2-1.2l0.9-0.3c-0.3-0.3-0.5-0.4-0.7-0.3-0.3 0-0.3 0.3-0.2 0.6zm-0.7 1.4c0.2-0.1 0.2-0.4 0.2-0.7l-1 0.3c0.3 0.4 0.5 0.4 0.8 0.4z"/>
		</g>
		<path id="Layer" class="s0" d="m15.4 175.9c-0.5-10.9-10.3-18.4-10.8-29.3l14-5.2c0.5 10.9 10.3 18.4 10.8 29.3z"/>
		<path id="Layer" fill-rule="evenodd" class="s2" d="m18 174.1q0-0.4-0.2-0.7-0.2-0.4-0.5-0.6-0.4-0.2-0.8-0.2-0.3 0-0.7 0.1c-1.7-8.4-8.4-15.1-10.1-23.6q0.4-0.1 0.7-0.4 0.3-0.3 0.5-0.7 0.2-0.3 0.3-0.8 0.1-0.4 0.1-0.8l8.7-3.2q0 0.4 0.2 0.7 0.2 0.3 0.5 0.5 0.4 0.2 0.7 0.3 0.4 0 0.8-0.2c1.7 8.5 8.4 15.1 10.1 23.6q-0.4 0.2-0.7 0.5-0.3 0.3-0.5 0.6-0.3 0.4-0.4 0.8 0 0.4 0 0.9zm-4.8-14.3q0.5 0.8 1.1 1.3 0.7 0.6 1.5 0.9 0.8 0.3 1.6 0.3 0.9 0.1 1.7-0.2 0.8-0.2 1.3-0.8 0.6-0.6 0.9-1.3 0.3-0.7 0.2-1.5-0.1-0.8-0.5-1.5-0.4-0.8-1.1-1.3-0.6-0.6-1.4-0.9-0.8-0.3-1.7-0.3-0.9 0-1.7 0.3-0.7 0.2-1.3 0.8-0.6 0.5-0.8 1.2-0.3 0.8-0.2 1.6 0 0.8 0.4 1.5z"/>
		<g id="Layer">
			<path id="Layer" fill-rule="evenodd" class="s2" d="m15.3 159.6l-0.6 0.2-0.2-0.4 0.5-0.2q0-0.2-0.1-0.4 0-0.1-0.1-0.3 0-0.2 0-0.3 0-0.2 0-0.4h0.7q-0.1 0.2-0.1 0.3 0 0.1 0 0.3 0.1 0.1 0.1 0.3 0 0.1 0.1 0.2l1-0.3c-0.2-0.6-0.3-1.3 0.4-1.5q0.3-0.1 0.5-0.1 0.3 0 0.5 0.1 0.2 0.1 0.4 0.3 0.2 0.1 0.3 0.4l0.6-0.2 0.2 0.4-0.6 0.2q0.1 0.1 0.2 0.2 0 0.2 0 0.3 0.1 0.1 0.1 0.3 0 0.1 0 0.3h-0.7q0-0.1 0-0.3 0-0.1 0-0.2 0-0.1 0-0.2-0.1-0.1-0.1-0.2l-1 0.4c0.2 0.6 0.3 1.2-0.4 1.5q-0.3 0-0.5 0-0.3 0-0.5-0.1-0.2-0.1-0.4-0.3-0.2-0.1-0.3-0.3zm2-1.3l0.9-0.3q-0.1-0.1-0.1-0.2-0.1 0-0.2-0.1-0.1 0-0.2 0-0.1 0-0.2 0c-0.3 0.1-0.3 0.3-0.2 0.6zm-0.7 1.4c0.2-0.1 0.2-0.4 0.2-0.7l-1 0.3c0.3 0.4 0.5 0.5 0.7 0.4z"/>
		</g>
		<path id="Layer" class="s0" d="m51.2 46.4c-3.9 10.6-17 10.4-21.4 19.3-4.1-3.6-8-7-11.9-10.1 3.8-10.5 17-10.3 21.3-19.2 4.1 3.6 8.1 6.9 12 10z"/>
		<path id="Layer" fill-rule="evenodd" class="s2" d="m41.2 39q0 0.1 0 0.1 0 0 0 0zm-0.1 0q3.8 3.3 7.5 6.3c0 0 0.1-0.2 0 0q-0.2 0.4-0.2 0.8-0.1 0.4 0 0.9 0.1 0.4 0.3 0.7 0.2 0.4 0.6 0.7c-4.4 7.2-14 8.2-18.8 14.4-0.9-0.8-2.1-0.8-2.6 0.1q-3.8-3.3-7.5-6.3 0.2-0.4 0.2-0.8 0.1-0.5 0-0.9-0.1-0.4-0.3-0.8-0.2-0.3-0.6-0.6c4.4-7.2 14-8.3 18.8-14.4 0.9 0.8 2.1 0.8 2.6-0.1zm-3.5 15c1.9-1 1.9-3.3 0-5-1.8-1.8-4.8-2.3-6.8-1.3-2 1-1.9 3.3 0 5 1.8 1.7 4.9 2.3 6.8 1.3z"/>
		<g id="Layer">
			<path id="Layer" fill-rule="evenodd" class="s2" d="m36.4 52.4q0.2 0.2 0.5 0.5l-0.4 0.2-0.5-0.5q-0.2 0.1-0.4 0.1-0.2 0.1-0.3 0.1-0.2 0.1-0.4 0.1-0.2 0-0.4-0.1l-0.3-0.5q0.2 0 0.4 0 0.1 0 0.3 0 0.1 0 0.3 0 0.2-0.1 0.3-0.1l-0.9-0.9q-0.3 0.1-0.5 0.2-0.3 0-0.5 0-0.3-0.1-0.6-0.2-0.2-0.1-0.4-0.3-0.2-0.1-0.3-0.3-0.1-0.2-0.1-0.4 0-0.2 0.2-0.4 0.1-0.2 0.3-0.3l-0.5-0.4 0.4-0.2 0.5 0.4q0.1-0.1 0.3-0.1 0.1 0 0.3-0.1 0.1 0 0.3 0 0.1 0 0.3 0l0.2 0.5q-0.1 0-0.2 0-0.1 0-0.3 0-0.1 0.1-0.2 0.1-0.1 0-0.3 0.1l1 0.8q0.2-0.1 0.5-0.1 0.2-0.1 0.5 0 0.3 0 0.5 0.1 0.3 0.1 0.5 0.3 0.2 0.1 0.2 0.3 0.1 0.2 0.1 0.4 0 0.2-0.1 0.4-0.1 0.2-0.3 0.3zm-2.4-1.6l-0.8-0.7q-0.1 0-0.1 0.1-0.1 0.1-0.1 0.2 0 0.1 0.1 0.2 0 0 0.1 0.1 0.1 0.1 0.2 0.1 0.1 0 0.2 0 0.1 0.1 0.2 0.1 0.1-0.1 0.2-0.1zm1.9 0.5q-0.1 0-0.2-0.1-0.1 0-0.2 0-0.1 0-0.3 0-0.1 0-0.2 0l0.8 0.7c0.4-0.2 0.3-0.4 0.1-0.6z"/>
		</g>
		<path id="Layer" class="s0" d="m61.4 195.2c-3.8 10.5-17 10.3-21.3 19.3-4-3.6-8-7-12-10.1 3.8-10.5 17-10.3 21.4-19.2 4 3.5 8 6.9 11.9 10z"/>
		<path id="Layer" fill-rule="evenodd" class="s2" d="m58.9 194.2q-0.2 0.4-0.3 0.8 0 0.4 0.1 0.8 0.1 0.4 0.3 0.8 0.2 0.4 0.5 0.7c-4.3 7.2-14 8.2-18.7 14.4-0.9-0.8-2.2-0.8-2.7 0.1-2.5-2.2-5-4.4-7.4-6.4q0.1-0.3 0.2-0.8 0-0.4-0.1-0.8 0-0.4-0.3-0.8-0.2-0.4-0.5-0.6c4.4-7.3 14-8.3 18.7-14.5 0.9 0.9 2.2 0.9 2.7-0.1q3.8 3.4 7.5 6.4zm-11 8.7c1.9-1.1 1.8-3.3 0-5.1-1.9-1.7-4.9-2.2-6.9-1.2-2 1-1.8 3.3 0 5 1.9 1.7 5 2.2 6.9 1.2z"/>
		<g id="Layer">
			<path id="Layer" fill-rule="evenodd" class="s2" d="m46.6 201.2l0.5 0.5q-0.2 0-0.3 0.2l-0.6-0.5q-0.1 0.1-0.3 0.1-0.2 0.1-0.4 0.1-0.2 0-0.4 0-0.2 0-0.4 0-0.1-0.2-0.2-0.5 0.2 0 0.3 0 0.2 0 0.3 0 0.2 0 0.4-0.1 0.1 0 0.3-0.1l-1-0.8q-0.2 0.1-0.5 0.1-0.2 0.1-0.5 0-0.3 0-0.5-0.1-0.3-0.1-0.5-0.3-0.1-0.1-0.2-0.3-0.1-0.2-0.1-0.4 0-0.2 0.1-0.4 0.2-0.2 0.4-0.3l-0.6-0.5 0.4-0.2 0.5 0.5q0.2-0.1 0.3-0.1 0.2-0.1 0.3-0.1 0.2 0 0.3 0 0.2-0.1 0.3-0.1 0.2 0.3 0.3 0.6-0.1 0-0.3 0-0.1 0-0.2 0-0.1 0-0.3 0.1-0.1 0-0.2 0l0.9 0.9q0.3-0.1 0.5-0.2 0.3 0 0.6 0 0.2 0.1 0.5 0.2 0.2 0.1 0.4 0.3 0.2 0.1 0.3 0.3 0.1 0.2 0.1 0.4 0 0.2-0.2 0.4-0.1 0.2-0.3 0.3zm-2.3-1.6l-0.8-0.7c-0.3 0.2-0.3 0.4 0 0.6q0.1 0 0.2 0.1 0.1 0 0.2 0 0.1 0 0.2 0 0.1 0 0.2 0zm1.9 0.5q-0.1-0.1-0.2-0.1-0.1 0-0.2-0.1-0.2 0-0.3 0-0.1 0-0.2 0.1l0.8 0.7c0.3-0.2 0.3-0.4 0.1-0.6z"/>
		</g>
		<path id="Layer" fill-rule="evenodd" class="s2" d="m241.9 91.2l-0.5 0.2q-0.1-0.2-0.2-0.5l0.5-0.2q-0.1-0.2-0.1-0.4-0.1-0.2-0.1-0.4 0-0.2 0-0.4 0-0.2 0-0.4l0.6 0.1q-0.1 0.1-0.1 0.3 0 0.2 0 0.3 0.1 0.2 0.1 0.4 0 0.1 0.1 0.3l0.8-0.4c-0.1-0.7-0.2-1.5 0.5-1.7 0.4-0.2 1 0 1.3 1l0.5-0.3 0.2 0.5-0.5 0.2q0.1 0.2 0.1 0.4 0 0.1 0.1 0.3 0 0.2 0 0.3 0 0.2 0 0.4l-0.6-0.1q0-0.1 0-0.2 0-0.2 0-0.3 0-0.1 0-0.3 0-0.1-0.1-0.2l-0.8 0.3c0.1 0.8 0.2 1.5-0.4 1.8-0.5 0.2-1-0.1-1.4-1zm1.7-1.3l0.7-0.3c-0.2-0.4-0.4-0.6-0.6-0.5-0.2 0.1-0.2 0.4-0.1 0.8zm-0.7 1.5c0.3-0.1 0.3-0.4 0.2-0.8l-0.8 0.4c0.2 0.4 0.5 0.5 0.6 0.4z"/>
		<path id="Layer" fill-rule="evenodd" class="s2" d="m88.7 79.2q0.1 0.3 0.2 0.5l-0.5 0.1q-0.1-0.2-0.1-0.5-0.2 0.1-0.4 0.1-0.2 0-0.4 0-0.2 0-0.4-0.1-0.2 0-0.3-0.1c0-0.1 0-0.3 0.1-0.5q0.1 0.1 0.3 0.1 0.1 0 0.3 0.1 0.1 0 0.3 0 0.1 0 0.3-0.1-0.2-0.4-0.3-0.9c-0.7 0-1.4 0-1.6-0.6-0.1-0.5 0.2-1 1-1.2q-0.1-0.3-0.1-0.6l0.4-0.1c0 0.2 0.1 0.4 0.2 0.6q0.1-0.1 0.3-0.1 0.1 0 0.3 0 0.1 0 0.3 0 0.1 0 0.3 0.1c0 0.1 0 0.3-0.1 0.5q-0.1-0.1-0.2-0.1-0.2 0-0.3 0-0.1 0-0.2 0-0.2 0-0.3 0.1 0.2 0.4 0.3 0.9c0.7 0 1.4 0 1.6 0.6 0.2 0.5-0.1 1-1 1.2zm-1.1-1.8q-0.1-0.4-0.2-0.8c-0.4 0.1-0.5 0.3-0.5 0.5 0.1 0.2 0.4 0.3 0.7 0.3zm1.4 0.8c-0.1-0.2-0.3-0.3-0.7-0.3q0.1 0.4 0.3 0.8c0.4-0.1 0.5-0.3 0.4-0.5z"/>
		<path id="Layer" fill-rule="evenodd" class="s2" d="m186.4 50.3l-0.5 0.4-0.2-0.4 0.4-0.3q-0.1-0.2-0.2-0.4 0-0.2-0.1-0.3-0.1-0.2-0.1-0.4 0-0.2 0-0.4l0.5-0.1q0 0.2 0 0.3 0 0.2 0.1 0.3 0 0.2 0.1 0.3 0 0.2 0.1 0.3l0.8-0.6c-0.3-0.6-0.5-1.3 0-1.7 0.6-0.4 1-0.2 1.5 0.6l0.4-0.4 0.3 0.4-0.4 0.3q0.1 0.2 0.1 0.3 0.1 0.2 0.1 0.3 0.1 0.2 0.1 0.3 0.1 0.2 0.1 0.3l-0.5 0.1q0-0.1-0.1-0.2 0-0.2 0-0.3-0.1-0.1-0.1-0.2-0.1-0.1-0.1-0.2l-0.8 0.6c0.2 0.6 0.5 1.3 0 1.7-0.5 0.4-1 0.2-1.5-0.6zm1.3-1.6l0.7-0.5c-0.2-0.3-0.5-0.4-0.7-0.3-0.1 0.2-0.1 0.5 0 0.8zm-0.3 1.6c0.2-0.2 0.2-0.4 0-0.8l-0.6 0.5c0.3 0.3 0.5 0.4 0.6 0.3z"/>
		<path id="Layer" fill-rule="evenodd" class="s2" d="m217.8 153.7l-0.6 0.1q0-0.3 0-0.5l0.6-0.1q0-0.2 0-0.4 0-0.2 0-0.4 0.1-0.1 0.1-0.3 0.1-0.2 0.2-0.4l0.5 0.2q-0.1 0.1-0.2 0.3 0 0.1 0 0.3-0.1 0.1-0.1 0.3 0 0.1 0 0.3l0.9-0.1c0.1-0.7 0.2-1.4 0.9-1.5 0.5-0.1 0.9 0.3 1 1.1h0.6v0.4l-0.5 0.1q0 0.2 0 0.3-0.1 0.2-0.1 0.3 0 0.2 0 0.3-0.1 0.2-0.1 0.3l-0.5-0.1q0-0.1 0-0.3 0.1-0.1 0.1-0.2 0-0.1 0-0.3 0-0.1 0-0.2l-0.9 0.1c-0.1 0.7-0.2 1.4-0.9 1.5-0.4 0.1-0.9-0.2-1-1.1zm2-0.8l0.8-0.2c-0.1-0.4-0.3-0.5-0.5-0.5-0.2 0-0.3 0.3-0.3 0.7zm-1 1.2c0.2 0 0.3-0.3 0.3-0.7l-0.8 0.2c0.1 0.4 0.2 0.5 0.4 0.5z"/>
	</g>
	<g id="freepik--Shadow--inject-2">
		<path id="freepik--path--inject-2" class="s1" d="m179 340.6c-107.2 0-193.9-5.1-193.9-11.4 0-6.2 86.7-11.3 193.9-11.3 107.2 0 193.9 5.1 193.9 11.3 0 6.3-86.7 11.4-193.9 11.4z"/>
	</g>
	<g id="freepik--banknotes-2--inject-2">
		<path id="Layer" class="s3" d="m100.9 37.4c-9.6-5.4-18.3-16.9-25.9-19.4q0.9-1.9 1.9-3.7 1-1.8 2-3.6 1.1-1.7 2.2-3.5 1.1-1.7 2.3-3.4c7.5 7.3 16.3 20.2 25.9 19.4q-0.9 1.9-1.9 3.7-1 1.8-2 3.6-1.1 1.8-2.2 3.5-1.1 1.7-2.3 3.4z"/>
		<path id="Layer" class="s4" d="m100.9 37.4c-9.6-5.4-18.3-16.9-25.9-19.4q0.9-1.9 1.9-3.7 1-1.8 2-3.6 1.1-1.7 2.2-3.5 1.1-1.7 2.3-3.4c7.5 7.3 16.3 20.2 25.9 19.4q-0.9 1.9-1.9 3.7-1 1.8-2 3.6-1.1 1.8-2.2 3.5-1.1 1.7-2.3 3.4z"/>
		<path id="Layer" fill-rule="evenodd" class="s5" d="m107 26.3q-0.6 1.1-1.2 2.2-0.6 1-1.3 2.1-0.6 1.1-1.3 2.1-0.7 1.1-1.4 2.1-0.3-0.2-0.8-0.3-0.4 0-0.8 0-0.4 0.1-0.7 0.3-0.4 0.2-0.7 0.5c-7.7-5.1-14.9-13.7-21.2-17.1q0.2-0.4 0.3-0.8 0.1-0.4 0.1-0.8-0.1-0.4-0.3-0.8-0.2-0.3-0.5-0.6 0.6-1.1 1.2-2.2 0.7-1.1 1.3-2.1 0.7-1.1 1.3-2.2 0.7-1 1.4-2 0.3 0.2 0.6 0.4 0.4 0.1 0.8 0.1 0.3 0 0.7-0.2 0.3-0.1 0.5-0.4c6.4 6.4 13.6 15.7 21.3 17.4-0.6 1.1-0.3 2.2 0.7 2.3zm-12.1-1.8c1.2-1.6 0.7-4.2-1.2-6-1.9-1.9-4.4-2.2-5.7-0.6-1.3 1.6-0.9 4.3 1 6.1 2 1.8 4.6 2 5.9 0.5z"/>
		<g id="Layer" style="opacity: .2">
			<path id="Layer" fill-rule="evenodd" class="s6" d="m90.5 23l-0.3 0.4-0.4-0.3q0.2-0.3 0.3-0.4-0.1-0.2-0.2-0.4-0.2-0.1-0.3-0.3-0.1-0.2-0.2-0.3-0.1-0.2-0.1-0.4l0.5-0.2q0 0.2 0.1 0.3 0.1 0.2 0.2 0.3 0.1 0.2 0.2 0.3 0.1 0.1 0.2 0.3l0.6-0.8c-0.4-0.6-0.9-1.2-0.4-1.7 0.4-0.5 0.9-0.4 1.6 0.2q0.2-0.2 0.4-0.4l0.4 0.4-0.4 0.4q0.1 0.1 0.2 0.2 0.1 0.2 0.2 0.3 0.1 0.1 0.2 0.3 0.1 0.1 0.2 0.3l-0.5 0.2q-0.1-0.1-0.2-0.3 0-0.1-0.1-0.2-0.1-0.1-0.1-0.2-0.1-0.1-0.2-0.2l-0.6 0.7c0.4 0.6 0.8 1.3 0.4 1.8-0.4 0.5-0.9 0.4-1.7-0.3zm1-1.9l0.5-0.7c-0.3-0.3-0.6-0.3-0.7-0.1-0.1 0.2-0.1 0.5 0.2 0.8zm0.1 1.7c0.1-0.2 0-0.5-0.2-0.8l-0.6 0.6c0.4 0.4 0.6 0.4 0.8 0.2z"/>
		</g>
		<path id="Layer" class="s3" d="m183 79.7c-8.8 4.8-22.1 5.4-27.7 10.1q-1-1.8-2-3.6-1-1.8-1.9-3.7-0.9-1.8-1.7-3.7-0.9-1.9-1.6-3.8c9.3-2 23.7-1.9 27.6-10.1q1.1 1.8 2.1 3.6 0.9 1.8 1.8 3.7 1 1.8 1.8 3.7 0.8 1.9 1.6 3.8z"/>
		<path id="Layer" class="s4" d="m183 79.7c-8.8 4.8-22.1 5.4-27.7 10.1q-1-1.8-2-3.6-1-1.8-1.9-3.7-0.9-1.8-1.7-3.7-0.9-1.9-1.6-3.8c9.3-2 23.7-1.9 27.6-10.1q1.1 1.8 2.1 3.6 0.9 1.8 1.8 3.7 1 1.8 1.8 3.7 0.8 1.9 1.6 3.8z"/>
		<path id="Layer" fill-rule="evenodd" class="s5" d="m177.1 68.5c1.7 3.2 3.1 6.2 4.3 9q-0.4 0.3-0.6 0.6-0.3 0.3-0.4 0.6-0.1 0.4-0.1 0.8-0.1 0.4 0.1 0.8c-7.9 3.3-18 4.3-23.8 7.5-0.6-1.1-1.7-1.7-2.5-1.4-1.7-3.1-3.1-6.1-4.3-9q0.4 0 0.7-0.2 0.3-0.3 0.4-0.6 0.2-0.3 0.2-0.6 0-0.4-0.1-0.7c8.1-1.6 18.9-2.1 23.9-7.5 0.6 1.2 1.6 1.5 2.2 0.8zm-7.2 8.8c-0.7-1.9-3-3-5.3-2.5-2.4 0.5-3.9 2.4-3.2 4.3q0.3 0.8 0.9 1.4 0.6 0.6 1.3 0.9 0.7 0.4 1.5 0.5 0.9 0 1.7-0.2c2.3-0.5 3.7-2.5 3.1-4.4z"/>
		<g id="Layer" style="opacity: .2">
			<path id="Layer" fill-rule="evenodd" class="s6" d="m166.7 80.1q0.1 0.2 0.1 0.5l-0.4 0.1c0-0.2-0.1-0.3-0.2-0.5q-0.2 0-0.4 0-0.1 0.1-0.3 0-0.2 0-0.4 0-0.2 0-0.4-0.1c0-0.2 0.1-0.3 0.1-0.5q0.2 0 0.3 0.1 0.2 0 0.3 0 0.2 0 0.4 0 0.1 0 0.3 0-0.2-0.5-0.3-0.9c-0.7 0-1.4 0-1.6-0.7-0.2-0.4 0.1-0.9 1-1.2q-0.1-0.2-0.2-0.5l0.5-0.1c0 0.2 0.1 0.4 0.1 0.5q0.2 0 0.3 0 0.2 0 0.4 0 0.1 0 0.3 0 0.1 0 0.3 0l-0.1 0.5q-0.1 0-0.3 0-0.1 0-0.2 0-0.1 0-0.3 0-0.1 0-0.2 0 0.1 0.5 0.3 0.9c0.6 0 1.4 0 1.6 0.7 0.1 0.4-0.2 0.9-1 1.2zm-1.1-1.9q-0.1-0.4-0.3-0.8c-0.3 0.2-0.5 0.4-0.4 0.6 0.1 0.2 0.4 0.2 0.7 0.2zm1.4 0.9c-0.1-0.3-0.4-0.3-0.7-0.3q0.1 0.4 0.2 0.8c0.4-0.2 0.5-0.3 0.5-0.5z"/>
		</g>
		<path id="Layer" class="s3" d="m254.9 16.7c-10.3 3.5-20.6 7.8-28.3 14.6-2.7-4.1-5.5-8.2-8.1-12.5 8.6-6.6 18.7-10.8 28.3-14.6 2.7 4.1 5.6 8.2 8.1 12.5z"/>
		<path id="Layer" class="s4" d="m254.9 16.7c-10.3 3.5-20.6 7.8-28.3 14.6-2.7-4.1-5.5-8.2-8.1-12.5 8.6-6.6 18.7-10.8 28.3-14.6 2.7 4.1 5.6 8.2 8.1 12.5z"/>
		<path id="Layer" fill-rule="evenodd" class="s5" d="m247.6 6.8c1.7 2.6 3.4 5.1 5.1 7.8q-0.4 0.1-0.7 0.3-0.3 0.3-0.4 0.7-0.2 0.3-0.1 0.7 0 0.4 0.2 0.7c-8.4 3.1-16.6 6.7-23.4 11.9q-0.2-0.3-0.5-0.5-0.3-0.2-0.7-0.3-0.4-0.1-0.8 0-0.4 0.2-0.6 0.4c-1.8-2.5-3.5-5.1-5.1-7.8q0.3-0.2 0.5-0.6 0.3-0.3 0.4-0.8 0-0.4 0-0.8-0.1-0.4-0.3-0.8c7.3-5.1 15.5-8.6 23.4-11.8q0.3 0.3 0.6 0.6 0.3 0.2 0.7 0.3 0.5 0.2 0.9 0.1 0.4 0 0.8-0.1zm-8.5 12.2q0.6-0.5 0.8-1.3 0.3-0.7 0.2-1.5-0.1-0.8-0.5-1.5-0.4-0.7-1.1-1.2-0.7-0.5-1.6-0.8-0.8-0.2-1.6-0.1-0.9 0.1-1.7 0.5-0.7 0.3-1.3 0.9-0.5 0.6-0.7 1.4-0.3 0.8-0.2 1.6 0.1 0.8 0.5 1.5 0.5 0.7 1.2 1.1 0.7 0.5 1.5 0.7 0.8 0.2 1.7 0.1 0.8-0.1 1.5-0.5 0.8-0.3 1.3-0.9z"/>
		<g id="Layer" style="opacity: .2">
			<path id="Layer" fill-rule="evenodd" class="s6" d="m237.3 18.1l0.3 0.6-0.5 0.2-0.3-0.5q-0.1 0-0.3 0.1-0.2 0-0.4 0.1-0.2 0-0.4 0-0.1 0-0.3 0 0-0.3-0.1-0.6 0.2 0 0.3 0 0.2 0 0.3 0 0.2 0 0.3 0 0.2-0.1 0.3-0.1-0.2-0.5-0.5-0.9c-0.7 0.1-1.4 0.3-1.7-0.4-0.3-0.4-0.2-1 0.5-1.5l-0.3-0.5 0.4-0.2 0.4 0.5q0.1-0.1 0.2-0.1 0.2-0.1 0.3-0.1 0.2 0 0.4 0 0.1 0 0.3 0c0 0.1 0 0.3 0 0.5q-0.1 0-0.2 0-0.1 0-0.3 0-0.1 0.1-0.2 0.1-0.1 0-0.3 0.1l0.6 0.9c0.6-0.2 1.4-0.3 1.7 0.3 0.3 0.5 0.2 1.1-0.5 1.5zm-1.7-1.7l-0.5-0.8c-0.3 0.2-0.3 0.5-0.2 0.7 0.1 0.2 0.4 0.2 0.7 0.1zm1.6 0.6c-0.1-0.2-0.4-0.2-0.7-0.2l0.4 0.8c0.4-0.2 0.5-0.4 0.3-0.6z"/>
		</g>
		<path id="Layer" class="s3" d="m72.2 123.3c-7.6-7.8-19.9-7.1-27.4-15q3.5-6.5 7.1-13c7.6 7.9 19.9 7.1 27.4 15q-3.5 6.5-7.1 13z"/>
		<path id="Layer" class="s4" d="m72.2 123.3c-7.6-7.8-19.9-7.1-27.4-15q3.5-6.5 7.1-13c7.6 7.9 19.9 7.1 27.4 15q-3.5 6.5-7.1 13z"/>
		<path id="Layer" fill-rule="evenodd" class="s5" d="m77.4 112.2l-4.5 8.1q-0.2-0.3-0.6-0.4-0.4-0.1-0.7-0.1-0.4 0.1-0.7 0.3-0.3 0.3-0.5 0.6c-6.8-5.3-16.3-5.8-23.1-11.1q0.2-0.4 0.2-0.9 0.1-0.4 0-0.8-0.1-0.4-0.3-0.8-0.2-0.4-0.5-0.7l4.4-8.1q0.3 0.3 0.7 0.4 0.3 0.1 0.7 0 0.4 0 0.7-0.2 0.3-0.3 0.5-0.6c6.8 5.3 16.3 5.8 23.1 11.1q-0.2 0.4-0.2 0.8-0.1 0.5 0 0.9 0.1 0.4 0.3 0.8 0.2 0.4 0.5 0.7zm-15.7 0.7q0.9 0 1.7-0.3 0.8-0.3 1.4-0.8 0.7-0.6 1.2-1.3 0.4-0.7 0.4-1.5 0.1-0.8-0.2-1.5-0.3-0.8-0.9-1.3-0.5-0.6-1.3-0.8-0.8-0.3-1.7-0.3-0.8 0-1.6 0.3-0.8 0.3-1.5 0.9-0.7 0.5-1.1 1.3-0.4 0.6-0.5 1.4-0.1 0.8 0.2 1.6 0.3 0.7 0.9 1.3 0.6 0.5 1.3 0.8 0.8 0.2 1.7 0.2z"/>
		<g id="Layer" style="opacity: .2">
			<path id="Layer" fill-rule="evenodd" class="s6" d="m61.3 111.1q-0.1 0.3-0.2 0.6l-0.5-0.2 0.3-0.5q-0.1-0.1-0.3-0.2-0.1-0.1-0.3-0.2-0.1-0.1-0.2-0.2-0.1-0.2-0.2-0.3l0.5-0.4q0 0.1 0.1 0.2 0.1 0.1 0.2 0.2 0.1 0.1 0.3 0.2 0.1 0.1 0.2 0.1 0.3-0.4 0.5-1c-0.5-0.3-1-0.7-0.6-1.4q0.1-0.2 0.3-0.3 0.2-0.2 0.4-0.3 0.3 0 0.5 0 0.3 0 0.5 0.1l0.3-0.6 0.4 0.2-0.3 0.5q0.2 0.1 0.3 0.1 0.1 0.1 0.2 0.2 0.2 0.1 0.3 0.2 0.1 0.1 0.1 0.2l-0.4 0.4q-0.1-0.1-0.2-0.2-0.1 0-0.2-0.1 0-0.1-0.1-0.1-0.1-0.1-0.2-0.2l-0.6 1c0.5 0.4 1 0.8 0.7 1.4q-0.1 0.3-0.3 0.4-0.2 0.2-0.5 0.2-0.2 0.1-0.5 0.1-0.2 0-0.5-0.1zm0.7-2.2l0.5-0.9q-0.6-0.1-0.7 0.3c-0.1 0.2 0 0.4 0.2 0.6zm0.4 1.5c0.1-0.3 0-0.5-0.3-0.7l-0.5 0.9c0.5 0.1 0.7 0 0.8-0.2z"/>
		</g>
		<path id="Layer" class="s3" d="m319.5 83.2c-7.1 8.7-19.4 4-26.6 10.9-2.6-4.7-5.2-9.3-7.8-13.5 7.2-8.6 19.5-4 26.6-10.9 2.6 4.8 5.2 9.3 7.8 13.5z"/>
		<path id="Layer" class="s4" d="m319.5 83.2c-7.1 8.7-19.4 4-26.6 10.9-2.6-4.7-5.2-9.3-7.8-13.5 7.2-8.6 19.5-4 26.6-10.9 2.6 4.8 5.2 9.3 7.8 13.5z"/>
		<path id="Layer" fill-rule="evenodd" class="s5" d="m317.5 81.4q-0.3 0.3-0.5 0.7-0.2 0.4-0.2 0.8-0.1 0.4 0 0.8 0.1 0.5 0.3 0.8c-6.6 5.3-16 3.1-22.5 7.3-0.6-1.1-1.8-1.5-2.6-0.8q-2.4-4.4-4.9-8.5 0.3-0.3 0.5-0.7 0.2-0.4 0.3-0.8 0-0.4 0-0.9-0.1-0.4-0.3-0.8c6.5-5.3 15.9-3 22.5-7.2 0.5 1.1 1.7 1.5 2.5 0.8q2.5 4.4 4.9 8.5zm-11.6-0.3c-1.2-2.2-3.9-3.8-6-3.5-2.2 0.3-2.9 2.5-1.7 4.7 1.2 2.3 3.9 3.8 6 3.5 2.2-0.2 2.8-2.4 1.7-4.7z"/>
		<g id="Layer" style="opacity: .2">
			<path id="Layer" fill-rule="evenodd" class="s6" d="m303.6 83.9l0.3 0.6h-0.4l-0.3-0.6q-0.2 0-0.4 0-0.2 0-0.4 0-0.2-0.1-0.4-0.1-0.1-0.1-0.3-0.1l-0.1-0.6q0.2 0 0.3 0.1 0.2 0 0.3 0.1 0.2 0 0.3 0 0.2 0 0.4 0l-0.6-1.1q-0.3 0-0.5 0-0.3-0.1-0.5-0.2-0.2-0.1-0.4-0.3-0.2-0.2-0.4-0.4-0.1-0.2-0.1-0.4 0-0.2 0.1-0.4 0-0.2 0.2-0.3 0.2-0.2 0.4-0.2l-0.3-0.6 0.4-0.1 0.3 0.6q0.2 0 0.3 0 0.2 0 0.3 0.1 0.2 0 0.4 0 0.1 0.1 0.3 0.1c0 0.2 0 0.4 0 0.6q-0.1 0-0.2-0.1-0.1 0-0.3 0-0.1-0.1-0.2-0.1-0.1 0-0.3 0l0.6 1.1q0.3 0 0.5 0.1 0.3 0 0.5 0.2 0.3 0.1 0.4 0.3 0.2 0.1 0.4 0.4 0.1 0.1 0.1 0.4 0.1 0.2 0 0.4-0.1 0.2-0.3 0.3-0.2 0.1-0.4 0.2zm-1.6-2.3l-0.5-1c-0.3 0.1-0.4 0.3-0.3 0.6q0.1 0.1 0.2 0.1 0.1 0.1 0.2 0.2 0.1 0 0.2 0.1 0.1 0 0.2 0zm1.6 1.1q0-0.1-0.1-0.2-0.1 0-0.2-0.1-0.1-0.1-0.2-0.1-0.2 0-0.3 0l0.5 1c0.3-0.2 0.4-0.4 0.3-0.6z"/>
		</g>
	</g>
	<g id="freepik--banknotes-1--inject-2">
		<path id="Layer" class="s3" d="m276 150.5q-10.7 20.6-23.1 40.2-12.4 19.6-26.5 38.1-14.1 18.5-29.7 35.6-15.6 17.2-32.6 33l-69.9-53.3q17-15.7 32.6-32.9 15.7-17.2 29.7-35.7 14.1-18.4 26.5-38 12.5-19.7 23.2-40.3z"/>
		<path id="Layer" class="s7" d="m276 150.5q-3.5 6.8-7.3 13.5-10.3 18.6-22.1 36.4-11.7 17.7-24.9 34.5-13.1 16.7-27.6 32.4-14.4 15.6-30 30.1l-69.9-53.3q17-15.7 32.6-32.9 15.7-17.2 29.7-35.7 14.1-18.4 26.5-38 12.5-19.7 23.2-40.3z"/>
		<path id="Layer" fill-rule="evenodd" class="s5" d="m217.1 111.4l43.6 33.2v0.1c-3.1 5.9-1.5 13.8 3.7 17.8q-9.3 16.6-19.7 32.5-10.4 15.9-22 31.1-11.5 15.1-24.1 29.4-12.6 14.3-26.1 27.6c-1.4-0.9-2.9-1.7-4.4-2.1-1.6-0.5-3.3-0.6-4.9-0.5-1.6 0.1-3.3 0.4-4.8 1.1-1.5 0.6-2.9 1.5-4.1 2.6l-43.6-33.2c1.2-1 2-2.2 2.6-3.6 0.6-1.4 0.9-2.9 0.8-4.4-0.1-1.5-0.5-3-1.2-4.3-0.8-1.3-1.8-2.4-3-3.3q13.5-13.4 26.1-27.6 12.6-14.3 24.1-29.4 11.6-15.2 22-31.1 10.4-15.9 19.7-32.5c1.2 0.9 2.5 1.6 4 2 1.5 0.3 3 0.3 4.5 0 1.4-0.3 2.8-1 4-1.9 1.2-0.9 2.1-2.1 2.8-3.4zm-8 105.6c8.2-10.8 5.7-26.5-5-34.7-10.8-8.2-25.7-5.8-33.9 5-8.3 10.8-6.7 25.8 4.1 34 10.7 8.2 26.5 6.5 34.8-4.3z"/>
		<g id="Layer" style="opacity: .2">
			<path id="Layer" fill-rule="evenodd" class="s6" d="m201.6 208l2.9 2.2-1.6 2.1-2.9-2.2c-2.1 2.4-4.8 4.2-7 4.7l-1.7-3.2q0.9-0.2 1.7-0.5 0.8-0.4 1.5-0.9 0.8-0.4 1.5-1 0.7-0.6 1.2-1.2l-5.1-3.9c-2.9 2.3-6.2 4.6-9.8 1.9-2.6-2-3.4-5.6-0.7-9.9l-2.9-2.3q0.8-1 1.6-2.1l2.8 2.2q0.6-0.7 1.2-1.3 0.7-0.6 1.4-1.1 0.7-0.5 1.4-0.9 0.8-0.5 1.6-0.8l1.8 3.1q-0.7 0.2-1.3 0.6-0.6 0.3-1.2 0.7-0.5 0.4-1.1 0.8-0.5 0.5-1 1l5.2 4c2.9-2.3 6.2-4.8 9.7-2.1 2.6 2 3.5 5.7 0.8 10.1zm-12.6-6.3l-4.6-3.5c-1.1 2-0.8 3.5 0.4 4.4 1.1 0.8 2.6 0.3 4.2-0.9zm9.6-0.3c-1.3-1-2.7-0.3-4.3 1l4.5 3.5c1.2-2.2 0.9-3.6-0.2-4.5z"/>
		</g>
		<path id="Layer" class="s5" d="m268.8 164q-10.4 18.6-22.1 36.4-11.8 17.7-25 34.5-13.1 16.7-27.6 32.4-14.4 15.6-30 30.1c-10.4 9.6-29.6-45.2-41.9-53.6 0 0 95.4-35.4 146.6-79.8z"/>
		<path id="Layer" class="s3" d="m342.8 224.1q-17.4 15.3-36.1 29.1-18.7 13.8-38.5 26-19.8 12.1-40.5 22.5-20.8 10.4-42.4 18.9l-46-74.9q21.6-8.5 42.4-18.9 20.7-10.4 40.5-22.5 19.8-12.2 38.5-26 18.6-13.8 36.1-29.2 23 37.5 46 75z"/>
		<path id="Layer" class="s8" d="m342.8 224.1q-17.4 15.3-36.1 29.1-18.7 13.8-38.5 26-19.8 12.1-40.5 22.5-20.8 10.4-42.4 18.9l-19.8-32.3q-13-21.3-26.1-42.6 21.6-8.5 42.3-18.9 20.8-10.4 40.6-22.5 19.8-12.2 38.4-26 18.7-13.8 36.1-29.1 23 37.4 46 74.9z"/>
		<path id="Layer" fill-rule="evenodd" class="s5" d="m302 166.3l28.6 46.7c-5.1 4.4-6.4 12.4-3 18.1q-14.6 12.1-30.1 23.2-15.5 11-31.7 21-16.2 9.9-33.1 18.7-16.9 8.8-34.3 16.4c-1-1.4-2.1-2.6-3.4-3.6-1.3-1-2.8-1.8-4.3-2.3-1.6-0.5-3.3-0.7-4.9-0.7-1.6 0.1-3.3 0.4-4.8 1l-28.7-46.6c1.4-0.6 2.7-1.4 3.8-2.5 1-1.1 1.8-2.4 2.3-3.8 0.4-1.4 0.6-2.9 0.4-4.4-0.3-1.5-0.8-3-1.6-4.2q17.4-7.6 34.3-16.3 16.9-8.8 33.1-18.8 16.2-9.9 31.7-21 15.5-11.1 30.1-23.2c0.8 1.3 1.8 2.4 3.1 3.3 1.2 0.8 2.6 1.4 4.1 1.6 1.5 0.3 3 0.2 4.4-0.3 1.5-0.4 2.8-1.2 3.9-2.2zm-37.7 61.5c-7.1-11.6-21.9-14.7-33.5-7.6-11.5 7.1-15.4 21.6-8.4 33.2 7 11.5 22.4 15.6 34 8.5 11.6-7.1 14.9-22.6 7.9-34.1z"/>
		<g id="Layer" style="opacity: .2">
			<path id="Layer" fill-rule="evenodd" class="s6" d="m252.6 250.8l1.9 3.1-2.2 1.4q-1-1.5-1.9-3.1c-2.8 1.5-6 2.2-8.3 1.8q-0.2-1.7-0.4-3.5 0.9 0.1 1.7 0 0.9 0 1.8-0.1 0.9-0.2 1.7-0.5 0.8-0.3 1.6-0.7-1.6-2.7-3.3-5.5c-3.6 1.2-7.5 2.1-9.9-1.7-1.7-2.8-1.1-6.5 2.9-9.6l-1.9-3.1 2.3-1.4 1.9 3.1q0.7-0.4 1.5-0.8 0.8-0.3 1.7-0.5 0.8-0.3 1.7-0.4 0.8-0.1 1.7-0.1 0.3 1.7 0.6 3.5-0.7 0-1.4 0.1-0.7 0.1-1.4 0.2-0.6 0.2-1.3 0.4-0.7 0.3-1.3 0.6l3.4 5.5c3.6-1.1 7.5-2.2 9.8 1.6 1.8 2.8 1.2 6.6-2.9 9.7zm-9.5-10.4q-1.5-2.5-3-5c-1.8 1.6-2 3-1.3 4.3 0.8 1.2 2.4 1.2 4.3 0.7zm9.1 3.2c-0.9-1.4-2.5-1.3-4.4-0.7l3 4.9c1.8-1.6 2.1-3.1 1.4-4.2z"/>
		</g>
		<path id="Layer" class="s5" d="m342.8 224.1q-17.4 15.3-36.1 29.1-18.7 13.8-38.5 26-19.8 12.1-40.5 22.5-20.8 10.4-42.4 18.9l-19.8-32.3-3.5-50.2c0 0 110.3 8 180.8-14z"/>
		<path id="Layer" class="s3" d="m356.1 321.2q-22.6 5.3-45.6 8.6-22.9 3.4-46.1 4.8-23.2 1.3-46.4 0.7-23.2-0.7-46.3-3.3-2.5-43.9-5.1-87.7 23.1 2.6 46.3 3.2 23.2 0.7 46.4-0.7 23.1-1.3 46.1-4.7 23-3.4 45.6-8.7 2.5 43.9 5.1 87.8z"/>
		<path id="Layer" class="s9" d="m356.1 321.2q-22.6 5.3-45.6 8.6-22.9 3.4-46.1 4.8-23.2 1.3-46.4 0.7-23.2-0.7-46.3-3.3-2.5-43.9-5.1-87.7 23.1 2.6 46.3 3.2 23.2 0.7 46.4-0.7 23.1-1.3 46.1-4.7 23-3.4 45.6-8.7 2.5 43.9 5.1 87.8z"/>
		<path id="Layer" fill-rule="evenodd" class="s5" d="m347.4 251l3.2 54.7h-0.1c-6.5 1.4-11.4 7.9-11.1 14.5q-18.6 3.7-37.5 6.2-18.8 2.4-37.8 3.5-19 1.2-38.1 0.9-19-0.2-37.9-1.8c-0.2-1.6-0.6-3.2-1.3-4.7-0.7-1.5-1.6-2.9-2.8-4.1-1.1-1.2-2.5-2.1-3.9-2.9-1.5-0.7-3.1-1.2-4.7-1.4q-1.6-27.3-3.2-54.7c1.5 0.2 3 0.1 4.4-0.4 1.4-0.4 2.7-1.2 3.8-2.2 1.1-1.1 2-2.4 2.5-3.8 0.5-1.4 0.7-2.9 0.6-4.4q18.9 1.6 37.9 1.8 19.1 0.3 38.1-0.8 19-1.1 37.8-3.6 18.9-2.4 37.5-6.2c0.1 1.5 0.5 2.9 1.2 4.3 0.6 1.3 1.6 2.5 2.8 3.4 1.2 0.9 2.6 1.5 4.1 1.8 1.4 0.3 3 0.3 4.4-0.1zm-62.3 36.4c-0.8-13.5-12.3-23.3-25.9-22.5-13.5 0.8-23.9 11.8-23.1 25.3 0.8 13.4 12.5 24.3 26 23.6 13.5-0.8 23.8-12.9 23-26.4z"/>
		<g id="Layer" style="opacity: .2">
			<path id="Layer" fill-rule="evenodd" class="s6" d="m264 302.2l0.2 3.6-2.7 0.1-0.2-3.5q-1 0-2.1-0.2-1.1-0.1-2.1-0.4-1-0.3-2-0.7-1-0.5-1.9-1 0.7-1.7 1.3-3.4 0.7 0.5 1.5 0.9 0.8 0.4 1.7 0.7 0.8 0.2 1.7 0.4 0.8 0.1 1.7 0.2-0.2-3.3-0.4-6.5c-3.6-0.7-7.5-1.7-7.8-6.2-0.2-3.3 2-6.2 7.1-7l-0.2-3.6 2.6-0.2 0.2 3.6q0.9 0 1.8 0.1 0.8 0.1 1.7 0.2 0.8 0.2 1.6 0.5 0.9 0.3 1.6 0.7l-1.1 3.4q-0.6-0.3-1.3-0.6-0.6-0.2-1.3-0.4-0.7-0.2-1.4-0.3-0.7-0.1-1.4-0.1l0.4 6.5c3.7 0.7 7.7 1.5 7.9 6 0.3 3.3-2 6.3-7.1 7.2zm-3.4-13.7q-0.1 0-0.1 0 0 0 0 0zm-0.4-5.8c-2.2 0.5-3.1 1.7-3.1 3.1 0.1 1.5 1.6 2.2 3.5 2.7q-0.2-2.9-0.4-5.8zm6.9 12.9c-0.1-1.6-1.6-2.3-3.6-2.7l0.3 5.7c2.4-0.5 3.4-1.6 3.3-3z"/>
		</g>
	</g>
	<g id="freepik--Character--inject-2">
		<path id="Layer" class="s3" d="m212.4 321.3q0.4 4.4 1 9.1h-210.3c6.5-55.6 0-79.7 0-79.7 70.3-5.3 210.3 0 210.3 0 0 0-4.3 26.8-1.4 65.1q0.2 2.7 0.4 5.5z"/>
		<path id="Layer" class="s7" d="m213.4 250.7c-9.2 4.3-54.3 4.9-80.2 3.3-25.9-1.6-59.9 3.3-59.9 3.3-19.6-6.8-70.2-6.6-70.2-6.6 70.3-5.3 210.3 0 210.3 0z"/>
		<path id="Layer" class="s5" d="m3.1 330.4c6.5-55.6 0-79.7 0-79.7 0 0 41.7-0.9 70.3 6.6-0.1 0 0.9 8.5-0.1 12.8 0 0 34.4-5.5 65-4.8 0 0-47.3 5.5-65 9.5 0 0-28.3-4.4-46.2-4.7 0 0 37.3 4.9 46.3 7.8 0 0 10.6-1.9 16.2-1.9 0 0-13.4 2.4-16.2 4.6v15.3c0 0-29.8 0.6-44.7-1.5 7.1 1.1 36 5.5 44.7 5.5 0 0 32.8-1.2 51.9 0 0 0-43.5 2.5-51.9 4.6h-37.3l37.3 3.1v3.1h16l-16 2.8c0 0-46.3-3-59.6 0 0 0 54.6 2.4 59.5 4.4l0.1 4.6c0 0 61.2-8.1 115.4-1.2 0 0-79.1-3.1-115.5 5.7 0 0 113.7-2.5 140.1 3.4z"/>
		<path id="Layer" class="s3" d="m4.3 257.3l-5.5 1.9c0 0 33.4 1.2 55 4.5-0.1 0-33.3-5.9-49.5-6.4z"/>
		<path id="Layer" class="s7" d="m78.2 263.7l8.5 1.6c0 0 39.4-4.3 85.9-4.8 0 0-67.2-3.3-94.4 3.2z"/>
		<path id="Layer" class="s7" d="m104.9 272.7c0 0 23.6-6.4 44.3-6.1 20.8 0.3 60.2-2.9 60.2-2.9l1.5 2.9c0 0-30.9 1.8-56.4 1.6q-6.2 0-12.5 0.3-6.2 0.3-12.4 0.9-6.2 0.5-12.4 1.4-6.2 0.8-12.3 1.9z"/>
		<path id="Layer" class="s7" d="m81.5 282.4c0 0 28.1-6 55.7-5.5 27.7 0.6 62.4 2.7 62.4 2.7 0 0-75.4 0-94.7 4z"/>
		<path id="Layer" class="s3" d="m130.2 273.6c0 0 24.2-2 45.2-0.9 20.9 1.1 42.9 2.1 42.9 2.1l-7.4 2.1c0 0-50.4-5.1-80.7-3.3z"/>
		<path id="Layer" class="s5" d="m130.2 273.6c0 0 24.2-2 45.2-0.9 20.9 1.1 42.9 2.1 42.9 2.1l-7.4 2.1c0 0-50.4-5.1-80.7-3.3z"/>
		<path id="Layer" class="s5" d="m82.4 287.5c0 0 42-0.6 62.2-1.6 20.2-1 47.4 4.6 47.4 4.6 0 0-33.5-0.7-43.9 1z"/>
		<path id="Layer" class="s7" d="m78.2 293.8l26.7-2.3 56.9 2.3-57.6 2.4-26-2.4z"/>
		<path id="Layer" class="s7" d="m98.2 306.4c0 0 38.8-3.7 53.9-3.9 15.1-0.1 55.8-2.9 55.8-2.9l-4.5 6c0 0-76.5-1.6-105.2 0.8z"/>
		<path id="Layer" class="s3" d="m196.6 285.9l14.3 1.4 3.9-1.4q-2.3-0.2-4.5-0.3-2.3-0.1-4.6-0.1-2.3 0-4.6 0.1-2.2 0.1-4.5 0.3z"/>
		<path id="Layer" class="s3" d="m212.7 255.7l5.6 0.9-6 3.1-35-0.8c0 0 26.3-0.3 35.4-3.2z"/>
		<path id="Layer" class="s7" d="m196.6 285.9l14.3 1.4 3.9-1.4q-2.3-0.2-4.5-0.3-2.3-0.1-4.6-0.1-2.3 0-4.6 0.1-2.2 0.1-4.5 0.3z"/>
		<path id="Layer" class="s5" d="m212.7 255.7l5.6 0.9-6 3.1-35-0.8c0 0 26.3-0.3 35.4-3.2z"/>
		<path id="Layer" class="s5" d="m212.4 321.3c-9.4-0.7-75.2-8.9-75.2-8.9 4.4-0.5 61.9 2.9 74.8 3.4q0.2 2.7 0.4 5.5z"/>
		<path id="Layer" class="s3" d="m113.3 311.2c0 0 61.5-0.1 79.2 1.2 17.6 1.2 19.2-1.2 19.2-1.2l8.7 4.3c0 0 0.5 4.2-22.6 1.2-23.1-2.9-84.5-5.5-84.5-5.5z"/>
		<path id="Layer" class="s3" d="m62.9 280.3c0 0-36-5.8-57.1-4.3q1.2 0.3 2.4 0.7 1.1 0.4 2.2 0.9 1.1 0.6 2.1 1.2 1 0.7 1.9 1.5z"/>
		<path id="Layer" class="s3" d="m5.8 295.9c0.8-0.1 27 3.4 37 3.7l-40.7 1.7z"/>
		<path id="Layer" class="s3" d="m4.3 318.5l39.6 1.4-45.1 3.4 5.5-4.8z"/>
		<path id="Layer" class="s3" d="m76.4 248c0 0 56.1 9.6 88.7-28.8l61.4 15.7c0 0-11.3 23.4-96.1 20.3-84.8-3.1-54-7.2-54-7.2z"/>
		<path id="Layer" class="s4" d="m76.4 248c0 0 56.1 9.6 88.7-28.8l61.4 15.7c0 0-11.3 23.4-96.1 20.3-84.8-3.1-54-7.2-54-7.2z"/>
		<path id="Layer" class="s5" d="m108.4 250.1c0 0 34.4-1.8 53.8-23.8q1.3 0.4 2.7 0.4 1.4 0 2.7-0.4 1.4-0.4 2.5-1.2 1.2-0.8 2.1-1.9l44.8 11.9c0 0-4.9 1.7-3.2 7.3 0 0-58.8 23.8-105.4 7.7z"/>
		<g id="freepik--group--inject-2">
			<path id="Layer" class="s10" d="m159.7 138.7l1-5.6c0 0-2.1-2-1.9-4 0.3-1.9 9.9-5 11.6-5.1 1.7-0.2 1.1 6.8 0.6 8.1-0.6 1.2-6.4 2.8-6.4 2.8l-0.7 5.8z"/>
			<path id="Layer" class="s10" d="m48.3 166.1l-3.8-4.2c0 0 0.7-2.9-0.5-4.4-1.2-1.5-11.1 1-12.6 1.8-1.5 0.8 2.7 6.3 3.8 7.1 1.1 0.8 6.9-1 6.9-1l3.7 4.6z"/>
			<path id="Layer" class="s3" d="m124.5 157.1c10.7-0.6 20.5 1.6 25.5 0 5-1.7 9.9-22.5 9.9-22.5l5.3 1.8c0 0-2 21.7-10.7 27.5-8.7 5.8-28.7 5.7-28.7 5.7z"/>
			<path id="Layer" class="s11" d="m165.2 136.4c0 0-2 21.7-10.7 27.5-5 3.3-13.6 4.7-20.1 5.3-4.9 0.4-8.6 0.4-8.6 0.4l-0.6-5.8-0.7-6.7c10.7-0.6 20.5 1.6 25.5 0 5-1.7 9.9-22.5 9.9-22.5z"/>
			<path id="Layer" class="s5" d="m134.4 169.2c-4.9 0.4-8.6 0.4-8.6 0.4l-0.6-5.8q1.2 0.5 2.4 1.1 1.2 0.5 2.4 1.2 1.2 0.7 2.3 1.5 1.1 0.7 2.1 1.6z"/>
			<path id="Layer" class="s12" d="m193.3 325.6l7-2-1.3-17-6.9 1.9 1.2 17z"/>
			<path id="Layer" class="s13" d="m200.7 322.7l-8.1 0.6q-0.1 0-0.2 0-0.1 0.1-0.1 0.1-0.1 0.1-0.1 0.2-0.1 0.1-0.1 0.2l0.1 6.4q0 0.3 0.1 0.5 0.1 0.2 0.3 0.4 0.2 0.2 0.4 0.3 0.3 0 0.5 0c2.8-0.2 4.2-0.5 7.7-0.8q1.2 0 2.4-0.1 1.2-0.1 2.4-0.2 1.2-0.1 2.4-0.3 1.1-0.1 2.3-0.4c3-0.6 2.2-3.5 0.9-3.5q-1.3-0.1-2.5-0.3-1.3-0.2-2.5-0.6-1.2-0.4-2.4-1-1.1-0.5-2.2-1.2-0.1-0.1-0.3-0.1-0.2-0.1-0.3-0.1-0.2-0.1-0.3-0.1-0.2 0-0.4 0z"/>
			<path id="Layer" fill-rule="evenodd" class="s13" d="m203.4 323.8q-0.3 0-0.5 0-0.3 0-0.5 0-0.3-0.1-0.5-0.1-0.2 0-0.5-0.1 0 0 0 0 0 0-0.1 0 0 0 0 0 0-0.1 0-0.1 0 0 0 0 0-0.1 0-0.1 0 0 0 0 0 0 0-0.1c0.3-0.1 2.2-1.7 3.1-1.4q0.1 0 0.2 0.1 0 0 0.1 0.1 0 0 0.1 0.1 0 0.1 0 0.2 0.1 0.1 0.1 0.2 0 0.1 0 0.3 0 0.1-0.1 0.2 0 0.1-0.1 0.2-0.1 0.1-0.3 0.2-0.2 0.1-0.3 0.2-0.2 0-0.4 0-0.2 0.1-0.3 0.1zm0.9-1.5c-0.5-0.2-1.6 0.5-2.4 1.1 1.3 0.1 2.2 0 2.5-0.3q0.1-0.1 0.1-0.1 0-0.1 0.1-0.2 0-0.1 0-0.2-0.1 0-0.1-0.1 0-0.1 0-0.1 0 0-0.1-0.1 0 0 0 0-0.1 0-0.1 0z"/>
			<path id="Layer" fill-rule="evenodd" class="s13" d="m201.4 323.6q0 0 0 0 0 0 0 0 0 0 0 0 0 0 0 0 0 0-0.1 0 0 0 0 0 0 0 0 0 0-0.1 0-0.1c0-0.1-0.3-2.1 0.3-2.9q0.1-0.1 0.2-0.1 0.1-0.1 0.2-0.1 0 0 0.1-0.1 0.1 0 0.2 0 0.1 0 0.3 0.1 0.1 0 0.1 0.1 0.1 0 0.2 0.1 0.1 0.1 0.1 0.2c0.2 0.8-0.8 2.3-1.5 2.8q0 0 0 0 0 0 0 0 0 0 0 0 0 0-0.1 0zm0.8-2.9q0 0-0.1 0 0 0 0 0.1-0.1 0-0.1 0-0.1 0-0.1 0.1-0.1 0.2-0.2 0.5-0.1 0.3-0.1 0.6-0.1 0.3-0.1 0.6 0 0.3 0.1 0.6 0.2-0.2 0.4-0.5 0.2-0.3 0.3-0.5 0.2-0.3 0.3-0.6 0-0.4 0.1-0.7c0-0.1-0.1-0.2-0.4-0.2z"/>
			<path id="Layer" class="s5" d="m192.1 308.5l7-1.9 0.7 9.8-7 1.5-0.7-9.4z"/>
			<path id="Layer" class="s12" d="m184.2 325.3l-6.6 3-1.7-7.1-2.2-9.5 6.6-3 2.2 9.5 1.7 7.1z"/>
			<path id="Layer" class="s5" d="m182.5 318.2l-6.6 3-2.2-9.5 6.5-3 2.3 9.5z"/>
			<path id="Layer" class="s13" d="m184.5 324.3l-7.9 1.9q-0.1 0-0.2 0-0.1 0.1-0.2 0.2 0 0.1 0 0.2-0.1 0.1 0 0.2l1 6.3q0.1 0.3 0.2 0.5 0.2 0.2 0.4 0.3 0.2 0.2 0.4 0.2 0.3 0.1 0.6 0c2.7-0.7 4-1.2 7.5-2q1.1-0.2 2.3-0.5 1.1-0.2 2.3-0.5 1.1-0.4 2.3-0.7 1.1-0.3 2.2-0.7c2.9-1.2 1.7-3.9 0.4-3.7-3.1 0.6-7.7-0.4-10-1.5q-0.2-0.1-0.3-0.1-0.2-0.1-0.4-0.1-0.1 0-0.3 0-0.2 0-0.3 0z"/>
			<path id="Layer" fill-rule="evenodd" class="s13" d="m187.3 324.9q-0.3 0.1-0.5 0.1-0.3 0.1-0.5 0.1-0.3 0-0.5 0-0.2 0-0.5 0 0 0 0 0-0.1 0-0.1 0 0 0 0 0 0 0-0.1-0.1 0 0 0 0 0 0 0-0.1 0 0 0 0 0 0 0 0c0.2-0.3 1.9-2 2.9-2q0 0.1 0.1 0.1 0.1 0 0.1 0.1 0.1 0 0.2 0.1 0 0 0 0.1 0.1 0.1 0.2 0.3 0 0.1 0 0.2 0 0.2 0 0.3-0.1 0.1-0.2 0.2-0.1 0.1-0.2 0.2-0.1 0.2-0.3 0.2-0.2 0.1-0.3 0.2-0.2 0-0.4 0zm0.7-1.6c-0.5-0.1-1.5 0.8-2.2 1.5 1.3 0 2.2-0.3 2.5-0.7q0-0.1 0.1-0.1 0-0.1 0-0.2 0-0.1 0-0.2-0.1 0-0.1-0.1 0 0 0-0.1-0.1 0-0.1 0 0-0.1-0.1-0.1 0 0 0 0z"/>
			<path id="Layer" fill-rule="evenodd" class="s13" d="m185.3 325.1q0 0 0 0 0 0 0 0 0 0 0 0 0 0 0 0 0 0-0.1 0 0 0 0 0 0 0 0-0.1 0 0 0 0c0-0.1-0.7-2.1-0.2-2.9q0.1-0.1 0.2-0.2 0 0 0.1-0.1 0.1 0 0.2-0.1 0.1 0 0.2 0 0.1 0 0.2 0 0.1 0 0.2 0 0.1 0.1 0.2 0.2 0.1 0.1 0.1 0.1c0.3 0.8-0.4 2.5-1 3q0 0.1 0 0.1 0 0 0 0 0 0 0 0 0 0-0.1 0zm0.4-3q-0.1 0-0.1 0.1-0.1 0-0.1 0-0.1 0-0.1 0.1 0 0-0.1 0 0 0.3-0.1 0.6 0 0.3 0 0.6 0 0.3 0 0.6 0.1 0.3 0.2 0.6 0.2-0.3 0.3-0.6 0.2-0.2 0.3-0.6 0.1-0.3 0.1-0.6 0-0.3 0-0.6c0-0.1-0.1-0.2-0.4-0.2z"/>
			<path id="Layer" class="s13" d="m135.4 228.6l-2.2-23.5-39.2 1c0 0-4.7 32.7-1.3 38.7 6 10.8 45.6 4.7 54.9 5.6 3.8 2 24 69.1 24 69.1l11.3-4.6c0 0-12.2-56.6-15-67.2-3.8-14.9-19.5-14.6-32.5-19.1z"/>
			<path id="Layer" class="s13" d="m200.4 313.7l-10 1c0 0-12.2-62.4-13.2-62.7-1.6-0.5-6.6-1-9.3-1.7-18.5-4.9-64.2-13.7-64.2-13.7l16.8-16.3c0 0 76.4 9.2 78 27.1 0.9 8.6 1.9 66.3 1.9 66.3z"/>
			<path id="Layer" class="s5" d="m174.6 252.1c-1.8-0.5-4-1.1-6.7-1.8 0.8 0.3-1.4-9.4-3.5-11.9-4.3-5-21.3-7.7-27.5-8.7-5.1-0.8-22.2-2.3-22.2-2.3 0 0 30.3-2.6 53.1 3.7 11.3 3 9.3 14.1 6.8 21z"/>
			<path id="Layer" class="s3" d="m88.7 162.8c0 0 14.5-7.7 35.8-5.7 0 0 7.3 18.7 8.7 48l-39.5 2.7c0 0 0.7-25.1-5-45z"/>
			<path id="Layer" class="s11" d="m93.7 207.9q0.1-2.6 0-5.2 0-2.5-0.1-5.1-0.1-2.5-0.2-5.1-0.2-2.5-0.4-5.1c-0.4-4-0.9-8.2-1.6-12.5q-0.2-1.5-0.5-3-0.3-1.6-0.7-3.1-0.3-1.5-0.7-3-0.4-1.5-0.8-3c-0.2-1 14.5-7.7 35.8-5.7 0 0 7.3 18.7 8.7 48z"/>
			<path id="Layer" class="s5" d="m93 187.4c-0.3-4-0.8-8.2-1.6-12.5q0.3-0.3 0.6-0.5 0.3-0.2 0.6-0.4 0.3-0.2 0.6-0.4 0.4-0.2 0.7-0.3l0.1-0.5c-0.1 0.5 2 7.9-1 14.6z"/>
			<path id="Layer" class="s10" d="m99.7 160.1c3.6 3.3 12.5 2.1 12.5 2.1 0 0 5.5-1.6 4.3-3.3-3.2-0.5-4.8-2.1-5.5-4q-0.1-0.4-0.2-0.9-0.1-0.5-0.1-0.9 0-0.5 0-1 0-0.5 0-0.9c0-0.7 0.2-1.4 0.3-2.1l-11-8.1c1.5 5.3 3.2 15.2-0.3 19.1z"/>
			<path id="Layer" class="s5" d="m102.6 146.2c0.4 6.5 5.8 8.3 8.4 8.7q-0.1-0.4-0.2-0.9-0.1-0.5-0.1-0.9 0-0.5 0-1 0-0.5 0-0.9z"/>
			<path id="Layer" class="s13" d="m109.5 118.5c4.1 1.1 7.5 10.5 4.4 16.7-3 6.2-12.2-11.2-12.2-11.2 0 0 5.2-6.2 7.8-5.5z"/>
			<path id="Layer" class="s10" d="m118 140q0 0.1 0 0.3 0 0.1 0 0.3 0 0.1 0 0.3 0 0.1 0 0.2 0 1-0.2 2-0.3 1-0.6 1.9-0.4 1-1 1.8-0.6 0.8-1.3 1.6-0.6 0.6-1.3 1.2-0.8 0.5-1.6 0.9-0.8 0.4-1.7 0.6-0.9 0.2-1.8 0.3-0.6 0-1.3-0.1-0.6 0-1.3-0.2-0.6-0.1-1.2-0.3-0.6-0.2-1.2-0.6c-4.9-2.4-6.2-6.7-9-13.8-0.7-1.6-1-3.4-0.8-5.2 0.2-1.8 0.9-3.5 1.9-4.9 1.1-1.5 2.5-2.6 4.1-3.4 1.6-0.7 3.4-1 5.2-0.9 8 0.6 12.5 11 13.1 18z"/>
			<path id="Layer" class="s13" d="m106.1 134.8c0.2 0.6 0.7 1 1 0.8 0.4-0.1 0.6-0.7 0.4-1.3-0.2-0.5-0.7-1-1-0.8-0.4 0.2-0.6 0.7-0.4 1.3z"/>
			<path id="Layer" class="s13" d="m112.8 132.6c0.1 0.6 0.6 1 1 0.8 0.3-0.1 0.5-0.7 0.3-1.3-0.2-0.5-0.7-0.9-1-0.8-0.3 0.1-0.5 0.8-0.3 1.3z"/>
			<path id="Layer" class="s14" d="m110.7 133.6q0.5 0.6 1 1.1 0.6 0.6 1.1 1.1 0.6 0.5 1.2 1 0.6 0.5 1.2 0.9-0.2 0.3-0.5 0.6-0.3 0.2-0.7 0.4-0.3 0.2-0.7 0.3-0.4 0.1-0.8 0.1z"/>
			<path id="Layer" class="s13" d="m114.3 129q-0.1 0-0.1 0.1 0 0-0.1 0 0 0-0.1 0 0 0-0.1 0-0.3-0.1-0.7-0.1-0.3 0-0.6 0.1-0.4 0-0.7 0.2-0.3 0.1-0.5 0.3-0.2 0.1-0.3 0.1-0.2 0-0.3-0.1-0.1-0.1-0.1-0.2 0-0.2 0.2-0.3h-0.1q0.4-0.3 0.8-0.5 0.4-0.1 0.8-0.2 0.4-0.1 0.8-0.1 0.5 0 0.9 0.1 0.1 0 0.1 0.1 0.1 0 0.1 0.1 0 0 0.1 0.1 0 0.1 0 0.1 0 0.1-0.1 0.1 0 0 0 0 0 0 0 0.1 0 0 0 0z"/>
			<path id="Layer" class="s13" d="m103.9 132.6q0 0 0 0 0 0-0.1 0 0 0 0 0-0.1 0-0.1 0 0-0.1-0.1-0.1 0-0.1 0-0.1-0.1-0.1-0.1-0.2 0.1-0.1 0.1-0.1 0.2-0.4 0.5-0.7 0.3-0.3 0.7-0.5 0.3-0.3 0.7-0.4 0.5-0.2 0.9-0.2 0.1 0 0.1 0 0.1 0 0.1 0.1 0.1 0 0.1 0.1 0.1 0.1 0.1 0.1 0 0.1-0.1 0.2 0 0.1 0 0.1-0.1 0.1-0.2 0.1 0 0-0.1 0-0.3 0.1-0.7 0.2-0.3 0.1-0.6 0.3-0.2 0.2-0.5 0.4-0.2 0.3-0.4 0.6 0 0 0 0-0.1 0-0.1 0.1-0.1 0-0.1 0 0 0-0.1 0z"/>
			<path id="Layer" class="s13" d="m96.8 125.6l1.6 3q-0.3 0.4-0.5 0.8-0.1 0.5-0.1 0.9 0 0.5 0.1 0.9 0.2 0.5 0.5 0.8c2 2.3 2.1 6.9 0.7 9.3 0 0-0.5-1.1-1.3-0.5-0.9 0.7 1.6 6.5 4.6 8.6 0 0-3.8-1.5-7.8-7.1-3.7-5.2-5.7-9.9-5.4-12.6z"/>
			<path id="Layer" class="s10" d="m93.3 143.3q0.5 0.5 1.1 0.9 0.6 0.4 1.2 0.7 0.7 0.3 1.4 0.4 0.7 0.2 1.4 0.2c2.5 0 3.1-2.4 1.9-4.5-1.2-1.8-3.9-4-6.1-3-2.3 1-2.5 3.6-0.9 5.3z"/>
			<path id="Layer" class="s13" d="m113.3 141.7q-0.2 0.3-0.3 0.7-0.2 0.4-0.3 0.8-0.2 0.4-0.3 0.8-0.1 0.4-0.2 0.8l-0.6-0.1c-2.6-0.4-3.8-1.4-4.2-2.4q0-0.2-0.1-0.4 0-0.2-0.1-0.4 0-0.2 0-0.4 0-0.2 0-0.4 0-0.1 0-0.3 0.1-0.1 0.1-0.2 0-0.1 0-0.2 0.1-0.1 0.1-0.2 0.6 0.3 1.2 0.6 0.6 0.3 1.2 0.5 0.7 0.2 1.3 0.4 0.7 0.1 1.3 0.2c0.6 0.1 0.9 0.2 0.9 0.2z"/>
			<path id="Layer" class="s15" d="m112.4 141.5l-0.3 0.9c-2.5-0.3-4.2-0.9-4.9-1.7q0-0.1 0-0.3 0.1-0.1 0.1-0.2 0-0.1 0-0.2 0.1-0.1 0.1-0.2 0.6 0.3 1.2 0.6 0.6 0.3 1.2 0.5 0.7 0.2 1.3 0.4 0.7 0.1 1.3 0.2z"/>
			<path id="Layer" class="s16" d="m111.6 144.7c-2.6-0.4-3.7-1.4-4.2-2.4q0.4 0 0.8 0.1 0.3 0.1 0.7 0.2 0.4 0.2 0.7 0.3 0.3 0.2 0.7 0.4 0.2 0.1 0.4 0.2 0.2 0.2 0.3 0.4 0.2 0.2 0.3 0.4 0.2 0.2 0.3 0.4z"/>
			<path id="Layer" class="s13" d="m103.5 126.2c0 0-0.7-4.8 2.4-3.9 3 0.9 3.2-0.9 2.3-4.6-0.9-3.7-9.6-5-14.5 1.1-4.9 6-6.6 11.1-4.2 13.8 2.4 2.7 11.4-5.2 11.4-5.2q0.1-0.6 0.2-1 0.2-0.5 0.4-1 0.2-0.5 0.5-0.9 0.2-0.4 0.6-0.8 0 0.3 0.1 0.6 0 0.4 0.2 0.7 0.1 0.3 0.3 0.6 0.1 0.3 0.3 0.6z"/>
			<path id="Layer" class="s13" d="m108.2 161.8l4.8 4.2c0 0 2.6 17.8 9.1 25.6h4l0.8-2.8q-2.3-2.5-4.2-5.2-1.9-2.8-3.5-5.8-1.6-2.9-2.8-6.1-1.3-3.1-2.1-6.4v-5.6z"/>
			<path id="Layer" class="s3" d="m100.9 156.2l9.8 3.7 0.9-5 5.1 1.9 1.3 6.3-7-1.7-3.4 4.6-10-6.5 3.3-3.3z"/>
			<path id="Layer" class="s4" d="m100.9 156.2l9.8 3.7 0.9-5 5.1 1.9 1.3 6.3-7-1.7-3.4 4.6-10-6.5 3.3-3.3z"/>
			<path id="Layer" class="s6" d="m93.2 207.2l40.5-3.8 0.1 4.9-40.6 3.3v-4.4z"/>
			<path id="Layer" fill-rule="evenodd" class="s15" d="m125.4 204.6q0.1 0.2 0.2 0.4 0 0.1 0.1 0.3 0 0.2 0 0.4v2.3q0 0.3-0.1 0.6-0.1 0.3-0.3 0.6-0.2 0.2-0.5 0.4-0.3 0.1-0.7 0.2l-3.6 0.4h-0.1q-0.4 0-0.7-0.2-0.3-0.1-0.6-0.3-0.2-0.3-0.4-0.6-0.1-0.3-0.1-0.7v-2.3q0-0.3 0.1-0.6 0.1-0.4 0.3-0.6 0.2-0.3 0.5-0.4 0.3-0.2 0.7-0.2l3.6-0.4q0.1 0 0.3 0 0.2 0 0.4 0.1 0.2 0.1 0.3 0.2 0.2 0 0.3 0.2 0.2 0.1 0.3 0.2zm-1 4.2q0.1-0.1 0.2-0.2 0.1-0.2 0.2-0.3 0-0.1 0-0.3v-0.8l-1 0.1q-0.3 0-0.5-0.1-0.2-0.2-0.2-0.4 0-0.3 0.1-0.5 0.2-0.2 0.5-0.2l1-0.1h0.1v-0.3q0-0.2-0.1-0.3 0-0.2-0.2-0.3-0.1-0.1-0.2-0.2-0.2-0.1-0.4-0.1h-0.1l-3.5 0.4q-0.2 0-0.3 0.1-0.2 0.1-0.3 0.2-0.1 0.1-0.2 0.3 0 0.1 0 0.3v2.3q0 0.2 0.1 0.3 0.1 0.2 0.2 0.3 0.1 0.2 0.3 0.2 0.2 0.1 0.4 0l3.6-0.3q0.1-0.1 0.3-0.1z"/>
			<path id="Layer" class="s3" d="m88.7 162.8c-6.7 4-16.5 17.2-19.9 16.9-3.4-0.3-22-16.7-22-16.7l-4.2 4.6c0 0 17.1 20.4 25.1 21.9 7.9 1.6 25.5-13.2 25.5-13.2q0.3-0.9 0.5-1.9 0.2-1 0.2-2.1 0-1-0.2-2-0.2-1-0.5-1.9-0.4-0.9-0.8-1.6-0.5-0.8-1-1.5-0.6-0.7-1.3-1.4-0.6-0.6-1.4-1.1z"/>
			<path id="Layer" class="s11" d="m88.7 162.8c-6.7 4-16.5 17.2-19.9 16.9-3.4-0.3-22-16.7-22-16.7l-4.2 4.6c0 0 17.1 20.4 25.1 21.9 7.9 1.6 25.5-13.2 25.5-13.2q0.3-0.9 0.5-1.9 0.2-1 0.2-2.1 0-1-0.2-2-0.2-1-0.5-1.9-0.4-0.9-0.8-1.6-0.5-0.8-1-1.5-0.6-0.7-1.3-1.4-0.6-0.6-1.4-1.1z"/>
		</g>
		<path id="Layer" class="s3" d="m150.6 255.8c0 0-134.2 0.9-142.5-18l59.7-4.3q4.5 1.9 9 3.6 4.5 1.7 9 3.3 4.6 1.6 9.2 3.1 4.6 1.5 9.2 2.8c13.8 4.1 30.2 7.9 46.4 9.5z"/>
		<path id="Layer" class="s7" d="m150.6 255.8c0 0-4.2 0-11.2 0-28.7-2-62.2-16.3-62.2-16.3-12.1 2.7-20.4-2.1-20.4-2.1l-32.7 1.9q0.2 0.6 0.2 1.2 0 0.6-0.2 1.2-0.1 0.6-0.4 1.1-0.3 0.6-0.7 1.1c16.9 4.7 35.2 7.6 50 9.4-31.4-2.4-61.1-6.9-65-15.4l59.8-4.4c0 0 41.8 18.3 82.8 22.3z"/>
		<path id="Layer" class="s5" d="m150.6 255.8c0 0-134.2 0.9-142.5-18 0 0 45.3 19.6 96.1 8.5 13.8 4.1 30.2 7.9 46.4 9.5z"/>
	</g>
</svg>