<svg version="1.2" xmlns="http://www.w3.org/2000/svg" viewBox="0 0 500 500" width="500" height="500">
	<title>Finance app-rafiki-svg</title>
	<style>
		.s0 { fill: #ebebeb } 
		.s1 { fill: #e0e0e0 } 
		.s2 { fill: #f5f5f5 } 
		.s3 { fill: #0076cd } 
		.s4 { opacity: .4;fill: #ffffff } 
		.s5 { opacity: .2;fill: #000000 } 
		.s6 { fill: #000000 } 
		.s7 { fill: #263238 } 
		.s8 { opacity: .7;fill: #ffffff } 
		.s9 { opacity: .6;fill: #ffffff } 
		.s10 { fill: #ffffff } 
		.s11 { opacity: .5;fill: #ffffff } 
		.s12 { fill: #e4897b } 
		.s13 { opacity: .2;fill: #ffffff } 
		.s14 { fill: #de5753 } 
	</style>
	<g id="freepik--background-complete--inject-14">
		<path id="Layer" class="s0" d="m-55 392.2h592.8v0.3h-592.8z"/>
		<path id="Layer" class="s0" d="m439.1 411.2h39.3v0.3h-39.3z"/>
		<path id="Layer" class="s0" d="m327.4 414.5h10.3v0.3h-10.3z"/>
		<path id="Layer" class="s0" d="m415.2 400.2h22.8v0.3h-22.8z"/>
		<path id="Layer" class="s0" d="m7.2 402.2h51.2v0.3h-51.2z"/>
		<path id="Layer" class="s0" d="m69 402.2h7.5v0.3h-7.5z"/>
		<path id="Layer" class="s0" d="m100.9 407.2h111v0.3h-111z"/>
		<path id="Layer" fill-rule="evenodd" class="s0" d="m226 339.3h-228.9q-1.4 0-2.6-0.5-1.3-0.5-2.2-1.5-1-1-1.5-2.2-0.5-1.2-0.5-2.6v-321.8q0-1.3 0.5-2.6 0.6-1.2 1.5-2.1 1-1 2.2-1.5 1.2-0.5 2.6-0.5h228.9q1.3 0 2.6 0.5 1.2 0.5 2.2 1.5 0.9 0.9 1.4 2.2 0.6 1.2 0.6 2.6v321.7q0 1.4-0.6 2.6-0.5 1.3-1.4 2.2-1 1-2.2 1.5-1.3 0.5-2.6 0.5zm-228.9-335.1q-1.3 0-2.5 0.5-1.2 0.5-2.1 1.4-0.9 0.9-1.4 2.1-0.5 1.2-0.5 2.5v321.8q0 1.3 0.5 2.5 0.5 1.2 1.4 2.1 0.9 0.9 2.1 1.4 1.2 0.5 2.5 0.5h228.9q1.3 0 2.5-0.5 1.2-0.5 2.1-1.4 0.9-0.9 1.4-2.1 0.5-1.2 0.5-2.5v-321.8q0-1.3-0.5-2.5-0.5-1.2-1.4-2.1-0.9-0.9-2.1-1.4-1.2-0.5-2.5-0.5z"/>
		<path id="Layer" fill-rule="evenodd" class="s0" d="m482.4 339.3h-228.9q-1.3 0-2.6-0.5-1.2-0.5-2.2-1.5-0.9-0.9-1.4-2.2-0.6-1.2-0.6-2.6v-321.8q0.1-1.3 0.6-2.6 0.5-1.2 1.4-2.1 1-1 2.2-1.5 1.3-0.5 2.6-0.5h228.9q1.4 0 2.6 0.5 1.3 0.5 2.2 1.5 0.9 0.9 1.5 2.1 0.5 1.3 0.5 2.6v321.8q0 1.4-0.5 2.6-0.5 1.2-1.5 2.2-0.9 0.9-2.2 1.5-1.2 0.5-2.6 0.5zm-228.9-335.1q-1.3 0-2.5 0.5-1.2 0.5-2.1 1.4-0.9 0.9-1.4 2.1-0.5 1.2-0.5 2.5v321.8q0 1.3 0.5 2.5 0.5 1.2 1.4 2.1 0.9 0.9 2.1 1.4 1.2 0.5 2.5 0.5h228.9q1.3 0 2.5-0.5 1.2-0.5 2.1-1.4 0.9-0.9 1.4-2.1 0.5-1.2 0.5-2.5v-321.8q0-1.3-0.5-2.5-0.5-1.2-1.4-2.1-0.9-0.9-2.1-1.4-1.2-0.5-2.5-0.5z"/>
		<path id="Layer" class="s1" d="m403.6 88.8l10.7 7.8c-64.6 88.5-145.8 141.4-241.5 157.2-67.6 11.2-119.5-1-127.5-3.1v24.4q8.6 1.8 17.3 3.2 8.8 1.4 17.6 2.2 8.8 0.9 17.6 1.4 8.8 0.4 17.7 0.3 7.5 0 15-0.3 7.6-0.3 15.1-0.9 7.5-0.6 15-1.5 7.5-0.9 15-2.1 17.1-2.8 33.9-7.2 16.9-4.4 33.2-10.4 16.3-5.9 32-13.4 15.7-7.5 30.6-16.4c48-28.6 91.1-68.7 128.1-119.4l10.5 7.7 0.2-42.3z"/>
		<path id="Layer" class="s0" d="m46.4 284.6h10.6v106.9h-10.6z"/>
		<path id="Layer" class="s0" d="m72.1 289.4h10.6v102.1h-10.6z"/>
		<path id="Layer" class="s0" d="m97.7 291.7h10.7v99.8h-10.7z"/>
		<path id="Layer" class="s0" d="m123.4 291.7h10.6v99.8h-10.6z"/>
		<path id="Layer" class="s0" d="m149.1 290.5h10.6v101h-10.6z"/>
		<path id="Layer" class="s0" d="m174.7 287h10.6v104.5h-10.6z"/>
		<path id="Layer" class="s0" d="m200.4 281.1h10.6v110.4h-10.6z"/>
		<path id="Layer" class="s0" d="m226 275.1h10.7v116.4h-10.7z"/>
		<path id="Layer" class="s0" d="m251.7 270.4h10.6v121.1h-10.6z"/>
		<path id="Layer" class="s0" d="m277.4 254.9h10.6v136.6h-10.6z"/>
		<path id="Layer" class="s0" d="m303 241.9h10.7v149.6h-10.7z"/>
		<path id="Layer" class="s0" d="m328.7 227h10.6v164.5h-10.6z"/>
		<path id="Layer" class="s0" d="m354.3 207.2h10.7v184.3h-10.7z"/>
		<path id="Layer" class="s0" d="m380 186.6h10.6v204.9h-10.6z"/>
		<path id="Layer" class="s0" d="m405.7 159.1h10.6v232.4h-10.6z"/>
		<path id="Layer" class="s0" d="m431.3 129.1h10.7v262.4h-10.7z"/>
	</g>
	<g id="freepik--Shadow--inject-14">
		<path id="freepik--path--inject-14" class="s2" d="m241.4 445.7c-127.1 0-229.9-6-229.9-13.4 0-7.4 102.8-13.4 229.9-13.4 127.1 0 229.9 6 229.9 13.4 0 7.4-102.8 13.4-229.9 13.4z"/>
	</g>
	<g id="freepik--Banknotes--inject-14">
		<path id="Layer" class="s3" d="m416.3 259.4q-8.5 21.1-18.9 41.5-10.3 20.4-22.3 39.8-12.1 19.3-25.7 37.6-13.7 18.3-28.9 35.3l-73.4-45.5q15.2-17.1 28.8-35.4 13.7-18.2 25.7-37.6 12.1-19.4 22.4-39.8 10.3-20.4 18.9-41.5z"/>
		<path id="Layer" class="s4" d="m416.3 259.4q-8.5 21.1-18.9 41.5-10.3 20.4-22.3 39.7-12.1 19.4-25.7 37.7-13.7 18.3-28.9 35.3l-31.7-19.7-41.7-25.8q15.2-17.1 28.8-35.4 13.7-18.2 25.7-37.6 12.1-19.4 22.4-39.8 10.3-20.3 18.9-41.5 36.7 22.8 73.4 45.6z"/>
		<path id="Layer" fill-rule="evenodd" class="s5" d="m354.9 226.6l45.8 28.4v0.1c-0.6 1.5-0.9 3.1-1 4.7 0 1.7 0.2 3.3 0.7 4.8 0.4 1.6 1.2 3 2.2 4.3 0.9 1.3 2.1 2.4 3.5 3.3q-7.6 17.1-16.3 33.7-8.7 16.6-18.6 32.4-9.8 15.9-20.8 31.1-11 15.2-23 29.5c-1.4-0.8-2.9-1.4-4.5-1.7-1.6-0.3-3.2-0.3-4.8 0-1.6 0.2-3.2 0.7-4.6 1.5-1.4 0.8-2.7 1.8-3.8 3l-45.8-28.5c1-1 1.8-2.3 2.2-3.8 0.5-1.4 0.6-2.9 0.4-4.3-0.3-1.5-0.8-2.9-1.6-4.1-0.9-1.2-2-2.2-3.3-3q12-14.3 23-29.5 11-15.1 20.9-31 9.8-15.9 18.5-32.5 8.8-16.5 16.3-33.6c1.2 0.8 2.6 1.3 4.1 1.5 1.4 0.2 2.9 0.1 4.4-0.3 1.4-0.5 2.7-1.3 3.7-2.3 1.1-1 1.9-2.2 2.4-3.6zm-6 70.6c-11.3-7-25.7-3.2-32.7 8.1-7.1 11.4-4.1 25.9 7.2 32.9 11.3 7 26.6 3.8 33.6-7.5 7.1-11.3 3.2-26.4-8.1-33.5z"/>
		<g id="Layer" style="opacity: .2">
			<path id="Layer" fill-rule="evenodd" class="s6" d="m348.9 322.6l3 1.9q-0.7 1.1-1.4 2.2l-3-1.9q-0.6 0.9-1.3 1.7-0.7 0.8-1.5 1.4-0.8 0.7-1.8 1.2-0.9 0.6-1.8 0.9l-2-2.9q0.8-0.3 1.6-0.7 0.7-0.4 1.4-0.9 0.7-0.6 1.3-1.2 0.7-0.6 1.2-1.3l-5.4-3.4c-2.7 2.6-5.7 5.2-9.4 2.9-2.8-1.8-3.9-5.2-1.7-9.7l-3-1.9q0.7-1.1 1.3-2.2l3 1.8q0.5-0.7 1.1-1.3 0.5-0.7 1.2-1.2 0.6-0.6 1.3-1.1 0.7-0.5 1.5-0.9l2 2.8q-0.6 0.4-1.1 0.8-0.6 0.3-1.1 0.8-0.6 0.4-1 0.9-0.5 0.5-0.9 1.1l5.4 3.4c2.6-2.6 5.6-5.3 9.3-3 2.8 1.7 3.9 5.2 1.8 9.8zm-13-5l-4.8-3c-0.9 2.1-0.5 3.6 0.7 4.3 1.2 0.7 2.6 0 4.1-1.3zm9.3-1.2c-1.3-0.8-2.6 0-4.1 1.4l4.8 2.9c0.9-2.1 0.5-3.5-0.7-4.3z"/>
		</g>
		<path id="Layer" class="s5" d="m416.3 259.4q-8.5 21.1-18.9 41.5-10.3 20.4-22.3 39.7-12.1 19.4-25.7 37.7-13.7 18.3-28.9 35.3l-31.7-19.7-25.2-42.5c0 0 100.4-41.7 152.7-92z"/>
		<path id="Layer" class="s3" d="m470.8 338.8q-17.5 14.7-36.2 27.7-18.7 13.1-38.5 24.5-19.8 11.5-40.4 21.1-20.7 9.7-42.2 17.5-21.6-37.4-43.2-74.8 21.5-7.9 42.2-17.5 20.6-9.7 40.4-21.1 19.8-11.4 38.5-24.5 18.7-13.1 36.2-27.7 21.6 37.4 43.2 74.8z"/>
		<path id="Layer" class="s4" d="m470.8 338.8q-17.5 14.7-36.2 27.7-18.7 13.1-38.5 24.5-19.8 11.5-40.4 21.1-20.7 9.7-42.2 17.5-21.6-37.4-43.2-74.8 21.5-7.9 42.2-17.5 20.6-9.7 40.4-21.1 19.8-11.4 38.5-24.5 18.7-13.1 36.2-27.7 21.6 37.4 43.2 74.8z"/>
		<path id="Layer" fill-rule="evenodd" class="s5" d="m432.3 281l26.9 46.6-0.1 0.1c-1.2 1-2.3 2.3-3.1 3.7-0.8 1.4-1.4 2.9-1.7 4.5-0.3 1.6-0.3 3.2-0.1 4.8 0.3 1.6 0.8 3.2 1.5 4.6q-14.7 11.5-30.2 22-15.5 10.5-31.7 19.9-16.2 9.3-33.1 17.5-16.8 8.2-34.2 15.1c-0.8-1.3-1.9-2.6-3.2-3.6-1.2-1-2.7-1.8-4.2-2.3-1.5-0.6-3.1-0.8-4.7-0.8-1.7 0-3.3 0.3-4.8 0.8l-26.9-46.7c1.4-0.4 2.7-1.2 3.7-2.2 1.1-1.1 1.9-2.3 2.4-3.7 0.5-1.4 0.6-2.9 0.5-4.4-0.2-1.5-0.7-2.9-1.5-4.1q17.4-7 34.2-15.2 16.9-8.2 33.1-17.5 16.2-9.4 31.7-19.8 15.5-10.5 30.3-22.1c0.7 1.4 1.6 2.5 2.8 3.4 1.2 0.8 2.6 1.4 4 1.7 1.5 0.3 3 0.2 4.4-0.2 1.4-0.4 2.8-1.1 3.9-2.1zm-38.7 59.4c-6.6-11.4-21.1-14.9-32.7-8.3-11.6 6.7-15.8 20.9-9.2 32.4 6.6 11.5 21.7 16 33.2 9.3 11.6-6.6 15.2-21.9 8.7-33.4z"/>
		<g id="Layer" style="opacity: .2">
			<path id="Layer" fill-rule="evenodd" class="s6" d="m381.5 362.7q0.9 1.5 1.8 3.1l-2.3 1.3-1.7-3.1q-1 0.5-2 0.9-1 0.3-2 0.5-1 0.2-2.1 0.3-1 0-2.1-0.1c-0.1-1.2-0.2-2.4-0.3-3.5q0.8 0.1 1.7 0.1 0.9 0 1.7-0.1 0.9-0.2 1.7-0.4 0.9-0.3 1.6-0.6l-3.1-5.6c-3.6 1.1-7.4 1.9-9.7-1.9-1.6-2.8-0.9-6.4 3.2-9.3-0.6-1.1-1.2-2.1-1.8-3.1l2.2-1.4 1.8 3.1q0.8-0.4 1.6-0.7 0.8-0.3 1.6-0.5 0.8-0.2 1.7-0.3 0.8-0.1 1.7-0.1c0.1 1.2 0.3 2.3 0.5 3.5q-0.7 0-1.4 0-0.7 0.1-1.4 0.3-0.6 0.1-1.3 0.3-0.6 0.3-1.3 0.5 1.6 2.8 3.2 5.6c3.5-1 7.4-2 9.6 1.8 1.7 2.8 1 6.4-3.1 9.4zm-9.1-10.5l-2.8-4.9c-1.8 1.4-2.1 2.9-1.3 4.1 0.7 1.2 2.3 1.3 4.1 0.8zm8.9 3.4c-0.8-1.4-2.4-1.3-4.3-0.8q1.4 2.5 2.8 4.9c1.8-1.5 2.1-2.9 1.5-4.1z"/>
		</g>
	</g>
	<g id="freepik--Coins--inject-14">
		<path id="Layer" class="s3" d="m397.9 420.5h46.3v9.1h-46.3z"/>
		<path id="Layer" class="s5" d="m397.9 420.5h10.2v9.1h-10.2z"/>
		<path id="Layer" class="s5" d="m409.3 420.5h3.7v9.1h-3.7z"/>
		<path id="Layer" class="s5" d="m415.2 420.5h2.6v9.1h-2.6z"/>
		<path id="Layer" class="s5" d="m421.2 420.5h1.2v9.1h-1.2z"/>
		<path id="Layer" class="s5" d="m429.5 420.5h0.6v9.1h-0.6z"/>
		<path id="Layer" class="s3" d="m400.1 411.5h46.3v9.1h-46.3z"/>
		<path id="Layer" class="s5" d="m400.1 411.5h10.2v9.1h-10.2z"/>
		<path id="Layer" class="s5" d="m411.5 411.5h3.7v9h-3.7z"/>
		<path id="Layer" class="s5" d="m417.4 411.5h2.6v9h-2.6z"/>
		<path id="Layer" class="s5" d="m423.4 411.5h1.2v9h-1.2z"/>
		<path id="Layer" class="s5" d="m431.7 411.5h0.6v9h-0.6z"/>
		<path id="Layer" class="s3" d="m396 402.4h46.3v9.1h-46.3z"/>
		<path id="Layer" class="s5" d="m396 402.4h10.2v9.1h-10.2z"/>
		<path id="Layer" class="s5" d="m407.4 402.4h3.7v9.1h-3.7z"/>
		<path id="Layer" class="s5" d="m413.3 402.4h2.5v9.1h-2.5z"/>
		<path id="Layer" class="s5" d="m419.2 402.4h1.3v9.1h-1.3z"/>
		<path id="Layer" class="s5" d="m427.5 402.4h0.7v9.1h-0.7z"/>
		<path id="Layer" class="s3" d="m397.9 393.4h46.3v9.1h-46.3z"/>
		<path id="Layer" class="s5" d="m397.9 393.4h10.2v9.1h-10.2z"/>
		<path id="Layer" class="s5" d="m409.3 393.4h3.7v9.1h-3.7z"/>
		<path id="Layer" class="s5" d="m415.2 393.4h2.6v9.1h-2.6z"/>
		<path id="Layer" class="s5" d="m421.2 393.4h1.2v9.1h-1.2z"/>
		<path id="Layer" class="s5" d="m429.5 393.4h0.6v9.1h-0.6z"/>
		<path id="Layer" class="s3" d="m399.1 384.4h46.3v9h-46.3z"/>
		<path id="Layer" class="s5" d="m399.1 384.4h10.2v9h-10.2z"/>
		<path id="Layer" class="s5" d="m410.5 384.4h3.7v9h-3.7z"/>
		<path id="Layer" class="s5" d="m416.4 384.4h2.6v9h-2.6z"/>
		<path id="Layer" class="s5" d="m422.4 384.4h1.2v9h-1.2z"/>
		<path id="Layer" class="s5" d="m430.7 384.4h0.6v9h-0.6z"/>
		<path id="Layer" class="s3" d="m397.9 375.3h46.3v9.1h-46.3z"/>
		<path id="Layer" class="s5" d="m397.9 375.3h10.2v9.1h-10.2z"/>
		<path id="Layer" class="s5" d="m409.3 375.3h3.7v9.1h-3.7z"/>
		<path id="Layer" class="s5" d="m415.2 375.3h2.6v9.1h-2.6z"/>
		<path id="Layer" class="s5" d="m421.2 375.3h1.2v9.1h-1.2z"/>
		<path id="Layer" class="s5" d="m429.5 375.3h0.6v9.1h-0.6z"/>
		<path id="Layer" class="s3" d="m397.9 366.3h46.3v9.1h-46.3z"/>
		<path id="Layer" class="s5" d="m397.9 366.3h10.2v9.1h-10.2z"/>
		<path id="Layer" class="s5" d="m409.3 366.3h3.7v9.1h-3.7z"/>
		<path id="Layer" class="s5" d="m415.2 366.3h2.6v9.1h-2.6z"/>
		<path id="Layer" class="s5" d="m421.2 366.3h1.2v9.1h-1.2z"/>
		<path id="Layer" class="s5" d="m429.5 366.3h0.6v9.1h-0.6z"/>
		<path id="Layer" class="s3" d="m400.3 357.3h46.3v9h-46.3z"/>
		<path id="Layer" class="s5" d="m400.3 357.3h10.2v9h-10.2z"/>
		<path id="Layer" class="s5" d="m411.7 357.3h3.7v9h-3.7z"/>
		<path id="Layer" class="s5" d="m417.6 357.3h2.6v9h-2.6z"/>
		<path id="Layer" class="s5" d="m423.5 357.3h1.3v9h-1.3z"/>
		<path id="Layer" class="s5" d="m431.8 357.3h0.7v9h-0.7z"/>
		<path id="Layer" class="s3" d="m397.9 348.2h46.3v9.1h-46.3z"/>
		<path id="Layer" class="s5" d="m397.9 348.2h10.2v9.1h-10.2z"/>
		<path id="Layer" class="s5" d="m409.3 348.2h3.7v9.1h-3.7z"/>
		<path id="Layer" class="s5" d="m415.2 348.2h2.6v9.1h-2.6z"/>
		<path id="Layer" class="s5" d="m421.2 348.2h1.2v9.1h-1.2z"/>
		<path id="Layer" class="s5" d="m429.5 348.2h0.6v9.1h-0.6z"/>
		<path id="Layer" class="s3" d="m395.6 339.2h46.2v9.1h-46.2z"/>
		<path id="Layer" class="s5" d="m395.6 339.2h10.2v9.1h-10.2z"/>
		<path id="Layer" class="s5" d="m406.9 339.2h3.8v9.1h-3.8z"/>
		<path id="Layer" class="s5" d="m412.9 339.2h2.5v9.1h-2.5z"/>
		<path id="Layer" class="s5" d="m418.8 339.2h1.3v9.1h-1.3z"/>
		<path id="Layer" class="s5" d="m427.1 339.2h0.6v9.1h-0.6z"/>
		<path id="Layer" class="s3" d="m357.1 420.5h46.3v9.1h-46.3z"/>
		<path id="Layer" class="s5" d="m357.1 420.5h10.2v9.1h-10.2z"/>
		<path id="Layer" class="s5" d="m368.5 420.5h3.7v9.1h-3.7z"/>
		<path id="Layer" class="s5" d="m374.4 420.5h2.6v9.1h-2.6z"/>
		<path id="Layer" class="s5" d="m380.4 420.5h1.2v9.1h-1.2z"/>
		<path id="Layer" class="s5" d="m388.7 420.5h0.6v9.1h-0.6z"/>
		<path id="Layer" class="s3" d="m359.5 411.5h46.3v9.1h-46.3z"/>
		<path id="Layer" class="s5" d="m359.5 411.5h10.2v9.1h-10.2z"/>
		<path id="Layer" class="s5" d="m370.9 411.5h3.7v9h-3.7z"/>
		<path id="Layer" class="s5" d="m376.8 411.5h2.5v9h-2.5z"/>
		<path id="Layer" class="s5" d="m382.7 411.5h1.3v9h-1.3z"/>
		<path id="Layer" class="s5" d="m391 411.5h0.7v9h-0.7z"/>
		<path id="Layer" class="s3" d="m357.1 402.4h46.3v9.1h-46.3z"/>
		<path id="Layer" class="s5" d="m357.1 402.4h10.2v9.1h-10.2z"/>
		<path id="Layer" class="s5" d="m368.5 402.4h3.7v9.1h-3.7z"/>
		<path id="Layer" class="s5" d="m374.4 402.4h2.6v9.1h-2.6z"/>
		<path id="Layer" class="s5" d="m380.4 402.4h1.2v9.1h-1.2z"/>
		<path id="Layer" class="s5" d="m388.7 402.4h0.6v9.1h-0.6z"/>
		<path id="Layer" class="s3" d="m358.3 393.4h46.3v9.1h-46.3z"/>
		<path id="Layer" class="s5" d="m358.3 393.4h10.2v9.1h-10.2z"/>
		<path id="Layer" class="s5" d="m369.7 393.4h3.7v9.1h-3.7z"/>
		<path id="Layer" class="s5" d="m375.6 393.4h2.6v9.1h-2.6z"/>
		<path id="Layer" class="s5" d="m381.5 393.4h1.3v9.1h-1.3z"/>
		<path id="Layer" class="s5" d="m389.8 393.4h0.7v9.1h-0.7z"/>
		<path id="Layer" class="s3" d="m357.1 384.4h46.3v9h-46.3z"/>
		<path id="Layer" class="s5" d="m357.1 384.4h10.2v9h-10.2z"/>
		<path id="Layer" class="s5" d="m368.5 384.4h3.7v9h-3.7z"/>
		<path id="Layer" class="s5" d="m374.4 384.4h2.6v9h-2.6z"/>
		<path id="Layer" class="s5" d="m380.4 384.4h1.2v9h-1.2z"/>
		<path id="Layer" class="s5" d="m388.7 384.4h0.6v9h-0.6z"/>
		<path id="Layer" class="s3" d="m360.7 375.3h46.3v9.1h-46.3z"/>
		<path id="Layer" class="s5" d="m360.7 375.3h10.2v9.1h-10.2z"/>
		<path id="Layer" class="s5" d="m372.1 375.3h3.7v9.1h-3.7z"/>
		<path id="Layer" class="s5" d="m378 375.3h2.5v9.1h-2.5z"/>
		<path id="Layer" class="s5" d="m383.9 375.3h1.3v9.1h-1.3z"/>
		<path id="Layer" class="s5" d="m392.2 375.3h0.7v9.1h-0.7z"/>
	</g>
	<g id="freepik--Device--inject-14">
		<path id="Layer" class="s7" d="m141.5 64.8c0-5.8 4.6-10.4 10.4-10.4h176.6c5.7 0 10.4 4.6 10.4 10.4v354.4c0 5.7-4.7 10.4-10.4 10.4h-176.6c-5.8 0-10.4-4.7-10.4-10.4z"/>
		<path id="Layer" class="s3" d="m332.3 66.3v350.8q0 0.9-0.4 1.8-0.4 0.9-1.1 1.6-0.7 0.7-1.6 1-0.9 0.4-1.8 0.4h-174.8q-0.9 0-1.7-0.3-0.8-0.4-1.4-1-0.7-0.6-1-1.5-0.3-0.8-0.3-1.7v-351.5q0-0.8 0.3-1.5 0.2-0.8 0.7-1.3 0.6-0.6 1.3-0.9 0.7-0.3 1.5-0.4h43.7q0.4 0 0.9 0.2 0.4 0.1 0.8 0.4 0.3 0.2 0.6 0.6 0.3 0.4 0.5 0.8l1.8 4.4q0.2 0.5 0.4 0.8 0.3 0.4 0.7 0.6 0.4 0.3 0.8 0.4 0.4 0.2 0.9 0.2h74.4q0.4 0 0.9-0.1 0.4-0.2 0.8-0.4 0.4-0.3 0.6-0.7 0.3-0.3 0.5-0.7l1.8-4.5q0.2-0.4 0.5-0.8 0.2-0.4 0.6-0.6 0.4-0.3 0.8-0.4 0.5-0.2 0.9-0.2h43.1q0.8 0 1.6 0.4 0.8 0.3 1.4 1 0.6 0.6 1 1.4 0.3 0.8 0.3 1.7z"/>
		<path id="Layer" class="s8" d="m148.2 76.4h184.1v331h-184.1z"/>
		<path id="Layer" class="s9" d="m236.1 64.8c-1.4 0-2.5-1.1-2.5-2.5 0-1.4 1.1-2.6 2.5-2.6 1.4 0 2.5 1.2 2.5 2.6 0 1.4-1.1 2.5-2.5 2.5z"/>
		<path id="Layer" class="s9" d="m243.8 62.3c0 0.6-0.4 1.2-1 1.5-0.6 0.2-1.3 0.1-1.8-0.4-0.5-0.5-0.6-1.2-0.3-1.8 0.2-0.6 0.8-1 1.5-1q0.3 0 0.6 0.2 0.3 0.1 0.5 0.3 0.2 0.2 0.4 0.5 0.1 0.3 0.1 0.7z"/>
		<path id="Layer" class="s9" d="m169 68.6h2.2v3h-2.2z"/>
		<path id="Layer" class="s9" d="m165.3 67.5h2.2v4.1h-2.2z"/>
		<path id="Layer" class="s9" d="m161.6 66.5h2.2v5.1h-2.2z"/>
		<path id="Layer" class="s9" d="m157.9 65.5h2.2v6.1h-2.2z"/>
		<path id="Layer" class="s9" d="m310.6 67.5h1.3v3h-1.3z"/>
		<path id="Layer" class="s9" d="m312.8 66.3h10.8v5.3h-10.8z"/>
		<path id="Layer" class="s7" d="m148 76.5h184.4v29.8h-184.4z"/>
		<g id="Layer" style="opacity: .7">
		</g>
		<g id="Layer" style="opacity: .7">
			<path id="Layer" class="s10" d="m160.5 97q-0.1 0-0.2-0.1-0.2 0-0.3 0-0.1-0.1-0.2-0.1-0.1-0.1-0.1-0.2l-4.5-4.4q-0.2-0.2-0.3-0.4-0.1-0.2-0.1-0.5 0-0.2 0.1-0.4 0.1-0.3 0.3-0.4l4.5-4.5q0.3-0.3 0.8-0.3 0.4 0.1 0.8 0.4 0.3 0.3 0.3 0.8 0 0.4-0.3 0.8l-3.6 3.6 3.6 3.6q0.2 0.1 0.3 0.4 0.1 0.2 0.1 0.4 0 0.2-0.1 0.5-0.1 0.2-0.3 0.3-0.1 0.1-0.1 0.2-0.1 0.1-0.3 0.1-0.1 0.1-0.2 0.1-0.1 0-0.2 0.1z"/>
		</g>
		<g id="Layer" style="opacity: .7">
			<path id="Layer" class="s10" d="m325.5 87c0 0.5-0.3 1-0.8 1.2-0.5 0.3-1.1 0.1-1.5-0.3-0.4-0.3-0.5-0.9-0.3-1.4 0.2-0.5 0.7-0.9 1.3-0.9q0.2 0 0.5 0.1 0.2 0.1 0.4 0.3 0.2 0.2 0.3 0.5 0.1 0.2 0.1 0.5z"/>
			<path id="Layer" class="s10" d="m325.5 91.3c0 0.6-0.3 1.1-0.8 1.3-0.5 0.2-1.1 0.1-1.5-0.3-0.4-0.4-0.5-1-0.3-1.5 0.2-0.5 0.7-0.8 1.3-0.8q0.2 0 0.5 0.1 0.2 0.1 0.4 0.3 0.2 0.2 0.3 0.4 0.1 0.3 0.1 0.5z"/>
			<path id="Layer" class="s10" d="m325.5 95.7c0 0.5-0.3 1-0.8 1.2-0.5 0.2-1.1 0.1-1.5-0.3-0.4-0.4-0.5-1-0.3-1.5 0.2-0.5 0.7-0.8 1.3-0.8q0.2 0 0.5 0.1 0.2 0.1 0.4 0.3 0.2 0.2 0.3 0.4 0.1 0.3 0.1 0.6z"/>
		</g>
		<path id="Layer" fill-rule="evenodd" class="s3" d="m218.4 133.1v1.6h-1.2v-1.6q-0.5 0-1-0.1-0.4-0.1-0.9-0.3-0.4-0.1-0.8-0.3-0.4-0.2-0.8-0.5l0.6-1.4q0.3 0.2 0.7 0.4 0.3 0.2 0.7 0.3 0.3 0.1 0.7 0.2 0.4 0.1 0.8 0.1v-2.8c-1.6-0.4-3.3-0.9-3.3-2.9 0-1.4 1.1-2.7 3.3-2.9v-1.6h1.2v1.6q0.3 0 0.7 0 0.4 0.1 0.8 0.2 0.3 0.1 0.7 0.3 0.3 0.1 0.6 0.3l-0.5 1.5q-0.3-0.2-0.6-0.3-0.3-0.1-0.6-0.2-0.2-0.1-0.5-0.2-0.3-0.1-0.6-0.1v2.9c1.5 0.4 3.3 0.9 3.3 2.9 0 1.4-1.1 2.6-3.3 2.9zm-1.2-6.1q0 0 0 0zm-0.1-2.6c-1 0.2-1.4 0.7-1.4 1.3 0 0.7 0.6 1 1.4 1.3zm2.7 5.8c0-0.7-0.6-1-1.5-1.3v2.5c1.1-0.1 1.5-0.6 1.5-1.2z"/>
		<path id="Layer" class="s3" d="m230.2 123v9.9h-1.8v-8.4h-2.1v-1.5z"/>
		<path id="Layer" fill-rule="evenodd" class="s3" d="m240.2 130.1c0 1.8-1.6 3-4.1 3-2.4 0-4-1.2-4-3q0-0.4 0.1-0.8 0.1-0.3 0.3-0.6 0.2-0.4 0.5-0.6 0.3-0.2 0.7-0.4-0.3-0.1-0.5-0.4-0.3-0.2-0.4-0.5-0.2-0.2-0.3-0.5 0-0.4 0-0.7c0-1.7 1.5-2.7 3.7-2.7 2.2 0 3.7 1 3.7 2.7q0 0.4-0.1 0.7-0.1 0.3-0.2 0.6-0.2 0.2-0.4 0.5-0.3 0.2-0.6 0.3 0.4 0.2 0.7 0.4 0.3 0.2 0.5 0.6 0.2 0.3 0.3 0.6 0.1 0.4 0.1 0.8zm-1.8 0c0-1-0.9-1.6-2.3-1.6-1.3 0-2.2 0.6-2.2 1.6 0 1 0.9 1.6 2.2 1.6 1.4 0 2.2-0.7 2.2-1.7zm-0.2-4.4c0-0.7-0.9-1.4-1.9-1.4-1.1 0-1.9 0.7-1.9 1.4 0 0.8 0.8 1.4 1.9 1.4 1 0 1.9-0.6 1.9-1.4z"/>
		<path id="Layer" class="s3" d="m241.5 131.9c0-0.5 0.3-0.9 0.7-1.1 0.5-0.2 1-0.1 1.3 0.2 0.3 0.4 0.4 0.9 0.3 1.3-0.2 0.5-0.6 0.8-1.1 0.8q-0.3 0-0.5-0.1-0.2-0.1-0.4-0.3-0.1-0.2-0.2-0.4-0.1-0.2-0.1-0.4z"/>
		<path id="Layer" class="s3" d="m248.2 123v9.9h-1.8v-8.4h-2.1v-1.5z"/>
		<path id="Layer" class="s3" d="m257.4 131.4v1.5h-7.3v-1.1l4-3.8c0.9-0.9 1.1-1.5 1.1-2 0-1-0.6-1.5-1.8-1.5q-0.3 0-0.7 0.1-0.3 0-0.6 0.1-0.3 0.2-0.6 0.4-0.3 0.2-0.5 0.4l-1.3-0.9q0.4-0.5 0.8-0.8 0.4-0.3 0.9-0.5 0.5-0.2 1-0.3 0.6-0.1 1.1-0.1c2.2 0 3.6 1.1 3.6 2.9q0 0.4-0.2 0.9-0.1 0.4-0.3 0.8-0.2 0.4-0.5 0.8-0.3 0.3-0.7 0.6l-2.7 2.5z"/>
		<path id="Layer" fill-rule="evenodd" class="s3" d="m266.6 130.1c0 1.8-1.6 3-4.1 3-2.5 0-4-1.2-4-3q-0.1-0.4 0.1-0.8 0.1-0.3 0.3-0.6 0.2-0.4 0.5-0.6 0.3-0.2 0.6-0.4-0.2-0.1-0.5-0.4-0.2-0.2-0.4-0.5-0.1-0.2-0.2-0.5-0.1-0.4 0-0.7c0-1.7 1.4-2.7 3.7-2.7 2.2 0 3.7 1 3.7 2.7q0 0.4-0.1 0.7-0.1 0.3-0.3 0.6-0.1 0.2-0.4 0.5-0.2 0.2-0.5 0.3 0.4 0.2 0.7 0.4 0.3 0.2 0.5 0.6 0.2 0.3 0.3 0.6 0.1 0.4 0.1 0.8zm-1.9-0.1q0 0 0 0.1 0 0 0 0zm-2.2-1.5c-1.4 0-2.2 0.6-2.2 1.5 0 1 0.8 1.6 2.2 1.6 1.4 0 2.2-0.6 2.2-1.6 0-0.9-0.8-1.5-2.2-1.5zm-1.9-2.8c0 0.9 0.7 1.4 1.9 1.4 1.2 0 1.9-0.5 1.9-1.4 0-0.8-0.8-1.4-1.9-1.4-1.1 0-1.9 0.5-1.9 1.4z"/>
		<path id="Layer" fill-rule="evenodd" class="s6" d="m228.2 192.1v0.8h-0.6v-0.8q-0.3 0-0.5-0.1-0.3 0-0.5-0.1-0.3-0.1-0.5-0.2-0.2-0.1-0.5-0.3l0.4-0.8q0.2 0.1 0.4 0.2 0.1 0.1 0.3 0.2 0.2 0.1 0.5 0.1 0.2 0.1 0.4 0.1v-1.6c-0.9-0.2-1.8-0.5-1.8-1.6 0-0.8 0.5-1.5 1.8-1.6v-0.9h0.6v0.9q0.2 0 0.4 0 0.3 0.1 0.5 0.1 0.2 0.1 0.4 0.2 0.1 0.1 0.3 0.2l-0.3 0.8q-0.1-0.1-0.3-0.2-0.1 0-0.3-0.1-0.2-0.1-0.3-0.1-0.2 0-0.4-0.1v1.6c0.9 0.3 1.9 0.5 1.9 1.6 0 0.8-0.6 1.5-1.9 1.7zm-0.6-3.4v-1.4c-0.6 0.1-0.8 0.4-0.8 0.7 0 0.3 0.4 0.6 0.8 0.7zm1.4 1.8c0-0.4-0.3-0.6-0.8-0.7v1.4c0.6-0.1 0.8-0.4 0.8-0.7z"/>
		<path id="Layer" class="s6" d="m234.8 186.5v5.5h-1.1v-4.7h-1.1v-0.8z"/>
		<path id="Layer" class="s6" d="m237.8 186.5v5.5h-1.1v-4.7h-1.1v-0.8z"/>
		<path id="Layer" class="s6" d="m242.9 190.3c0 1-0.7 1.8-2.2 1.8q-0.3 0-0.6-0.1-0.2 0-0.5-0.1-0.3-0.1-0.5-0.2-0.3-0.1-0.5-0.3l0.5-0.8q0.1 0.2 0.3 0.3 0.2 0.1 0.4 0.1 0.2 0.1 0.4 0.2 0.3 0 0.5 0c0.7 0 1.2-0.3 1.2-0.9 0-0.5-0.4-0.8-1.5-0.8h-1.4l0.3-3h3.3v0.8h-2.4l-0.1 1.3h0.5c1.6 0 2.3 0.7 2.3 1.7z"/>
		<path id="Layer" class="s6" d="m244.7 191.4q0 0.1 0 0.2 0 0.1 0 0.1-0.1 0.1-0.1 0.2 0 0.1-0.1 0.2l-0.4 1.1h-0.6l0.3-1.2q-0.1 0-0.1-0.1-0.1-0.1-0.2-0.1 0-0.1 0-0.2-0.1-0.1 0-0.2-0.1-0.3 0.1-0.5 0.2-0.2 0.5-0.2 0.3 0 0.5 0.2 0.2 0.2 0.1 0.5z"/>
		<path id="Layer" class="s6" d="m249.5 191.1v0.9h-4.1v-0.7l2.2-2q0.1-0.2 0.2-0.3 0.2-0.1 0.2-0.3 0.1-0.1 0.2-0.3 0-0.2 0-0.3c0-0.5-0.3-0.8-1-0.8q-0.2 0-0.4 0-0.2 0-0.3 0.1-0.2 0.1-0.3 0.2-0.2 0.1-0.3 0.3l-0.7-0.6q0.2-0.2 0.4-0.4 0.3-0.2 0.5-0.3 0.3-0.1 0.6-0.2 0.3 0 0.6 0c1.2 0 2 0.6 2 1.6q-0.1 0.2-0.1 0.5-0.1 0.2-0.2 0.4-0.1 0.3-0.3 0.5-0.2 0.2-0.4 0.3l-1.4 1.4z"/>
		<path id="Layer" fill-rule="evenodd" class="s6" d="m252.3 192.1c-1.2 0-2.3-1.3-2.3-2.9 0-1.5 1.1-2.8 2.3-2.8 1.3 0 2.3 1.3 2.3 2.8 0 1.6-1 2.9-2.3 2.9zm1.3-2.9c0-1.3-0.5-1.9-1.3-1.9-0.7 0-1.3 0.6-1.3 1.9 0 1.4 0.6 2 1.3 2 0.8 0 1.3-0.6 1.3-2z"/>
		<path id="Layer" fill-rule="evenodd" class="s7" d="m204.5 163.5c3.5-4.7 7.8-8.6 12.8-11.6 4.9-3 10.5-5 16.2-5.9 5.7-0.9 11.6-0.6 17.2 0.7 17.4 4.3 30.5 18.6 33.2 36.3 2.7 17.7-5.5 35.3-20.8 44.5-15.3 9.3-34.7 8.4-49.1-2.2-14.4-10.6-21-28.8-16.8-46.2 1.4-5.6 3.9-10.9 7.3-15.6zm10.6 30c0.5 3.3 1.6 6.5 3.4 9.3 1.7 2.9 4 5.4 6.6 7.4 2.7 1.9 5.8 3.4 9 4.2 10 2.4 20.5-1.4 26.6-9.7 6-8.3 6.5-19.4 1.2-28.2-5.3-8.8-15.4-13.5-25.6-11.9-10.1 1.5-18.3 9-20.8 19-0.8 3.3-0.9 6.6-0.4 9.9z"/>
		<path id="Layer" class="s3" d="m202.5 212.8c8.2 13.5 23 21.5 38.8 21.1 15.7-0.4 30.1-9.2 37.7-23 7.5-13.8 7.2-30.7-1-44.1-8.2-13.5-22.9-21.6-38.7-21.3 1.4 0 2.9 0.3 4.2 0.9 1.3 0.6 2.4 1.5 3.3 2.7 0.9 1.1 1.5 2.4 1.8 3.8 0.3 1.5 0.3 2.9-0.1 4.3q-0.2 0.8-0.5 1.5-0.3 0.7-0.7 1.3-0.4 0.7-0.9 1.2-0.6 0.6-1.2 1.1-0.6 0.4-1.3 0.8-0.6 0.4-1.4 0.6-0.7 0.3-1.4 0.4-0.8 0.2-1.6 0.2h-0.5c9.1-0.4 17.7 4 22.6 11.7 4.9 7.7 5.3 17.4 1.1 25.5-4.3 8.1-12.5 13.2-21.6 13.6-9.1 0.3-17.7-4.3-22.5-12q-0.5-0.8-1.1-1.5-0.7-0.7-1.4-1.3-0.8-0.5-1.6-0.9-0.9-0.4-1.8-0.6c-1.8-0.5-3.7-0.4-5.4 0.3-1.8 0.6-3.3 1.7-4.4 3.2-1.1 1.5-1.7 3.3-1.8 5.2-0.1 1.9 0.4 3.7 1.4 5.3z"/>
		<path id="Layer" class="s3" d="m163.9 264.8h4.2v13.8h-4.2z"/>
		<path id="Layer" class="s3" d="m174.5 268.4h4.2v10.2h-4.2z"/>
		<path id="Layer" class="s3" d="m185.1 253h4.2v25.6h-4.2z"/>
		<path id="Layer" class="s3" d="m195.7 247h4.2v31.6h-4.2z"/>
		<path id="Layer" class="s3" d="m206.3 253h4.2v25.6h-4.2z"/>
		<path id="Layer" class="s3" d="m216.9 264.8h4.2v13.8h-4.2z"/>
		<path id="Layer" class="s3" d="m227.5 267.2h4.2v11.4h-4.2z"/>
		<path id="Layer" class="s3" d="m238.1 268.4h4.2v10.2h-4.2z"/>
		<path id="Layer" class="s3" d="m248.7 264.8h4.2v13.8h-4.2z"/>
		<path id="Layer" class="s3" d="m259.3 258.9h4.2v19.7h-4.2z"/>
		<path id="Layer" class="s3" d="m269.9 254.2h4.2v24.4h-4.2z"/>
		<path id="Layer" class="s3" d="m280.4 249.4h4.3v29.2h-4.3z"/>
		<path id="Layer" class="s3" d="m291 243.5h4.3v35.1h-4.3z"/>
		<path id="Layer" class="s3" d="m301.6 251.8h4.3v26.8h-4.3z"/>
		<path id="Layer" class="s3" d="m312.2 264.8h4.3v13.8h-4.3z"/>
		<path id="Layer" class="s7" d="m185.1 253h4.2v5.9h-4.2z"/>
		<path id="Layer" class="s7" d="m195.7 247h4.2v11.9h-4.2z"/>
		<path id="Layer" class="s7" d="m206.3 253h4.2v5.9h-4.2z"/>
		<path id="Layer" class="s7" d="m269.9 254.2h4.2v4.7h-4.2z"/>
		<path id="Layer" class="s7" d="m280.4 249.4h4.3v9.5h-4.3z"/>
		<path id="Layer" class="s7" d="m291 243.5h4.3v15.4h-4.3z"/>
		<path id="Layer" class="s7" d="m301.6 251.8h4.3v7.1h-4.3z"/>
		<path id="Layer" class="s3" d="m160.4 298.6c0-1.6 1.4-2.9 3-2.9h153.5c1.7 0 3 1.3 3 2.9v19.3c0 1.7-1.3 3-3 3h-153.5c-1.6 0-3-1.3-3-3z"/>
		<g id="Layer" style="opacity: .7">
			<path id="Layer" class="s10" d="m280.2 308.2h-1.4v1.4h-0.8v-1.4h-1.4v-0.8h1.4v-1.4h0.8v1.4h1.4z"/>
			<path id="Layer" fill-rule="evenodd" class="s10" d="m285.7 310.6v0.9h-0.6v-0.8q-0.3 0-0.5-0.1-0.3 0-0.5-0.1-0.3-0.1-0.5-0.2-0.2-0.1-0.4-0.3l0.3-0.8q0.2 0.1 0.4 0.2 0.2 0.1 0.4 0.2 0.2 0.1 0.4 0.1 0.2 0.1 0.4 0.1v-1.6c-0.9-0.2-1.8-0.5-1.8-1.6 0-0.8 0.6-1.5 1.8-1.6v-0.9h0.6v0.9q0.3 0 0.5 0 0.2 0.1 0.4 0.1 0.2 0.1 0.4 0.2 0.2 0.1 0.3 0.2l-0.3 0.8q-0.1-0.1-0.3-0.2-0.1-0.1-0.3-0.1-0.2-0.1-0.3-0.1-0.2 0-0.4-0.1v1.6c0.9 0.2 1.9 0.5 1.9 1.6 0 0.9-0.6 1.5-1.9 1.6zm-0.6-3.3v-1.4c-0.6 0.1-0.8 0.3-0.8 0.7 0 0.3 0.3 0.5 0.8 0.7zm1.5 1.8c0-0.4-0.4-0.6-0.9-0.7v1.4c0.6-0.1 0.9-0.4 0.9-0.7z"/>
			<path id="Layer" class="s10" d="m294.5 305.1v0.6l-2.1 4.9h-1.1l2.1-4.7h-2.2v1h-1v-1.8z"/>
			<path id="Layer" class="s10" d="m299 308.9c0 1-0.7 1.8-2.1 1.8q-0.3 0-0.6-0.1-0.3 0-0.5-0.1-0.3-0.1-0.5-0.2-0.3-0.1-0.5-0.3l0.4-0.8q0.2 0.2 0.4 0.3 0.2 0.1 0.4 0.1 0.2 0.1 0.4 0.1 0.2 0.1 0.4 0.1c0.8 0 1.2-0.4 1.2-0.9 0-0.5-0.3-0.8-1.5-0.8h-1.3l0.3-3h3.2v0.8h-2.3l-0.2 1.3h0.6c1.6 0 2.2 0.7 2.2 1.7z"/>
			<path id="Layer" class="s10" d="m300.9 310q0 0.1 0 0.2 0 0-0.1 0.1 0 0.1 0 0.2-0.1 0.1-0.1 0.2l-0.4 1.1h-0.6l0.3-1.2q-0.1 0-0.2-0.1 0-0.1-0.1-0.2 0 0-0.1-0.1 0-0.1 0-0.2 0-0.3 0.2-0.5 0.2-0.2 0.5-0.2 0.2 0 0.4 0.2 0.2 0.2 0.2 0.5z"/>
			<path id="Layer" fill-rule="evenodd" class="s10" d="m303.8 310.7c-1.3 0-2.3-1.3-2.3-2.9 0-1.5 1-2.8 2.3-2.8 1.3 0 2.3 1.3 2.3 2.8 0 1.6-1 2.9-2.3 2.9zm1.2-2.9c0-1.3-0.5-1.9-1.3-1.9-0.7 0-1.2 0.6-1.2 1.9 0 1.4 0.5 2 1.2 2 0.8 0 1.3-0.6 1.3-2z"/>
			<path id="Layer" class="s10" d="m310.8 308.9c0 1-0.7 1.8-2.2 1.8q-0.3 0-0.6-0.1-0.2 0-0.5-0.1-0.3-0.1-0.5-0.2-0.3-0.1-0.5-0.3l0.5-0.8q0.1 0.2 0.3 0.3 0.2 0.1 0.4 0.1 0.2 0.1 0.4 0.1 0.3 0.1 0.5 0.1c0.7 0 1.2-0.4 1.2-0.9 0-0.5-0.4-0.8-1.5-0.8h-1.3l0.2-3h3.3v0.8h-2.4l-0.1 1.3h0.5c1.7 0 2.3 0.7 2.3 1.7z"/>
		</g>
		<path id="Layer" class="s8" d="m209.1 306.3h-37.1q-0.3 0-0.6-0.1-0.2-0.1-0.4-0.3-0.2-0.2-0.3-0.4-0.1-0.3-0.1-0.6 0-0.3 0.1-0.5 0.1-0.3 0.3-0.5 0.2-0.2 0.4-0.3 0.3-0.1 0.6-0.1h37.1q0.3 0 0.5 0.1 0.3 0.1 0.5 0.3 0.2 0.2 0.3 0.5 0.1 0.2 0.1 0.5 0 0.3-0.1 0.6-0.1 0.2-0.3 0.4-0.2 0.2-0.5 0.3-0.2 0.1-0.5 0.1z"/>
		<path id="Layer" class="s8" d="m192.5 313h-20.5q-0.3 0-0.6-0.1-0.2-0.1-0.4-0.3-0.2-0.2-0.3-0.5-0.1-0.2-0.1-0.5 0-0.3 0.1-0.5 0.1-0.3 0.3-0.5 0.2-0.2 0.4-0.3 0.3-0.1 0.6-0.1h20.5q0.3 0 0.5 0.1 0.3 0.1 0.5 0.3 0.2 0.2 0.3 0.5 0.1 0.2 0.1 0.5 0 0.3-0.1 0.5-0.1 0.3-0.3 0.5-0.2 0.2-0.5 0.3-0.2 0.1-0.5 0.1z"/>
		<path id="Layer" class="s3" d="m160.4 333c0-1.6 1.4-3 3-3h153.5c1.7 0 3 1.4 3 3v19.3c0 1.6-1.3 3-3 3h-153.5c-1.6 0-3-1.4-3-3z"/>
		<g id="Layer" style="opacity: .7">
			<path id="Layer" class="s10" d="m277.5 342.4h2.2v0.8h-2.2z"/>
			<path id="Layer" fill-rule="evenodd" class="s10" d="m285.1 345v0.9h-0.6v-0.9q-0.3 0-0.6 0-0.2-0.1-0.5-0.1-0.2-0.1-0.4-0.2-0.3-0.2-0.5-0.3l0.4-0.8q0.2 0.1 0.3 0.2 0.2 0.1 0.4 0.2 0.2 0.1 0.4 0.1 0.3 0.1 0.5 0.1v-1.6c-0.9-0.2-1.9-0.5-1.9-1.6 0-0.8 0.6-1.5 1.9-1.6v-0.9h0.6v0.9q0.2 0 0.4 0 0.2 0.1 0.4 0.1 0.2 0.1 0.4 0.2 0.2 0.1 0.4 0.2l-0.2 0.8q-0.2-0.1-0.3-0.1-0.2-0.1-0.4-0.2-0.1 0-0.3-0.1-0.2 0-0.3 0v1.6c0.9 0.2 1.8 0.5 1.8 1.6-0.1 0.8-0.7 1.4-1.9 1.5zm-0.6-3.4v-1.3c-0.6 0-0.8 0.3-0.8 0.7 0 0.3 0.3 0.5 0.8 0.6zm1.4 1.9c0-0.4-0.3-0.6-0.8-0.7v1.4c0.6-0.1 0.8-0.4 0.8-0.7z"/>
			<path id="Layer" class="s10" d="m293.8 343.3c0 0.9-0.7 1.8-2.2 1.8q-0.3 0-0.6-0.1-0.3 0-0.5-0.1-0.3-0.1-0.5-0.2-0.3-0.1-0.5-0.3l0.4-0.8q0.2 0.1 0.4 0.2 0.2 0.1 0.4 0.2 0.2 0.1 0.4 0.1 0.2 0.1 0.5 0.1c0.7 0 1.1-0.4 1.1-0.9 0-0.5-0.3-0.8-1.4-0.8h-1.4l0.3-3.1h3.2v0.9h-2.3l-0.2 1.3h0.6c1.6 0 2.3 0.7 2.3 1.7z"/>
			<path id="Layer" class="s10" d="m298.3 343.3c0 0.9-0.7 1.8-2.2 1.8q-0.3 0-0.5-0.1-0.3 0-0.6-0.1-0.2-0.1-0.5-0.2-0.2-0.1-0.5-0.3l0.5-0.8q0.2 0.1 0.4 0.2 0.1 0.1 0.4 0.2 0.2 0.1 0.4 0.1 0.2 0.1 0.4 0.1c0.7 0 1.2-0.4 1.2-0.9 0-0.5-0.4-0.8-1.5-0.8h-1.3l0.3-3.1h3.2v0.9h-2.4l-0.1 1.3h0.5c1.7 0 2.3 0.7 2.3 1.7z"/>
			<path id="Layer" class="s10" d="m300.2 344.4q0 0.1 0 0.1-0.1 0.1-0.1 0.2 0 0.1 0 0.2-0.1 0.1-0.1 0.2l-0.4 1.1h-0.6l0.3-1.2q-0.1-0.1-0.2-0.1-0.1-0.1-0.1-0.2-0.1-0.1-0.1-0.1 0-0.1 0-0.2 0-0.2 0-0.3 0.1-0.1 0.2-0.2 0.1-0.1 0.2-0.1 0.1-0.1 0.2-0.1 0.2 0 0.3 0.1 0.1 0 0.2 0.1 0.1 0.1 0.1 0.2 0.1 0.1 0.1 0.3z"/>
			<path id="Layer" class="s10" d="m305.7 343.7h-1v1.3h-1v-1.3h-3v-0.7l2.7-3.6h1.1l-2.6 3.4h1.8v-1.1h1v1.1h1z"/>
			<path id="Layer" fill-rule="evenodd" class="s10" d="m310.7 343.4c0 1-0.9 1.7-2.3 1.7-1.3 0-2.2-0.7-2.2-1.7q0-0.2 0-0.4 0.1-0.2 0.2-0.4 0.1-0.2 0.3-0.3 0.2-0.2 0.4-0.2-0.2-0.1-0.3-0.2-0.2-0.2-0.2-0.3-0.1-0.2-0.2-0.4 0-0.1 0-0.3c0-1 0.8-1.6 2-1.6 1.3 0 2.1 0.6 2.1 1.6q0 0.2 0 0.3-0.1 0.2-0.2 0.4-0.1 0.1-0.2 0.3-0.1 0.1-0.3 0.2 0.2 0 0.4 0.2 0.1 0.1 0.3 0.3 0.1 0.2 0.1 0.4 0.1 0.2 0.1 0.4zm-1 0q0 0 0 0 0 0 0 0zm-1.2-0.9c-0.7 0-1.2 0.4-1.2 0.9 0 0.5 0.5 0.9 1.2 0.9 0.7 0 1.2-0.4 1.2-0.9 0-0.5-0.5-0.9-1.2-0.9zm-1.1-1.5c0 0.5 0.4 0.8 1 0.8 0.7 0 1.1-0.3 1.1-0.8 0-0.4-0.4-0.7-1.1-0.7-0.6 0-1 0.2-1 0.7z"/>
		</g>
		<path id="Layer" class="s8" d="m209.1 340.7h-37.1q-0.3 0-0.6-0.1-0.2-0.1-0.4-0.3-0.2-0.2-0.3-0.5-0.1-0.2-0.1-0.5 0-0.3 0.1-0.5 0.1-0.3 0.3-0.5 0.2-0.2 0.4-0.3 0.3-0.1 0.6-0.1h37.1q0.3 0 0.5 0.1 0.3 0.1 0.5 0.3 0.2 0.2 0.3 0.5 0.1 0.2 0.1 0.5 0 0.3-0.1 0.5-0.1 0.3-0.3 0.5-0.2 0.2-0.5 0.3-0.2 0.1-0.5 0.1z"/>
		<path id="Layer" class="s8" d="m192.5 347.4h-20.5q-0.3 0-0.6-0.1-0.2-0.1-0.4-0.3-0.2-0.2-0.3-0.5-0.1-0.2-0.1-0.5 0-0.3 0.1-0.6 0.1-0.2 0.3-0.4 0.2-0.2 0.4-0.3 0.3-0.1 0.6-0.1h20.5q0.3 0 0.5 0.1 0.3 0.1 0.5 0.3 0.2 0.2 0.3 0.5 0.1 0.2 0.1 0.5 0 0.3-0.1 0.5-0.1 0.3-0.3 0.5-0.2 0.2-0.5 0.3-0.2 0.1-0.5 0.1z"/>
		<path id="Layer" class="s3" d="m160.4 367.4c0-1.6 1.4-3 3-3h153.5c1.7 0 3 1.4 3 3v19.3c0 1.6-1.3 3-3 3h-153.5c-1.6 0-3-1.4-3-3z"/>
		<g id="Layer" style="opacity: .7">
			<path id="Layer" class="s10" d="m281.1 377h-1.4v1.4h-0.8v-1.4h-1.4v-0.8h1.4v-1.4h0.8v1.4h1.4z"/>
			<path id="Layer" fill-rule="evenodd" class="s10" d="m286.6 379.4v0.9h-0.6v-0.9q-0.3 0-0.5 0-0.3-0.1-0.5-0.2-0.3 0-0.5-0.2-0.2-0.1-0.4-0.2l0.3-0.8q0.2 0.1 0.4 0.2 0.2 0.1 0.4 0.2 0.2 0.1 0.4 0.1 0.2 0.1 0.4 0.1v-1.6c-0.9-0.2-1.8-0.5-1.8-1.6 0-0.8 0.6-1.5 1.8-1.6v-0.9h0.6v0.9q0.3 0 0.5 0 0.2 0 0.4 0.1 0.2 0.1 0.4 0.1 0.2 0.1 0.3 0.2l-0.3 0.8q-0.1 0-0.3-0.1-0.1-0.1-0.3-0.1-0.2-0.1-0.3-0.1-0.2-0.1-0.4-0.1v1.6c0.9 0.2 1.9 0.5 1.9 1.6 0 0.9-0.6 1.5-1.9 1.6zm-0.6-3.4v-1.4c-0.6 0.1-0.8 0.4-0.8 0.8 0 0.3 0.3 0.5 0.8 0.6zm1.5 1.9c0-0.4-0.4-0.6-0.9-0.7v1.4c0.6-0.1 0.9-0.4 0.9-0.7z"/>
			<path id="Layer" class="s10" d="m293.2 373.8v5.6h-1v-4.7h-1.2v-0.9z"/>
			<path id="Layer" fill-rule="evenodd" class="s10" d="m298.8 377.8c0 1-0.9 1.6-2.3 1.6-1.4 0-2.3-0.6-2.3-1.6q0-0.2 0.1-0.5 0.1-0.2 0.2-0.3 0.1-0.2 0.3-0.3 0.1-0.2 0.3-0.3-0.1 0-0.3-0.2-0.1-0.1-0.2-0.2-0.1-0.2-0.1-0.4-0.1-0.2-0.1-0.3c0-1 0.9-1.6 2.1-1.6 1.2 0 2.1 0.6 2.1 1.6q0 0.1-0.1 0.3 0 0.2-0.1 0.4-0.1 0.1-0.2 0.2-0.2 0.2-0.3 0.2 0.2 0.1 0.3 0.3 0.2 0.1 0.3 0.3 0.1 0.1 0.2 0.3 0.1 0.3 0.1 0.5zm-1.1-0.1q0 0 0 0.1 0 0 0 0zm-1.2-0.9c-0.7 0-1.2 0.3-1.2 0.9 0 0.5 0.5 0.9 1.2 0.9 0.8 0 1.2-0.4 1.2-0.9 0-0.6-0.5-0.9-1.2-0.9zm-1-1.5c0 0.5 0.3 0.8 1 0.8 0.6 0 1.1-0.3 1.1-0.8 0-0.5-0.5-0.8-1.1-0.8-0.7 0-1 0.3-1 0.8z"/>
			<path id="Layer" class="s10" d="m300.8 378.7q-0.1 0.1-0.1 0.2 0 0.1 0 0.2 0 0.1-0.1 0.2 0 0.1 0 0.1l-0.4 1.1h-0.7l0.3-1.1q-0.1-0.1-0.1-0.1-0.1-0.1-0.2-0.2 0-0.1 0-0.2-0.1 0-0.1-0.1 0-0.3 0.2-0.5 0.2-0.2 0.5-0.2 0.2 0 0.4 0.2 0.2 0.2 0.2 0.5z"/>
			<path id="Layer" class="s10" d="m305.5 378.5v0.9h-4.1v-0.7l2.2-2.1c0.6-0.5 0.7-0.9 0.7-1.2 0-0.5-0.4-0.8-1.1-0.8q-0.2 0-0.3 0-0.2 0-0.4 0.1-0.2 0.1-0.3 0.2-0.2 0.1-0.3 0.3l-0.7-0.6q0.2-0.2 0.4-0.4 0.3-0.2 0.6-0.3 0.2-0.1 0.5-0.2 0.3 0 0.6 0c1.2 0 2 0.6 2 1.6q0 0.2-0.1 0.5 0 0.2-0.2 0.5-0.1 0.2-0.3 0.4-0.1 0.2-0.3 0.3l-1.5 1.4z"/>
			<path id="Layer" fill-rule="evenodd" class="s10" d="m308.4 379.4c-1.3 0-2.3-1.2-2.3-2.8 0-1.6 1-2.8 2.3-2.8 1.2 0 2.3 1.2 2.3 2.8 0 1.6-1.1 2.8-2.3 2.8zm1.2-2.8c0-1.3-0.5-2-1.3-2-0.7 0-1.2 0.7-1.2 2 0 1.3 0.5 1.9 1.2 1.9 0.8 0 1.3-0.6 1.3-1.9z"/>
		</g>
		<path id="Layer" class="s8" d="m209.1 375.1h-37.1q-0.3 0-0.6-0.1-0.2-0.1-0.4-0.3-0.2-0.2-0.3-0.5-0.1-0.2-0.1-0.5 0-0.3 0.1-0.6 0.1-0.2 0.3-0.4 0.2-0.2 0.4-0.3 0.3-0.1 0.6-0.1h37.1q0.3 0 0.5 0.1 0.3 0.1 0.5 0.3 0.2 0.2 0.3 0.4 0.1 0.3 0.1 0.6 0 0.3-0.1 0.5-0.1 0.3-0.3 0.5-0.2 0.2-0.5 0.3-0.2 0.1-0.5 0.1z"/>
		<path id="Layer" class="s8" d="m192.5 381.8h-20.5q-0.3 0-0.6-0.1-0.2-0.1-0.4-0.3-0.2-0.2-0.3-0.5-0.1-0.2-0.1-0.5 0-0.3 0.1-0.6 0.1-0.2 0.3-0.4 0.2-0.2 0.4-0.3 0.3-0.1 0.6-0.1h20.5q0.3 0 0.5 0.1 0.3 0.1 0.5 0.3 0.2 0.2 0.3 0.4 0.1 0.3 0.1 0.6 0 0.3-0.1 0.5-0.1 0.3-0.3 0.5-0.2 0.2-0.5 0.3-0.2 0.1-0.5 0.1z"/>
	</g>
	<g id="freepik--speech-bubble--inject-14">
		<path id="Layer" class="s3" d="m70.2 102.1c0-2 1.6-3.6 3.7-3.6h17.6c2 0 3.7 1.6 3.7 3.6v17.7c0 2-1.7 3.7-3.7 3.7h-17.6c-2.1 0-3.7-1.7-3.7-3.7z"/>
		<path id="Layer" class="s9" d="m75.8 106c1.8-2.8 5.2-1.7 6.9 0.5 1.7-2.2 5.1-3.3 6.9-0.5 3 4.9-3.2 9.4-6.1 11.1l-0.8 0.5q-0.3-0.2-0.8-0.5c-2.9-1.7-9.1-6.2-6.1-11.1z"/>
		<path id="Layer" class="s3" d="m80 121.5c0 0 3.3 7.5 10.7 9.9 0 0-4.1-2.4-3.8-10.2z"/>
	</g>
	<g id="freepik--Character--inject-14">
		<g id="freepik--group--inject-14">
			<path id="Layer" class="s7" d="m73 171q0.1 0.2 0 0.4-0.1 0.2-0.2 0.4-0.2 0.1-0.4 0.2-0.2 0.1-0.4 0l-10.8-0.2q-0.2 0-0.4-0.1-0.2-0.1-0.4-0.3-0.2-0.1-0.3-0.3-0.1-0.2-0.1-0.5l-1.8-21.4q-0.1-0.2 0-0.4 0.1-0.2 0.2-0.4 0.2-0.2 0.4-0.3 0.2-0.1 0.4-0.1l10.8 0.3q0.2 0 0.4 0.1 0.3 0.2 0.4 0.3 0.2 0.2 0.3 0.4 0.1 0.2 0.1 0.5z"/>
			<path id="Layer" class="s11" d="m70 149.4l1.9 21.6q0 0.2 0 0.4-0.1 0.2-0.2 0.4-0.2 0.1-0.3 0.2-0.2 0-0.4 0l-9.2-0.2c-0.6 0-1.7-0.4-1.8-1l-1.9-21.7c0-0.7 1.1-1.1 1.7-1.1l9.2 0.3q0.2 0 0.4 0.1 0.2 0 0.3 0.2 0.2 0.2 0.2 0.4 0.1 0.2 0.1 0.4z"/>
			<path id="Layer" class="s12" d="m66.3 176.9l-1.3-4.2q0.2-0.6 0.4-1.1 0.2-0.6 0.4-1.2 0.1-0.6 0.2-1.1 0.2-0.6 0.3-1.2c0.1-1.4-3.7-12.4-3.7-12.4 0 0-4.1 3.2-6.5 4.9-2.5 1.6 1.4 12.2 2.1 12.5 0.6 0.3 1.8 1 1.8 1l0.8 3.4z"/>
			<path id="Layer" class="s3" d="m59.5 180.8c1.3 4.9 6.8 24.7 13.3 27.4 1.8 0.7 3.8 0.2 6-0.9 7.1-3.6 15.1-14.8 15.1-14.8l-1.6-8.1-1.5-7.5c-5.9 2.9-12.7 17.2-14.6 17.1-1.6-0.1-5.5-12.3-6.7-16q-0.1-0.3-0.2-0.4-0.2-0.2-0.4-0.3-0.2-0.1-0.4-0.1-0.2-0.1-0.4 0l-7.7 2.2q-0.2 0-0.4 0.2-0.2 0.1-0.3 0.3-0.2 0.2-0.2 0.4 0 0.2 0 0.5z"/>
			<path id="Layer" class="s3" d="m66.8 174.6l0.6 2.8-7.1 2-0.8-3 7.3-1.8z"/>
			<path id="Layer" class="s5" d="m66.8 174.6l0.6 2.8-7.1 2-0.8-3 7.3-1.8z"/>
			<path id="Layer" class="s5" d="m78.7 207.3c7.1-3.6 15.2-14.8 15.2-14.8l-1.6-8.1c-3.7 3.4-12.4 12.5-13.6 22.9z"/>
			<path id="Layer" class="s7" d="m132.6 328.7l-0.1-10.4q0-0.1 0.1-0.2 0-0.1 0.1-0.2 0.1-0.1 0.2-0.2 0.1-0.1 0.2-0.1l7.6-1.7q0.2-0.1 0.5 0 0.2 0 0.4 0.2 0.2 0.1 0.4 0.3 0.1 0.2 0.2 0.5 0 0 0 0 0 0.1 0 0.1 0 0 0 0.1 0 0 0 0c0 3.4-0.2 5.8-0.2 10 0 2.6 0.3 10.4 0.3 14 0 3.6-3.5 4.1-3.8 2.6-1.5-6.5-3.5-11.5-5.4-13.6q-0.1-0.1-0.2-0.3-0.1-0.2-0.2-0.3-0.1-0.2-0.1-0.4 0-0.2 0-0.4z"/>
			<path id="Layer" class="s7" d="m86.3 233.4l-3.3 17.5c0 0-26.4 42.8-26.4 67.5 0 29.5 77 12.5 77 12.5v-13.6c0 0-46 3.9-50.2-0.7-5-5.6 26-48.9 26-48.9z"/>
			<path id="Layer" class="s13" d="m56.6 318.4c0 16.2 23.4 18.4 44.4 17q3.9-0.3 7.8-0.7 3.9-0.4 7.8-0.9 3.9-0.6 7.8-1.2 3.9-0.7 7.7-1.4c0.9-0.2 1.5-0.3 1.5-0.3v-13.6l-1.7 0.1c-5.3 0.4-21.5 1.6-33.9 1.4-7.3-0.1-13.2-0.7-14.6-2.2-2.5-2.7 3.8-14.6 10.8-26 7.2-11.7 15.2-22.9 15.2-22.9l-10.1-15.1-12.9-19.2-3.4 17.5c0 0-26.4 42.8-26.4 67.5z"/>
			<path id="Layer" class="s5" d="m98 318.8l3 16.6q3.9-0.3 7.8-0.7 3.9-0.4 7.8-0.9 3.9-0.5 7.8-1.2 3.9-0.6 7.7-1.4l-0.2-13.8c-5.3 0.4-21.5 1.6-33.9 1.4z"/>
			<path id="Layer" class="s5" d="m99.3 271.4c0 0-4.3 10.1-5.1 19.2 7.2-11.7 15.2-22.9 15.2-22.9l-10.1-15.1-5.3-1.7c0 0-1.2 6.9 5.3 20.5z"/>
			<path id="Layer" class="s7" d="m106.1 419.9h10.4q0.1 0 0.2 0 0.2 0.1 0.3 0.1 0.1 0.1 0.1 0.2 0.1 0.1 0.1 0.3l1.7 7.6q0 0.2 0 0.4 0 0.3-0.2 0.5-0.1 0.2-0.3 0.3-0.2 0.2-0.5 0.2 0 0 0 0-0.1 0-0.1 0 0 0-0.1 0 0 0-0.1 0c-3.3 0-5.7-0.2-9.9-0.2-2.6 0-10.5 0.3-14 0.3-3.6 0-4.1-3.6-2.6-3.9 6.6-1.4 11.5-3.4 13.6-5.3q0.1-0.1 0.3-0.2 0.2-0.1 0.4-0.2 0.2-0.1 0.3-0.1 0.2 0 0.4 0z"/>
			<path id="Layer" class="s7" d="m132.5 233.9c0 0 2.3 8.6 0 48-3.6 60.4-14.8 140.9-14.8 140.9l-13-2.4c0 0 1.7-120.4-0.1-153.6 0 0-18.4-16.5-18.3-33.4 0.2-17 46.2 0.5 46.2 0.5z"/>
			<path id="Layer" class="s13" d="m132.5 233.9c0 0 2.3 8.6 0 48-3.6 60.4-14.8 140.9-14.8 140.9l-13-2.4c0 0 1.7-120.4-0.1-153.6 0 0-18.4-16.5-18.3-33.4 0.2-17 46.2 0.5 46.2 0.5z"/>
			<path id="Layer" class="s3" d="m85.4 232.2q0 0.3 0.1 0.6 0.1 0.3 0.3 0.5 0.2 0.2 0.5 0.4 0.3 0.1 0.6 0.1l42.9 0.9 3.1 0.1q0.3 0 0.5-0.1 0.3-0.1 0.5-0.3 0.3-0.2 0.4-0.5 0.1-0.2 0.1-0.5l0.9-11.3 0.5-6.1 2.2-29 0.4-6.1c-21-15.7-47.6-4-47.6-4-4.8 15.1-5.4 47.1-5.4 55.3z"/>
			<path id="Layer" class="s3" d="m133.7 234.6l-48-1.5-0.6 2.9 48.6 1.6v-3z"/>
			<path id="Layer" class="s5" d="m133.7 234.6l-48-1.5-0.6 2.9 48.6 1.6v-3z"/>
			<path id="Layer" class="s5" d="m135.8 216l2.2-29q-0.5 0.2-1 0.4-0.5 0.2-0.9 0.4-0.5 0.3-0.9 0.6-0.4 0.3-0.8 0.6c-0.2 0.2-7.5 11.7 1.4 27z"/>
			<path id="Layer" class="s5" d="m129.8 234.7l3.1 0.1q0.3 0 0.5-0.1 0.3-0.1 0.5-0.3 0.3-0.2 0.4-0.5 0.1-0.2 0.1-0.5l0.9-11.3q-0.8 1.5-1.5 3.1-0.8 1.5-1.4 3.1-0.7 1.6-1.4 3.2-0.6 1.6-1.2 3.2z"/>
			<g id="Layer" style="opacity: .7">
				<path id="Layer" class="s10" d="m90.3 200.2l0.5-1.4q0.3 0.2 0.6 0.3 0.3 0.2 0.6 0.2 0.3 0.1 0.6 0.2 0.3 0 0.6 0c1 0 1.4-0.4 1.3-0.9 0-1.5-4 0.1-4.2-2.9 0-1.5 1.1-2.4 2.8-2.5q0.3-0.1 0.7 0 0.3 0 0.6 0.1 0.3 0 0.6 0.1 0.3 0.1 0.6 0.3l-0.5 1.4q-0.2-0.2-0.5-0.3-0.2-0.1-0.4-0.1-0.3-0.1-0.5-0.1-0.3 0-0.5 0c-1 0-1.4 0.4-1.4 0.9 0.1 1.5 4.1 0 4.2 3 0.1 1.4-1 2.3-2.8 2.4q-0.4 0.1-0.8 0-0.4 0-0.7-0.1-0.4-0.1-0.7-0.2-0.4-0.2-0.7-0.4z"/>
			</g>
			<path id="Layer" class="s12" d="m123.7 176.5c-4.2 3.8-14.3 2.4-14.3 2.4 0 0-6.3-1.8-5-3.7 3.8-0.7 5.6-2.4 6.3-4.6q0.2-0.5 0.3-1.1 0.1-0.5 0.1-1 0.1-0.6 0-1.1 0-0.5 0-1.1 0-0.3-0.1-0.6 0-0.3 0-0.6-0.1-0.3-0.1-0.5-0.1-0.3-0.1-0.6l12.5-9.3c-1.6 6.1-3.7 17.4 0.4 21.8z"/>
			<path id="Layer" class="s5" d="m120.4 160.6c-0.5 7.5-6.7 9.6-9.7 10q0.1-0.5 0.2-1.1 0.1-0.5 0.2-1 0-0.6 0-1.1 0-0.5 0-1.1z"/>
			<path id="Layer" class="s7" d="m127.4 135.2c0 0 3.5 11.3-1.9 16.7-5.5 5.4-8.7-16.2-8.7-16.2z"/>
			<path id="Layer" class="s12" d="m109 163.7q1.2 1.3 2.7 2.2 1.6 0.8 3.3 1.1 1.7 0.3 3.4 0 1.7-0.2 3.3-1 1-0.5 1.9-1.2 0.8-0.6 1.6-1.4 0.7-0.9 1.3-1.8 0.6-1 1-2 0.2-0.6 0.4-1.2c2-7.5 1.1-20-7.1-23.5-1.4-0.6-2.9-1-4.4-1-1.5 0-3 0.2-4.4 0.8-1.4 0.5-2.7 1.4-3.8 2.4-1.1 1.1-1.9 2.3-2.5 3.7q-0.3 0.6-0.5 1.3-0.2 0.6-0.3 1.3-0.1 0.6-0.2 1.3 0 0.7 0 1.4c0.4 8.3 0.2 13.3 4.3 17.6z"/>
			<path id="Layer" class="s7" d="m117.4 148.6c0 0.7 0.4 1.3 0.8 1.3 0.5 0 0.8-0.5 0.9-1.2 0-0.6-0.4-1.2-0.8-1.2-0.5 0-0.8 0.4-0.9 1.1z"/>
			<path id="Layer" class="s7" d="m125.2 148.8c0 0.7 0.4 1.2 0.8 1.3 0.4 0 0.8-0.6 0.8-1.2 0.1-0.7-0.3-1.3-0.8-1.3-0.4 0-0.8 0.5-0.8 1.2z"/>
			<path id="Layer" class="s14" d="m122.7 149.1q0.3 0.8 0.6 1.5 0.4 0.8 0.8 1.6 0.4 0.7 0.8 1.4 0.5 0.7 1 1.4-0.4 0.3-0.8 0.4-0.4 0.2-0.8 0.3-0.5 0-0.9 0-0.4 0-0.8-0.1z"/>
			<path id="Layer" class="s7" d="m115.1 146.1q0.1 0 0.1 0 0.1 0 0.1 0 0.1-0.1 0.1-0.1 0.1 0 0.1-0.1 0.2-0.3 0.5-0.5 0.3-0.2 0.6-0.4 0.4-0.2 0.7-0.3 0.4-0.1 0.8-0.1 0.1 0 0.2-0.1 0.2-0.1 0.2-0.2 0-0.2-0.1-0.3-0.1-0.1-0.2-0.1-0.5-0.1-1 0-0.5 0.1-0.9 0.3-0.4 0.3-0.8 0.6-0.4 0.3-0.6 0.6-0.1 0.1-0.1 0.2-0.1 0-0.1 0.1 0 0.1 0.1 0.2 0 0 0.1 0.1 0 0 0 0 0 0 0.1 0.1 0 0 0 0 0.1 0 0.1 0z"/>
			<path id="Layer" class="s7" d="m128.5 146.2q0.1 0 0.1 0 0 0 0.1 0 0 0 0 0 0.1 0 0.1 0 0.1 0 0.1-0.1 0.1 0 0.1-0.1 0-0.1 0-0.2 0-0.1 0-0.1-0.2-0.5-0.5-0.9-0.3-0.4-0.6-0.7-0.4-0.3-0.8-0.5-0.5-0.2-1-0.3 0 0-0.1 0-0.1 0-0.1 0.1-0.1 0-0.2 0.1 0 0.1 0 0.1 0 0.1 0 0.2 0 0.1 0.1 0.1 0 0.1 0.1 0.1 0.1 0.1 0.1 0.1 0.4 0.1 0.7 0.3 0.4 0.1 0.7 0.4 0.3 0.2 0.5 0.5 0.2 0.3 0.4 0.7 0 0 0 0 0 0.1 0.1 0.1 0 0 0.1 0.1 0 0 0 0z"/>
			<path id="Layer" class="s7" d="m111.1 135.7l0.6 3.7q-0.5 0.2-0.9 0.6-0.3 0.4-0.5 0.9-0.2 0.5-0.1 1 0 0.5 0.2 1c1.3 3.1-0.4 8-2.7 10 0 0-0.1-1.4-1.2-1-1.1 0.3-0.6 7.4 1.7 10.7q-1.1-1.2-2.1-2.5-0.9-1.2-1.7-2.6-0.7-1.4-1.3-2.9-0.6-1.4-1-3c-2-6.7-1.8-11.8-0.4-14.4z"/>
			<path id="Layer" class="s12" d="m100.9 152.9q0.4 0.7 0.8 1.3 0.5 0.6 1.1 1.2 0.6 0.5 1.2 0.9 0.7 0.4 1.4 0.7c2.7 0.9 4.2-1.4 3.6-4-0.5-2.3-2.5-5.6-5.2-5.4q-0.9 0-1.7 0.5-0.8 0.5-1.2 1.3-0.4 0.8-0.4 1.7 0 1 0.4 1.8z"/>
			<path id="Layer" class="s7" d="m121.7 158q-0.4 0.3-0.7 0.7-0.3 0.4-0.6 0.7-0.4 0.4-0.7 0.7-0.2 0.4-0.5 0.8l-0.6-0.3c-2.7-1.4-3.5-3-3.6-4.3q0-0.2 0-0.4 0.1-0.3 0.1-0.5 0.1-0.2 0.1-0.5 0.1-0.2 0.2-0.4 0.1-0.1 0.1-0.2 0.1-0.1 0.2-0.3 0-0.1 0.1-0.2 0.1-0.1 0.2-0.2 0.5 0.6 1 1.2 0.6 0.5 1.2 1 0.6 0.5 1.2 0.9 0.7 0.5 1.3 0.8c0.6 0.3 1 0.5 1 0.5z"/>
			<path id="Layer" class="s10" d="m120.7 157.5l-0.8 0.8c-2.5-1.3-4.1-2.6-4.5-3.8q0.1-0.1 0.1-0.2 0.1-0.1 0.2-0.3 0-0.1 0.1-0.2 0.1-0.1 0.2-0.2 0.5 0.6 1 1.2 0.5 0.5 1.1 1 0.6 0.5 1.3 0.9 0.6 0.5 1.3 0.8z"/>
			<path id="Layer" class="s14" d="m118.5 160.6c-2.7-1.4-3.4-3-3.5-4.3q0.3 0.2 0.7 0.5 0.4 0.2 0.7 0.5 0.3 0.3 0.7 0.6 0.3 0.3 0.5 0.6 0.2 0.2 0.4 0.5 0.1 0.2 0.3 0.5 0.1 0.2 0.1 0.5 0.1 0.3 0.1 0.6z"/>
			<path id="Layer" class="s7" d="m100.6 142.7q-0.2-1.4-0.1-2.9 0.2-1.5 0.7-2.9 0.6-1.3 1.5-2.5 0.9-1.2 2-2.1c5.5-4.6 21-6.8 23.4 0 2.3 6.8-9.1 13-17.4 7z"/>
			<path id="Layer" class="s3" d="m122.2 170.8l-12 5.4-0.7-4.3-4.4 1.6q-0.6 0.2-1.1 0.6-0.5 0.3-0.8 0.9-0.3 0.5-0.4 1.1-0.2 0.6-0.1 1.2l0.5 4.7 6.1-3.3 3 4.3 14.5-7z"/>
			<path id="Layer" class="s8" d="m122.2 170.8l-12 5.4-0.7-4.3-4.4 1.6q-0.6 0.2-1.1 0.6-0.5 0.3-0.8 0.9-0.3 0.5-0.4 1.1-0.2 0.6-0.1 1.2l0.5 4.7 6.1-3.3 3 4.3 14.5-7z"/>
			<path id="Layer" class="s5" d="m124.2 237.6c0 0 0.2 6.4 8.5 9.1q0.1-1.1 0.1-2.3 0.1-1.2 0-2.3-0.1-1.2-0.3-2.3-0.2-1.2-0.4-2.3z"/>
			<path id="Layer" class="s3" d="m138.4 180.9c7.4 7.1 18.3 29.9 15.1 39.7-2.8 8.4-15.6 21-19.4 24.6q-0.2 0.2-0.5 0.3-0.2 0.1-0.5 0.1-0.3 0-0.6-0.2-0.2-0.1-0.4-0.3l-4.6-5q-0.2-0.2-0.3-0.4 0-0.2-0.1-0.5 0-0.2 0.1-0.5 0.1-0.2 0.2-0.4c3-3.9 14.2-18.9 14.9-21.9 0.9-3.6-8.6-17.4-8.6-17.4q-0.4-1.4-0.5-3-0.2-1.5-0.2-3 0-1.5 0.1-3.1 0.1-1.5 0.4-3c1.3-6.1 4.9-6 4.9-6z"/>
			<path id="Layer" class="s3" d="m127.2 239.5l-1.7 1.8c0 0 2.6 3.9 5.7 4.7l0.9-0.8z"/>
			<path id="Layer" class="s5" d="m127.2 239.5l-1.7 1.8c0 0 2.6 3.9 5.7 4.7l0.9-0.8z"/>
		</g>
	</g>
</svg>