<svg version="1.2" xmlns="http://www.w3.org/2000/svg" viewBox="0 0 850 700" width="850" height="700">
	<title>138219242_10147721-ai</title>
	<style>
		.s0 { fill: #a3bc75 } 
		.s1 { opacity: .7;mix-blend-mode: multiply;fill: #e2dbd3 } 
		.s2 { fill: #424242 } 
		.s3 { fill: #ffffff } 
		.s4 { fill: #0076cd } 
		.s5 { fill: #f3cc0d } 
		.s6 { fill: #706a6d } 
		.s7 { opacity: .6;mix-blend-mode: multiply;fill: #424242 } 
		.s8 { opacity: .3;fill: #706a6d } 
		.s9 { fill: #595959 } 
		.s10 { fill: #ffb340 } 
		.s11 { opacity: .3;mix-blend-mode: overlay;fill: #ffffff } 
		.s12 { fill: #a7704d } 
		.s13 { fill: #ffc8b9 } 
		.s14 { fill: #c38e5a } 
		.s15 { fill: none;stroke: #ffffff;stroke-linecap: round;stroke-miterlimit:10;stroke-width: 3 } 
		.s16 { fill: #4d484a } 
		.s17 { opacity: .7;fill: #4d484a } 
		.s18 { fill: #e99781 } 
		.s19 { fill: #ffccc6 } 
		.s20 { fill: #6b2b2b } 
		.s21 { fill: #e97272 } 
		.s22 { fill: #461930 } 
		.s23 { opacity: .6;mix-blend-mode: multiply;fill: #525252 } 
		.s24 { fill: #e98679 } 
		.s25 { opacity: .5;fill: #ffffff } 
		.s26 { opacity: .5;fill: #a7704d } 
	</style>
	<g id="BACKGROUND">
	</g>
	<g id="OBJECTS">
		<g id="&lt;Group&gt;">
			<path id="&lt;Path&gt;" class="s0" d="m130.8 530.7c-3.7-59.8 18.7-101.3 21.5-96.5 2.9 4.8-5.4 65.3-17 96.5z"/>
			<path id="&lt;Path&gt;" class="s0" d="m128.2 529.4c-9.4-65.4-46-97.2-46.3-91.7-0.3 5.5 15.6 67.6 42.6 91.7z"/>
			<path id="&lt;Path&gt;" class="s0" d="m139.1 527.9c12.4-42.7 34.8-60.5 40.2-62.4-6.8 32.4-38 62.4-38 62.4z"/>
		</g>
		<path id="&lt;Path&gt;" class="s1" d="m843 649.2c0 17.6-170.9 31.9-381.7 31.9-210.8 0-381.7-14.3-381.7-31.9 0-17.6 170.9-31.9 381.7-31.9 210.8 0 381.7 14.3 381.7 31.9z"/>
		<g id="&lt;Group&gt;">
			<g id="&lt;Group&gt;">
				<path id="&lt;Path&gt;" class="s2" d="m186.3 467v-8c9.7 0 16.9-2.3 21.5-6.9 7.5-7.6 7.4-20.5 7.4-30v-2-224.2h8v226.2c0 10.8 0.1 25.7-9.7 35.6-6.2 6.2-15.3 9.3-27.2 9.3z"/>
			</g>
			<path id="&lt;Path&gt;" class="s2" d="m215 215.2h-23.7v-83.2h23.7c4.5 4.5 7 7.1 11.5 11.6v60.1c-4.5 4.5-7 7-11.5 11.5z"/>
			<path id="&lt;Path&gt;" class="s3" d="m208.9 321.9v-232c0-3.8-1.5-7.4-4.1-10l-14.7-14.7-11.9-11.9c-2.6-2.6-6.2-4.1-10-4.1h-115c-3.7 0-7.3 1.5-9.9 4.1l-13.4 13.4-13.2 13.2c-2.6 2.6-4.1 6.2-4.1 10v232l98.1 98.2z"/>
			<path id="&lt;Path&gt;" class="s4" d="m110.7 420.1l-98.1-98.2v264.4h196.3v-264.4z"/>
			<path id="&lt;Path&gt;" class="s5" d="m135.8 118.3l-40.8 40.5 6.5-40.5h-15.8l40.8-40.4-6.5 40.4z"/>
			<path id="&lt;Path&gt;" class="s2" d="m173.4 306.8c-8.4 0-15.3-6.9-15.3-15.3v-88.5c0-8.4 6.9-15.3 15.3-15.3 8.4 0 15.3 6.9 15.3 15.3v88.5c0 8.4-6.9 15.3-15.3 15.3z"/>
			<path id="&lt;Path&gt;" class="s6" d="m127.4 275.4h-83.5c-3.3 0-6-2.7-6-6v-57.7c0-3.3 2.7-6 6-6h83.5c3.3 0 6 2.7 6 6v57.7c0 3.3-2.7 6-6 6z"/>
			<path id="&lt;Path&gt;" class="s2" d="m122 228h-72.6c-1.3 0-2.4-1-2.4-2.3v-8.8c0-1.3 1.1-2.4 2.4-2.4h72.6c1.3 0 2.3 1.1 2.3 2.4v8.8c0 1.3-1 2.3-2.3 2.3z"/>
			<path id="&lt;Path&gt;" class="s2" d="m54.3 243.7h-5.5c-1 0-1.8-0.8-1.8-1.7v-5.6c0-0.9 0.8-1.8 1.8-1.8h5.5c1 0 1.8 0.9 1.8 1.8v5.6c0 0.9-0.8 1.7-1.8 1.7z"/>
			<path id="&lt;Path&gt;" class="s2" d="m122.2 252.5h-31.1c-1.1 0-2.1-1-2.1-2.1v-13.7c0-1.1 1-2.1 2.1-2.1h31.1c1.2 0 2.1 1 2.1 2.1v13.7c0 1.1-0.9 2.1-2.1 2.1z"/>
			<path id="&lt;Path&gt;" class="s2" d="m66.1 243.7h-5.5c-1 0-1.8-0.8-1.8-1.7v-5.6c0-0.9 0.8-1.8 1.8-1.8h5.5c1 0 1.8 0.9 1.8 1.8v5.6c0 0.9-0.8 1.7-1.8 1.7z"/>
			<path id="&lt;Path&gt;" class="s2" d="m77.8 243.7h-5.5c-1 0-1.8-0.8-1.8-1.7v-5.6c0-0.9 0.8-1.8 1.8-1.8h5.5c1 0 1.8 0.9 1.8 1.8v5.6c0 0.9-0.8 1.7-1.8 1.7z"/>
			<path id="&lt;Path&gt;" class="s2" d="m54.3 255.2h-5.5c-1 0-1.8-0.8-1.8-1.8v-5.5c0-1 0.8-1.8 1.8-1.8h5.5c1 0 1.8 0.8 1.8 1.8v5.5c0 1-0.8 1.8-1.8 1.8z"/>
			<path id="&lt;Path&gt;" class="s2" d="m66.1 255.2h-5.5c-1 0-1.8-0.8-1.8-1.8v-5.5c0-1 0.8-1.8 1.8-1.8h5.5c1 0 1.8 0.8 1.8 1.8v5.5c0 1-0.8 1.8-1.8 1.8z"/>
			<path id="&lt;Path&gt;" class="s2" d="m77.8 255.2h-5.5c-1 0-1.8-0.8-1.8-1.8v-5.5c0-1 0.8-1.8 1.8-1.8h5.5c1 0 1.8 0.8 1.8 1.8v5.5c0 1-0.8 1.8-1.8 1.8z"/>
			<path id="&lt;Path&gt;" class="s2" d="m54.3 266.6h-5.5c-1 0-1.8-0.8-1.8-1.8v-5.5c0-1 0.8-1.8 1.8-1.8h5.5c1 0 1.8 0.8 1.8 1.8v5.5c0 1-0.8 1.8-1.8 1.8z"/>
			<path id="&lt;Path&gt;" class="s2" d="m66.1 266.6h-5.5c-1 0-1.8-0.8-1.8-1.8v-5.5c0-1 0.8-1.8 1.8-1.8h5.5c1 0 1.8 0.8 1.8 1.8v5.5c0 1-0.8 1.8-1.8 1.8z"/>
			<path id="&lt;Path&gt;" class="s2" d="m77.8 266.6h-5.5c-1 0-1.8-0.8-1.8-1.8v-5.5c0-1 0.8-1.8 1.8-1.8h5.5c1 0 1.8 0.8 1.8 1.8v5.5c0 1-0.8 1.8-1.8 1.8z"/>
		</g>
		<g id="&lt;Group&gt;">
			<g id="&lt;Group&gt;">
				<path id="&lt;Path&gt;" class="s2" d="m324.4 318.5l32.6-52.3c0 0 6-2.8 10.8-2.1 4.8 0.8 27.1 9.9 27.1 9.9l7.6 20.9-14 8.1c0 0-20.3 2.6-23.4 6.8-3.2 4.2-12.1 20.7-12.1 20.7h-28.6z"/>
				<path id="&lt;Path&gt;" class="s7" d="m334.6 302.2l15.3-5.5c3.6-1.3 6-4.8 6-8.6v-20.2z"/>
				<path id="&lt;Path&gt;" class="s2" d="m344.4 255.6l-19.6-12.7c-0.7-0.4-1.5-0.7-2.4-0.7h-17.2c-2.5 0-4.4 2-4.4 4.4v57.5c0 2.4 1.9 4.4 4.4 4.4h17.2c0.9 0 1.7-0.2 2.4-0.7l19.6-12.7c2.2-1.4 3.6-3.8 3.6-6.5v-26.5c0-2.6-1.4-5.1-3.6-6.5z"/>
				<path id="&lt;Path&gt;" class="s7" d="m316.8 308.5h-2.7v-66.3h2.7z"/>
				<path id="&lt;Path&gt;" class="s6" d="m495 586.3h64l63.9-99.6h-89.3z"/>
				<path id="&lt;Path&gt;" class="s2" d="m742.8 565.4c0 48.4-39.2 87.7-87.7 87.7-48.4 0-87.6-39.3-87.6-87.7 0-48.4 39.2-87.6 87.6-87.6 48.5 0 87.7 39.2 87.7 87.6z"/>
				<path id="&lt;Path&gt;" class="s6" d="m703.2 565.4c0 26.6-21.5 48.1-48.1 48.1-26.5 0-48-21.5-48-48.1 0-26.5 21.5-48.1 48-48.1 26.6 0 48.1 21.6 48.1 48.1z"/>
				<path id="&lt;Path&gt;" class="s2" d="m326.8 565.4c0 48.4-39.3 87.7-87.7 87.7-48.4 0-87.6-39.3-87.6-87.7 0-48.4 39.2-87.6 87.6-87.6 48.4 0 87.7 39.2 87.7 87.6z"/>
				<path id="&lt;Path&gt;" class="s6" d="m287.2 565.4c0 26.6-21.5 48.1-48.1 48.1-26.5 0-48.1-21.5-48.1-48.1 0-26.5 21.6-48.1 48.1-48.1 26.6 0 48.1 21.6 48.1 48.1z"/>
				<g id="&lt;Group&gt;">
					<path id="&lt;Path&gt;" class="s3" d="m242.9 572.6h-14.7c-4.8 0-8-5.1-5.8-9.4l41.5-83.3 28.7 14.2-34.5 69.1c-2.8 5.7-8.7 9.4-15.2 9.4z"/>
				</g>
				<path id="&lt;Path&gt;" class="s8" d="m263.1 553.2l29-58.2-1.1-1.7-27.1-13.4-24.7 49.5c7.5 3.5 18.6 17 23.9 23.8z"/>
				<path id="&lt;Path&gt;" class="s3" d="m275.3 457c0 0-30.4-14.5-32.3-14.5-2 0-35 8-44.4 11.4-9.4 3.3-23.5 24.8-27.8 30.9-4.3 6-6.3 16.2 1.7 16.2 8.1 0 42.3 0 48 0 5.6 0 11.7-0.9 20.5 8.7 8.8 9.7 25.3 31.6 28 34.8 2.7 3.3 4.9 4.2 12.1 4.2 7.3 0 32.5 0 32.5 0z"/>
				<g id="&lt;Group&gt;">
					<path id="&lt;Path&gt;" class="s9" d="m369.5 536l-32.6 16.4v13c0 0 85.2 0 109.5 0 20.3 0 72.5-5.3 89.4-7.1q1.3-2.2 2.6-4.4l-76.4-17.9z"/>
					<path id="&lt;Path&gt;" class="s2" d="m336.9 565.4v-13l32.6-16.4c0 0-15.6-88-15.4-95.8 0.2-7.9 6.4-102.5 6.1-106-0.2-3.5-3.4-11.4-5.1-11.9-1.6-0.5-10.6-1.8-10.6-1.8l-59.8 108.2 57.9 176.7c0 0 133.6 0 149.5 0 15.9 0 20.1-5 22.7-10 1-1.9 10.2-18.1 21-37.1-16.9 1.8-69.1 7.1-89.4 7.1-24.3 0-109.5 0-109.5 0z"/>
					<path id="&lt;Path&gt;" class="s2" d="m573.5 436.3h-96.8l3.4 41.5-18.1 58.2 76.4 17.9c16.3-28.6 35.1-61.5 35.1-61.5z"/>
				</g>
				<path id="&lt;Path&gt;" class="s8" d="m244.3 442.9c1.6 2 3.1 4.8 4.4 8.5 1.4 3.9 25.9 56.3 45.4 97.3 9.3 0 19.5 0 19.5 0l-38.3-91.7c0 0-24.7-11.8-31-14.1z"/>
				<path id="&lt;Path&gt;" class="s5" d="m330 315.1c-6.6-1.3-12.5 0.4-16.4 5.5-3.9 5.1-45.6 65.8-54.6 81.6-9 15.8-14.3 28.2-14.7 30.7-0.3 2.6 0.4 4.5 3.6 6.1 3.1 1.5 7.6 2.7 10.5 4.3 3 1.6 5.7 5.3 8.1 11.7 2.3 6.5 66.7 143.3 69.1 146.7 2.3 3.4 8.9 6.3 9.9 0 1-6.3 4.7-29 1.6-38.3-3.2-9.4-35-102.3-36.6-109.6-1.5-7.3-6.7-22.7 1.3-41.8 8.1-19 39.7-81.9 41-84.5 1.3-2.6-3.9-8.2-6.3-9.4-2.3-1.1-16.5-3-16.5-3z"/>
				<path id="&lt;Path&gt;" class="s5" d="m473.8 413.2v23.1l95.4 63.5c0 0 177.8 0 185.6 0 7.8 0 11.5-2.6 11-9.3-0.6-6.7-5-39.8-10.2-54.2-5.2-14.3-17.5-29.5-33.1-38.9-15.7-9.4-35.8-18.5-35.8-18.5h-117.1z"/>
				<path id="&lt;Path&gt;" class="s2" d="m486.6 378.9c-11.7 0.8-17.5 9.9-18.5 14.6-1 4.7 0 15.4 0 17.8 0 2.3 0.5 4.4 5.7 4.4 5.3 0 127.9 0 138.6 0 10.7 0 77.4-35.3 78-35.1 0.6 0.3-7.3-25.4-9.2-28.9-1.8-3.6-3.6-8.2-15.6-8.2-12 0-75.1 0-77.8 0-2.6 0-33.1 19-33.1 19z"/>
				<path id="&lt;Path&gt;" class="s3" d="m582.1 531.8c-16.4-0.5-23-0.1-25.3 4.2-2.3 4.4-16.2 33.6-17.2 37-1.1 3.4-0.5 8.4 7.3 10.7 7.8 2.3 73.6 18 81.4 19.8 7.8 1.9 8.6 1.9 16.9 1.9 8.4 0 37.6 0 43.6 0 6 0 8.1-5.3 8.1-10 0-4.6 0-28.4 0-32.6 0-4.1-22.7-24.8-30.8-25-8.1-0.3-84-6-84-6z"/>
				<path id="&lt;Path&gt;" class="s3" d="m711.8 404.7c0 9.4-7.6 17-17 17-9.4 0-17-7.6-17-17 0-9.3 7.6-16.9 17-16.9 9.4 0 17 7.6 17 16.9z"/>
				<path id="&lt;Path&gt;" class="s2" d="m686.2 394.5l15.1-20.2c3.2-4.1 6.5-9.4 11-12.2 4.9-3.2 10.8-4.8 16.6-4.4l1.6 0.1 50.4 2.9c8.7 0.7 8.7 13.3 0 14 0 0-50.4 2.9-50.4 2.9l-1.6 0.1c-2.1 0-4.1 1.1-5.1 2.9-2.3 4.2-13.6 23.5-16.2 28.1-3.6 6.1-11.4 8.2-17.6 4.6-6.6-3.8-8.4-12.7-3.8-18.8z"/>
				<path id="&lt;Path&gt;" class="s3" d="m753.7 457.4c3.3 17.1-2 30.8-11.7 30.8-9.7 0-20.3-13.7-23.6-30.8-3.3-17 1.9-30.8 11.6-30.8 9.8 0 20.4 13.8 23.7 30.8z"/>
				<path id="&lt;Path&gt;" class="s10" d="m752.6 457.1c2.8 14.9-1.7 26.9-10.2 26.9-8.5 0-17.7-12-20.6-26.9-2.9-14.8 1.7-26.9 10.2-26.9 8.5 0 17.7 12.1 20.6 26.9z"/>
				<path id="&lt;Path&gt;" class="s11" d="m744.8 440.2c3.4 5.2 3.6 10.5 0.4 11.8-3.3 1.3-8.6-1.8-12-7-3.4-5.1-3.6-10.4-0.4-11.7 3.3-1.3 8.6 1.8 12 6.9z"/>
				<path id="&lt;Path&gt;" class="s11" d="m752 459.5c-0.2 2.9-1.7 4.9-3.3 4.4-1.5-0.4-2.6-3.1-2.3-5.9 0.2-2.9 1.6-4.9 3.2-4.4 1.6 0.4 2.6 3.1 2.4 5.9z"/>
				<path id="&lt;Path&gt;" class="s4" d="m636.4 458.7l-14.3 32.5 48.6-32.5h-17l14.3-32.6-48.6 32.6z"/>
				<g id="&lt;Group&gt;">
					<path id="&lt;Path&gt;" class="s6" d="m364.1 280.6c-0.8 0-1.5-0.5-1.8-1.3-0.5-1.3-12.2-32.5-13-34.7-0.9-2.8 1.2-7.4 1.9-8.8 0.5-1 1.7-1.3 2.7-0.8 1 0.5 1.4 1.7 0.9 2.7-1.1 2.1-1.9 4.8-1.7 5.5 0.8 2.2 12.8 34.4 12.9 34.7 0.4 1-0.1 2.2-1.2 2.6q-0.3 0.1-0.7 0.1z"/>
				</g>
				<path id="&lt;Path&gt;" class="s5" d="m356.1 204.9l-7.8 25.5c-0.5 1.9-0.4 3.9 0.4 5.7l1.1 2.5c0.8 1.8 2.2 3.2 4 4.1l24.1 11.3c1.7 0.8 3.6 0.8 5.3 0 0.8-0.3 1.2-1.3 0.8-2.1l-22.3-50.2c-0.3-0.8-1.3-1.1-2.1-0.8-1.7 0.8-2.9 2.2-3.5 4z"/>
			</g>
			<g id="&lt;Group&gt;">
				<path id="&lt;Path&gt;" class="s6" d="m604 144.1c0 0 25.1 0.9 31.3 2.2 6.3 1.2 11.5 1.2 14.4 8.5 2.8 7.3 15.9 67.3 15.9 67.3 0 0 12.8 13.1 14.6 20.4 1.8 7.3 6.8 68.3 6.5 75.6-0.2 7.3-7.6 23-13.6 23-6 0-60.7 0-60.7 0z"/>
				<g id="&lt;Group&gt;">
					<path id="&lt;Path&gt;" class="s2" d="m666.4 221.9c-0.7 0.2-1.4-0.2-1.5-0.9-2-7.6-10.8-42.8-14.8-61.7-3-14.3-14-16.5-20.3-16.5h-30.9v-6h30.9c13.6 0 23.4 8 26.2 21.2 3.9 18.8 12.7 53.8 14.7 61.5 0.2 0.7-0.3 1.4-1 1.6z"/>
				</g>
				<path id="&lt;Path&gt;" class="s12" d="m490.5 160c-9.4 38.5-20.6 78.7-20.6 78.7l-73.2 31.1c-1.6 0.7-2.4 2.5-1.8 4.2l15.4 42.4c0.6 1.7 2.5 2.6 4.2 2l82-28.7 4.3-129.7z"/>
				<g id="&lt;Group&gt;">
					<path id="&lt;Path&gt;" class="s13" d="m429 633.3l1.3-8.3 14-54.9-43.3 0.3-11.2 41.1 4.7 21.1z"/>
					<path id="&lt;Path&gt;" class="s14" d="m327 658.7c0.1-6 2.2-10.1 5.4-12.7 3.2-2.5 18.3-10.5 29.3-17.6 11-7.1 23.4-17.1 25.1-18.3 1.7-1.2 3.7-2.9 6.5-0.7 2.7 2.3 5.5 6.6 7.1 8.1 1.6 1.5 2.8 3.9 0.8 6.9-2.1 3-32.7 38.9-32.7 38.9 0 0-29 1.7-41.5-4.6z"/>
					<path id="&lt;Path&gt;" class="s12" d="m400.4 617.5c-1.1-1-2.6-3.2-4.4-5.2-3.3-0.7-5.2 1.7-9.1 4.1-4.6 2.9-19.9 13.3-24.1 15.3-3 1.5-4.2-0.1-4.6-1.1q-0.9 0.5-1.8 1.1c0.8 1.2 2.5 3.9 3.6 6 1.5 2.9 3.4 11.7 3.4 16.3 0 2.9-1 6.4-4.1 9.5 5.4 0 9.2-0.2 9.2-0.2 0 0 30.6-35.9 32.7-38.9 2-3 0.8-5.4-0.8-6.9z"/>
					<path id="&lt;Path&gt;" class="s14" d="m434.1 629.5c-0.7-3.6-3.3-4.7-4.9-4.6-1.6 0.2-17.6 1.1-19.9 0.3-2.4-0.8-12.3-7.1-13.7-7.8-1.3-0.8-4.3-0.8-6.8 1.1-2.5 1.9-22 13.6-24.8 15.4-2.7 1.8-2.8 3.6-2.5 6.1 0.3 2.5 4.8 12.5 2.9 23.6 27.3 0.3 50.3-1.6 58.9-2.1 8.6-0.6 12.5-2 13.2-2.7 0.8-0.8 0.3-14.5-2.4-29.3z"/>
					<path id="&lt;Path&gt;" class="s12" d="m411.2 662.3q1.3-0.1 2.4-0.2c1-4.3 4.3-9.3 9-13.3 4.1-3.4 8.7-5.7 13.3-6.7q-0.1-1.2-0.3-2.3c-5 1.1-10 3.5-14.5 7.3-5.4 4.5-9 10.1-9.9 15.2z"/>
					<path id="&lt;Path&gt;" class="s3" d="m436.3 666.3c0 1.6-1.2 2.9-2.7 3.1-7.4 1.2-21.7 2.1-40.8 3-20.9 0.9-46.1 3.1-63.8-2.8-1.4-0.4-2.3-1.7-2.2-3.2l0.2-7.7c17.8 6.8 44.3 4.5 66.1 3.5 21.8-1 37.3-1.9 43.4-3.4z"/>
					<g id="&lt;Group&gt;">
						<g id="&lt;Group&gt;">
							<path id="&lt;Path&gt;" class="s6" d="m371.1 636.3c1 1.7 0.4 3.8-1.2 4.8-1.6 1-3.7 0.4-4.7-1.2-1-1.6-0.5-3.8 1.1-4.7 1.7-1 3.8-0.5 4.8 1.1z"/>
							<path id="&lt;Path&gt;" class="s15" d="m361.7 628.4c0 0 3.4 4.5 6.4 9.7"/>
						</g>
						<g id="&lt;Group&gt;">
							<path id="&lt;Path&gt;" class="s6" d="m379.3 631.4c1 1.6 0.5 3.7-1.2 4.7-1.6 1-3.7 0.5-4.7-1.2-1-1.6-0.4-3.7 1.2-4.7 1.6-1 3.7-0.4 4.7 1.2z"/>
							<path id="&lt;Path&gt;" class="s15" d="m369.5 622.7c0 0 3.9 5.3 6.8 10.5"/>
						</g>
						<g id="&lt;Group&gt;">
							<path id="&lt;Path&gt;" class="s6" d="m387.6 626.4c1 1.7 0.4 3.8-1.2 4.8-1.6 1-3.8 0.4-4.7-1.2-1-1.6-0.5-3.8 1.1-4.7 1.7-1 3.8-0.5 4.8 1.1z"/>
							<path id="&lt;Path&gt;" class="s15" d="m377.3 617c0 0 4.3 6 7.3 11.2"/>
						</g>
						<g id="&lt;Group&gt;">
							<path id="&lt;Path&gt;" class="s6" d="m395.8 621.5c1 1.6 0.5 3.7-1.2 4.7-1.6 1-3.7 0.5-4.7-1.2-1-1.6-0.5-3.7 1.2-4.7 1.6-1 3.7-0.5 4.7 1.2z"/>
							<path id="&lt;Path&gt;" class="s15" d="m385.1 611.3c0 0 4.8 6.7 7.7 12"/>
						</g>
					</g>
				</g>
				<g id="&lt;Group&gt;">
					<path id="&lt;Path&gt;" class="s13" d="m451.2 518.6l1.2-7.3 12.5-48.9-38.6 0.2-10 36.6 4.1 18.9z"/>
					<path id="&lt;Path&gt;" class="s14" d="m360.3 541.3c0.1-5.4 1.9-9 4.8-11.3 2.8-2.2 16.3-9.4 26.2-15.7 9.8-6.3 20.8-15.3 22.3-16.3 1.5-1.1 3.3-2.6 5.8-0.6 2.4 2 4.9 5.9 6.3 7.2 1.4 1.3 2.6 3.5 0.7 6.1-1.8 2.7-29.1 34.7-29.1 34.7 0 0-25.8 1.5-37-4.1z"/>
					<path id="&lt;Path&gt;" class="s12" d="m425.7 504.6c-0.9-0.9-2.3-2.9-3.9-4.7-2.9-0.5-4.6 1.6-8.1 3.8-4.1 2.5-17.7 11.8-21.5 13.6-2.7 1.3-3.7-0.1-4-1q-0.9 0.4-1.7 0.9c0.7 1.1 2.3 3.5 3.2 5.4 1.3 2.6 3 10.4 3 14.5 0 2.6-0.8 5.7-3.6 8.5 4.8 0 8.2-0.2 8.2-0.2 0 0 27.3-32 29.1-34.7 1.9-2.6 0.7-4.8-0.7-6.1z"/>
					<path id="&lt;Path&gt;" class="s14" d="m455.7 515.3c-0.5-3.2-2.9-4.2-4.3-4.1-1.4 0.2-15.7 1-17.8 0.3-2-0.8-10.9-6.3-12.1-7-1.2-0.7-3.9-0.7-6.1 1-2.3 1.7-19.7 12.1-22.1 13.7-2.4 1.6-2.5 3.3-2.2 5.5 0.2 2.1 4.2 11.1 2.6 21 24.3 0.3 44.8-1.4 52.5-1.9 7.6-0.5 11.1-1.8 11.8-2.4 0.6-0.7 0.2-12.9-2.3-26.1z"/>
					<path id="&lt;Path&gt;" class="s12" d="m435.4 544.5q1.1-0.1 2.1-0.1c0.9-3.9 3.8-8.4 8-11.9 3.7-3 7.8-5.1 11.9-6q-0.1-1-0.2-2.1c-4.6 1-9 3.2-13 6.5-4.8 4.1-8 9.1-8.8 13.6z"/>
					<path id="&lt;Path&gt;" class="s3" d="m457.8 548.1c-0.1 1.4-1.1 2.6-2.5 2.8-6.6 1.1-19.3 1.8-36.3 2.6-18.7 0.9-41.2 2.8-56.9-2.4-1.3-0.4-2-1.6-2-2.9l0.2-6.9c15.8 6.1 39.5 4.1 58.9 3.1 19.5-0.9 33.3-1.7 38.8-3z"/>
					<g id="&lt;Group&gt;">
						<g id="&lt;Group&gt;">
							<path id="&lt;Path&gt;" class="s6" d="m399.6 521.4c0.9 1.5 0.4 3.3-1.1 4.2-1.4 0.9-3.3 0.4-4.2-1-0.9-1.5-0.4-3.4 1.1-4.3 1.4-0.8 3.3-0.4 4.2 1.1z"/>
							<path id="&lt;Path&gt;" class="s15" d="m391.3 514.3c0 0 3 4 5.6 8.7"/>
						</g>
						<g id="&lt;Group&gt;">
							<path id="&lt;Path&gt;" class="s6" d="m406.9 517c0.9 1.4 0.5 3.3-1 4.2-1.5 0.9-3.4 0.4-4.2-1.1-0.9-1.4-0.4-3.3 1-4.2 1.5-0.9 3.4-0.4 4.3 1.1z"/>
							<path id="&lt;Path&gt;" class="s15" d="m398.2 509.2c0 0 3.4 4.7 6.1 9.4"/>
						</g>
						<g id="&lt;Group&gt;">
							<path id="&lt;Path&gt;" class="s6" d="m414.3 512.6c0.9 1.4 0.4 3.3-1.1 4.2-1.4 0.9-3.3 0.4-4.2-1.1-0.9-1.4-0.4-3.3 1.1-4.2 1.4-0.9 3.3-0.4 4.2 1.1z"/>
							<path id="&lt;Path&gt;" class="s15" d="m405.2 504.2c0 0 3.8 5.3 6.4 10"/>
						</g>
						<g id="&lt;Group&gt;">
							<path id="&lt;Path&gt;" class="s6" d="m421.6 508.1c0.9 1.5 0.5 3.4-1 4.3-1.5 0.8-3.4 0.4-4.2-1.1-0.9-1.4-0.4-3.3 1-4.2 1.5-0.9 3.4-0.4 4.2 1z"/>
							<path id="&lt;Path&gt;" class="s15" d="m412.1 499.1c0 0 4.2 6 6.9 10.6"/>
						</g>
					</g>
				</g>
				<path id="&lt;Path&gt;" class="s16" d="m491.1 322.3l-9.1 4.5c0 0-92.4 38.6-100 43.2-7.5 4.7-16.7 14.9-13.5 33.4 3.1 18.6 31.6 100.8 31.6 100.8h43.8l60.1-154v-27.9z"/>
				<path id="&lt;Path&gt;" class="s6" d="m495 318.1v30.3c0 0-61.6 69.9-66.8 77.2-5.2 7.3-8.4 9.4-12 25.1-3.3 14-26.3 104.9-31.1 123.6-0.5 1.9 0.7 3.8 2.5 4.2l57.4 13.4c1.7 0.4 3.4-0.6 4-2.3l37-113.2c0 0 90.4-68.9 104.1-84.2 13.7-15.2 31.7-36.6 32.8-74.1z"/>
				<path id="&lt;Path&gt;" class="s16" d="m572.4 318.1c-5 19.9-11.4 44.3-12.3 45.6-0.6 0.8-12.2 13.7-26.8 30-35.3 39.2-64.6 71.8-65.4 73.4-1.2 2.5-29 98.6-32.2 109.8l-48.5-10.9q-0.3 1-0.5 2l64.6 14.5 0.6-1.9-15.2-3.5c10.8-37.6 31.1-107.5 32.1-109.5 1-1.8 39.6-44.8 65.2-73.3 15.3-16.9 26.3-29.2 26.9-30 1.2-1.6 8.9-31.7 12.6-46.2z"/>
				<path id="&lt;Path&gt;" class="s17" d="m495 348.4c0 0 15.2-2.7 36-3.9 15.1-0.9 61.7 3.5 86 5.9 3.3-9.3 5.5-19.9 5.9-32.3h-127.9z"/>
				<path id="&lt;Path&gt;" class="s12" d="m507.2 111.1c16.6-8.8 51.1-18.7 55.1-18.7 4 0 21.5-0.6 21.5-0.6l4 1.2v29.6h-81.8v-8.7z"/>
				<path id="&lt;Path&gt;" class="s18" d="m561.5 94.2c-2.5 9 2 29.4 2 29.4h-42.9l-1.6-11.6z"/>
				<g id="&lt;Group&gt;">
					<g id="&lt;Group&gt;">
						<path id="&lt;Path&gt;" class="s18" d="m565 71.5c1.2-2.9 3.9-3.8 5.7-3.3 1.7 0.5 3.1 6.8 3.3 9.1 0.2 2.3-5.9 10.3-7.2 11-1.2 0.6-4.7 0.8-4.7 0.8z"/>
						<path id="&lt;Path&gt;" class="s18" d="m496.5 73.8c-1.4-2.8-4.1-3.5-5.9-2.9-1.7 0.7-2.6 7-2.7 9.3 0 2.3 6.6 9.9 7.9 10.5 1.3 0.6 4.8 0.5 4.8 0.5z"/>
					</g>
					<path id="&lt;Path&gt;" class="s19" d="m528.9 17.4c44.3-1.5 40.1 47.4 36.3 65.9-3.8 18.5-19.6 35.3-32.9 35.8-13.2 0.4-30.1-15.3-35.1-33.5-5.1-18.1-12.7-66.7 31.7-68.2z"/>
					<g id="&lt;Group&gt;">
						<path id="&lt;Path&gt;" class="s20" d="m532 109.2c-6.4 0.2-9.3-4-9-5.8 0.3-1.7 2.9-2 8.7-2.2 5.8-0.2 8.5-0.1 8.9 1.6 0.4 1.7-2.2 6.2-8.6 6.4z"/>
						<path id="&lt;Path&gt;" class="s3" d="m523.8 102.3c1.2 0.7 3.8 0.7 8 0.6 4.2-0.1 6.7-0.4 7.9-1.1-1.2-0.7-3.7-0.7-8-0.6-4.2 0.1-6.7 0.4-7.9 1.1z"/>
						<path id="&lt;Path&gt;" class="s21" d="m531.8 103.8c-3.5 0.2-6 1.1-7.7 2.3 1.3 1.6 3.9 3.2 7.9 3.1 4-0.2 6.5-1.9 7.7-3.6-1.8-1.1-4.4-1.9-7.9-1.8z"/>
					</g>
					<g id="&lt;Group&gt;">
						<g id="&lt;Group&gt;">
							<path id="&lt;Path&gt;" class="s3" d="m548.8 67.2c-4.9 1-6.3 6.1-6 8.2 2.3 2.9 5.7 3.2 8.5 3 2.7-0.3 6.1-2.8 6.1-6.1-0.9-3.7-4.1-5.7-8.6-5.1z"/>
							<path id="&lt;Path&gt;" class="s22" d="m555.2 72.6c0.1 2.9-2.1 5.4-4.8 5.5-2.8 0.1-5.2-2.2-5.3-5.2-0.1-3 2.1-5.5 4.9-5.6 2.8 0 5.1 2.3 5.2 5.3z"/>
							<path id="&lt;Path&gt;" class="s22" d="m542 75.1c1.3-3.8 3.7-6.9 8.3-7 4.5-0.2 6.7 3.3 6.8 4.9 0 1.1-0.5 2.8-0.5 2.8 0 0 2-1 2.6-3.1-0.4-2.2-2.7-6.8-8.9-6.6-6 0.2-8.8 5.7-8.3 9z"/>
							<path id="&lt;Path&gt;" class="s22" d="m541.5 62.6c0 0 2.1-1.1 7.4-2.1 5.2-1.1 9.1-0.9 9.1-0.9 0 0-6.1-1.2-9.7-1-3.6 0.2-5.8 0.8-6.4 1.3-0.6 0.4-0.7 2.4-0.4 2.7z"/>
							<path id="&lt;Path&gt;" class="s3" d="m548.1 71.2c-0.2-0.8-1.2-1.2-2.3-0.9-1 0.3-1.7 1.1-1.5 1.8 0.2 0.8 1.2 1.2 2.2 0.9 1.1-0.3 1.8-1.1 1.6-1.8z"/>
						</g>
						<g id="&lt;Group&gt;">
							<path id="&lt;Path&gt;" class="s3" d="m512.4 68.4c4.9 0.7 6.7 5.7 6.6 7.8-2.2 3-5.5 3.6-8.3 3.6-2.8-0.1-6.3-2.4-6.5-5.7 0.6-3.8 3.7-5.9 8.2-5.7z"/>
							<path id="&lt;Path&gt;" class="s22" d="m506.4 74.2c0.1 3 2.4 5.3 5.2 5.2 2.8-0.1 4.9-2.6 4.8-5.5-0.1-3-2.4-5.3-5.2-5.2-2.8 0.1-4.9 2.5-4.8 5.5z"/>
							<path id="&lt;Path&gt;" class="s22" d="m519.7 75.9c-1.6-3.7-4.2-6.6-8.8-6.5-4.4 0.2-6.4 3.8-6.4 5.4 0.1 1.1 0.7 2.7 0.7 2.7 0 0-2-0.8-2.8-2.8 0.3-2.3 2.2-7 8.4-7.3 6.1-0.2 9.2 5.2 8.9 8.5z"/>
							<path id="&lt;Path&gt;" class="s22" d="m519.4 63.4c0 0-2.2-1-7.5-1.7-5.4-0.7-9.3-0.3-9.3-0.3 0 0 6.1-1.5 9.7-1.5 3.6-0.1 5.8 0.4 6.5 0.8 0.6 0.4 0.8 2.3 0.6 2.7z"/>
							<path id="&lt;Path&gt;" class="s23" d="m542 75.1c1.3-3.8 3.7-6.9 8.3-7 4.5-0.2 6.7 3.3 6.8 4.9 0 1.1-0.5 2.8-0.5 2.8 0 0 2-1 2.6-3.1-0.4-2.2-2.7-6.8-8.9-6.6-6 0.2-8.8 5.7-8.3 9z"/>
							<path id="&lt;Path&gt;" class="s23" d="m541.5 62.6c0 0 2.1-1.1 7.4-2.1 5.2-1.1 9.1-0.9 9.1-0.9 0 0-6.1-1.2-9.7-1-3.6 0.2-5.8 0.8-6.4 1.3-0.6 0.4-0.7 2.4-0.4 2.7z"/>
							<path id="&lt;Path&gt;" class="s23" d="m519.7 75.9c-1.6-3.7-4.2-6.6-8.8-6.5-4.4 0.2-6.4 3.8-6.4 5.4 0.1 1.1 0.7 2.7 0.7 2.7 0 0-2-0.8-2.8-2.8 0.3-2.3 2.2-7 8.4-7.3 6.1-0.2 9.2 5.2 8.9 8.5z"/>
							<path id="&lt;Path&gt;" class="s23" d="m519.4 63.4c0 0-2.2-1-7.5-1.7-5.4-0.7-9.3-0.3-9.3-0.3 0 0 6.1-1.5 9.7-1.5 3.6-0.1 5.8 0.4 6.5 0.8 0.6 0.4 0.8 2.3 0.6 2.7z"/>
							<path id="&lt;Path&gt;" class="s3" d="m509.2 72.5c-0.2-0.7-1.2-1.1-2.3-0.9-1.1 0.3-1.8 1.1-1.6 1.9 0.2 0.7 1.2 1.1 2.3 0.8 1-0.2 1.7-1 1.6-1.8z"/>
						</g>
					</g>
					<g id="&lt;Group&gt;">
						<path id="&lt;Path&gt;" class="s24" d="m532.3 96.6c0.8-1.3 1.8-1.4 2.1-1.1 0.4 0.2 0.4 0.9 0.2 1-0.1 0.1-2.3 0.1-2.3 0.1z"/>
						<path id="&lt;Path&gt;" class="s24" d="m530.8 96.7c-0.8-1.3-1.8-1.3-2.1-1-0.4 0.2-0.4 0.9-0.2 1 0.2 0.1 2.3 0 2.3 0z"/>
					</g>
					<path id="&lt;Path&gt;" class="s25" d="m531.2 95.4l-0.3-8.3c0 0-1.4 5.5-1.4 6.4 0.1 1 1.7 1.9 1.7 1.9z"/>
				</g>
				<path id="&lt;Path&gt;" class="s22" d="m502.6 49.4c0.8 8.6 6.9 12.9 7.3 13.2 0.5 0.3 2.2 0.8 2.2 0.8 0 0 0.8-13.9 4.9-24.3-0.1 11.5 6.7 19 9.9 20.3 5 3.4 11.5 4.5 11.7 4 0.2-0.5-0.6-11-0.8-13.6 5.3 8.5 16 14.4 17.7 14.8 1.8 0.4 3.7 0.5 3.7 0.5v-5.6c3.5 5.5 7.6 9.9 7.6 9.9l-0.3 5.9c0 0 4.5-3.7 7.5-13.7 3.1-9.9 3.5-13.1 3.5-13.1 0 0-2-11.2-2.4-13.9 3.7-1.3 4.5-1.9 4.5-1.9 0 0-5.5-5.3-6.7-7.7-1.1-2.5-4.7-7.2-9.5-10.3-4.9-3.1-15-6.1-17.2-6.5 3.2-3.3 2.5-6.1 2.5-6.1 0 0-12.1 2.3-17.9 2.3-5.8 0-14.5 2.3-17.7 6.3-1-4.5-2-6.8-2-6.8 0 0-3.7 4.8-3.9 9.7-10 1.1-16.5 4.9-16.5 4.9 0 0 7.2 2.1 8.5 2.1-7.7 7.1-11.7 14.8-11.8 24.1-0.1 9.3 2.7 20.1 4 23.4 1.2 3.3 4.8 7.2 4.8 7.2 0 0 0.1-4.5 0.3-5 3.1-7.9 5.9-13.7 6.1-20.9z"/>
				<path id="&lt;Path&gt;" class="s14" d="m508.1 114.4c-1.1-0.9 0.2-3.3-0.9-3.3-1 0-5.7 2.3-5.7 3.3 0 1 1.1 7 1.1 7 0 0-3.7 6.6-3.2 10.2 0.5 3.7 3.2 10.1 3.2 10.1 0 0-11.8 15.5-12.1 18.3-0.2 2.9-4.9 152.7-4.9 152.7 0 0-5.2 11.7-5 13 0.3 1.3 11.5 6.3 29.5 9.1 18 2.9 108.8-1 114.8-1.8 6-0.8 8.3-2.3 8.6-7 0.3-4.7-4.4-143.5-7.6-156.8-3.1-13.3-20.1-30-25.5-33.9 5.4-4.2 7-9.9 7-12.3 0-2.3-3.9-13.8-3.9-13.8 0 0 2.3-7.6-0.3-9.4-2.6-1.8-12.6-7.1-14.2-7.4-1.5-0.4-5.2-0.6-5.2-0.6 0 0 2.5 1.2 2.2 2.5-0.2 1.3-40.9 21.7-65.4 25.8-4.6 0.8-12.5-5.7-12.5-5.7z"/>
				<path id="&lt;Path&gt;" class="s26" d="m510.1 334.8c18 2.9 108.8-1 114.8-1.8 6-0.8 8.3-2.3 8.6-7 0.2-3.4-2.1-74.2-4.6-119.8h-62.8c10.9 30.5-33.9 103.9-82 121.7 4.6 2 13.7 5 26 6.9z"/>
				<path id="&lt;Path&gt;" class="s6" d="m590.2 238.7l40.9 55.4v-66.4l-40.9-0.6z"/>
				<path id="&lt;Path&gt;" class="s12" d="m522.1 119.9q-0.8 0.1-1.5 0.2-0.3 0.1-0.6 0.1c-0.4 3-0.4 18 0 20.7 0.3 2.2 1.3 4 1.8 5q0.1 0 0.1 0.1c-0.5 1.1-1.6 3.9-2.2 6.2-0.6 2.8-3.3 43-1.7 66.3 1.3 20.1 0.4 44.2-0.2 60.1q-0.2 3.8-0.3 6.9c-0.4 11.2-1.1 36.6-1.4 49.9q1 0.1 2 0.1c0.3-13.3 1-38.7 1.4-49.9q0.1-3.2 0.3-6.9c0.6-16 1.5-40.1 0.2-60.3-1.6-23.1 1-63 1.7-65.7 0.6-2.7 2.2-6.3 2.2-6.3l0.2-0.4-0.2-0.3q0-0.2-0.3-0.8c-0.5-0.8-1.3-2.4-1.6-4.3-0.4-2.9-0.4-18.4 0-20.4q0-0.2 0.1-0.3z"/>
				<path id="&lt;Path&gt;" class="s12" d="m581.6 134.7c9.9-0.7 18.8 0.6 18.8 0.6 5.4-4.2 7-9.9 7-12.3 0-0.9-0.5-3-1.2-5.4 0 0-16 10.6-30.7 14.9-14.8 4.3-36.7 10.1-43.7 11.2-7.1 1.2-9.4 1.3-9.4 1.3 0 0-9.7-5-11.3-5.8-1-0.5-6.3-1.5-10.3-2.3 0.9 2.6 1.8 4.8 1.8 4.8 5.1-0.6 6.5-0.7 7.9-0.4 1.4 0.2 9.5 4 11.4 4.7 1.9 0.7 0.6-0.1 2.2 0 1.5 0.2 12.9-1.7 19.7-3.1 6.7-1.4 27.9-7.4 37.8-8.2z"/>
				<path id="&lt;Path&gt;" class="s3" d="m535 135.7c0 1.6-1.3 2.9-2.9 2.9-1.6 0-2.9-1.3-2.9-2.9 0-1.6 1.3-2.9 2.9-2.9 1.6 0 2.9 1.3 2.9 2.9z"/>
				<g id="&lt;Group&gt;">
					<path id="&lt;Path&gt;" class="s2" d="m531.1 180.8c-1-8.1-0.8-39.9-1-44.1 0-0.5 0.4-0.9 1-1h2c0.5-0.1 0.9 0.3 1 0.9 0.1 4-0.1 35.8 0.9 43.7 0.1 0.5-0.3 1-0.8 1l-2 0.3c-0.5 0.1-1-0.2-1.1-0.8z"/>
				</g>
				<path id="&lt;Path&gt;" class="s3" d="m515.4 134.9c0 1.6-1.3 2.9-2.9 2.9-1.6 0-2.9-1.3-2.9-2.9 0-1.6 1.3-2.9 2.9-2.9 1.6 0 2.9 1.3 2.9 2.9z"/>
				<g id="&lt;Group&gt;">
					<path id="&lt;Path&gt;" class="s2" d="m511.6 180c-1.1-8.1-0.8-40-1-44.1 0-0.5 0.4-1 0.9-1l2-0.1c0.5 0 1 0.4 1 0.9 0.2 4.1-0.1 35.9 1 43.7 0 0.6-0.3 1-0.8 1.1l-2 0.3c-0.6 0.1-1.1-0.3-1.1-0.8z"/>
				</g>
				<path id="&lt;Path&gt;" class="s2" d="m600.4 135.3c-9.2 7.5-21.6 29.7-20.4 55.5 1.2 25.9 10.2 36.3 10.2 36.3v11.6c0 0-5.6-2.5-10.3-7.6-4.6-5.1-21.1-34.8-21-52.5 0.1-17.8 8.5-41.4 8.5-41.4 0 0 3.4-2.3 13.9-3.6 10.4-1.2 19.1 1.7 19.1 1.7z"/>
				<path id="&lt;Path&gt;" class="s2" d="m549.4 311c0 0-17.5 1.2-20.3 1.7-2.7 0.5-5 1.7-3.9 4.9 1.1 3.1 16.1 24.9 17.7 27.4 1.6 2.4 2.8 3 5.6 2.3 2.7-0.7 9.1-3.1 11.8-5.1 2.8-1.9 7.1-6.3 7.1-6.3z"/>
				<path id="&lt;Path&gt;" class="s14" d="m582.4 208.7l27.8 47.5-65.2 47.5c-1 0.8-1.3 2.3-0.6 3.5l22.8 35.2c0.7 1.1 2.3 1.5 3.5 0.7 12.5-7.9 76.6-48.9 85.1-56.3 9.4-8.3 15.7-22.9 8-43.1-7.6-20.1-33.4-72.4-42-84.2h-27.6c0 0-19.9 13.2-11.8 49.2z"/>
				<path id="&lt;Path&gt;" class="s2" d="m527.3 313.2c-4.9 2.6-11.5 6.7-12.5 7.3-0.9 0.6-5.6 5.9-7.6 7.4-2 1.4-1.1 4.3 0.9 5.6 2 1.3 9.3-2.1 11.4-3.8 2.2-1.7 2.2-1.8 3.2-2.3 0.9-0.6 9.2-4.6 9.2-4.6z"/>
				<path id="&lt;Path&gt;" class="s2" d="m539.7 330.5c-4.8 2.8-11.2 7.1-12.2 7.7-0.9 0.6-5.5 6-7.4 7.6-1.9 1.5-1 4.4 1.1 5.6 2.1 1.3 9.2-2.4 11.3-4.2 2.1-1.7 2.1-1.8 3.1-2.4 0.9-0.6 9-4.9 9-4.9z"/>
				<path id="&lt;Path&gt;" class="s2" d="m547.4 337.2c-4.2 2.9-9.7 7.3-10.5 7.9-0.9 0.7-4.6 6-6.3 7.5-1.6 1.6-0.5 4.1 1.4 5.1 2 1 8.3-2.9 10.1-4.6 1.8-1.8 1.8-1.9 2.6-2.5 0.8-0.7 7.9-5.2 7.9-5.2z"/>
				<path id="&lt;Path&gt;" class="s2" d="m531.7 323c-4.9 2.6-13.2 8.3-14.1 8.9-1 0.6-5.7 5.8-7.7 7.3-1.9 1.5-1.1 4.4 0.9 5.7 2 1.3 9.3-2.2 11.5-3.8 2.1-1.7 2.1-1.8 3.1-2.4 1-0.6 10.9-6.2 10.9-6.2z"/>
			</g>
			<path id="&lt;Path&gt;" class="s6" d="m411.2 303.2c4.6 0 8.3-5.3 8.3-11.8 0-6.5-3.7-11.7-8.3-11.7h-32.2c-4.6 0-8.3 5.2-8.3 11.7 0 6.5 3.7 11.8 8.3 11.8z"/>
		</g>
	</g>
</svg>