<svg version="1.2" xmlns="http://www.w3.org/2000/svg" viewBox="0 0 815 600" width="815" height="600">
	<title>22777087_67_MjExMi53MDEyLm4wMDEuMzHQoS5wNi4zMQ-ai</title>
	<style>
		.s0 { fill: #f7efe2 } 
		.s1 { fill: #d3bda5 } 
		.s2 { fill: #ddcab8 } 
		.s3 { fill: #5b322c } 
		.s4 { fill: #5a322c } 
		.s5 { fill: #5a322e } 
		.s6 { fill: #e24d4e } 
		.s7 { fill: #453028 } 
		.s8 { fill: #45272a } 
		.s9 { fill: #ffffff } 
		.s10 { fill: #d1b397 } 
		.s11 { fill: #f5c266 } 
		.s12 { fill: #f4a85d } 
	</style>
	<g id="_Artboards_">
	</g>
	<g id="Layer 1">
		<g id="&lt;Group&gt;">
			<g id="&lt;Group&gt;">
				<g id="&lt;Group&gt;">
					<g id="&lt;Group&gt;">
						<path id="&lt;Path&gt;" class="s0" d="m736.4 593.2h-639.5c0 0-113.2-85.2-79-198 18.4-60.5 70.5-69.5 86.2-114.6 22.1-63.7-15.7-113.5 42.1-178.6 77.6-87.4 276.3-77.8 386-46.6 221.7 63.1 312.2 296.1 204.2 537.8z"/>
					</g>
				</g>
			</g>
			<g id="&lt;Group&gt;">
				<g id="&lt;Group&gt;">
					<g id="&lt;Group&gt;">
						<path id="&lt;Path&gt;" class="s1" d="m799.2 185.5c-5.5 12.4-17.6 20-30.3 20.3l-67.5 153.9-26.4-11.6 67.5-153.9c-8.4-9.6-11.1-23.6-5.6-36 5-11.4 15.5-18.7 27-20.1l-8.5 19.4c-2 4.4 0.1 9.6 4.5 11.5l15.7 6.9c4.5 2 9.7-0.1 11.6-4.5l8.5-19.4c6.7 9.4 8.5 22.1 3.5 33.5z"/>
					</g>
					<g id="&lt;Group&gt;">
						<path id="&lt;Path&gt;" class="s2" d="m692.8 360l-12.2-5.4 69.2-157.7 12.2 5.3z"/>
					</g>
					<g id="&lt;Group&gt;">
						<path id="&lt;Path&gt;" class="s3" d="m758.6 232.3l-2.3-1 11.7-26.7h0.8c12.7-0.4 24.1-8.1 29.2-19.6 4.6-10.6 3.4-22.9-3.3-32.2l2-1.5c7.2 10.1 8.6 23.3 3.6 34.7-5.3 12.2-17.3 20.4-30.6 21z"/>
					</g>
				</g>
				<g id="&lt;Group&gt;">
					<path id="&lt;Path&gt;" class="s3" d="m702 361.5l-2.3-1 49.8-113.7 2.3 1.1z"/>
				</g>
			</g>
			<g id="&lt;Group&gt;">
				<g id="&lt;Group&gt;">
					<path id="&lt;Path&gt;" class="s1" d="m800 270.4l-18.6 16.1-74.7 155-16.6-7.5 74.9-155.4 1.4-24.5 27.5-34 15.6 7.5z"/>
				</g>
				<g id="&lt;Group&gt;">
					<path id="&lt;Path&gt;" class="s3" d="m707.8 442.1l-2.3-1.1 22.2-46 2.3 1.1z"/>
				</g>
				<g id="&lt;Group&gt;">
					<path id="&lt;Path&gt;" class="s3" d="m736.2 383.2l-2.2-1.1 46.4-96.4 18.5-16 7.4-33.4 2.4 0.5-7.5 34.3-18.8 16.2z"/>
				</g>
			</g>
			<g id="&lt;Group&gt;">
				<g id="&lt;Group&gt;">
					<path id="&lt;Path&gt;" class="s4" d="m9.1 590.7h775.2v2.5h-775.2z"/>
				</g>
			</g>
			<g id="&lt;Group&gt;">
				<g id="&lt;Group&gt;">
					<g id="&lt;Group&gt;">
						<g id="&lt;Group&gt;">
							<g id="&lt;Group&gt;">
								<path id="&lt;Path&gt;" class="s5" d="m697.8 592.1l-359.4-0.5c-10.3 0-18.7-8.4-18.7-18.7l0.6-507.9c0-10.4 8.4-18.8 18.8-18.7l359.3 0.4c10.4 0 18.8 8.4 18.8 18.8l-0.6 507.9c-0.1 10.3-8.5 18.7-18.8 18.7z"/>
							</g>
						</g>
					</g>
				</g>
				<g id="&lt;Group&gt;">
					<g id="&lt;Group&gt;">
						<g id="&lt;Group&gt;">
							<path id="&lt;Path&gt;" class="s6" d="m685.1 592.1l-359.4-0.5c-10.4 0-18.8-8.4-18.7-18.7l0.6-507.9c0-10.4 8.4-18.8 18.7-18.7l359.4 0.4c10.4 0 18.7 8.4 18.7 18.8l-0.6 507.9c0 10.3-8.4 18.7-18.7 18.7z"/>
						</g>
					</g>
				</g>
				<g id="&lt;Group&gt;">
					<g id="&lt;Group&gt;">
						<g id="&lt;Group&gt;">
							<g id="&lt;Group&gt;">
								<path id="&lt;Path&gt;" class="s7" d="m689.3 592.6c-2.2 0-4.4 0-5.6-0.1v-2.5c3.8 0.1 15.2 0 15.3 0q0 0 0 0c4.6 0 8.9-1.8 12.2-5.1 3.3-3.4 5.1-7.9 5.1-12.6l0.6-505.8c0-9.7-7.7-17.7-17.3-17.7l-361.5-0.5v-2.5l361.5 0.5c10.9 0 19.8 9.1 19.8 20.2l-0.6 505.8c0 5.4-2.1 10.5-5.8 14.3-3.7 3.8-8.7 5.9-14 5.9q0 0 0 0c-0.1 0-5.1 0.1-9.7 0.1z"/>
							</g>
						</g>
					</g>
				</g>
				<g id="&lt;Group&gt;">
					<g id="&lt;Group&gt;">
						<path id="&lt;Path&gt;" class="s7" d="m686.1 592.5l-361.5-0.4c-10.9 0-19.7-9.1-19.7-20.3l0.6-505.8c0-5.4 2-10.4 5.8-14.3 3.7-3.8 8.7-5.9 13.9-5.9q0.1 0 0.1 0l361.5 0.5c10.9 0 19.7 9.1 19.7 20.2l-0.1 88.4h-2.5l0.1-88.4c0-9.7-7.7-17.7-17.2-17.7l-361.5-0.5c-4.6 0-9 1.9-12.2 5.2-3.3 3.3-5.1 7.8-5.1 12.5l-0.6 505.8c0 9.8 7.7 17.8 17.2 17.8l361.5 0.4z"/>
					</g>
				</g>
				<g id="&lt;Group&gt;">
					<g id="&lt;Group&gt;">
						<path id="&lt;Path&gt;" class="s3" d="m706.2 362.1h-2.6l0.3-176.3h2.5z"/>
					</g>
				</g>
				<g id="&lt;Group&gt;" style="opacity: .4">
					<g id="&lt;Group&gt;">
						<g id="&lt;Group&gt;">
							<g id="&lt;Group&gt;">
								<path id="&lt;Path&gt;" class="s8" d="m683.2 567.1l-336-0.4 0.5-475.3 336.1 0.4z"/>
							</g>
						</g>
					</g>
				</g>
				<g id="&lt;Group&gt;">
					<g id="&lt;Group&gt;">
						<g id="&lt;Group&gt;">
							<g id="&lt;Group&gt;">
								<path id="&lt;Path&gt;" class="s9" d="m673.4 557.1l-336-0.5 0.6-475.3 336 0.4z"/>
							</g>
						</g>
					</g>
				</g>
				<g id="&lt;Group&gt;">
					<g id="&lt;Group&gt;">
						<g id="&lt;Group&gt;">
							<path id="&lt;Path&gt;" class="s0" d="m400.2 202.1h61v61h-61z"/>
						</g>
					</g>
					<g id="&lt;Group&gt;">
						<g id="&lt;Group&gt;">
							<path id="&lt;Path&gt;" class="s0" d="m400.2 296.9h61v61.1h-61z"/>
						</g>
					</g>
					<g id="&lt;Group&gt;">
						<g id="&lt;Group&gt;">
							<path id="&lt;Path&gt;" class="s0" d="m400.2 391.8h61v61.1h-61z"/>
						</g>
					</g>
					<g id="&lt;Group&gt;">
						<g id="&lt;Group&gt;">
							<path id="&lt;Path&gt;" class="s3" d="m462.3 264.2h-18.5v-2.1h16.4v-60h2.1z"/>
						</g>
					</g>
					<g id="&lt;Group&gt;">
						<g id="&lt;Group&gt;">
							<path id="&lt;Path&gt;" class="s3" d="m462.3 359.1h-34v-2.2h31.9v-60h2.1z"/>
						</g>
					</g>
					<g id="&lt;Group&gt;">
						<g id="&lt;Group&gt;">
							<path id="&lt;Path&gt;" class="s3" d="m462.3 453.9h-62.1v-2.1h60v-60h2.1z"/>
						</g>
					</g>
					<g id="&lt;Group&gt;">
						<g id="&lt;Group&gt;">
							<g id="&lt;Group&gt;">
								<path id="&lt;Path&gt;" class="s3" d="m474.3 220.9h70.3v2.1h-70.3z"/>
							</g>
						</g>
						<g id="&lt;Group&gt;">
							<g id="&lt;Group&gt;">
								<path id="&lt;Path&gt;" class="s3" d="m474.3 242.2h105.2v2.1h-105.2z"/>
							</g>
						</g>
					</g>
					<g id="&lt;Group&gt;">
						<g id="&lt;Group&gt;">
							<g id="&lt;Group&gt;">
								<path id="&lt;Path&gt;" class="s3" d="m474.3 315.7h86.4v2.2h-86.4z"/>
							</g>
						</g>
						<g id="&lt;Group&gt;">
							<g id="&lt;Group&gt;">
								<path id="&lt;Path&gt;" class="s3" d="m474.3 337.1h152.1v2.1h-152.1z"/>
							</g>
						</g>
					</g>
					<g id="&lt;Group&gt;">
						<g id="&lt;Group&gt;">
							<g id="&lt;Group&gt;">
								<path id="&lt;Path&gt;" class="s3" d="m474.3 410.6h86.4v2.1h-86.4z"/>
							</g>
						</g>
						<g id="&lt;Group&gt;">
							<g id="&lt;Group&gt;">
								<path id="&lt;Path&gt;" class="s3" d="m474.3 431.9h152.1v2.2h-152.1z"/>
							</g>
						</g>
					</g>
				</g>
				<g id="&lt;Group&gt;">
					<g id="&lt;Group&gt;">
						<g id="&lt;Group&gt;">
							<g id="&lt;Group&gt;">
								<g id="&lt;Group&gt;">
									<g id="&lt;Group&gt;">
										<g id="&lt;Group&gt;">
											<path id="&lt;Compound Path&gt;" fill-rule="evenodd" class="s5" d="m578 37.5c5.1 0 9.3 4.1 9.3 9.1l-0.1 40.6c0 5-4.2 9.1-9.3 9.1l-144.5-0.2c-5.1 0-9.3-4.1-9.3-9.1l0.1-40.6c0-5 4.2-9.1 9.3-9.1h41c0-14.7 10.3-27.6 24.8-30.4 20.1-4 37.7 11.1 37.7 30.2v0.3zm-63.5-3.3c1.5-6.5-4.3-12.1-10.8-10.7-3.3 0.8-6 3.4-6.7 6.7-1.5 6.4 4.3 12 10.8 10.6 3.3-0.7 6-3.3 6.7-6.6z"/>
										</g>
									</g>
								</g>
							</g>
						</g>
						<g id="&lt;Group&gt;">
							<g id="&lt;Group&gt;">
								<g id="&lt;Group&gt;">
									<g id="&lt;Group&gt;">
										<g id="&lt;Group&gt;">
											<path id="&lt;Compound Path&gt;" fill-rule="evenodd" class="s7" d="m458.4 97.4h-25c-2.8 0-5.4-1.1-7.4-3.1-2-1.9-3.1-4.5-3.1-7.3v-40.6h2.6l-0.1 40.6c0 2.1 0.8 4.1 2.3 5.5 1.5 1.5 3.6 2.4 5.7 2.4h25zm47.4-55.2c-2.8 0-5.4-1.1-7.4-3-2.4-2.5-3.4-6-2.6-9.4 0.8-3.7 3.8-6.7 7.6-7.6 3.6-0.7 7.2 0.3 9.7 2.8 2.4 2.5 3.4 6 2.6 9.4-0.8 3.8-3.8 6.7-7.6 7.6q-1.2 0.2-2.3 0.2zm-0.1-17.7q-0.9 0-1.8 0.2c-2.8 0.6-5.1 2.9-5.7 5.7-0.6 2.6 0.2 5.1 2 7 1.9 1.9 4.6 2.7 7.3 2.1 2.9-0.6 5.2-2.9 5.8-5.6 0.6-2.7-0.2-5.2-2-7.1-1.5-1.5-3.5-2.3-5.6-2.3zm72.3 14.2l-42.3-0.1v-1.5c0-8.8-3.9-17.1-10.7-22.7-7-5.8-16.3-8.1-25.4-6.3-13.8 2.7-23.8 14.9-23.9 29.1v1.3l-1.2 0.1-41-0.1v-2.5h39.8c0.5-14.9 11.2-27.5 25.8-30.4 9.9-1.9 19.9 0.6 27.5 6.8 7.2 5.9 11.4 14.5 11.6 23.7l39.8 0.1z"/>
										</g>
									</g>
								</g>
							</g>
						</g>
					</g>
					<g id="&lt;Group&gt;">
						<g id="&lt;Group&gt;">
							<path id="&lt;Path&gt;" class="s7" d="m477.5 95h64v2.6h-64z"/>
						</g>
					</g>
				</g>
				<g id="&lt;Group&gt;">
					<path id="&lt;Path&gt;" class="s0" d="m367.5 124.3h276.4v54.1h-276.4z"/>
				</g>
				<g id="&lt;Group&gt;">
					<g id="&lt;Group&gt;">
						<path id="&lt;Compound Path&gt;" class="s5" d="m388.9 137.1h4.1v28.6h-4.1z"/>
					</g>
					<g id="&lt;Group&gt;">
						<path id="&lt;Compound Path&gt;" class="s5" d="m424.6 165.7h-4.1l-15.8-22.1v22.1h-4.2v-28.6h4.2l15.8 22.1v-22.1h4.1z"/>
					</g>
					<g id="&lt;Group&gt;">
						<path id="&lt;Compound Path&gt;" class="s5" d="m441.2 152.9q-5.3-1.4-7.8-3.4-2.4-2-2.4-5 0-3.4 3-5.6 2.9-2.2 7.7-2.2 3.2 0 5.7 1.1 2.6 1.2 3.9 3.2 1.4 2 1.4 4.3h-4.1q0-2.6-1.8-4-1.8-1.5-5.1-1.5-3.1 0-4.8 1.2-1.7 1.2-1.7 3.4 0 1.8 1.6 3 1.6 1.2 5.6 2.2 3.9 1 6.1 2.2 2.2 1.2 3.2 2.8 1.1 1.6 1.1 3.8 0 3.5-3 5.6-2.9 2.1-7.9 2.1-3.2 0-6-1.2-2.8-1.1-4.3-3.1-1.6-1.9-1.6-4.4h4.2q0 2.6 2.1 4.1 2.1 1.5 5.6 1.5 3.3 0 5-1.2 1.7-1.3 1.7-3.4 0-2.1-1.6-3.2-1.6-1.2-5.8-2.3z"/>
					</g>
					<g id="&lt;Group&gt;">
						<path id="&lt;Compound Path&gt;" class="s5" d="m480.1 137.1v19.4q0 4.1-2.7 6.6-2.8 2.6-7.5 2.9l-1.1 0.1q-5.2 0-8.2-2.6-3.1-2.5-3.1-6.9v-19.5h4.1v19.3q0 3.1 1.8 4.9 1.9 1.7 5.4 1.7 3.5 0 5.3-1.7 1.9-1.7 1.9-4.8v-19.4z"/>
					</g>
					<g id="&lt;Group&gt;">
						<path id="&lt;Compound Path&gt;" fill-rule="evenodd" class="s5" d="m498.2 154.1h-7.4v11.6h-4.2v-28.6h10.4q5.3 0 8.2 2.2 2.8 2.2 2.8 6.4 0 2.6-1.6 4.6-1.6 2-4.4 3l7.4 12.1v0.3h-4.4zm-7.4-3.1h6.3q3.1 0 4.9-1.5 1.9-1.4 1.9-3.9 0-2.6-1.8-4-1.7-1.5-5-1.5h-6.3z"/>
					</g>
					<g id="&lt;Group&gt;">
						<path id="&lt;Compound Path&gt;" fill-rule="evenodd" class="s5" d="m531.1 158.2h-13.1l-3 7.5h-4.2l11.9-28.6h3.6l12 28.6h-4.2zm-11.9-3.1h10.7l-5.4-13.4z"/>
					</g>
					<g id="&lt;Group&gt;">
						<path id="&lt;Compound Path&gt;" class="s5" d="m566.6 165.7h-4.1l-15.8-22.1v22.1h-4.2v-28.6h4.2l15.8 22.1v-22.1h4.1z"/>
					</g>
					<g id="&lt;Group&gt;">
						<path id="&lt;Compound Path&gt;" class="s5" d="m597 156.6q-0.6 4.5-3.7 7-3.1 2.5-8.2 2.5-5.5 0-8.9-3.7-3.3-3.6-3.3-9.7v-2.7q0-4 1.5-7 1.6-3.1 4.5-4.7 2.8-1.6 6.6-1.6 5 0 8 2.5 3 2.6 3.5 7.1h-4.1q-0.6-3.5-2.4-5-1.8-1.5-5-1.5-4 0-6.2 2.6-2.3 2.7-2.3 7.6v2.8q0 4.7 2.2 7.4 2.1 2.8 5.9 2.8 3.5 0 5.3-1.5 1.8-1.4 2.5-4.9z"/>
					</g>
					<g id="&lt;Group&gt;">
						<path id="&lt;Compound Path&gt;" class="s5" d="m620.3 152.5h-13.5v10.1h15.7v3.1h-19.9v-28.6h19.7v3.1h-15.5v9.2h13.5z"/>
					</g>
				</g>
			</g>
			<g id="&lt;Group&gt;">
				<g id="&lt;Group&gt;" style="opacity: .3">
					<g id="&lt;Group&gt;">
						<g id="&lt;Group&gt;">
							<path id="&lt;Path&gt;" class="s10" d="m370.1 357.5q-0.1 0.2-0.2 0.5c-18.5 75.9-59.6 161.8-131.5 216q-11.6 8.8-24.6 16.5h-22.1c-178.2-104.7-170.3-390.8-170.3-390.8 31.3-3.2 66.2-16.5 102.6-34 26.4-12.6 54.7-18.8 83.1-18.5 26.9 0.3 53.7 6.4 78.7 18.4 36.7 17.6 71.9 30.9 103.3 34.1 0 0 1.8 72.5-19 157.8z"/>
						</g>
					</g>
				</g>
				<g id="&lt;Group&gt;">
					<g id="&lt;Group&gt;">
						<g id="&lt;Group&gt;">
							<g id="&lt;Group&gt;">
								<path id="&lt;Path&gt;" class="s11" d="m361 349.6q-0.1 0.3-0.2 0.5c-18.8 75.9-55.8 161.8-128.6 216-11.8 8.9-24.6 16.8-38.4 23.8q-2.5-1.3-5-2.6c-189.2-100.4-180.9-395.5-180.9-395.5 31.7-3.2 67-16.5 103.9-34 26.7-12.6 55.4-18.8 84.1-18.5 27.3 0.3 54.5 6.4 79.8 18.4 37.1 17.6 72.8 30.9 104.5 34.1 0 0 1.9 72.5-19.2 157.8z"/>
							</g>
						</g>
					</g>
					<g id="&lt;Group&gt;">
						<g id="&lt;Group&gt;">
							<g id="&lt;Group&gt;">
								<path id="&lt;Path&gt;" class="s12" d="m361 349.6q-0.1 0.3-0.2 0.5c-19.2 75.7-56.5 160.8-128.6 216-11.8 8.9-24.6 16.8-38.4 23.8q-2.5-1.3-5-2.6c21-42.9 148-318.9 7.1-448 27.3 0.3 54.5 6.4 79.8 18.4 37.1 17.6 72.8 30.9 104.5 34.1 0 0 1.9 72.5-19.2 157.8z"/>
							</g>
						</g>
					</g>
					<g id="&lt;Group&gt;">
						<g id="&lt;Group&gt;">
							<g id="&lt;Group&gt;">
								<g id="&lt;Group&gt;">
									<path id="&lt;Compound Path&gt;" fill-rule="evenodd" class="s9" d="m193.8 551.4l-1.2-0.6c-36.6-18.4-67.5-47.2-91.7-85.4-19.3-30.5-34.4-67-45-108.6-17.9-70.8-16.4-132.5-16.4-133.2v-2.4l2.5-0.3c22.5-2.2 49.1-11 83.8-27.4 43.2-20.6 92.8-20.6 136-0.2 35 16.6 61.7 25.4 84.3 27.6l2.5 0.3v2.4c0.1 0.7 1.4 62.4-16.6 133.2-10.7 41.6-25.9 78.1-45.2 108.6-24.3 38.2-55.1 67-91.7 85.4zm-148.8-325.2c0 12.1 0.6 67.2 16.4 129.3 16.3 63.9 52.4 148.6 132.4 189.6 79.9-41 116.2-125.7 132.6-189.6 15.9-62.1 16.6-117.2 16.6-129.3-22.7-2.7-49.4-11.6-83.6-27.8-41.7-19.7-89.5-19.7-131.2 0.1-34.1 16.2-60.6 25-83.2 27.7z"/>
								</g>
							</g>
						</g>
					</g>
				</g>
				<g id="&lt;Group&gt;">
					<g id="&lt;Group&gt;">
						<g id="&lt;Group&gt;">
							<path id="&lt;Path&gt;" class="s3" d="m193.3 590.9c-1.9-0.9-3.5-1.8-5-2.6-68.3-36.2-118.6-101.5-149.7-193.9-24.8-74-30.4-145.7-31.6-181.9l2.3-0.1c2.1 66.4 21.3 289.7 180 373.9 1.5 0.8 3.2 1.7 5 2.6z"/>
						</g>
					</g>
					<g id="&lt;Group&gt;">
						<g id="&lt;Group&gt;">
							<path id="&lt;Path&gt;" class="s3" d="m232.9 567l-1.3-1.8c60.8-45.3 103.9-117.8 128.2-215.4 0-0.2 0.1-0.3 0.1-0.5 14-56.6 17.8-108 18.8-133.6l2.3 0.1c-1.1 25.7-4.9 77.2-18.9 134.1q-0.1 0.3-0.2 0.6c-10.7 43.3-25.6 82.5-44.2 116.3-22.8 41.6-51.3 75.3-84.8 100.2z"/>
						</g>
					</g>
					<g id="&lt;Group&gt;">
						<g id="&lt;Group&gt;">
							<path id="&lt;Path&gt;" class="s3" d="m364.7 190.7c-25-4.8-53.4-14.9-89.5-32-25-11.8-51.7-18-79.3-18.3-28.6-0.3-57.6 6.1-83.6 18.4-35.2 16.8-63.1 26.8-87.6 31.6l-0.4-2.2c24.3-4.8 52-14.8 87-31.4 26.4-12.5 55.6-19 84.6-18.6 28 0.2 54.9 6.5 80.2 18.5 35.9 17 64.2 27.1 89 31.8z"/>
						</g>
					</g>
				</g>
				<g id="&lt;Group&gt;">
					<g id="&lt;Group&gt;">
						<path id="&lt;Path&gt;" class="s9" d="m195.1 422.7l-77.3-97.7 24.5-19.4 52.5 66.4 80.1-103.9 24.7 19.1z"/>
					</g>
				</g>
			</g>
			<g id="&lt;Group&gt;">
				<g id="&lt;Group&gt;">
					<path id="&lt;Path&gt;" class="s0" d="m585.5 529.9c-17.7 0-32-14.3-32-32 0-17.6 14.3-31.9 32-31.9 17.6 0 31.9 14.3 31.9 31.9 0 17.7-14.3 32-31.9 32z"/>
				</g>
				<g id="&lt;Group&gt;">
					<g id="&lt;Group&gt;">
						<path id="&lt;Path&gt;" class="s5" d="m583.5 515.5l-17.6-22.2 5.6-4.4 11.9 15.1 18.3-23.7 5.6 4.4z"/>
					</g>
				</g>
				<g id="&lt;Group&gt;">
					<path id="&lt;Path&gt;" class="s3" d="m585.5 540.7c-23.6 0-42.8-19.2-42.8-42.8 0-23.5 19.2-42.7 42.8-42.7 5.4 0 10.7 1 15.8 3l-1 2.3c-4.7-1.9-9.7-2.8-14.8-2.8-22.2 0-40.3 18-40.3 40.2 0 22.2 18.1 40.3 40.3 40.3 20.9 0 38.2-15.8 40-36.6l2.5 0.2c-1.9 22.2-20.3 38.9-42.5 38.9z"/>
				</g>
				<g id="&lt;Group&gt;">
					<path id="&lt;Path&gt;" class="s3" d="m623.1 483.6c-1.7-4.4-4.1-8.5-7.3-12.1l1.9-1.6c3.4 3.8 5.9 8.1 7.7 12.8z"/>
				</g>
			</g>
		</g>
	</g>
</svg>