<svg version="1.2" xmlns="http://www.w3.org/2000/svg" viewBox="0 0 500 500" width="500" height="500">
	<title>GPS navigator-rafiki-svg</title>
	<style>
		.s0 { fill: #ebebeb } 
		.s1 { fill: #f0f0f0 } 
		.s2 { fill: #e0e0e0 } 
		.s3 { opacity: .1;fill: #e0e0e0 } 
		.s4 { fill: #263238 } 
		.s5 { fill: #f5f5f5 } 
		.s6 { fill: #e6e6e6 } 
		.s7 { opacity: .2;fill: #ffffff } 
		.s8 { fill: #0076cd } 
		.s9 { opacity: .7;fill: #ffffff } 
		.s10 { opacity: .6;fill: #ffffff } 
		.s11 { fill: #ffffff } 
		.s12 { opacity: .4;fill: #ffffff } 
		.s13 { opacity: .5;fill: #ffffff } 
		.s14 { opacity: .2;fill: #000000 } 
		.s15 { opacity: .3;fill: #ffffff } 
		.s16 { fill: #e4897b } 
		.s17 { fill: #2e353a } 
		.s18 { opacity: .4;fill: #000000 } 
		.s19 { fill: #000000 } 
		.s20 { fill: #de5753 } 
	</style>
	<g id="freepik--background-complete--inject-39">
		<path id="Layer" class="s0" d="m-55 373.1h609.5v0.3h-609.5z"/>
		<path id="Layer" class="s0" d="m453.1 392.7h40.3v0.3h-40.3z"/>
		<path id="Layer" class="s0" d="m338.2 396h10.6v0.3h-10.6z"/>
		<path id="Layer" class="s0" d="m428.4 381.4h23.4v0.3h-23.4z"/>
		<path id="Layer" class="s0" d="m8.9 383.4h52.7v0.4h-52.7z"/>
		<path id="Layer" class="s0" d="m72.5 383.4h7.7v0.4h-7.7z"/>
		<path id="Layer" class="s0" d="m105.3 388.6h114.2v0.3h-114.2z"/>
		<path id="Layer" fill-rule="evenodd" class="s0" d="m233.9 318.7h-235.4q-1.4 0-2.6-0.5-1.3-0.5-2.3-1.5-1-1-1.5-2.3-0.5-1.2-0.5-2.6v-330.9q0-1.4 0.5-2.6 0.6-1.3 1.5-2.3 1-0.9 2.3-1.5 1.3-0.5 2.6-0.5h235.4q1.4 0 2.7 0.5 1.2 0.6 2.2 1.5 1 1 1.5 2.3 0.6 1.3 0.6 2.7v330.8q0 1.4-0.6 2.6-0.5 1.3-1.5 2.3-1 1-2.2 1.5-1.3 0.5-2.7 0.5zm-235.4-344.5q-1.3 0-2.5 0.6-1.2 0.5-2.2 1.4-0.9 0.9-1.4 2.2-0.5 1.2-0.5 2.5v330.9q0 1.3 0.5 2.5 0.5 1.2 1.4 2.2 1 0.9 2.2 1.4 1.2 0.5 2.5 0.5h235.4q1.3 0 2.5-0.5 1.3-0.5 2.2-1.4 0.9-1 1.4-2.2 0.6-1.2 0.6-2.5v-330.9q0-1.3-0.6-2.5-0.5-1.3-1.4-2.2-0.9-0.9-2.2-1.4-1.2-0.6-2.5-0.6z"/>
		<path id="Layer" fill-rule="evenodd" class="s0" d="m497.6 318.7h-235.4q-1.4 0-2.7-0.5-1.2-0.5-2.2-1.5-1-1-1.5-2.3-0.6-1.2-0.6-2.6v-330.9q0.1-1.4 0.6-2.6 0.5-1.3 1.5-2.3 1-0.9 2.2-1.5 1.3-0.5 2.7-0.5h235.4q1.4 0 2.6 0.5 1.3 0.6 2.3 1.5 0.9 1 1.5 2.3 0.5 1.2 0.5 2.6v330.9q0 1.4-0.5 2.6-0.5 1.3-1.5 2.3-1 1-2.3 1.5-1.2 0.5-2.6 0.5zm-235.4-344.5q-1.3 0-2.6 0.6-1.2 0.5-2.1 1.4-0.9 0.9-1.5 2.2-0.5 1.2-0.5 2.5v330.9q0 1.3 0.5 2.5 0.6 1.2 1.5 2.2 0.9 0.9 2.1 1.4 1.3 0.5 2.6 0.5h235.4q1.3 0 2.5-0.5 1.2-0.5 2.2-1.4 0.9-1 1.4-2.2 0.5-1.2 0.5-2.5v-330.9q0-1.3-0.5-2.5-0.5-1.3-1.4-2.2-1-0.9-2.2-1.4-1.2-0.6-2.5-0.6z"/>
		<path id="Layer" class="s1" d="m169.5 50.8c0-1.7 0.4-3.3 1.2-4.8 0.7-1.5 1.8-2.8 3.2-3.8 1.3-1 2.9-1.7 4.5-2 1.7-0.3 3.4-0.2 5 0.3-0.6-3.6-0.2-7.2 1-10.7 1.1-3.4 3.1-6.5 5.7-9 2.6-2.5 5.8-4.4 9.3-5.4 3.5-1 7.1-1.2 10.7-0.6 2.2-3.7 5.6-6.5 9.6-8.1 4-1.6 8.4-1.9 12.6-0.7 4.2 1.1 7.9 3.6 10.5 7 2.6 3.4 4.1 7.6 4.2 11.9h0.3c4.9 0 9.5 2 12.9 5.4 3.5 3.4 5.4 8.1 5.4 12.9 0 4.9-1.9 9.5-5.4 13-3.4 3.4-8 5.3-12.9 5.3l-67.3 0.1c-1.4-0.1-2.8-0.4-4-0.9-1.3-0.6-2.5-1.4-3.4-2.4-1-1-1.8-2.2-2.3-3.5-0.5-1.2-0.8-2.6-0.8-4z"/>
		<path id="Layer" class="s1" d="m281.2 118.6q0-1.3 0.5-2.6 0.5-1.2 1.5-2.2 1-1 2.2-1.5 1.3-0.5 2.6-0.5 0.3 0 0.5 0 0.3 0 0.5 0.1 0.3 0 0.5 0 0.3 0.1 0.5 0.2 0-0.3-0.1-0.5 0-0.3 0-0.6 0-0.2 0-0.5 0-0.3 0-0.5c0-1.9 0.3-3.8 1.1-5.6 0.7-1.8 1.8-3.4 3.1-4.7 1.4-1.4 3-2.4 4.7-3.2 1.8-0.7 3.7-1.1 5.6-1.1q0.3 0 0.7 0.1 0.3 0 0.6 0 0.4 0 0.7 0.1 0.3 0 0.7 0.1c1.4-2.4 3.6-4.2 6.1-5.2 2.6-1 5.4-1.2 8.1-0.5 2.6 0.8 5 2.3 6.7 4.5 1.6 2.2 2.6 4.8 2.6 7.6h0.2c3.1 0.1 6 1.4 8.1 3.6 2.1 2.1 3.3 5.1 3.3 8.1 0 3.1-1.2 6-3.3 8.2-2.1 2.1-5 3.4-8.1 3.5h-42.9q-1.4 0-2.6-0.6-1.2-0.5-2.2-1.5-0.9-0.9-1.4-2.2-0.5-1.2-0.5-2.6z"/>
		<path id="Layer" class="s1" d="m28.3 109.7q0-0.9 0.3-1.6 0.3-0.8 0.9-1.4 0.6-0.6 1.4-0.9 0.8-0.3 1.6-0.3 0.1 0 0.3 0 0.2 0 0.3 0 0.2 0 0.3 0.1 0.2 0 0.3 0 0-0.1 0-0.3-0.1-0.1-0.1-0.3 0-0.2 0-0.3 0-0.2 0-0.4c0-1.1 0.2-2.3 0.7-3.4 0.4-1 1.1-2 1.9-2.9 0.8-0.8 1.8-1.4 2.9-1.9 1.1-0.4 2.2-0.7 3.4-0.7q0.2 0 0.4 0 0.2 0.1 0.4 0.1 0.2 0 0.4 0 0.2 0.1 0.5 0.1c0.8-1.4 2.2-2.6 3.7-3.2 1.6-0.6 3.3-0.7 4.9-0.2 1.7 0.4 3.1 1.4 4.1 2.7 1.1 1.3 1.6 3 1.7 4.7h0.1c1.8 0 3.6 0.8 4.9 2.2 1.3 1.3 2 3.1 2 4.9 0 1.9-0.7 3.7-2 5-1.3 1.3-3.1 2.1-4.9 2.2h-26.3q-0.9 0-1.6-0.4-0.8-0.3-1.3-0.9-0.6-0.6-0.9-1.3-0.3-0.8-0.3-1.6z"/>
		<path id="Layer" class="s1" d="m438.2 47.8q0-0.8 0.3-1.6 0.3-0.8 0.9-1.3 0.6-0.6 1.4-1 0.7-0.3 1.5-0.3 0.2 0 0.4 0 0.1 0 0.3 0 0.1 0.1 0.3 0.1 0.1 0 0.3 0.1-0.1-0.2-0.1-0.3 0-0.2 0-0.3 0-0.2 0-0.3 0-0.2 0-0.3c0-1.4 0.2-2.7 0.8-3.9 0.5-1.2 1.4-2.2 2.4-3.1 1-0.8 2.2-1.4 3.4-1.8 1.3-0.3 2.7-0.3 4-0.1 0.8-1.4 2.1-2.5 3.7-3.2 1.6-0.6 3.3-0.7 5-0.2 1.6 0.4 3 1.4 4.1 2.7 1 1.3 1.6 3 1.6 4.7h0.1c1.9 0 3.6 0.8 4.9 2.2 1.3 1.3 2 3.1 2 4.9 0 1.9-0.7 3.7-2 5-1.3 1.4-3 2.1-4.9 2.2h-26.3q-0.8 0-1.5-0.3-0.8-0.3-1.4-0.9-0.6-0.6-0.9-1.4-0.3-0.8-0.3-1.6z"/>
		<path id="Layer" class="s2" d="m376.2 44.4h-15.5c0 0 1.2 8.8 13.2 11.4z"/>
		<path id="Layer" class="s2" d="m376.2 67.9h-15.5c0 0 1.2 8.8 13.2 11.4z"/>
		<path id="Layer" class="s2" d="m376.2 91.5h-15.5c0 0 1.2 8.8 13.2 11.4z"/>
		<path id="Layer" class="s3" d="m376.2 44.4h-15.5c0 0 1.2 8.8 13.2 11.4z"/>
		<path id="Layer" class="s3" d="m376.2 67.9h-15.5c0 0 1.2 8.8 13.2 11.4z"/>
		<path id="Layer" class="s3" d="m376.2 91.5h-15.5c0 0 1.2 8.8 13.2 11.4z"/>
		<path id="Layer" class="s2" d="m371.3 39.5c0-2.2 1.7-3.9 3.9-3.9h30.6c2.2 0 3.9 1.7 3.9 3.9v77.6c0 2.2-1.7 4-3.9 4h-30.6c-2.2 0-3.9-1.8-3.9-4z"/>
		<path id="Layer" class="s0" d="m387.6 39.5c0-2.2 1.8-3.9 4-3.9h14.2c2.2 0 3.9 1.7 3.9 3.9v77.6c0 2.2-1.7 4-3.9 4h-14.2c-2.2 0-4-1.8-4-4z"/>
		<path id="Layer" class="s2" d="m407.3 134.5h-3.6q-1.5 0-2.9-0.6-1.4-0.6-2.5-1.6-1-1.1-1.6-2.5-0.6-1.4-0.6-2.9v-92q0-1.4 0.6-2.8 0.6-1.4 1.6-2.5 1.1-1 2.5-1.6 1.4-0.6 2.9-0.6h3.6v6.1h-3.6q-0.3 0-0.6 0.1-0.3 0.1-0.5 0.3-0.2 0.2-0.3 0.5-0.1 0.3-0.1 0.5v92q0 0.3 0.1 0.6 0.1 0.3 0.3 0.5 0.2 0.2 0.5 0.3 0.3 0.1 0.6 0.1h3.6z"/>
		<path id="Layer" class="s2" d="m393.3 363.4q0.2-0.3 0.5-0.5 0.2-0.2 0.5-0.3 0.3-0.2 0.6-0.2 0.3-0.1 0.6-0.1h23.7q0.3 0 0.6 0.1 0.3 0 0.6 0.2 0.3 0.1 0.5 0.3 0.3 0.2 0.5 0.5l8.3 11.4h-44.7z"/>
		<path id="Layer" class="s2" d="m404 25.5c0-0.9 0.4-1.7 1-2.3 0.6-0.6 1.5-0.9 2.3-0.9 0.9 0 1.7 0.3 2.3 0.9 0.7 0.6 1 1.4 1.1 2.3q0 0 0 0.1 0 0 0 0.1 0 0.1 0 0.1 0 0.1 0 0.2v336.3h-6.7v-336.3c0-0.2 0-0.4 0-0.5z"/>
		<path id="Layer" class="s2" d="m412.4 139.6h-5.1v-6.1h5.1q0 0 0 0 0 0 0 0 0 0 0.1 0 0 0 0-0.1v-73.2q0 0 0 0-0.1-0.1-0.1-0.1 0 0 0 0 0 0 0 0h-5.1v-6.1h5.1q1.2 0 2.3 0.5 1.2 0.4 2 1.3 0.9 0.9 1.4 2 0.4 1.2 0.5 2.4v73.2q0 1.3-0.5 2.4-0.5 1.1-1.4 2-0.8 0.9-2 1.4-1.1 0.4-2.3 0.4z"/>
		<path id="Layer" class="s4" d="m394.3 70.3c0-2.2 1.8-4 4-4h31.5c2.2 0 3.9 1.8 3.9 4v54.5c0 2.2-1.7 4-3.9 4h-31.5c-2.2 0-4-1.8-4-4z"/>
		<path id="Layer" class="s0" d="m394.3 70.3c0-2.2 1.8-4 4-4h31.5c2.2 0 3.9 1.8 3.9 4v54.5c0 2.2-1.7 4-3.9 4h-31.5c-2.2 0-4-1.8-4-4z"/>
		<path id="Layer" class="s5" d="m399.1 70.3c0-2.2 1.8-4 4-4h26.7c2.2 0 3.9 1.8 3.9 4v54.5c0 2.2-1.7 4-3.9 4h-26.7c-2.2 0-4-1.8-4-4z"/>
		<path id="Layer" class="s2" d="m426.5 89c-1.4 5.9-7.3 9.6-13.3 8.2-5.9-1.4-9.5-7.4-8.1-13.3 1.4-5.9 7.3-9.6 13.2-8.2 5.9 1.4 9.6 7.3 8.2 13.3z"/>
		<path id="Layer" class="s0" d="m426.8 111.9c0 4.4-2.7 8.4-6.8 10.1-4.1 1.7-8.8 0.7-11.9-2.4-3.2-3.2-4.1-7.9-2.4-12 1.7-4.1 5.7-6.8 10.1-6.8 1.5 0 2.9 0.3 4.3 0.9 1.3 0.5 2.5 1.4 3.5 2.4 1 1 1.9 2.2 2.4 3.6 0.5 1.3 0.8 2.7 0.8 4.2z"/>
		<path id="Layer" class="s2" d="m470 358.2c0 0 11-11.9 4.5-18.8-6.5-7-11.4 3.3-11.4 3.3 0 0 8.3-15 0-19.7-8.4-4.8-10.7 7.3-10.7 7.3 0 0 2.2-15.8-9-16.6-11.3-0.9-8.9 12.1-8.9 12.1 0 0-6.7-12.6-15.4-7.3-8.7 5.2-1.4 16.4-1.4 16.4 0 0-7.8-8.2-12.2-2.3-4.4 6 2.7 11.4 2.7 11.4 0 0-8.4-2.7-9.7 5.1-1.3 7.8 6.6 9 6.6 9z"/>
		<path id="Layer" class="s1" d="m140.8 358.2c0 0 16.8-18.2 6.8-28.7-9.9-10.6-17.4 5-17.4 5 0 0 12.7-22.8 0-30.1-12.8-7.3-16.3 11.2-16.3 11.2 0 0 3.3-24-13.8-25.3-17.1-1.3-13.6 18.5-13.6 18.5 0 0-10.2-19.2-23.5-11.1-13.3 8-2.1 25-2.1 25 0 0-11.8-12.5-18.5-3.4-6.8 9 4 17.2 4 17.2 0 0-12.8-4.1-14.8 7.9-1.9 11.9 10.2 13.8 10.2 13.8z"/>
		<path id="Layer" class="s5" d="m3.8 358.2h491.9v14.9h-491.9z"/>
		<path id="Layer" class="s2" d="m438.2 358.2h57.5v14.9h-57.5z"/>
		<path id="Layer" class="s2" d="m323.2 358.2h57.5v14.9h-57.5z"/>
		<path id="Layer" class="s2" d="m208.2 358.2h57.5v14.9h-57.5z"/>
		<path id="Layer" class="s2" d="m93.2 358.2h57.5v14.9h-57.5z"/>
		<path id="Layer" class="s2" d="m3.8 358.2h31.9v14.9h-31.9z"/>
		<path id="Layer" class="s6" d="m251.8 304.7h-7l-14.2-41.1h6.9l14.3 41.1z"/>
		<path id="Layer" class="s6" d="m344.9 304.7h-7l-14.3-41.1h7l14.3 41.1z"/>
		<path id="Layer" class="s1" d="m238.5 304.7h151.2v10h-151.2z"/>
		<path id="Layer" class="s1" d="m227.6 290.7h135v10.1h-135z"/>
		<path id="Layer" class="s1" d="m216 270.5h134.9v10.1h-134.9z"/>
		<path id="Layer" class="s1" d="m208.2 253.5h135v10h-135z"/>
		<path id="Layer" class="s1" d="m376.5 314.8h7v43.4h-7z"/>
		<path id="Layer" class="s6" d="m376.5 314.8h7v8.5h-7z"/>
		<path id="Layer" class="s1" d="m240 314.8h7v43.4h-7z"/>
		<path id="Layer" class="s6" d="m240 314.8h7v8.5h-7z"/>
	</g>
	<g id="freepik--Shadow--inject-39">
		<path id="freepik--path--inject-39" class="s5" d="m249.7 428.1c-130.7 0-236.3-6.1-236.3-13.8 0-7.6 105.6-13.7 236.3-13.7 130.8 0 236.4 6.1 236.4 13.7 0 7.7-105.6 13.8-236.4 13.8z"/>
	</g>
	<g id="freepik--Device--inject-39">
		<path id="Layer" class="s4" d="m35.3 42.8c0-5.8 4.6-10.4 10.4-10.4h185.1c5.8 0 10.4 4.6 10.4 10.4v349.6c0 5.7-4.6 10.4-10.4 10.4h-185.1c-5.8 0-10.4-4.7-10.4-10.4z"/>
		<path id="Layer" class="s7" d="m35.3 42.8c0-5.8 4.6-10.4 10.4-10.4h185.1c5.8 0 10.4 4.6 10.4 10.4v349.6c0 5.7-4.6 10.4-10.4 10.4h-185.1c-5.8 0-10.4-4.7-10.4-10.4z"/>
		<path id="Layer" class="s8" d="m234.3 44.8v344.9q0 1-0.4 1.9-0.4 1-1.1 1.7-0.8 0.7-1.7 1.1-1 0.3-2 0.3h-182.3q-0.9 0-1.8-0.3-0.8-0.4-1.5-1-0.6-0.7-1-1.5-0.3-0.9-0.3-1.8v-345.7q0-0.9 0.3-1.6 0.3-0.8 0.8-1.4 0.6-0.6 1.3-0.9 0.8-0.3 1.6-0.4h45.6q0.4 0 0.9 0.2 0.5 0.1 0.8 0.4 0.4 0.3 0.7 0.7 0.3 0.3 0.5 0.8l1.9 4.6q0.2 0.5 0.5 0.8 0.2 0.4 0.6 0.7 0.4 0.3 0.9 0.4 0.4 0.2 0.9 0.2h77.6q0.5 0 0.9-0.2 0.5-0.1 0.9-0.4 0.4-0.3 0.7-0.6 0.3-0.4 0.4-0.8l1.9-4.7q0.2-0.5 0.5-0.8 0.3-0.4 0.7-0.7 0.4-0.3 0.8-0.4 0.5-0.2 0.9-0.2h45q0.9 0.1 1.7 0.4 0.8 0.4 1.5 1 0.6 0.7 0.9 1.5 0.4 0.9 0.4 1.8z"/>
		<path id="Layer" class="s9" d="m42.2 61.7h192.1v309.9h-192.1z"/>
		<path id="Layer" class="s10" d="m63.4 50.9h2.4v3.1h-2.4z"/>
		<path id="Layer" class="s10" d="m59.5 49.8h2.4v4.2h-2.4z"/>
		<path id="Layer" class="s10" d="m55.6 48.8h2.4v5.2h-2.4z"/>
		<path id="Layer" class="s10" d="m51.8 47.7h2.4v6.3h-2.4z"/>
		<path id="Layer" class="s10" d="m211.1 49.7h1.4v3.2h-1.4z"/>
		<path id="Layer" class="s10" d="m213.5 48.6h11.2v5.4h-11.2z"/>
		<path id="Layer" class="s10" d="m138.2 40.6c0 1.1-0.6 2-1.6 2.4-1 0.4-2.1 0.2-2.9-0.5-0.8-0.8-1-1.9-0.6-2.9 0.4-1 1.4-1.7 2.5-1.7q0.5 0 1 0.2 0.5 0.3 0.8 0.6 0.4 0.4 0.6 0.9 0.2 0.5 0.2 1z"/>
		<path id="Layer" class="s10" d="m143.5 40.6c0 0.7-0.4 1.3-1 1.5-0.6 0.3-1.4 0.2-1.9-0.3-0.4-0.5-0.6-1.2-0.3-1.9 0.2-0.6 0.9-1 1.6-1q0.3 0 0.6 0.1 0.3 0.1 0.5 0.4 0.3 0.2 0.4 0.5 0.1 0.3 0.1 0.7z"/>
		<path id="Layer" class="s11" d="m195 320.7h-138.1c-1.1 0-2.3-0.2-3.4-0.6-1.1-0.5-2-1.2-2.9-2-0.8-0.8-1.5-1.8-1.9-2.9-0.5-1.1-0.7-2.2-0.7-3.4 0-1.2 0.2-2.3 0.7-3.4 0.4-1.1 1.1-2.1 1.9-2.9 0.9-0.9 1.8-1.5 2.9-2 1.1-0.4 2.3-0.7 3.4-0.7h138.1c1.1 0 2.3 0.3 3.4 0.7 1.1 0.5 2 1.1 2.9 2 0.8 0.8 1.5 1.8 1.9 2.9 0.5 1.1 0.7 2.2 0.7 3.4 0 1.2-0.2 2.3-0.7 3.4-0.4 1.1-1.1 2.1-1.9 2.9-0.9 0.8-1.8 1.5-2.9 2-1.1 0.4-2.3 0.6-3.4 0.6z"/>
		<path id="Layer" class="s8" d="m47.1 100.5h182v193.9h-182z"/>
		<path id="Layer" class="s12" d="m47.1 100.5h182v193.9h-182z"/>
		<path id="Layer" fill-rule="evenodd" class="s8" d="m229 118.3l-21 3.8 21 22.5v10l-27.5-31.3-20.5 3.6 30.4 41.9 17.6-4.2v9.7l-11.6 2.9 11.6 16.1v23.2l-23.6-36.2-61.3 15.3 32.4 98.8h-36.5l-7-33.7-79 25.4-4.9 8.3h-1.9v-59.2l8.6-85.9-8.6 1.6v-13.1l57.7-9.5-5.7-27.2-15.6 2.1q-0.3 0.1-0.7 0.1-0.3 0-0.7 0-0.3-0.1-0.6-0.2-0.4-0.1-0.7-0.2l-4.3-2.4h36.6l2.4 7.6 14.7-2.2-2.5-5.4h6.5l3.2 6.4c0.5 1-0.5 2.1-2.3 2.3l-18.3 2.8 4.5 13.5 43.6-7.2-11.6-17.8h8.6l11.7 16.4 49.2-8.2-9.4-8.2h14.1l1.4 1.2zm-99.6 125.7l-22-104-42.6 7.7-5.6 117.4zm42.3-115.4l-46.6 8.3 15.9 48.6 58.8-13.9z"/>
		<path id="Layer" class="s11" d="m143.5 245.3l20.7 23.5-13.8-3-10.2 10.1 3.3-30.6z"/>
		<path id="Layer" class="s2" d="m140.2 275.9l1.2 3.1 10.8-9 12 2.3v-3.5l-13.8-3-10.2 10.1z"/>
		<path id="Layer" fill-rule="evenodd" class="s11" d="m177.7 115.8q0.3 0.8 0.3 1.6 0 0.9-0.3 1.7-0.3 0.8-0.9 1.4l-3.1 3.1-3.1-3.1c-0.9-0.8-1.5-1.9-1.6-3.2-0.1-1.2 0.4-2.4 1.2-3.3 0.9-0.9 2.1-1.3 3.4-1.3 1.2 0.1 2.4 0.7 3.1 1.7q0.6 0.6 1 1.4zm-3.4 3.3q0.3-0.2 0.6-0.4 0.2-0.3 0.3-0.6 0.2-0.3 0.2-0.6c0-0.7-0.5-1.4-1.1-1.6-0.6-0.3-1.4-0.1-1.9 0.3-0.5 0.5-0.6 1.3-0.3 1.9 0.2 0.7 0.9 1.1 1.5 1.1q0.4 0 0.7-0.1z"/>
		<path id="Layer" class="s13" d="m147.5 239.9l-30.5-107.6q0-0.2 0-0.4 0-0.2 0.1-0.4 0.1-0.2 0.3-0.3 0.2-0.1 0.4-0.1l50.9-8.1-1.2-1.6-53.8 8.8q-0.4 0-0.8 0.3-0.3 0.2-0.6 0.5-0.2 0.4-0.3 0.8-0.1 0.4 0 0.8l27.1 109.3z"/>
		<path id="Layer" class="s11" d="m212.4 141.9c0-1.1 0.9-2 2-2h7.5c1.1 0 2 0.9 2 2v125.5c0 1.1-0.9 2-2 2h-7.5c-1.1 0-2-0.9-2-2z"/>
		<path id="Layer" class="s14" d="m218.2 263.5q-0.3 0-0.5-0.1-0.2-0.1-0.4-0.3-0.2-0.2-0.3-0.4-0.1-0.2-0.1-0.4v-115.2q0-0.2 0.1-0.5 0.1-0.2 0.3-0.4 0.2-0.1 0.4-0.2 0.2-0.1 0.5-0.1 0.2 0 0.4 0.1 0.3 0.1 0.4 0.2 0.2 0.2 0.3 0.4 0.1 0.3 0.1 0.5v115.2q0 0.2-0.1 0.4-0.1 0.3-0.3 0.4-0.2 0.2-0.4 0.3-0.2 0.1-0.4 0.1z"/>
		<path id="Layer" class="s8" d="m221.1 171.9c0 1.2-0.7 2.3-1.8 2.7-1.1 0.5-2.4 0.2-3.2-0.6-0.9-0.9-1.1-2.1-0.6-3.2 0.4-1.1 1.5-1.8 2.7-1.8q0.5 0 1.1 0.2 0.5 0.2 0.9 0.6 0.5 0.4 0.7 1 0.2 0.5 0.2 1.1z"/>
		<path id="Layer" class="s11" d="m223.4 131.7c0 2.1-1.2 4.1-3.2 4.9-2 0.8-4.3 0.4-5.8-1.1-1.5-1.6-2-3.8-1.1-5.8 0.8-2 2.7-3.3 4.9-3.3q1 0 2 0.4 1 0.4 1.7 1.2 0.7 0.7 1.1 1.7 0.4 1 0.4 2z"/>
		<path id="Layer" class="s14" d="m217.6 128h1.1v7.4h-1.1z"/>
		<path id="Layer" class="s14" d="m214.4 131.1h7.5v1.2h-7.5z"/>
		<path id="Layer" class="s11" d="m223.4 277.7c0 2.1-1.2 4.1-3.2 4.9-2 0.8-4.3 0.4-5.8-1.2-1.5-1.5-2-3.8-1.1-5.7 0.8-2 2.7-3.3 4.9-3.3q1 0 2 0.4 1 0.4 1.7 1.2 0.7 0.7 1.1 1.7 0.4 0.9 0.4 2z"/>
		<path id="Layer" class="s14" d="m214.4 277.1h7.5v1.2h-7.5z"/>
		<path id="Layer" class="s4" d="m47.1 67.4h182v27.8h-182z"/>
		<path id="Layer" class="s8" d="m217.8 320.7c-4.9 0-8.9-4-8.9-8.9 0-4.9 4-8.9 8.9-8.9 5 0 9 4 9 8.9 0 4.9-4 8.9-9 8.9z"/>
		<path id="Layer" class="s14" d="m47.1 331.7c0-1.3 1-2.3 2.2-2.3h177.5c1.3 0 2.3 1 2.3 2.3v32.5c0 1.2-1 2.2-2.3 2.2h-177.5c-1.2 0-2.2-1-2.2-2.2z"/>
		<path id="Layer" class="s15" d="m70.9 80.9l-9.7-7.6-9.7 7.6h4v5.8h11.4v-5.8h4z"/>
		<g id="Layer" style="opacity: .3">
			<path id="Layer" class="s11" d="m210.7 75.2h12.2v2.1h-12.2z"/>
			<path id="Layer" class="s11" d="m210.7 79h12.2v2h-12.2z"/>
			<path id="Layer" class="s11" d="m210.7 82.7h12.2v2.1h-12.2z"/>
		</g>
		<path id="Layer" class="s4" d="m51.5 249.3c0-1.1 1-2.1 2.1-2.1h37.9c1.2 0 2.1 1 2.1 2.1v37.9c0 1.2-0.9 2.1-2.1 2.1h-37.9c-1.1 0-2.1-0.9-2.1-2.1z"/>
		<path id="Layer" class="s11" d="m86.5 259.8l-8.8-6.1v4.9h-13.5q-0.8 0-1.4 0.3-0.7 0.3-1.2 0.8-0.5 0.5-0.8 1.2-0.3 0.7-0.3 1.4v18.6h2.3v-18.5q0-0.3 0.1-0.6 0.1-0.2 0.3-0.4 0.2-0.2 0.5-0.3 0.2-0.1 0.5-0.1h13.5v4.9z"/>
	</g>
	<g id="freepik--Character--inject-39">
		<path id="Layer" class="s8" d="m339.4 242.8l-4.5 18.6c0 0-47.1 8.5-53.7 20.2-6.6 11.8 16.2 70.3 16.2 70.3h10.3c0 0-6.4-47.8-2.1-52.7 4.3-4.9 50.6-14.6 50.6-14.6z"/>
		<path id="Layer" class="s10" d="m305.6 299.2c-4.3 4.8 2.1 52.7 2.1 52.7h-10.3c0 0-22.8-58.5-16.2-70.3 6.6-11.7 53.7-20.2 53.7-20.2l4.5-18.6 12.2 30.4 4.6 11.3c0 0-23.9 5-38.9 9.7-5.9 1.8-10.5 3.6-11.7 5z"/>
		<path id="Layer" class="s14" d="m356.2 284.5c0 0-23.9 5-38.9 9.7 4.2-11.2 22.3-18.5 22.3-18.5l1.5-15.8q1.5 1.5 2.8 3.2 1.4 1.6 2.7 3.2 1.3 1.7 2.6 3.4 1.2 1.7 2.4 3.5z"/>
		<path id="Layer" class="s16" d="m305 372.4l6.6-2.2-2-9.6-1.9-8.8-8.3 1.4 3 10.2 2.6 9z"/>
		<path id="Layer" class="s8" d="m313 369.8c0-0.8-9.5-0.1-9.5-0.1 0 0-5.8 6-11.5 7.4-5.6 1.4-2.4 4.8 3.9 4.7l15.7-0.2c4.5 0 1.6-3.8 1.4-11.8z"/>
		<path id="Layer" fill-rule="evenodd" class="s4" d="m297.7 372q-0.1-0.1-0.2-0.2-0.1-0.1-0.1-0.3 0-0.1 0-0.2 0-0.2 0-0.3 0-0.1 0.1-0.2 0-0.1 0.1-0.2 0.1-0.1 0.1-0.1 0.1-0.1 0.2-0.2 0.3-0.1 0.5-0.1 0.3-0.1 0.6-0.1 0.2-0.1 0.5-0.1 0.3 0 0.5 0.1c-0.7-0.4-1.4-0.9-1.4-1.4-0.1-0.5 0.1-0.6 0.6-0.8q0.1-0.1 0.3-0.1 0.1 0 0.3 0 0.1 0 0.3 0 0.1 0 0.3 0.1c1.3 0.5 2.1 2.7 2.1 2.8q0 0 0 0 0 0.1 0 0.1 0 0 0 0 0 0 0 0 0 0 0 0 0 0 0 0 0 0.1 0 0.1 0 0 0 0v0.1q-0.4 0.2-0.8 0.4-0.4 0.1-0.8 0.3-0.4 0.1-0.8 0.3-0.5 0.1-0.9 0.2-0.2 0-0.4 0.1-0.2 0-0.4-0.1-0.2 0-0.4 0-0.2-0.1-0.3-0.2zm0.5-1.2q-0.1 0-0.1 0-0.1 0.1-0.1 0.1 0 0.1-0.1 0.1 0 0.1 0 0.1c-0.1 0.4 0 0.5 0.1 0.5 0.4 0.4 2.2-0.2 3.5-0.8q-0.4-0.1-0.8-0.1-0.4-0.1-0.8-0.1-0.5 0-0.9 0-0.4 0.1-0.8 0.2zm1.2-2.5c-0.1 0.1-0.3 0.2-0.3 0.3 0 0.5 1.4 1.2 2.8 1.7q-0.1-0.3-0.3-0.6-0.2-0.3-0.4-0.5-0.2-0.3-0.4-0.5-0.3-0.2-0.6-0.4 0 0-0.1 0-0.1-0.1-0.1-0.1-0.1 0-0.2 0-0.1 0-0.1 0-0.1 0-0.1 0.1 0 0-0.1 0 0 0 0 0-0.1 0-0.1 0z"/>
		<path id="Layer" class="s14" d="m302.5 363.6l7.2-2.8-2-8.9-8.3 1.3 3.1 10.4z"/>
		<path id="Layer" class="s8" d="m309.6 347.5l-14.6 2.6 3.1 5.2 11.9-2.4-0.4-5.4z"/>
		<path id="Layer" class="s17" d="m370.6 376.3l-5 11.7q-0.8 1.6-1.9 3-1.2 1.4-2.7 2.3-1.5 1-3.2 1.5-1.7 0.5-3.5 0.5h-21.2q-1 0-2-0.2-1.1-0.2-2-0.6-1-0.4-1.9-0.9-0.8-0.6-1.6-1.4h-39.5q-1.1 0-2.3-0.2-1.1-0.3-2.1-0.8-1-0.5-1.9-1.3-0.9-0.7-1.5-1.7l-5.3-7.3z"/>
		<path id="Layer" class="s18" d="m370.6 376.3l-5 11.7q-0.8 1.6-1.9 3-1.2 1.4-2.7 2.3-1.5 1-3.2 1.5-1.7 0.5-3.5 0.5h-21.2q-1 0-2-0.2-1.1-0.2-2-0.6-1-0.4-1.9-0.9-0.8-0.6-1.6-1.4h-39.5q-1.1 0-2.3-0.2-1.1-0.3-2.1-0.8-1-0.5-1.9-1.3-0.9-0.7-1.5-1.7l-5.3-7.3z"/>
		<path id="Layer" class="s4" d="m278.3 249.6q-0.1 0-0.2-0.1-0.1 0-0.2-0.1 0-0.1 0-0.2 0-0.1 0-0.2c1.6-4 10.1-7.5 16.7-8.1q0.8-0.1 1.6-0.1 0.8-0.1 1.6-0.2 0.7-0.1 1.5-0.3 0.8-0.1 1.5-0.2 0.1-0.1 0.1-0.1 0.1 0 0.1 0 0.1 0 0.1 0 0.1 0 0.1 0.1 0.1 0 0.2 0 0 0.1 0.1 0.2 0 0 0 0.1 0 0.1 0 0.2c-0.1 0.3-0.2 0.5-6.8 1.2-6.3 0.6-14.6 4-16 7.6q0 0-0.1 0.1 0 0-0.1 0 0 0.1-0.1 0.1 0 0-0.1 0z"/>
		<path id="Layer" class="s4" d="m256 249.1h-0.2c-2.9-1.4-3.4-3.3-4.1-5.9l-0.1-0.3c-0.7-2.4-3.4-2-3.5-2q-0.1 0-0.2 0-0.1 0-0.1-0.1-0.1-0.1-0.1-0.1-0.1-0.1-0.1-0.2 0-0.1 0-0.2 0 0 0.1-0.1 0-0.1 0.1-0.1 0.1-0.1 0.2-0.1 0.7-0.1 1.4 0 0.7 0.2 1.3 0.5 0.6 0.4 1 0.9 0.5 0.6 0.7 1.2l0.1 0.4c0.7 2.4 1.1 4.1 3.6 5.3q0.1 0 0.2 0.1 0 0.1 0.1 0.1 0 0.1 0 0.2 0 0.1-0.1 0.2 0 0 0 0-0.1 0.1-0.1 0.1-0.1 0-0.1 0.1-0.1 0-0.1 0z"/>
		<path id="Layer" class="s17" d="m440.6 366h-2.4v-3.7h4.9q-0.1 0.6-0.2 1.1-0.2 0.6-0.5 1.1-0.4 0.5-0.8 0.9-0.4 0.4-1 0.6z"/>
		<path id="Layer" class="s17" d="m403.1 415.6c-18 0-32.5-17.5-32.5-39.2 0-21.7 14.5-39.2 32.5-39.2 17.9 0 32.5 17.5 32.5 39.2 0 21.7-14.6 39.2-32.5 39.2z"/>
		<path id="Layer" class="s19" d="m408.5 401.1c-11.3 0-20.5-11-20.5-24.7 0-13.7 9.2-24.7 20.5-24.7 11.3 0 20.5 11 20.5 24.7 0 13.7-9.2 24.7-20.5 24.7z"/>
		<path id="Layer" class="s4" d="m413.2 386.4c-4.7 0-8.5-4.6-8.5-10.3 0-5.7 3.8-10.3 8.5-10.3 4.7 0 8.6 4.6 8.6 10.3 0 5.7-3.9 10.3-8.6 10.3z"/>
		<path id="Layer" class="s18" d="m413.2 386.4c-4.7 0-8.5-4.6-8.5-10.3 0-5.7 3.8-10.3 8.5-10.3 4.7 0 8.6 4.6 8.6 10.3 0 5.7-3.9 10.3-8.6 10.3z"/>
		<path id="Layer" class="s17" d="m437.5 356.3c0 0 3.6 8 0 14.3q-4.1 1.9-8.4 3.5-4.3 1.5-8.7 2.6-4.5 1.1-9 1.6-4.5 0.6-9.1 0.7c-19.1 0 5.8-24.5 35.2-22.7z"/>
		<path id="Layer" class="s10" d="m437.5 356.3c0 0 3.6 8 0 14.3q-4.1 1.9-8.4 3.5-4.3 1.5-8.7 2.6-4.5 1.1-9 1.6-4.5 0.6-9.1 0.7c-19.1 0 5.8-24.5 35.2-22.7z"/>
		<path id="Layer" class="s2" d="m453.5 362q0-0.3-0.1-0.6-0.1-0.3-0.4-0.5-0.2-0.3-0.5-0.4-0.3-0.1-0.6-0.1-0.1 0-0.2 0-0.1 0-0.2 0.1-0.1 0-0.2 0-0.1 0.1-0.2 0.1-0.1-0.2-0.3-0.3-0.1-0.1-0.3-0.2-0.2-0.2-0.4-0.2-0.2-0.1-0.4-0.1-0.4 0-0.7 0.2-0.3 0.1-0.6 0.3-0.2 0.3-0.3 0.6-0.2 0.3-0.2 0.7 0 0.1 0 0.2 0 0 0.1 0.1 0 0.1 0 0.2 0 0.1 0.1 0.2-0.1 0.1-0.2 0.3-0.1 0.1-0.2 0.3-0.1 0.2-0.1 0.3 0 0.2 0 0.4 0 0.7 0.3 1.2 0.4 0.5 1 0.8 0.6 0.2 1.3 0.1 0.6-0.2 1-0.7 0.1 0.1 0.2 0.1 0.1 0.1 0.2 0.1 0 0 0.1 0 0.1 0 0.2 0 0.3 0 0.5 0 0.2-0.1 0.4-0.3 0.2-0.2 0.2-0.4 0.1-0.2 0.1-0.5 0-0.1 0-0.2 0-0.1 0-0.2-0.1-0.1-0.1-0.2-0.1-0.1-0.1-0.1 0.1-0.1 0.2-0.3 0.2-0.1 0.2-0.3 0.1-0.2 0.2-0.3 0-0.2 0-0.4z"/>
		<path id="Layer" class="s2" d="m446.7 368.3q0-0.2-0.1-0.4-0.1-0.2-0.3-0.3-0.1-0.2-0.3-0.2-0.2-0.1-0.4-0.1-0.1 0-0.1 0-0.1 0-0.2 0-0.1 0-0.1 0.1-0.1 0-0.1 0-0.1-0.1-0.2-0.2-0.1-0.1-0.2-0.1-0.2-0.1-0.3-0.2-0.1 0-0.3 0-0.2 0-0.4 0.1-0.2 0.1-0.4 0.3-0.1 0.1-0.2 0.3-0.1 0.2-0.1 0.5 0 0 0 0.1 0 0 0 0.1 0 0.1 0 0.1 0 0.1 0.1 0.1-0.3 0.3-0.4 0.7 0 0.4 0.1 0.8 0.2 0.4 0.6 0.6 0.3 0.2 0.7 0.2 0.2 0 0.3 0 0.1-0.1 0.3-0.1 0.1-0.1 0.2-0.2 0.1 0 0.2-0.2 0.1 0.1 0.1 0.1 0.1 0 0.1 0.1 0.1 0 0.2 0 0 0 0.1 0 0.2 0 0.3-0.1 0.2 0 0.3-0.1 0.1-0.2 0.2-0.3 0-0.2 0-0.3 0-0.1 0-0.2 0 0 0-0.1 0-0.1-0.1-0.1 0-0.1 0-0.1 0-0.1 0.1-0.2 0.1-0.1 0.1-0.2 0.1-0.1 0.1-0.2 0.1-0.1 0.1-0.3z"/>
		<path id="Layer" class="s8" d="m424.2 306.7c0 0 3.1 0.9 3.1 8 0 4.3-4.3 8.6-4.3 8.6 0 0-7-16.9 1.2-16.6z"/>
		<path id="Layer" class="s9" d="m424.2 306.7c0 0 3.1 0.9 3.1 8 0 4.3-4.3 8.6-4.3 8.6 0 0-7-16.9 1.2-16.6z"/>
		<path id="Layer" class="s4" d="m410.1 304.7h15.5c0 0 2.5 4.1-3.8 9-6.3 4.8-11.7-9-11.7-9z"/>
		<path id="Layer" class="s11" d="m425.4 315.3c-0.6 0-1-1.1-1-2.5 0-1.3 0.4-2.5 1-2.5 0.5 0 0.9 1.2 0.9 2.5 0 1.4-0.4 2.5-0.9 2.5z"/>
		<path id="Layer" class="s4" d="m338.4 330.3c0 5.5-22.2 45.1-24.4 46.7-2.3 1.6-31.3-0.2-31.3-0.2l2.2 8.2h79.7l33-64.2-21.8-31.6-39.9 1.1c0 0 2.5 34.4 2.5 40z"/>
		<path id="Layer" class="s14" d="m338.4 330.3c0 5.5-22.2 45.1-24.4 46.7-2.3 1.6-31.3-0.2-31.3-0.2l2.2 8.2h79.7l33-64.2-21.8-31.6-39.9 1.1c0 0 2.5 34.4 2.5 40z"/>
		<path id="Layer" class="s4" d="m222.1 317.2c0 0 25.9 19.9 38.3 60.7q0.6 1.8 1.6 3.3 1.1 1.5 2.5 2.6 1.5 1.1 3.2 1.7 1.7 0.5 3.6 0.5h38.3l-44.5-72.3-23.4-9.8z"/>
		<path id="Layer" class="s18" d="m219.1 314.9c0 0 28.6 22 41.3 63.1q0.6 1.7 1.6 3.2 1.1 1.5 2.5 2.6 1.5 1.1 3.2 1.7 1.7 0.5 3.6 0.5h38.3l-44.5-72.3-23.4-9.8z"/>
		<path id="Layer" class="s4" d="m442.3 352.5q0 0.6-0.3 1.1-0.3 0.5-0.7 0.9-0.4 0.4-1 0.6-0.5 0.2-1.1 0.2h-5.6q-0.4 0-0.8 0-0.4 0.1-0.7 0.3-0.4 0.1-0.7 0.4-0.3 0.2-0.5 0.5l-17 18.5q-0.1 0.3-0.3 0.5-0.3 0.1-0.5 0.3-0.2 0.2-0.4 0.4-0.3 0.1-0.5 0.3-4.2 2.3-8.6 4.1-4.5 1.8-9.1 3-4.7 1.2-9.4 1.8-4.8 0.6-9.6 0.6h-78.7q-1.5 0-3-0.6-1.5-0.6-2.6-1.6-1.1-1.1-1.8-2.5-0.7-1.4-0.8-3c-2-22.8-15.7-39.4-27.2-49.7q-1.4-1.2-2.8-2.4-1.4-1.2-2.9-2.3-1.4-1.1-2.9-2.2-1.5-1.1-3.1-2.1-1-0.7-2.2-1.3-1.2-0.5-2.4-0.8-1.2-0.4-2.5-0.6-1.3-0.2-2.6-0.1h-18.1c-2.3 0-3.9-3-3.2-5.1 3-9.1 8.6-18.8 14.1-27.2q1.8-2.8 3.8-5.6 1.9-2.7 3.9-5.4 2-2.7 4.1-5.3 2.1-2.6 4.3-5.2h25.3q1 0 1.9 0.3 0.9 0.2 1.8 0.7 0.8 0.4 1.5 1.1 0.7 0.6 1.2 1.4 0.5 0.7 0.9 1.5 0.3 0.8 0.5 1.6 0.2 0.8 0.2 1.6 0.1 0.9-0.1 1.7-0.5 3.9-0.8 7.8-0.4 4-0.4 7.9 0 4 0.2 7.9 0.2 3.9 0.7 7.8c3.7 31 17.4 59.1 24.6 71.9q0.9 1.7 2.3 3.1 1.3 1.4 3 2.4 1.6 1.1 3.5 1.6 1.9 0.6 3.9 0.6h19.6c14.4-4.1 25.6-44.4 25.6-54.9 0-11.2-11.4-38.1-11.4-38.1h56.5v13.4c1.1 0.1 0.6 0.2 0.9 0.4 21.6 8.7 29.1 30.8 31.8 43.7q0.1 0.5 0.2 1 0.1 0.5 0.1 1.1 0 0.5 0 1 0 0.5-0.1 1z"/>
		<path id="Layer" class="s17" d="m262.6 254.6h7.2q0.7 0 1.4-0.1 0.7-0.2 1.4-0.4 0.6-0.2 1.2-0.6 0.7-0.3 1.2-0.8l14.9-12q0.2-0.2 0.5-0.3 0.2-0.2 0.5-0.3 0.2 0 0.5-0.1 0.3 0 0.6 0h28.6c0.5 0 1.1-0.2 1.5-0.6 0.5-0.4 0.7-0.9 0.7-1.5 0-0.6-0.2-1.1-0.7-1.5-0.4-0.4-1-0.6-1.5-0.6h-28.6q-0.7 0-1.3 0.1-0.6 0.1-1.2 0.4-0.6 0.2-1.2 0.5-0.5 0.3-1 0.7l-14.9 12q-0.3 0.2-0.6 0.4-0.3 0.2-0.6 0.3-0.4 0.1-0.7 0.2-0.4 0-0.7 0h-7.2q-0.8 0-1.5-0.3-0.7-0.2-1.3-0.7-0.5-0.5-0.9-1.2-0.3-0.6-0.5-1.4l-0.6-4.6q-0.2-1.3-0.8-2.5-0.7-1.2-1.7-2.1-1-0.8-2.2-1.3-1.3-0.5-2.6-0.5h-5.5c-0.6-0.1-1.1 0.1-1.5 0.5-0.5 0.4-0.7 1-0.7 1.6 0 0.5 0.2 1.1 0.7 1.5 0.4 0.4 0.9 0.6 1.5 0.5h5.5q0.6 0 1.1 0.2 0.6 0.2 1 0.6 0.5 0.4 0.8 1 0.2 0.5 0.3 1.1l0.7 4.6q0.2 1.5 0.9 2.8 0.7 1.3 1.9 2.3 1.1 1 2.5 1.5 1.4 0.6 2.9 0.6z"/>
		<path id="Layer" class="s8" d="m280.7 260.1l-3.3 5.2h-30l-2.4-4.4q-0.2-0.5-0.3-1.1-0.2-0.6-0.1-1.2 0.1-0.6 0.4-1.2 0.3-0.5 0.7-0.9l8.9-9.2q0.1-0.1 0.3-0.2 0.1-0.1 0.2-0.2 0.2-0.1 0.3-0.2 0.2-0.1 0.3-0.2 0.1-0.1 0.2-0.1 0.1-0.1 0.2-0.1 0.1 0 0.1-0.1 0.1 0 0.2 0 0.2-0.1 0.4-0.2 0.3-0.1 0.5-0.1 0.2 0 0.4-0.1 0.3 0 0.5 0h17.1c0 0-0.1 4.9 4.4 4.6l1.5 5.3q0.2 0.6 0.3 1.1 0 0.6-0.1 1.2-0.1 0.6-0.2 1.1-0.2 0.5-0.5 1z"/>
		<path id="Layer" class="s12" d="m264 252.4h3.3l-13.4 8.2-2.9-8.5h3.4l1.3-5.6q0.1-0.1 0.2-0.1 0.1-0.1 0.2-0.1 0.1 0 0.1-0.1 0.1 0 0.2 0 0.2-0.1 0.4-0.2 0.3 0 0.5-0.1 0.2 0 0.4 0 0.3-0.1 0.5-0.1h14.9z"/>
		<path id="Layer" class="s12" d="m270.9 245.8l-14.9 11.5 11.8-11.5h3.1z"/>
		<path id="Layer" class="s12" d="m258.4 245.8l-4.1 11.5 2.1-11.1q0.2-0.1 0.4-0.2 0.3 0 0.5-0.1 0.2 0 0.4 0 0.3-0.1 0.5-0.1z"/>
		<path id="Layer" class="s17" d="m330.8 288.4c0-2.6 2.1-4.7 4.8-4.7h73.2c2.6 0 4.7 2.1 4.7 4.7v6c0 2.7-2.1 4.8-4.7 4.8h-73.2c-2.7 0-4.8-2.1-4.8-4.8z"/>
		<path id="Layer" class="s7" d="m353.5 288.4c0-2.6 2.2-4.7 4.8-4.7h50.5c2.6 0 4.7 2.1 4.7 4.7v6c0 2.6-2.1 4.8-4.7 4.8h-50.5c-2.6 0-4.8-2.2-4.8-4.8z"/>
		<path id="Layer" class="s8" d="m442.3 352.5q0 0.6-0.3 1.1-0.3 0.5-0.7 0.9-0.4 0.4-1 0.6-0.5 0.2-1.1 0.2h-5.6q-0.4 0-0.8 0-0.4 0.1-0.7 0.3-0.4 0.1-0.7 0.4-0.3 0.2-0.5 0.5l-17 18.5q-0.1 0.3-0.3 0.5-0.3 0.1-0.5 0.3-0.2 0.2-0.4 0.4-0.3 0.1-0.5 0.3-4.2 2.3-8.6 4.1-4.5 1.8-9.1 3-4.7 1.2-9.4 1.8-4.8 0.6-9.6 0.6h-13.2v-24.9q0-2.7 0.3-5.4 0.3-2.7 0.9-5.4 0.6-2.6 1.5-5.2 0.9-2.6 2-5.1l9.4-19.9c1-2.3 2.4-4.4 4-6.3 1.7-1.9 3.6-3.5 5.7-4.9 2.1-1.3 4.4-2.4 6.9-3.1 2.4-0.7 4.9-1 7.4-1h8.7l1-0.1q3.1 1.3 6 3 2.9 1.7 5.5 3.8 2.6 2.1 4.9 4.5 2.2 2.4 4.2 5.2 0.7 1 1.4 2.1 0.6 0.9 1.2 1.8 0.5 0.9 1 1.9 0.5 0.9 1 1.8 0.5 1 0.9 2 0.4 0.7 0.8 1.5 0.3 0.8 0.7 1.7 0.3 0.8 0.6 1.6 0.3 0.8 0.6 1.6 0.5 1.4 1 2.8 0.4 1.4 0.8 2.8 0.4 1.4 0.7 2.8 0.4 1.4 0.7 2.9 0.1 0.5 0.2 1 0 0.5 0.1 1 0 0.5 0 1 0 0.5-0.1 1z"/>
		<path id="Layer" class="s17" d="m292.8 236.5l11.2-14.6 1.6 1.2-11.2 14.7z"/>
		<path id="Layer" class="s8" d="m310.7 220.1h-5.3q-0.4 0-0.8 0.1-0.4 0.1-0.7 0.3-0.4 0.3-0.6 0.6-0.3 0.3-0.5 0.7l-0.6 1.6q-0.3 0.7-0.3 1.4 0.1 0.7 0.5 1.3 0.4 0.5 1 0.9 0.6 0.3 1.3 0.3h5.8q0.5 0 1-0.2 0.4-0.2 0.8-0.5 0.4-0.3 0.6-0.8 0.3-0.4 0.3-0.9l0.3-1.7q0.1-0.6-0.1-1.2-0.2-0.5-0.6-1-0.4-0.4-0.9-0.7-0.6-0.2-1.2-0.2z"/>
		<path id="Layer" class="s17" d="m249.3 224.6l2-0.4 2.8 13.1-2 0.4z"/>
		<path id="Layer" class="s8" d="m244.1 220.1h5.6q0.5 0 0.9 0.1 0.3 0.2 0.7 0.4 0.3 0.3 0.5 0.7 0.2 0.3 0.2 0.8l0.4 2.6q0.1 0.5-0.1 1-0.1 0.4-0.4 0.8-0.4 0.4-0.8 0.6-0.5 0.2-1 0.2h-5.7q-0.4 0-0.8-0.1-0.4-0.2-0.7-0.5-0.3-0.2-0.5-0.6-0.2-0.4-0.2-0.8l-0.4-2.6q-0.1-0.5 0.1-1 0.1-0.5 0.4-0.9 0.4-0.3 0.8-0.5 0.5-0.2 1-0.2z"/>
		<path id="Layer" class="s8" d="m281.4 279.1q-0.2 2.3-0.4 4.6-0.1 2.3-0.1 4.6 0 2.3 0 4.6 0.1 2.3 0.3 4.6 0.2 3.5 0.6 6.9l-12.7 24.2h-7.7l-0.7-0.6-0.8-0.7q-1.2-1-2.4-2-1.3-1-2.6-2-1.2-1-2.5-1.9-1.3-0.9-2.7-1.8-1-0.7-2.2-1.3-1.2-0.5-2.4-0.8-1.2-0.4-2.5-0.6-1.2-0.2-2.5-0.1h-18.2c-2.3 0-3.9-3-3.2-5.1 3-9.1 8.6-18.8 14.1-27.2q0 3.7-0.1 7.3-0.1 3.7-0.4 7.3-0.3 3.7-0.7 7.3-0.4 3.6-1 7.3h8.7c0 0 15.8-22.5 29.4-26.9l11.9-20.2q0.5 0.6 0.9 1.4 0.3 0.8 0.5 1.6 0.2 0.8 0.2 1.7 0.1 0.8-0.1 1.6-0.4 3.1-0.7 6.2z"/>
		<path id="Layer" class="s8" d="m230.6 290.7q0.1 2.4 0.1 4.8-0.1 2.4-0.4 4.8-0.3 2.4-0.8 4.8-0.5 2.3-1.3 4.6h-7.5c0 0 4.9-13.2 9.9-19z"/>
		<path id="Layer" class="s9" d="m230.6 290.7q0.1 2.4 0.1 4.8-0.1 2.4-0.4 4.8-0.3 2.4-0.8 4.8-0.5 2.3-1.3 4.6h-7.5c0 0 4.9-13.2 9.9-19z"/>
		<path id="Layer" class="s8" d="m265.9 290.7c0.2-0.1-7.5 20.4-7.5 20.4h-11.4q1.6-3.1 3.6-6 2-2.9 4.4-5.5 2.4-2.6 5.1-4.8 2.8-2.3 5.8-4.1z"/>
		<path id="Layer" class="s9" d="m265.9 290.7c0.2-0.1-7.5 20.4-7.5 20.4h-11.4q1.6-3.1 3.6-6 2-2.9 4.4-5.5 2.4-2.6 5.1-4.8 2.8-2.3 5.8-4.1z"/>
		<path id="Layer" class="s11" d="m255.5 310.1c-1.9 0-3.5-2.1-3.5-4.6 0-2.6 1.6-4.6 3.5-4.6 2 0 3.6 2 3.6 4.6 0 2.5-1.6 4.6-3.6 4.6z"/>
		<path id="Layer" class="s11" d="m226.5 308.6c-1.4 0-2.5-2.1-2.5-4.7 0-2.5 1.1-4.6 2.5-4.6 1.4 0 2.5 2.1 2.5 4.6 0 2.6-1.1 4.7-2.5 4.7z"/>
		<path id="Layer" class="s11" d="m262.4 298.5c-0.1 0.7-0.7 1.2-1.4 1.3-0.6 0.2-1.3-0.1-1.7-0.6-0.5-0.6-0.5-1.3-0.2-1.9 0.3-0.6 0.9-1 1.6-1q0.4 0 0.7 0.2 0.4 0.2 0.6 0.6 0.2 0.3 0.4 0.7 0.1 0.3 0 0.7z"/>
		<path id="Layer" class="s11" d="m228.8 299.6c-0.7 0-1.2-1-1.2-2.2 0-1.3 0.5-2.3 1.2-2.3 0.7 0 1.2 1 1.2 2.3 0 1.2-0.5 2.2-1.2 2.2z"/>
		<path id="Layer" class="s12" d="m281.2 297.5l-15.3 30.5h-5.2l-0.7-0.7 4.7-2 9.1-23.5-3.8 1.1 11.4-23.8q-0.2 2.3-0.3 4.6-0.1 2.3-0.2 4.6 0 2.3 0 4.6 0.1 2.3 0.3 4.6z"/>
		<path id="Layer" class="s4" d="m264.7 266.5c0 0-5.4 33.8-23.1 34-16.6 0.2-18.2-31.5-2.3-36.4 12.8-3.9 25.4 2.4 25.4 2.4z"/>
		<path id="Layer" class="s8" d="m264.7 266.5c0 0-5.4 33.8-23.1 34-16.6 0.2-18.2-31.5-2.3-36.4 12.8-3.9 25.4 2.4 25.4 2.4z"/>
		<path id="Layer" class="s9" d="m253.7 283.5c-1 8.5-7.3 14.8-14 14-6.7-0.8-11.3-8.4-10.3-17 1.1-8.5 7.3-14.8 14-14 6.8 0.8 11.3 8.4 10.3 17z"/>
		<path id="Layer" class="s11" d="m239.2 292.9c-2.9 0-5.3-3-5.3-6.8 0-3.8 2.4-6.9 5.3-6.9 3 0 5.4 3.1 5.4 6.9 0 3.8-2.4 6.8-5.4 6.8z"/>
		<path id="Layer" class="s11" d="m246.4 280.6c-1.4 0-2.6-1.6-2.6-3.5 0-1.9 1.2-3.4 2.6-3.4 1.5 0 2.7 1.5 2.7 3.4 0 1.9-1.2 3.5-2.7 3.5z"/>
		<path id="Layer" class="s8" d="m441.4 345.4h-5.3q-0.3 0-0.6 0.1-0.4 0.1-0.6 0.4-0.2 0.2-0.4 0.5-0.1 0.3-0.1 0.7v2.9q0 0.3 0.1 0.7 0.2 0.3 0.4 0.5 0.2 0.2 0.6 0.4 0.3 0.1 0.6 0.1h6.2q0.3-0.8 0.3-1.6 0-0.9-0.1-1.7-0.1-0.8-0.4-1.6-0.3-0.7-0.7-1.4z"/>
		<path id="Layer" class="s9" d="m441.4 345.4h-5.3q-0.3 0-0.6 0.1-0.4 0.1-0.6 0.4-0.2 0.2-0.4 0.5-0.1 0.3-0.1 0.7v2.9q0 0.3 0.1 0.7 0.2 0.3 0.4 0.5 0.2 0.2 0.6 0.4 0.3 0.1 0.6 0.1h6.2q0.3-0.8 0.3-1.6 0-0.9-0.1-1.7-0.1-0.8-0.4-1.6-0.3-0.7-0.7-1.4z"/>
		<path id="Layer" class="s12" d="m408.5 346.3l6.1 9c-20.1 21.7-47.7 24.5-52.2 24.9v-1.3c30.7-5.2 43.5-24.9 43.5-24.9l-9.5-11.9q3.1-4.2 6.8-7.7 3.8-3.5 8.2-6.2 4.4-2.7 9.3-4.4 4.9-1.8 10-2.6 0.7 1.1 1.4 2.2 0.6 0.8 1.2 1.8 0.5 0.9 1 1.8 0.5 0.9 1 1.9 0.5 0.9 0.9 1.9 0.4 0.8 0.8 1.6 0.3 0.8 0.7 1.6 0.3 0.8 0.6 1.6 0.3 0.8 0.6 1.6c-19.5 1.1-30.4 9.1-30.4 9.1z"/>
		<path id="Layer" class="s12" d="m401.4 342.8l2.6 4.7-4.8-5.5q3.3-3.6 7-6.5 3.8-3 8-5.4 4.2-2.4 8.7-4.1 4.5-1.7 9.2-2.7 0.6 0.9 1.1 1.8 0.6 0.9 1.1 1.9 0.5 0.9 1 1.8 0.4 1 0.9 2-4.6 0.4-9.2 1.4-4.5 1-8.9 2.5-4.4 1.5-8.6 3.5-4.2 2.1-8.1 4.6z"/>
		<path id="Layer" class="s15" d="m408.2 357.3c-23.1 19.8-42.2 22.5-45.9 22.9v-1.3c22.1-2.4 43.4-19.5 45.9-21.6z"/>
		<path id="Layer" class="s17" d="m305.6 235.8c0 0-0.2-1-2.8-1-2.7 0-3.6 3.9-3.6 3.9l1 3.2h3.7l1.7-0.6c0 0 6.6 1.7 7.2 2.8 0.6 1.1 1.6 1.3 1.2 0-0.3-1.3-7.4-4.2-7.4-4.2z"/>
		<path id="Layer" class="s17" d="m252.5 236.1q-0.2-0.3-0.4-0.6-0.2-0.2-0.5-0.4-0.2-0.1-0.6-0.2-0.3-0.1-0.6-0.1-0.4-0.1-0.9 0.1-0.4 0.1-0.8 0.4-0.3 0.3-0.5 0.7-0.2 0.4-0.2 0.8-0.1 0.3-0.1 0.6 0 0.4 0 0.7 0 0.3 0 0.6 0 0.3 0.1 0.6l-1.5 1.1c0 0-4.5 2.1-4.9 2.5-0.4 0.3-0.5 1.5 0.3 1.3 0.8-0.1 2-1.2 3.4-2q0.5-0.2 0.9-0.4 0.5-0.2 1-0.3 0.5-0.1 1-0.2 0.5-0.1 1-0.1l2.7-1.7z"/>
		<path id="Layer" class="s4" d="m231.1 317.4l-17.9 58.2 4.5 2.8 18-56.5-4.6-4.5z"/>
		<path id="Layer" class="s10" d="m231.1 317.4l-17.9 58.2 4.5 2.8 18-56.5-4.6-4.5z"/>
		<path id="Layer" class="s17" d="m238.6 316.8l-7.5 23.9h-1.4c-2.6-3.1-4.9-2.9-4.9-2.9l-0.9-1.3 5.6-19.7z"/>
		<path id="Layer" class="s17" d="m216.3 380.2c-2.2 0-3.9-2.4-3.9-5.4 0-3 1.7-5.5 3.9-5.5 2.1 0 3.8 2.5 3.8 5.5 0 3-1.7 5.4-3.8 5.4z"/>
		<path id="Layer" class="s8" d="m268.8 373.1h-7.7q-0.8 0-1.5-0.2-0.8-0.2-1.5-0.6-0.6-0.4-1.2-1-0.5-0.5-0.9-1.2c-4-7.6-15.7-26.9-32.2-31.7-20.6-6 11.2-9.6 22.6-1.3 11.5 8.2 22.4 36 22.4 36z"/>
		<path id="Layer" class="s18" d="m268.8 373.1h-7.7q-0.8 0-1.5-0.2-0.8-0.2-1.5-0.6-0.6-0.4-1.2-1-0.5-0.5-0.9-1.2c-4-7.6-15.7-26.9-32.2-31.7-20.6-6 11.2-9.6 22.6-1.3 11.5 8.2 22.4 36 22.4 36z"/>
		<path id="Layer" class="s17" d="m223.8 415.6c-17.9 0-32.5-17.5-32.5-39.2 0-21.7 14.6-39.2 32.5-39.2 18 0 32.5 17.5 32.5 39.2 0 21.7-14.5 39.2-32.5 39.2z"/>
		<path id="Layer" class="s19" d="m229.2 401.1c-11.3 0-20.4-11-20.4-24.7 0-13.7 9.1-24.7 20.4-24.7 11.4 0 20.5 11 20.5 24.7 0 13.7-9.1 24.7-20.5 24.7z"/>
		<path id="Layer" class="s4" d="m234 386.4c-4.8 0-8.6-4.6-8.6-10.3 0-5.7 3.8-10.3 8.6-10.3 4.7 0 8.5 4.6 8.5 10.3 0 5.7-3.8 10.3-8.5 10.3z"/>
		<path id="Layer" class="s18" d="m234 386.4c-4.8 0-8.6-4.6-8.6-10.3 0-5.7 3.8-10.3 8.6-10.3 4.7 0 8.5 4.6 8.5 10.3 0 5.7-3.8 10.3-8.5 10.3z"/>
		<path id="Layer" class="s8" d="m197.6 351.9h3.6q1.1 0 2.2-0.2 1.2-0.2 2.2-0.5 1.1-0.4 2.1-0.9 0.9-0.5 1.8-1.2c5.6-4.2 17.5-11.2 29.8-7.2 14.3 4.8 24 23.5 26.7 29.4q0.2 0.4 0.5 0.7 0.3 0.4 0.7 0.6 0.3 0.2 0.8 0.4 0.4 0.1 0.9 0.1c0 0-4.5-36.6-29.6-46.6-24.4-9.6-40.8 10.7-44.3 21.8q-0.2 0.6-0.1 1.2 0.1 0.7 0.5 1.2 0.4 0.6 0.9 0.9 0.6 0.3 1.3 0.3z"/>
		<path id="Layer" class="s4" d="m255.8 323.9l-5.3 16.8-12 37.7-4.6-2.8 11.6-37.8 5.4-17.4c1.4 1 3.1 2.2 4.9 3.5z"/>
		<path id="Layer" class="s10" d="m255.8 323.9l-5.3 16.8-12 37.7-4.6-2.8 11.6-37.8 5.4-17.4c1.4 1 3.1 2.2 4.9 3.5z"/>
		<path id="Layer" class="s17" d="m256.8 324.7l-5 16h-1.4c-2.6-3.1-4.9-2.9-4.9-2.9l-0.9-1.3 4.9-17.1q0 0 0 0 0.1 0.1 0.1 0.1 0 0 0.1 0 0 0 0 0l1.2 0.8q2.2 1.5 4.9 3.6z"/>
		<path id="Layer" class="s17" d="m237 380.2c-2.1 0-3.9-2.4-3.9-5.4 0-3 1.8-5.5 3.9-5.5 2.1 0 3.8 2.5 3.8 5.5 0 3-1.7 5.4-3.8 5.4z"/>
		<path id="Layer" class="s8" d="m340.9 189.8l-1.1 13.1-0.4 5.7c0 0-1.7 3.2-4.2 7.2-4.3 6.5-10.9 15-16.3 13.6-8.5-2.1-3.3-17.4-3.3-17.4l7.3 1.9c0 0 12.2-23.6 18-24.1z"/>
		<path id="Layer" class="s14" d="m339.8 202.9l-0.4 5.7c0 0-1.7 3.3-4.2 7.2-1.8-5.9 3.6-15.1 3.6-15.1q0.2 0.3 0.3 0.5 0.2 0.3 0.3 0.6 0.2 0.2 0.3 0.5 0.1 0.3 0.1 0.6z"/>
		<path id="Layer" class="s4" d="m379 171.3c0 0-1.7 5 2.1 14.7 4.8 12.2-0.9 25.6-15.8 25-14.9-0.5-15.4-10.2-16.3-20.5-0.8-10.3 3.7-26.6 8.3-26.6 4.5-0.1 21.7 7.4 21.7 7.4z"/>
		<path id="Layer" class="s8" d="m373.5 245.4c9 15.4 12.9 28.6 1.9 42.4-11.1 13.8-33.9 46.2-34.4 49.5-0.5 3.3 18.5 50.2 18.5 50.2l-8.2 5.2c0 0-32.3-51.6-34.7-63.2-2.4-11.7 27.3-53.8 27.3-53.8 0 0-3.9-18.1-4.5-32.9-0.7-14.8 34.1 2.6 34.1 2.6z"/>
		<path id="Layer" class="s10" d="m373.5 245.4c9 15.4 12.9 28.6 1.9 42.4-11.1 13.8-33.9 46.2-34.4 49.5-0.5 3.3 18.5 50.2 18.5 50.2l-8.2 5.2c0 0-32.3-51.6-34.7-63.2-2.4-11.7 27.3-53.8 27.3-53.8 0 0-3.9-18.1-4.5-32.9-0.7-14.8 34.1 2.6 34.1 2.6z"/>
		<path id="Layer" class="s16" d="m358.9 409.6l6.2-3.2-3.4-9.2-3.2-8.4-8 2.5 4.4 9.7 4 8.6z"/>
		<path id="Layer" class="s8" d="m366 405.5c0-0.8-9.5-0.1-9.5-0.1 0 0-5.8 5.9-11.5 7.3-5.7 1.4-2.5 4.7 3.8 4.7h15.7c4.5 0 1.7-3.8 1.5-11.9z"/>
		<path id="Layer" fill-rule="evenodd" class="s4" d="m350.7 407.6q-0.1-0.1-0.2-0.2-0.1-0.1-0.1-0.3 0-0.1 0-0.2 0-0.2 0-0.3 0.1-0.1 0.1-0.2 0.1-0.1 0.1-0.2 0.1-0.1 0.2-0.1 0.1-0.1 0.1-0.1 0.3-0.2 0.6-0.2 0.2-0.1 0.5-0.1 0.3 0 0.5 0 0.3 0 0.6 0c-0.8-0.4-1.5-0.9-1.5-1.4q0-0.5 0.6-0.8 0.2-0.1 0.3-0.1 0.2 0 0.3 0 0.2 0 0.3 0 0.2 0 0.3 0.1c1.3 0.5 2.1 2.8 2.1 2.9q0.1 0 0.1 0 0 0 0 0.1 0 0 0 0 0 0-0.1 0v0.1q-0.5 0.3-1 0.5-0.5 0.1-1 0.3-0.4 0.2-0.9 0.3-0.6 0.1-1.1 0.1-0.1 0.1-0.2 0-0.1 0-0.2 0-0.1 0-0.2-0.1-0.1 0-0.2-0.1zm0.5-1.2q-0.1 0-0.1 0 0 0.1-0.1 0.1 0 0.1 0 0.1-0.1 0.1-0.1 0.1c-0.1 0.4 0 0.5 0.1 0.5 0.4 0.4 2.2-0.1 3.6-0.7q-0.4-0.2-0.9-0.2-0.4-0.1-0.8-0.1-0.4 0-0.9 0-0.4 0.1-0.8 0.2zm1.2-2.5c-0.1 0-0.3 0.2-0.3 0.4 0 0.4 1.3 1.1 2.8 1.7q-0.2-0.4-0.3-0.7-0.2-0.2-0.4-0.5-0.2-0.3-0.4-0.5-0.3-0.2-0.6-0.4 0 0-0.1 0 0 0-0.1 0 0-0.1-0.1-0.1 0 0 0 0-0.1 0-0.2 0 0 0.1-0.1 0.1 0 0-0.1 0 0 0-0.1 0.1z"/>
		<path id="Layer" class="s14" d="m355 401.2l6.8-3.8-3.2-8.6-8.1 2.6 4.5 9.8z"/>
		<path id="Layer" class="s8" d="m360.5 385.6l-14.1 4.8 3.8 4.6 11.5-4.1-1.2-5.3z"/>
		<path id="Layer" class="s4" d="m373.5 240.4v5l-34.1-2.6v-5.9l34.1 3.5z"/>
		<path id="Layer" class="s11" d="m354.3 244.5l-7.5-0.7 0.5-5.7 7.5 0.7z"/>
		<path id="Layer" class="s8" d="m363.3 247.1l-1.7-0.1 0.5-8.6 1.6 0.1z"/>
		<path id="Layer" class="s10" d="m363.3 247.1l-1.7-0.1 0.5-8.6 1.6 0.1z"/>
		<path id="Layer" class="s8" d="m342.4 244.8l-1.6-0.1 0.4-8.6 1.7 0.1z"/>
		<path id="Layer" class="s10" d="m342.4 244.8l-1.6-0.1 0.4-8.6 1.7 0.1z"/>
		<path id="Layer" class="s8" d="m384.6 193.9q-1.1 3.1-2.1 5.9-1.5 4.3-2.7 7.9-0.9 2.6-1.7 5.3-0.8 2.8-1.5 5.5-0.7 2.8-1.2 5.5-0.6 2.8-1 5.6c-0.5 3.7-0.8 7.2-1.1 11.1l-34.1-2.8c-1.4-22.6-0.8-35-0.1-41.3 0.7-6.6 1.7-6.8 1.7-6.8 0 0 7.7-0.7 14.3-0.7q1.9 0.1 3.9 0.2 1.9 0.2 3.8 0.3 1.9 0.2 3.8 0.5 1.9 0.2 3.8 0.6 1.8 0.2 3.6 0.6 1.8 0.3 3.6 0.7 1.7 0.4 3.5 0.9 1.8 0.5 3.5 1z"/>
		<path id="Layer" class="s16" d="m357.9 196.7c8.5-1.1 11-4.7 11-4.7-5.3-5-0.9-13.7-0.9-13.7l-10.1 1.8q0.1 0.6 0.1 1.1 0.1 0.5 0.1 1.1 0.1 0.5 0.1 1 0.1 0.6 0.1 1.1c0 6.1-2.7 6.2-2.7 6.2-1.8 3.3 2.3 6.1 2.3 6.1z"/>
		<path id="Layer" class="s14" d="m357.8 180.1q0.1 0.6 0.2 1.1 0.1 0.5 0.1 1.1 0.1 0.5 0.1 1 0 0.6 0.1 1.1c4.8-1.1 9.7-6.1 9.7-6.1z"/>
		<path id="Layer" class="s8" d="m346.7 152c0 0-5.5 20.8 8.2 25.3 13.7 4.5-2.2-34.8-8.2-25.3z"/>
		<path id="Layer" class="s14" d="m346.7 152c0 0-5.5 20.8 8.2 25.3 13.7 4.5-2.2-34.8-8.2-25.3z"/>
		<path id="Layer" class="s4" d="m370 146.5c13.8 2.4 15.2 37.1-4.2 31.8-5.7-1.6-24.7-20-14.8-26.1q2.1-1.4 4.4-2.4 2.3-1.1 4.7-1.8 2.4-0.7 4.9-1.1 2.5-0.4 5-0.4z"/>
		<path id="Layer" class="s16" d="m359.1 152.4c-8.6 0.4-11.1 5.1-11.3 14-0.3 11.1 2.5 18.9 13.2 16 14.4-3.9 12.4-30.7-1.9-30z"/>
		<path id="Layer" class="s20" d="m353.4 165.7q-0.3 0.4-0.5 0.9-0.3 0.5-0.6 0.9-0.3 0.5-0.6 0.9-0.3 0.5-0.7 0.9 0.2 0.3 0.5 0.5 0.3 0.1 0.6 0.3 0.3 0.1 0.6 0.1 0.3 0 0.6 0z"/>
		<path id="Layer" class="s4" d="m358.5 164.7c0 0.7 0.4 1.2 0.9 1.2 0.5 0 0.9-0.6 0.8-1.3 0-0.7-0.4-1.3-0.9-1.2-0.4 0-0.8 0.6-0.8 1.3z"/>
		<path id="Layer" class="s4" d="m359.6 163.4l-1.6-0.6c0 0 0.8 1.4 1.6 0.6z"/>
		<path id="Layer" class="s4" d="m349.7 164.8c0 0.7 0.4 1.2 0.9 1.2 0.5 0 0.8-0.6 0.8-1.3 0-0.7-0.4-1.3-0.9-1.2-0.4 0-0.8 0.6-0.8 1.3z"/>
		<path id="Layer" class="s4" d="m350.8 163.5l-1.6-0.6c0 0 0.8 1.3 1.6 0.6z"/>
		<path id="Layer" class="s4" d="m362.1 160.3q0 0-0.1 0 0 0-0.1 0 0-0.1 0-0.1-0.1 0-0.1 0-0.3-0.4-0.7-0.6-0.4-0.2-0.9-0.3-0.4-0.2-0.9-0.2-0.4 0-0.9 0.1-0.2 0-0.3-0.1-0.2-0.1-0.2-0.3 0-0.1 0.1-0.3 0.1-0.1 0.3-0.2 0.5-0.1 1.1 0 0.5 0 1.1 0.1 0.5 0.2 1 0.5 0.5 0.3 0.9 0.6 0.1 0.1 0.1 0.2 0.1 0.1 0.1 0.1 0 0.1-0.1 0.2 0 0.1-0.1 0.2 0 0 0 0-0.1 0-0.1 0.1 0 0-0.1 0 0 0-0.1 0z"/>
		<path id="Layer" class="s4" d="m348.7 160q-0.2 0-0.3-0.1-0.1-0.1-0.2-0.2 0-0.1 0-0.3 0.1-0.1 0.2-0.2 0.4-0.3 0.9-0.5 0.4-0.3 0.9-0.4 0.5-0.1 1-0.1 0.5 0 1 0.1 0.1 0 0.1 0.1 0.1 0 0.1 0.1 0.1 0.1 0.1 0.1 0 0.1 0 0.2-0.1 0.1-0.1 0.2-0.1 0-0.1 0.1-0.1 0-0.2 0-0.1 0-0.2 0-0.4-0.1-0.8-0.1-0.4 0.1-0.8 0.2-0.4 0.1-0.7 0.3-0.4 0.1-0.7 0.4 0 0 0 0-0.1 0.1-0.1 0.1 0 0-0.1 0 0 0 0 0z"/>
		<path id="Layer" class="s4" d="m369.2 166.4c0 0-4.4-6.9-4-12.4 0 0-17.4-6.1-17.4 11.2 0 0-2.4-15.3 12.4-16.3 14.8-1 15.7 20.6 8.4 27.4 0 0.1 3.3-5.6 0.6-9.9z"/>
		<path id="Layer" class="s16" d="m367.9 168.3q0-0.8 0.3-1.5 0.3-0.7 0.9-1.2 0.5-0.5 1.2-0.7 0.7-0.3 1.5-0.3c2.7 0.2 4.2 5.6-2.4 7.2-0.9 0.3-1.5-0.6-1.5-3.5z"/>
		<path id="Layer" class="s4" d="m370 146.5c0 0-12.3-2.9-20.8 3.9-8.5 6.8 14.5 7.8 14.5 7.8l-5.6-3.2c0 0 7.1 2.8 10.3 2z"/>
		<path id="Layer" class="s4" d="m356.2 159.3c-1-0.2-9.4-1.5-9.8-4.6-0.3-3 3.8-4.9 4-5q0 0 0.1 0 0 0 0.1 0 0 0 0.1 0.1 0 0 0.1 0.1 0 0 0 0.1 0 0 0 0.1-0.1 0.1-0.1 0.1-0.1 0-0.1 0.1c0 0-3.9 1.7-3.6 4.3 0.3 2.2 6.8 3.7 9.3 4.1q0 0 0.1 0 0 0.1 0.1 0.1 0 0.1 0 0.1 0 0.1 0 0.1 0 0.1 0 0.2-0.1 0-0.1 0-0.1 0.1-0.1 0.1-0.1 0-0.1 0z"/>
		<path id="Layer" class="s4" d="m353 172q0.2 0.3 0.4 0.7 0.1 0.3 0.3 0.7 0.2 0.4 0.3 0.7 0.2 0.4 0.3 0.8l0.6-0.1c2.5-0.6 3.5-1.7 3.8-2.7q0.1-0.3 0.1-0.6 0.1-0.3 0.1-0.6-0.1-0.3-0.1-0.6-0.1-0.4-0.2-0.6-0.6 0.3-1.1 0.7-0.6 0.3-1.2 0.6-0.6 0.2-1.2 0.4-0.6 0.2-1.3 0.4c-0.4 0.1-0.8 0.2-0.8 0.2z"/>
		<path id="Layer" class="s11" d="m353.8 171.8l0.5 0.8c2.3-0.5 3.9-1.2 4.5-2.1q0-0.1 0-0.2-0.1-0.1-0.1-0.2 0-0.1-0.1-0.2 0-0.1 0-0.2-0.6 0.3-1.1 0.7-0.6 0.3-1.2 0.6-0.6 0.2-1.2 0.4-0.6 0.2-1.3 0.4z"/>
		<path id="Layer" class="s20" d="m354.9 174.8c2.5-0.6 3.5-1.7 3.8-2.7q-0.3 0.1-0.7 0.2-0.3 0.1-0.7 0.3-0.3 0.1-0.6 0.3-0.3 0.2-0.6 0.4-0.2 0.1-0.4 0.3-0.2 0.2-0.3 0.4-0.2 0.1-0.3 0.3-0.1 0.2-0.2 0.5z"/>
		<path id="Layer" class="s4" d="m348.9 176.6q0.3 0.8 0.9 1.5 0.5 0.6 1.3 1.1 0.7 0.5 1.6 0.8 0.8 0.3 1.7 0.3c5.5 0.1 13.2-6.1 13.2-6.1l0.9 2.3c0 0-7.6 5.6-13.7 5.6-3.2 0-6.3-3.3-5.9-5.5z"/>
		<path id="Layer" class="s4" d="m356.9 181.9l-0.7-1.8q-0.4-0.1-0.7-0.2-0.4-0.1-0.8-0.2-0.3 0-0.7-0.1-0.4 0-0.7-0.1-0.3 0-0.5 0-0.2 0.1-0.4 0.1-0.2 0-0.5 0.1-0.2 0.1-0.4 0.2 0.1 0.4 0.3 0.7 0.1 0.4 0.4 0.7 0.2 0.3 0.6 0.5 0.3 0.2 0.7 0.3 0.4 0.1 0.9 0.1 0.4 0.1 0.8 0 0.4 0 0.9-0.1 0.4 0 0.8-0.2z"/>
		<path id="Layer" class="s13" d="m356.9 181.9l-0.7-1.8q-0.4-0.1-0.7-0.2-0.4-0.1-0.8-0.2-0.3 0-0.7-0.1-0.4 0-0.7-0.1-0.3 0-0.5 0-0.2 0.1-0.4 0.1-0.2 0-0.5 0.1-0.2 0.1-0.4 0.2 0.1 0.4 0.3 0.7 0.1 0.4 0.4 0.7 0.2 0.3 0.6 0.5 0.3 0.2 0.7 0.3 0.4 0.1 0.9 0.1 0.4 0.1 0.8 0 0.4 0 0.9-0.1 0.4 0 0.8-0.2z"/>
		<path id="Layer" class="s8" d="m382 170.3c-3.3 6.4-9.6 10.8-14 7-4.4-3.8-1.5-20.9-1.5-20.9-9.5-4-19.8-1.7-19.8-1.7-0.3-6.5 7.1-14.5 22.6-10.9q1.7 0.3 3.4 1 1.6 0.7 3.1 1.7 1.4 1 2.6 2.3 1.3 1.2 2.2 2.7 0.1 0.2 0.2 0.3 0.1 0.2 0.2 0.3 0.1 0.2 0.1 0.3 0.1 0.2 0.2 0.4 0.2 0.3 0.3 0.6 0.2 0.3 0.3 0.7 0.2 0.3 0.3 0.6 0.1 0.4 0.2 0.7 0.2 0.4 0.3 0.8 0.1 0.4 0.2 0.8 0.1 0.4 0.2 0.8 0.1 0.4 0.1 0.8 0.3 1.5 0.4 3 0 1.4-0.1 2.9-0.2 1.5-0.6 2.9-0.4 1.5-0.9 2.9z"/>
		<path id="Layer" class="s4" d="m346.7 152q2.6-0.6 5.3-0.9 2.7-0.2 5.4-0.1 2.7 0.2 5.3 0.7 2.7 0.5 5.2 1.5 0.3 0.6 0.6 1.3 0.3 0.7 0.6 1.3 0.2 0.7 0.5 1.4 0.2 0.7 0.4 1.4c0.2 1.3-26.6-0.4-28.2-1.9-1.5-1.5 3.6-2.2 3.6-2.2z"/>
		<path id="Layer" class="s12" d="m379.8 160.8l0.6 2-12.5 9.5 9.3-9.8-3.1-5.2 6.5-5.7q0.1 0.1 0.2 0.3 0.1 0.1 0.2 0.3 0.1 0.1 0.1 0.3 0.1 0.1 0.2 0.3 0.2 0.3 0.3 0.6 0.2 0.4 0.3 0.7 0.2 0.3 0.3 0.7 0.1 0.3 0.2 0.7 0.2 0.3 0.3 0.7 0.1 0.4 0.2 0.8 0.1 0.4 0.2 0.8 0.1 0.4 0.1 0.8z"/>
		<path id="Layer" class="s12" d="m382.4 155.5l-5.3 3.5 0.5 1.8-1.7-3 5.4-5q0.2 0.3 0.3 0.7 0.2 0.3 0.3 0.6 0.2 0.4 0.3 0.7 0.1 0.3 0.2 0.7z"/>
		<path id="Layer" class="s4" d="m331.4 201q0 0.1 0 0.3-0.1 0.2-0.2 0.3-0.1 0.2-0.3 0.2-0.1 0.1-0.3 0.1h-9.5q-0.2 0-0.4-0.1-0.2 0-0.3-0.2-0.1-0.1-0.2-0.3-0.1-0.2-0.2-0.3l-2.1-18.7q0-0.2 0-0.4 0.1-0.2 0.2-0.3 0.1-0.2 0.3-0.3 0.2-0.1 0.4-0.1h9.4q0.2 0 0.4 0.1 0.2 0.1 0.4 0.3 0.1 0.1 0.2 0.3 0.1 0.2 0.1 0.4z"/>
		<path id="Layer" class="s13" d="m328.3 182.2l2.1 18.8q0 0.2 0 0.3 0 0.2-0.1 0.3-0.1 0.2-0.3 0.2-0.2 0.1-0.3 0.1h-8c-0.6 0-1.5-0.3-1.6-0.8l-2.1-18.9c-0.1-0.6 0.8-1 1.4-1h8q0.1 0 0.3 0.1 0.2 0.1 0.3 0.2 0.1 0.2 0.2 0.3 0.1 0.2 0.1 0.4z"/>
		<path id="Layer" class="s16" d="m316.4 212.2l3.2-9.3q-0.2-0.7-0.3-1.4-0.1-0.8-0.2-1.5-0.1-0.8-0.1-1.5-0.1-0.8-0.1-1.5c0.3-2.2 6-3.7 6.3-3.2 0.3 0.5 2.2 6.8 1.5 8.4-0.7 1.6-4.1 2.2-4.1 2.2l-1.9 9z"/>
		<path id="Layer" class="s8" d="m369.8 184.4c0 0-8.2 3.7-10.9 3.1-1.2-0.3-3.8-3.1-3.8-3.1l-2.2 4.8c0 0 0.7 5.7 3.4 9.1 2.7 3.4 15.8-6.7 15.8-6.7z"/>
		<path id="Layer" class="s14" d="m353.4 191.1c0 0-0.2 7.4 3.1 9.3 3.4 2 12.9-6.8 12.9-6.8 0 0-12.7 10.5-16-2.5z"/>
		<path id="Layer" class="s4" d="m352.7 236.9h-1.2c0-17.1 5.5-38.2 5.9-39.7l-0.2-8h1.3l0.1 8.2v0.1c-0.1 0.2-5.8 21.9-5.9 39.4z"/>
		<path id="Layer" class="s14" d="m379.8 207.7q-0.9 2.6-1.7 5.3-0.8 2.8-1.5 5.5-0.7 2.8-1.2 5.5-0.6 2.8-1 5.6c-20.5-3.2-27.5-24.7-27.7-25.4 0.4 0.3 20.1 14.5 28.7-0.4z"/>
		<path id="Layer" class="s16" d="m354.4 205.4l-6.2-5.6c0 0-2-3.2-2.6-3.9-0.6-0.7-9.6 0.8-9.6 0.8 0 0 1.6 4 2.1 5.2 0.5 1.2 4.2 1.2 5.9 1.2h1.7l5.2 6.2z"/>
		<path id="Layer" class="s8" d="m384.6 193.9c3.7 3.3-2.4 34.7-13.7 31.7-11.3-3.1-23.2-17.3-23.2-17.3l2.9-6.8c0 0 14.7 11.4 17.9 11.5 3.2 0.1 4.9-2.9 6.9-9.2 2.1-6.3 9.2-9.9 9.2-9.9z"/>
	</g>
</svg>