<svg version="1.2" xmlns="http://www.w3.org/2000/svg" viewBox="0 0 750 500" width="750" height="500">
	<title>Take Away-pana-svg</title>
	<style>
		.s0 { fill: #f5f5f5 } 
		.s1 { fill: #ebebeb } 
		.s2 { fill: #fafafa } 
		.s3 { fill: #e0e0e0 } 
		.s4 { fill: #263238 } 
		.s5 { fill: #0076cd } 
		.s6 { fill: #ffffff } 
		.s7 { fill: #ffbe9d } 
		.s8 { fill: #000000 } 
		.s9 { fill: #455a64 } 
		.s10 { fill: #eb996e } 
	</style>
	<g id="freepik--background-complete--inject-14">
		<path id="Layer" class="s0" d="m191.2 328.5h-104.1v-80.4h104.1z"/>
		<path id="Layer" class="s1" d="m113.2 327.9c0.1 0 0.2-17.9 0.2-40 0-22.1-0.1-40-0.2-40-0.2 0-0.3 17.9-0.3 40 0 22.1 0.1 40 0.3 40z"/>
		<path id="Layer" class="s2" d="m103.9 319.2h-8v-9h8z"/>
		<path id="Layer" class="s1" d="m147.6 248.3h11.9v17.2h-11.9z"/>
		<path id="Layer" class="s1" d="m147.6 311.1h11.9v17.1h-11.9z"/>
		<path id="Layer" class="s1" d="m59 329.6h171.9v132.6h-171.9z"/>
		<path id="Layer" class="s3" d="m187.8 461.3c-0.1 0-0.3-29.6-0.3-66 0-36.5 0.2-66 0.3-66 0.2 0 0.4 29.5 0.4 66 0 36.4-0.2 66-0.4 66z"/>
		<path id="Layer" class="s2" d="m203.2 432h13.2v14.9h-13.2z"/>
		<path id="Layer" class="s3" d="m111.4 329.9h19.6v28.3h-19.6z"/>
		<path id="Layer" class="s3" d="m111.4 433.5h19.6v28.3h-19.6z"/>
		<path id="Layer" class="s1" d="m365.3 96q-0.7 0.1-1.3 0.2-0.6 0.1-1.2 0.1-0.7 0-1.3-0.1-0.6-0.1-1.2-0.2 0.6-0.1 1.2-0.2 0.6-0.1 1.3-0.1 0.6 0 1.2 0.1 0.6 0.1 1.3 0.2z"/>
		<path id="Layer" class="s1" d="m375.3 96q-0.7 0.1-1.3 0.2-0.6 0.1-1.2 0.1-0.7 0-1.3-0.1-0.6-0.1-1.2-0.2 0.6-0.1 1.2-0.2 0.6-0.1 1.3-0.1 0.6 0 1.2 0.1 0.6 0.1 1.3 0.2z"/>
		<path id="Layer" class="s1" d="m385.3 96q-0.7 0.1-1.3 0.2-0.6 0.1-1.2 0.1-0.7 0-1.3-0.1-0.6-0.1-1.2-0.2 0.6-0.1 1.2-0.2 0.6-0.1 1.3-0.1 0.6 0 1.2 0.1 0.6 0.1 1.3 0.2z"/>
		<path id="Layer" class="s1" d="m395.3 96q-0.7 0.1-1.3 0.2-0.6 0.1-1.2 0.1-0.7 0-1.3-0.1-0.6-0.1-1.2-0.2 0.6-0.1 1.2-0.2 0.6-0.1 1.3-0.1 0.6 0 1.2 0.1 0.6 0.1 1.3 0.2z"/>
		<path id="Layer" class="s1" d="m405.3 96q-0.7 0.1-1.3 0.2-0.6 0.1-1.2 0.1-0.7 0-1.3-0.1-0.6-0.1-1.2-0.2 0.6-0.1 1.2-0.2 0.6-0.1 1.3-0.1 0.6 0 1.2 0.1 0.6 0.1 1.3 0.2z"/>
		<path id="Layer" class="s1" d="m415.3 96q-0.7 0.1-1.3 0.2-0.6 0.1-1.2 0.1-0.7 0-1.3-0.1-0.6-0.1-1.2-0.2 0.6-0.1 1.2-0.2 0.6-0.1 1.3-0.1 0.6 0 1.2 0.1 0.6 0.1 1.3 0.2z"/>
		<path id="Layer" class="s1" d="m425.3 96q-0.7 0.1-1.3 0.2-0.6 0.1-1.2 0.1-0.7 0-1.3-0.1-0.6-0.1-1.2-0.2 0.6-0.1 1.2-0.2 0.6-0.1 1.3-0.1 0.6 0 1.2 0.1 0.6 0.1 1.3 0.2z"/>
		<path id="Layer" class="s1" d="m435.3 96q-0.7 0.1-1.3 0.2-0.6 0.1-1.2 0.1-0.7 0-1.3-0.1-0.6-0.1-1.2-0.2 0.6-0.1 1.2-0.2 0.6-0.1 1.3-0.1 0.6 0 1.2 0.1 0.6 0.1 1.3 0.2z"/>
		<path id="Layer" class="s1" d="m445.3 96q-0.7 0.1-1.3 0.2-0.6 0.1-1.2 0.1-0.7 0-1.3-0.1-0.6-0.1-1.2-0.2 0.6-0.1 1.2-0.2 0.6-0.1 1.3-0.1 0.6 0 1.2 0.1 0.6 0.1 1.3 0.2z"/>
		<path id="Layer" class="s1" d="m455.3 96q-0.7 0.1-1.3 0.2-0.6 0.1-1.2 0.1-0.7 0-1.3-0.1-0.6-0.1-1.2-0.2 0.6-0.1 1.2-0.2 0.6-0.1 1.3-0.1 0.6 0 1.2 0.1 0.6 0.1 1.3 0.2z"/>
		<path id="Layer" class="s1" d="m465.3 96q-0.7 0.1-1.3 0.2-0.6 0.1-1.2 0.1-0.7 0-1.3-0.1-0.6-0.1-1.2-0.2 0.6-0.1 1.2-0.2 0.6-0.1 1.3-0.1 0.6 0 1.2 0.1 0.6 0.1 1.3 0.2z"/>
		<path id="Layer" class="s1" d="m475.3 96q-0.7 0.1-1.3 0.2-0.6 0.1-1.2 0.1-0.7 0-1.3-0.1-0.6-0.1-1.2-0.2 0.6-0.1 1.2-0.2 0.6-0.1 1.3-0.1 0.6 0 1.2 0.1 0.6 0.1 1.3 0.2z"/>
		<path id="Layer" class="s1" d="m485.3 96q-0.7 0.1-1.3 0.2-0.6 0.1-1.2 0.1-0.7 0-1.3-0.1-0.6-0.1-1.2-0.2 0.6-0.1 1.2-0.2 0.6-0.1 1.3-0.1 0.6 0 1.2 0.1 0.6 0.1 1.3 0.2z"/>
		<path id="Layer" class="s1" d="m495.3 96q-0.7 0.1-1.3 0.2-0.6 0.1-1.2 0.1-0.7 0-1.3-0.1-0.6-0.1-1.2-0.2 0.6-0.1 1.2-0.2 0.6-0.1 1.3-0.1 0.6 0 1.2 0.1 0.6 0.1 1.3 0.2z"/>
		<path id="Layer" class="s1" d="m505.3 96q-0.7 0.1-1.3 0.2-0.6 0.1-1.2 0.1-0.7 0-1.3-0.1-0.6-0.1-1.2-0.2 0.6-0.1 1.2-0.2 0.6-0.1 1.3-0.1 0.6 0 1.2 0.1 0.6 0.1 1.3 0.2z"/>
		<path id="Layer" class="s1" d="m515.3 96q-0.7 0.1-1.3 0.2-0.6 0.1-1.2 0.1-0.7 0-1.3-0.1-0.6-0.1-1.2-0.2 0.6-0.1 1.2-0.2 0.6-0.1 1.3-0.1 0.6 0 1.2 0.1 0.6 0.1 1.3 0.2z"/>
		<path id="Layer" class="s1" d="m525.3 96q-0.7 0.1-1.3 0.2-0.6 0.1-1.2 0.1-0.7 0-1.3-0.1-0.6-0.1-1.2-0.2 0.6-0.1 1.2-0.2 0.6-0.1 1.3-0.1 0.6 0 1.2 0.1 0.6 0.1 1.3 0.2z"/>
		<path id="Layer" class="s1" d="m535.3 96q-0.7 0.1-1.3 0.2-0.6 0.1-1.2 0.1-0.7 0-1.3-0.1-0.6-0.1-1.2-0.2 0.6-0.1 1.2-0.2 0.6-0.1 1.3-0.1 0.6 0 1.2 0.1 0.6 0.1 1.3 0.2z"/>
		<path id="Layer" class="s1" d="m545.3 96q-0.7 0.1-1.3 0.2-0.6 0.1-1.2 0.1-0.7 0-1.3-0.1-0.6-0.1-1.2-0.2 0.6-0.1 1.2-0.2 0.6-0.1 1.3-0.1 0.6 0 1.2 0.1 0.6 0.1 1.3 0.2z"/>
		<path id="Layer" class="s1" d="m555.3 96q-0.7 0.1-1.3 0.2-0.6 0.1-1.2 0.1-0.7 0-1.3-0.1-0.6-0.1-1.2-0.2 0.6-0.1 1.2-0.2 0.6-0.1 1.3-0.1 0.6 0 1.2 0.1 0.6 0.1 1.3 0.2z"/>
		<path id="Layer" class="s1" d="m565.3 96q-0.7 0.1-1.3 0.2-0.6 0.1-1.2 0.1-0.7 0-1.3-0.1-0.6-0.1-1.2-0.2 0.6-0.1 1.2-0.2 0.6-0.1 1.3-0.1 0.6 0 1.2 0.1 0.6 0.1 1.3 0.2z"/>
		<path id="Layer" class="s1" d="m575.3 96q-0.7 0.1-1.3 0.2-0.6 0.1-1.2 0.1-0.7 0-1.3-0.1-0.6-0.1-1.2-0.2 0.6-0.1 1.2-0.2 0.6-0.1 1.3-0.1 0.6 0 1.2 0.1 0.6 0.1 1.3 0.2z"/>
		<path id="Layer" class="s1" d="m585.3 96q-0.7 0.1-1.3 0.2-0.6 0.1-1.2 0.1-0.7 0-1.3-0.1-0.6-0.1-1.2-0.2 0.6-0.1 1.2-0.2 0.6-0.1 1.3-0.1 0.6 0 1.2 0.1 0.6 0.1 1.3 0.2z"/>
		<path id="Layer" class="s1" d="m587.8 103.4q-0.1-0.3-0.1-0.6-0.1-0.3-0.1-0.6-0.1-0.3-0.1-0.7 0-0.3 0.1-0.6-0.1-0.3-0.1-0.6 0-0.3 0.1-0.7 0-0.3 0.1-0.6 0-0.3 0.1-0.6 0.1 0.3 0.2 0.6 0 0.3 0.1 0.6 0 0.4 0 0.7 0 0.3 0 0.6 0 0.3 0 0.6 0 0.4 0 0.7-0.1 0.3-0.1 0.6-0.1 0.3-0.2 0.6z"/>
		<path id="Layer" class="s1" d="m587.8 113.4q-0.1-0.3-0.1-0.6-0.1-0.3-0.1-0.6-0.1-0.3-0.1-0.7 0-0.3 0.1-0.6-0.1-0.3-0.1-0.6 0-0.3 0.1-0.7 0-0.3 0.1-0.6 0-0.3 0.1-0.6 0.1 0.3 0.2 0.6 0 0.3 0.1 0.6 0 0.4 0 0.7 0 0.3 0 0.6 0 0.3 0 0.6 0 0.4 0 0.7-0.1 0.3-0.1 0.6-0.1 0.3-0.2 0.6z"/>
		<path id="Layer" class="s1" d="m587.8 123.4q-0.1-0.3-0.1-0.6-0.1-0.3-0.1-0.6-0.1-0.3-0.1-0.7 0-0.3 0.1-0.6-0.1-0.3-0.1-0.6 0-0.3 0.1-0.7 0-0.3 0.1-0.6 0-0.3 0.1-0.6 0.1 0.3 0.2 0.6 0 0.3 0.1 0.6 0 0.4 0 0.7 0 0.3 0 0.6 0 0.3 0 0.6 0 0.4 0 0.7-0.1 0.3-0.1 0.6-0.1 0.3-0.2 0.6z"/>
		<path id="Layer" class="s1" d="m587.8 133.4q-0.1-0.6-0.2-1.2 0-0.7 0-1.3 0-0.6 0-1.2 0.1-0.7 0.2-1.3 0.1 0.6 0.2 1.3 0.1 0.6 0.1 1.2 0 0.6-0.1 1.3-0.1 0.6-0.2 1.2z"/>
		<path id="Layer" class="s1" d="m587.8 143.4q-0.1-0.6-0.2-1.2 0-0.7 0-1.3 0-0.6 0-1.2 0.1-0.7 0.2-1.3 0.1 0.6 0.2 1.3 0.1 0.6 0.1 1.2 0 0.6-0.1 1.3-0.1 0.6-0.2 1.2z"/>
		<path id="Layer" class="s1" d="m589.8 151.5c0 0.1-0.9 0.2-2 0.2h-0.2v-0.2q0-0.3 0-0.6-0.1-0.3-0.1-0.6 0-0.3 0.1-0.7 0-0.3 0.1-0.6 0-0.3 0.1-0.6 0.1 0.3 0.2 0.6 0.1 0.3 0.1 0.6 0 0.4 0 0.7 0 0.3 0 0.6v0.6l-0.3-0.3q0.3 0 0.5 0 0.3 0 0.5 0 0.3 0.1 0.5 0.1 0.2 0.1 0.5 0.2z"/>
		<path id="Layer" class="s1" d="m599.8 151.5q-0.6 0.1-1.3 0.2-0.6 0-1.2 0-0.7 0-1.3 0-0.6-0.1-1.2-0.2 0.6-0.2 1.2-0.2 0.6-0.1 1.3-0.1 0.6 0 1.2 0.1 0.7 0 1.3 0.2z"/>
		<path id="Layer" class="s1" d="m609.8 151.5q-0.6 0.1-1.3 0.2-0.6 0-1.2 0-0.7 0-1.3 0-0.6-0.1-1.2-0.2 0.6-0.2 1.2-0.2 0.6-0.1 1.3-0.1 0.6 0 1.2 0.1 0.7 0 1.3 0.2z"/>
		<path id="Layer" class="s1" d="m619.8 151.5q-0.6 0.1-1.3 0.2-0.6 0-1.2 0-0.7 0-1.3 0-0.6-0.1-1.2-0.2 0.6-0.2 1.2-0.2 0.6-0.1 1.3-0.1 0.6 0 1.2 0.1 0.7 0 1.3 0.2z"/>
		<path id="Layer" class="s1" d="m629.8 151.5q-0.6 0.1-1.3 0.2-0.6 0-1.2 0-0.7 0-1.3 0-0.6-0.1-1.2-0.2 0.6-0.2 1.2-0.2 0.6-0.1 1.3-0.1 0.6 0 1.2 0.1 0.7 0 1.3 0.2z"/>
		<path id="Layer" class="s1" d="m639.8 151.5q-0.6 0.1-1.3 0.2-0.6 0-1.2 0-0.7 0-1.3 0-0.6-0.1-1.2-0.2 0.6-0.2 1.2-0.2 0.6-0.1 1.3-0.1 0.6 0 1.2 0.1 0.7 0 1.3 0.2z"/>
		<path id="Layer" class="s1" d="m649.8 151.5q-0.6 0.1-1.3 0.2-0.6 0-1.2 0-0.7 0-1.3 0-0.6-0.1-1.2-0.2 0.6-0.2 1.2-0.2 0.6-0.1 1.3-0.1 0.6 0 1.2 0.1 0.7 0 1.3 0.2z"/>
		<path id="Layer" class="s1" d="m659.8 151.5q-0.6 0.1-1.3 0.2-0.6 0-1.2 0-0.7 0-1.3 0-0.6-0.1-1.2-0.2 0.6-0.2 1.2-0.2 0.6-0.1 1.3-0.1 0.6 0 1.2 0.1 0.7 0 1.3 0.2z"/>
		<path id="Layer" class="s1" d="m669.8 151.5q-0.6 0.1-1.3 0.2-0.6 0-1.2 0-0.7 0-1.3 0-0.6-0.1-1.2-0.2 0.6-0.2 1.2-0.2 0.6-0.1 1.3-0.1 0.6 0 1.2 0.1 0.7 0 1.3 0.2z"/>
		<path id="Layer" class="s1" d="m673.7 157.6q-0.2-0.6-0.2-1.3-0.1-0.6-0.1-1.2 0-0.7 0.1-1.3 0-0.6 0.2-1.2 0.1 0.6 0.2 1.2 0 0.6 0 1.3 0 0.6 0 1.2-0.1 0.7-0.2 1.3z"/>
		<path id="Layer" class="s1" d="m673.7 167.6q-0.2-0.6-0.2-1.3-0.1-0.6-0.1-1.2 0-0.7 0.1-1.3 0-0.6 0.2-1.2 0.1 0.6 0.2 1.2 0 0.6 0 1.3 0 0.6 0 1.2-0.1 0.7-0.2 1.3z"/>
		<path id="Layer" class="s1" d="m673.7 177.6q-0.2-0.6-0.2-1.3-0.1-0.6-0.1-1.2 0-0.7 0.1-1.3 0-0.6 0.2-1.2 0.1 0.6 0.2 1.2 0 0.6 0 1.3 0 0.6 0 1.2-0.1 0.7-0.2 1.3z"/>
		<path id="Layer" class="s1" d="m673.7 187.6q-0.2-0.6-0.2-1.3-0.1-0.6-0.1-1.2 0-0.7 0.1-1.3 0-0.6 0.2-1.2 0.1 0.6 0.2 1.2 0 0.6 0 1.3 0 0.6 0 1.2-0.1 0.7-0.2 1.3z"/>
		<path id="Layer" class="s1" d="m673.7 197.6q-0.2-0.6-0.2-1.3-0.1-0.6-0.1-1.2 0-0.7 0.1-1.3 0-0.6 0.2-1.2 0.1 0.6 0.2 1.2 0 0.6 0 1.3 0 0.6 0 1.2-0.1 0.7-0.2 1.3z"/>
		<path id="Layer" class="s1" d="m673.7 207.6q-0.2-0.6-0.2-1.3-0.1-0.6-0.1-1.2 0-0.7 0.1-1.3 0-0.6 0.2-1.2 0.1 0.6 0.2 1.2 0 0.6 0 1.3 0 0.6 0 1.2-0.1 0.7-0.2 1.3z"/>
		<path id="Layer" class="s1" d="m673.7 217.6q-0.2-0.6-0.2-1.3-0.1-0.6-0.1-1.2 0-0.7 0.1-1.3 0-0.6 0.2-1.2 0.1 0.6 0.2 1.2 0 0.6 0 1.3 0 0.6 0 1.2-0.1 0.7-0.2 1.3z"/>
		<path id="Layer" class="s1" d="m673.7 227.6q-0.2-0.6-0.2-1.3-0.1-0.6-0.1-1.2 0-0.7 0.1-1.3 0-0.6 0.2-1.2 0.1 0.6 0.2 1.2 0 0.6 0 1.3 0 0.6 0 1.2-0.1 0.7-0.2 1.3z"/>
		<path id="Layer" class="s1" d="m673.7 237.6q-0.2-0.6-0.2-1.3-0.1-0.6-0.1-1.2 0-0.7 0.1-1.3 0-0.6 0.2-1.2 0.1 0.6 0.2 1.2 0 0.6 0 1.3 0 0.6 0 1.2-0.1 0.7-0.2 1.3z"/>
		<path id="Layer" class="s1" d="m673.7 247.6q-0.2-0.6-0.2-1.3-0.1-0.6-0.1-1.2 0-0.7 0.1-1.3 0-0.6 0.2-1.2 0.1 0.6 0.2 1.2 0 0.6 0 1.3 0 0.6 0 1.2-0.1 0.7-0.2 1.3z"/>
		<path id="Layer" class="s1" d="m673.7 257.6q-0.2-0.6-0.2-1.3-0.1-0.6-0.1-1.2 0-0.7 0.1-1.3 0-0.6 0.2-1.2 0.1 0.6 0.2 1.2 0 0.6 0 1.3 0 0.6 0 1.2-0.1 0.7-0.2 1.3z"/>
		<path id="Layer" class="s1" d="m417.7 113c0 0-7.7-4.3-15.3 14.1-7.6 18.3-10.2 28.8-10.2 28.8 0 0-2.1 3.8-4.9 1.6-2.7-2.2-6.7-8.8-11-7.2-4.3 1.6-5.4 6.8-4 14 1.5 7.3 4 23.3 4.2 24.8 0.3 1.4-0.4 3.6-2.5 2.4-2.1-1.3-14.6-13.1-19.9-6.9-5.2 6.3 2 25.9 2.8 28 0.8 2.2 0.4 3.2-0.6 3.8-1 0.6-4.8-3.8-8.5-7-3.7-3.2-8.5-6.3-11.2-2.5-2.8 3.9-2.6 19 13.7 42.4l8.2 10.3 13.2-1.8c27.9-5.5 38.5-16.2 39.2-20.9 0.7-4.7-4.9-5.7-9.8-5.9-4.9-0.2-10.7 0.3-11-0.9-0.3-1.1 0.1-2.1 2.2-3.1 2-1 20.9-10.1 21.5-18.2 0.5-8.2-16.7-8.3-19-8.9-2.4-0.6-1.4-2.6-0.2-3.5 1.1-0.9 14.2-10.7 20.2-14.9 6.1-4.2 8.9-8.7 6.9-12.9-2-4.1-9.4-2.1-12.9-2.4-3.6-0.3-2.4-4.6-2.4-4.6 0 0 5.4-9.3 12.7-27.8 7.3-18.5-1.5-20.8-1.5-20.8"/>
		<path id="Layer" class="s3" d="m359 257c5.4-13.6 13-32.2 21.5-52.8 8.5-20.6 16.1-39.3 21.6-52.8 2.7-6.8 4.9-12.2 6.4-16l1.8-4.3q0.3-0.8 0.5-1.2 0 0 0-0.1 0 0 0-0.1 0.1 0 0.1-0.1 0 0 0-0.1c0 0 0 0.2-0.1 0.4-0.1 0.3-0.2 0.7-0.4 1.2-0.4 1-1 2.5-1.7 4.4-1.5 3.8-3.6 9.3-6.3 16.1-5.4 13.5-13 32.2-21.5 52.8-8.5 20.6-16.1 39.2-21.6 52.7"/>
		<path id="Layer" class="s3" d="m381.6 159.8q0.1 0.1 0.1 0.2 0.1 0.1 0.1 0.2 0.1 0.1 0.1 0.2 0.1 0.1 0.1 0.2c0.3 0.6 0.6 1.4 1 2.5 0.7 2 1.7 4.9 2.7 8.1 1 3.2 1.9 6 2.6 8.1l0.8 2.5q0.1 0.1 0.1 0.2 0 0.1 0.1 0.3 0 0.1 0 0.2 0 0.1 0.1 0.2-0.1-0.1-0.2-0.2 0-0.1-0.1-0.2 0-0.1-0.1-0.2 0-0.1-0.1-0.2c-0.2-0.6-0.5-1.4-0.9-2.5-0.7-2-1.7-4.9-2.7-8.1l-2.6-8.1c-0.4-1-0.6-1.8-0.8-2.5q-0.1-0.1-0.1-0.2-0.1-0.1-0.1-0.3 0-0.1 0-0.2-0.1-0.1-0.1-0.2z"/>
		<path id="Layer" class="s3" d="m390.6 182.9c0-0.2 5.8-2.4 13-5.1 7.2-2.7 13.1-4.9 13.1-4.7 0.1 0.1-5.7 2.4-13 5.1-7.2 2.7-13.1 4.8-13.1 4.7z"/>
		<path id="Layer" class="s3" d="m376.1 213.9q0.2 0 0.3 0 0.1-0.1 0.2-0.1 0.2 0 0.3 0 0.1 0 0.2 0l2.7-0.2c2.2-0.2 5.3-0.4 8.7-0.9 3.4-0.4 6.4-0.8 8.6-1.1l2.7-0.5q0.1 0 0.2 0 0.1 0 0.3 0 0.1-0.1 0.2-0.1 0.1 0 0.3 0.1-0.2 0-0.3 0-0.1 0.1-0.2 0.1-0.1 0-0.2 0.1-0.2 0-0.3 0c-0.6 0.2-1.5 0.4-2.6 0.6-2.2 0.4-5.2 0.9-8.6 1.3-3.4 0.4-6.5 0.6-8.8 0.7-1.1 0-2 0.1-2.6 0.1q-0.1 0-0.3 0-0.1 0-0.2 0-0.2 0-0.3-0.1-0.1 0-0.3 0z"/>
		<path id="Layer" class="s3" d="m363.4 194.8q0.1 0.1 0.2 0.2 0.1 0.1 0.2 0.1 0 0.1 0.1 0.2 0.1 0.1 0.1 0.2c0.4 0.5 0.9 1.1 1.5 2 1.2 1.7 2.8 4 4.6 6.6 1.8 2.7 3.4 5 4.5 6.7 0.6 0.9 1 1.6 1.3 2.1q0.1 0.1 0.1 0.2 0.1 0.1 0.2 0.2 0 0.1 0.1 0.2 0 0.1 0.1 0.2c0 0.1-0.3-0.2-0.6-0.7q-0.6-0.7-1.5-2c-1.2-1.7-2.8-4-4.6-6.6-1.8-2.7-3.4-5-4.5-6.7-0.6-0.9-1-1.6-1.3-2.1q-0.1-0.1-0.2-0.2 0-0.1-0.1-0.2 0-0.1-0.1-0.2 0-0.1-0.1-0.2z"/>
		<path id="Layer" class="s3" d="m347.2 220.6q0.1 0.1 0.2 0.2 0.1 0.1 0.2 0.2 0.1 0.1 0.2 0.2 0.1 0.2 0.1 0.3 0.8 1 1.9 2.5c1.6 2.2 3.7 5.1 6 8.5 2.3 3.3 4.4 6.3 5.9 8.5 0.7 1 1.3 1.9 1.7 2.6q0.1 0.1 0.2 0.3 0.1 0.1 0.1 0.2 0.1 0.1 0.2 0.3 0 0.1 0.1 0.2-0.1-0.1-0.2-0.2-0.1-0.1-0.2-0.2-0.1-0.1-0.2-0.2 0-0.2-0.1-0.3l-1.9-2.5c-1.5-2.2-3.7-5.1-6-8.5-2.3-3.3-4.4-6.3-5.9-8.5l-1.7-2.6q-0.1-0.1-0.2-0.2 0-0.2-0.1-0.3-0.1-0.1-0.2-0.2 0-0.2-0.1-0.3z"/>
		<path id="Layer" class="s3" d="m363.8 243.9q0.1 0 0.3-0.1 0.1 0 0.3 0 0.1 0 0.3-0.1 0.1 0 0.3 0l3.3-0.4c2.8-0.3 6.7-0.7 11-1.3 4.3-0.7 8.2-1.3 10.9-1.8l3.4-0.6q0.1 0 0.3-0.1 0.1 0 0.3 0 0.1 0 0.3 0 0.1-0.1 0.3-0.1-0.2 0.1-0.3 0.1-0.1 0.1-0.3 0.1-0.1 0.1-0.3 0.1-0.1 0-0.3 0.1c-0.8 0.2-1.9 0.4-3.3 0.7-2.8 0.6-6.6 1.3-10.9 1.9-4.3 0.6-8.2 1-11 1.3-1.4 0.1-2.6 0.2-3.4 0.2q-0.1 0-0.3 0-0.2 0-0.3 0-0.2 0-0.3 0-0.2 0-0.4 0z"/>
		<path id="Layer" fill-rule="evenodd" class="s0" d="m708.5 286.7q-0.3 2.3-0.9 4.5-0.6 2.3-1.5 4.4-1 2.2-2.1 4.2l-0.1 0.1q-0.6 0.9-1.2 1.7-0.6 0.9-1.3 1.7-0.6 0.9-1.3 1.7-0.6 0.8-1.3 1.6l-20.1 26.6c-0.6 0.8-1.3 1.4-2.2 1.9-0.9 0.4-1.8 0.6-2.8 0.6-1 0-2-0.2-2.9-0.6-0.8-0.5-1.6-1.1-2.2-1.9l-20.4-27c-1.7-2.4-3.4-4-4.7-6.3l-0.1-0.1c-5.6-9.4-6.4-20.9-2.3-31.1 4.2-10.1 12.8-17.8 23.4-20.6 10.5-2.9 21.8-0.7 30.5 6 8.7 6.7 13.8 17 13.8 28q0 2.3-0.3 4.6zm-28.9 9.5c1.9-0.8 3.6-1.9 5-3.4 1.4-1.4 2.6-3.1 3.3-5 0.8-1.9 1.2-3.9 1.2-5.9 0-6.3-3.8-11.9-9.5-14.3-5.8-2.4-12.5-1.1-16.9 3.3-4.4 4.5-5.7 11.1-3.3 16.9 2.4 5.8 8 9.6 14.3 9.6 2-0.1 4-0.5 5.9-1.2z"/>
		<path id="Layer" class="s0" d="m542.9 125.8v41.3q0 0.4 0.1 0.7 0.1 0.3 0.4 0.5 0.2 0.2 0.5 0.3 0.3 0.1 0.6 0.2h86.7q0.3 0 0.6-0.2 0.3-0.1 0.5-0.3 0.2-0.3 0.3-0.6 0.2-0.3 0.2-0.6l-0.2-15.1q0-0.1-0.1-0.3 0-0.1 0-0.2-0.1-0.2-0.1-0.3-0.1-0.1-0.2-0.2l-12.4-16.6q-0.1-0.2-0.2-0.3-0.2-0.1-0.3-0.2-0.2-0.1-0.4-0.1-0.2 0-0.4 0l-14.3-0.2q-0.3 0-0.6-0.1-0.3-0.1-0.5-0.3-0.2-0.3-0.4-0.6-0.1-0.3-0.1-0.6v-6.2q0-0.3-0.1-0.6-0.1-0.3-0.4-0.6-0.2-0.2-0.5-0.3-0.3-0.1-0.6-0.1h-56.5q-0.3 0-0.6 0.1-0.3 0.1-0.5 0.4-0.3 0.2-0.4 0.5-0.1 0.3-0.1 0.6z"/>
		<path id="Layer" class="s1" d="m606.6 137.3v13.2q0.1 0.2 0.1 0.4 0.1 0.2 0.2 0.3 0.2 0.1 0.3 0.2 0.2 0.1 0.4 0.1l19.1-0.4q0.3 0 0.5-0.1 0.2-0.1 0.3-0.4 0.1-0.2 0.1-0.5 0-0.2-0.1-0.4l-9-13.2q-0.1-0.1-0.2-0.2-0.1-0.1-0.2-0.1-0.1-0.1-0.2-0.1-0.1 0-0.2 0l-10.2 0.3q-0.2 0-0.3 0-0.2 0.1-0.3 0.3-0.1 0.1-0.2 0.2-0.1 0.2-0.1 0.4z"/>
		<path id="Layer" class="s0" d="m541.2 170h93.3v2.9h-93.3z"/>
		<path id="Layer" class="s1" d="m569.3 177.6c-3.6 3.6-9.4 3.6-13 0-3.7-3.6-3.7-9.4 0-13 3.6-3.6 9.4-3.6 13 0 3.6 3.6 3.6 9.4 0 13z"/>
		<path id="Layer" class="s2" d="m568.2 171.1c0 2.2-1.3 4.2-3.3 5-2.1 0.9-4.4 0.4-5.9-1.2-1.6-1.5-2.1-3.8-1.2-5.9 0.8-2 2.8-3.3 5-3.3q1.1 0 2.1 0.4 1 0.4 1.7 1.2 0.8 0.7 1.2 1.7 0.4 1 0.4 2.1z"/>
		<path id="Layer" class="s1" d="m602.5 168.8c-0.2-0.1-0.4-10.1-0.4-22.3 0-12.3 0.2-22.3 0.4-22.3 0.3 0 0.5 10 0.5 22.3 0 12.2-0.2 22.2-0.5 22.2z"/>
		<path id="Layer" class="s1" d="m619.6 177.6c-3.6 3.6-9.4 3.6-13 0-3.6-3.6-3.6-9.4 0-13 3.6-3.6 9.4-3.6 13 0 3.6 3.6 3.6 9.4 0 13z"/>
		<path id="Layer" class="s2" d="m618.5 171.1c0 2.2-1.3 4.2-3.3 5-2.1 0.9-4.4 0.4-6-1.1-1.5-1.6-2-3.9-1.1-6 0.8-2 2.8-3.3 5-3.3q1.1 0 2.1 0.4 1 0.4 1.7 1.2 0.8 0.7 1.2 1.7 0.4 1 0.4 2.1z"/>
		<path id="Layer" class="s1" d="m613.1 154.1c0 0.2-1.3 0.4-3 0.4-1.7 0-2.9-0.2-2.9-0.4 0-0.2 1.3-0.4 2.9-0.4 1.6 0 3 0.1 3 0.4z"/>
	</g>
	<g id="freepik--Floor--inject-14">
		<path id="Layer" class="s4" d="m726.1 462.2c0 0.1-156.7 0.3-350 0.3-193.2 0-350-0.2-350-0.3 0-0.2 156.7-0.3 350-0.3 193.4 0 350 0.2 350 0.3z"/>
	</g>
	<g id="freepik--Plant--inject-14">
		<path id="Layer" class="s5" d="m165.9 457.8c13.4-9.4 16.6-26.8 16.1-42.4-0.1-2.7 0.2-5.4-1-7.7-1.2-2.3-4.2-3.9-6.5-2.8-1.9 0.9-2.8 3.2-3.9 5q-0.5 0.9-1.2 1.8-0.7 0.8-1.5 1.6-0.7 0.7-1.6 1.3-0.9 0.6-1.8 1.1c-1.7 0.9-3.8 1.4-5.4 0.5-2.3-1.3-2.5-4.4-2.5-7q0.1-7.3 0.1-14.5 0.1-1 0.1-2 0-0.9-0.1-1.9-0.1-1-0.3-1.9-0.2-1-0.4-1.9c-0.8-2.5-2.6-4.8-5.1-5.5-2.4-0.7-5.5 0.7-6 3.3q-0.1 0.4-0.1 0.8 0 0.4 0 0.8 0 0.4 0 0.8 0 0.4 0 0.8 0 0.4-0.1 0.8-0.1 0.4-0.3 0.7-0.2 0.4-0.5 0.7-0.4 0.2-0.7 0.4c-1 0.3-2.1-0.5-2.9-1.2-2.7-2.7-4.5-6-6.2-9.4-1.6-3.4-3.3-6.8-5.7-9.7-2.4-2.9-5.8-5.2-9.5-5.4-3.7-0.2-7.7 2.1-8.7 5.7-0.9 3.7 1.2 7.4 3.5 10.4q1.3 1.7 2.7 3.2 1.4 1.6 2.9 3 1.5 1.5 3.1 2.8 1.6 1.3 3.3 2.6 0.3 0.2 0.6 0.4 0.3 0.2 0.6 0.5 0.2 0.3 0.4 0.6 0.3 0.3 0.4 0.6c0.6 1.8-1.1 3.5-2.8 4-1.9 0.7-4 0.5-6.1 0.7-2 0.2-4.2 1.1-5 3-1 2.7 1.2 5.5 3.3 7.3q1.7 1.4 3.4 2.6 1.8 1.2 3.6 2.3 1.9 1.1 3.8 2 1.9 0.9 3.9 1.6 0.8 0.2 1.5 0.5 0.7 0.3 1.4 0.6 0.7 0.4 1.3 0.8 0.7 0.4 1.3 0.8c1.5 1.4 2.5 3.7 1.5 5.5-0.9 1.9-3.3 2.5-5.3 2-2-0.4-3.8-1.4-5.7-2.2-3.6-1.3-8.2-1.1-10.5 2q-0.5 0.8-0.9 1.7-0.3 0.9-0.4 1.8-0.1 1 0 1.9 0.1 1 0.4 1.9 0.3 0.9 0.7 1.7 0.4 0.9 0.9 1.7 0.5 0.8 1.1 1.6 0.6 0.7 1.2 1.4 2.1 2.6 4.6 4.8 2.4 2.3 5.1 4.2 2.7 1.9 5.6 3.4 2.9 1.6 6 2.7c8.3 2.9 16 3.7 24.2 0.7"/>
		<path id="Layer" class="s4" d="m165 462.2c-0.5-6.2-0.8-6.3-3.1-14.3q-1-3.2-2-6.3-1.1-3.2-2.2-6.3-1.2-3.2-2.4-6.3-1.3-3.1-2.6-6.2-1.4-3.2-2.7-6.4c-0.9-2.2-1.8-4.3-2.8-6.3q-0.8-1.4-1.5-2.8-0.8-1.4-1.6-2.8-0.8-1.4-1.7-2.8-0.8-1.4-1.7-2.7c-2.2-3.5-4.4-6.6-6.5-9.6q-3.2-4.5-6.1-8.1-1.2-1.5-2.4-2.9-1.2-1.3-2.4-2.7-1.3-1.3-2.6-2.6-1.3-1.3-2.6-2.5c-1.3-1.2-2.3-2-3-2.6l-0.8-0.7q-0.3-0.2-0.3-0.2 0 0 0.1 0.1 0 0 0 0 0 0.1 0.1 0.1 0 0 0 0.1l0.8 0.6q1.1 0.9 3 2.7 1.3 1.3 2.6 2.6 1.3 1.3 2.5 2.6 1.2 1.4 2.4 2.8 1.2 1.3 2.3 2.8c2 2.4 4 5.1 6 8.1 2.1 3 4.3 6.2 6.6 9.6q0.8 1.4 1.7 2.8 0.8 1.3 1.6 2.7 0.8 1.4 1.6 2.8 0.7 1.4 1.4 2.9c1 2 1.9 4.1 2.8 6.2q1.4 3.2 2.8 6.4 1.3 3.1 2.5 6.2 1.3 3.1 2.4 6.2 1.1 3.2 2.2 6.3 1.1 3.2 2 6.4c2.3 7.9 2.7 8 3.2 14.2"/>
		<path id="Layer" class="s4" d="m147 410.1q0-0.1 0.1-0.3 0-0.1 0.1-0.2 0-0.2 0-0.3 0-0.1 0-0.3 0.3-1.1 0.6-3.1c0.3-2.5 0.7-6.1 1.1-10.1 0.5-4 0.9-7.5 1.3-10.1 0.2-1.3 0.4-2.3 0.5-3.1q0.1-0.1 0.1-0.2 0-0.2 0.1-0.3 0-0.2 0-0.3 0-0.1 0-0.3-0.1 0.1-0.1 0.3-0.1 0.1-0.1 0.2 0 0.2-0.1 0.3 0 0.2 0 0.3c-0.2 0.7-0.5 1.7-0.7 3-0.5 2.6-1 6.2-1.4 10.1-0.5 4-0.8 7.5-1.1 10.2q-0.2 1.8-0.3 3-0.1 0.2-0.1 0.3 0 0.2 0 0.3 0 0.2 0 0.3 0 0.2 0 0.3z"/>
		<path id="Layer" class="s4" d="m113.6 403.8q0.1 0 0.3 0 0.2 0 0.3 0.1 0.2 0 0.4 0 0.2 0 0.3 0c0.9 0.1 2.1 0.2 3.7 0.4 3 0.3 7.2 1 11.8 1.8 4.7 0.9 8.8 1.9 11.8 2.7 1.5 0.4 2.7 0.8 3.5 1q0.2 0.1 0.3 0.1 0.2 0.1 0.3 0.1 0.2 0 0.4 0.1 0.1 0 0.3 0-0.1 0-0.3-0.1-0.1-0.1-0.3-0.1-0.2-0.1-0.3-0.2-0.2 0-0.3-0.1c-0.9-0.3-2-0.7-3.5-1.1-3-0.9-7.1-1.9-11.8-2.8q-1.5-0.3-3-0.6-1.4-0.2-2.9-0.4-1.5-0.2-3.1-0.4-1.5-0.2-3-0.3c-1.5-0.2-2.8-0.2-3.6-0.2q-0.2-0.1-0.3-0.1-0.2 0-0.4 0-0.1 0-0.3 0-0.2 0-0.3 0z"/>
		<path id="Layer" class="s4" d="m161.4 447.3q0.1 0 0.1-0.1 0 0 0.1-0.1 0 0 0-0.1 0.1 0 0.1-0.1 0.2-0.5 0.5-1.2c0.5-1 1.2-2.6 2-4.5 1.7-3.8 3.8-9.2 6-15.1 2.2-6 4.2-11.3 5.8-15.2l1.8-4.5q0.3-0.8 0.5-1.3c0.1-0.3 0.2-0.4 0.1-0.4q0 0 0 0.1-0.1 0-0.1 0.1 0 0 0 0.1-0.1 0-0.1 0.1l-0.6 1.2c-0.5 1-1.1 2.6-2 4.5-1.6 3.8-3.7 9.2-5.9 15.1-2.2 6-4.2 11.3-5.8 15.2-0.7 1.9-1.4 3.4-1.8 4.5q-0.3 0.8-0.5 1.3 0 0-0.1 0.1 0 0.1 0 0.1 0 0.1 0 0.1 0 0.1-0.1 0.1z"/>
		<path id="Layer" class="s4" d="m117 432.9q0.1 0 0.2 0 0 0 0.1 0.1 0 0 0.1 0 0 0 0.1 0l1.3 0.5 4.7 1.5c4 1.4 9.6 3.2 15.7 5.3 6.1 2.1 11.6 4 15.7 5.2 2 0.6 3.6 1.1 4.8 1.4l1.3 0.4q0 0 0.1 0 0.1 0 0.1 0 0.1 0 0.1 0 0.1 0 0.1 0c0.1 0-0.1 0-0.4-0.1l-1.3-0.5-4.7-1.5c-4-1.4-9.5-3.2-15.6-5.3-6.1-2.1-11.7-4-15.7-5.2-2-0.6-3.7-1.1-4.8-1.4l-1.3-0.4q-0.1 0-0.2 0 0 0-0.1 0-0.1 0-0.1 0-0.1 0-0.2 0z"/>
	</g>
	<g id="freepik--Device--inject-14">
		<path id="Layer" class="s4" d="m328.2 462.2h-139.1c-16.8-0.1-31-14.4-31-31.2l1.5-350.6c0-4 0.8-7.9 2.4-11.6 1.5-3.7 3.8-7 6.6-9.9 2.9-2.8 6.2-5 9.9-6.5 3.7-1.5 7.7-2.3 11.7-2.3l139.8 0.7c4 0 8 0.8 11.6 2.3 3.7 1.6 7.1 3.8 9.9 6.7 2.8 2.8 5 6.2 6.5 9.9 1.6 3.7 2.3 7.7 2.3 11.7l-1.5 350.5c0 4-0.8 7.9-2.3 11.6-1.6 3.7-3.8 7-6.7 9.9-2.8 2.8-6.2 5-9.9 6.5-3.7 1.5-7.7 2.3-11.7 2.3z"/>
		<path id="Layer" class="s0" d="m329.8 64.1l-27.1-0.1q-1.3 0-2.6 0.6-1.2 0.5-2.1 1.5-1 0.9-1.4 2.2-0.5 1.2-0.5 2.5v5q0 1.3-0.5 2.6-0.5 1.2-1.4 2.2-0.9 0.9-2.2 1.5-1.2 0.5-2.5 0.5l-52.9-0.2q-1.3-0.1-2.5-0.6-1.2-0.6-2.2-1.5-0.9-1-1.4-2.3-0.4-1.2-0.4-2.5v-4.9q0-1.4-0.5-2.6-0.4-1.3-1.4-2.3-0.9-0.9-2.1-1.5-1.2-0.5-2.6-0.6h-9.5l-23.7-0.1c-2.8 0-5.6 0.5-8.2 1.6-2.6 1.1-4.9 2.6-6.9 4.6-2 2-3.6 4.3-4.7 6.9-1.1 2.6-1.6 5.4-1.7 8.2l-1.4 342c0 2.8 0.5 5.6 1.6 8.2 1 2.6 2.6 4.9 4.6 6.9 2 2 4.3 3.6 6.9 4.7 2.6 1.1 5.3 1.6 8.1 1.6l139.6 0.7c2.8 0 5.5-0.6 8.1-1.6 2.6-1.1 5-2.6 7-4.6 2-2 3.6-4.3 4.6-6.9 1.1-2.6 1.7-5.4 1.7-8.2l1.4-342.1c0-2.8-0.5-5.6-1.6-8.2-1-2.5-2.6-4.9-4.6-6.9-1.9-2-4.3-3.6-6.9-4.6-2.5-1.1-5.3-1.7-8.1-1.7z"/>
		<path id="Layer" class="s0" d="m270.6 384.2c-0.2 4.2-0.3 8-0.5 11.3h20l-2.4-12.4z"/>
		<path id="Layer" class="s0" d="m189.1 389.4l0.2 6.1h78.8c0.2-3.5 0.3-7.2 0.5-11.2z"/>
		<path id="Layer" class="s0" d="m288.8 383.1l2.4 12.3h37l-0.5-14.8-39 2.5z"/>
		<path id="Layer" class="s0" d="m272.6 210.1l7-40.5-18.3-1.4v41.9h11.3z"/>
		<path id="Layer" class="s0" d="m187.5 366.9l-19.9 7.8v14l20.5-1.3-0.6-20.5z"/>
		<path id="Layer" class="s0" d="m187.4 363.7l-1.1-37.7v-13.3l-18.4 1.9-0.3 56.8 19.8-7.7z"/>
		<path id="Layer" class="s0" d="m186.3 283l-18.3-2.4-0.1 31 18.4-1.9v-26.7z"/>
		<path id="Layer" class="s0" d="m322.5 313.2l-0.8 10.9-21.6 2.3 1.7 8.5 24.5-1.8-0.4-12.3 2-8.1-5.4 0.5z"/>
		<path id="Layer" class="s0" d="m283.6 336.3l17.2-1.3-3.8-19.2-15 1.5 1.6 19z"/>
		<path id="Layer" class="s0" d="m283.8 338.3l1.3 16 2.3 22 1 4.8 39.3-2.5-1.3-43.5-42.7 3.2z"/>
		<path id="Layer" fill-rule="evenodd" class="s0" d="m186.5 280l-18.5-2.5 0.3-55.6 48.7-8.9h55.5l2 24.3-57.7 5.6 0.2 2 57.7-5.6 3.8 46.6-58.3-7.7-0.4 3 58.9 7.7 2.3 27.5-61.7 6.3-32 2.2v-41.9l30.3-17.7-1.5-2.6zm31.9 39.1l-3.3-47.2-24.7 13.1c0.2 1.3 0 35.9 0 35.9z"/>
		<path id="Layer" class="s0" d="m320.4 313.4l-22.4 2.3 1.7 8.7 20.1-2.1 0.7-8.8z"/>
		<path id="Layer" class="s0" d="m270.9 376.8q-0.1 2.7-0.2 5.4l16.7-1.1-0.9-4.3z"/>
		<path id="Layer" class="s0" d="m234.9 210.1l3-13.3h22.4v-28.7l-70.1-5.2v26.9l-21.8 5-0.1 24.1 48.4-8.8h18.2z"/>
		<path id="Layer" class="s0" d="m281.7 130.4l-0.6-2.4 26.7-10.6-17.4-34.9q-0.1 0-0.2 0-0.2 0.1-0.3 0.1-0.1 0-0.2 0-0.2 0-0.3 0l-29.5-0.2 0.8 48.9z"/>
		<path id="Layer" class="s0" d="m322.2 111.7v-47.7h-19.5q-1.3 0-2.6 0.6-1.2 0.5-2.1 1.5-1 0.9-1.4 2.2-0.5 1.2-0.5 2.5v5q0 0.8-0.2 1.6-0.2 0.8-0.6 1.5-0.3 0.8-0.9 1.4-0.5 0.6-1.2 1.1l17.4 34.9z"/>
		<path id="Layer" fill-rule="evenodd" class="s0" d="m183.8 108.4l9-44.9 21.2 0.1h5.4l2.3 50.2zm11.7-39.7l-6.1 36.7 28.1 4.1-0.7-40.8z"/>
		<path id="Layer" class="s0" d="m222.7 113.9v0.4c0 4 0.1 11 0.2 18.5l36.8-1.5-0.8-48.9-22.3-0.1q-1.3 0-2.6-0.6-1.2-0.5-2.1-1.5-0.9-0.9-1.4-2.2-0.5-1.2-0.4-2.6v-4.9q0-1.3-0.5-2.6-0.5-1.2-1.4-2.2-0.9-1-2.1-1.5-1.3-0.6-2.6-0.6h-3.1l2.2 50.3z"/>
		<path id="Layer" class="s0" d="m180.9 107.9l8.9-44.4c-2.8 0-5.5 0.6-8 1.7-2.6 1.1-4.9 2.6-6.8 4.6-1.9 2-3.5 4.3-4.5 6.8-1.1 2.6-1.6 5.3-1.7 8.1l-0.1 22.1 0.1-0.6z"/>
		<path id="Layer" class="s0" d="m187.3 162.7l-18.8-1.4-0.1 30.4 18.8-4.3v-24.7z"/>
		<path id="Layer" class="s0" d="m180.7 108.9l-11.9-1.7-0.3 49.1 2.6 0.2 9.6-47.6z"/>
		<path id="Layer" class="s0" d="m218.5 363.1l0.3-39.4-31.5 2.2 1.1 38.7 30.1-1.5z"/>
		<path id="Layer" class="s0" d="m224.3 354l44.6 21.4c0.6-14 1-27 1-27.9h1l0.5-1c0.6 0.3 0.6 0.3 0.3 9.9-0.2 5.3-0.4 12.3-0.7 19.4h15.4l-2.3-21.4-3-37-58.3 5.8z"/>
		<path id="Layer" class="s0" d="m333.7 288.6l-0.5-5.3-53.5 5.6 2.2 27.4 46.2-4.6 5.6-23.1z"/>
		<path id="Layer" class="s0" d="m260.3 199.8l-20-0.1-2.3 10.4h22.3v-10.4z"/>
		<path id="Layer" fill-rule="evenodd" class="s0" d="m328.3 232.2l-52.8 5.1-2.1-25.7 2-11.8 50 3.4zm-49.5 1.7l47.1-5.6-2.5-21.4-43.4-2.7-2.7 7.4z"/>
		<path id="Layer" class="s0" d="m330.6 256.9l-2.2-22.7-52.8 5.1 2 24.1 53-6.5z"/>
		<path id="Layer" class="s0" d="m188.1 389.4l-20.5 1.3v-1.3l-0.1 6h20.8l-0.2-6z"/>
		<path id="Layer" class="s0" d="m350.7 100.5l0.3 0.7v-15.7c0-2.8-0.5-5.6-1.6-8.2-1.1-2.6-2.6-4.9-4.6-6.9-2-2-4.3-3.6-6.9-4.7-2.6-1-5.3-1.6-8.1-1.6h-6.7v47.3z"/>
		<path id="Layer" fill-rule="evenodd" class="s0" d="m268.6 382.4l-79.6 5-0.6-20.9v-0.9l31.1-1.5 0.3-40.5 1.9-0.2 1.6 31.3 45.6 21.8q-0.1 2.9-0.3 5.9zm-78.2-0.3l71.7-3.8-28.3-13.2-43.4 3z"/>
		<path id="Layer" class="s0" d="m337.7 153l1.9-11.1c-16.3-5.8-17.5-22.8-17.4-28l-10.7 4.3 16.1 32.2z"/>
		<path id="Layer" class="s0" d="m279.4 285.9l22.3-2.3-4.4-19.6-19.5 2.4 1.6 19.5z"/>
		<path id="Layer" class="s0" d="m325.5 169.9h-41.5l-3.4-0.3-4.7 27.2 49.2 3.4-1.1-11.8 4.8-17.4-3.3-1.1z"/>
		<path id="Layer" fill-rule="evenodd" class="s0" d="m292.1 164.9l-8.7-35.7 25.3-10 16.3 32.7-0.5 13zm-3.6-32.3l6.4 26.9 25.6 1 2.1-8.8-14.9-28.5z"/>
		<path id="Layer" class="s0" d="m330.9 321.3l0.8 25.5 18-1v1l-18 1 0.9 30.5 17.1-1.1 0.1 2-17.1 1.1 0.5 15.1h16.5l0.4-84.9-16.9 1.7-2.3 9.1z"/>
		<path id="Layer" class="s0" d="m221.7 114.8l-38.1-5.5-9.5 47.4 47.8 3.6c0.2-7.3 0-29.7-0.2-45.5z"/>
		<path id="Layer" class="s0" d="m284.3 164.9h5.8l-8.2-33.5-21.2 0.9 0.5 30.9 23.1 1.7z"/>
		<path id="Layer" class="s0" d="m167.4 419.8v7q0 0.3 0 0.6z"/>
		<path id="Layer" class="s0" d="m222.8 160.3l37.4 2.8-0.5-30.8-36.8 1.5c0.1 10.5 0.1 21.6-0.1 26.5z"/>
		<path id="Layer" class="s0" d="m330.9 259.9l-32.6 4 4.4 19.6 30.2-3.1-2-20.5z"/>
		<path id="Layer" class="s0" d="m339.8 140.9l2-12.4 9 0.7 0.2-26.7-27.8 11c-0.6 18.8 11.2 25.4 16.6 27.4z"/>
		<path id="Layer" class="s0" d="m329.1 188.8l1.1 11.8 20.3 1.4 0.1-24.2-17-5.3-4.5 16.3z"/>
		<path id="Layer" class="s0" d="m338.7 288.9l-5.3 22.2 16.7-1.6 0.1-23.4c-5.1-1.3-9.6-2.4-12-2.9z"/>
		<path id="Layer" class="s0" d="m327.5 165.3l23.2 7.3v-13.2l-22.8-5.9-0.4 11.8z"/>
		<path id="Layer" class="s0" d="m337.9 280.2c1.9 0.3 5.4 1 12.3 2.8l0.2-51-17 1.7z"/>
		<path id="Layer" class="s0" d="m333.2 231.7l17.2-1.6 0.1-25.1-20-1.4 2.7 28.1z"/>
		<path id="Layer" class="s0" d="m341.7 141.5q1.1 0.4 2.2 0.7 1.2 0.3 2.3 0.6 1.1 0.3 2.3 0.6 1.1 0.2 2.3 0.5v-12.7l-7.3-0.6z"/>
		<path id="Layer" class="s0" d="m339.7 153.5l11 2.8 0.1-11.4c-2.9-0.6-6-1.4-9.3-2.4z"/>
		<path id="Layer" fill-rule="evenodd" class="s6" d="m167.7 390.8l-0.1-1.4v-0.6l20.5-1.3-0.6-20.6-19.8 7.8v-3.2l19.7-7.8-1.1-37.7v-13.3l-18.4 1.9v-3l18.4-1.9v-26.7l-18.3-2.5v-3l18.5 2.5 29.6-17.3 1.5 2.6-30.3 17.7v41.9l32-2.2 61.7-6.3-2.3-27.4-58.9-7.7 0.4-3 58.3 7.6-3.8-46.5-57.7 5.5-0.2-2 57.7-5.5-2-24.3h-55.5l-48.7 8.9v-3.1l48.4-8.8h18.2l3-13.3h22.4v-28.6l-70-5.2v26.8l-21.9 5v-3.1l18.9-4.3v-24.7l-18.8-1.4v-5l2.6 0.2 9.6-47.6-11.9-1.7v-0.4l0.1-0.6 12 1.7 8.9-44.4h3l-9 44.9 37.9 5.4-2.3-50.2h1l2.3 50.3v0.4c0 4 0.1 11 0.1 18.5l36.9-1.5-0.8-48.9h1l0.8 48.9 21-0.9-0.6-2.4 26.5-10.6-17.4-34.9q0.4 0 0.8-0.1 0.3-0.1 0.7-0.3 0.3-0.1 0.7-0.3 0.3-0.2 0.6-0.4l17.4 34.9 11.6-4.6v-47.6h1v47.2l27.5-10.8 0.3 0.7v1.3l-27.8 11c-0.6 18.8 11.2 25.4 16.5 27.4l2.1-12.4 9 0.7v2l-7.3-0.6-1.8 11q1.1 0.3 2.2 0.6 1.2 0.3 2.3 0.6 1.1 0.3 2.3 0.6 1.1 0.2 2.3 0.5v1q-4.3-0.9-9.3-2.4l-1.8 10.9 11 2.9v3.1l-22.7-5.9-0.5 11.8 23.2 7.3v5.2l-17-5.4-4.6 16.4 1.2 11.7 20.3 1.5v3l-20-1.4 2.7 28.1 17.3-1.7v2l-17 1.7 4.5 46.4c1.8 0.3 5.4 1.1 12.3 2.9v3.2c-5.2-1.4-9.6-2.5-12-3l0.5 5.7-5.3 22.3 16.7-1.7v1l-17 1.7-2.2 9.1 0.8 25.5 18-1v1l-18 1 1 30.5 17-1.1 0.1 2-17.1 1.1 0.5 15.2h-5l-0.5-14.9-39 2.5 2.5 12.4h-1l-2.5-12.4-17.1 1.1c-0.2 4.2-0.3 8-0.4 11.3h-2c0.1-3.5 0.2-7.2 0.4-11.1l-79.5 5 0.2 6h-1l-0.2-6zm119.7-9.6l-0.8-4.3h-15.7q-0.1 2.7-0.2 5.4zm40.3-2.6l-1.3-43.5-42.6 3.2 1.3 16 2.3 22 1 4.9zm-27.9-54.2l20.1-2.2 0.6-8.8-22.4 2.3zm-17.7-7.1l1.5 19 17.3-1.3-3.8-19.2zm43.9 3.5l2-8.1-5.4 0.5-0.8 10.8-21.6 2.4 1.7 8.5 24.5-1.8zm-48.1-54.4l1.6 19.5 22.2-2.3-4.4-19.6zm55.1 13.9l-2-20.5-32.6 4 4.4 19.7zm-8.9-92l4.8-17.5-3.3-1h-41.5l-3.5-0.3-4.7 27.2 49.3 3.4zm-12.5-70.3l16 32.3 10.2 2.6 1.8-11.1c-16.3-5.8-17.5-22.9-17.4-28zm-28.1 11.1l8.7 35.7h32.4l0.5-13-16.4-32.7zm-22.7 3l0.5 30.9 23.1 1.7h5.7l-8.2-33.4zm-37.9 1.5c0.1 10.4 0.1 21.5 0 26.5l37.4 2.8-0.5-30.8zm-48.8 22.9l47.8 3.6c0.2-7.3 0-29.7-0.2-45.5l-38-5.5zm87.2 11.4v41.9h11.2l7-40.5zm-23.3 41.9h22.3v-10.3h-20zm37.2 27.2l52.8-5.1-2.8-28.9-50-3.5-2 11.8zm0.2 2l2 24.2 53-6.6-2.2-22.7zm6.3 77.1l46.2-4.6 5.6-23.1-0.6-5.3-53.4 5.6zm-0.9 1.1l-58.2 5.8 1.5 30.8 44.6 21.4c0.6-14 1-27 1-27.9h1l0.5-1c0.6 0.4 0.6 0.4 0.3 9.9-0.2 5.3-0.5 12.4-0.8 19.4h15.4l-2.3-21.4zm-93.8 8.5l1.1 38.7 30.1-1.5 0.3-39.4zm1.8 61.4l79.6-5q0.1-2.9 0.2-5.8l-45.6-21.8-1.6-31.3-1.9 0.2-0.3 40.5-31.1 1.5v0.9z"/>
		<path id="Layer" class="s1" d="m233.8 365.1l-43.4 3v14l71.7-3.9-28.3-13.1z"/>
		<path id="Layer" class="s1" d="m323.4 206.9l-43.5-2.8-2.7 7.5 1.5 22.2 47.2-5.6-2.5-21.3z"/>
		<path id="Layer" class="s1" d="m188.6 448.2l139.6 0.7c2.8 0 5.5-0.6 8.1-1.6 2.6-1.1 5-2.6 7-4.6 2-2 3.6-4.3 4.6-6.9 1.1-2.6 1.7-5.4 1.7-8.2l0.1-32.1h-182.2l-0.1 24.3v7.7c0.1 2.7 0.7 5.4 1.8 7.9 1.1 2.5 2.7 4.8 4.6 6.7 2 2 4.3 3.5 6.8 4.5 2.6 1.1 5.3 1.6 8 1.6z"/>
		<path id="Layer" class="s1" d="m217.6 109.5l-0.8-40.8h-21.2l-6.1 36.7 28.1 4.1z"/>
		<path id="Layer" class="s1" d="m320.5 160.5l2.2-8.9-15-28.4-19.1 9.4 6.3 26.9 25.6 1z"/>
		<path id="Layer" class="s1" d="m190.4 285c0.2 1.3 0 35.9 0 35.9l28-1.8-3.2-47.3z"/>
		<path id="Layer" class="s1" d="m283.6 313.1l-1.5-21.4 47.9-6.2v3.7l-5.8 19.7-40.6 4.2z"/>
		<path id="Layer" class="s5" d="m248.1 135.4c0 2.4-1.4 4.5-3.6 5.4-2.1 0.9-4.7 0.4-6.3-1.3-1.7-1.7-2.2-4.2-1.3-6.3 0.9-2.2 3-3.7 5.4-3.7q1.2 0.1 2.2 0.5 1.1 0.4 1.9 1.3 0.8 0.8 1.3 1.9 0.4 1 0.4 2.2z"/>
		<g id="Layer" style="opacity: .6">
			<path id="Layer" class="s6" d="m248.1 135.1c0.1 2.4-1.2 4.6-3.3 5.6-2.2 1-4.7 0.6-6.5-1-1.7-1.6-2.3-4.1-1.5-6.3 0.8-2.2 2.9-3.7 5.2-3.8q1.2-0.1 2.3 0.3 1.1 0.4 1.9 1.2 0.9 0.8 1.4 1.8 0.5 1.1 0.5 2.2z"/>
		</g>
		<path id="Layer" class="s5" d="m242.3 139.1c-2.1 0-3.9-1.8-3.9-3.9 0-2.2 1.8-3.9 3.9-3.9 2.1 0 3.9 1.7 3.9 3.9 0 2.1-1.8 3.9-3.9 3.9z"/>
		<path id="Layer" class="s5" d="m332.5 368.5c0 1-0.6 1.9-1.5 2.3-1 0.4-2 0.2-2.7-0.5-0.7-0.7-1-1.8-0.6-2.7 0.4-1 1.3-1.6 2.3-1.6q0.5 0 1 0.2 0.4 0.2 0.8 0.5 0.4 0.4 0.5 0.9 0.2 0.4 0.2 0.9z"/>
		<path id="Layer" class="s5" d="m328.5 367.7l-0.6-14-42.1 2.1q-0.4 0-0.8 0-0.4-0.1-0.8-0.2-0.4 0-0.8-0.2-0.4-0.1-0.8-0.3l-59.7-30.2q-0.5-0.2-1-0.6-0.4-0.4-0.7-0.9-0.3-0.5-0.5-1-0.2-0.5-0.2-1.1l-8.1-157.8q-0.1-0.5 0.1-1.1 0.2-0.5 0.7-0.9 0.4-0.4 0.9-0.6 0.5-0.2 1.1-0.1l25.6 1.9v-28h3v28.4q0 0.2 0 0.5-0.1 0.3-0.2 0.5-0.1 0.3-0.3 0.5-0.1 0.2-0.3 0.4-0.2 0.2-0.4 0.3-0.3 0.2-0.5 0.2-0.3 0.1-0.6 0.2-0.2 0-0.5 0l-25.6-1.9 8.1 157.3q0 0.2 0.1 0.4 0 0.1 0.1 0.3 0.1 0.1 0.3 0.2 0.1 0.2 0.3 0.2l59.7 30.2q0.2 0.1 0.4 0.2 0.2 0.1 0.4 0.1 0.2 0.1 0.5 0.1 0.2 0 0.4 0l42.5-2.1q0.2 0 0.5 0.1 0.2 0 0.5 0.1 0.2 0.1 0.5 0.2 0.2 0.1 0.4 0.3 0.2 0.2 0.3 0.4 0.2 0.2 0.3 0.5 0.1 0.2 0.2 0.5 0 0.2 0.1 0.5l0.6 14.3z"/>
		<path id="Layer" class="s5" d="m217.3 239.6c-4.2 0-7.6-3.4-7.6-7.5 0-4.2 3.4-7.6 7.6-7.6 4.1 0 7.5 3.4 7.5 7.6 0 4.1-3.4 7.5-7.5 7.5z"/>
		<path id="Layer" class="s2" d="m217.3 237.3c-2.9 0-5.3-2.3-5.3-5.3 0-2.9 2.4-5.2 5.3-5.2 2.9 0 5.2 2.3 5.2 5.3 0 2.9-2.3 5.2-5.2 5.2z"/>
		<path id="Layer" fill-rule="evenodd" class="s5" d="m217.3 237.7c-2.3 0-4.4-1.4-5.2-3.5-0.9-2.1-0.4-4.5 1.2-6.1 1.6-1.6 4-2.1 6.1-1.3 2.1 0.9 3.5 3 3.5 5.3q0 1.1-0.5 2.1-0.4 1-1.2 1.8-0.8 0.8-1.8 1.2-1 0.5-2.1 0.5zm0-10.5c-2 0-3.8 1.2-4.6 3-0.7 1.8-0.3 3.9 1.1 5.3 1.4 1.4 3.5 1.8 5.3 1.1 1.8-0.8 3-2.6 3-4.5q0-1-0.3-1.9-0.4-0.9-1.1-1.6-0.7-0.7-1.6-1.1-0.9-0.3-1.8-0.3z"/>
		<path id="Layer" class="s5" d="m261.8 200.3h-36q-0.6 0-1.2 0.3-0.6 0.2-1.1 0.7-0.4 0.4-0.6 1-0.3 0.6-0.3 1.2v13q0 0.6 0.3 1.2 0.2 0.6 0.6 1.1 0.5 0.4 1.1 0.6 0.6 0.3 1.2 0.3h0.4v3.1l3.6-3.1h32q0.7 0 1.2-0.3 0.6-0.2 1.1-0.6 0.4-0.5 0.6-1.1 0.3-0.6 0.3-1.2v-13q0-0.6-0.3-1.2-0.2-0.6-0.6-1-0.5-0.5-1.1-0.7-0.6-0.3-1.2-0.3z"/>
		<g id="Layer" style="opacity: .4">
			<path id="Layer" class="s6" d="m261.8 200.3h-36q-0.6 0-1.2 0.3-0.6 0.2-1.1 0.7-0.4 0.4-0.6 1-0.3 0.6-0.3 1.2v13q0 0.6 0.3 1.2 0.2 0.6 0.6 1.1 0.5 0.4 1.1 0.6 0.6 0.3 1.2 0.3h0.4v3.1l3.6-3.1h32q0.7 0 1.2-0.3 0.6-0.2 1.1-0.6 0.4-0.5 0.6-1.1 0.3-0.6 0.3-1.2v-13q0-0.6-0.3-1.2-0.2-0.6-0.6-1-0.5-0.5-1.1-0.7-0.6-0.3-1.2-0.3z"/>
		</g>
		<path id="Layer" fill-rule="evenodd" class="s6" d="m230.7 209.8c0-0.9 0.5-1.7 1.3-2 0.8-0.4 1.7-0.2 2.4 0.4 0.6 0.6 0.8 1.5 0.5 2.3-0.3 0.9-1.1 1.4-2 1.4q-0.4 0-0.8-0.1-0.4-0.2-0.7-0.5-0.3-0.3-0.5-0.7-0.2-0.4-0.2-0.8zm3.8 0c0-0.6-0.4-1.2-1-1.4-0.6-0.3-1.3-0.2-1.7 0.3-0.5 0.4-0.6 1.1-0.4 1.7 0.3 0.6 0.8 1 1.5 1q0.3 0 0.6-0.1 0.3-0.1 0.5-0.4 0.2-0.2 0.4-0.5 0.1-0.3 0.1-0.6z"/>
		<path id="Layer" fill-rule="evenodd" class="s6" d="m239 210.3q0 0.3-0.1 0.6-0.1 0.3-0.3 0.5-0.2 0.3-0.5 0.4-0.3 0.1-0.7 0.1-0.1 0-0.3 0-0.1-0.1-0.3-0.1-0.1-0.1-0.2-0.2-0.2-0.1-0.3-0.2v0.5h-0.5v-4.4h0.6v1.7q0.1-0.1 0.2-0.2 0.1-0.1 0.3-0.1 0.1-0.1 0.2-0.1 0.2-0.1 0.4-0.1 0.3 0 0.6 0.2 0.3 0.1 0.5 0.3 0.2 0.2 0.3 0.5 0.1 0.3 0.1 0.6zm-0.6 0c0-0.4-0.3-0.7-0.6-0.8-0.4-0.2-0.8-0.1-1.1 0.2-0.3 0.3-0.3 0.7-0.2 1.1 0.2 0.4 0.5 0.6 0.9 0.6q0.3 0 0.5-0.1 0.2-0.1 0.3-0.2 0.2-0.2 0.2-0.4 0.1-0.2 0.1-0.4z"/>
		<path id="Layer" class="s6" d="m238.8 212.8l0.1-0.4q0.1 0 0.1 0.1 0.1 0 0.1 0 0.1 0 0.2 0 0 0.1 0.1 0.1 0.4-0.1 0.5-0.6v-3.2h0.5v3.2q0 0.2-0.1 0.4 0 0.2-0.2 0.3-0.1 0.2-0.3 0.2-0.2 0.1-0.4 0.1-0.1 0-0.2 0-0.1 0-0.1 0-0.1-0.1-0.2-0.1-0.1 0-0.2-0.1zm1-5q0.1 0 0.1-0.1 0-0.1 0.1-0.1 0-0.1 0.1-0.1 0 0 0.1 0 0.1 0 0.2 0 0 0 0.1 0.1 0 0 0.1 0.1 0 0 0 0.1 0 0.1 0 0.2-0.1 0-0.1 0.1-0.1 0-0.1 0.1-0.1 0-0.2 0-0.1 0-0.1 0-0.1-0.1-0.1-0.1-0.1-0.1-0.1-0.1-0.1-0.1-0.1-0.2z"/>
		<path id="Layer" fill-rule="evenodd" class="s6" d="m244.2 210.5h-2.5q0.1 0.2 0.2 0.4 0.1 0.2 0.2 0.3 0.2 0.1 0.4 0.2 0.2 0 0.4 0 0.1 0 0.2 0 0.1 0 0.2-0.1 0.2 0 0.3-0.1 0.1-0.1 0.2-0.2l0.3 0.4q-0.4 0.3-0.9 0.4-0.5 0.1-0.9 0-0.5-0.2-0.8-0.6-0.3-0.4-0.3-0.9 0-0.3 0.1-0.6 0.1-0.3 0.3-0.5 0.2-0.2 0.5-0.3 0.3-0.2 0.6-0.1 0.3-0.1 0.6 0.1 0.3 0.1 0.5 0.3 0.3 0.2 0.4 0.5 0.1 0.3 0.1 0.6 0 0.1 0 0.1-0.1 0-0.1 0 0 0 0 0.1 0 0 0 0zm-2.5-0.4h2q0-0.4-0.3-0.7-0.2-0.3-0.7-0.3-0.4 0-0.7 0.3-0.3 0.3-0.3 0.7z"/>
		<path id="Layer" class="s6" d="m244.7 210.3q0-0.3 0.2-0.6 0.1-0.3 0.3-0.5 0.2-0.2 0.5-0.4 0.3-0.1 0.7-0.1 0.2 0 0.3 0.1 0.2 0 0.4 0.1 0.2 0.1 0.3 0.2 0.1 0.1 0.2 0.3l-0.4 0.3q-0.1-0.1-0.2-0.2-0.1-0.1-0.2-0.2-0.1 0-0.2 0-0.1-0.1-0.2-0.1-0.5 0.1-0.7 0.4-0.3 0.3-0.3 0.7 0 0.4 0.3 0.7 0.2 0.4 0.7 0.4 0.1 0 0.2 0 0.1-0.1 0.2-0.1 0.1-0.1 0.2-0.2 0.1 0 0.2-0.1l0.4 0.2q-0.1 0.2-0.2 0.3-0.1 0.1-0.3 0.2-0.2 0.1-0.4 0.2-0.1 0-0.3 0-0.4 0-0.7-0.1-0.3-0.1-0.5-0.3-0.2-0.3-0.3-0.6-0.2-0.3-0.2-0.6z"/>
		<path id="Layer" class="s6" d="m250.1 211.7q-0.1 0-0.1 0.1-0.1 0-0.2 0-0.1 0.1-0.2 0.1-0.1 0-0.2 0-0.2 0-0.4 0-0.2-0.1-0.3-0.3-0.2-0.1-0.2-0.3-0.1-0.2-0.1-0.4v-1.7h-0.5v-0.5h0.5v-0.6h0.6v0.6h0.9v0.5h-0.9v1.7q0 0.1 0 0.2 0 0.1 0.1 0.1 0.1 0.1 0.2 0.2 0.1 0 0.2 0 0 0 0.1 0 0.1 0 0.1-0.1 0.1 0 0.1 0 0.1 0 0.1-0.1z"/>
		<path id="Layer" class="s6" d="m250.7 207.8q0-0.1 0-0.1 0.1-0.1 0.1-0.1 0.1-0.1 0.1-0.1 0.1 0 0.2 0 0 0 0.1 0 0.1 0 0.1 0.1 0.1 0 0.1 0.1 0 0 0 0.1 0 0.2-0.1 0.3-0.1 0.1-0.2 0.1-0.2 0-0.3-0.1-0.1-0.1-0.1-0.3zm0.1 1h0.6v3.1h-0.6z"/>
		<path id="Layer" class="s6" d="m255.1 208.8l-1.3 3.1h-0.6l-1.3-3.1h0.6l1 2.4 1-2.4z"/>
		<path id="Layer" fill-rule="evenodd" class="s6" d="m258.4 210.5h-2.5q0 0.2 0.1 0.4 0.1 0.2 0.2 0.3 0.2 0.1 0.4 0.2 0.2 0 0.4 0 0.1 0 0.2 0 0.1 0 0.3-0.1 0.1 0 0.2-0.1 0.1-0.1 0.2-0.2l0.3 0.4q-0.2 0.1-0.3 0.2-0.1 0.1-0.3 0.2-0.1 0-0.3 0.1-0.2 0-0.3 0-0.4 0-0.7-0.1-0.3-0.1-0.5-0.3-0.3-0.3-0.4-0.6-0.1-0.3-0.1-0.6 0-0.3 0.1-0.6 0.1-0.3 0.3-0.5 0.2-0.2 0.5-0.3 0.3-0.2 0.6-0.1 0.4-0.1 0.6 0.1 0.3 0.1 0.5 0.3 0.3 0.2 0.4 0.5 0.1 0.3 0.1 0.6 0 0.1 0 0.1 0 0 0 0 0 0 0 0.1 0 0 0 0zm-2.5-0.4h2q-0.1-0.4-0.3-0.7-0.3-0.3-0.7-0.3-0.5 0-0.8 0.3-0.2 0.3-0.2 0.7z"/>
		<path id="Layer" fill-rule="evenodd" class="s5" d="m249.8 116.8q0 0.5-0.2 0.9-0.1 0.5-0.3 1-0.2 0.4-0.4 0.9-0.2 0.1-0.3 0.3-0.1 0.2-0.3 0.4-0.1 0.2-0.2 0.3-0.2 0.2-0.3 0.4l-4.3 5.7q-0.2 0.2-0.5 0.3-0.3 0.2-0.6 0.2-0.3 0-0.6-0.2-0.3-0.1-0.5-0.3l-4.3-5.8c-0.4-0.5-0.7-0.9-1-1.3-1.2-2-1.4-4.5-0.5-6.7 0.9-2.1 2.7-3.8 5-4.4 2.2-0.6 4.6-0.1 6.5 1.3 1.8 1.4 2.9 3.6 2.9 6q0 0.5-0.1 1zm-6.1 1.9q0.6-0.2 1-0.7 0.5-0.4 0.8-1 0.2-0.6 0.2-1.3c0-1.3-0.8-2.5-2-3-1.3-0.6-2.7-0.3-3.6 0.7-1 0.9-1.2 2.3-0.7 3.6 0.5 1.2 1.7 2 3 2q0.7 0 1.3-0.3z"/>
		<path id="Layer" class="s4" d="m201.4 410.6h-1.3v-0.5h3.3v0.5h-1.4v3.6h-0.6z"/>
		<path id="Layer" fill-rule="evenodd" class="s4" d="m203.4 412.7c0-0.7 0.3-1.3 0.9-1.5 0.6-0.3 1.3-0.1 1.8 0.3 0.4 0.5 0.6 1.2 0.3 1.8-0.2 0.6-0.8 0.9-1.4 1q-0.4 0-0.7-0.1-0.3-0.2-0.5-0.4-0.2-0.2-0.3-0.5-0.2-0.3-0.1-0.6zm2.6 0q0-0.4-0.3-0.7-0.3-0.3-0.7-0.3-0.4 0-0.7 0.3-0.3 0.3-0.3 0.7 0 0.4 0.3 0.7 0.3 0.3 0.7 0.3 0.4 0 0.7-0.3 0.3-0.3 0.3-0.7z"/>
		<path id="Layer" class="s4" d="m209.1 414q-0.1 0.1-0.2 0.1-0.1 0-0.1 0.1-0.1 0-0.2 0-0.1 0-0.2 0-0.2 0.1-0.4 0-0.2-0.1-0.4-0.2-0.1-0.2-0.2-0.4 0-0.2 0-0.4v-1.7h-0.5v-0.4h0.5v-0.7h0.6v0.7h0.9v0.4h-0.9v1.7q0 0.1 0 0.2 0 0.1 0.1 0.2 0.1 0.1 0.2 0.1 0.1 0 0.2 0 0 0 0.1 0 0.1 0 0.1 0 0.1 0 0.1-0.1 0.1 0 0.1 0z"/>
		<path id="Layer" fill-rule="evenodd" class="s4" d="m212.2 412.4v1.8h-0.5v-0.4q-0.1 0.1-0.2 0.2-0.2 0.1-0.3 0.2-0.1 0-0.3 0-0.1 0.1-0.2 0.1c-0.7 0-1.2-0.4-1.2-1 0-0.5 0.3-0.9 1.3-0.9h0.8v-0.1c0-0.4-0.2-0.7-0.8-0.7q-0.1 0-0.3 0-0.1 0-0.2 0.1-0.1 0-0.3 0.1-0.1 0-0.2 0.1l-0.2-0.4q0.1-0.1 0.3-0.2 0.1-0.1 0.3-0.1 0.1-0.1 0.3-0.1 0.2 0 0.4 0 0.2 0 0.5 0 0.2 0.1 0.4 0.3 0.2 0.2 0.3 0.4 0.1 0.3 0.1 0.6zm-0.6 0.9v-0.5h-0.8c-0.6 0-0.7 0.3-0.7 0.5 0 0.3 0.2 0.5 0.6 0.5q0.2 0 0.3 0 0.2 0 0.3-0.1 0.1-0.1 0.2-0.2 0.1-0.1 0.1-0.2z"/>
		<path id="Layer" class="s4" d="m213.2 409.9h0.6v4.3h-0.6z"/>
		<path id="Layer" fill-rule="evenodd" class="s4" d="m219.3 409.9v4.3h-0.5v-0.5q-0.1 0.1-0.2 0.3-0.2 0.1-0.3 0.1-0.1 0.1-0.3 0.1-0.2 0.1-0.3 0c-0.4 0-0.8-0.2-1.1-0.5-0.2-0.2-0.4-0.6-0.4-1 0-0.4 0.2-0.8 0.4-1.1 0.3-0.3 0.7-0.5 1.1-0.5q0.1 0 0.3 0 0.1 0.1 0.3 0.1 0.1 0.1 0.2 0.2 0.2 0.1 0.3 0.2v-1.7zm-0.6 2.8c0-0.4-0.3-0.8-0.7-0.9-0.3-0.1-0.8 0-1 0.3-0.3 0.3-0.4 0.7-0.2 1.1 0.2 0.3 0.5 0.6 0.9 0.6q0.2 0 0.4-0.1 0.2-0.1 0.4-0.3 0.1-0.1 0.2-0.3 0-0.2 0-0.4z"/>
		<path id="Layer" class="s4" d="m220.3 410.2q0-0.1 0-0.2 0 0 0.1-0.1 0 0 0.1-0.1 0.1 0 0.1 0 0.2 0 0.3 0.1 0.2 0.1 0.2 0.3 0 0.1-0.2 0.3-0.1 0.1-0.3 0 0 0-0.1 0-0.1 0-0.1-0.1-0.1 0-0.1-0.1 0 0 0-0.1zm0.1 0.9h0.5v3.1h-0.5z"/>
		<path id="Layer" class="s4" d="m221.6 413.9l0.2-0.5q0.2 0.1 0.3 0.2 0.1 0 0.3 0.1 0.1 0 0.2 0 0.2 0.1 0.3 0.1c0.5 0 0.8-0.2 0.8-0.5 0-0.7-2-0.1-2-1.3 0-0.5 0.5-0.9 1.2-0.9q0.2 0 0.3 0 0.2 0 0.3 0.1 0.2 0 0.3 0.1 0.1 0 0.3 0.1l-0.3 0.4q-0.1 0-0.2-0.1-0.1 0-0.2-0.1-0.1 0-0.2 0-0.2 0-0.3 0c-0.5 0-0.7 0.2-0.7 0.4 0 0.7 2 0.1 2 1.3 0 0.6-0.5 0.9-1.3 0.9q-0.2 0.1-0.4 0-0.1 0-0.3 0-0.1-0.1-0.3-0.1-0.2-0.1-0.3-0.2z"/>
		<path id="Layer" class="s4" d="m226.6 414q0 0.1-0.1 0.1-0.1 0-0.2 0.1-0.1 0-0.2 0 0 0-0.1 0-0.2 0.1-0.4 0-0.2-0.1-0.4-0.2-0.1-0.2-0.2-0.4-0.1-0.2 0-0.4v-1.7h-0.6v-0.4h0.6v-0.7h0.6v0.7h0.8v0.4h-0.8v1.7q-0.1 0.1 0 0.2 0 0.1 0.1 0.2 0 0.1 0.1 0.1 0.1 0 0.2 0 0.1 0 0.2 0 0 0 0.1 0 0 0 0.1-0.1 0 0 0.1 0z"/>
		<path id="Layer" fill-rule="evenodd" class="s4" d="m229.8 412.4v1.8h-0.6v-0.4q-0.1 0.1-0.2 0.2-0.1 0.1-0.2 0.2-0.1 0-0.3 0-0.1 0.1-0.3 0.1c-0.7 0-1.1-0.4-1.1-1 0-0.5 0.3-0.9 1.2-0.9h0.9v-0.1c0-0.4-0.3-0.7-0.8-0.7q-0.1 0-0.3 0-0.1 0-0.2 0.1-0.2 0-0.3 0.1-0.1 0-0.2 0.1l-0.2-0.4q0.1-0.1 0.2-0.2 0.2-0.1 0.4-0.1 0.1-0.1 0.3-0.1 0.2 0 0.3 0 0.3 0 0.6 0 0.2 0.1 0.4 0.3 0.2 0.2 0.3 0.4 0.1 0.3 0.1 0.6zm-0.6 0.9v-0.5h-0.9c-0.5 0-0.7 0.3-0.7 0.5 0 0.3 0.3 0.5 0.7 0.5q0.2 0 0.3 0 0.1 0 0.2-0.1 0.2-0.1 0.3-0.2 0-0.1 0.1-0.2z"/>
		<path id="Layer" class="s4" d="m233.7 412.4v1.8h-0.5v-1.7c0-0.6-0.3-0.9-0.9-0.9q-0.2 0-0.4 0.1-0.2 0-0.3 0.2-0.2 0.1-0.2 0.3-0.1 0.2-0.1 0.4v1.6h-0.5v-3.1h0.5v0.5q0.1-0.2 0.2-0.3 0.1-0.1 0.3-0.1 0.1-0.1 0.3-0.1 0.2 0 0.3 0 0.3-0.1 0.5 0 0.3 0.1 0.5 0.3 0.2 0.2 0.3 0.5 0.1 0.3 0 0.5z"/>
		<path id="Layer" class="s4" d="m234.5 412.7q0-0.4 0.1-0.7 0.1-0.2 0.4-0.5 0.2-0.2 0.5-0.3 0.3-0.1 0.6-0.1 0.2 0 0.4 0 0.2 0.1 0.3 0.2 0.2 0 0.3 0.2 0.2 0.1 0.3 0.3l-0.5 0.2q0-0.1-0.1-0.2-0.1 0-0.2-0.1-0.1-0.1-0.3-0.1-0.1 0-0.2 0-0.4 0-0.7 0.3-0.3 0.4-0.3 0.8 0 0.4 0.3 0.7 0.3 0.3 0.7 0.4 0.1 0 0.2-0.1 0.2 0 0.3-0.1 0.1 0 0.2-0.1 0.1-0.1 0.1-0.2l0.5 0.3q-0.1 0.1-0.3 0.3-0.1 0.1-0.3 0.2-0.1 0.1-0.3 0.1-0.2 0.1-0.4 0.1-0.3 0-0.6-0.1-0.3-0.2-0.5-0.4-0.3-0.2-0.4-0.5-0.1-0.3-0.1-0.6z"/>
		<path id="Layer" fill-rule="evenodd" class="s4" d="m240.8 412.9h-2.5q0 0.2 0.1 0.3 0.1 0.2 0.3 0.3 0.1 0.2 0.3 0.2 0.2 0.1 0.4 0.1 0.2 0 0.3-0.1 0.1 0 0.2 0 0.1-0.1 0.2-0.1 0.1-0.1 0.2-0.2l0.3 0.4q-0.1 0.1-0.2 0.2-0.2 0.1-0.3 0.1-0.2 0.1-0.4 0.1-0.1 0.1-0.3 0.1-0.3 0-0.6-0.1-0.3-0.1-0.6-0.4-0.2-0.2-0.3-0.5-0.2-0.3-0.2-0.6 0-0.3 0.2-0.6 0.1-0.3 0.3-0.6 0.2-0.2 0.5-0.3 0.3-0.1 0.6-0.1 0.3 0 0.6 0.1 0.3 0.1 0.5 0.4 0.2 0.2 0.3 0.5 0.1 0.3 0.1 0.6 0 0 0 0 0 0.1 0 0.1 0 0 0 0 0 0 0 0.1zm-2.5-0.4h2q0-0.5-0.3-0.7-0.3-0.3-0.7-0.3-0.4 0-0.7 0.3-0.3 0.2-0.3 0.7z"/>
		<path id="Layer" class="s4" d="m205.1 418.8v9.7h-2.3v-7.9h-1.9v-1.8z"/>
		<path id="Layer" class="s4" d="m209.4 427.2q0 0.2 0 0.4-0.1 0.2-0.1 0.4 0 0.1-0.1 0.3-0.1 0.2-0.2 0.3l-0.8 2h-1.3l0.6-2.2q-0.2-0.1-0.3-0.2-0.2-0.1-0.3-0.3-0.1-0.1-0.1-0.3-0.1-0.2-0.1-0.4c0-0.3 0.2-0.7 0.4-0.9 0.3-0.3 0.6-0.4 1-0.4 0.3 0 0.7 0.1 0.9 0.4 0.3 0.2 0.4 0.6 0.4 0.9z"/>
		<path id="Layer" class="s4" d="m214 418.8v9.7h-2.3v-7.9h-1.9v-1.8z"/>
		<path id="Layer" fill-rule="evenodd" class="s4" d="m215.6 423.6c0-3.2 1.8-5 4.2-5 2.4 0 4.2 1.8 4.2 5 0 3.2-1.8 5-4.2 5-2.4 0-4.2-1.8-4.2-5zm6.1 0c0-2.2-0.8-3.1-1.9-3.1-1.1 0-1.9 0.9-1.9 3.1 0 2.2 0.8 3.1 1.9 3.1 1.1 0 1.9-0.9 1.9-3.1z"/>
		<path id="Layer" fill-rule="evenodd" class="s4" d="m225.1 423.6c0-3.2 1.7-5 4.1-5 2.4 0 4.2 1.8 4.2 5 0 3.2-1.8 5-4.2 5-2.4 0-4.1-1.8-4.1-5zm6 0c0-2.2-0.8-3.1-1.9-3.1-1.1 0-1.9 0.9-1.9 3.1 0 2.2 0.8 3.1 1.9 3.1 1.1 0 1.9-0.9 1.9-3.1z"/>
		<path id="Layer" class="s4" d="m251.5 424.2v4.3h-2.2v-4c0-1.2-0.5-1.7-1.4-1.7-0.9 0-1.7 0.6-1.7 2v3.7h-2.1v-3.9c0-1.2-0.5-1.8-1.4-1.8-0.9 0-1.7 0.6-1.7 2v3.8h-2.1v-7.6h2v0.9q0.2-0.3 0.5-0.5 0.3-0.2 0.6-0.3 0.3-0.1 0.6-0.2 0.3-0.1 0.7 0 0.3-0.1 0.7 0 0.3 0.1 0.7 0.2 0.3 0.2 0.5 0.4 0.3 0.3 0.5 0.6 0.3-0.3 0.6-0.5 0.3-0.3 0.6-0.4 0.4-0.2 0.8-0.3 0.3-0.1 0.7 0c1.8 0 3.1 1 3.1 3.3z"/>
		<path id="Layer" class="s5" d="m194.9 419.9c-1 4.5-5.5 7.3-10 6.2-4.5-1-7.3-5.5-6.3-10 1.1-4.5 5.6-7.3 10.1-6.3 4.5 1.1 7.3 5.6 6.2 10.1z"/>
		<path id="Layer" class="s2" d="m183.4 419.5q0.3 0 0.6 0 0.2-0.1 0.5-0.1 0.3 0 0.5 0 0.3 0 0.6 0c1.3 0 3.3-0.1 5.6-0.1l-0.1 0.4q-1-1.2-2.2-2.5l-0.1-0.1 0.1-0.2 2.1-2.6 0.2 0.4h-1-6.8l0.2-0.2c0 2.5 0 4.6-0.1 6.1q0 0.3 0 0.6 0 0.3 0 0.6 0 0.3-0.1 0.6 0 0.3 0 0.6-0.1-0.3-0.1-0.6 0-0.3 0-0.6-0.1-0.3-0.1-0.6 0-0.3 0-0.6c0-1.5 0-3.6-0.1-6.1v-0.3h0.3 6.8 1.5l-0.3 0.5-2.1 2.6v-0.3l2.1 2.5 0.3 0.3h-0.5c-2.3 0-4.3 0-5.7-0.1q-0.2 0-0.5 0-0.3 0-0.5 0-0.3 0-0.6-0.1-0.2 0-0.5-0.1z"/>
		<path id="Layer" class="s5" d="m322.2 403.7h-25.3q-0.9 0-1.8 0.4-0.9 0.4-1.6 1.1-0.7 0.6-1.1 1.5-0.3 0.9-0.3 1.9v19.9q0 1 0.3 1.9 0.4 0.8 1.1 1.5 0.7 0.7 1.6 1.1 0.9 0.3 1.8 0.3h0.7v4.8l5.5-4.8h19.1q1 0 1.9-0.3 0.9-0.4 1.5-1.1 0.7-0.7 1.1-1.5 0.4-0.9 0.4-1.9v-19.9q0-1-0.4-1.9-0.4-0.9-1.1-1.5-0.6-0.7-1.5-1.1-0.9-0.4-1.9-0.4z"/>
		<path id="Layer" class="s2" d="m299.3 412.9v10.2q0 0.1 0.1 0.1 0 0.1 0 0.2 0.1 0 0.2 0.1 0.1 0 0.1 0h21.4q0.1 0 0.2 0 0.1-0.1 0.1-0.1 0.1-0.1 0.1-0.2 0 0 0-0.1v-3.8q0 0 0 0 0-0.1 0-0.1 0 0 0 0-0.1-0.1-0.1-0.1l-3.1-4.1q0 0 0-0.1-0.1 0-0.1 0 0 0-0.1 0 0-0.1-0.1-0.1h-3.5q-0.1 0-0.2 0 0 0-0.1-0.1 0 0-0.1-0.1 0-0.1 0-0.1v-1.6q0-0.1 0-0.2-0.1 0-0.1-0.1-0.1 0-0.1-0.1-0.1 0-0.2 0h-14q-0.1 0-0.1 0-0.1 0.1-0.2 0.1 0 0.1 0 0.1-0.1 0.1-0.1 0.2z"/>
		<path id="Layer" class="s5" d="m315.1 415.7v3.3q0 0 0 0.1 0 0 0.1 0.1 0 0 0 0 0.1 0 0.1 0h4.7q0.1-0.1 0.2-0.1 0 0 0-0.1 0.1 0 0.1-0.1 0-0.1-0.1-0.1l-2.2-3.3q0 0 0 0-0.1-0.1-0.1-0.1 0 0 0 0-0.1 0-0.1 0l-2.5 0.1q-0.1 0-0.1 0 0 0-0.1 0.1 0 0 0 0 0 0.1 0 0.1z"/>
		<path id="Layer" class="s2" d="m298.9 423.8h23.1v0.7h-23.1z"/>
		<path id="Layer" class="s5" d="m306.5 424.1c0 0.9-0.5 1.7-1.4 2.1-0.8 0.4-1.8 0.2-2.5-0.5-0.6-0.7-0.8-1.6-0.5-2.5 0.4-0.9 1.2-1.4 2.1-1.4q0.5 0 0.9 0.2 0.4 0.1 0.8 0.5 0.3 0.3 0.5 0.7 0.1 0.4 0.1 0.9z"/>
		<path id="Layer" class="s2" d="m305.6 424.1c0 0.5-0.3 1-0.8 1.2-0.5 0.2-1.1 0.1-1.5-0.3-0.4-0.4-0.5-0.9-0.3-1.4 0.2-0.5 0.7-0.9 1.2-0.9q0.3 0 0.6 0.1 0.2 0.1 0.4 0.3 0.2 0.2 0.3 0.5 0.1 0.2 0.1 0.5z"/>
		<path id="Layer" class="s5" d="m314.1 423.5c-0.1 0-0.1-2.5-0.1-5.5 0-3.1 0-5.5 0.1-5.5 0.1 0 0.1 2.4 0.1 5.5 0 3-0.1 5.5-0.1 5.5z"/>
		<path id="Layer" class="s5" d="m319 424.1c0 0.9-0.6 1.7-1.4 2.1-0.9 0.3-1.8 0.1-2.5-0.5-0.6-0.7-0.8-1.7-0.5-2.5 0.4-0.9 1.2-1.4 2.1-1.4q0.5 0 0.9 0.2 0.4 0.1 0.7 0.5 0.4 0.3 0.5 0.7 0.2 0.4 0.2 0.9z"/>
		<path id="Layer" class="s2" d="m318 424.1c0 0.5-0.3 1-0.8 1.2-0.5 0.2-1.1 0.1-1.5-0.3-0.4-0.3-0.5-0.9-0.3-1.4 0.2-0.5 0.7-0.9 1.2-0.9q0.3 0 0.6 0.1 0.2 0.1 0.4 0.3 0.2 0.2 0.3 0.5 0.1 0.2 0.1 0.5z"/>
		<path id="Layer" class="s5" d="m316.7 419.9c0 0-0.3 0.1-0.7 0.1-0.4 0-0.8 0-0.8-0.1 0-0.1 0.4-0.1 0.8-0.1 0.4 0 0.7 0 0.7 0.1z"/>
	</g>
	<g id="freepik--Character--inject-14">
		<path id="Layer" class="s7" d="m555.3 252.1c0 0 16.2 2.8 17.5 3.1 1.3 0.3 6.4 2.8 6.6 4.3q0.1 0.8 0.1 1.6 0 0.7 0 1.5 0 0.8 0 1.5 0 0.8-0.1 1.6c0 0.5-0.9 0.7-1.5-0.8q-0.1-0.5-0.2-1.1-0.1-0.5-0.2-1.1 0-0.5-0.1-1.1 0-0.6 0-1.1l-2.8-1.1 1.5 2.7 0.3 6.5c0 0-2-0.2-2.4-1.7q-0.1-0.4-0.1-0.8-0.1-0.4-0.2-0.8 0-0.5 0-0.9-0.1-0.4-0.1-0.8l-2-1.8 1.5 2.1 0.5 4.7c0 0-1.5 0.5-2-0.5q-0.1-0.5-0.2-1-0.1-0.6-0.2-1.1 0-0.5-0.1-1 0-0.5 0-1.1l-5.9-2-3.9 2.2-7.2-4.1z"/>
		<path id="Layer" class="s5" d="m498.9 212.3c0 0.3 19.4 27 19.4 27l38.9 12.1-1.8 14.6-47.6-9.6-17-19.5z"/>
		<g id="Layer" style="opacity: .2">
			<path id="Layer" class="s8" d="m498.9 212.3c0 0.3 19.4 27 19.4 27l38.9 12.1-1.8 14.6-47.6-9.6-17-19.5z"/>
		</g>
		<path id="Layer" class="s4" d="m646.9 462.4c-22.6 1.1-41.7-16.3-42.8-38.9-1.1-22.6 16.3-41.7 38.9-42.8 22.6-1.1 41.7 16.3 42.8 38.9 1.1 22.6-16.3 41.7-38.9 42.8z"/>
		<path id="Layer" class="s4" d="m604.1 420.8c0 0 0 0.1 0 0.1-0.1 10.9 4.1 21.3 11.6 29 7.6 7.7 17.9 12.1 28.7 12.3 10.8 0.1 21.2-4 29-11.5 7.7-7.5 12.2-17.8 12.5-28.6 0.2-10.8 0 0 0-0.1z"/>
		<path id="Layer" class="s2" d="m616.3 421.1c-0.2 11.6 6.6 22.2 17.3 26.8 10.6 4.6 23 2.3 31.4-5.8 8.3-8.1 10.9-20.4 6.6-31.2-4.3-10.8-14.6-17.9-26.2-18.1-3.8 0-7.5 0.7-11 2.1-3.5 1.3-6.7 3.4-9.4 6-2.8 2.7-4.9 5.8-6.4 9.3-1.5 3.4-2.3 7.2-2.3 10.9z"/>
		<path id="Layer" class="s3" d="m645.4 392.8c-3.8 0-7.5 0.7-11 2.1-3.5 1.3-6.7 3.4-9.4 6-2.8 2.7-4.9 5.8-6.4 9.3-1.5 3.4-2.3 7.2-2.4 10.9l57.5 0.8c0-3.7-0.7-7.5-2.1-11-1.4-3.5-3.4-6.7-6.1-9.4-2.6-2.7-5.7-4.8-9.2-6.3-3.4-1.5-7.2-2.3-10.9-2.4z"/>
		<path id="Layer" class="s4" d="m627.5 421.3c-0.1 7.1 4 13.5 10.5 16.3 6.5 2.8 14.1 1.4 19.1-3.5 5.1-4.9 6.7-12.4 4.1-19-2.6-6.6-8.9-10.9-16-11.1-2.3 0-4.6 0.4-6.7 1.3-2.1 0.8-4.1 2.1-5.7 3.7-1.7 1.6-3 3.5-3.9 5.6-0.9 2.1-1.4 4.4-1.4 6.7z"/>
		<path id="Layer" class="s5" d="m625.5 361.6c0 0 41.9-12.7 59.2 32.8l-87.6 27.1z"/>
		<path id="Layer" class="s4" d="m394.6 462.4c-22.6 1.1-41.7-16.3-42.8-38.9-1.1-22.6 16.3-41.7 38.9-42.8 22.6-1.1 41.7 16.3 42.8 38.9 1.1 22.6-16.3 41.7-38.9 42.8z"/>
		<path id="Layer" class="s4" d="m351.8 420.8c0 0 0 0.1 0 0.1-0.1 10.9 4.1 21.3 11.6 29 7.6 7.7 17.9 12.1 28.7 12.3 10.8 0.1 21.2-4 29-11.5 7.8-7.5 12.2-17.8 12.5-28.6v-0.1z"/>
		<path id="Layer" class="s2" d="m364 421.1c-0.2 11.6 6.7 22.2 17.3 26.8 10.7 4.6 23.1 2.3 31.4-5.8 8.3-8.1 11-20.4 6.7-31.2-4.3-10.8-14.7-17.9-26.3-18.1-3.7 0-7.5 0.7-11 2.1-3.5 1.3-6.7 3.4-9.4 6-2.7 2.7-4.9 5.8-6.4 9.3-1.4 3.4-2.2 7.2-2.3 10.9z"/>
		<path id="Layer" class="s3" d="m393.1 392.8c-3.8 0-7.5 0.7-11 2.1-3.5 1.4-6.7 3.4-9.4 6.1-2.7 2.6-4.9 5.7-6.4 9.2-1.4 3.4-2.2 7.2-2.3 10.9l57.4 0.8c0.1-3.7-0.6-7.5-2-11-1.4-3.5-3.5-6.7-6.1-9.4-2.6-2.7-5.8-4.8-9.3-6.3-3.4-1.5-7.1-2.3-10.9-2.4z"/>
		<path id="Layer" class="s4" d="m375.2 421.3c-0.1 7.1 4 13.5 10.5 16.3 6.5 2.8 14.1 1.4 19.2-3.5 5-4.9 6.6-12.4 4-19-2.6-6.6-8.9-10.9-16-11.1-2.3 0-4.6 0.4-6.7 1.3-2.1 0.8-4.1 2.1-5.7 3.7-1.7 1.6-3 3.5-3.9 5.6-0.9 2.1-1.4 4.4-1.4 6.7z"/>
		<path id="Layer" class="s9" d="m450.8 405.1c-0.2 0.1-21.5-3.3-21.5-3.3q-0.9 1.2-1.9 2.1-1.1 0.9-2.4 1.5-1.2 0.7-2.6 1.1-1.4 0.3-2.8 0.4c-9.2 0.4-18.2 0.9-26 1.2-1.7 0.1-3.4 0.5-5 1.2-1.6 0.8-3 1.8-4.1 3.1-1.2 1.2-2.1 2.7-2.7 4.4-0.6 1.6-0.9 3.3-0.8 5 0.1 1.7 0.4 3.3 1.1 4.8 0.7 1.5 1.6 2.9 2.8 4 1.1 1.2 2.5 2.1 4 2.8 1.5 0.6 3.1 1 4.8 1.1l45.3 1.8c7.4 0.3 17.4-4.3 22-10.1z"/>
		<path id="Layer" class="s5" d="m339.6 387c0 0-2-39.9 35.5-48.1v-5.2h131.2v12.3c0 0-19.3 23.2-13 42.4 6.2 19.3 8.2 21.3 8.2 21.3h74.7q2.2-3.1 3.9-6.5 1.7-3.4 2.9-7 1.2-3.6 1.9-7.3 0.6-3.7 0.7-7.5c0.4-16.9-6.6-45.8-11.9-64.3-4.7-16.8-7.7-30.9-7.7-30.9l22.4-7.5c0 0 41.5 54.3 43.1 57.3 1.7 3 7.5 10.2 6.1 25.7-1.3 15.6-38.6 63.7-48.4 69.1-9.8 5.4-18.6 5.8-27.4 7.1-7.6 1.2-64.2 0.4-79 0.2q-1.9 0-3.8-0.3-1.9-0.3-3.7-0.8-1.9-0.5-3.6-1.2-1.8-0.8-3.5-1.8c-4.4-2.6-7.7-7.1-11.4-14.4l-7.8-15.2z"/>
		<path id="Layer" class="s9" d="m349.6 384.3l-16.5 25.8c-0.5 0.8-0.7 1.6-0.7 2.5 0 0.9 0.4 1.7 0.9 2.4 0.6 0.6 1.3 1.1 2.2 1.3 0.8 0.2 1.7 0.1 2.5-0.2q0.8-0.4 1.5-0.8 0.8-0.4 1.5-0.9 0.6-0.4 1.3-1 0.7-0.5 1.3-1.1c7.5-7.2 21-26.1 21-26.1z"/>
		<path id="Layer" class="s4" d="m468.1 388.9c0 0 0-0.1 0.1-0.4l0.3-1q0.2-0.6 0.3-1.1 0.1-0.5 0.3-1.1 0.1-0.5 0.2-1 0-0.6 0.1-1.1 0.2-2 0.2-4-0.1-2-0.4-4-0.4-2-0.9-3.9-0.6-1.9-1.4-3.7-0.6-1.3-1.3-2.5-0.6-1.2-1.4-2.4-0.8-1.1-1.6-2.2-0.9-1.1-1.8-2.1-1.1-1.1-2.3-2.2-1.2-1.1-2.4-2-1.3-1-2.6-1.8-1.3-0.9-2.7-1.6-1.6-0.9-3.2-1.6-1.6-0.7-3.2-1.3-1.7-0.7-3.3-1.2-1.7-0.5-3.4-0.8-1.9-0.4-3.8-0.7-1.8-0.3-3.7-0.5-1.9-0.2-3.8-0.3-1.9-0.1-3.7-0.1-1.9 0-3.8 0.1-1.9 0.1-3.8 0.2-1.8 0.2-3.7 0.4-1.9 0.2-3.7 0.4c-4.9 0.7-9.5 1.5-13.9 2.5q-2.9 0.6-5.8 1.4-2.8 0.9-5.6 1.9-2.8 1-5.5 2.3-2.7 1.2-5.3 2.6-1.8 1-3.5 2.1-1.7 1.1-3.3 2.3-1.6 1.2-3.1 2.6-1.5 1.3-2.9 2.7c-1.3 1.4-2.2 2.5-2.9 3.3l-0.7 0.9q0 0 0 0-0.1 0.1-0.1 0.1 0 0.1-0.1 0.1 0 0 0 0.1 0.4-0.7 0.8-1.2 0.5-0.6 0.9-1.2 0.5-0.6 1-1.1 0.5-0.6 1-1.1 1.4-1.5 2.9-2.8 1.5-1.4 3.1-2.6 1.6-1.3 3.2-2.4 1.7-1.1 3.5-2.1 2.6-1.5 5.3-2.7 2.7-1.3 5.5-2.3 2.8-1.1 5.7-1.9 2.9-0.9 5.8-1.5 6.6-1.5 13.9-2.5 1.9-0.2 3.8-0.4 1.8-0.3 3.7-0.4 1.9-0.1 3.8-0.2 1.9-0.1 3.8-0.1 1.9 0 3.8 0.1 1.9 0.1 3.8 0.3 1.9 0.2 3.8 0.5 1.8 0.3 3.7 0.7 1.7 0.4 3.4 0.9 1.7 0.5 3.4 1.1 1.6 0.6 3.2 1.4 1.7 0.7 3.2 1.6 1.4 0.7 2.8 1.6 1.3 0.9 2.6 1.9 1.3 0.9 2.4 2 1.2 1.1 2.3 2.3 1 1 1.9 2.1 0.8 1.1 1.6 2.2 0.8 1.2 1.4 2.4 0.7 1.3 1.3 2.6 0.8 1.8 1.4 3.7 0.5 2 0.8 4 0.3 2 0.4 4 0 2-0.2 4.1-0.1 0.5-0.2 1-0.1 0.6-0.2 1.1-0.2 0.5-0.3 1.1-0.2 0.5-0.3 1-0.3 0.7-0.4 1.1 0 0 0 0.1-0.1 0-0.1 0.1 0 0 0 0-0.1 0.1-0.1 0.1z"/>
		<path id="Layer" class="s0" d="m460.6 380c-0.1 0 0.2-0.6 0.4-1.8q0.2-0.6 0.3-1.2 0.1-0.6 0.1-1.3 0-0.6-0.1-1.2 0-0.6-0.1-1.3-0.1-0.9-0.4-1.8-0.2-0.9-0.5-1.8-0.3-0.8-0.7-1.7-0.4-0.8-0.8-1.6-0.3-0.5-0.6-1-0.3-0.4-0.6-0.9-0.3-0.4-0.6-0.9-0.3-0.4-0.7-0.8-0.3-0.5-0.7-1-0.4-0.4-0.8-0.8-0.4-0.4-0.8-0.8-0.5-0.4-0.9-0.8-0.9-0.7-1.8-1.4-0.9-0.6-1.9-1.2-1-0.6-2-1.1-1.1-0.5-2.1-0.9-0.9-0.3-1.8-0.6-0.8-0.3-1.7-0.6-0.9-0.2-1.8-0.4-1-0.2-1.9-0.4-0.6-0.1-1.2-0.2-0.6-0.1-1.3-0.1-0.6-0.1-1.2-0.2-0.6 0-1.3 0-0.2-0.1-0.4-0.1-0.3 0-0.5 0-0.2 0-0.5 0-0.2-0.1-0.4-0.1 0 0 0.1 0 0.1 0 0.1 0 0.1 0 0.2 0 0 0 0.1 0 0.4 0 1.3 0 0.7 0 1.3 0 0.6 0.1 1.2 0.1 0.7 0.1 1.3 0.2 0.6 0 1.2 0.1 1 0.2 1.9 0.3 0.9 0.2 1.8 0.5 0.9 0.2 1.8 0.5 0.9 0.3 1.8 0.6 1.1 0.4 2.2 0.9 1 0.5 2 1.1 1 0.5 2 1.2 0.9 0.7 1.8 1.4 0.5 0.4 0.9 0.8 0.5 0.4 0.9 0.8 0.4 0.5 0.8 0.9 0.4 0.5 0.7 1 0.4 0.4 0.7 0.8 0.3 0.5 0.6 1 0.3 0.4 0.6 0.9 0.3 0.5 0.6 1 0.4 0.8 0.8 1.7 0.4 0.8 0.7 1.7 0.3 0.9 0.5 1.8 0.2 1 0.3 1.9 0.1 0.6 0.2 1.3 0 0.6 0 1.2-0.1 0.7-0.2 1.3-0.1 0.6-0.3 1.3 0 0.1-0.1 0.3 0 0.2-0.1 0.3 0 0.2-0.1 0.3-0.1 0.2-0.1 0.4-0.1 0-0.1 0.1 0 0 0 0.1 0 0-0.1 0.1 0 0 0 0.1z"/>
		<g id="Layer" style="opacity: .4">
			<path id="Layer" class="s8" d="m434.9 345.1q2.6 0.4 5.2 1.2 2.6 0.7 5.1 1.7 2.4 1.1 4.8 2.3 2.4 1.3 4.6 2.8 2.3 1.4 4.2 3.3 2 1.8 3.7 3.9 1.7 2 3 4.4 1.4 2.3 2.4 4.8c2.6 6.7 2.2 15.7-0.6 21.2l9.3 0.8c3.1-10.4-0.3-23.2-7.8-31.3q-3.2-3.6-7.1-6.4-3.9-2.8-8.3-4.8-4.3-1.9-9-2.9-4.7-1.1-9.5-1.1"/>
		</g>
		<path id="Layer" class="s4" d="m440.5 279.3c0 0.1-22.1 0.3-49.3 0.3-27.3 0-49.4-0.2-49.4-0.3 0-0.1 22.1-0.3 49.4-0.3 27.2 0 49.3 0.2 49.3 0.3z"/>
		<path id="Layer" class="s4" d="m506.2 338.4c0 0.2-29.5 0.3-65.8 0.3-36.4 0-65.9-0.1-65.9-0.3 0-0.1 29.5-0.2 65.9-0.2 36.3 0 65.8 0.1 65.8 0.2z"/>
		<path id="Layer" class="s9" d="m506.3 333.8q0.5-0.7 0.9-1.4 0.4-0.7 0.7-1.4 0.3-0.7 0.5-1.5 0.2-0.8 0.2-1.6c0.2-3.3-1.3-7.4-4.8-7.4h-45.3c-1.7 0-3.5 0.3-5.1 1-1.6 0.7-3.1 1.6-4.3 2.9-1.2 1.2-2.2 2.7-2.9 4.3-0.6 1.6-1 3.3-1 5.1z"/>
		<path id="Layer" class="s5" d="m566 286.2l-7.9-16.4q-0.8-1.7-0.9-3.6-0.1-1.8 0.4-3.6 0.6-1.8 1.7-3.3 1.2-1.4 2.8-2.4l23.6-14q0.4-0.3 0.9-0.5 0.5-0.2 1-0.4 0.6-0.1 1.1-0.2 0.5 0 1 0h5.1l2 33.2-7.8 3 5 8.1z"/>
		<path id="Layer" class="s1" d="m594.9 243c0 0 8.1 1.8 9.1 14.3 1 12.4-7.1 16.3-7.1 16.3z"/>
		<path id="Layer" class="s4" d="m568.8 263.4c0 0-16.3 7.7-18.3 9-1.4 0.8-2.6 2.4-1.5 5.1 1.8 4.6 9.5 0.3 9.5 0.3l15.1-7.6c0 0 5.9-2.8 3.7-6.2-2.4-3.9-8.5-0.6-8.5-0.6z"/>
		<path id="Layer" class="s7" d="m545.7 260.5c0 0 15.3 2.7 16.6 3 1.3 0.4 6.4 2.8 6.7 4.4q0 0.7 0 1.5 0.1 0.8 0.1 1.5 0 0.8-0.1 1.6 0 0.8 0 1.5c-0.1 0.5-1 0.8-1.5-0.7q-0.2-0.6-0.3-1.1-0.1-0.6-0.1-1.2-0.1-0.5-0.1-1.1 0-0.5 0-1.1l-2.9-1.1 1.6 2.8 0.2 6.5c0 0-2-0.2-2.4-1.8q0-0.4-0.1-0.8-0.1-0.4-0.1-0.8-0.1-0.4-0.1-0.8 0-0.4 0-0.9l-2.1-1.7 1.5 2.1 0.6 4.7c0 0-1.6 0.4-2-0.6q-0.2-0.5-0.3-1-0.1-0.5-0.1-1-0.1-0.6-0.1-1.1-0.1-0.5-0.1-1l-5.8-2.1-3.9 2.2-6.1-3.4z"/>
		<path id="Layer" class="s4" d="m569.5 239.2c0 6.2-2.8 11.2-6.3 11.2-3.5 0-6.4-5-6.4-11.2 0-6.2 2.8-11.2 6.4-11.2 3.5 0 6.3 5 6.3 11.2z"/>
		<path id="Layer" class="s4" d="m564.2 246.9l3.5 12.2q0.5-0.3 0.9-0.7 0.3-0.4 0.6-0.9 0.2-0.4 0.2-1 0.1-0.5-0.1-1c-0.8-4.2-1.3-7.1-2.3-10.8-0.1-0.3-2.8 2.2-2.8 2.2z"/>
		<g id="Layer" style="opacity: .4">
			<path id="Layer" class="s8" d="m495 393.6c-0.3-1-0.7-2-1-3.1-0.3-1.1-0.7-2-0.9-3q-0.2-0.6-0.3-1.1-0.2-0.6-0.3-1.2-0.1-0.5-0.2-1.1-0.1-0.6-0.1-1.2c-5.9 24 3.1 41 18.6 42.1 22.6 1.8 50.1 3 61.2 0.1 20.3-5.3 27.8-22.2 29.6-25 1.8-2.8 17.9-32.4 8-60.8-10-28.4-27.2-58.6-27.2-58.6l-16.4 5.5c0 0 3 14 7.8 30.9 5.2 18.4 12.2 47.3 11.8 64.2q-0.1 3.8-0.7 7.5-0.7 3.8-1.9 7.4-1.2 3.6-2.9 6.9-1.7 3.4-3.9 6.5h-74.6c0 0-1.6-1.6-6.6-16"/>
		</g>
		<path id="Layer" class="s5" d="m336.6 380.8l0.5-5.7 136.3 15.7c1.8 0.2 3.6 0.8 5.2 1.7 1.6 0.9 2.9 2.1 4 3.6 1.1 1.5 1.9 3.2 2.3 5 0.5 1.7 0.5 3.6 0.2 5.4l-0.6 3.4-141-20.4q-1.6-0.3-2.9-1-1.3-0.8-2.3-2-1-1.2-1.4-2.7-0.4-1.5-0.3-3z"/>
		<g id="Layer" style="opacity: .6">
			<path id="Layer" class="s8" d="m336.6 380.8l0.5-5.7 136.3 15.7c1.8 0.2 3.6 0.8 5.2 1.7 1.6 0.9 2.9 2.1 4 3.6 1.1 1.5 1.9 3.2 2.3 5 0.5 1.7 0.5 3.6 0.2 5.4l-0.6 3.4-141-20.4q-1.6-0.3-2.9-1-1.3-0.8-2.3-2-1-1.2-1.4-2.7-0.4-1.5-0.3-3z"/>
		</g>
		<g id="Layer" style="opacity: .3">
			<path id="Layer" class="s8" d="m601.6 418.9c0 0 30-33 36.2-58.9q1.1 0 2.3 0 1.2 0 2.3 0.1 1.2 0.1 2.3 0.2 1.2 0.2 2.4 0.3c0.7 0.2-17.8 48.3-45.5 58.3z"/>
		</g>
		<path id="Layer" class="s4" d="m637.3 348.3q0.1 0.1 0.1 0.2 0 0.1 0 0.3 0 0.1 0.1 0.2 0 0.1 0 0.2c0.1 0.5 0.2 1.3 0.3 2.4q0.1 1.1 0.2 2.2 0 1.2 0 2.3 0 1.1-0.1 2.2-0.1 1.2-0.3 2.3-0.3 1.6-0.6 3.3-0.4 1.6-0.9 3.2-0.5 1.6-1.2 3.1-0.6 1.6-1.3 3.1-0.9 1.8-1.8 3.6-1 1.8-2 3.6-1 1.7-2 3.5-1 1.7-2.1 3.5-2 3.1-4.1 6.1-2.1 3.1-4.3 6.1-2.2 2.9-4.5 5.8-2.3 2.9-4.7 5.7c-2.4 2.9-4.5 5.2-5.9 6.8l-1.6 1.8q0 0.1-0.1 0.1-0.1 0.1-0.2 0.2 0 0.1-0.1 0.1-0.1 0.1-0.2 0.2 0.1-0.1 0.1-0.2 0.1-0.1 0.2-0.2 0 0 0.1-0.1 0.1-0.1 0.1-0.2l1.6-1.9 5.7-6.8q2.4-2.8 4.7-5.7 2.3-2.9 4.4-5.9 2.2-3 4.3-6 2.1-3.1 4-6.2 1.1-1.7 2.2-3.5 1-1.7 2-3.5 1-1.7 2-3.5 0.9-1.8 1.8-3.6 0.7-1.5 1.4-3.1 0.6-1.5 1.1-3.1 0.5-1.5 0.9-3.1 0.3-1.7 0.6-3.3 0.2-1.1 0.3-2.2 0.1-1.1 0.2-2.2 0-1.1 0-2.2 0-1.1-0.1-2.3c-0.1-1-0.2-1.8-0.2-2.4q0-0.1-0.1-0.2 0-0.1 0-0.2 0-0.1 0-0.2 0-0.1 0-0.3z"/>
		<path id="Layer" class="s4" d="m585.5 418.7q-0.7-0.5-1.3-1.1-0.6-0.5-1.2-1-0.6-0.6-1.2-1.1-0.6-0.6-1.1-1.2-0.6-0.5-1.2-1.1-0.6-0.6-1.2-1.1-0.5-0.6-1-1.2-0.6-0.7-1.1-1.3 1.3 1 2.5 2.1 1.2 1.1 2.3 2.2 1.2 1.2 2.3 2.4 1.1 1.1 2.2 2.4z"/>
		<path id="Layer" class="s4" d="m496.4 417.6q0.2-0.5 0.4-1.1 0.3-0.5 0.5-1.1 0.3-0.5 0.7-1 0.3-0.5 0.6-1 0.4-0.5 0.7-1 0.4-0.5 0.8-1 0.4-0.4 0.8-0.8 0.4-0.5 0.9-0.9c0.1 0.2-1.3 1.8-2.7 4-1.5 2.1-2.5 4-2.7 3.9z"/>
		<path id="Layer" class="s4" d="m438.8 436.7q0.6-0.6 1.2-1.2 0.5-0.6 1-1.2 0.6-0.7 1-1.4 0.5-0.7 0.9-1.4 0.4-0.8 0.7-1.6 0.4-0.9 0.6-1.7 0.3-0.9 0.4-1.8 0.2-0.9 0.3-1.8 0.2-2.1-0.2-4.3-0.3-2.2-1.3-4.2-0.9-1.9-2.4-3.6-1.5-1.7-3.3-2.9-0.7-0.5-1.5-0.9-0.8-0.4-1.7-0.8-0.8-0.3-1.6-0.6-0.9-0.2-1.8-0.4-0.8-0.1-1.6-0.2-0.9-0.1-1.7-0.1-0.8 0-1.6 0-0.9 0.1-1.7 0.2 0.1 0 0.1 0 0.1-0.1 0.1-0.1 0.1 0 0.1 0 0.1 0 0.1 0 0.2-0.1 0.4-0.1 0.1 0 0.3-0.1 0.2 0 0.3 0 0.2-0.1 0.4-0.1 0.6-0.1 1.2-0.1 0.6 0 1.2 0 0.7 0 1.3 0.1 0.6 0 1.2 0.1 0.9 0.2 1.8 0.5 0.9 0.2 1.7 0.5 0.9 0.4 1.7 0.8 0.8 0.4 1.6 1 1.9 1.2 3.4 2.9 1.5 1.7 2.5 3.7 1 2.1 1.3 4.3 0.4 2.3 0.2 4.5-0.1 1-0.3 1.9-0.2 0.9-0.5 1.8-0.2 0.8-0.6 1.7-0.4 0.8-0.8 1.6-0.3 0.6-0.6 1.1-0.4 0.5-0.7 1-0.4 0.5-0.8 1-0.5 0.4-0.9 0.8-0.1 0.2-0.2 0.3-0.2 0.1-0.3 0.2-0.1 0.1-0.2 0.2-0.2 0.1-0.3 0.2 0 0-0.1 0.1 0 0-0.1 0-0.1 0-0.1 0.1-0.1 0-0.1 0z"/>
		<path id="Layer" class="s4" d="m389 426.3q-0.1-0.6-0.2-1.2-0.1-0.6-0.2-1.2 0-0.6-0.1-1.2 0-0.6 0-1.2-0.1-0.7-0.1-1.3 0-0.6 0-1.2 0-0.6 0-1.2 0-0.6 0.1-1.2 0.2 1.2 0.3 2.4 0.1 1.2 0.2 2.4 0.1 1.2 0.1 2.4-0.1 1.2-0.1 2.4z"/>
		<path id="Layer" class="s4" d="m392.6 426.3q-0.2-1.2-0.5-2.4-0.2-1.2-0.3-2.4-0.2-1.2-0.3-2.5-0.1-1.2-0.1-2.4 0.2 0.6 0.3 1.2 0.2 0.6 0.3 1.2 0.1 0.6 0.2 1.2 0 0.6 0.1 1.2 0.1 0.6 0.2 1.2 0 0.6 0.1 1.2 0 0.6 0 1.2 0.1 0.6 0 1.3z"/>
		<path id="Layer" class="s4" d="m448.9 333.8c0 0.1-16.6 0.2-37 0.2-20.5 0-37-0.1-37-0.2 0-0.2 16.5-0.3 37-0.3 20.4 0 37 0.1 37 0.3z"/>
		<path id="Layer" class="s9" d="m362.1 449.3q-0.1-0.1-0.1-0.1-0.1-0.1-0.1-0.1-0.1-0.1-0.1-0.1-0.1-0.1-0.2-0.1c-0.2-0.3-0.6-0.8-1.1-1.4q-0.5-0.6-1-1.3-0.5-0.6-1-1.3-0.4-0.7-0.9-1.4-0.4-0.7-0.8-1.4c-1.8-3.2-3.2-6.5-4.1-10-0.9-3.5-1.4-7.1-1.4-10.8 0-3.6 0.5-7.2 1.5-10.7 0.9-3.5 2.3-6.9 4.2-10q0.4-0.7 0.8-1.4 0.5-0.7 0.9-1.4 0.5-0.6 1-1.3 0.5-0.6 1-1.3c0.5-0.6 0.9-1 1.2-1.3 0.2-0.4 0.4-0.5 0.4-0.4q0 0-0.1 0.1 0 0 0 0.1-0.1 0.1-0.1 0.1-0.1 0.1-0.1 0.2c-0.3 0.3-0.7 0.7-1.1 1.4-2.6 3.2-4.7 6.8-6.2 10.7-1.5 3.8-2.4 7.8-2.7 12-0.4 4.1-0.1 8.2 0.8 12.3 0.9 4 2.3 7.9 4.3 11.5q0.4 0.7 0.8 1.4 0.4 0.7 0.9 1.4 0.4 0.7 0.9 1.4 0.5 0.6 0.9 1.3c0.5 0.6 0.9 1.1 1.1 1.4 0.3 0.3 0.4 0.5 0.4 0.5z"/>
		<path id="Layer" class="s9" d="m505.4 373.1l-0.4 0.6-6 11.3-8.4 8.1 16.8 22.5 14.1-2.4c0 0-1.6-3.2-8.6-3.8l-2.7-13.4 9.9-15.4"/>
		<path id="Layer" class="s3" d="m490.6 393.1l16.8 22.5 14.1-2.3-1.9-1.9-11.6 1.3-15.6-21.3-1.8 1.7z"/>
		<path id="Layer" class="s4" d="m511.8 403.3c-0.1 0.1-1.1-0.2-2.1 0-1 0.3-1.8 0.8-1.9 0.7-0.1-0.1 0.5-1.1 1.8-1.3 1.3-0.2 2.3 0.4 2.1 0.6z"/>
		<path id="Layer" class="s4" d="m511 400c-0.1 0.1-0.9-0.6-2-0.6-1.1-0.1-2 0.6-2.1 0.5-0.1-0.2 0.1-0.3 0.4-0.6q0.2-0.2 0.4-0.3 0.2-0.1 0.4-0.1 0.3-0.1 0.5-0.1 0.2-0.1 0.4-0.1 0.2 0 0.5 0.1 0.2 0 0.4 0.1 0.2 0.1 0.4 0.2 0.2 0.1 0.4 0.3c0.2 0.2 0.3 0.5 0.3 0.6z"/>
		<path id="Layer" class="s4" d="m510.4 395.6c-0.2 0.2-0.8-0.6-1.8-0.8-1.1-0.1-1.9 0.3-2 0.2-0.2-0.2 0.1-0.3 0.4-0.5q0.4-0.2 0.8-0.3 0.4 0 0.8 0 0.4 0.1 0.8 0.3 0.3 0.2 0.6 0.5c0.4 0.4 0.4 0.6 0.4 0.6z"/>
		<path id="Layer" class="s4" d="m513.5 391.7c-0.1 0.1-0.6-0.6-1.6-1.1-1-0.4-1.9-0.3-1.9-0.5 0-0.2 1-0.6 2.2 0 1.1 0.6 1.5 1.5 1.3 1.6z"/>
		<path id="Layer" class="s4" d="m514.9 388.5c-0.1 0.1-0.6-0.4-1.5-1.3l-1.4-1.4q-0.1-0.2-0.2-0.3-0.2-0.1-0.3-0.2-0.1-0.1-0.2-0.3-0.1-0.1-0.1-0.3-0.1-0.1-0.1-0.2 0-0.1-0.1-0.2 0-0.1 0-0.2 0.1-0.1 0.1-0.2 0-0.1 0.1-0.2 0.1-0.1 0.2-0.2 0.1-0.1 0.2-0.1 0.1-0.1 0.3-0.1 0.2 0 0.3 0 0.2 0.1 0.4 0.1 0.2 0.1 0.4 0.2 0.1 0.1 0.3 0.2 0.1 0 0.3 0.1 0.1 0.1 0.2 0.2 0.2 0.1 0.3 0.3 0.1 0.1 0.2 0.2 0.2 0.2 0.3 0.4 0.2 0.2 0.3 0.5 0.2 0.2 0.3 0.5 0.1 0.2 0.2 0.5 0.1 0.2 0.1 0.5 0.1 0.2 0.1 0.5 0 0.3-0.1 0.5 0 0.3-0.1 0.5-0.1-0.2-0.1-0.5-0.1-0.2-0.1-0.4-0.1-0.3-0.1-0.5-0.1-0.2-0.1-0.4-0.1-0.3-0.3-0.5-0.1-0.2-0.2-0.4-0.1-0.2-0.3-0.4-0.1-0.2-0.3-0.4-0.1-0.1-0.2-0.2-0.1-0.1-0.3-0.2-0.1 0-0.2-0.1-0.1-0.1-0.2-0.2-0.1-0.1-0.3-0.1-0.1-0.1-0.2-0.1-0.2-0.1-0.3-0.1-0.1 0-0.3 0 0 0-0.1 0 0 0 0 0-0.1 0-0.1 0.1 0 0 0 0-0.1 0.1-0.1 0.1 0 0.1 0 0.1 0 0.1 0 0.1 0 0.1 0.1 0.1 0 0.2 0.1 0.3 0.1 0.1 0.2 0.2 0.1 0.1 0.2 0.2 0.1 0.1 0.2 0.2l1.3 1.6q0.2 0.2 0.4 0.3 0.1 0.2 0.3 0.4 0.1 0.2 0.3 0.4 0.1 0.2 0.2 0.4z"/>
		<path id="Layer" class="s4" d="m515.5 388.8c-0.1 0-0.2-0.7 0.5-1.7q0.3-0.4 0.7-0.8 0.5-0.4 1-0.6 0.6-0.2 1.1-0.2 0.6 0 1.2 0.2 0 0 0.1 0.1 0 0 0.1 0.1 0 0 0 0.1 0 0.1 0.1 0.2 0 0 0 0.1 0 0-0.1 0.1 0 0.1 0 0.1 0 0.1 0 0.1-0.1 0.1-0.1 0.2-0.1 0-0.1 0.1-0.1 0.1-0.1 0.1-0.1 0.1-0.2 0.2-0.1 0.1-0.2 0.1-0.1 0.1-0.2 0.2-0.1 0.1-0.2 0.2-0.1 0.1-0.3 0.2-0.2 0.1-0.4 0.2-0.2 0.2-0.4 0.3-0.2 0.1-0.5 0.1-0.2 0.1-0.4 0.2-0.2 0.1-0.5 0.1-0.2 0.1-0.4 0.1-0.2 0-0.4 0-0.3 0-0.5-0.1c0-0.1 0.7-0.1 1.6-0.5q0.2-0.1 0.4-0.2 0.2-0.1 0.4-0.2 0.2-0.1 0.4-0.2 0.2-0.2 0.4-0.3 0.1-0.1 0.2-0.2 0.1 0 0.2-0.1 0.1-0.1 0.2-0.2 0.1-0.1 0.2-0.2 0 0 0.1-0.1 0 0 0.1-0.1 0 0 0-0.1 0.1 0 0.1-0.1c0.1-0.1 0-0.1 0-0.1q0 0-0.1 0 0 0-0.1-0.1-0.1 0-0.1 0-0.1 0-0.1 0-0.1 0-0.2 0 0 0-0.1 0-0.1 0-0.1 0-0.1 0-0.1 0-0.2 0-0.3 0.1-0.1 0-0.3 0-0.1 0-0.2 0.1-0.1 0-0.2 0.1-0.3 0-0.4 0.1-0.2 0.1-0.4 0.3-0.2 0.1-0.3 0.2-0.2 0.2-0.3 0.4-0.1 0.1-0.3 0.3-0.1 0.2-0.2 0.4-0.1 0.2-0.1 0.4-0.1 0.1-0.2 0.3z"/>
		<path id="Layer" class="s3" d="m501.7 390.9c0.1 0.6-0.2 1.3-0.8 1.7-0.5 0.3-1.3 0.3-1.8-0.1-0.6-0.4-0.8-1.1-0.7-1.7 0.2-0.7 0.7-1.2 1.4-1.3q0.3-0.1 0.6 0 0.4 0.1 0.6 0.3 0.3 0.2 0.5 0.4 0.2 0.3 0.2 0.7z"/>
		<path id="Layer" class="s9" d="m556.5 383.9l4.6 29.3 36.4-5.4c-0.7-3.5-20.6-7.7-20.6-7.7l-2.1-18.8z"/>
		<path id="Layer" class="s3" d="m565.4 400.2q-0.3 0.1-0.5 0.3-0.2 0.2-0.3 0.5-0.1 0.3-0.1 0.5 0 0.3 0.1 0.6 0.1 0.2 0.3 0.4 0.2 0.2 0.5 0.3 0.2 0.1 0.5 0.2 0.3 0 0.5-0.1 0.3-0.2 0.5-0.4 0.2-0.2 0.3-0.5 0.1-0.2 0.1-0.5 0-0.3-0.1-0.6-0.1-0.3-0.3-0.5-0.3-0.2-0.5-0.2-0.3-0.1-0.6-0.1-0.3 0-0.6 0.2"/>
		<path id="Layer" class="s3" d="m561.1 413.2l-0.4-3 35.1-4.1c0 0 1.7 0.5 1.7 1.6z"/>
		<path id="Layer" class="s4" d="m577.5 399.9c0 0.1-0.9 0.4-1.7 1.1-0.8 0.6-1.1 1.5-1.3 1.4-0.2 0-0.1-1.1 0.9-1.9 1-0.8 2.1-0.8 2.1-0.6z"/>
		<path id="Layer" class="s4" d="m581.5 400.9c0.1 0.1-0.6 0.6-1.1 1.4-0.5 0.9-0.6 1.7-0.8 1.7-0.2 0-0.4-1 0.2-2 0.7-1 1.7-1.3 1.7-1.1z"/>
		<path id="Layer" class="s4" d="m584.4 405.1c-0.2 0.1-0.6-0.8-0.3-1.8 0.3-1 1.1-1.6 1.2-1.4 0.1 0.1-0.3 0.7-0.6 1.6-0.2 0.8-0.2 1.6-0.3 1.6z"/>
		<path id="Layer" class="s4" d="m576.5 395.6c0 0.2-0.9 0.1-1.9 0.3-1 0.2-1.7 0.6-1.9 0.5-0.1-0.2 0.6-0.9 1.8-1.1 1.1-0.3 2.1 0.1 2 0.3z"/>
		<path id="Layer" class="s4" d="m575 391.4q-0.2 0.1-0.4 0.2-0.3 0-0.5 0.1-0.2 0-0.5 0-0.2 0-0.4 0-0.3 0-0.5-0.1-0.3 0-0.5 0-0.3-0.1-0.5-0.1-0.3-0.1-0.5-0.1-0.2-0.1-0.3-0.1-0.2 0-0.3-0.1-0.2 0-0.3-0.1-0.2 0-0.3-0.1-0.1 0-0.2-0.1 0 0-0.1 0-0.1-0.1-0.2-0.1 0-0.1-0.1-0.1-0.1-0.1-0.2-0.2-0.1-0.1-0.1-0.3 0-0.1 0-0.2 0-0.2 0.1-0.3 0-0.1 0.1-0.2 0.1-0.1 0.2-0.1 0.1-0.1 0.2-0.1 0.1-0.1 0.2-0.1 0.1 0 0.2 0 0 0 0.1 0 0.1 0 0.2 0 0.1 0 0.2 0 0.1 0 0.3 0 0.1 0 0.3 0.1 0.1 0 0.3 0 0.1 0.1 0.3 0.1 0.2 0.1 0.5 0.2 0.2 0.1 0.4 0.2 0.3 0.1 0.5 0.2 0.2 0.1 0.4 0.3c1 0.6 1.4 1.2 1.3 1.3 0 0-0.5-0.4-1.5-1q-0.2-0.1-0.4-0.2-0.2-0.1-0.5-0.2-0.2 0-0.4-0.1-0.2-0.1-0.5-0.1-0.1-0.1-0.2-0.1-0.2 0-0.3 0-0.2-0.1-0.3-0.1-0.1 0-0.3 0c-0.4 0-0.7 0-0.8 0.2 0 0.2 0 0.1 0.1 0.2q0.1 0 0.1 0.1 0.1 0 0.1 0 0.1 0.1 0.1 0.1 0.1 0 0.2 0 0.1 0.1 0.2 0.2 0.1 0 0.3 0.1 0.1 0 0.2 0.1 0.2 0 0.3 0.1 0.2 0 0.5 0.1 0.2 0 0.4 0.1 0.3 0 0.5 0.1 0.2 0 0.5 0.1 0.2 0 0.4 0 0.3 0 0.5 0 0.2 0 0.4 0 0.3 0.1 0.5 0.1z"/>
		<path id="Layer" class="s4" d="m574.8 391.7c-0.1 0-0.5-0.6-0.8-1.7q0-0.2 0-0.5 0-0.2 0-0.5 0-0.2 0-0.5 0-0.2 0-0.5 0.1-0.1 0.1-0.3 0-0.1 0.1-0.3 0-0.1 0-0.3 0.1-0.1 0.1-0.3 0.1-0.2 0.2-0.3 0.1-0.2 0.2-0.3 0.1-0.2 0.3-0.3 0.2-0.1 0.3-0.2 0.2 0 0.3 0 0.1 0.1 0.2 0.1 0.1 0.1 0.2 0.1 0.1 0.1 0.2 0.2 0 0.1 0.1 0.2 0 0.1 0 0.1 0.1 0.1 0.1 0.2 0 0.1 0.1 0.2 0 0.1 0.1 0.3 0 0.1 0 0.3 0 0.1 0 0.3 0.1 0.2 0 0.3 0 0.3 0 0.5 0 0.3-0.1 0.5 0 0.3-0.1 0.5-0.1 0.3-0.3 0.5c-0.5 1-1.2 1.4-1.3 1.3 0 0 0.5-0.5 0.9-1.5q0.1-0.2 0.2-0.4 0.1-0.2 0.1-0.5 0.1-0.2 0.1-0.4 0-0.2 0-0.5 0-0.1 0-0.2-0.1-0.2-0.1-0.3 0-0.1 0-0.3-0.1-0.1-0.1-0.2c-0.1-0.4-0.3-0.7-0.5-0.6-0.1 0-0.4 0.3-0.5 0.6q-0.1 0.2-0.1 0.3-0.1 0.1-0.1 0.3 0 0.1-0.1 0.2 0 0.2 0 0.3-0.1 0.2-0.1 0.5 0 0.2 0 0.4 0 0.3 0 0.5 0 0.2 0 0.5c0.1 1 0.4 1.7 0.3 1.7z"/>
		<path id="Layer" class="s4" d="m527.9 315.1l-31.3 68.2 20.6 12.4 43.3-82"/>
		<path id="Layer" class="s4" d="m579.4 397.2l-22.4 3.6-13.4-80.1-66.4 4.8q-0.6 0-1.3 0-0.7 0-1.3 0-0.7-0.1-1.3-0.2-0.7-0.1-1.3-0.3c-18.6-5.1-16.1-28.9-14.3-32.7l91.8-2.6c2.4-0.1 4.8 0.3 7 1.1 2.3 0.8 4.4 2 6.2 3.5 1.8 1.5 3.3 3.4 4.5 5.5 1.1 2.1 1.9 4.4 2.2 6.7z"/>
		<path id="Layer" class="s5" d="m456.8 296.1l0.3-33.9c0 0-4.4-22-5.7-30.7-2-13.4-4.7-19.8 17.3-29.4l4.8-1.8 7.4 0.1c8.9 0.6 18.3 8.7 18.5 14l8.6 76.3z"/>
		<path id="Layer" class="s5" d="m458.1 210c0 0-6.2 13.4-5 25.6l23.2 22.2c5.2 5.8 11.7 8.3 20 8.8l47.9 5.2 1.4-12.6-45.6-12.9c-1.8-0.3-2.7-2.2-4.1-3.4z"/>
		<path id="Layer" class="s4" d="m454.4 213.9q0.1-0.1 0.2-0.2 0.1-0.1 0.2-0.2 0.1-0.1 0.3-0.1 0.1-0.1 0.2-0.2 0.4-0.1 0.8-0.3 0.3-0.1 0.7-0.2 0.4-0.1 0.8-0.2 0.4-0.1 0.8-0.1 0.7-0.1 1.3-0.2 0.6 0 1.3 0 0.7 0 1.3 0 0.6 0.1 1.3 0.2 0.2 0 0.4 0.1 0.2 0 0.4 0.1 0.2 0 0.3 0.1 0.2 0.1 0.4 0.2 0.2 0.1 0.4 0.2 0.2 0.1 0.3 0.3 0.2 0.1 0.4 0.2 0.2 0.2 0.3 0.3 1.4 1.1 2.8 2.4c1.9 1.8 3.8 4.1 5.9 6.4q3.2 3.5 7 7.4 3.8 3.9 8.2 8.1 2.2 2.1 4.6 4.2c0.8 0.6 1.6 1.4 2.4 2.1q0.2 0.3 0.5 0.6 0.3 0.2 0.7 0.4 0.3 0.2 0.7 0.3 0.3 0.2 0.7 0.3l45.7 12.9 0.2 0.1v0.2q-0.2 1.3-0.3 2.8c-0.4 3.3-0.7 6.6-1 9.7v0.3h-0.3l-20.3-2.3-9.6-1-9.2-1c-3-0.3-5.9-0.6-8.7-1q-1-0.2-2-0.3-1.1-0.2-2.1-0.5-1-0.2-2-0.5-1-0.3-1.9-0.6-1-0.4-1.8-0.8-0.9-0.4-1.8-0.8-0.8-0.5-1.6-1-0.8-0.5-1.6-1.1c-2-1.4-3.9-2.8-5.6-4.3-6.9-5.8-11.9-11.1-15.4-14.6-1.7-1.8-3.1-3.2-4-4.2l-1-1.1-0.3-0.4q0 0 0.4 0.4c0.2 0.2 0.6 0.6 1 1.1l4 4.1c3.5 3.5 8.6 8.7 15.4 14.4 1.8 1.5 3.6 2.9 5.6 4.3q0.8 0.6 1.6 1.1 0.8 0.5 1.7 0.9 0.8 0.5 1.7 0.9 0.9 0.4 1.8 0.7 0.9 0.3 1.9 0.6 1 0.3 2 0.5 1 0.2 2 0.4 1 0.2 2.1 0.3 4.2 0.6 8.6 1.1l9.2 0.9 9.6 1 20.3 2.2-0.3 0.3c0.4-3.1 0.7-6.4 1-9.8q0.2-1.5 0.3-2.8l0.2 0.3-45.6-13q-0.4-0.1-0.8-0.2-0.4-0.2-0.7-0.4-0.4-0.2-0.8-0.5-0.3-0.2-0.6-0.5c-0.8-0.8-1.5-1.5-2.4-2.2-1.6-1.4-3.1-2.9-4.5-4.3q-4.4-4.2-8.2-8.1-3.8-3.9-7-7.4c-2.2-2.3-3.9-4.6-5.8-6.4q-0.4-0.3-0.7-0.6-0.3-0.3-0.7-0.6-0.3-0.3-0.7-0.6-0.3-0.3-0.7-0.6-0.2-0.2-0.3-0.3-0.2-0.1-0.4-0.3-0.1-0.1-0.3-0.2-0.2-0.1-0.4-0.2-0.1-0.1-0.3-0.2-0.2-0.1-0.4-0.1-0.2-0.1-0.3-0.2-0.2 0-0.4 0-0.7-0.2-1.3-0.2-0.6-0.1-1.3-0.1-0.6 0-1.3 0-0.6 0.1-1.2 0.2-0.4 0-0.8 0.1-0.4 0.1-0.8 0.2-0.4 0.1-0.8 0.2-0.3 0.1-0.7 0.3-0.1 0-0.3 0.1-0.1 0.1-0.2 0.1-0.1 0.1-0.2 0.2-0.1 0.1-0.2 0.2z"/>
		<path id="Layer" class="s7" d="m466.4 170.9l2.3 33c0.1 1.3 0.4 2.5 1 3.7 0.5 1.1 1.3 2.2 2.2 3.1 1 0.9 2.1 1.5 3.3 2 1.2 0.5 2.5 0.7 3.7 0.7 1.4 0 2.8-0.3 4.1-0.8 1.3-0.6 2.5-1.4 3.4-2.4 1-1 1.7-2.3 2.2-3.6 0.5-1.3 0.7-2.7 0.6-4.1-0.2-3.2-0.4-5.7-0.4-5.7 0 0 8-1.3 8.1-9.3 0.1-4.6-0.7-15-1.4-23-0.1-1.3-0.5-2.6-1.1-3.8-0.5-1.2-1.3-2.2-2.3-3.1-1-0.9-2.1-1.6-3.3-2-1.2-0.5-2.5-0.7-3.8-0.7h-4.8c-2 0.1-3.9 0.6-5.7 1.5-1.8 0.9-3.3 2.1-4.6 3.6-1.3 1.5-2.3 3.2-2.9 5.1-0.6 1.8-0.8 3.8-0.6 5.8z"/>
		<path id="Layer" class="s10" d="m488.8 196.6q-1.4 0.1-2.7-0.1-1.4-0.2-2.7-0.6-1.3-0.3-2.6-0.9-1.2-0.6-2.4-1.3c-0.8-0.5 2.5 5.7 10.4 5z"/>
		<path id="Layer" class="s4" d="m493.7 174.7q0 0.2-0.1 0.4-0.1 0.2-0.2 0.4-0.2 0.2-0.4 0.3-0.2 0-0.4 0-0.2 0.1-0.4 0-0.3-0.1-0.4-0.2-0.2-0.1-0.3-0.3-0.1-0.2-0.1-0.4 0-0.3 0.1-0.5 0.1-0.2 0.2-0.4 0.2-0.1 0.4-0.2 0.2-0.1 0.4-0.1 0.2 0 0.4 0 0.2 0.1 0.4 0.3 0.2 0.1 0.3 0.3 0.1 0.2 0.1 0.4z"/>
		<path id="Layer" class="s4" d="m494.1 172.4c-0.1 0.2-1-0.4-2.2-0.4-1.3 0-2.2 0.6-2.3 0.4-0.1-0.1 0.1-0.3 0.5-0.6q0.2-0.1 0.4-0.2 0.2-0.1 0.4-0.2 0.3-0.1 0.5-0.1 0.2-0.1 0.5-0.1 0.2 0 0.5 0.1 0.2 0 0.4 0.1 0.2 0.1 0.5 0.2 0.2 0.1 0.4 0.2c0.3 0.3 0.5 0.6 0.4 0.6z"/>
		<path id="Layer" class="s4" d="m482.2 174.7q0 0.2-0.1 0.4-0.1 0.2-0.3 0.4-0.1 0.2-0.3 0.3-0.2 0-0.4 0.1-0.3 0-0.5-0.1-0.2-0.1-0.3-0.2-0.2-0.1-0.3-0.3-0.1-0.2-0.1-0.4 0-0.3 0.1-0.5 0-0.2 0.2-0.4 0.1-0.1 0.4-0.2 0.2-0.1 0.4-0.1 0.2 0 0.4 0 0.2 0.1 0.4 0.3 0.1 0.1 0.2 0.3 0.1 0.2 0.2 0.4z"/>
		<path id="Layer" class="s4" d="m482 172.7c-0.1 0.1-1-0.5-2.2-0.5-1.3 0-2.2 0.6-2.3 0.5-0.1-0.2 0.1-0.4 0.5-0.7q0.2-0.1 0.4-0.2 0.2-0.1 0.4-0.2 0.3-0.1 0.5-0.1 0.2 0 0.5 0 0.2 0 0.5 0 0.2 0.1 0.4 0.1 0.2 0.1 0.5 0.2 0.2 0.1 0.4 0.2c0.4 0.3 0.5 0.6 0.4 0.7z"/>
		<path id="Layer" class="s4" d="m486.5 181.8q0.2-0.1 0.5-0.2 0.2 0 0.5-0.1 0.2 0 0.5 0 0.2-0.1 0.5-0.1c0.3 0 0.6-0.1 0.7-0.3q0-0.1 0-0.2-0.1-0.2-0.1-0.3 0-0.1-0.1-0.2 0-0.1-0.1-0.2l-0.9-2.4q-0.3-0.8-0.6-1.5-0.3-0.8-0.6-1.6-0.2-0.8-0.5-1.5-0.2-0.8-0.4-1.6 0.4 0.7 0.8 1.4 0.3 0.8 0.6 1.5 0.4 0.8 0.6 1.6 0.3 0.7 0.6 1.5l0.9 2.4q0.1 0.2 0.1 0.3 0.1 0.2 0.1 0.3 0 0.2 0 0.3 0 0.2 0 0.3-0.1 0.1-0.1 0.2-0.1 0.1-0.2 0.1 0 0.1-0.1 0.1-0.1 0.1-0.2 0.1 0 0-0.1 0-0.1 0-0.1 0.1-0.1 0-0.2 0 0 0-0.1 0-0.2 0-0.5 0-0.3 0-0.5 0-0.3 0-0.5 0-0.3 0-0.5 0z"/>
		<path id="Layer" class="s4" d="m482.9 182.6c0.2 0 0.2 1.3 1.3 2.3 1.2 0.9 2.6 0.8 2.6 1 0 0.2-0.3 0.2-0.9 0.3q-0.3 0-0.6-0.1-0.3 0-0.6-0.1-0.2-0.1-0.5-0.3-0.2-0.1-0.5-0.3-0.2-0.2-0.4-0.4-0.1-0.2-0.3-0.4-0.1-0.3-0.2-0.6 0-0.2-0.1-0.5c-0.1-0.5 0.1-0.9 0.2-0.9z"/>
		<path id="Layer" class="s4" d="m482.4 167.9c-0.2 0.3-1.4 0.2-2.8 0.3-1.5 0.2-2.6 0.6-2.8 0.3-0.2-0.3 0.1-0.5 0.6-0.8q0.4-0.3 1-0.5 0.5-0.2 1-0.2 0.6-0.1 1.1 0 0.6 0.1 1.1 0.2c0.5 0.2 0.8 0.5 0.8 0.7z"/>
		<path id="Layer" class="s4" d="m493.6 168.9c-0.2 0.3-1 0-2 0-1 0-1.9 0.2-2.1-0.1-0.2-0.3 0-0.4 0.4-0.7q0.2-0.1 0.4-0.2 0.2-0.1 0.4-0.2 0.2 0 0.5 0 0.2-0.1 0.4-0.1 0.2 0.1 0.4 0.1 0.3 0 0.5 0.1 0.2 0.1 0.4 0.2 0.2 0.1 0.4 0.2c0.3 0.3 0.4 0.6 0.3 0.7z"/>
		<path id="Layer" class="s7" d="m469.1 176.9c-0.2-0.1-5.5-1.7-5.4 3.8 0.2 5.5 5.7 4.2 5.7 4 0-0.1-0.4-7.8-0.4-7.8z"/>
		<path id="Layer" class="s10" d="m467.6 182.7q0 0-0.2 0.2-0.1 0-0.2 0-0.1 0-0.2 0-0.1 0-0.2 0-0.1 0-0.1 0-0.3-0.2-0.5-0.4-0.2-0.3-0.4-0.5-0.1-0.3-0.2-0.6-0.1-0.3-0.1-0.6 0-0.2 0-0.4 0-0.1 0-0.3 0.1-0.2 0.1-0.4 0.1-0.1 0.1-0.3 0.1-0.1 0.1-0.2 0.1-0.2 0.2-0.3 0.1-0.1 0.2-0.1 0.1-0.1 0.2-0.1 0.1-0.1 0.2-0.1 0.1 0 0.1 0.1 0.1 0 0.2 0.1 0.1 0 0.1 0.1c0.1 0.2 0 0.3 0.1 0.3 0 0 0.1-0.1 0-0.3q0-0.1 0-0.1 0-0.1-0.1-0.1 0-0.1 0-0.1-0.1-0.1-0.1-0.1-0.1 0-0.1-0.1-0.1 0-0.2 0 0 0-0.1 0-0.1 0-0.1 0-0.2 0-0.4 0.1-0.1 0.1-0.2 0.2-0.2 0.1-0.3 0.3-0.1 0.1-0.1 0.3-0.1 0.1-0.2 0.3 0 0.2-0.1 0.4 0 0.2 0 0.4 0 0.2 0 0.4 0 0.4 0.1 0.7 0.1 0.4 0.3 0.7 0.2 0.3 0.4 0.5 0.3 0.3 0.6 0.4 0.2 0 0.3 0 0.1 0 0.2 0 0.1 0 0.2 0 0.1-0.1 0.2-0.2c0.2-0.1 0.2-0.2 0.2-0.2z"/>
		<path id="Layer" class="s4" d="m466 176.7q0.4 0 0.8 0 0.4 0.1 0.7 0.3 0.3 0.2 0.6 0.4 0.3 0.3 0.5 0.6c0.4 0.8 0.5 1.7 0.8 2.5q0.1 0.3 0.3 0.5 0.2 0.3 0.5 0.5 0.3 0.1 0.6 0.2 0.3 0.1 0.6 0.1 0.2-0.1 0.4-0.2 0.2-0.1 0.3-0.3 0.2-0.2 0.3-0.4 0.1-0.2 0.1-0.4 0.1-0.2 0.1-0.4 0-0.2 0-0.5 0-0.2 0-0.4 0-0.2-0.1-0.4c-0.3-2.6-0.8-5.1-0.9-7.7q-0.1-0.9 0-1.9 0-1 0.3-1.9 0.2-1 0.5-1.9 0.3-0.9 0.8-1.7 0.5-0.8 1.2-1.5 0.7-0.7 1.5-1.2 0.8-0.4 1.8-0.7 0.9-0.2 1.9-0.2c1.7 0.2 3.2 1 4.9 1.3q0.8 0.1 1.5 0 0.8-0.1 1.5-0.3 0.7-0.3 1.4-0.7 0.6-0.3 1.2-0.9 0.1-0.1 0.2-0.2 0.1-0.1 0.3-0.2 0.1-0.1 0.2-0.2 0.1 0 0.3-0.1 0-0.3-0.1-0.5 0-0.2-0.1-0.4-0.1-0.2-0.2-0.4-0.1-0.2-0.2-0.4c-3.4-3.1-9.4-4-13.8-2.9q-1.7 0.5-3.2 1.2-1.6 0.8-2.9 1.9-1.4 1.1-2.5 2.4-1.1 1.4-1.8 2.9c-1.9 4.2-1.4 9.9-0.3 14.1"/>
		<path id="Layer" class="s5" d="m495.6 163.2c0 0-21-6.7-30 11.4q-0.3-0.9-0.5-1.7-0.2-0.9-0.4-1.8-0.2-0.9-0.3-1.7-0.1-0.9-0.2-1.8c0-1.6 1-11.3 10.9-14.3 0 0 15-5.7 20.5 9.9z"/>
		<path id="Layer" class="s4" d="m477.6 163.7q0.5 0.9 1.4 1.4 1 0.6 2 0.7 1.1 0.1 2.1-0.3 1-0.4 1.7-1.2c0.2 0.5 0.6 1 1.1 1.3 0.4 0.3 1 0.4 1.5 0.4 0.6 0 1.1-0.2 1.6-0.6 0.4-0.3 0.7-0.8 0.9-1.3q0.2 0.2 0.4 0.4 0.3 0.2 0.5 0.4 0.3 0.2 0.5 0.4 0.3 0.1 0.6 0.3 0.3 0.1 0.6 0.1 0.3 0 0.6 0 0.3-0.1 0.6-0.3 0.3-0.1 0.5-0.3 0.2-0.3 0.3-0.6 0.1-0.3 0-0.7 0-0.3-0.1-0.6-0.1-0.3-0.3-0.5-0.2-0.3-0.5-0.5-0.2-0.2-0.5-0.4-0.3-0.2-0.6-0.3-0.2-0.2-0.6-0.3-0.9-0.4-1.8-0.7-1-0.2-2-0.4-1-0.1-2-0.2-1 0-2.1 0.1-1 0.2-1.9 0.5-1 0.3-1.9 0.8-0.9 0.4-1.6 1.1-0.8 0.6-1.5 1.4"/>
		<g id="Layer" style="opacity: .4">
			<path id="Layer" class="s8" d="m495.6 163.2q-0.7-0.7-1.5-1.2-0.7-0.6-1.6-0.9-0.8-0.4-1.7-0.6-1-0.3-1.9-0.3c-6.2-0.3-17.7 3.2-23.3 14.4q-0.3-0.8-0.5-1.7-0.2-0.9-0.4-1.8-0.2-0.8-0.3-1.7-0.1-0.9-0.2-1.8c0-1.6 1-11.3 10.9-14.3 0 0 15-5.7 20.5 9.9z"/>
		</g>
		<path id="Layer" class="s5" d="m466.4 172.5q1.2-1.8 2.6-3.4 1.4-1.7 2.9-3.1 1.5-1.5 3.2-2.8 1.7-1.3 3.5-2.4c4.9-3 12.8-6 18.3-7.5q0.6-0.2 1.2-0.3 0.6-0.1 1.3-0.2 0.6-0.1 1.3-0.1 0.6 0 1.2 0.1 0.7 0.1 1.3 0.4 0.6 0.2 1 0.6 0.5 0.4 0.9 0.9 0.4 0.6 0.6 1.2c0.5 2-3.2 5.2-4.9 6.5q-0.6 0.4-1.3 0.8-0.6 0.4-1.3 0.8-0.6 0.4-1.3 0.8-0.7 0.3-1.3 0.7c-0.5 0.2 0-3.9-6.1-4.6-8.4-1.1-23.1 11.6-23.1 11.6z"/>
		<g id="Layer" style="opacity: .3">
			<path id="Layer" class="s8" d="m459.1 240.5c2.1 5.2 4.3 11.7 7.4 16.4 3.2 4.6 7.3 8.8 12.5 11 6.6 2.7 14.3 3.1 20.8 0.3 0.5-0.2 1.6-0.5 1.5-1.1 0 0-2.2-0.2-2.8-0.3-13.2-2.2-14.6-3.8-20.9-8.8-3.9-3.1-12.6-12.5-18.5-17.5z"/>
		</g>
		<path id="Layer" class="s4" d="m500.8 278.5q0 0.1-0.1 0.3 0 0.1-0.1 0.3-0.1 0.1-0.2 0.3 0 0.1-0.1 0.3-0.2 0.4-0.5 0.8-0.2 0.4-0.5 0.7-0.3 0.4-0.6 0.8-0.2 0.3-0.6 0.7-1 1.1-2.2 2-1.1 1-2.4 1.7-1.3 0.8-2.7 1.4-1.4 0.6-2.8 1.1-1.4 0.4-2.9 0.7-1.5 0.3-3 0.5-1.4 0.3-2.9 0.4-1.5 0.1-3 0.1c-1.6 0.1-2.8 0.1-3.7 0.1q-0.1 0-0.3 0-0.2 0-0.3 0-0.2 0-0.4 0-0.1 0-0.3-0.1 0.2 0 0.3 0 0.2 0 0.4-0.1 0.1 0 0.3 0 0.2 0 0.3 0l3.6-0.2q1.5-0.1 3-0.3 1.5-0.1 2.9-0.3 1.5-0.3 3-0.6 1.4-0.3 2.9-0.7 1.4-0.5 2.7-1 1.4-0.6 2.7-1.4 1.2-0.8 2.4-1.7 1.2-0.9 2.2-1.9 0.4-0.5 0.8-1 0.4-0.4 0.8-0.9 0.3-0.5 0.7-1 0.3-0.5 0.6-1z"/>
		<path id="Layer" class="s9" d="m557.4 403.2q0 0 0-0.1-0.1 0-0.1 0 0-0.1 0-0.1 0-0.1 0-0.1c0-0.2-0.1-0.5-0.2-0.9q-0.2-1.3-0.6-3.6c-0.6-3.1-1.3-7.5-2.3-13-1.9-11.1-4.4-26.3-7.3-43.1-1.3-7.7-2.5-14.9-3.6-21.6l0.3 0.2-28.7 2.1-8.3 0.6-2.2 0.1h-0.5-0.2 0.2l0.5-0.1 2.2-0.2 8.3-0.7 28.6-2.3h0.3v0.3c1.1 6.6 2.3 13.9 3.6 21.5 2.8 16.8 5.3 32.1 7.1 43.1 0.9 5.5 1.6 10 2.2 13.1l0.5 3.6q0.1 0.6 0.1 0.9 0 0 0 0.1 0.1 0 0.1 0.1 0 0 0 0 0 0.1 0 0.1z"/>
		<path id="Layer" class="s9" d="m550.3 313.5c0.1 0.2-1.7 1.7-3.6 3.7-2 2-3.5 3.8-3.6 3.7q0.7-1.1 1.5-2.1 0.8-1.1 1.7-2 0.9-0.9 1.9-1.7 1-0.9 2.1-1.6z"/>
		<path id="Layer" class="s4" d="m489 203.2q0 0 0.1 0.3 0.1 0.1 0.1 0.2 0 0.2 0 0.3 0.1 0.1 0.1 0.2 0 0.2 0 0.3 0.1 0.5 0 0.9 0 0.5 0 0.9-0.1 0.5-0.2 1-0.1 0.4-0.3 0.8-0.2 0.7-0.5 1.3-0.4 0.6-0.8 1.1-0.4 0.6-0.9 1.1-0.5 0.5-1.1 0.9-0.7 0.4-1.4 0.8-0.8 0.3-1.6 0.6-0.8 0.2-1.7 0.3-0.8 0-1.7 0-0.8-0.1-1.6-0.3-0.9-0.1-1.7-0.4-0.8-0.3-1.5-0.7-0.7-0.4-1.4-1-0.6-0.4-1.1-0.8-0.4-0.5-0.9-1-0.4-0.6-0.8-1.1-0.4-0.6-0.8-1.2-0.2-0.4-0.4-0.8-0.2-0.4-0.3-0.8-0.2-0.5-0.4-0.9-0.1-0.4-0.2-0.9-0.2-0.6-0.2-1c0-0.2 0-0.3 0-0.3q0.2 0.6 0.4 1.1 0.2 0.6 0.4 1.2 0.2 0.6 0.5 1.1 0.3 0.6 0.6 1.1 0.3 0.6 0.7 1.1 0.4 0.5 0.8 1 0.5 0.5 1 1 0.5 0.4 1 0.8 0.6 0.5 1.4 0.9 0.7 0.4 1.4 0.7 0.8 0.2 1.6 0.4 0.8 0.2 1.6 0.2 0.8 0.1 1.6 0 0.8-0.1 1.6-0.3 0.8-0.2 1.5-0.5 0.7-0.3 1.4-0.8 0.5-0.3 1-0.8 0.5-0.4 0.9-1 0.4-0.5 0.7-1 0.4-0.6 0.6-1.2 0.2-0.4 0.3-0.9 0.1-0.4 0.2-0.8 0.1-0.5 0.1-0.9 0.1-0.5 0-0.9c0-0.8-0.1-1.3-0.1-1.3z"/>
		<path id="Layer" class="s4" d="m503.1 246.8q0-0.1-0.1-0.2 0-0.1 0-0.3-0.1-0.1-0.1-0.2 0-0.1 0-0.3-0.2-1.2-0.4-2.8c-0.3-2.6-0.8-5.9-1.2-9.5-0.5-3.6-0.9-7-1-9.5-0.2-1.2-0.2-2.2-0.3-2.8q0-0.2 0-0.3 0-0.1 0-0.3 0-0.1 0-0.2 0-0.2 0-0.3 0.1 0.1 0.1 0.2 0 0.2 0.1 0.3 0 0.1 0 0.2 0 0.2 0 0.3 0.2 1.2 0.4 2.9c0.4 2.5 0.8 5.8 1.2 9.4 0.5 3.6 0.9 7 1.1 9.5q0.2 1.8 0.2 2.9 0.1 0.1 0.1 0.2 0 0.2 0 0.3 0 0.1-0.1 0.3 0 0.1 0 0.2z"/>
	</g>
</svg>