<?xml version="1.0" encoding="utf-8"?>
<!-- Generator: Adobe Illustrator 27.5.0, SVG Export Plug-In . SVG Version: 6.00 Build 0)  -->
<svg version="1.1" xmlns="http://www.w3.org/2000/svg" xmlns:xlink="http://www.w3.org/1999/xlink" x="0px" y="0px"
	 viewBox="0 0 750 500" style="enable-background:new 0 0 750 500;" xml:space="preserve">
<g id="BACKGROUND">
	<g>
		<g>
			<path style="fill:#F5E7D7;" d="M683.932,334.628c-2.26-10.65-7.367-20.706-14.471-28.938
				c-8.152-9.448-18.578-14.786-29.643-20.12c-12.332-5.944-22.839-13.668-30.059-25.539c-7.207-11.85-9.633-25.524-10.525-39.176
				c-1.578-24.145,0.431-48.71-10.814-70.981c-9.529-18.872-26.042-34.24-45.588-42.304c-24.508-10.111-51.114-5.892-76.817-5.387
				c-13.816,0.271-27.84-0.619-40.869-5.596c-12.432-4.749-23.392-12.472-34.432-19.745c-21.154-13.935-43.593-23.175-69.263-23.419
				c-23.509-0.223-49.915,6.385-67.447,22.844c-18.816,17.663-24.921,46.454-29.395,70.787
				c-9.089,49.435-11.169,107.563-54.289,141.248c-16.174,12.635-36.098,21.775-48.419,38.753
				c-14.204,19.573-10.687,45.089,1.739,64.607c6.499,10.209,14.972,18.817,24.026,26.758c-1.109,0.684-0.861,2.795,0.767,2.784
				c123.254-0.847,245.62,1.996,368.873,0.885c27.998-0.252,54.945,1.656,82.882-0.449c21.722-1.637,46.718-11.52,63.515-26.309
				C680.569,380.479,688.602,356.639,683.932,334.628z"/>
			<path style="fill:#F5E7D7;" d="M457.571,82.571c8.725,0.063,17.95-3.528,21.474-12.085c2.941-7.142-0.984-16.486-8.409-17.913
				c-8.234-4.039-18.355-5.439-26.938-1.859c-7.808,3.256-13.564,12.041-9.757,20.393C437.935,79.869,448.776,82.507,457.571,82.571
				z"/>
			<path style="fill:#F5E7D7;" d="M621.089,232.877c0.531,4.029,2.207,7.975,5.074,11.413c7.1,8.512,22.937,14.69,31.81,5.306
				c8.64-9.139-2.175-23.562-9.402-30.101c-5.69-5.148-14.18-7.608-20.84-4.601c-0.239-0.141-0.542-0.154-0.784,0.108
				c-0.161,0.174-0.301,0.36-0.456,0.537c-1.738,1.006-3.323,2.42-4.657,4.312c-0.233,0.33-0.268,0.682-0.185,1.008
				C619.633,224.23,619.79,228.593,621.089,232.877z"/>
			<path style="fill:#F5E7D7;" d="M115.288,277.362c0.374,2.833,1.552,5.607,3.568,8.024c4.992,5.985,16.127,10.328,22.365,3.73
				c6.075-6.425-1.529-16.566-6.611-21.163c-4.001-3.619-9.97-5.349-14.653-3.235c-0.168-0.099-0.381-0.108-0.552,0.076
				c-0.114,0.122-0.211,0.253-0.32,0.378c-1.222,0.708-2.336,1.702-3.274,3.032c-0.164,0.232-0.188,0.479-0.13,0.709
				C114.264,271.282,114.374,274.349,115.288,277.362z"/>
		</g>
		
			<line style="fill:none;stroke:#F5B367;stroke-width:4;stroke-linecap:round;stroke-miterlimit:10;" x1="82.183" y1="421.641" x2="705.569" y2="421.641"/>
	</g>
</g>
<g id="OBJECTS">
	<g>
		<g>
			<path style="fill:#424543;" d="M421.131,420.043H272.566c-6.315,0-11.435-5.12-11.435-11.435V111.94
				c0-6.315,5.119-11.435,11.435-11.435h148.564c6.315,0,11.435,5.12,11.435,11.435v296.669
				C432.566,414.923,427.446,420.043,421.131,420.043z"/>
			<path style="fill:#FFFFFF;" d="M421.166,127.529v266.762c0,5.569-4.524,10.094-10.093,10.094H282.628
				c-5.579,0-10.093-4.524-10.093-10.094V127.529c0-5.579,4.515-10.093,10.093-10.093h128.445
				C416.641,117.436,421.166,121.95,421.166,127.529z"/>
			<path style="fill:#EBF0ED;" d="M323.548,117.436v77.91c0,4.016-3.259,7.275-7.275,7.275h-43.738v-75.092
				c0-5.579,4.515-10.093,10.093-10.093H323.548z"/>
			<path style="fill:#EBF0ED;" d="M373.833,301.936v70.817H272.534v-41.15c19.497,0,36.156-12.365,42.55-29.667H373.833z"/>
			<path style="fill:#96D6B6;" d="M330.984,179.778v16.714c0,7.262-5.887,13.149-13.15,13.149l0,0v49.884h32.822v-38.89v-10.993
				v-29.863H330.984z"/>
			<rect x="382.056" y="301.934" style="fill:#EBF0ED;" width="39.109" height="70.818"/>
			<path style="fill:#96D6B6;" d="M350.646,380.44c-14.896,6.077-17.407,23.13-17.513,23.945h-50.506
				c-5.579,0-10.093-4.524-10.093-10.094V380.44H350.646z"/>
			<rect x="330.984" y="117.437" style="fill:#EBF0ED;" width="53.76" height="56.872"/>
			<rect x="357.44" y="179.778" style="fill:#EBF0ED;" width="63.722" height="79.564"/>
			<rect x="317.835" y="266.31" style="fill:#EBF0ED;" width="103.328" height="28.838"/>
			<path style="fill:#EBF0ED;" d="M421.166,127.529v46.777h-29.811v-56.87h19.717C416.641,117.436,421.166,121.95,421.166,127.529z"
				/>
			<path style="fill:#EBF0ED;" d="M309.93,209.675v73.501c0,21.376-16.694,38.818-37.396,39.315V209.675H309.93z"/>
			<path style="fill:#EBF0ED;" d="M374.259,380.437c-23.615,0-30.605,9.922-36.449,23.948h73.262
				c5.569,0,10.093-4.524,10.093-10.094v-13.854H374.259z"/>
			<path style="fill:#FFFFFF;" d="M349.284,108.314c0,1.345-1.09,2.435-2.435,2.435s-2.435-1.09-2.435-2.435
				c0-1.345,1.09-2.435,2.435-2.435S349.284,106.97,349.284,108.314z"/>
		</g>
		<g>
			<g>
				<path style="fill:#FFFFFF;" d="M506.72,254.51c-0.14-4.773,0.347-10.617-0.482-15.271c-1.007-5.656-5.79-4.181-9.462-4.224
					c-2.576-0.03-5.152-0.014-7.729,0.025c-11.193-0.134-22.411,0.663-33.516,2.238c-3.413,0.484-9.926-0.203-12.352,3.831
					c-1.362,2.266-1.183,5.589-1.285,8.28c-0.193,5.133-0.126,10.23-0.056,15.303c0.016,1.16,0.962,2.206,1.865,1.809
					c0.322-0.141,0.65-0.265,0.975-0.395c0.378,2.165,0.991,4.104,2.792,4.761c3.676,1.342,8.893-0.117,12.706-0.194
					c5.112-0.103,10.224-0.12,15.336-0.05c10.217,0.14,20.431,0.547,30.612,1.229c0.521,0.035,1.085-0.631,1.065-1.313
					L506.72,254.51z"/>
				<g>
					<path d="M456.469,244.983h-3.757v-2.213h10.229v2.213h-3.756v9.525h-2.717V244.983z"/>
					<path d="M472.682,251.993h-5.451l-1.039,2.515h-2.783l5.232-11.738h2.682l5.25,11.738h-2.851L472.682,251.993z M471.826,249.93
						l-1.861-4.494l-1.862,4.494H471.826z"/>
					<path d="M485.723,254.508l-2.834-4.075l-2.783,4.075h-3.12l4.344-5.97l-4.126-5.768h3.086l2.699,3.807l2.65-3.807h2.935
						l-4.092,5.668l4.377,6.071H485.723z"/>
					<path d="M491.068,242.77h2.717v11.738h-2.717V242.77z"/>
				</g>
			</g>
			<g>
				<path style="fill:#F6C042;" d="M696.355,395.875c0,0,12.743-62.042-46.337-73.304c-59.08-11.262-59.08-11.262-59.08-11.262
					s-40.545-45.179-68.348-47.496c-27.802-2.317-111.21-9.268-134.379,6.951s-39.387,51.807-39.387,51.807
					s-55.605,1.939-64.872,19.087c-9.267,17.147-6.951,54.217-6.951,54.217H696.355z"/>
				<g>
					<path style="fill:#020403;" d="M579.773,323.642c0,0-37.647-41.557-63.141-44.106c-25.494-2.549-105.036-6.628-116.253,2.04
						s-31.103,41.3-31.103,41.3L579.773,323.642z"/>
					<path style="fill:#020403;" d="M478.188,335.432h13.052c2.023,0,3.663-1.64,3.663-3.663l0,0c0-2.023-1.64-3.663-3.663-3.663
						h-13.052c-2.023,0-3.663,1.64-3.663,3.663l0,0C474.525,333.792,476.165,335.432,478.188,335.432z"/>
					<path style="fill:#020403;" d="M370.712,335.432h13.052c2.023,0,3.663-1.64,3.663-3.663l0,0c0-2.023-1.64-3.663-3.663-3.663
						h-13.052c-2.023,0-3.663,1.64-3.663,3.663l0,0C367.049,333.792,368.689,335.432,370.712,335.432z"/>
				</g>
				<path style="fill:#020403;" d="M278.512,407.545h420.966c4.502,0,8.152-3.65,8.152-8.152l0,0c0-4.502-3.65-8.152-8.152-8.152
					H278.512c-4.502,0-8.152,3.65-8.152,8.152l0,0C270.36,403.895,274.01,407.545,278.512,407.545z"/>
				<path style="fill:#FFFFFF;" d="M283.952,341.657c1.272-2.353,3.439-4.411,6.193-6.225h14.016c4.853,0,8.787,3.934,8.787,8.788
					c0,4.853-3.934,8.787-8.787,8.787h-24.286C280.888,348.775,282.217,344.867,283.952,341.657z"/>
				<g>
					<path style="fill:#FFFFFF;" d="M639.94,338.96c5.13,5.75,31.57,2.59,43.22,0.88c-1.3-1.43-2.7-2.81-4.23-4.14
						c-6.89-5.97-16.25-10.72-28.91-13.13c-0.94-0.18-1.86-0.35-2.76-0.53c-2.33-0.44-4.56-0.87-6.71-1.27
						C638.2,325.98,635.65,334.18,639.94,338.96z"/>
					<path style="fill:#EBF0ED;" d="M639.94,338.96c5.13,5.75,31.57,2.59,43.22,0.88c-1.3-1.43-2.7-2.81-4.23-4.14
						c-22.62,3.16-29.59-7.9-31.67-13.66c-2.33-0.44-4.56-0.87-6.71-1.27C638.2,325.98,635.65,334.18,639.94,338.96z"/>
				</g>
				<g>
					
						<rect x="465.52" y="273.16" transform="matrix(-1 -1.224647e-16 1.224647e-16 -1 940.0452 604.6719)" style="fill:#F6C042;" width="9.005" height="58.352"/>
					
						<line style="fill:none;stroke:#F49C45;stroke-width:2;stroke-linecap:round;stroke-miterlimit:10;" x1="469.964" y1="331.512" x2="469.964" y2="378.932"/>
					<path style="fill:none;stroke:#F49C45;stroke-width:2;stroke-linecap:round;stroke-miterlimit:10;" d="M520.298,271.852
						c0,0,34.533,8.995,68.263,48.918"/>
				</g>
			</g>
			<g>
				
					<ellipse transform="matrix(0.9742 -0.2257 0.2257 0.9742 -76.9044 145.9232)" style="fill:#020403;" cx="599.782" cy="409.323" rx="42.027" ry="42.027"/>
				
					<ellipse transform="matrix(0.9716 -0.2366 0.2366 0.9716 -79.8208 153.542)" style="fill:#FFFFFF;" cx="599.782" cy="409.323" rx="19.096" ry="19.096"/>
			</g>
			<g>
				
					<ellipse transform="matrix(0.9874 -0.1581 0.1581 0.9874 -60.0516 63.8161)" style="fill:#020403;" cx="371.049" cy="409.323" rx="42.027" ry="42.027"/>
				
					<ellipse transform="matrix(0.387 -0.9221 0.9221 0.387 -149.9851 593.0253)" style="fill:#FFFFFF;" cx="371.049" cy="409.323" rx="19.096" ry="19.096"/>
			</g>
		</g>
		<g>
			<g>
				<g>
					<g>
						<path style="fill:#000201;" d="M173.37,416.13c-0.371-0.609-1.024-0.653-1.527-0.397c-0.194,0-0.406,0.053-0.653,0.212
							c-3.16,2.057-9.622,1.942-13.408,1.156l-1.059,0.45c-5.031,1.457-10.019,3.072-14.909,4.961
							c-3.045,1.174-6.938,2.357-9.092,4.996c-5.632,6.92,5.332,6.497,9.383,6.709c5.711,0.3,11.44,0.362,17.16,0.185
							c4.069-0.124,9.895,0.547,13.708-1.024C179.567,430.66,175.877,420.367,173.37,416.13z"/>
					</g>
					<path style="fill:#F6C1A7;" d="M173.184,415.95c-1.419-3.959-0.903-8.723-0.597-12.838c0.008-0.107-0.017-0.19-0.053-0.263
						c0.281-0.308,0.01-0.921-0.438-0.915c-1.762,0.025-3.464,0.616-5.208,0.878c-2.166,0.325-4.338,0.515-6.524,0.624
						c-0.334-0.19-0.85-0.049-0.829,0.444c0.197,4.611-0.564,9.041-2.136,13.372c-0.076,0.21-0.014,0.372,0.103,0.481
						c0.045,0.072,0.106,0.137,0.206,0.179c2.696,1.144,4.858,2.165,7.894,1.907c2.491-0.211,5.145-1.146,6.982-2.871
						c0.113-0.106,0.163-0.223,0.186-0.34C173.061,416.553,173.313,416.311,173.184,415.95z"/>
					<g>
						<path style="fill:#F59476;" d="M173.686,400.032c-3.286-2.79-9.143-1.494-13.279-1.092c-0.113-0.046-0.243-0.039-0.381,0.034
							c-0.205,0.017-0.409,0.035-0.604,0.046c-0.825,0.048-1.105,0.749-0.926,1.313c-1.228,1.456-1.74,3.319,0.501,4.475
							c3.42,1.765,10.779,1.855,14.161,0.202C175.427,403.901,175.567,401.63,173.686,400.032z"/>
						<path style="fill:#EC663C;" d="M184.163,278.654c-1.009,0.118-2.021,0.232-3.032,0.347c-0.119-0.986-1.71-1.293-1.869-0.195
							c-0.02,0.138-0.038,0.276-0.058,0.414c-9.983,1.119-20.044,2.175-29.903,4.002c-0.018-0.703-1.128-0.701-1.102,0.006
							c0.002,0.065,0.004,0.13,0.006,0.195c-0.311,0.059-0.623,0.111-0.934,0.172c-0.305,0.06-0.236,0.554,0.073,0.542
							c0.294-0.011,0.587-0.033,0.881-0.046c0.7,19.523,0.922,39.083,1.448,58.615c0.267,9.913,0.557,19.825,0.801,29.739
							c0.156,6.353,0.108,13.122,2.488,19.113c0.828,3.568,2.042,6.96,5.03,9.374c2.875,2.322,7.259,2.712,11.004,1.703
							c3.924-0.249,7.501-2.399,9.312-7.19c2.414-6.383,0.595-13.842-0.11-20.366c-1.039-9.608-1.693-19.262-1.949-28.922
							c-0.577-21.761,0.672-43.896,4.603-65.34c1.104-0.134,2.208-0.269,3.31-0.399
							C185.278,280.288,185.291,278.521,184.163,278.654z"/>
						<path style="fill:#F59476;" d="M160.604,395.237c-2.133-6.797-3.206-13.803-3.883-20.883
							c-0.704-7.367-1.254-14.753-1.712-22.14c-0.913-14.734-1.324-29.5-1.229-44.262c0.054-8.405,0.413-16.801,0.536-25.203
							c0.003-0.179-0.263-0.175-0.276,0c-0.562,7.427-0.667,14.908-0.751,22.353c-0.084,7.454-0.039,14.909,0.133,22.361
							c0.345,14.966,1.189,29.923,2.621,44.825c0.746,7.765,1.577,15.649,4.016,23.1
							C160.171,395.732,160.714,395.587,160.604,395.237z"/>
					</g>
				</g>
				<g>
					<g>
						<path style="fill:#000201;" d="M189.43,433.378c3.813,1.571,9.639,0.9,13.708,1.024c5.72,0.176,11.449,0.115,17.16-0.185
							c4.052-0.212,15.015,0.212,9.383-6.709c-2.154-2.639-6.047-3.822-9.092-4.996c-4.89-1.889-9.878-3.504-14.909-4.961
							l-1.059-0.45c-3.787,0.786-10.248,0.9-13.408-1.156c-0.247-0.159-0.459-0.212-0.653-0.212
							c-0.503-0.256-1.156-0.212-1.527,0.397C186.526,420.367,182.836,430.66,189.43,433.378z"/>
					</g>
					<path style="fill:#F6C1A7;" d="M189.635,416.608c0.022,0.117,0.073,0.234,0.186,0.34c1.837,1.725,4.491,2.66,6.982,2.871
						c3.036,0.258,5.198-0.763,7.894-1.907c0.099-0.042,0.16-0.107,0.206-0.179c0.117-0.11,0.179-0.271,0.103-0.481
						c-1.572-4.33-2.334-8.76-2.136-13.372c0.021-0.493-0.496-0.634-0.829-0.444c-2.186-0.109-4.358-0.299-6.524-0.624
						c-1.744-0.262-3.446-0.853-5.208-0.878c-0.448-0.007-0.719,0.607-0.438,0.915c-0.037,0.073-0.061,0.156-0.053,0.263
						c0.305,4.115,0.821,8.879-0.597,12.838C189.089,416.311,189.342,416.553,189.635,416.608z"/>
					<g>
						<path style="fill:#F59476;" d="M189.243,405.01c3.382,1.653,10.742,1.563,14.161-0.202c2.242-1.157,1.73-3.02,0.501-4.475
							c0.179-0.563-0.101-1.265-0.926-1.313c-0.195-0.011-0.399-0.029-0.604-0.046c-0.138-0.072-0.268-0.08-0.381-0.034
							c-4.136-0.402-9.993-1.699-13.279,1.092C186.835,401.63,186.976,403.901,189.243,405.01z"/>
						<path style="fill:#EC663C;" d="M178.239,278.654c1.009,0.118,2.021,0.232,3.032,0.347c0.119-0.986,1.71-1.293,1.869-0.195
							c0.02,0.138,0.038,0.276,0.058,0.414c9.983,1.119,20.043-4.004,29.903-2.177c0.018-0.703,1.128-0.701,1.102,0.006
							c-0.002,0.065-0.004,0.13-0.006,0.195c0.311,0.059,0.623,0.111,0.933,0.172c0.305,0.06,0.236,0.554-0.073,0.542
							c-0.293-0.012-0.587-0.033-0.881-0.046c-0.7,19.523-0.922,45.262-1.448,64.794c-0.267,9.913-0.557,19.825-0.801,29.739
							c-0.156,6.353-0.108,13.122-2.487,19.113c-0.828,3.568-2.042,6.96-5.03,9.374c-2.875,2.322-7.259,2.712-11.003,1.703
							c-3.924-0.249-7.501-2.399-9.313-7.19c-2.414-6.383-0.595-13.842,0.111-20.366c1.039-9.608,1.693-19.262,1.949-28.922
							c0.577-21.761-0.672-43.896-4.603-65.34c-1.104-0.134-2.208-0.269-3.31-0.399
							C177.125,280.288,177.111,278.521,178.239,278.654z"/>
						<path style="fill:#F59476;" d="M209.219,277.737c-0.016-0.176-0.294-0.176-0.276,0c1.588,15.892,0.602,31.994-0.133,47.907
							c-0.731,15.819-1.35,31.648-2.201,47.461c-0.47,8.746-1.271,17.519-3.671,25.974c-0.083,0.291,0.37,0.415,0.452,0.125
							c2.065-7.276,2.958-14.802,3.462-22.33c0.528-7.882,0.794-15.785,1.151-23.676c0.726-16.036,1.676-32.081,2.041-48.13
							C210.252,295.934,210.025,286.838,209.219,277.737z"/>
					</g>
				</g>
			</g>
			<g>
				<g>
					<g>
						<path style="fill:#C65334;" d="M215.31,125.138c-0.705-2.675-1.683-5.407-3.832-7.26c-0.114-0.099-0.262-0.005-0.266,0.11
							c-10.028-0.462-20.096-0.277-30.124,0.123c-10.129,0.404-20.247,1.132-30.326,2.206c-0.455,0.049-0.46,0.768,0,0.719
							c0.029-0.003,0.057-0.005,0.086-0.008c2.277,5.391,4.244,10.877,5.735,16.54c0.726,2.756,1.395,5.521,1.923,8.322
							c0.257,1.361,0.488,2.728,0.693,4.098c0.224,1.492,0.249,3.111,0.691,4.552c0.008,0.027,0.028,0.038,0.042,0.057
							c-0.073,0.007-0.147,0.016-0.22,0.023c-0.224,0.02-0.185,0.341,0.042,0.307c4.503-0.683,9.15-0.902,13.689-1.287
							c4.257-0.362,8.518-0.663,12.783-0.903c8.693-0.49,17.402-0.732,26.109-0.752c0.145,0.082,0.332,0.068,0.429-0.129
							c2.694-5.465,3.944-11.612,3.808-17.691C216.503,131.123,216.085,128.079,215.31,125.138z"/>
						<path style="fill:#EC663C;" d="M166.13,129.357c-4.18-6.255-12.498-11.407-20.092-9.016c0.008-0.096-0.06-0.202-0.184-0.172
							c-7.994,1.937-13.352,9.07-14.471,17.016c-0.569,4.044-0.259,8.455,1.361,12.239c1.644,3.84,4.697,6.064,8.661,7.153
							c4.548,1.249,9.379,1.208,13.986,0.301c4.153-0.817,8.066-2.407,10.764-5.796C171.21,144.732,170.473,135.856,166.13,129.357z
							"/>
						<path style="fill:#F59476;" d="M156.583,129.669c-2.468-1.688-5.718-2.321-8.604-1.455c-3.126,0.938-5.615,3.671-6.81,6.641
							c-1.209,3.004-0.942,6.824,1.581,9.104c2.289,2.068,5.959,2.282,8.315,0.213c2.184-1.917,2.219-5.755-0.497-7.26
							c-2.473-1.37-5.771,1.035-5.013,3.818c0.053,0.194,0.347,0.113,0.301-0.083c-0.367-1.573,0.752-3.107,2.27-3.526
							c1.423-0.393,2.798,0.454,3.464,1.695c1.441,2.686-0.553,5.472-3.293,6.089c-3.225,0.726-6.186-1.683-6.931-4.726
							c-0.725-2.958,0.498-6.027,2.417-8.272c1.739-2.034,4.106-3.366,6.82-3.36c2.596,0.005,5.198,1.112,6.987,2.996
							c3.802,4.005,3.491,10.452,0.367,14.733c-1.739,2.384-4.257,4.213-7.01,5.252c-2.762,1.043-6.287,1.376-8.594-0.807
							c-0.501-0.474-1.268,0.311-0.751,0.751c5.189,4.416,13.306,0.283,16.846-4.323
							C162.442,141.952,162.335,133.604,156.583,129.669z"/>
					</g>
					<g>
						<g>
							<path style="fill:#4F2410;" d="M219.882,209.306c-0.162-14.911-1.529-29.787-3.98-44.494
								c-0.055-0.332-0.117-0.662-0.176-0.993c0.004-0.206,0.009-0.412,0.011-0.618c0.537-2.23,0.216-4.517-0.691-6.602
								c-0.3-1.019-0.707-1.983-1.244-2.851c-0.017-0.029-0.031-0.06-0.053-0.081c-0.99-1.568-2.394-2.817-4.319-3.495
								c-4.54-2.816-10.337-3.169-15.555-3.144c-7.545,0.036-15.098,0.333-22.635,0.67c-6.874,0.308-13.994,0.347-20.744,1.813
								c-5.798,1.26-10.972,4.06-14.639,8.792c-3.399,4.387-5.336,9.739-6.623,15.085c-1.529,6.352-2.29,12.913-2.977,19.4
								c-0.805,7.601-1.279,15.237-1.424,22.88c-0.145,7.643,0.04,15.292,0.557,22.919c0.473,6.987,1.005,14.111,2.332,20.996
								c1.102,5.718,3.636,10.953,9.176,13.463c5.414,2.453,11.62,2.213,17.427,2.203c7.544-0.013,15.087-0.027,22.631-0.04
								c6.77-0.012,13.819,0.376,20.425-1.387c5.443-1.453,10.083-4.643,13.381-9.203c3.108-4.296,4.928-9.418,6.127-14.542
								c1.38-5.899,1.902-11.957,2.323-17.987C219.742,224.508,219.964,216.905,219.882,209.306z"/>
							<g>
								<path style="fill:#773D26;" d="M143.202,161.504c-12.02,16.675-14.561,38.331-14.543,58.368
									c0.001,0.738,1.053,0.706,1.125,0c2.057-20.155,2.369-40.512,14.497-57.737
									C144.747,161.473,143.667,160.858,143.202,161.504z"/>
								<path style="fill:#773D26;" d="M130.627,240.371c0.003-0.817-1.179-0.789-1.25,0c-0.657,7.258-0.844,14.491,4.159,20.304
									c0.972,1.13,2.602-0.512,1.635-1.635C130.665,253.804,130.604,246.916,130.627,240.371z"/>
							</g>
						</g>
						<g>
							<path style="fill:#773D26;" d="M143.202,161.154c-12.02,16.675-14.561,38.331-14.543,58.368c0.001,0.738,1.053,0.706,1.125,0
								c2.057-20.155,2.369-40.512,14.497-57.737C144.747,161.124,143.667,160.508,143.202,161.154z"/>
							<g>
								<path style="fill:#773D26;" d="M143.202,161.504c-12.02,16.675-14.561,38.331-14.543,58.368
									c0.001,0.738,1.053,0.706,1.125,0c2.057-20.155,2.369-40.512,14.497-57.737
									C144.747,161.473,143.667,160.858,143.202,161.504z"/>
								<path style="fill:#773D26;" d="M130.627,240.371c0.003-0.817-1.179-0.789-1.25,0c-0.657,7.258-0.844,14.491,4.159,20.304
									c0.972,1.13,2.602-0.512,1.635-1.635C130.665,253.804,130.604,246.916,130.627,240.371z"/>
							</g>
							<path style="fill:#773D26;" d="M130.627,240.021c0.003-0.817-1.179-0.789-1.25,0c-0.657,7.258-0.844,14.491,4.159,20.304
								c0.972,1.13,2.602-0.512,1.635-1.635C130.665,253.454,130.604,246.566,130.627,240.021z"/>
						</g>
					</g>
				</g>
				<g>
					<g>
						<path style="fill:#924B44;" d="M224.14,326.787c-0.089-0.062-0.183-0.117-0.274-0.177c0.241-5.134,0.035-10.278-0.701-15.367
							c-0.635-4.389-1.752-9.129-5.36-12.066c-2.995-2.438-6.886-2.625-10.189-0.677c-3.68,2.17-5.653,6.091-6.318,10.199
							c-0.924,5.718-0.131,11.842,0.594,17.543c-0.043,0.025-0.083,0.056-0.132,0.071c-0.092,0.028-0.309,0.078-0.304-0.072
							c0.003-0.111-0.183-0.142-0.2-0.027c-0.043,0.292,0.219,0.396,0.472,0.376c0.428-0.034,0.804-0.376,1.152-0.597
							c0.975-0.617,1.941-1.234,2.882-1.902c0.348-0.247,0.03-0.811-0.315-0.608c-0.304-3.577-0.806-7.206-0.74-10.793
							c0.057-3.141,0.8-6.675,3.26-8.849c2.333-2.063,6.152-2.598,8.352-0.055c1.981,2.289,2.042,5.704,2.187,8.565
							c0.206,4.075,0.275,8.156,0.237,12.235c-0.121-0.021-0.24-0.047-0.361-0.064c-0.194-0.028-0.284,0.261-0.083,0.301
							c0.151,0.03,0.296,0.083,0.445,0.119c-0.001,0.114,0.002,0.228,0.001,0.343c-0.006,0.493,0.758,0.493,0.766,0
							c0.001-0.046,0-0.092,0.001-0.138c0.705,0.21,1.399,0.455,2.063,0.775c0.506,0.244,0.996,0.52,1.468,0.826
							c0.023,0.015,0.044,0.032,0.067,0.047c-0.009,0.191-0.007,0.383-0.018,0.574c-0.026,0.482,0.723,0.481,0.75,0
							c0.001-0.018,0.001-0.037,0.002-0.055c0.169,0.134,0.334,0.257,0.567,0.205c0.084-0.019,0.152-0.11,0.149-0.196
							C224.55,327.05,224.344,326.929,224.14,326.787z"/>
						<g>
							<path style="fill:#4F2410;" d="M234.906,330.896c-2.614-5.869-7.709-9.69-13.865-11.3c-5.644-1.477-12.083-1.042-17.12,2.076
								c-5.213,1.684-9.261,6.025-11.59,10.942c-3.199,6.752-3.694,14.563-3.563,21.925c0.07,3.918,0.406,7.829,0.995,11.703
								c0.584,3.84,1.232,7.906,2.683,11.527c2.215,5.528,7.534,7.903,13.153,8.5c5.877,0.624,12.454-0.006,18.025-2.014
								c2.669-0.962,5.213-2.373,7.203-4.421c2.256-2.323,3.544-5.312,4.291-8.426c0.87-3.628,1.226-7.406,1.607-11.11
								c0.399-3.879,0.71-7.775,0.833-11.673C237.746,342.664,237.365,336.416,234.906,330.896z"/>
							<g>
								<path style="fill:#773D26;" d="M210.804,322.489c-11.62,3.559-18.256,16.842-17.754,28.642
									c0.028,0.649,0.999,0.831,1.166,0.158c1.434-5.762,1.393-11.382,4.365-16.738c2.676-4.824,7.214-9.182,12.556-10.856
									C211.901,323.455,211.577,322.253,210.804,322.489z"/>
								<path style="fill:#773D26;" d="M225.96,326.676c-0.762-0.589-1.527,0.635-0.757,0.982c6.395,2.883,5.54,15.307,5.65,21.139
									c0.019,1.004,1.587,1.007,1.563,0C232.23,341.229,232.483,331.717,225.96,326.676z"/>
							</g>
						</g>
						<g>
							<path style="fill:#924B44;" d="M227.478,349.272c-11.385-8.808-29.904-0.856-33.272,12.524
								c-1.137,4.516-0.693,9.401-0.052,13.962c0.324,2.306,0.844,4.598,1.692,6.749c2.624,2.241,6.123,3.376,9.753,3.761
								c5.877,0.624,12.454-0.006,18.025-2.014c2.669-0.962,5.213-2.373,7.203-4.421c2.256-2.323,3.544-5.312,4.291-8.426
								c0.315-1.314,0.549-2.651,0.755-3.995C234.971,360.788,233.007,353.55,227.478,349.272z"/>
							<g>
								<path style="fill:#892F2B;" d="M216.915,347.638c-5.519,1.001-10.007,2.533-13.948,6.777
									c-3.446,3.712-5.331,8.291-5.95,13.274c-0.099,0.796,1.303,0.993,1.412,0.191c1.27-9.409,8.764-18.132,18.653-19.014
									C217.978,348.786,217.816,347.474,216.915,347.638z"/>
								<path style="fill:#892F2B;" d="M198.439,373.871c0.291-0.944-1.434-1.073-1.205,0c0.182,0.853-0.024,1.893-0.002,2.773
									c0.018,0.711-0.063,1.475,0.37,2.067c0.253,0.346,0.696,0.27,0.857-0.112c0.282-0.672,0.038-1.427-0.019-2.138
									C198.377,375.672,198.203,374.636,198.439,373.871z"/>
								<path style="fill:#892F2B;" d="M230.741,364.497c-0.52-4.327-2.617-7.14-4.753-10.765c-0.45-0.764-1.596,0.062-0.982,0.757
									c4.639,5.251,3.952,13.767,2.428,19.992c-0.22,0.898,1.088,1.528,1.542,0.65
									C230.656,371.885,231.175,368.113,230.741,364.497z"/>
							</g>
						</g>
					</g>
					<g>
						<path style="fill:#F6C1A7;" d="M226.42,206.82c0.16-0.09,0.32-0.17,0.48-0.27c0.8-0.5-0.01-1.74-0.84-1.39
							c-3.93,1.7-7.56,4.56-11.67,5.92c-0.3-0.24-0.82-0.12-0.86,0.28c0,0-0.01,0.01-0.02,0.01c-0.64,0.17-3.31,0.94-3.78,1.04
							c2.86,12.34,4.41,25.44,4.35,38.02c-0.04,9.57,1.35,19.12,1.03,28.67c-0.1,2.63-0.16,5.27-0.2,7.9
							c-3.23,1.15-5.69,4.84-6.91,7.96c-0.35,0.91-1.33,3.12,0.17,3.54c1.23,0.33,2.96-1.12,4.29-2.41c-0.71,1.8-1.51,3.5-2.59,5.25
							c-0.46,0.754-1.153,1.679-1.728,2.628c-0.5,0.826-0.15,1.974,0.77,2.265c0.296,0.094,0.647,0.102,1.057-0.043
							c0,0,1.05,2.51,3.2,1.38c0,0,0.113,1.642,1.971,1.498c1.064-0.083,1.982-0.774,2.467-1.724
							c2.034-3.979,8.563-17.127,10.212-25.034c1.1-5.27,1.81-10.61,2.33-15.86C232.17,246.42,230.6,226.47,226.42,206.82z
							 M209.73,212.41c0-0.01,0-0.01,0-0.02C209.64,212.43,209.65,212.43,209.73,212.41z"/>
					</g>
				</g>
				<path style="fill:#3986B2;" d="M174.191,151.36c0,0-20.928,5.092-25.164,17.826c-4.236,12.734-12.284,34.852-12.284,34.852
					s5.507,10.074,16.096,10.074c0,0-9.224,40.323-10.072,70.09c0,0,43.334,9.587,72.56-0.097c0,0,0.624-48.942-3.189-71.751
					c0,0,11.86,1.589,16.519-4.468c0,0,2.48-41.099-33.916-57.676L174.191,151.36z"/>
				<g>
					<g>
						<path style="fill:#924B44;" d="M167.861,160.117c-0.193-2.497-0.82-5.562-2.822-6.944c-1.043-0.72-2.467-0.901-3.688-0.482
							c-1.073,0.02-2.063,0.535-2.7,1.601c-0.02,0.033-0.034,0.069-0.052,0.102c-0.1-0.047-0.24,0.002-0.248,0.168
							c-0.008,0.155-0.017,0.31-0.025,0.465c-0.219,0.677-0.255,1.427-0.115,2.133c-0.872,16.236-1.961,32.446-3.683,48.595
							c-0.919,8.617-1.995,17.212-3.226,25.776c-0.601,4.183-1.247,8.356-1.911,12.526c-0.577,3.628-1.496,7.637-0.432,11.264
							c0.35,1.192,0.978,2.323,1.779,3.23c-1.704,1.813-3.917,3.024-6.445,3.253c-1.64,0.148-3.826-1.004-5.38-0.317
							c-1.999,0.883-1.125,3.335,0.334,4.217c2.609,1.577,5.717,1.695,8.502,0.784c0.443-0.111,0.878-0.249,1.298-0.425
							c1.332-0.557,2.476-1.411,3.394-2.459c0.922-0.929,1.664-2.013,2.164-3.218c1.916-0.142,3.451-1.731,4.388-3.674
							c1.388-2.876,1.858-6.293,2.465-9.471c0.796-4.163,1.498-8.348,2.133-12.548c2.501-16.527,3.748-33.285,4.188-50.05
							c0.11-4.19,0.164-8.381,0.19-12.573C167.994,168.111,168.166,164.064,167.861,160.117z"/>
						<g>
							<path style="fill:#892F2B;" d="M160.225,157.438c1.566,7.295-0.208,15.762-0.951,23.101
								c-0.727,7.177-1.798,14.336-2.33,21.529c-0.041,0.557,0.874,0.687,0.982,0.133c2.841-14.574,4.685-30.143,3.526-44.929
								C161.382,156.37,160.033,156.543,160.225,157.438z"/>
							<path style="fill:#892F2B;" d="M164.95,191.793c0.184,8.588-1.711,17.483-2.663,26.002c-0.081,0.73,1.158,0.902,1.289,0.174
								c1.551-8.632,1.426-17.369,2.601-26.011C166.303,191.039,164.931,190.905,164.95,191.793z"/>
						</g>
					</g>
					<g>
						<path style="fill:#924B44;" d="M215.33,263.58l0.02,5.99c-0.34,0.23-0.8,0.27-1.08-0.09c-1.06-1.36-1.91-2.86-2.42-4.51
							c-0.54-1.72-0.57-3.69-1.06-5.45c-1.01-0.73-1.85-2.23-2.41-3.69c-1.21-3.13-1.61-7.08-1.9-10.68
							c-0.67-8.54-0.93-17.22-1.33-25.81c-0.4-8.53-0.82-17.06-1.1-25.61c-0.26-8-0.3-16.09,0.43-24.04
							c0.36-3.95,0.92-7.86,1.72-11.64c0.45-2.13,1.21-5.58,2.94-5.35c1.19-0.55,2.47,0.35,3.13,2.01
							c1.13,2.83,0.88,6.87,0.95,10.06c0.2,8.78,0.43,17.56,0.65,26.34c0.44,17.64,0.88,35.29,1.32,52.93
							c0.09,3.5,0.41,7.21,0.02,10.69c-0.2,1.74-0.69,3.48-1.57,4.46C214.18,260.67,214.76,262.13,215.33,263.58z"/>
						<g>
							<path style="fill:#892F2B;" d="M209.69,158.356c0.17-0.782-1-1.115-1.205-0.332c-1.908,7.273-3.21,15.566-1.49,22.986
								c0.075,0.325,0.529,0.227,0.552-0.075C208.129,173.283,208.04,165.925,209.69,158.356z"/>
							<path style="fill:#892F2B;" d="M212.048,251.053c-2.243-10.611-2.972-21.084-3.339-31.888c-0.014-0.414-0.574-0.388-0.625,0
								c-1.416,10.725,0.02,21.808,3.121,32.121C211.367,251.828,212.164,251.602,212.048,251.053z"/>
						</g>
					</g>
				</g>
				<g>
					<path style="fill:#000201;" d="M224.171,189.734l-13.227,22.909c-0.818,1.417-2.631,1.903-4.048,1.085l-8.673-5.007
						c-1.417-0.818-1.903-2.631-1.085-4.048l13.227-22.909c0.818-1.417,2.631-1.903,4.048-1.085l8.673,5.007
						C224.503,186.504,224.989,188.317,224.171,189.734z"/>
					<g>
						<path style="fill:#ED643E;" d="M226.775,168.213c0,7.482-9.03,17.075-9.03,17.075s-9.03-9.593-9.03-17.075
							c0-7.482,4.801-10.02,9.03-10.02C221.974,158.193,226.775,160.731,226.775,168.213z"/>
						<path style="fill:#FFFFFF;" d="M222.963,166.804c0,2.882-2.336,5.218-5.218,5.218c-2.882,0-5.218-2.336-5.218-5.218
							c0-2.882,2.336-5.218,5.218-5.218C220.627,161.586,222.963,163.922,222.963,166.804z"/>
					</g>
					<path style="fill:#F6C1A7;" d="M217.07,205.85c0.04-0.12-0.01-0.25-0.09-0.33c-0.77-0.89-2.19-0.27-3.1,0.04
						c1.33-0.95,2.23-1.91,1.52-2.56c-0.75-0.7-3.01,0.39-3.71,0.67c-0.46,0.19-0.93,0.39-1.4,0.6c1.15-1.08,1.95-2.23,0.83-2.83
						c-0.81-0.43-2.57,0.45-3.3,0.76c-1.78,0.76-3.39,1.88-5.18,2.64c0.68-1.98,2.14-6.36-0.37-5.48c-0.51,0.17-0.98,1.01-1.32,1.41
						c-0.76,0.9-1.51,1.82-2.4,2.6c-1.45,1.27-3.16,2.25-4.88,3.15c-7.69,3.13-15.28,6.51-22.6,10.45
						c-6.84,3.68-13.19,8.09-19.75,12.19c0.2-4.9,0.67-9.77,1.44-14.62c0.03-0.16,0-0.3-0.07-0.41c-1.05,0.09-7.42,0.3-13.56-6.86
						c-0.01,0.01-0.02,0.02-0.03,0.03c-0.25,0-0.49,0.12-0.56,0.44c-1.96,8.89-4.25,18.33-2.09,27.4c0.76,3.16,1.95,7.61,4.5,9.85
						c2.41,2.11,6.66,1.89,9.58,1.52c9.32-1.17,17.13-7.33,24.63-12.49c9.65-6.64,19.17-13.53,29.02-19.87
						c0.13,0.02,0.27,0.01,0.43-0.08c1.9-1.13,4.51-1.42,6.55-2.3c1-0.43,3.27-1.01,3.61-2.17c0.03-0.12,0-0.26-0.09-0.34
						c-0.59-0.54-1.63-0.57-2.72-0.4c0.8-0.39,1.61-0.76,2.42-1.17C215.26,207.25,216.68,206.86,217.07,205.85z"/>
				</g>
			</g>
			<g>
				<g>
					<path style="fill:#F6C1A7;" d="M194.545,150.517c-10.846,7.749-20.4,1.412-20.4,1.412c0.298-1.278,0.474-2.591,0.57-3.92
						c0.061-0.866,0.08-1.735,0.064-2.608c-0.104-9.094-3.707-17.971-3.707-17.971l21.83,9.988
						C190.963,142.683,194.545,150.517,194.545,150.517z"/>
					<path style="fill:#F6AA85;" d="M193.266,146.957c0.18,0.623,0.371,1.194,0.543,1.69c-11.637,1.579-18.302-6.047-20.639-13.774
						c-0.029-0.098-2.067-7.336-2.098-7.442l21.759,10.235c-0.823,2.448-0.504,5.399,0.068,7.859
						C193.014,146.028,193.133,146.506,193.266,146.957z"/>
				</g>
				<g>
					<path style="fill:#301409;" d="M224.466,99.228c-2.007-3.7-9.519-3.228-12.722-3.355c-7.023-0.278-14.061,0.233-20.981,1.455
						c-14.839,2.621-28.771,8.648-40.986,17.436c-0.316,0.227-0.339,0.591-0.21,0.87c-0.874,0.087-0.816,1.448,0.119,1.533
						c16.802,1.54,33.835-1.716,50.246-5.022C203.751,111.377,229.164,107.89,224.466,99.228z"/>
					<g>
						<g>
							<path style="fill:#F6C1A7;" d="M166.726,113.308c0,0-6.36-3.679-8.613-0.265c-2.253,3.415,3.027,12.404,8.086,8.731
								L166.726,113.308z"/>
						</g>
						<g>
							<path style="fill:#F6C1A7;" d="M205.759,108.411c0,0,5.254-5.136,8.28-2.383c3.026,2.753,0.131,12.767-5.679,10.458
								L205.759,108.411z"/>
						</g>
						<path style="fill:#F6C1A7;" d="M164.383,114.717c0.377,2.993,1.057,5.849,1.988,8.507c2.229,6.446,5.933,11.793,10.423,15.299
							c4.343,3.411,9.407,5.106,14.577,4.458c12.735-1.591,21.316-16.847,19.16-34.051c-2.156-17.214-14.242-29.875-26.977-28.274
							C170.808,82.257,162.228,97.504,164.383,114.717z"/>
						<path style="fill:#924B44;" d="M209.218,96.368c-3.11-3.143-12.76-2.457-16.636-2.331
							c-8.667,0.281-25.291,2.121-28.406,12.088c-0.221,0.105-0.397,0.309-0.419,0.654c-0.261,4.18-0.971,9.105,1.628,12.744
							c0.142,0.199,0.331,0.27,0.511,0.263c0.414,0.201,0.956,0.105,1.033-0.455c0.497-3.609,1.564-6.948,3.272-10.088
							c0.381,0.081,0.766,0.15,1.153,0.201c1.469,0.193,2.956,0.156,4.417-0.089c2.633-0.441,5.921-1.665,7.522-3.931
							c0.044-0.062,0.029-0.128-0.005-0.183c0.083-0.218,0.054-0.475-0.156-0.725c3.228-0.015,6.488,0.66,9.437,1.958
							c0.178,0.078,0.421,0.03,0.47-0.191c0.211-0.94,0.255-2.128-0.022-3.141c4.338,0.903,8.612,1.154,13.003,0.542
							c1.612,3.068,2.806,6.263,3.86,9.558c0.183,0.573,0.987,0.449,1.027-0.139C211.174,109.195,212.414,99.598,209.218,96.368z"/>
						<g>
							<g>
								<g>
									<path style="fill:#3F1E17;" d="M182.755,113.548c-2.391,0.306-4.095,2.434-3.799,4.744
										c0.057,0.443,0.475,0.756,0.933,0.697c0.459-0.059,0.785-0.467,0.728-0.91c-0.183-1.425,0.868-2.737,2.343-2.926
										c1.474-0.188,2.821,0.817,3.004,2.242c0.057,0.443,0.476,0.756,0.934,0.697c0.458-0.058,0.785-0.467,0.729-0.91
										C187.332,114.872,185.146,113.242,182.755,113.548z"/>
									<path style="fill:#3F1E17;" d="M200.747,111.577c-2.232,0.286-3.807,2.398-3.511,4.708
										c0.056,0.443,0.451,0.759,0.879,0.704c0.428-0.055,0.73-0.46,0.673-0.903c-0.182-1.425,0.789-2.727,2.165-2.903
										c1.376-0.176,2.644,0.839,2.826,2.264c0.057,0.443,0.451,0.759,0.879,0.704c0.428-0.055,0.729-0.46,0.673-0.903
										C205.034,112.937,202.978,111.291,200.747,111.577z"/>
								</g>
								<path style="fill:#F6AA85;" d="M195.398,120.212c-0.533,0.692-3.224,1.087-4.03,0.577c-0.194-0.125-0.317-0.655-0.392-1.419
									c-0.217-2.477,0.227-7.327,1.291-7.47c0.083-0.008,0.154,0,0.243,0.049C193.887,112.577,195.908,119.565,195.398,120.212z"
									/>
								<path style="opacity:0.6;fill:#31282C;" d="M195.398,120.212c-0.533,0.692-3.224,1.087-4.03,0.577
									c-0.194-0.125-0.317-0.655-0.392-1.419c2.762-1.229,2.133-5.18,1.534-7.421
									C193.887,112.577,195.908,119.565,195.398,120.212z"/>
								<path style="fill:#FFFFFF;" d="M188.369,124.138c0,0,3.06-0.151,5.635-0.48c2.575-0.33,5.573-0.954,5.573-0.954
									s-0.989,3.999-5.116,4.528C190.334,127.759,188.369,124.138,188.369,124.138z"/>
							</g>
							<g>
								<path style="fill:#924B44;" d="M185.974,106.981c-2.959,1.136-5.877,2.36-8.824,3.519c-0.207,0.081-0.295,0.232-0.304,0.382
									c-0.141,0.128-0.202,0.312-0.056,0.495c1.358,1.703,3.735,0.666,5.519-0.054c1.207-0.487,2.622-0.895,3.698-1.586
									c0.953-0.611,1.18-1.286,1.526-2.19C187.849,106.718,186.489,106.543,185.974,106.981z"/>
								<path style="fill:#924B44;" d="M204.848,107.442c-2.457-0.701-4.947-1.306-7.412-1.98c-0.173-0.047-0.323,0.028-0.426,0.148
									c-0.165,0.027-0.322,0.147-0.357,0.378c-0.334,2.164,1.721,2.624,3.225,3.017c1.018,0.266,2.103,0.713,3.179,0.738
									c0.952,0.022,1.527-0.41,2.321-0.968C206.105,108.264,205.434,107.365,204.848,107.442z"/>
							</g>
						</g>
						<g>
							<path style="fill:#F6A08C;" d="M203.524,124.038c0.334,2.659,1.746,4.912,3.737,6.395c2.372-4.783,3.684-10.582,3.598-16.803
								C206.144,114.673,202.911,119.152,203.524,124.038z"/>
							<path style="fill:#F6A08C;" d="M166.372,123.225c2.229,6.446,5.933,11.793,10.423,15.299c3.84-1.591,6.299-5.598,5.755-9.91
								c-0.649-5.18-5.379-8.853-10.569-8.204C169.751,120.682,167.805,121.718,166.372,123.225z"/>
						</g>
					</g>
					<g>
						<path style="fill:#4F2410;" d="M216.102,93.676c-1.795-0.075-3.591-0.095-5.387-0.09c-0.902-6.818-3.022-13.183-8.556-17.715
							c-5.373-4.401-12.588-6.235-19.41-4.949c-15.201,2.864-23.196,17.792-20.797,32.266c-0.761,0.33-1.524,0.657-2.272,1.01
							c-4.385,2.068-12.892,6.301-10.897,12.337c0.237,0.717,1.024,0.649,1.355,0.213c0.051-0.05,0.105-0.095,0.147-0.167
							c3.455-5.93,11.132-8.34,17.189-10.655c5.893-2.252,11.982-3.995,18.167-5.234c6.44-1.29,12.987-2.005,19.554-2.144
							c5.685-0.12,13.852-0.942,18.421,3.138c0.173,0.266,0.419,0.474,0.699,0.609c0.416,0.328,0.873,0.32,1.242,0.099
							c0.399-0.14,0.724-0.468,0.826-1.037C227.564,94.747,221.242,93.889,216.102,93.676z"/>
						<path style="fill:#AF684B;" d="M210.029,89.668c0.286,1.279,0.509,2.594,0.683,3.923c-20.16-0.993-48.761,9.596-48.761,9.596
							c-0.161-0.993-0.273-1.974-0.348-2.967C176.401,92.498,193.532,90.35,210.029,89.668z"/>
					</g>
				</g>
			</g>
		</g>
		<g>
			<g>
				<path style="fill:none;stroke:#000201;stroke-width:2;stroke-miterlimit:10;" d="M215.399,191.54h25.669
					c4.032,0,7.301,3.269,7.301,7.301l0,0c0,4.032,3.269,7.301,7.301,7.301h60.231c6.432,0,11.646-5.214,11.646-11.646v-57.158"/>
				<path style="fill:none;stroke:#000201;stroke-width:2;stroke-miterlimit:10;" d="M327.548,177.145H469.47
					c4.151,0,7.515,3.365,7.515,7.515v5.811"/>
			</g>
			<g>
				<path style="fill:#ED643E;" d="M353.001,93.989c0,21.187-25.57,48.349-25.57,48.349s-25.57-27.163-25.57-48.349
					s13.593-28.374,25.57-28.374C339.408,65.615,353.001,72.802,353.001,93.989z"/>
				
					<ellipse transform="matrix(0.7071 -0.7071 0.7071 0.7071 32.2645 257.8889)" style="fill:#FFFFFF;" cx="327.432" cy="89.998" rx="14.776" ry="14.776"/>
			</g>
			<g>
				<path style="fill:#ED643E;" d="M489.786,204.675c0,10.606-12.801,24.204-12.801,24.204s-12.8-13.598-12.8-24.204
					c0-10.606,6.805-14.204,12.8-14.204C482.981,190.47,489.786,194.068,489.786,204.675z"/>
				
					<ellipse transform="matrix(0.1602 -0.9871 0.9871 0.1602 200.521 641.0375)" style="fill:#FFFFFF;" cx="476.985" cy="202.677" rx="7.397" ry="7.397"/>
			</g>
		</g>
	</g>
</g>
</svg>
