<?xml version="1.0" encoding="UTF-8"?>
<svg xmlns="http://www.w3.org/2000/svg" version="1.1" viewBox="0 0 1080 1080">
  <defs>
    <style>
      .cls-1 {
        fill: #010101;
      }

      .cls-2 {
        fill: #2676bc;
      }

      .cls-3 {
        fill: red;
      }

      .cls-4 {
        isolation: isolate;
      }

      .cls-5 {
        fill: #f2cc14;
      }

      .cls-6 {
        fill: #2677bc;
      }
    </style>
  </defs>
  <!-- Generator: Adobe Illustrator 28.6.0, SVG Export Plug-In . SVG Version: 1.2.0 Build 709)  -->
  <g>
    <g id="Layer_1">
      <path class="cls-2" d="M266.6,582.7v66.7c-5.3.9-10.1,1.4-14.5,1.4-25.8,0-47.4-8.5-64.6-25.5-17.2-17-25.8-38.3-25.8-63.9s8.7-46,26.1-63.4c17.4-17.3,38.5-26,63.5-26s49.7,8.1,65.7,24.4c16,16.2,24,38.4,24,66.6v84.2h-64.4v-79.6c0-9.1-2.2-16.3-6.6-21.7s-10.4-8.1-17.8-8.1-12.6,2.5-17.6,7.4-7.4,10.8-7.4,17.6,2.2,13,6.7,17.6c4.5,4.6,10.2,6.9,17,6.9s10.9-1.5,15.7-4.5h0Z"/>
      <path class="cls-2" d="M414.8,475.4v171.7h-64.4v-171.7h64.4ZM382.7,398.7c8.7,0,16.3,3.1,22.6,9.2,6.4,6.1,9.6,13.4,9.6,21.8s-3,16.3-9,22c-6,5.8-13.8,8.6-23.2,8.6s-17.1-2.9-23.2-8.6c-6-5.7-9-13.1-9-22s3.2-15.6,9.6-21.8c6.4-6.1,13.9-9.2,22.6-9.2h0,0Z"/>
      <path class="cls-5" d="M586.1,568.6c0-2.4,0-4.3,0-6.3,0-43.5,0-87,0-130.5,0-12.7,4.4-17.2,17-17.2,79.7,0,159.3,0,239,0,11.1,0,16.2,5,16.2,16.1,0,36.5,0,73,0,109.5,0,9.3,0,18.6,0,28.4-91.1,0-181.5,0-272.2,0ZM681.2,473.5c-7.7,0-10.1,2.4-10.1,10.2,0,5.7,0,11.3,0,17,0,7.7,2.5,10,10.3,10.1,6,0,12,.2,18,0,3.4-.1,4.8.9,4.6,4.5-.3,6.3-.1,12.7,0,19,.1,5.9,2.7,8.5,8.6,8.6,6.7.2,13.3.2,20,0,5.8-.2,8.4-3,8.5-8.8.1-7.5,0-15,0-23.2,7.7,0,14.9,0,22.2,0,8.1,0,10.4-2.3,10.5-10.4,0-5.5,0-11,0-16.5,0-8-2.4-10.3-10.5-10.4-7.1,0-14.3,0-22.2,0,0-7.3,0-14.2,0-21.1,0-9.6-2.2-11.7-11.8-11.7-5.5,0-11,0-16.5,0-6.2.1-8.8,2.7-8.9,8.9,0,7.6,0,15.3,0,23.8-8.1,0-15.4,0-22.7,0Z"/>
      <path class="cls-5" d="M1001.7,603.2c-10.2-10.5-22.8-15.3-37.3-15.3-10.8,0-20.7,3.1-29.6,9.1-15.3,10.4-22.3,25.5-23.5,43.7-2,0-3.5,0-5,0-41.3,0-82.7,0-124,.1-4.8,0-6.8-1-7.8-6.1-6.1-31-37.9-51.1-68.4-43.2-23.3,6.1-37.3,21.5-42.6,44.9-.5,2.4-.7,4.4-4.1,4.3-18-.2-36,.2-54-.2-10.5-.2-18.2-8.7-18.3-19.4-.2-13.7,0-27.3,0-41,0-1,.2-1.9.3-3.5,93.1,0,186,0,279.4,0,0-32.9,0-65.1,0-97.3,10.2-1.5,42.6,0,54.2,2.2,13.1,2.5,22.8,9.8,29.4,21.2,6.7,11.7,10.8,24.4,12.6,37.7.6,4.2,2.2,5.9,5.8,7.3,15.6,5.8,31.2,11.7,46.6,17.9,7.8,3.2,13.1,9.2,14.9,17.6,1.7,7.5,3.2,15,4.3,22.5,1.7,11.4,3,22.9,4.5,34.6-7.1,0-13.8,0-20.7,0-2.2-14-6.7-26.9-16.8-37.3ZM891.8,545.2c14.8,0,29.4,0,44.4,0-2.6-15.7-7.8-30-18.6-41.8-.7-.8-1.8-1.8-2.8-1.8-7.6-.1-15.2,0-23,0,0,14.5,0,28.9,0,43.7Z"/>
      <path class="cls-1" d="M676.4,647.7c-.7-21.9,16.1-42.3,41.1-43.7,22.9-1.3,43.4,17.1,44.3,41.4.9,24.3-17.7,43.2-41,44.1-23.3,1.4-43.6-17.2-44.4-41.8ZM719,663.2c8.8.2,16.4-7.2,16.5-15.9.1-9.2-7.1-16.8-16.1-16.8-9.3,0-16.4,7-16.4,16.4,0,9.1,6.9,16.2,16,16.4Z"/>
      <path class="cls-1" d="M964.6,685.8c-23.3-.1-42.6-19.5-42.6-42.8,0-23.6,19.6-43.2,43-42.9,23.7.3,42.5,19.2,42.5,42.8,0,23.8-19.2,43-42.9,42.9ZM981.2,642.5c-.2-8.9-7.5-15.9-16.6-15.9-9,0-16.5,7.8-16.2,16.8.3,8.9,7.7,16,16.6,15.9,9.2-.1,16.4-7.6,16.2-16.8Z"/>
      <path class="cls-3" d="M822.5,406.7c-2.3,2.1-6.2,1.5-10.1,1.6-2.3,0-4.7,0-7,0-5.5,0-11,0-16.5,0-3.4,0-7.1.3-9.1-1.3-2.7-2.2-2.3-5.9-2.4-9.7,0-7.8,1.8-16.3,8.3-21.3,11.6-9.4,32.9-5.2,37.2,10.2,1,3.2,1.3,6.6,1.4,10,0,3.9.5,8-1.7,10.4h-.1ZM817.1,403.7c1.2-1.2,1.3-3.7,1.3-5.4-.1-7.2-1.9-12.4-4.9-15.8-.6-.6-1.7-1.9-2.6-1.3-.8.9-.3,2.9-.2,4.2.7,3.9,1.4,8,2.2,12.1.4,1.7,1.7,7.6,4.2,6.3h0Z"/>
      <g>
        <path class="cls-3" d="M763.6,387.1c2.1-.1,3.8-2.1,4.2-4.1.6-2.4-.7-5-2.7-6.6-2.9-2.2-7.5-5.4-10.7-2.5-4.2,4.2.2,8.5,4,11,1.6,1.3,3.4,2.3,5,2.2h.2Z"/>
        <path class="cls-3" d="M771.9,353.9c-4.9,1.5-3.1,6.3-.8,9.9,1.4,2.4,2.7,4.9,4.8,5.3,2.8.6,5.9-1.9,5.8-4.8-.3-4.4-4.6-11.1-9.6-10.5h-.2Z"/>
        <path class="cls-3" d="M794.2,356.5c-.2,4.7,3.9,10.8,8.6,6.8,2.2-1.9,2.8-6.4,2.3-9.8-.2-3.6-3.5-5.8-6.9-4.8-3.2.9-4,4.4-4,7.6v.2Z"/>
        <path class="cls-3" d="M834.9,386.4c3.9,1,12.6-3.9,11.9-8.2-.6-2.7-3.2-4.9-6-4.9-3.8.2-8.7,3.6-9.6,7.5-.3,2.3,1.3,4.8,3.5,5.5h.2Z"/>
        <path class="cls-3" d="M818.2,366.1c.9,2.5,4.1,3.9,6.6,2.9,4-2,7.3-8,6-11.9-.7-2.2-3.2-3.7-5.5-3.2-4.2,1-8.3,7.9-7.2,12.1v.2Z"/>
      </g>
      <path class="cls-2" d="M600.2,414.7c-1.1.1-2.2.2-3.2.4-27.9,3.6-50,24.1-57.4,51.6v87.3c0,7.7-.9,14.1-2.8,19.2-3.7,10.1-11,15.1-22,15.1s-12.8-2.4-17.7-7.2c-4.9-4.8-7.4-10.5-7.4-17.1s2.4-12.8,7.2-17.7c4.8-4.9,10.5-7.3,17.1-7.3s10.6,2.1,15.8,6.2v-71c-7.7-.7-13.4-1-17.2-1-23.9,0-44.5,8.8-62,26.5-17.5,17.7-26.2,38.6-26.2,62.9s8.8,46.2,26.4,63.4c17.6,17.2,39.2,25.8,64.8,25.8s25.4-2.8,37.6-8.4c7.2-3.3,13.7-7.3,19.4-12,4-3.3,7.6-6.8,10.9-10.8,2-2.4,3.9-4.9,5.6-7.5,2.7-4,5-8.3,6.9-12.9,1.5-3.5,2.8-7.2,3.9-11,2.9-9.9,4.3-20.9,4.3-32.9v-141.9c-1.3,0-2.5.2-3.8.3h0Z"/>
      <g class="cls-4">
        <g class="cls-4">
          <g class="cls-4">
            <path class="cls-2" d="M158.6,466.5v71.8c-4.7-2.6-8.9-3.9-12.7-3.9-12.2,0-18.3,9.3-18.3,28v84.9H60.4v-97.8c0-25.8,7.1-46.4,21.2-61.8,14.1-15.4,32.9-23.1,56.5-23.1s12.1.7,20.5,2Z"/>
          </g>
        </g>
      </g>
      <path class="cls-6" d="M759.3,452.2c-10.8-10.9-23.9-16.4-39-16.4s-29.8,5.4-40.8,16c-11,10.7-16.5,23.9-16.5,39.6s5.5,28.5,16.5,39.5c11,10.9,24.3,16.4,39.8,16.4s28.8-5.4,39.8-16.3c11-10.9,16.5-24,16.5-39.5s-5.4-28.3-16.3-39.2ZM757.3,499.8c0,3.3-1.2,4.5-4.5,4.5-6,0-12,.1-18,0-2.3,0-2.9.7-2.8,2.9.1,5.8,0,11.7,0,17.5,0,3.8-1.1,4.9-4.8,4.9-5.4,0-10.7,0-16.1,0-3.3,0-4.4-1.2-4.5-4.5,0-3.1,0-6.2,0-9.3,0-3.1,0-6.2,0-9.3,0-1.7-.6-2.1-2.2-2.1-6,0-12,0-18,0-4.2,0-5.2-1-5.2-5.3,0-5.1,0-10.3,0-15.4,0-3.6,1.1-4.7,4.8-4.7,5.9,0,11.8-.1,17.7,0,2.3,0,2.9-.7,2.8-2.9-.1-5.9,0-11.8,0-17.7,0-3.6,1.2-4.7,4.8-4.7,5.4,0,10.7,0,16.1,0,3.3,0,4.5,1.2,4.5,4.5,0,6.1,0,12.3,0,18.4,0,1.9.6,2.4,2.4,2.3,6,0,12,0,18,0,3.9,0,4.9,1.1,4.9,5,0,5.3,0,10.6,0,15.9Z"/>
    </g>
  </g>
</svg>