<?xml version="1.0" encoding="UTF-8"?>
<svg xmlns="http://www.w3.org/2000/svg" version="1.1" viewBox="0 0 1080 1080">
  <defs>
    <style>
      .cls-1 {
        fill: #58b0e3;
      }

      .cls-2 {
        fill: #c1c3c8;
      }

      .cls-3 {
        fill: #9fbbe2;
      }

      .cls-4 {
        fill: #98b2d6;
      }

      .cls-5 {
        fill: #25316a;
      }

      .cls-6 {
        fill: #f2cd18;
      }

      .cls-7 {
        fill: #333;
      }

      .cls-8 {
        fill: #78818e;
      }

      .cls-9 {
        fill: #23265c;
      }

      .cls-10 {
        fill: #ef4040;
      }

      .cls-11 {
        fill: #e92929;
      }

      .cls-12 {
        fill: #676767;
      }

      .cls-13 {
        fill: #fff;
      }

      .cls-14 {
        fill: #9b9a9a;
      }

      .cls-15 {
        fill: #f0524f;
      }

      .cls-16 {
        fill: #cdced1;
      }

      .cls-17 {
        fill: #ddd;
      }

      .cls-18 {
        fill: #020202;
      }

      .cls-19 {
        fill: #f9ed25;
      }

      .cls-20 {
        fill: #a0bae1;
      }

      .cls-21 {
        fill: #222;
      }

      .cls-22 {
        isolation: isolate;
      }

      .cls-23 {
        fill: #f16464;
      }

      .cls-24 {
        stroke: #b8c2cb;
      }

      .cls-24, .cls-25 {
        stroke-miterlimit: 10;
      }

      .cls-24, .cls-25, .cls-26 {
        fill: none;
      }

      .cls-27 {
        fill: #f8faf6;
      }

      .cls-28 {
        fill: #ed2224;
      }

      .cls-25 {
        stroke: #bcc6cf;
      }

      .cls-29 {
        fill: #b0b0b0;
      }

      .cls-26 {
        stroke: #fff;
        stroke-linecap: round;
        stroke-linejoin: round;
      }

      .cls-30 {
        fill: #2877bd;
      }

      .cls-31 {
        fill: #2878bc;
      }

      .cls-32 {
        display: none;
        fill: #dfe9f7;
      }

      .cls-33 {
        fill: #ffc50d;
      }

      .cls-34 {
        fill: #5c5c5c;
      }

      .cls-35 {
        fill: #dadadb;
      }

      .cls-36 {
        fill: #13274b;
      }
    </style>
  </defs>
  <!-- Generator: Adobe Illustrator 28.6.0, SVG Export Plug-In . SVG Version: 1.2.0 Build 709)  -->
  <g>
    <g id="Layer_1">
      <rect class="cls-32" y="0" width="1080" height="1080"/>
      <rect class="cls-1" x="569.5" y="496.6" width="20.4" height="16.1"/>
      <rect class="cls-15" x="602.2" y="496.6" width="20.4" height="16.1"/>
      <path class="cls-27" d="M941,704v23.3c-.9,2-2.2,4.6-4.4,7.2-1.7,2.1-3.4,3.7-4.9,4.9h-24.6c.8-6.2,1.1-15.2-1.6-25.2-1.3-4.6-3.1-9.2-5.4-13.6-11.1-21.1-33.6-38.6-59.1-38.2-32.8.5-63.5,30.5-65.3,69.8-.1,2.5-.1,5,0,7.5h-348.3c3.9-40.8-26.9-75.2-62.4-77.1-37.7-2-73.6,33.1-70,76.7h-140.9v-149.3c13.6-34.5,27.1-69,40.7-103.5,59.4-.1,118.7-.2,178.1-.4,20.2,0,40.3,0,60.4-.1,71.1-.1,142.2-.3,213.4-.4v24.9h82.6c12,16.8,30.4,38.4,57.2,58.1,48.3,35.4,97.4,45.1,123.3,48.2,2.1.3,10.3,1.5,16.3,8.8,2.9,3.6,4.3,7.3,4.9,9.8.2.7.3,1.2.4,1.7,0,14.1,0,28.2-.1,42.4,0,4,0,8,0,12,0,2.2,0,4.3,0,6.5h6c.5.2,1.4.5,2.2,1.4,1.7,1.7,1.5,4.1,1.5,4.5Z"/>
      <rect class="cls-1" x="205.2" y="496.6" width="20.4" height="16.1"/>
      <rect class="cls-15" x="237.8" y="496.6" width="20.4" height="16.1"/>
      <path class="cls-3" d="M535,529.6v67.7c0,3-2.4,5.4-5.4,5.4h-47.8c-3.1,0-5.7-2.4-6-5.5,0-.2,0-.4,0-.6v-67.5c0-3.6,3-6.6,6.6-6.6h45.7c3.3,0,6,2.3,6.8,5.3.2.5.2,1.1.2,1.7Z"/>
      <path class="cls-20" d="M632.2,529.6v67.7c0,3-2.4,5.4-5.4,5.4h-66.4c-1.7,0-3.3-.7-4.4-1.9-1-1.1-1.7-2.5-1.7-4.2v-67.5c0-3.6,3-6.6,6.6-6.6h64.3c1.3,0,2.5.4,3.6,1,2.1,1.2,3.4,3.5,3.4,6Z"/>
      <path class="cls-3" d="M773.1,595.8h-105.1c-1,0-1.8-.8-1.8-1.8s0-2.2,0-3.2c0-20.7,0-41.5,0-62.2s.8-1.8,1.8-1.8c17.9.1,35.7.2,53.5.3.5,0,.9.2,1.3.5,8.9,8.6,17.8,17.3,26.7,25.9,8.2,7.9,16.4,15.9,24.6,23.8.3.3.5.8.6,1.3,0,5.1.2,10.3.3,15.4s-.8,1.9-1.8,1.9Z"/>
      <path class="cls-4" d="M775,595.8h-108.8c0-1.7,0-3.4,0-5.1,20.1,2.1,35.7-.4,45.6-2.8,15.5-3.8,21.4-8.4,23.9-10.5,8.6-7.6,12.3-17.3,13.8-23.9,8.4,8.1,16.8,16.2,25.1,24.3.1,6,.2,12,.3,18Z"/>
      <g>
        <path class="cls-27" d="M382.2,465.8v13.9c0,6.5-5.3,11.8-11.8,11.8h-151.5c-4.2,0-7.9-2.2-10.1-5.5-1.2-1.9-1.9-4.1-1.9-6.5v-13.7c0-6.6,5.4-12,12-12h151.4c6.6,0,12,5.4,12,12Z"/>
        <path class="cls-17" d="M382.2,465.8v13.7c0,6.6-5.4,12-12,12h-151.4c-4.2,0-7.9-2.2-10.1-5.5,25.8,4.8,71.4,8.6,120.7-11.9,14.4-6,26.9-13.1,37.5-20.3h3.2c6.6,0,12,5.4,12,12Z"/>
      </g>
      <path class="cls-4" d="M632.2,529.6v67.7c0,3-2.4,5.4-5.4,5.4h-66.4c-1.7,0-3.3-.7-4.4-1.9,10.4-1.6,26.3-6,41.3-18.2,24.3-19.7,30-47,31.5-59.1,2.1,1.2,3.4,3.5,3.4,6Z"/>
      <path class="cls-17" d="M782.8,653.2v26.2c0,.8-.2,1.5-.7,2.1-3.4,4.7-7.3,11.2-10.4,19.5-3.3,8.8-4.6,16.8-5.1,22.9,0,1.2-1.1,2.2-2.3,2.2h-70c13.7-3.6,33.2-11.1,52.3-26.8,18.6-15.3,29.7-32.7,36.3-46.1Z"/>
      <path class="cls-17" d="M638,667.5v54.5c0,2.2-1.8,4-4,4h-58.8c11.3-4,25.3-11.1,38.4-23.6,12.6-12,20.1-25,24.4-35Z"/>
      <path class="cls-4" d="M535,529.6v67.7c0,3-2.4,5.4-5.4,5.4h-47.8c-3.1,0-5.7-2.4-6-5.5,9.2-2.2,22-6.9,33.7-17.5,19.1-17.2,24.1-39.4,25.3-51.9.2.5.2,1.1.2,1.7Z"/>
      <path class="cls-25" d="M782.8,575.3v104.1c0,.8-.2,1.5-.7,2.1-3.4,4.7-7.3,11.2-10.4,19.5-3.3,8.8-4.6,16.8-5.1,22.9,0,1.2-1.1,2.2-2.3,2.2h-100.6c-1.6,0-2.8-1.3-2.8-2.8l-.9-198.8c0-2.7,2.2-4.9,4.9-5l61-.5c22.2,22,34.7,34.4,56.9,56.4Z"/>
      <rect class="cls-24" x="476.8" y="662.3" width="58.2" height="63.8" rx="2.9" ry="2.9"/>
      <rect x="491.6" y="671.6" width="29.5" height="5.6" rx="2" ry="2"/>
      <rect class="cls-14" x="491.6" y="670.2" width="29.5" height="5.6" rx="2" ry="2"/>
      <g>
        <rect x="671.3" y="612.3" width="29.5" height="5.6" rx="2" ry="2"/>
        <rect class="cls-14" x="671.3" y="610.9" width="29.5" height="5.6" rx="2" ry="2"/>
      </g>
      <rect class="cls-1" x="849.3" y="639.2" width="15.5" height="10.8" rx="3.9" ry="3.9"/>
      <rect class="cls-15" x="869.3" y="639.2" width="15.5" height="10.8" rx="3.9" ry="3.9"/>
      <path class="cls-33" d="M931.5,637.3c0,14.1,0,28.3-.1,42.4-1.8-1-3.7-2.3-5.5-3.8-11.6-9.8-19.4-28.8-12.4-36.8,3.6-4.1,11-5.2,17.6-3.5.2.7.3,1.2.4,1.7Z"/>
      <path class="cls-24" d="M638,520.6v201.4c0,2.2-1.8,4-4,4h-82.8c-2.2,0-4-1.8-4-4-.2-67.1-.3-134.2-.5-201.4,0-2.2,1.8-4,4-4h83.2c2.2,0,4,1.8,4,4Z"/>
      <g>
        <rect x="612.7" y="627.1" width="29.5" height="5.6" rx="2" ry="2" transform="translate(1257.4 2.5) rotate(90)"/>
        <rect class="cls-14" x="614.1" y="627.1" width="29.5" height="5.6" rx="2" ry="2" transform="translate(1258.8 1.1) rotate(90)"/>
      </g>
      <path class="cls-17" d="M211.3,667.5v18c0,2.2-1.8,4-4,4h-25.1c-.6,0-1.2-.1-1.7-.4-1.3-.6-2.2-2-2.2-3.6v-18c0-2.2,1.8-4,4-4h25.1c.7,0,1.4.2,2,.6,1.2.7,2,2,2,3.4Z"/>
      <path class="cls-29" d="M211.3,667.5v18c0,2.2-1.8,4-4,4h-25.1c-.6,0-1.2-.1-1.7-.4,5.9,0,15-1.3,21.9-8.9,5-5.5,6.6-11.7,7-16.1,1.2.7,2,2,2,3.4Z"/>
      <ellipse class="cls-4" cx="557.4" cy="792.1" rx="484.4" ry="19.6"/>
      <path class="cls-36" d="M894.1,737.3c0,30.2-24.5,54.7-54.8,54.7s-38.4-11.3-47.8-28c-4.4-7.9-7-17-7-26.7,0-30.2,24.5-54.8,54.7-54.8s8.2.5,12,1.3c24.5,5.5,42.7,27.3,42.7,53.4Z"/>
      <path class="cls-5" d="M894.1,737.3c0,30.2-24.5,54.7-54.8,54.7s-38.4-11.3-47.8-28c-.8-23.2,9.9-49,26.6-63.8,2.6-2.3,16.4-14.2,33.2-16.3,24.5,5.5,42.7,27.3,42.7,53.4Z"/>
      <circle class="cls-8" cx="840.1" cy="737.3" r="30.3"/>
      <g>
        <circle class="cls-2" cx="839.3" cy="736.5" r="10.1"/>
        <circle class="cls-16" cx="839.3" cy="735.9" r="7.9"/>
        <circle class="cls-35" cx="839.4" cy="735.3" r="5.6"/>
      </g>
      <path class="cls-36" d="M414.4,737.3c0,30.2-24.5,54.7-54.8,54.7s-38.4-11.3-47.8-28c-4.4-7.9-7-17-7-26.7,0-30.2,24.5-54.8,54.7-54.8s8.2.5,12,1.3c24.5,5.5,42.7,27.3,42.7,53.4Z"/>
      <path class="cls-5" d="M414.4,737.3c0,30.2-24.5,54.7-54.8,54.7s-38.4-11.3-47.8-28c-.8-23.2,9.9-49,26.6-63.8,2.6-2.3,16.4-14.2,33.2-16.3,24.5,5.5,42.7,27.3,42.7,53.4Z"/>
      <circle class="cls-8" cx="360.4" cy="737.3" r="30.3"/>
      <g>
        <circle class="cls-2" cx="359.6" cy="736.5" r="10.1"/>
        <circle class="cls-16" cx="359.7" cy="735.9" r="7.9"/>
        <circle class="cls-35" cx="359.7" cy="735.3" r="5.6"/>
      </g>
      <path class="cls-26" d="M397.8,711.6c2.2,2.2,7.4,8,9,17.3,2.2,12.5-3.9,22.1-5.3,24.1"/>
      <path class="cls-26" d="M398.9,756.6c-.4.7-1,1.5-1.8,2.3-.9.9-1.7,1.5-2.4,2"/>
      <path class="cls-26" d="M873.9,713.4c2.2,2.2,7.4,8,9,17.3,2.2,12.5-3.9,22.1-5.3,24.1"/>
      <path class="cls-26" d="M874.9,758.3c-.4.7-1,1.5-1.8,2.3-.9.9-1.7,1.5-2.4,2"/>
      <path class="cls-9" d="M775.7,739.9h-115.7c-2.1,0-3.8-1.7-3.8-3.8s.4-2,1.1-2.7c.7-.7,1.6-1.1,2.7-1.1h115.7c-.1,2.5-.1,5,0,7.5Z"/>
      <path class="cls-9" d="M941,704v23.3c-.9,2-2.2,4.6-4.4,7.2-1.7,2.1-3.4,3.7-4.9,4.9h-24.6c.8-6.2,1.1-15.2-1.6-25.2-1.3-4.6-3.1-9.2-5.4-13.6v-8.9h31.2c0,2.2,0,4.3,0,6.5h6c.5.2,1.4.5,2.2,1.4,1.7,1.7,1.5,4.1,1.5,4.5Z"/>
      <g>
        <g>
          <path class="cls-7" d="M688.8,506.4v4s-29.3.2-29.3.2v-4c0-.7.6-1.3,1.3-1.3l26.7-.2c.7,0,1.3.6,1.3,1.3Z"/>
          <path class="cls-21" d="M688.8,506.4v4s-2.7,0-2.7,0c.1-1.2,0-2.7-.6-4.2-.2-.4-.4-.8-.7-1.2h2.7c.7,0,1.3.6,1.3,1.3Z"/>
        </g>
        <g>
          <path class="cls-12" d="M686.6,503.7v1.3s-24.5.2-24.5.2v-1.4c0-.7.6-1.3,1.3-1.3l21.9-.2c.7,0,1.3.6,1.3,1.3Z"/>
          <path class="cls-34" d="M686.6,503.7v1.3s-2.7,0-2.7,0c-.2-.5-.5-1.1-.8-1.7-.2-.4-.4-.7-.7-1h2.8c.7,0,1.3.6,1.3,1.3Z"/>
        </g>
        <g>
          <path class="cls-11" d="M685.3,502.5l-22.4.2.6-6.4.9-10.9c.2-1.9,1.8-3.4,3.7-3.4h12.2c1.5-.1,2.8,1,3,2.5l2,17.9Z"/>
          <path class="cls-10" d="M677,482l2.1,12.3c0,1.1-.8,1.9-1.9,1.9h-13.7c0,.1.9-10.8.9-10.8.2-1.9,1.8-3.4,3.7-3.4h8.9Z"/>
          <ellipse class="cls-23" cx="672.7" cy="492.9" rx="1" ry="2.3" transform="translate(-3.8 5.3) rotate(-.4)"/>
          <ellipse class="cls-23" cx="677.1" cy="492.9" rx="1" ry="2.3" transform="translate(-3.8 5.3) rotate(-.4)"/>
          <rect class="cls-23" x="674" y="494.2" width="1.8" height="7.7" rx=".9" ry=".9" transform="translate(-3.9 5.3) rotate(-.4)"/>
          <rect class="cls-13" x="664.6" y="489.2" width=".7" height="9.7" rx=".4" ry=".4" transform="translate(45 -55.4) rotate(4.9)"/>
          <rect class="cls-13" x="665.3" y="484.7" width=".5" height="3.2" rx=".3" ry=".3" transform="translate(44.3 -55.5) rotate(4.9)"/>
        </g>
        <rect class="cls-19" x="658.6" y="469.2" width="2" height="12.7" rx="1" ry="1" transform="translate(-136.9 311.7) rotate(-24.2)"/>
        <rect class="cls-19" x="688" y="469.6" width="2" height="12.7" rx="1" ry="1" transform="translate(214.3 -214) rotate(20.8)"/>
        <rect class="cls-19" x="673" y="465.7" width="2" height="12.7" rx="1" ry="1" transform="translate(-3.7 5.3) rotate(-.4)"/>
      </g>
      <rect class="cls-9" x="146.8" y="718.4" width="69.4" height="26.5" rx="12" ry="12"/>
      <rect class="cls-15" x="161.6" y="599.7" width="21.6" height="21.6"/>
      <rect class="cls-15" x="184.3" y="577.3" width="21.6" height="21.6"/>
      <rect class="cls-15" x="207.2" y="599.7" width="21.6" height="21.6"/>
      <rect class="cls-15" x="229.9" y="577.3" width="21.6" height="21.6"/>
      <rect class="cls-15" x="252.3" y="599.7" width="21.6" height="21.6"/>
      <rect class="cls-15" x="275" y="577.3" width="21.6" height="21.6"/>
      <path class="cls-30" d="M349.7,591.9v8c-.6.1-1.2.2-1.7.2-3.1,0-5.6-1-7.7-3.1-2-2-3.1-4.6-3.1-7.6s1-5.5,3.1-7.6c2.1-2.1,4.6-3.1,7.5-3.1s5.9,1,7.8,2.9,2.9,4.6,2.9,8v10.1h-7.7v-9.5c0-1.1-.3-2-.8-2.6s-1.2-1-2.1-1-1.5.3-2.1.9-.9,1.3-.9,2.1.3,1.6.8,2.1c.5.6,1.2.8,2,.8s1.3-.2,1.9-.5h0Z"/>
      <path class="cls-30" d="M367.3,579.1v20.6h-7.7v-20.6h7.7ZM363.5,569.9c1,0,1.9.4,2.7,1.1.8.7,1.1,1.6,1.1,2.6s-.4,2-1.1,2.6c-.7.7-1.6,1-2.8,1s-2-.3-2.8-1c-.7-.7-1.1-1.6-1.1-2.6s.4-1.9,1.1-2.6c.8-.7,1.7-1.1,2.7-1.1h0,0Z"/>
      <path class="cls-6" d="M387.7,590.3c0-.3,0-.5,0-.8,0-5.2,0-10.4,0-15.6,0-1.5.5-2.1,2-2.1,9.5,0,18.9,0,28.4,0,1.3,0,1.9.6,1.9,1.9,0,4.4,0,8.7,0,13.1,0,1.1,0,2.2,0,3.4-10.8,0-21.6,0-32.4,0ZM399,578.9c-.9,0-1.2.3-1.2,1.2,0,.7,0,1.4,0,2,0,.9.3,1.2,1.2,1.2.7,0,1.4,0,2.1,0,.4,0,.6.1.5.5,0,.8,0,1.5,0,2.3,0,.7.3,1,1,1,.8,0,1.6,0,2.4,0,.7,0,1-.4,1-1.1,0-.9,0-1.8,0-2.8.9,0,1.8,0,2.6,0,1,0,1.2-.3,1.2-1.2,0-.7,0-1.3,0-2,0-1-.3-1.2-1.3-1.2-.8,0-1.7,0-2.6,0,0-.9,0-1.7,0-2.5,0-1.1-.3-1.4-1.4-1.4-.7,0-1.3,0-2,0-.7,0-1,.3-1.1,1.1,0,.9,0,1.8,0,2.8-1,0-1.8,0-2.7,0Z"/>
      <path class="cls-6" d="M437.1,594.4c-1.2-1.3-2.7-1.8-4.4-1.8-1.3,0-2.5.4-3.5,1.1-1.8,1.2-2.6,3-2.8,5.2-.2,0-.4,0-.6,0-4.9,0-9.8,0-14.7,0-.6,0-.8-.1-.9-.7-.7-3.7-4.5-6.1-8.1-5.2-2.8.7-4.4,2.6-5.1,5.4,0,.3,0,.5-.5.5-2.1,0-4.3,0-6.4,0-1.2,0-2.2-1-2.2-2.3,0-1.6,0-3.3,0-4.9,0-.1,0-.2,0-.4,11.1,0,22.1,0,33.2,0v-11.6c1.2-.2,5.1,0,6.4.3,1.6.3,2.7,1.2,3.5,2.5.8,1.4,1.3,2.9,1.5,4.5,0,.5.3.7.7.9,1.9.7,3.7,1.4,5.5,2.1.9.4,1.6,1.1,1.8,2.1.2.9.4,1.8.5,2.7.2,1.4.4,2.7.5,4.1h-2.5c-.3-1.7-.8-3.2-2-4.5ZM424.1,587.5c1.8,0,3.5,0,5.3,0-.3-1.9-.9-3.6-2.2-5,0,0-.2-.2-.3-.2-.9,0-1.8,0-2.7,0v5.2Z"/>
      <path class="cls-18" d="M398.5,599.7c0-2.6,1.9-5.1,4.9-5.2,2.7-.2,5.2,2,5.3,5,.1,2.9-2.1,5.2-4.9,5.3-2.8.2-5.2-2.1-5.3-5ZM403.5,601.6c1,0,1.9-.9,2-1.9,0-1.1-.8-2-1.9-2-1.1,0-1.9.8-2,2,0,1.1.8,1.9,1.9,2Z"/>
      <path class="cls-18" d="M432.7,604.3c-2.8,0-5.1-2.3-5.1-5.1,0-2.8,2.3-5.2,5.1-5.1,2.8,0,5,2.3,5,5.1,0,2.8-2.3,5.1-5.1,5.1ZM434.7,599.1c0-1.1-.9-1.9-2-1.9-1.1,0-2,.9-1.9,2,0,1.1.9,1.9,2,1.9,1.1,0,2-.9,1.9-2Z"/>
      <path class="cls-28" d="M415.8,570.9c-.3.3-.7.2-1.2.2-.3,0-.6,0-.8,0-.7,0-1.3,0-2,0-.4,0-.8,0-1.1-.2-.3-.3-.3-.7-.3-1.2,0-.9.2-2,1-2.5,1.4-1.1,3.9-.6,4.4,1.2.1.4.2.8.2,1.2,0,.5,0,1-.2,1.2h0ZM415.2,570.5c.1-.1.1-.4.1-.7,0-.9-.2-1.5-.6-1.9,0,0-.2-.2-.3-.2,0,.1,0,.4,0,.5,0,.5.2,1,.3,1.4,0,.2.2.9.5.8h0Z"/>
      <g>
        <path class="cls-28" d="M408.8,568.5c.3,0,.4-.2.5-.5,0-.3,0-.6-.3-.8-.3-.3-.9-.6-1.3-.3-.5.5,0,1,.5,1.3.2.2.4.3.6.3h0Z"/>
        <path class="cls-28" d="M409.8,564.6c-.6.2-.4.8,0,1.2.2.3.3.6.6.6.3,0,.7-.2.7-.6,0-.5-.6-1.3-1.1-1.3h0Z"/>
        <path class="cls-28" d="M412.5,564.9c0,.6.5,1.3,1,.8.3-.2.3-.8.3-1.2,0-.4-.4-.7-.8-.6-.4.1-.5.5-.5.9h0Z"/>
        <path class="cls-28" d="M417.3,568.4c.5.1,1.5-.5,1.4-1,0-.3-.4-.6-.7-.6-.5,0-1,.4-1.1.9,0,.3.1.6.4.7h0Z"/>
        <path class="cls-28" d="M415.3,566c.1.3.5.5.8.3.5-.2.9-1,.7-1.4,0-.3-.4-.4-.6-.4-.5.1-1,.9-.9,1.4h0Z"/>
      </g>
      <path class="cls-30" d="M389.4,571.8c-.1,0-.3,0-.4,0-3.3.4-5.9,2.9-6.8,6.2v10.4c0,.9-.1,1.7-.3,2.3-.4,1.2-1.3,1.8-2.6,1.8s-1.5-.3-2.1-.9c-.6-.6-.9-1.3-.9-2.1s.3-1.5.9-2.1c.6-.6,1.2-.9,2-.9s1.3.2,1.9.7v-8.5c-.9,0-1.6-.1-2-.1-2.8,0-5.3,1.1-7.4,3.2-2.1,2.1-3.1,4.6-3.1,7.5s1,5.5,3.1,7.6c2.1,2.1,4.7,3.1,7.7,3.1s3-.3,4.5-1c.9-.4,1.6-.9,2.3-1.4.5-.4.9-.8,1.3-1.3.2-.3.5-.6.7-.9.3-.5.6-1,.8-1.5.2-.4.3-.9.5-1.3.3-1.2.5-2.5.5-3.9v-17c-.2,0-.3,0-.5,0h0Z"/>
      <g class="cls-22">
        <g class="cls-22">
          <g class="cls-22">
            <path class="cls-30" d="M336.9,578v8.6c-.6-.3-1.1-.5-1.5-.5-1.5,0-2.2,1.1-2.2,3.3v10.2h-8v-11.7c0-3.1.8-5.6,2.5-7.4s3.9-2.8,6.7-2.8,1.4,0,2.4.2Z"/>
          </g>
        </g>
      </g>
      <path class="cls-31" d="M408.3,576.3c-1.3-1.3-2.8-2-4.6-2s-3.5.6-4.9,1.9c-1.3,1.3-2,2.9-2,4.7s.7,3.4,2,4.7c1.3,1.3,2.9,2,4.7,2s3.4-.7,4.7-2c1.3-1.3,2-2.9,2-4.7s-.6-3.4-1.9-4.7ZM408.1,582c0,.4-.1.5-.5.5-.7,0-1.4,0-2.1,0-.3,0-.3,0-.3.3,0,.7,0,1.4,0,2.1,0,.5-.1.6-.6.6-.6,0-1.3,0-1.9,0-.4,0-.5-.1-.5-.5,0-.4,0-.7,0-1.1,0-.4,0-.7,0-1.1,0-.2,0-.3-.3-.2-.7,0-1.4,0-2.1,0-.5,0-.6-.1-.6-.6,0-.6,0-1.2,0-1.8,0-.4.1-.6.6-.6.7,0,1.4,0,2.1,0,.3,0,.3,0,.3-.3,0-.7,0-1.4,0-2.1,0-.4.1-.6.6-.6.6,0,1.3,0,1.9,0,.4,0,.5.1.5.5,0,.7,0,1.5,0,2.2,0,.2,0,.3.3.3.7,0,1.4,0,2.1,0,.5,0,.6.1.6.6,0,.6,0,1.3,0,1.9Z"/>
    </g>
  </g>
</svg>