<?xml version="1.0" encoding="UTF-8"?>
<svg xmlns="http://www.w3.org/2000/svg" version="1.1" viewBox="0 0 1080 1080">
  <defs>
    <style>
      .cls-1 {
        fill: #00508c;
      }

      .cls-2 {
        fill: #37474f;
      }

      .cls-3 {
        fill: #e3e0de;
      }

      .cls-4 {
        fill: #da7a5a;
      }

      .cls-5 {
        fill: #f5a392;
      }

      .cls-6 {
        fill: #66ade1;
      }

      .cls-7 {
        stroke: #b6cedd;
        stroke-width: 4px;
      }

      .cls-7, .cls-8 {
        fill: none;
        stroke-miterlimit: 10;
      }

      .cls-9 {
        fill: #263238;
      }

      .cls-10 {
        fill: #e0e0e0;
      }

      .cls-11 {
        fill: #85bde6;
      }

      .cls-12 {
        fill: #3d5159;
      }

      .cls-13 {
        fill: #ffd748;
      }

      .cls-14 {
        fill: #33363e;
      }

      .cls-8 {
        stroke: #596972;
        stroke-width: 3px;
      }

      .cls-15 {
        fill: #191d20;
      }

      .cls-16 {
        fill: #96d3fe;
      }

      .cls-17 {
        fill: #ffa891;
      }

      .cls-18 {
        fill: #ebebeb;
      }

      .cls-19 {
        fill: #ce867a;
      }

      .cls-20 {
        fill: #f5f5f5;
      }

      .cls-21 {
        fill: #f13232;
      }

      .cls-22 {
        fill: #fbe0b3;
      }

      .cls-23 {
        fill: #ccaf2d;
      }

      .cls-24 {
        fill: #3c464d;
      }

      .cls-25 {
        fill: #f7cc7c;
      }
    </style>
  </defs>
  <!-- Generator: Adobe Illustrator 28.6.0, SVG Export Plug-In . SVG Version: 1.2.0 Build 709)  -->
  <g>
    <g id="Layer_1">
      <path class="cls-20" d="M947.1,605.4c0,2.6,0,5.1-.1,7.7,0,1.2,0,2.4-.1,3.6-2.2,51.8-19.5,100.5-48.5,143.6-6.7,9.9-14,19.6-21.9,28.9-15.2,17.9-32.5,34.5-51.6,49.7-3.8,3-7.7,6-11.6,8.8H236.9c-3.9-2.9-7.8-5.8-11.6-8.8-75.6-59.9-122.3-142.4-122.3-233.5,0-183.2,189-331.7,422-331.7s367.8,109.5,411.2,256.5c1,3.3,1.9,6.7,2.8,10,.6,2.2,1.1,4.5,1.6,6.7,4.3,19,6.5,38.5,6.5,58.4Z"/>
      <path class="cls-5" d="M436.5,501.2c-11.3,4.8-22.6,9.7-33.9,14.5-10.9,18.5-21.8,37.1-32.7,55.6-3.4,2.4-6.9,4.9-10.3,7.3-1.5,1.5-3,3.4-4.5,5.7-2.9,4.4-4.6,8.7-5.5,12,.3.5.7,1.1,1.3,1.2.6,0,1.1-.5,1.2-.4.2.2-2.6,2.2-2.4,4.4,0,0,.1,1.2.9,1.5.6.2,1.2-.2,1.5-.4.9-.6,1.3-1.5,1.5-2-.1.8-.2,1.7-.3,2.5-.1,1.3-.5,1.9-.2,2.4.3.4.9.6,1.3.5,1.1,0,2.2-1.6,2.6-3.8-1.3,2.5-1.3,4.6-.4,5.3.4.3.9.3,1.4.2,1.6-.5,2.1-3.3,2.3-4,.5-2.4,2.3-6.4,8.1-13.1,1.3-.2,1.9.1,2.1.4.8.9-.4,2.3.1,4.5,0,.2.6,2.2,1.6,2.4,1.4.2,3-3,3.6-4.7.3-.7.7-2.2.8-8.1,0-1.7,0-3.1,0-4,12.1-15.8,24.2-31.7,36.4-47.5,5.3-2.8,10.9-5.9,16.5-9.2,4-2.4,7.8-4.7,11.4-7.1-1.4-5.4-2.9-10.8-4.3-16.2Z"/>
      <path class="cls-2" d="M430.2,625c-5.2,30-10.3,60-15.5,90-8.7,13-17.5,26.1-26.2,39.1,1.5,8.7,3,17.5,4.4,26.2,17.4-18,34.7-36.1,52.1-54.1,6.5-16.8,12.9-33.6,19.4-50.4-1.4-17.4-2.7-34.7-4.1-52.1-10,.4-20.1.8-30.1,1.2Z"/>
      <rect class="cls-11" x="306.9" y="359.3" width="98.6" height="479.5"/>
      <path class="cls-10" d="M901.7,843.3c0,1.2-.5,2.3-1.3,3.1s-1.9,1.3-3.1,1.3H156.7c-2.4,0-4.4-2-4.4-4.4s.5-2.3,1.3-3.1c.8-.8,1.9-1.3,3.1-1.3h740.6c2.4,0,4.4,2,4.4,4.4Z"/>
      <polygon class="cls-6" points="325.2 838.8 198.1 838.8 198.2 362.4 324.3 336.5 325.2 838.8"/>
      <rect class="cls-1" x="324.3" y="336.5" width="13.9" height="502.4"/>
      <path class="cls-7" d="M226.7,393.7c20.7-4.9,41.4-9.7,62.2-14.6.5,1.5,2.1,5.5,6.3,8.6,4,3,8.1,3.5,9.7,3.6.7,44.7,1.4,89.4,2.1,134.1-1.5.5-4.1,1.7-6.5,4.1-3.4,3.4-4.4,7.3-4.7,8.9-21.2,2.7-42.4,5.4-63.6,8-.6-1.7-1.9-4.6-4.6-7.3-4.5-4.4-9.8-5.2-11.6-5.4,0-42.6,0-85.2,0-127.8,1.4-.4,4.2-1.5,6.7-4.1,3.1-3.2,3.9-6.8,4.1-8.2Z"/>
      <ellipse class="cls-25" cx="296.2" cy="586.8" rx="3.8" ry="9.2"/>
      <path class="cls-17" d="M482.7,837.4c-15,0-30-.1-44.9-.2,1-3.1,2.1-6.2,3.1-9.3,1.2-3.7,2.5-7.3,3.7-11,5.4-.5,10.7-1,16.1-1.5-.4,4.2-.8,8.4-1.2,12.6,1.6,0,3.7.2,6.2.6,2.1.4,4.4,1,6.8,2.1,4.8,2,8.2,4.8,10.2,6.7Z"/>
      <path class="cls-12" d="M482.7,837.4c-15,0-30-.1-44.9-.2,1-3.1,2.1-6.2,3.1-9.3,3,1,6.7,1.8,11,2.1,5.6.3,10.3-.5,13.8-1.4,2.1.4,4.4,1,6.8,2.1,4.8,2,8.2,4.8,10.2,6.7Z"/>
      <ellipse class="cls-4" cx="295" cy="586.8" rx="2.6" ry="5.2"/>
      <path class="cls-12" d="M428.4,628.1c3.9-3.2,11.2.8,31.7-.3,10.4-.5,19-2.1,24.9-3.4,3.1,32.7,6.3,65.3,9.4,98-10.8,32.1-21.6,64.1-32.4,96.2-6.7-.1-13.4-.2-20.1-.3l22.8-97.9c-38.4-66.1-42.4-87.2-36.3-92.3Z"/>
      <ellipse class="cls-22" cx="286.8" cy="586.2" rx="6.6" ry="13.4"/>
      <path class="cls-20" d="M487.1,626.3c-8.8,2.1-19.8,3.9-32.4,4.3-10.5.3-19.9-.4-27.7-1.5,5-16.8,5.1-30,4.4-38.6-1.4-17.7-6.8-23.6-9.9-50.7-1.4-12.8-1.5-22.2,3.4-31.5,1.8-3.5,5.4-10,12.9-13.3,4.3-1.8,8.5-2.1,12.1-1.6,3.4.6,10.6,2.3,17.5,8,8.1,6.8,11,15.1,11.9,18.4,0,0,0,0,0,0,5.9,14.3,6.6,29.3,7,43.1.8,24.7.9,46.1.8,63.3Z"/>
      <path class="cls-5" d="M465.3,538.7c10.4,6.5,20.9,12.9,31.3,19.4,21.4-1.7,42.9-3.4,64.3-5.1,4,1.4,7.9,2.9,11.9,4.3,2.1.3,4.5.5,7.2.4,5.3-.1,9.8-1.2,13-2.4.3-.5.5-1.2.3-1.7-.3-.5-1-.6-1-.8,0-.3,3.3.9,5-.6,0,0,.9-.8.7-1.6-.1-.6-.8-.9-1.2-1-1-.4-2-.2-2.5,0,.7-.4,1.5-.8,2.2-1.2,1.1-.6,1.8-.6,2-1.2.2-.5,0-1.1-.3-1.4-.7-.9-2.6-.9-4.6,0,2.8-.4,4.6-1.6,4.6-2.7,0-.5-.3-1-.7-1.3-1.3-1-3.9.1-4.6.4-2.3,1-6.6,1.8-15.4.9-.9-1-1-1.6-.9-2,.3-1.1,2.1-1,3.6-2.7.2-.2,1.5-1.7,1.1-2.6-.6-1.2-4.2-.7-5.9-.3-.7.2-2.2.7-7.1,4-1.4.9-2.5,1.8-3.3,2.3-19.9-.9-39.9-1.7-59.8-2.6-5.3-2.8-11-5.5-17-8.3-4.2-1.9-8.3-3.7-12.3-5.3-3.6,4.3-7.2,8.5-10.8,12.8Z"/>
      <path class="cls-18" d="M436.2,503.7c-.9.2-4.1,1.1-6.6,3.8-4.5,4.8-3.6,11.9-3.2,15.1,1.4,11.6,15.9,23.9,36.9,31.9,3.2-4.4,6.5-9,9.8-13.8,3.9-5.6,7.5-11.2,10.9-16.6-13.1-6.6-22.6-11.8-30.2-16.1-4.3-2.4-10.7-6.2-17.5-4.3Z"/>
      <path class="cls-19" d="M587.7,546.7c0,0,1.4.3,3,0,1-.2,1.8-.5,2.4-.8-.6.2-1.4.4-2.4.6-1.8.3-3,.2-3,.2Z"/>
      <path class="cls-19" d="M588.1,550.2c0,0,1.4.3,3,0,1-.2,1.8-.5,2.4-.8-.6.2-1.4.4-2.4.6-1.8.3-3,.2-3,.2Z"/>
      <path class="cls-5" d="M462.9,497.7c-1.5,1-9.9,6.4-19.1,3.5-2.4-.8-4.3-1.9-5.7-3.1,1.1-6.4,2.1-12.9,3.2-19.3,5.7.4,11.3.8,16.9,1.2-.2.5-1,2.1-1.3,4.4-.1.8-.2,1.7-.1,2.6,0,1.3.3,2.8.9,4.2,1.4,3.7,4.1,5.8,5.2,6.5Z"/>
      <path class="cls-19" d="M586.4,553.7c0,0,1.4.3,3,0,1-.2,1.8-.5,2.4-.8-.6.2-1.4.4-2.4.6-1.8.3-3,.2-3,.2Z"/>
      <ellipse class="cls-5" cx="451.6" cy="461.8" rx="16.2" ry="23.1"/>
      <path class="cls-9" d="M437.5,487.4c2.6-2.1,5.8-5.5,5.6-9.4-.1-3.6-2.9-4.7-4.4-8.3-2.7-6.5,1-16.1,6.7-21.2,7.7-6.8,16.1-2.7,19.8-9.2,2.1-3.7,1.9-9.2-1-12.3-2.9-3-7.6-2.5-8.4-2.5-5.6.6-6.7,4.5-14.7,8.3-5.1,2.4-5.3,1.1-8.2,2.8-6.8,4.2-11.3,15-8.9,23.9,2.1,7.9,8.3,9,10.5,18.6.9,4.1.7,7.6.3,9.8.9-.2,1.8-.4,2.7-.6Z"/>
      <path class="cls-19" d="M456.9,484.4c-.1.8-.2,1.7-.1,2.6-1.2.2-2.8.4-4.6.1-3.6-.5-6-2.4-7-3.3,1.3.6,3.3,1.2,5.8,1.4,2.4.1,4.4-.3,6-.8Z"/>
      <g>
        <path class="cls-13" d="M947.1,605.4c0,2.6,0,5.1-.1,7.7,0,1.2,0,2.4-.1,3.6-2.2,51.8-19.5,100.5-48.5,143.6-6.7,9.9-14,19.6-21.9,28.9-13.3-.4-26.7-.8-40-1.2,7.5-47.7-28.8-90.4-72.7-92.1-43.4-1.7-82.6,37.1-79.7,84.8-9.3-.9-19.5-2.2-30.3-4.2-10.9-2.1-20.9-4.5-30-7.2-5-8.8-7.5-16.6-8.8-22-3.8-14.9.4-15.1-2.7-34-.6-3.3-1.4-7.7.7-12.1,1.2-2.5,2.6-3.6,7.2-8.7,2.7-3.1,4.9-5.6,6.3-7.3,1.4-5.9,2.8-11.8,4.2-17.7,3.3-13.9,6.6-27.7,9.9-41.6.6-2.6,1.2-5.2,1.9-7.8-1.5-1.9-3.3-4.6-2.4-6.6,1.3-3,7.5-2.9,9.4-2.9,4.5,0,24.1-3.5,63.3-10.6,15.1-2.7,19.4-6.3,47.2-18.2,12.8-5.5,62.2-26.3,108.1-38,16.9-4.3,39.9-9,68.3-11.6,1,3.3,1.9,6.7,2.8,10,.6,2.2,1.1,4.5,1.6,6.7,4.3,19,6.5,38.5,6.5,58.4Z"/>
        <path class="cls-21" d="M715.1,627.7c-28.2,13.2-56.3,26.5-84.5,39.8,3.3-13.9,6.6-27.7,9.9-41.6,24.8.6,49.7,1.2,74.5,1.9Z"/>
        <circle class="cls-15" cx="759.7" cy="772.3" r="68.9"/>
        <circle class="cls-3" cx="759" cy="772.3" r="44.8"/>
        <polygon class="cls-14" points="743.5 765.5 731.9 765.9 720.4 765.5 725.8 755.3 731.9 745.5 738 755.3 743.5 765.5"/>
        <polygon class="cls-14" points="757.5 757.3 751.4 747.5 746 737.3 757.5 736.9 769 737.3 763.6 747.5 757.5 757.3"/>
        <polygon class="cls-14" points="771.8 765.2 777.2 755 783.4 745.2 789.5 755 794.9 765.2 783.4 765.6 771.8 765.2"/>
        <polygon class="cls-14" points="770.7 781.6 782.2 781.2 793.7 781.6 788.3 791.8 782.2 801.6 776.1 791.8 770.7 781.6"/>
        <polygon class="cls-14" points="746.7 810 752.2 799.8 758.3 790 764.4 799.8 769.8 810 758.3 810.4 746.7 810"/>
        <path class="cls-8" d="M898.4,760.2c-11.3-1-22.6-1.9-33.9-2.9-26.5-33.4-53.1-66.9-79.7-100.3,5.8-18,11.6-36.1,17.3-54.1.4-1.1.7-2.2,1.1-3.3"/>
        <polygon class="cls-14" points="719.8 780.7 731.3 780.7 742.8 781.5 737.1 791.5 730.6 801.1 724.9 791.1 719.8 780.7"/>
        <path class="cls-24" d="M947.1,605.4c0,2.6,0,5.1-.1,7.7,0,1.2,0,2.4-.1,3.6-27.5-2.3-55.1-4.6-82.6-6.8-15.9,0-35.2-1.4-56.8-5.8-1.8-.4-3.5-.7-5.2-1.1-14.1-3.2-26.6-7.1-37.3-11.1,26.6-13.8,62-29.1,105.5-39.8,24.8-6.1,48-9.7,68.6-11.7.6,2.2,1.1,4.5,1.6,6.7,4.3,19,6.5,38.5,6.5,58.4Z"/>
        <path class="cls-16" d="M947.1,605.4c0,2.6,0,5.1-.1,7.7-43.9-4.5-87.8-8.9-131.8-13.4,5.2-9,10.4-18,15.7-27.1,19.5-6.5,41.5-12.7,65.7-17.9,15.4-3.3,30.1-5.8,44-7.7,4.3,19,6.5,38.5,6.5,58.4Z"/>
        <ellipse class="cls-23" cx="836.2" cy="646.6" rx="25.5" ry="4"/>
      </g>
    </g>
  </g>
</svg>