<?xml version="1.0" encoding="UTF-8"?>
<svg xmlns="http://www.w3.org/2000/svg" version="1.1" viewBox="0 0 1080 1080">
  <defs>
    <style>
      .cls-1 {
        fill: #25336b;
      }

      .cls-2 {
        fill: #68addf;
      }

      .cls-3 {
        fill: #f5f6f6;
      }

      .cls-4 {
        fill: #e0e0e0;
      }

      .cls-5 {
        fill: #be7d67;
      }

      .cls-6 {
        fill: #2875bb;
      }

      .cls-7 {
        fill: #d2a19b;
      }

      .cls-8 {
        fill: #015ea4;
      }

      .cls-9 {
        fill: #00528f;
      }

      .cls-10 {
        fill: #1e2752;
      }

      .cls-11 {
        fill: #005594;
      }

      .cls-12 {
        fill: #eb7f9a;
      }

      .cls-13 {
        fill: #bd7d6b;
      }

      .cls-14 {
        fill: #bf7c6c;
      }

      .cls-15 {
        fill: #0a4c82;
      }

      .cls-16 {
        fill: #a86e60;
      }

      .cls-17 {
        fill: #9d6d6c;
      }
    </style>
  </defs>
  <!-- Generator: Adobe Illustrator 28.6.0, SVG Export Plug-In . SVG Version: 1.2.0 Build 709)  -->
  <g>
    <g id="Layer_1">
      <circle class="cls-11" cx="536.2" cy="479.1" r="265"/>
      <circle class="cls-8" cx="536.2" cy="479.1" r="235.2"/>
      <circle class="cls-3" cx="534.6" cy="480.1" r="216.9"/>
      <circle class="cls-15" cx="339.1" cy="482.6" r="13.7"/>
      <circle class="cls-15" cx="534.2" cy="285.5" r="13.7"/>
      <path class="cls-10" d="M657.5,631.6c-16.9-10.1-30.1-19.1-39-25.3-16.6-11.7-34.1-21.9-50.7-33.5-5.1-3.5-10.9-7.7-19.7-9-1.8-.3-14.5-2-25,4.9-10.9,7.2-13.6,19.9-16.3,31-3.9,15.8-10.4,37.9-21.4,65.5,8.3,3,16.7,6,25,9,6.3-12.2,12.6-25.2,18.7-39.1,4.5-10.3,8.6-20.3,12.3-30,2.8,3.5,7.2,9.2,12.3,16.5,9.6,14,11.6,19.7,18.6,27.1,4,4.2,10.5,9.9,20.9,14.8l64.5-31.9Z"/>
      <circle class="cls-15" cx="731" cy="482.6" r="13.7"/>
      <circle class="cls-15" cx="534.2" cy="678.7" r="13.7"/>
      <path class="cls-1" d="M653.4,629.4c-9.5,2.3-19.5,5-29.8,8.2-8,2.5-15.6,5-22.8,7.7,0,0-35.7,13-86.9,47.5-1.8,1.2-5.2,3.7-8,7.9-2,3-2.8,5.6-3.1,6.3-2.2,6.3-18.8,43.7-44,99.6,8,3.7,16.1,7.4,24.1,11.1,22.6-36,45.2-72.1,67.8-108.1,32.1-2.1,58.4-7.3,77.6-12.2,39.8-10.1,51.2-19.3,57.5-29.8,5.9-9.7,7.1-19.8,7.1-26.9l-37.6-9.5c-.6-.6-1.2-1.1-1.9-1.7Z"/>
      <g>
        <circle class="cls-2" cx="536.3" cy="480.1" r="20.6"/>
        <path class="cls-2" d="M520.1,473.7c-28.3,10.3-56.6,20.5-84.9,30.8-1.8-5.6-3.6-11.2-5.4-16.9-11.1,14.2-22.1,28.4-33.2,42.6,17.1,3.1,34.2,6.1,51.2,9.2-2.4-5.4-4.8-10.9-7.1-16.3,28.4-9.9,56.9-19.7,85.3-29.6-1.9-6.6-3.9-13.2-5.8-19.7Z"/>
        <path class="cls-2" d="M548.6,468.9c-.5-38.5-1-77-1.6-115.5,7.5.2,15.1.3,22.6.5-12.5-19.3-25-38.6-37.5-57.9-10.9,19.3-21.7,38.7-32.6,58,7.6-.6,15.2-1.2,22.7-1.8,0,38.5,0,76.9,0,115.4,8.8.4,17.5.9,26.3,1.3Z"/>
      </g>
      <path class="cls-6" d="M750.5,581.8c0,1.8,0,3.6,0,5.3-2.5,6.7-5,13.5-7.5,20.2-.4,1-.8,2.1-1.2,3.1-12,11.6-24.1,23.3-36.1,34.9-5.3,1.2-30.2,6.1-50-9.2-5.2-4-8.9-8.5-11.6-12.6,3.1-1.8,6.9-4.7,7.1-8.5.2-3.1-2-5.1-3.2-7.5-3.7-6.9,1-16.2,4.4-23,0,0,12.3-24.5,42-33.2,4.2-1.2,8.1-1.7,11.9,0,4.7,2.1,6.9,6.6,7.7,8.5,7.9,2.7,14.4,3.7,19.1,4.1.9,0,1.8.1,2.6.2,6.3.4,9.9,0,12.9,2.5.4.4.8.8,1.1,1.2.6,3.4.7,8.1.8,14Z"/>
      <path class="cls-13" d="M732,560.7c.3,3.4,1.3,6.1,2,7.8-4.3,5.1-8.7,10.2-13,15.3-3.4.6-9.5,1.1-16.2-1.4-1.8-.6-7-2.7-11.3-7.7-1.2-1.4-4.2-4.8-3.2-6.7.6-1.2,2.5-1.3,4.2-1.5,5.8-.6,11.7-2.1,14-3.2,2.4-1.2,4.8-4.1,5.7-11.3.2-1.1.3-2.3.3-3.6,0-.8,0-1.6.1-2.5,1.6,1.3,4,2.8,7,3,6.7.4,11.2-5.8,12.8-4.5,1.8,1.5-3.2,7.4-2.5,16.3Z"/>
      <path class="cls-5" d="M718,602.1c0,9.6-.6,35.7-9.4,37.8-2.8.7-6-1.2-16.8-11.9-10.6-10.4-18.6-19.6-24.1-26.2.2-.3,2.1-2.9,1-6.1-.9-2.7-3.1-3.8-3.5-4,0,1.7,0,3.3,0,5-.6-1-1.9-2.9-2.5-3.9-8.2-12.7-9.1-14-10.4-13.9-3,.1-6.1,7-5.6,13.1.4,4.9,3.1,8.2,6.3,12.1,2.3,2.9,6.3,7.1,12.6,10.9,6,8.9,10.5,16.3,13.6,21.5,9.8,16.7,14,27.1,24.4,30.2,2.3.7,4.3.8,5.6.8,1-.5,2.4-1.3,4-2.4,5.4-3.7,9.3-8.4,13.5-15.3,3-5,7.7-13.6,11.8-26.2,1.7-5.3,3.7-12.3,5.1-20.8-8.5-.2-17-.4-25.5-.7Z"/>
      <path class="cls-9" d="M750.5,581.8c0,1.8,0,3.6,0,5.3-.3,8.5-1.5,15.6-2.6,20.5-1.6-.1-3.2-.2-4.8-.3-9.5-.7-19.1-1.3-28.6-2-.2-5.2.1-16.5,7.3-27.2,3.6-5.4,9-10.8,14.1-14,4.1-2.5,8-3.7,10.6-2.2,1.8,1,2.8,3,3.3,5.9.6,3.4.7,8.1.8,14Z"/>
      <path class="cls-9" d="M658.3,622.3l-31.9-13.7c-1.5-.7-2.5-2.2-2.5-3.8l.9-58.9c0-2.9,3-4.8,5.6-3.7l32,13c1.6.6,2.6,2.2,2.5,3.9l-1,59.5c0,2.9-3,4.8-5.7,3.7Z"/>
      <ellipse cx="630.3" cy="550.2" rx="2" ry="2.2"/>
      <path class="cls-5" d="M665.5,613.8c-2.4,1.7-7.5-1.7-9.2-2.9-2.1-1.4-6.8-4.7-8.9-10.9-1.1-3.2-1.8-8.5,0-9.5,1.6-.9,2.9,2.2,8,3.4,4.2,1,7.6,0,9.1,2.3.2.4.3.7.5,1.4,2.4,9.7,2.4,11.9,1.7,14.1-.4,1-.6,1.7-1.2,2.1Z"/>
      <path class="cls-13" d="M741.9,524.7c-1.3,6.3-.3,7.7-1.2,11.2-1.8,7-9.4,14.3-16.9,14.3-10.2,0-18-13.9-18-25.5s6.5-24.1,18-25.5c9.5-1.1,19.9,6.3,21.2,14.5.5,3-1.7,3.9-3.1,11Z"/>
      <path class="cls-7" d="M490.8,665.7c-2,5.7-3.7,12.7-3.9,20.9,0,1.7,0,3.4,0,5-5-.6-11.9-.9-20,.4-7.1,1.2-13,3.2-17.3,5.1,3.2,1.2,6.5,2.4,9.9,3.5,11.6,3.9,22.7,6.8,33.2,9.1,1.9-5.5,4-11.1,6.2-16.7,3.3-8.4,6.6-16.4,10-24.2-6-1-12.1-2.1-18.1-3.1Z"/>
      <path class="cls-12" d="M705.4,512.5c7.2,1,15.3,1.6,24.1,1.5,4.9,0,9.6-.3,14-.7-2.7,1.6-6.1,4.2-7.1,8.2-1.3,5.2,2.5,8.8,3.9,15.1,1,4.4,1,10.8-3.6,19.7,1.2-1.1,9.3-8.3,7.7-16.5-.2-.9-.5-1.9-1-3,2.6-1.7,6.5-4.7,8.6-9.7,1.7-4.2,1.2-7.6.5-14.7-1.8-19.1,0-19.7-2.1-22.6-6-8.1-24.5-9.5-35.6,0-9.4,8.1-9.4,20.5-9.4,22.6Z"/>
      <ellipse class="cls-4" cx="537.3" cy="857.2" rx="275.7" ry="20.9"/>
      <path class="cls-12" d="M734.8,484.5c10.8.8,15.9,4.5,18.6,7.6,5.2,6,3.9,12.2,8.6,22.8,1.6,3.8,4.6,9,10.6,14.6-4.4,2.1-10.1,4.4-16.9,6.1-6,1.5-11.5,2.2-16,2.5-1-3.4-1.9-8.2-.2-13.1,1.8-5.1,6.7-5.8,8.3-11.1.2-.7.9-3.4-.5-8.9-2.4-9.3-8.2-16.2-12.6-20.5Z"/>
      <ellipse class="cls-14" cx="745.3" cy="522" rx="5" ry="1.5" transform="translate(133.5 1195.5) rotate(-82.8)"/>
      <path class="cls-17" d="M466.6,806.5c-1.3,2.2-2.9,5.4-4,9.4-1,3.6-1.2,6.8-1.3,9.2-4.9,2.7-9,4.6-11.9,5.9-5.4,2.4-16.1,6.8-19,12-.4.7-.7,1.5-.4,2,.5,1,2.6,1.3,7.3.5,9-1.5,25.2-6.8,32.4-9.2.4-1.1,1.1-2.6,1.8-4.6,1.9-5.2,2.3-7.3,3.3-10.1.9-2.4,2.5-5.6,5.5-9.2-4.6-2-9.2-4-13.8-6Z"/>
      <path class="cls-16" d="M729.7,548.2c-.7.7-2,1.8-3.8,2.5-3.7,1.6-8.8,1.8-11.5-.3.2-1.1.3-2.3.3-3.6.7.8,1.5,1.8,2.6,2.4,2.1,1.3,5.7,1.9,12.4-1.1Z"/>
      <path class="cls-12" d="M706.5,507.1c0,1.1-.1,3.7-1.9,6-.8,1.1-1.8,1.9-2.5,2.3-1.4,1-2.8,1.3-3.7,1.5,1,.4,2.8.9,5,.4,4.4-.9,8.2-5.4,7.1-8-.1-.4-.8-1.7-4.2-2.3Z"/>
      <rect class="cls-11" x="271.1" width="18.8" height="484.5"/>
      <rect class="cls-11" x="782.4" width="18.8" height="482.6"/>
    </g>
  </g>
</svg>