<?xml version="1.0" encoding="UTF-8"?>
<svg xmlns="http://www.w3.org/2000/svg" version="1.1" viewBox="0 0 1920 1080">
  <defs>
    <style>
      .cls-1 {
        fill: #171e64;
      }

      .cls-2 {
        fill: #ffb28b;
      }

      .cls-3 {
        fill: #b9b8c6;
      }

      .cls-4 {
        fill: #c9d0e9;
      }

      .cls-5 {
        fill: #e68212;
      }

      .cls-6 {
        fill: #a6b7de;
      }

      .cls-7 {
        fill: #fdca89;
      }

      .cls-8, .cls-9, .cls-10 {
        stroke-width: 2px;
      }

      .cls-8, .cls-9, .cls-10, .cls-11, .cls-12 {
        fill: none;
        stroke-miterlimit: 10;
      }

      .cls-8, .cls-9, .cls-11 {
        stroke-linecap: round;
      }

      .cls-8, .cls-10, .cls-11, .cls-12 {
        stroke: #000;
      }

      .cls-13 {
        fill: #fff;
      }

      .cls-14 {
        fill: #5e5e5e;
      }

      .cls-15 {
        fill: #ffaa3b;
      }

      .cls-16 {
        fill: #5b5b5b;
      }

      .cls-17 {
        fill: #060606;
      }

      .cls-18 {
        fill: #040406;
      }

      .cls-19 {
        fill: #ffb28c;
      }

      .cls-20 {
        fill: #fab58e;
      }

      .cls-9 {
        stroke: #fff;
      }

      .cls-21 {
        fill: #f6b599;
      }

      .cls-22 {
        fill: #123066;
      }

      .cls-23 {
        fill: #3380f4;
      }

      .cls-24 {
        fill: #090000;
      }

      .cls-25 {
        fill: #000207;
      }

      .cls-26 {
        fill: #0f376b;
      }

      .cls-27 {
        fill: #327ff3;
      }

      .cls-28 {
        fill: #d8def0;
      }

      .cls-29 {
        fill: #e6ecf7;
      }

      .cls-30 {
        fill: #88bdff;
      }

      .cls-31 {
        fill: #ededed;
      }

      .cls-32 {
        fill: #c68c6f;
      }

      .cls-33 {
        fill: #eaeaea;
      }

      .cls-12 {
        stroke-width: 7px;
      }
    </style>
  </defs>
  <!-- Generator: Adobe Illustrator 28.6.0, SVG Export Plug-In . SVG Version: 1.2.0 Build 709)  -->
  <g>
    <g id="Layer_1">
      <g>
        <path class="cls-28" d="M1655.7,1024.8c-5.7,5.4-11.4,10.7-17.3,16.1H303.3c-2.4-1.9-6.1-4.9-11-8.9-8.2-6.9-19.6-16.9-32.8-29.9-64.8-63.7-173.9-199-172.8-387.9,1.5-259.7,210.7-486.8,429.3-514.1,205.9-25.6,410,127.2,508.4,242.9,6.2,7.3,11.9,14.4,17.2,21.2,24.8,31.9,40.2,58.2,56,79.2,13.5,18,27.2,32,47.2,42.3,5.8,3,12,5.6,19,8,9.4,3.1,18.5,5.2,27.4,6.4,111.2,14.7,195.8-111.1,371.8-110,88.4.5,212.8,33.2,267.4,116.7,76.8,117.5,16.1,336.4-174.8,518Z"/>
        <ellipse class="cls-29" cx="621.4" cy="390.5" rx="132.8" ry="135"/>
        <path class="cls-4" d="M519,337.9v703h-215.7c-2.4-1.9-6.1-4.9-11-8.9-8.2-6.9-19.6-16.9-32.8-29.9V337.9h259.4Z"/>
        <path class="cls-4" d="M1655.7,525.5v499.3c-5.7,5.4-11.4,10.7-17.3,16.1h-242.1v-515.4h259.4Z"/>
        <rect class="cls-6" x="292.4" y="417.1" width="68.3" height="152"/>
        <rect class="cls-6" x="404.3" y="417.1" width="68.3" height="152"/>
        <rect class="cls-6" x="292.4" y="613.7" width="68.3" height="152"/>
        <rect class="cls-6" x="404.3" y="613.7" width="68.3" height="152"/>
        <rect class="cls-6" x="292.4" y="810.3" width="68.3" height="152"/>
        <rect class="cls-6" x="404.3" y="810.3" width="68.3" height="152"/>
        <path class="cls-6" d="M360.6,1007v33.9h-57.3c-2.4-1.9-6.1-4.9-11-8.9v-25h68.3Z"/>
        <rect class="cls-6" x="404.3" y="1007" width="68.3" height="33.9"/>
        <path class="cls-4" d="M1191.3,500.1v540.8h-246.3c-4.1-3.8-8.5-8-13.1-12.6V364.2h109.9c24.8,31.9,40.2,58.2,56,79.2,13.5,18,27.2,32,47.2,42.3,5.8,3,12,5.6,19,8,9.4,3.1,18.5,5.2,27.4,6.4Z"/>
        <rect class="cls-6" x="964.7" y="443.4" width="68.3" height="152"/>
        <path class="cls-6" d="M1144.9,485.7v109.7h-68.3v-152h21.1c13.5,18,27.2,32,47.2,42.3Z"/>
        <rect class="cls-6" x="964.7" y="640" width="68.3" height="152"/>
        <rect class="cls-6" x="1076.6" y="640" width="68.3" height="152"/>
        <rect class="cls-6" x="964.7" y="836.6" width="68.3" height="152"/>
        <rect class="cls-6" x="1076.6" y="836.6" width="68.3" height="152"/>
        <rect class="cls-6" x="964.7" y="1033.2" width="68.3" height="7.6"/>
        <rect class="cls-6" x="1076.6" y="1033.2" width="68.3" height="7.6"/>
        <rect class="cls-4" x="519" y="390.5" width="235.2" height="650.4"/>
        <rect class="cls-6" x="543.9" y="426.3" width="44" height="597.6"/>
        <rect class="cls-6" x="670.9" y="426.3" width="44" height="597.6"/>
        <rect class="cls-6" x="1431.8" y="581.6" width="84" height="84"/>
        <rect class="cls-6" x="1535.2" y="581.6" width="84" height="84"/>
        <rect class="cls-6" x="1432.3" y="692.2" width="84" height="84"/>
        <rect class="cls-6" x="1535.7" y="692.2" width="84" height="84"/>
        <rect class="cls-6" x="1432.8" y="802.8" width="84" height="84"/>
        <rect class="cls-6" x="1536.3" y="802.8" width="84" height="84"/>
        <rect class="cls-6" x="1433.3" y="913.4" width="84" height="84"/>
        <rect class="cls-6" x="1536.8" y="913.4" width="84" height="84"/>
        <rect class="cls-6" x="1433.9" y="1024" width="84" height="16.9"/>
        <rect class="cls-6" x="1537.3" y="1024" width="84" height="16.9"/>
      </g>
      <g>
        <path class="cls-20" d="M514.1,1018.8c-40.2-.6-80.3-1.3-120.5-1.9,3-11.9,6-23.8,8.9-35.6.1-1.5.2-3,.3-4.5.5-6.3,1-12.6,1.5-18.9,15.5-.4,31.1-.8,46.6-1.2-1.8,7.2-3.5,14.4-5.3,21.6-.2.8-.4,1.5-.6,2.3,22.7,11.3,45.4,22.5,68,33.8.3,1.5.7,2.9,1,4.3Z"/>
        <path class="cls-17" d="M514.1,1018.8c-40.2-.6-80.3-1.3-120.5-1.9,3-11.9,6-23.8,8.9-35.6.1-1.5.2-3,.3-4.5,14.2.5,28.5,1,42.7,1.6-.2.8-.4,1.5-.6,2.3,22.7,11.3,45.4,22.5,68,33.8.3,1.5.7,2.9,1,4.3Z"/>
        <path class="cls-9" d="M445.3,995l17.4-8.7"/>
        <path class="cls-9" d="M456.4,1002.1l17.4-8.7"/>
      </g>
      <g>
        <ellipse class="cls-18" cx="1207.9" cy="912.4" rx="104.1" ry="107.5"/>
        <ellipse class="cls-22" cx="1183.6" cy="913.2" rx="85.5" ry="107.5"/>
        <g>
          <path class="cls-13" d="M1215.8,912.9c0,31-18.4,56.2-41.1,56.2s-5.4-.4-7.9-1c-18.9-5-33.2-27.8-33.2-55.1s18.4-56.2,41.1-56.2.7,0,1.1,0c22.2.8,40,25.6,40,56.2Z"/>
          <path class="cls-3" d="M1166.8,968.1c-18.9-5-33.2-27.8-33.2-55.1s18.4-56.2,41.1-56.2.7,0,1.1,0c-9.9,12-21.2,31-22.7,56.5-1.4,24.3,6.9,43.4,13.7,54.8Z"/>
        </g>
      </g>
      <ellipse class="cls-18" cx="1613.5" cy="905.7" rx="106.7" ry="111"/>
      <g>
        <ellipse class="cls-18" cx="622.1" cy="905.2" rx="86" ry="99.3"/>
        <ellipse class="cls-22" cx="602" cy="905.9" rx="70.6" ry="99.3"/>
        <g>
          <path class="cls-13" d="M628.6,905.7c0,28.7-15.2,51.9-33.9,51.9s-4.4-.3-6.5-1c-15.6-4.7-27.4-25.7-27.4-50.9s15.2-51.9,33.9-51.9.6,0,.9,0c18.3.7,33,23.7,33,51.9Z"/>
          <path class="cls-3" d="M588.1,956.6c-15.6-4.7-27.4-25.7-27.4-50.9s15.2-51.9,33.9-51.9.6,0,.9,0c-8.2,11.1-17.5,28.7-18.7,52.1-1.1,22.4,5.7,40.1,11.3,50.6Z"/>
        </g>
      </g>
      <ellipse class="cls-18" cx="994.8" cy="900.4" rx="106.7" ry="111"/>
      <path class="cls-15" d="M1832.5,914.7c1.2,9.8-2.9,19.4-10.7,25-10.4,7.5-22.2,4-23.5,3.6h-465.7c-1.1.5-12.5,5.1-23.5-1.5-9.4-5.7-11.4-15.5-11.8-17.1v-43.4c-.5-1.4-1.1-2.8-1.6-4.2-19.2-47.3-64.6-75.8-106.7-71.1-55.5,6.2-102.4,69.5-85.8,139.2-134-.2-268-.5-402-.7,11.9-71.2-37.3-129.2-84.4-132.6-48.9-3.5-107.9,50.7-101.8,126h-132.1v-214.5c76.4-12.1,132.7-32.5,170.5-49.1,107.4-47.5,161.1-71.2,168.5-75.6,2.7-1.6,13.1-7.5,28.1-11.2,0,0,7.7-1.7,15.8-2,17.4-.8,190.2-.7,425.4,0,21.7.4,48,2.8,77.1,9.7,48.7,11.5,86.4,31,111.8,47,5.1,2.6,10.1,5.2,15.2,7.8,40.7,21,81.5,42.1,122.2,63.2,80.7,17,161.4,34,242,51.1,9.4,1.1,26.2,4.5,41.4,16.9,10.3,8.3,16.8,18.2,21.2,28.7.5,1.1.9,2.1,1.3,3.2,3.7,9.4,5.9,19.1,8.1,28.3,1.3,5.6,2.7,12.9,3.5,21.5.4,4.4.7,9.2.8,14.3.2,11.1-.7,23.8-3.3,37.7Z"/>
      <g>
        <path class="cls-20" d="M610.9,1020.3c-40.2-.6-80.3-1.3-120.5-1.9,3-11.9,6-23.8,8.9-35.6.1-1.5.2-3,.3-4.5.5-6.3,1-12.6,1.5-18.9,15.5-.4,31.1-.8,46.6-1.2-1.8,7.2-3.5,14.4-5.3,21.6-.2.8-.4,1.5-.6,2.3,22.7,11.3,45.4,22.5,68,33.8.3,1.5.7,2.9,1,4.3Z"/>
        <path class="cls-17" d="M610.9,1020.3c-40.2-.6-80.3-1.3-120.5-1.9,3-11.9,6-23.8,8.9-35.6.1-1.5.2-3,.3-4.5,14.2.5,28.5,1,42.7,1.6-.2.8-.4,1.5-.6,2.3,22.7,11.3,45.4,22.5,68,33.8.3,1.5.7,2.9,1,4.3Z"/>
        <path class="cls-9" d="M542.1,996.6l17.4-8.7"/>
        <path class="cls-9" d="M553.2,1003.7l17.4-8.7"/>
      </g>
      <path class="cls-21" d="M604.8,374.6c12.3,16.5,24.7,33,37,49.5,20.1-12.2,40.2-24.3,60.3-36.5-1.9-2.3-5-6.8-5.7-12.9-.2-1.6-.3-3.7.5-8.3,1.7-9.8,3.5-20.5,11.1-24.5.7-.4,4.7-2.5,7.1-.9,3.6,2.3,1.9,11.1,1.7,11.9-.3,1.4-.7,2.6-1,3.4.7,1.9,1.5,4.9,1.4,8.5-.2,6.2-2.8,10.6-4.1,12.6,5.3,5.2,10.6,10.4,15.8,15.7,5.6-.7,11.1-1.5,16.7-2.2.5.8,1.2,2.5.7,4.3-.5,1.9-2.3,3-3.7,3.7-7.3,3.9-11.7,3.3-18.4,7-.4.2-2.1,1.2-4.3,2.7-4.5,3.3-7.2,6.7-7.8,7.4-3.6,4.3-24.5,25.3-59.4,59.4-1.8,1.5-5.2,4-10.2,5-9.3,1.8-16.6-3.2-18-4.2-18.9-21.4-37.7-42.9-56.6-64.3,12.3-12.4,24.6-24.8,36.9-37.1Z"/>
      <path class="cls-30" d="M455.1,516c40,1.9,79.6.7,119.6,2.6-8.5,147.2-16.5,297.5-25,444.7-21.1.9-42.2,1.7-63.3,2.6l16.3-248.7c-15.3,81.7-30.6,163.4-46,245.1-25.9-.2-51.7-.3-77.6-.5,25.3-148.6,50.6-297.2,75.9-445.8Z"/>
      <path class="cls-27" d="M613.3,369.3c-10.2,13.1-20.4,26.2-30.6,39.3-2,37.1-3.9,74.2-5.9,111.3-42.8,0-85.6-.2-128.4-.3-2.5-37-4.9-74-7.4-111.1-5,4.2-10,8.3-15.1,12.5-12.8-16.2-25.6-32.3-38.4-48.5.3-.5.6-1.1,1.1-1.8,16.8-26.8,49.6-50.8,87.6-59.1,17.6-3.9,36.4-4.4,55.2-.2,5.7,1.3,11,2.9,16.1,4.8,38.3,14.2,59.7,44,65.8,53Z"/>
      <path class="cls-21" d="M426.2,411.6c-10.3,4.8-21.8,12.1-31.5,23.7-1.1,1.4-2.2,2.7-3.2,4.1,2.1,2.2,5.6,6,9.5,11.2,4.4,5.8,12.5,17.8,21.4,33.7,1,1.7,5.3,9.5,12.6,12.6,1.5.7,3.1,1.1,4.8.9,3.3-.4,5.1-2.9,8.5-6.6,9-10,13.4-11.5,15-11.9,1.7-.5,4.4-1.2,6.1.2,2.3,1.8,2.2,6.7-.3,12.3,10.4,5.5,20.8,11,31.2,16.4.2.4,1.8,3,.8,6.1-.9,2.6-3.4,4.5-6.3,4.9.3.4,1.6,2.2,1.1,4.1-.6,2.4-3.8,4.4-7.7,3.7,1,1.7,1,3.8,0,5.4-1.3,1.9-3.8,2.6-6,1.7,0,.3.7,3-1.2,5.3-2.1,2.4-5.2,2-5.4,2-11.7-6.4-20.4-7.1-26.3-6.4-2.8.3-5.2.9-8.9.5-8.9-1-14.9-6.7-17.5-9.1-27.1-25.2-50.9-54.2-80.2-76.9-1.7-1.3-6.3-4.8-7.5-10.5-1.5-6.8,2.6-13.5,6.1-17.9,18-17.4,36.1-34.7,54.1-52.1,10.3,14.2,20.5,28.5,30.8,42.7Z"/>
      <path class="cls-19" d="M564.3,235.2c-.6,6.1-1.6,16.7-9.2,25.1-10.6,11.8-26.8,11.6-28.2,11.5-21.4-.7-44-22-43.9-47.7,0-28.5,27.9-43.7,43.9-47.8,5.4-1.4,20.4-5.2,28.7,2.5,2.1,1.9,3.1,3.9,5.4,20.7.2,1.9.5,3.9.8,6.2.4,3.3.9,7,1.4,11.2,1.3,11,1.6,13.8,1.2,18.3Z"/>
      <path class="cls-1" d="M492.3,256.5c-7.2-3.3-17.9-9.7-26.4-21.3-4.2-5.8-14.4-19.7-11.7-36.8.5-3.5,2.7-17,13.3-22,3.8-1.8,7.6-1.9,10.1-1.7-.7-4.4-.9-11,2.9-15.8,7.4-9.3,24.9-6.2,32.7-4.9,13.4,2.3,15.9,6.6,26.8,7.5,10.9.9,20.1-2.5,26.3-5.5.9,1.3,2.6,4,2.8,7.8.5,6.9-4.2,11.6-5,12.4,1.2,1.8,2.3,3.8,3.2,6.1,5.1,13.5-1.6,26.8-3.7,30.6-1.7-5.2-3.2-11.1-4.3-17.7-.7-4-1.1-7.9-1.4-11.4-3.6,2.6-8.1,5.4-13.5,7.5-18,7.2-34.7,3.9-42.3,1.9.4,4.4.5,9.7,0,15.6-.6,6.9-2,12.8-3.4,17.5l-6.3,30Z"/>
      <ellipse class="cls-19" cx="487.4" cy="232.4" rx="13.7" ry="12.7"/>
      <path class="cls-24" d="M514.9,210c2.9-1.3,7.1-3,12.3-4.4,5.9-1.6,9.6-1.9,9.7-3.1,0-1.2-3.7-3-7.1-3.1-8.2-.2-13.9,9.1-14.8,10.6Z"/>
      <path class="cls-24" d="M561.3,205.2c-.3,0-.6-.1-.9-.2-5.5-1-8.9-1.1-9.1-2.2-.2-1.1,3.2-3,6.3-3.4.9,0,1.7,0,2.5,0,.4,1.7.8,3.6,1.2,5.7Z"/>
      <circle class="cls-24" cx="531.7" cy="225.2" r="3.4"/>
      <path class="cls-24" d="M561,223.6c0,1.9-1.5,3.4-3.4,3.4s-3.4-1.5-3.4-3.4,1.5-3.4,3.4-3.4,3.4,1.5,3.4,3.4Z"/>
      <path class="cls-24" d="M547.9,227c1.6,3.4,3.3,6.8,4.9,10.1-2.2.8-4.4,1.5-6.6,2.3"/>
      <path class="cls-33" d="M531.7,240.7c1.5,1.2,4,2.9,7.5,4,4.7,1.4,8.6.8,10.6.4-.5.9-1.5,2.3-3.2,3.4-3.3,2.1-8.4,2.5-11.8-.5-3-2.6-3.1-6.4-3.1-7.2Z"/>
      <path class="cls-2" d="M547.6,322.4c-1.1,3.6-3.9,5.7-5.2,6.6-7.5,5.4-17.4,4-27.3,2.5-11.5-1.7-21.4-3.2-30.9-11.1-3.5-3-6.1-6.1-8-8.7,17.6-3.9,36.4-4.4,55.2-.2,5.7,1.3,11,2.9,16.1,4.8.9,3.7.2,6.1.2,6.1Z"/>
      <path class="cls-2" d="M532.2,280.8c0,4.3-.1,8.5-.2,12.8,0,8.3.2,16.5.2,24.8-13.9-1.9-27.9-3.9-41.8-5.8-.2-13.9.4-28.9,2.2-45,.7-5.8,1.4-11.5,2.3-16.9,12.5,5.1,24.9,10.2,37.4,15.3,0,2.1,0,4.3,0,6.5,0,2.8,0,5.6-.1,8.4Z"/>
      <path class="cls-32" d="M532.3,272.4c0,2.8,0,5.6-.1,8.4-5.9,0-13.5-.9-21.1-5.1-7.3-4-11.7-9.5-14-12.9,2.8,1.9,6,3.7,9.7,5.2,9.3,3.9,18.3,4.7,25.5,4.4Z"/>
      <path class="cls-11" d="M472.9,508c5.5,2.7,10.9,5.4,16.4,8"/>
      <path class="cls-11" d="M468.9,518.4c5.5,2.7,10.9,5.4,16.4,8"/>
      <path class="cls-11" d="M465.1,526.8c4.5,2.2,9,4.4,13.5,6.6"/>
      <path class="cls-11" d="M554.2,572.6c-8.7,5.4-17.5,10.9-26.2,16.3-12.1,49.6-24.3,99.2-36.4,148.8"/>
      <rect class="cls-23" x="193.8" y="711.8" width="204.1" height="293.4" rx="26.9" ry="26.9"/>
      <g>
        <circle class="cls-26" cx="251.8" cy="1016.2" r="19.6"/>
        <circle class="cls-25" cx="257.6" cy="1016.2" r="19.6"/>
      </g>
      <g>
        <circle class="cls-26" cx="340" cy="1016.2" r="19.6"/>
        <circle cx="346.1" cy="1016.2" r="19.6"/>
      </g>
      <rect class="cls-10" x="232.2" y="747.9" width="29.4" height="234.9" rx="12" ry="12"/>
      <rect class="cls-10" x="277.2" y="747.9" width="29.4" height="234.9" rx="12" ry="12"/>
      <rect class="cls-10" x="322.6" y="747.9" width="29.4" height="234.9" rx="12" ry="12"/>
      <path class="cls-12" d="M255.2,711.8c-1.8-4.3-2.8-9-2.8-13.9v-107.9c0-19.6,16-35.6,35.6-35.6h18c19.6,0,35.6,16,35.6,35.6v107.9c0,4.9-1,9.6-2.8,13.9"/>
      <path class="cls-7" d="M1818.8,812.8c-150.3,1.7-300.7,3.5-451,5.2-65.9-36.4-131.7-72.8-197.6-109.3,64.9-10.4,129.7-20.8,194.6-31.1,8.6-9.2,17.3-18.5,25.9-27.8,40.7,21,81.5,42.1,122.2,63.2,80.7,17,161.4,34,242,51.1,9.4,1.1,26.2,4.5,41.4,16.9,11.3,9.2,18,20.3,22.6,31.9Z"/>
      <path d="M1104.3,712.9c-1,3.6-4.4,5-4.8,5.1h-524.6c-3.1,1.5-6.4.4-7.5-1.6-1.2-2.3.2-6.3,4-7.6,33.9-18.8,67.8-37.6,101.7-56.4,22.6-12.5,45.3-25.1,67.9-37.6,2-1.1,4-2.2,6-3.3,5.6-1.7,11.6-3.3,18-4.8,11-2.5,21.3-3.9,30.6-4.8,35,.2,69.9.4,104.9.7,4.9.5,9.8.9,14.6,1.4,11.2,5.1,22.5,10.2,33.7,15.3,51,28.6,101.9,57.2,152.8,85.8,2.2,2,3.2,5,2.4,7.8Z"/>
      <path class="cls-14" d="M919.9,718h-133.1l-113.6-65.6c22.6-12.5,45.3-25.1,67.9-37.6l178.8,103.2Z"/>
      <path d="M1501.2,718.1c-39.2.2-78.5.3-117.7.5-41.6.2-83.2.3-124.7.5-24.1.1-48.2.2-72.3.3-61.4-32.9-122.7-65.7-184.1-98.6-5.1-1.6-8.1-6.5-7.4-11,.8-5.4,7-9.5,13.3-7.7,15.9,0,31.9-.1,47.8-.2,41.6-.1,83.2-.3,124.9-.4,15.6,0,31.3-.1,46.9-.2,4.8-.5,11.8-.9,20.2-.3,0,0,13.9,1.1,28.1,6.1,17.4,6.1,105.8,49,225.2,110.8Z"/>
      <path class="cls-16" d="M1383.4,718.5c-41.6.2-83.2.3-124.7.5l-202.8-117.1c41.6-.1,83.2-.3,124.9-.4l202.6,117Z"/>
      <path class="cls-8" d="M1511.8,821.8c71.3-.3,142.6-.7,214-1"/>
      <rect class="cls-31" x="1370.9" y="809.6" width="145.7" height="53.1" rx="12" ry="12"/>
      <path class="cls-31" d="M1835,862.7h-102.8c-6.6,0-12-5.4-12-12v-29.1c0-6.6,5.4-12,12-12h89.9c.5,1.1.9,2.1,1.3,3.2,3.7,9.4,5.9,19.1,8.1,28.3,1.3,5.6,2.7,12.9,3.5,21.5Z"/>
      <path class="cls-8" d="M1534.5,840.2c56.3-.3,112.7-.5,169-.8"/>
      <path class="cls-8" d="M1534.3,860.3c56.3-.3,112.7-.5,169-.8"/>
      <path class="cls-5" d="M1832.5,914.7c1.2,9.8-2.9,19.4-10.7,25-10.4,7.5-22.2,4-23.5,3.6h-465.7c-1.1.5-12.5,5.1-23.5-1.5-9.4-5.7-11.4-15.5-11.8-17.1v-43.4c-.5-1.4-1.1-2.8-1.6-4.2h540.1c.2,11.1-.7,23.8-3.3,37.7Z"/>
      <rect class="cls-31" x="1589.6" y="871.9" width="88.2" height="22.8"/>
      <rect class="cls-31" x="605" y="735.5" width="47" height="14.8" rx="7.4" ry="7.4"/>
      <rect class="cls-31" x="847.8" y="735.5" width="47" height="14.8" rx="7.4" ry="7.4"/>
      <path class="cls-8" d="M570.8,715c-.1,21-.2,42-.3,63,15.8-2.5,44.5-4.4,74.9,8.9,73.1,32,83.9,121,84.4,126h320.3c.8-41.9,4.5-76.4,8.2-101.8,4-27.4,8.2-45.7,18.7-65.7,7.9-14.9,16.7-25.9,23.1-33"/>
      <g>
        <rect x="728.8" y="308.7" width="44" height="87.1" rx="12" ry="12" transform="translate(385.9 -392.5) rotate(38.8)"/>
        <rect class="cls-13" x="726" y="307.1" width="41.2" height="87.1" rx="9" ry="9" transform="translate(384 -390.2) rotate(38.8)"/>
      </g>
      <rect x="214.7" y="1018.8" width="1459.4" height="23" rx="11.5" ry="11.5"/>
    </g>
  </g>
</svg>