<?xml version="1.0" encoding="UTF-8"?>
<svg xmlns="http://www.w3.org/2000/svg" version="1.1" xmlns:xlink="http://www.w3.org/1999/xlink" viewBox="0 0 1080 1080">
  <defs>
    <style>
      .cls-1 {
        fill: #fff;
      }

      .cls-2 {
        fill: #29aae3;
      }

      .cls-3 {
        fill: #fcb597;
      }

      .cls-4 {
        fill: #f4a483;
      }

      .cls-5 {
        fill: #d27151;
      }

      .cls-6 {
        fill: #5b6faa;
      }

      .cls-7 {
        fill: #3e5193;
      }

      .cls-8 {
        fill: #2d3d71;
      }

      .cls-9 {
        fill: #4494d1;
      }

      .cls-10 {
        fill: #de8462;
      }

      .cls-11 {
        fill: #0d5b9b;
      }

      .cls-12 {
        fill: #206cb8;
      }

      .cls-13 {
        fill: #ffd5c5;
      }
    </style>
  </defs>
  <!-- Generator: Adobe Illustrator 28.6.0, SVG Export Plug-In . SVG Version: 1.2.0 Build 709)  -->
  <g>
    <g id="Layer_1">
      <image width="2000" height="2000" transform="translate(32 44.6) scale(.5)" xlink:href="rb_2147796340.png"/>
      <g>
        <path class="cls-2" d="M1019.1,535.2c0,24.8-1.9,49.1-5.6,72.8-35,224.3-229,396-463.2,396S124.1,834,87.7,611.2c-4-24.8-6.1-50.2-6.1-76.1s.2-15.5.6-23.2c1.8-36.5,7.7-71.9,17.4-105.8,56-196.2,236.6-339.9,450.8-339.9s403,150.3,454.4,353.3h0c7.6,30,12.3,61.2,13.8,93.2.4,7.4.5,14.8.5,22.2Z"/>
        <ellipse class="cls-4" cx="599.5" cy="574.6" rx="40.6" ry="113.6" transform="translate(-160.4 909.4) rotate(-67.6)"/>
        <path class="cls-10" d="M692.2,660.3c0,3.1-2,5.2-3,6.4-1.4,1.5-2.9,2.3-3.8,2.8-6.6,3.3-14.3,3.8-14.3,3.8-3.7.2-8.9.3-15.4-.6-2-.3-4.1-.7-6.3-1.2,0,0-.2.2-.2.3-3,3.5-13.1,14.1-29.5,16.1-9.1,1.1-16.6-.9-20.8-2.4,0,0,0,0,0,0-1,.3-2.2.6-3.3.9-8,1.9-19,3.7-32,3-2.3-.1-11.2-.6-22.9-3.6-9.1-2.3-17.6-5.4-40.8-17.3-19.7-10-23.2-12.7-38.1-20.2-10.2-5.2-19.2-9.3-26.5-12.5-3.1-1.4-5.9-2.5-8.3-3.5-6.9-2.5-15.2-4.9-24.7-6.5-11.7-2.1-22.1-2.6-30.7-2.4.4-3.3.8-6.6,1.3-9.9,5.2-40.6,10.4-81.1,15.6-121.7,13.8,1.2,27.6,2.5,41.4,3.7,38.7-17.8,68.3-30.1,80.3-34.1,3.5-1.2,8.6-2.7,15.3-2.8,6.6-.2,11.9,1.1,18.2,3,7.9,2.3,18.6,6,31.2,11.6,3,20.1,6,40.2,8.9,60.3-.5-1.6-5.9-18.3-23-23.9-13.5-4.4-24.9,1.1-27.2,2.2,1.3,6.8,3.9,16.5,9.6,27,9.2,16.9,21.9,27,38.4,38.2,0,0,86.3,58.7,107.2,77.1,2.4,2.1,3.7,4.2,3.7,6.4Z"/>
        <path class="cls-5" d="M440.4,624.8c-1.8,3.6-3.6,7.3-5.4,11-3.1-1.4-5.9-2.5-8.3-3.5-6.9-2.5-15.2-4.9-24.7-6.5-11.7-2.1-22.1-2.6-30.7-2.4.4-3.3.8-6.6,1.3-9.9,7.1-1.1,15.9-1.7,25.9-.8,18.6,1.6,33,7.6,41.9,12.3Z"/>
        <path class="cls-3" d="M479.8,508.1c11.2-6.3,86.9-30.8,91.4-33.7,0,0,.2-.2.5-.3,1-.6,3.3-1.9,6.4-2.4,1.5-.3,2.6-.3,3.1-.3,12.8-.3,40.5,2.9,63.2.2,4.2-.5,8.4-1.2,14.3-.1,9.4,1.7,15.7,6.8,17.4,8.1,7.5,5.8,24.1,13.8,62.9,24.6,7,38.6,14,77.2,21,115.8-11.3,6.8-24.9,14-40.9,20.5-14.8,6-28.6,10.2-40.7,13.1-2-1-20.2-10.3-23.5-30.5-1.9-11.4,2-20.5,3.8-24.2-8.5-.4-12-3.9-13.1-5.1-6.6-7.6-4.1-24.2,9.6-38.6-2.2,2.3-20.9,21-48.3,17.7-21.5-2.5-40-17.6-47.7-38.7-6,2.2-14.5,4.8-25,6.2-7.5,1-16.4,2.2-26.2.3-16.7-3.2-28.2-13.7-34.4-20.5-.2-2-.2-4.6,1.2-7.1,1.5-2.9,4-4.3,5-4.9Z"/>
        <path class="cls-3" d="M418.6,640.7c-.8-4.5,0-8.1.3-9.7,1-4.3,2.8-7.4,4.8-10.5,6-9.3,12-16,14.8-19.1,8.8-9.6,12.4-12,15.2-13.4,5-2.6,8.3-3,10-3,1.6,0,7-.1,11.9,3.7,1.2.9,5,3.9,6.2,9.2.7,3.1.3,5.9-1.1,10.4-2.8,8.8-6.8,15.1-8.4,17.5-9,14-13.6,21.1-20.6,25.3-6,3.6-10.9,4.4-13.4,4.7-3.6.4-8.1.8-12.3-1.8-5.9-3.6-7.1-10.7-7.6-13.3Z"/>
        <path class="cls-5" d="M598.6,685.5c-1,.3-2.2.6-3.3.9-45.5-27.4-67.6-40.4-73.1-43-1.7-.8-6.1-2.7-10.9-6.7-3.3-2.7-3.8-4-6.1-5.5-2.7-1.8-7.2-3.5-14.7-2.5,2.2-.9,5.6-1.9,9.7-1.9,6.9,0,12,3.1,18.5,7.2,11.9,7.4,17.8,11.2,20.3,12.9,6,4.2,18.7,13.2,32.1,21.8,9.9,6.3,19.2,11.8,26.1,15.8.5.3,1,.6,1.5.9Z"/>
        <path class="cls-3" d="M458.6,666.3c-1-4.6-.4-8.3,0-10,.8-4.5,2.6-7.8,4.5-11,5.8-9.8,11.7-17,14.5-20.3,8.6-10.3,12.3-12.9,15.1-14.5,5.1-2.9,8.5-3.4,10.2-3.5,1.7-.1,7.2-.4,12.5,3.3,1.3.9,5.3,3.8,6.8,9.2.9,3.1.6,6-.7,10.8-2.5,9.2-6.4,15.9-7.9,18.4-8.7,14.8-13.2,22.3-20.2,27-6,4-11.1,5-13.6,5.4-3.7.5-8.3,1.2-12.7-1.3-6.2-3.5-7.8-10.7-8.4-13.4Z"/>
        <path class="cls-3" d="M502.6,694.4c-1.7-4.4-1.6-8.2-1.6-9.9.1-4.6,1.3-8.1,2.8-11.6,4.3-10.6,9-18.6,11.2-22.3,7-11.5,10.2-14.6,12.7-16.6,4.6-3.7,7.8-4.7,9.6-5.1,1.6-.4,7.1-1.5,12.8,1.3,1.4.7,5.9,3,8.2,8,1.3,2.9,1.5,5.9.9,10.7-1.1,9.5-3.9,16.7-5,19.4-6.3,16-9.6,24.1-15.9,29.8-5.3,4.9-10.2,6.7-12.6,7.4-3.6,1.1-8,2.4-12.8.6-6.7-2.5-9.4-9.4-10.3-11.9Z"/>
        <path class="cls-3" d="M551.9,700.4c-1.6-4.2-1.6-7.9-1.5-9.5.1-4.4,1.3-7.8,2.7-11.2,4.1-10.2,8.7-17.9,10.8-21.5,6.7-11.1,9.8-14.1,12.2-16,4.4-3.6,7.6-4.5,9.2-4.9,1.6-.4,6.8-1.4,12.4,1.3,1.3.7,5.6,2.9,7.9,7.7,1.3,2.8,1.5,5.7.9,10.3-1.1,9.1-3.7,16-4.8,18.7-6.1,15.4-9.3,23.2-15.3,28.7-5.2,4.7-9.8,6.4-12.2,7.1-3.5,1.1-7.7,2.3-12.3.6-6.4-2.4-9-9.1-10-11.5Z"/>
        <path class="cls-13" d="M448.7,601.4c0-2.2,2.9-5.3,6.9-7.4,3.1-1.6,9.1-4.8,14.6-1.8,4.2,2.3,5.4,6.9,5.7,7.9,1.4,5.8-1.5,12.3-7.3,16.7-.4.1-1,.2-1.7.1-1.4-.2-2.4-1.2-2.7-1.6-2.5-2.6-9.8-8.2-12.9-9.9-.4-.2-1.5-.8-2.1-2,0,0-.5-.9-.5-2Z"/>
        <path class="cls-13" d="M489,622.2c-.1-2.2,2.6-5.5,6.5-7.8,3-1.8,8.8-5.3,14.5-2.6,4.3,2.1,5.8,6.6,6.1,7.5,1.7,5.7-.8,12.4-6.3,17.1-.4.1-1,.3-1.7.2-1.5-.1-2.5-1.1-2.8-1.4-2.6-2.5-10.2-7.7-13.4-9.1-.4-.2-1.5-.7-2.2-1.8,0,0-.5-.9-.6-2Z"/>
        <path class="cls-13" d="M528.3,646c-.4-2.1,1.7-5.6,5.2-8.4,2.6-2.1,7.8-6.3,13.5-4.5,4.5,1.4,6.5,5.6,6.9,6.4,2.4,5.3.9,12-3.7,17.3-.4.2-.9.4-1.6.5-1.4,0-2.5-.7-2.9-1-2.9-2-10.9-6-14.2-6.9-.4-.1-1.5-.4-2.4-1.5,0,0-.6-.8-.8-1.9Z"/>
        <path class="cls-13" d="M574.9,653.6c-.2-2,2.1-5.2,5.7-7.5,2.7-1.8,8-5.3,13.3-3.1,4.1,1.8,5.7,5.9,6,6.8,1.8,5.2-.2,11.6-5.1,16.1-.4.2-.9.3-1.6.3-1.4,0-2.3-.9-2.7-1.2-2.6-2.2-9.8-6.7-12.9-7.9-.4-.1-1.4-.6-2.1-1.6,0,0-.5-.8-.6-1.8Z"/>
        <path class="cls-5" d="M655.6,672.6c-2-.3-4.1-.7-6.3-1.2,0,0-.1.2-.2.3-48.7-29.4-72.1-43.1-77.8-45.8-1.7-.8-6.1-2.7-10.9-6.7-3.3-2.7-3.8-4-6.1-5.5-2.7-1.8-7.2-3.5-14.7-2.5,2.2-.9,5.6-1.9,9.7-1.9,6.9,0,12,3.1,18.5,7.2,11.9,7.4,17.8,11.2,20.3,12.9,6,4.2,18.7,13.2,32.1,21.8,9.9,6.3,19.2,11.8,26.1,15.8,3.4,2,6.6,3.8,9.3,5.4Z"/>
        <path class="cls-10" d="M648.6,624.1c5.7,2.8,10.2,5.6,13.6,7.8,6.6,4.3,11.3,8.3,15.6,11.9,4.3,3.6,7.7,6.8,10.2,9.2-1.6,1-4.2,2.4-7.6,3-13.3,2.5-29.5-7.9-32.2-21.5-.5-2.4-.7-6,.5-10.5Z"/>
        <rect class="cls-1" x="739.1" y="472.4" width="26.5" height="161.3" transform="translate(-89 147.9) rotate(-10.6)"/>
        <path class="cls-8" d="M1017.8,529.2c0,24.8-1.9,49.1-5.6,72.8l-236,44.2-2.8-14.9-14.2-76-15.5-82.6-1.9-9.9,261.7-49c7.6,30,12.3,61.2,13.8,93.2.4,7.4.5,14.8.5,22.2Z"/>
        <path class="cls-7" d="M1017.3,506.9l-251.3,47.1-6.9,1.3-15.5-82.6-1.9-9.9,261.7-49c7.6,30,12.3,61.2,13.8,93.2Z"/>
        <circle class="cls-6" cx="801.3" cy="602.6" r="12.9"/>
        <circle class="cls-6" cx="837" cy="594.8" r="12.9"/>
        <circle class="cls-6" cx="872.8" cy="587.1" r="12.9"/>
        <rect class="cls-1" x="365.8" y="468.2" width="14.9" height="168.4" transform="translate(76.1 -44.4) rotate(7.6)"/>
        <path class="cls-11" d="M391.5,456l-2.6,13.5-17.5,91.8-14.1,74-4,20.8-267-50.8c-4-24.8-6.1-50.2-6.1-76.1s.2-15.5.6-23.2c1.8-36.5,7.7-71.9,17.4-105.8l293.3,55.8Z"/>
        <path class="cls-12" d="M391.5,456l-2.6,13.5-17.5,91.8-6.8-1.3-283.8-54c1.8-36.5,7.7-71.9,17.4-105.8l293.3,55.8Z"/>
        <circle class="cls-9" cx="263.4" cy="555.5" r="13.2"/>
        <circle class="cls-9" cx="250.4" cy="600.5" r="13.2"/>
        <circle class="cls-9" cx="287.6" cy="605.2" r="13.2"/>
        <circle class="cls-9" cx="324.8" cy="610" r="13.2"/>
        <path class="cls-1" d="M455.7,395.7l.7,2.9c1.1,4.7,4.8,8.4,9.5,9.5l2.9.7-2.9.7c-4.7,1.1-8.4,4.8-9.5,9.5l-.7,2.9-.7-2.9c-1.1-4.7-4.8-8.4-9.5-9.5l-2.9-.7,2.9-.7c4.7-1.1,8.4-4.8,9.5-9.5l.7-2.9Z"/>
        <path class="cls-1" d="M378.4,699.6l.7,2.9c1.1,4.7,4.8,8.4,9.5,9.5l2.9.7-2.9.7c-4.7,1.1-8.4,4.8-9.5,9.5l-.7,2.9-.7-2.9c-1.1-4.7-4.8-8.4-9.5-9.5l-2.9-.7,2.9-.7c4.7-1.1,8.4-4.8,9.5-9.5l.7-2.9Z"/>
        <path class="cls-1" d="M663.1,902.9l3.6,15.4c1.1,4.7,4.8,8.4,9.5,9.5l15.4,3.6-15.4,3.6c-4.7,1.1-8.4,4.8-9.5,9.5l-3.6,15.4-3.6-15.4c-1.1-4.7-4.8-8.4-9.5-9.5l-15.4-3.6,15.4-3.6c4.7-1.1,8.4-4.8,9.5-9.5l3.6-15.4Z"/>
        <path class="cls-1" d="M780.9,707.2l3.6,15.4c1.1,4.7,4.8,8.4,9.5,9.5l15.4,3.6-15.4,3.6c-4.7,1.1-8.4,4.8-9.5,9.5l-3.6,15.4-3.6-15.4c-1.1-4.7-4.8-8.4-9.5-9.5l-15.4-3.6,15.4-3.6c4.7-1.1,8.4-4.8,9.5-9.5l3.6-15.4Z"/>
        <path class="cls-1" d="M801.5,692.6v.6c1.2,4.7,4.9,8.4,9.7,9.5h.6c0,.1-.6.3-.6.3-4.7,1.1-8.4,4.8-9.5,9.5v.6c-.1,0-.3-.6-.3-.6-1.1-4.7-4.8-8.4-9.5-9.5h-.6c0-.1.6-.3.6-.3,4.7-1.1,8.4-4.8,9.5-9.5v-.6Z"/>
        <path class="cls-1" d="M345.5,344.9l2.1,9.1c1.1,4.7,4.8,8.4,9.5,9.5l9.1,2.1-9.1,2.1c-4.7,1.1-8.4,4.8-9.5,9.5l-2.1,9.1-2.1-9.1c-1.1-4.7-4.8-8.4-9.5-9.5l-9.1-2.1,9.1-2.1c4.7-1.1,8.4-4.8,9.5-9.5l2.1-9.1Z"/>
        <path class="cls-1" d="M748.5,422l-.9,4c-1.1,4.7-4.8,8.4-9.5,9.5l-4,.9,4,.9c4.7,1.1,8.4,4.8,9.5,9.5l.9,4,.9-4c1.1-4.7,4.8-8.4,9.5-9.5l4-.9-4-.9c-4.7-1.1-8.4-4.8-9.5-9.5l-.9-4Z"/>
        <path class="cls-1" d="M868.5,328.6l-2.5,10.7c-1.1,4.7-4.8,8.4-9.5,9.5l-10.7,2.5,10.7,2.5c4.7,1.1,8.4,4.8,9.5,9.5l2.5,10.7,2.5-10.7c1.1-4.7,4.8-8.4,9.5-9.5l10.7-2.5-10.7-2.5c-4.7-1.1-8.4-4.8-9.5-9.5l-2.5-10.7Z"/>
        <path class="cls-1" d="M587.7,197.7l4.5,19.5c1.1,4.7,4.8,8.4,9.5,9.5l19.5,4.5-19.5,4.5c-4.7,1.1-8.4,4.8-9.5,9.5l-4.5,19.5-4.5-19.5c-1.1-4.7-4.8-8.4-9.5-9.5l-19.5-4.5,19.5-4.5c4.7-1.1,8.4-4.8,9.5-9.5l4.5-19.5Z"/>
      </g>
    </g>
  </g>
</svg>