<?xml version="1.0" encoding="UTF-8"?>
<svg xmlns="http://www.w3.org/2000/svg" version="1.1" xmlns:xlink="http://www.w3.org/1999/xlink" viewBox="0 0 1080 1080">
  <defs>
    <style>
      .cls-1 {
        fill: #ef3f2b;
      }

      .cls-2 {
        fill: #f47536;
      }

      .cls-3, .cls-4 {
        fill: #263238;
      }

      .cls-5 {
        fill: #fba919;
      }

      .cls-6, .cls-7 {
        stroke-width: 2px;
      }

      .cls-6, .cls-7, .cls-8, .cls-9 {
        fill: none;
        stroke-linecap: round;
        stroke-miterlimit: 10;
      }

      .cls-6, .cls-8, .cls-9 {
        stroke: #000;
      }

      .cls-10 {
        fill: #2b479d;
      }

      .cls-11 {
        fill: #c58e7e;
      }

      .cls-7 {
        stroke: #263238;
      }

      .cls-12 {
        fill: #f17941;
      }

      .cls-13 {
        fill: #fabba4;
      }

      .cls-14 {
        fill: #4178bd;
      }

      .cls-15 {
        fill: #5b78bb;
      }

      .cls-8 {
        stroke-width: .8px;
      }

      .cls-16 {
        fill: #fab8a0;
      }

      .cls-4 {
        opacity: .4;
      }

      .cls-17 {
        fill: #fab99d;
      }

      .cls-18 {
        fill: #fafdff;
      }

      .cls-19 {
        fill: #4078bc;
      }

      .cls-20 {
        fill: #98c8ec;
      }

      .cls-21 {
        fill: #fab9a3;
      }
    </style>
  </defs>
  <!-- Generator: Adobe Illustrator 28.6.0, SVG Export Plug-In . SVG Version: 1.2.0 Build 709)  -->
  <g>
    <g id="Layer_1">
      <image width="623" height="562" transform="translate(29 70.2) scale(1.6)" xlink:href="why raido illustration-1.png"/>
      <g>
        <path class="cls-2" d="M663.5,602.7h-207.1v-35.1c0-46.5,5.2-80.8,15.7-103,10.5-22.1,29.5-39.3,57.1-51.6l38.1-16.7c28.8-12.7,43.1-30.5,43.1-53.6s-4.7-24.7-14-34c-9.3-9.3-20.8-14-34.2-14-36.7,0-55,25.3-55,76h-192.5c0-67.7,15.6-123,46.9-165.8,23.1-31.6,53-56.7,89.9-75.3,36.8-18.6,75-27.9,114.5-27.9,70,0,128.9,23.2,176.7,69.5s71.8,103.7,71.8,172.1-34.3,143.8-102.9,178c-22.4,11.2-36,20.8-40.8,29s-7.3,25.7-7.3,52.4Z"/>
        <path class="cls-5" d="M626.9,588h-207.1v-35.1c0-46.5,5.2-80.8,15.7-103,10.5-22.1,29.5-39.3,57.1-51.6l38.1-16.7c28.8-12.7,43.1-30.5,43.1-53.6s-4.7-24.7-14-34c-9.3-9.3-20.8-14-34.2-14-36.7,0-55,25.3-55,76h-192.5c0-67.7,15.6-123,46.9-165.8,23.1-31.6,53-56.7,89.9-75.3,36.8-18.6,75-27.9,114.5-27.9,70,0,128.9,23.2,176.7,69.5s71.8,103.7,71.8,172.1-34.3,143.8-102.9,178c-22.4,11.2-36,20.8-40.8,29s-7.3,25.7-7.3,52.4Z"/>
      </g>
      <path class="cls-3" d="M508.9,459.9c-6.2,5.2-15.2,4.4-19.7-1-3.7-4.4-3.9-11.3-.3-16.6-8.8,1.7-13.2-1.6-14-2.3-7-5.7-7.8-20.7,2.3-34.7-7.1-5.6-8.2-11.1-8.4-13-1.5-11.3,10.1-25.1,29.9-30.1-.7-2.6-2.7-11.1,1.8-19.1,5.5-10,18.6-15.3,32.2-12.3,2.8-2.3,13-10.2,28.1-10,11.6.2,19.9,5.2,23.2,7.4,2-.3,9.9-1.2,17.6,3.8,6.4,4.2,8.9,10.1,9.7,12.3,9.8-4.8,21.6-1.9,27.6,6.6,5.4,7.7,5.1,18.4-1,26,14.2-.4,26.4,8.7,29.6,20.9,3.8,14.6-6.1,31.3-23,35.2,1.9,3.4,4.7,10,2.3,15.8-3.7,9.2-19.5,14.8-37.5,8.4-2.5,2.8-6.5,6.3-12,7.5-6.3,1.4-9.8-1.2-20.3-3.4-8.7-1.8-15.4-3.3-23-1.7-11,2.3-12.4,8.6-21.1,9.8-5.1.7-13.1-.3-24-9.7Z"/>
      <path class="cls-3" d="M554.2,330.6c-5.3-5.2-7.2-13.3-4.3-20.3,3.4-8.2,12.5-12.9,21.5-10.9.8-2.4,3.1-8.1,8.9-11.6,9-5.5,23.7-4,28.8,5.4,4.5,8.3-1,18-1.5,18.9,2.6.2,6.7,1.1,10.4,4.1,7.3,6,9.5,17.9,4.4,27.1-2.1,3.9-5.4,6.9-9.3,8.8"/>
      <path class="cls-21" d="M589.8,369c-.3,19.5-.6,38.9-.9,58.4-5.1,5.6-16.5,16.1-33.9,19.9-8.2,1.8-21,4.6-32.7-2.9-9.4-6.1-13-15.6-14.3-19.6.7-10.6,1.3-21.1,2-31.7.3-4,.5-7.9.8-11.9.4-6.7.9-13.4,1.3-20.1,4.6.9,9.3,1.7,14,2.5,22.6,3.6,43.9,5.2,63.6,5.3Z"/>
      <path class="cls-7" d="M555,377c.3-.5,2.8-5.1,8.2-5.9,4.2-.6,8.4,1.3,10.9,4.9"/>
      <g>
        <path class="cls-18" d="M532.9,391.7c-.7,3.1-4.5,5.1-9.5,5.3-1.8,0-3.7,0-5.6-.5-3-.7-5.6-1.8-7.6-3.2.3-4,.5-7.9.8-11.9,2.8-.9,6.4-1.1,10.2-.2,1.7.4,3.3.9,4.8,1.6,4.8,2.2,7.7,5.8,7,9Z"/>
        <path d="M532.9,391.7c-.7,3.1-4.5,5.1-9.5,5.3-5.5-2.2-9.1-6.4-8.1-9.9.9-3.2,5.3-4.9,10.6-4.4,4.8,2.2,7.7,5.8,7,9Z"/>
      </g>
      <path class="cls-7" d="M514.5,377c.3-.4,3.1-3.7,7.6-3.5,3.5.1,6.6,2.4,8.1,5.7"/>
      <g>
        <path class="cls-18" d="M577.1,391c0,4-6.8,7.2-15.2,7.2h0c-8.4,0-15.2-3.2-15.2-7.2s6.8-7.2,15.2-7.2,1.8,0,2.7.1c7.1.6,12.5,3.5,12.5,7.1Z"/>
        <path d="M577.1,391c0,4-6.8,7.2-15.2,7.2-1.8-1.7-2.9-3.8-2.9-6.2,0-3.4,2.2-6.4,5.5-8.1,7.1.6,12.5,3.5,12.5,7.1Z"/>
      </g>
      <path class="cls-6" d="M536.4,396.9c-4.4.6-7.2,4.5-6.7,8.1.4,2.8,2.7,5.2,5.8,5.9"/>
      <path class="cls-6" d="M529.9,416.6c1.4,0,5,0,8.7,2.3,2.6,1.6,4,3.7,4.7,4.9"/>
      <path class="cls-16" d="M524.3,437.1c-.3,14.7-.6,29.4-.9,44.1,20.5,0,40.9.1,61.4.2.7-19.7,1.3-39.4,2-59.1-20.8,4.9-41.6,9.9-62.4,14.8Z"/>
      <ellipse class="cls-16" cx="599.3" cy="409" rx="16" ry="14.8"/>
      <g>
        <path class="cls-5" d="M437,907.2c-3.2,12.9-6.4,25.9-9.6,38.8,0,0,0,.1,0,.1-1.9,19.4-3.7,38.8-5.6,58.2-.5,4.7-.9,9.4-1.4,14.2-2.9-3-7.2-6.4-12.8-6.9-7.4-.6-9.9,4.5-17,4.3-8.9-.3-9.3-8.6-19.1-10.6-10-2.1-13,5.8-24.7,4.4-9.7-1.2-9.5-6.8-19.3-7.8-10.8-1.1-13.6,5.6-22.9,3.4-6.9-1.6-7.4-5.7-15.4-8.5-7-2.5-13.6-1.9-18.1-1.1-.3-1-1.8-6.6-.5-13.3.6-2.9,1.8-6.1,3.9-9.2,5.4-7.9,13.5-10.1,15.5-10.6,24.8-9.2,49.6-18.4,74.5-27.6.6-.2,1.1-.4,1.7-.6,4.8-11.1,9.6-22.2,14.4-33.3,18.8,2,37.6,4,56.4,5.9Z"/>
        <path class="cls-10" d="M427.4,946.2c-1.9,19.4-3.7,38.8-5.6,58.2-.5,4.7-.9,9.4-1.4,14.2-2.9-3-7.2-6.4-12.8-6.9-7.4-.6-9.9,4.5-17,4.3-8.9-.3-9.3-8.6-19.1-10.6-10-2.1-13,5.8-24.7,4.4-9.7-1.2-9.5-6.8-19.3-7.8-10.8-1.1-13.6,5.6-22.9,3.4-6.9-1.6-7.4-5.7-15.4-8.5-7-2.5-13.6-1.9-18.1-1.1-.3-1-1.8-6.6-.5-13.3.6-2.9,1.8-6.1,3.9-9.2,5.4-7.9,13.5-10.1,15.5-10.6,24.8-9.2,49.6-18.4,74.5-27.6,8,5,15,10.7,29.5,13,12.7,2,24.3.4,33.3-2.1Z"/>
        <path class="cls-15" d="M421.8,1004.4c-.5,4.7-.9,9.4-1.4,14.2-2.9-3-7.2-6.4-12.8-6.9-7.4-.6-9.9,4.5-17,4.3-8.9-.3-9.3-8.6-19.1-10.6-10-2.1-13,5.8-24.7,4.4-9.7-1.2-9.5-6.8-19.3-7.8-10.8-1.1-13.6,5.6-22.9,3.4-6.9-1.6-7.4-5.7-15.4-8.5-7-2.5-13.6-1.9-18.1-1.1-.3-1-1.8-6.6-.5-13.3,10.1-1.3,16.7.8,21,3.2,7.4,4.1,8,9,14.4,10.4,8.7,1.9,11.7-6.1,21.7-5.3,9.8.7,10.9,8.7,20.7,9.1,9.1.4,10.4-6.4,19-6.1,10.9.4,12.3,11.2,23.9,12.4,8.6.9,11-4.7,20.7-4.2,3.5.2,6.7,1.1,9.5,2.3Z"/>
      </g>
      <g>
        <circle class="cls-12" cx="562" cy="882.9" r="88.5"/>
        <circle class="cls-5" cx="538.6" cy="879.9" r="88.5"/>
      </g>
      <path class="cls-1" d="M461.8,536.7c7.8-14.5,15.7-28.9,23.5-43.4,1.6-2.2,4.2-5.3,8.2-8.2,4.1-2.9,8.1-4.4,10.7-5.1,16.7-1.8,35.1-3,55.1-3.1,17,0,32.9.7,47.5,2,3.4,0,11,.6,18.9,5.4,6.7,4.1,10.5,9.4,12.3,12.3,8.1,18.7,16.2,37.4,24.3,56.2-15.1,3.5-30.1,7-45.2,10.5-2.6,14.6-4.4,32.6-3.6,53.1.5,12.7,2,24.1,3.8,34.2-20.9,0-44.1-1.2-69.2-4.1-24.2-2.8-46.4-6.8-66.1-11.2,5.1-25.4,10.2-50.9,15.3-76.3-11.8-7.4-23.7-14.8-35.5-22.2Z"/>
      <g>
        <path class="cls-5" d="M328.1,857c-7.9,10.7-15.8,21.5-23.8,32.2,0,0,0,0,0,.1-9.1,17.2-18.3,34.4-27.5,51.6-2.2,4.2-4.5,8.4-6.7,12.6-1.5-3.8-4.2-8.7-9.2-11.2-6.6-3.4-10.9.4-17.4-2.6-8.1-3.7-5.3-11.5-13.5-17.1-8.4-5.8-14.2.4-24.5-5.4-8.5-4.8-6.2-9.9-14.8-14.6-9.5-5.1-14.7,0-22.5-5.6-5.7-4.1-4.7-8.1-11-13.8-5.5-5-11.9-7-16.3-7.9.1-1.1.8-6.8,4.6-12.4,1.7-2.5,4-5,7.1-7,8-5.2,16.3-4.2,18.4-3.8,26.4,1,52.9,2,79.4,3,.6,0,1.2,0,1.8,0,8.7-8.4,17.4-16.8,26-25.3,16.6,9,33.2,18,49.8,27.1Z"/>
        <path class="cls-10" d="M304.3,889.3c-9.1,17.2-18.3,34.4-27.5,51.6-2.2,4.2-4.5,8.4-6.7,12.6-1.5-3.8-4.2-8.7-9.2-11.2-6.6-3.4-10.9.4-17.4-2.6-8.1-3.7-5.3-11.5-13.5-17.1-8.4-5.8-14.2.4-24.5-5.4-8.5-4.8-6.2-9.9-14.8-14.6-9.5-5.1-14.7,0-22.5-5.6-5.7-4.1-4.7-8.1-11-13.8-5.5-5-11.9-7-16.3-7.9.1-1.1.8-6.8,4.6-12.4,1.7-2.5,4-5,7.1-7,8-5.2,16.3-4.2,18.4-3.8,26.4,1,52.9,2,79.4,3,5.4,7.7,9.7,15.6,22.2,23.3,11,6.8,22.3,9.7,31.6,10.9Z"/>
        <path class="cls-15" d="M276.8,941c-2.2,4.2-4.5,8.4-6.7,12.6-1.5-3.8-4.2-8.7-9.2-11.2-6.6-3.4-10.9.4-17.4-2.6-8.1-3.7-5.3-11.5-13.5-17.1-8.4-5.8-14.2.4-24.5-5.4-8.5-4.8-6.2-9.9-14.8-14.6-9.5-5.1-14.7,0-22.5-5.6-5.7-4.1-4.7-8.1-11-13.8-5.5-5-11.9-7-16.3-7.9.1-1.1.8-6.8,4.6-12.4,9.9,2.7,15.1,7.2,18.2,11,5.2,6.6,3.9,11.3,9.4,15.2,7.3,5.1,13.1-1.1,22.1,3.4,8.8,4.4,6.7,12.2,15.7,16.3,8.3,3.9,12-1.9,19.9,1.7,9.9,4.5,7.1,15.1,17.4,20.6,7.6,4.1,11.9-.1,20.8,4.1,3.2,1.5,5.8,3.5,7.9,5.7Z"/>
      </g>
      <path class="cls-10" d="M607.3,812.8c-2.2,3.4-5.3,6.9-9.6,7.8-4.1.9-7.6-.9-8.4-1.3-7.3-3.4-51-12.5-127.9-26.8-8.6,51.3-17.2,102.7-25.9,154-30.8-7.7-61.6-15.3-92.4-23,17.9-74.1,35.7-148.3,53.6-222.4,15.1-2.2,30.3-4.4,45.4-6.6,55,39.4,110.1,78.9,165.1,118.3Z"/>
      <path class="cls-4" d="M514.9,445.1c4.2,1.6,9.7,3.1,16.2,3.6,18.5,1.2,32.4-7.3,37.8-11.1-1.8,4.1-4.9,9-9.9,13.3-16.8,14.3-40.6,7.2-43.1,6.5-.3-4.1-.7-8.2-1-12.3Z"/>
      <path class="cls-14" d="M613.1,638.5c2.6,6.8,6.7,17.2,12.6,29.6,13.4,28.1,18.7,30.4,23.8,43.9,8.5,22.3,9.1,56.2-10.2,81-12.7,16.3-29.7,23.4-40.5,26.6-34.4-27.9-69.4-55.8-105.2-83.7-14.7-11.5-29.3-22.8-43.9-34-38.9,58.1-77.8,116.2-116.8,174.3-23-16.9-46.1-33.8-69.1-50.7,39.6-61.5,79.2-123,118.8-184.5,3.4-5,11-14.5,24.2-21.1,16.3-8.2,31.5-7.2,37.4-6.5l168.9,25.2Z"/>
      <path class="cls-13" d="M469.3,539.1c-3.4,10.8-5.7,20.1-7.1,27.1-5.3,25.2-4.8,39.9-3.8,49.3,1.8,17.1,6,21.2,8.4,23,6,4.3,13.6,3.3,19.1,2.6,3.7-.5,15-2,22.2-11,4-5,5.1-10.4,5.9-14.6,5-27.8,7.5-41.7,3.3-50.6-11.2-23.6-46.2-25.7-48-25.8Z"/>
      <path class="cls-21" d="M617.7,557.2c2,12.5,4.2,25.2,6.6,38.1,1,5.3,2,10.6,3.1,15.8-7.9.6-15.9,1.5-24.2,2.6-39.8,5.3-74.8,15.4-104.7,27.1,11.7,8.2,23.4,16.3,35.1,24.5,20.1-2.7,40.4-5.2,60.9-7.7,15.9-1.9,31.8-3.7,47.5-5.4,2.1,0,13.7-.2,22.5-9.4,6.1-6.4,7.6-13.8,8-16.7-.7-13.5-2.7-29.9-7.7-48.2-3.2-11.8-7.1-22.2-11.1-31.1-12,3.5-24.1,6.9-36.1,10.4Z"/>
      <path class="cls-1" d="M467.4,528c-2.4,3.7-4.8,7.4-7.1,11.1,3.8,3,8.6,6.2,14.6,9.1,9.6,4.7,18.5,6.6,24.9,7.4l2.5-12.9c-11.6-4.9-23.3-9.8-34.9-14.7Z"/>
      <path class="cls-21" d="M481.8,618.9c1.4-10.5,2.9-21.3,4.8-32.3,4.7-28,10.4-54.4,16.9-78.8-2-10.1-3.5-23.6-2-39.9.2-1.8.3-2.8.3-3.1,1.2-9.2,5.9-23.7,23.6-40.3.8-.1,3-.3,4.9,1,2.5,1.8,3.5,5.8,2,9.5-2.4,3-4.8,6-7.2,8.9,1.7-.8,5.6-2.3,10.4-1.5,8.8,1.5,12.8,9.5,13.3,10.4.2.6,1.1,3.5-.3,4.9-1.5,1.5-4.7.4-7.1-.4-3.2-1.1-3.2-2.3-5.1-2.7-3.5-.8-8,1.4-10.3,5-3.4,5.2-.7,11-.5,11.3.4-1.1,2.4-5.6,7.4-8,1-.5,5.3-2.4,10.3-.9,1.2.4,4.8,1.6,6.9,4.9.5.9,1.7,2.8.9,4.3-.3.6-.9,1-1.4,1.2.9.6,2.2,1.6,3.3,3.2.4.6,3.6,5.5,1.2,8.9-1,1.5-3.2,2.8-4.9,2.3-2.2-.7-2.2-3.8-4.1-4.1-1.5-.2-2.9,1.6-3.1,1.9-2.6,3.5.7,8,.4,13.2-.2,3.2-1.8,7.5-8.2,12.5.4,14.4-.6,33.4-5.7,55.1-6.1,25.6-15.8,45.6-23.7,59.2-7.6-1.9-15.1-3.8-22.7-5.7Z"/>
      <path class="cls-11" d="M488.1,566c-4.8,12-7.9,26.1-6.4,41.4.1,1.1.2,2.2.4,3.3"/>
      <path class="cls-8" d="M515,463.7c-.1-.8-1.1-9.7,5.7-15.8,5.1-4.6,12.6-5.9,19.2-3.2"/>
      <path class="cls-9" d="M532.8,481.6c0-.4-.6-5.1,3-8.3,2.7-2.4,6.6-3.1,10.1-1.7"/>
      <path class="cls-9" d="M527.3,472.2c0-.5.1-5.4,5.4-7.9,4-1.9,9.3-1.7,13.7.5"/>
      <path class="cls-9" d="M485,604.9c2.7-16.9,5.9-34.5,9.7-52.6,3-14.4,6.2-28.3,9.5-41.7s.4-2.7.2-4.1c-.6-3.7-1-7.5-1.4-11.5-1-11.5-.8-22,0-31.1"/>
      <path class="cls-17" d="M541.3,366.2c0-1.4.3-6.2,3.9-10.5,4-4.7,9.2-5.7,10.5-5.8-1.1,1.7-2.3,4-3.2,6.8-1.5,4.3-1.8,8.1-1.8,10.8-3.2-.4-6.3-.8-9.5-1.2Z"/>
      <path class="cls-17" d="M555.6,367.4c.6-1.4,1.2-2.9,1.8-4.5.7-2.1,1.3-4.1,1.7-6,.2,1.5.5,3.2.8,4.8.4,2.3.9,4.5,1.4,6.5l-5.7-.9Z"/>
      <path class="cls-9" d="M513,441c.9-1.6,2-3.3,3.4-5.1,3.5-4.4,7.3-7.3,10.3-9"/>
      <path class="cls-1" d="M613.4,555.8c1.8,4.5,3.6,9,5.4,13.4,10.3-3,20.7-6,31-8.9l14-5c-2.6-4.2-5.2-8.5-7.8-12.7l-42.6,13.2Z"/>
      <path class="cls-9" d="M497.5,639.3c9,7.7,19.3,15.7,31.2,23.5,24.3,15.9,47.5,26.2,66.9,32.9"/>
      <path class="cls-9" d="M557.5,773.5c-25.4-14-53.4-31.6-82.3-54-17.1-13.2-32.4-26.4-46.1-39.2"/>
      <path class="cls-9" d="M628.7,602.3c.5,4,1,8,1.5,12-4.8-.1-10.1,0-15.7.5-11.1,1-20.8,3.1-28.9,5.5"/>
      <polygon class="cls-20" points="316.4 85.6 321.2 100.2 336.5 100.2 324.1 109.3 328.9 123.9 316.4 114.9 304 123.9 308.7 109.3 296.3 100.2 311.7 100.2 316.4 85.6"/>
      <polygon class="cls-19" points="878.7 284.6 882.2 295.5 893.6 295.5 884.4 302.2 887.9 313.1 878.7 306.4 869.5 313.1 873 302.2 863.8 295.5 875.2 295.5 878.7 284.6"/>
      <path class="cls-14" d="M132.6,455l2.4,5.1,5.2-2.4c3.6-1.7,7.5,1.6,6.5,5.4l-1.5,5.5,5.5,1.5c3.8,1,4.7,6,1.5,8.3l-4.6,3.3,3.2,4.7c2.3,3.2-.3,7.6-4.2,7.3l-5.7-.5-.5,5.7c-.4,3.9-5.1,5.7-7.9,2.9l-4-4-4,4c-2.8,2.8-7.6,1-7.9-2.9l-.5-5.7-5.7.5c-3.9.3-6.5-4.1-4.2-7.3l3.2-4.7-4.6-3.3c-3.2-2.3-2.3-7.3,1.5-8.3l5.5-1.5-1.5-5.5c-1-3.8,2.9-7.1,6.5-5.4l5.2,2.4,2.4-5.1c1.7-3.6,6.8-3.6,8.4,0Z"/>
      <path class="cls-20" d="M795.8,493.9h0s0,0,0,0c3.5-1.6,7.4,1.6,6.4,5.3h0s0,0,0,0c3.8,1,4.6,6,1.4,8.2h0s0,0,0,0c2.2,3.2-.3,7.5-4.2,7.2h0s0,0,0,0c-.3,3.9-5.1,5.6-7.8,2.8h0s0,0,0,0c-2.8,2.7-7.5,1-7.8-2.8h0s0,0,0,0c-3.9.3-6.4-4-4.2-7.2h0s0,0,0,0c-3.2-2.2-2.3-7.2,1.4-8.2h0,0c-1-3.8,2.8-7,6.4-5.3h0s0,0,0,0c1.7-3.5,6.7-3.5,8.3,0Z"/>
      <path class="cls-14" d="M847.7,814.9l33.3,11.1-1.9,5.7c-2.5,7.5-5.2,12.7-8,15.7-2.9,3-6.8,4.8-11.9,5.3l-7,.7c-5.3.5-8.5,2.6-9.8,6.3-.7,2.2-.6,4.2.4,6.2,1,2,2.6,3.3,4.7,4.1,5.9,1.9,10.1-1.1,12.9-9.3l31,10.3c-3.6,10.9-9.1,18.9-16.4,24.2-5.4,3.9-11.6,6.3-18.5,7.3-6.9,1-13.5.5-19.9-1.6-11.3-3.7-19.5-10.6-24.7-20.6-5.2-10-6-20.5-2.3-31.5,4.5-13.6,13.2-21.3,26-23.2,4.2-.6,6.9-1.4,8.1-2.5,1.2-1.1,2.5-3.7,4-8.1ZM865.4,815.4c-5.9-1.9-10.2-5.7-13-11.4s-3.2-11.4-1.3-17.3c1.9-5.9,5.7-10.2,11.2-12.9,5.6-2.7,11.3-3.1,17.2-1.1,6.2,2,10.6,5.7,13.2,11s3,11,.9,17.2c-2,6-5.7,10.4-11.2,13.2-5.5,2.8-11.2,3.2-17.1,1.3Z"/>
      <path class="cls-14" d="M293.6,612.4c2.7.9,4.7,2.7,6,5.3,1.3,2.6,1.5,5.3.6,8-.9,2.7-2.6,4.7-5.2,6s-5.2,1.4-8,.5c-2.9-.9-4.9-2.7-6.1-5.1-1.2-2.5-1.4-5.1-.4-8,.9-2.8,2.7-4.8,5.2-6.1,2.6-1.3,5.2-1.5,7.9-.6ZM301.8,612.7l-15.4-5.1.9-2.6c1.2-3.5,2.4-5.9,3.7-7.3s3.2-2.2,5.5-2.4l3.2-.3c2.4-.2,4-1.2,4.5-2.9.3-1,.3-2-.2-2.9-.5-.9-1.2-1.6-2.2-1.9-2.7-.9-4.7.5-6,4.3l-14.3-4.8c1.7-5,4.2-8.8,7.6-11.2,2.5-1.8,5.4-2.9,8.6-3.4,3.2-.5,6.3-.2,9.2.8,5.2,1.7,9,4.9,11.4,9.5,2.4,4.6,2.8,9.5,1.1,14.6-2.1,6.3-6.1,9.9-12.1,10.7-1.9.3-3.2.7-3.8,1.2-.6.5-1.2,1.7-1.8,3.7Z"/>
      <path class="cls-20" d="M883.5,128.4c-4.6,4.1-10.1,6-16.4,5.6-6.3-.4-11.5-2.9-15.6-7.5-4.1-4.6-6-10-5.5-16.2.4-6.2,3-11.3,7.6-15.5,4.8-4.3,10.2-6.3,16.2-6,5.9.3,11,2.9,15.4,7.8,4.2,4.7,6.1,10.1,5.8,16.3-.3,6.2-2.8,11.3-7.4,15.4ZM874.2,143.5l26.2-23.4,4,4.4c5.2,5.9,8.5,10.8,9.6,14.8,1.2,4,.7,8.3-1.4,13l-2.9,6.4c-2.2,4.8-2,8.7.6,11.6,1.5,1.7,3.4,2.6,5.6,2.7,2.2.1,4.2-.6,5.9-2.1,4.6-4.1,4.1-9.4-1.6-15.8l24.4-21.7c7.6,8.6,11.9,17.3,12.8,26.3.6,6.6-.3,13.2-2.9,19.7-2.6,6.5-6.3,12-11.3,16.4-8.8,7.9-18.9,11.6-30.2,11.1-11.3-.5-20.8-5-28.5-13.7-9.5-10.7-11.9-22.1-7.1-34.1,1.6-3.9,2.2-6.7,1.9-8.3-.3-1.6-2-4.1-5-7.5Z"/>
    </g>
  </g>
</svg>