<?xml version="1.0" encoding="UTF-8"?><svg id="Layer_1" xmlns="http://www.w3.org/2000/svg" viewBox="0 0 958 958"><defs><style>.cls-1{stroke:#161616;stroke-width:.31px;}.cls-1,.cls-2,.cls-3,.cls-4,.cls-5,.cls-6{stroke-miterlimit:10;}.cls-1,.cls-7{fill:#e49157;}.cls-8{fill:#e0be8b;}.cls-8,.cls-9,.cls-10,.cls-11,.cls-12,.cls-13,.cls-7,.cls-14,.cls-15,.cls-16,.cls-17,.cls-18,.cls-19,.cls-20,.cls-21,.cls-22,.cls-23,.cls-24,.cls-25,.cls-26,.cls-27,.cls-28,.cls-29,.cls-30,.cls-31,.cls-32,.cls-33,.cls-34,.cls-35,.cls-36,.cls-37,.cls-38,.cls-39,.cls-40,.cls-41,.cls-42{stroke-width:0px;}.cls-2{stroke:#97491c;stroke-width:1.06px;}.cls-2,.cls-5{fill:none;}.cls-9{fill:#590200;}.cls-10{fill:#dbc453;}.cls-11{fill:#2f2f2f;}.cls-12{fill:#381e12;}.cls-3{fill:#e0f2ef;stroke-width:5.04px;}.cls-3,.cls-4,.cls-6{stroke:#000;}.cls-13{fill:#582625;}.cls-14{fill:#bd5a23;}.cls-15{opacity:.52;}.cls-15,.cls-33{fill:#824f2c;}.cls-16,.cls-35{fill:#a2450f;}.cls-18{fill:#bd4812;}.cls-19{fill:#959b97;opacity:.44;}.cls-20,.cls-21,.cls-22{fill:#c6a211;}.cls-4{stroke-width:2px;}.cls-4,.cls-6{fill:#f4d701;}.cls-21{opacity:.28;}.cls-22{opacity:.39;}.cls-23{fill:#fa0;}.cls-24{fill:#e8e2e2;}.cls-25{fill:#7a7a7a;}.cls-26{fill:#fff6c0;}.cls-27{fill:#fff;}.cls-28{fill:#3a322d;}.cls-29{fill:#fdea48;opacity:.43;}.cls-30{fill:#4c4c4c;}.cls-31{fill:#996a4a;}.cls-32{fill:#ce6823;}.cls-34{fill:#c97126;}.cls-5{stroke:#582625;stroke-width:2.77px;}.cls-35{opacity:.49;}.cls-36{fill:#616161;}.cls-37{fill:#0098ed;}.cls-38{fill:#3a3a3a;}.cls-39{fill:#ffce00;}.cls-40{fill:#aa0e0e;}.cls-41{fill:#0d3a31;}.cls-42{fill:#a58458;}.cls-6{stroke-width:1.26px;}</style></defs><circle class="cls-39" cx="479" cy="479" r="479"/><rect class="cls-17" x="470.96" y="233.43" width="3.78" height="199.03"/><path class="cls-25" d="M824.64,425.96c-1.89,1.91-5.59,2.39-8.47,2.57-19.17,1.44-38.34,2.75-57.5,4.08-38.86,2.71-77.72,5.5-116.5,9.47-6.92,1.35-17.64.03-19.17-8.45-.18-1.39-.29-6.3-.35-13.57-.25-26.28.09-83.35.1-115.8-.03-30.19,3.93-41.33-22.35-60.02-6.11-4.03-12.17-5.49-19.55-5.5-1.98-.03-3.94-.04-5.92-.04l-5.67-.04c-80.44-.49-160.93-.84-241.38-1.27-11.93-1.21-23.58,3.72-30.72,14.07-1.45,2.1-2.71,4.43-3.75,6.99-.91,1.65-1.32,3.5-2.07,4.94-.64,1.31-.97,1.91-1.6.52-1-2.68-1.84-6.17-2.41-10.14h0c-1.26-8.94-1.1-20.21,1.99-29.59,1.44-4.36,3.49-8.3,6.31-11.43.24-.19.47-.37.69-.53l6.13-4.55c.3-.15.6-.28.92-.4.14-.06.28-.13.43-.18l.24-.09c127.32-12.72,255.6-19.19,383.31-28.99,7.51-.13,16.25.94,23.47,2.54,18.28,3.89,35.23,12.04,50.49,23.85,46.97,36.93,47.67,75.01,55.5,134.46,3.12,23.48,6.36,48.36,9.66,74.56.55,4.18,1.1,9.66-1.84,12.53Z"/><path class="cls-17" d="M843.82,577.32c0,1.27-.06,2.53-.19,3.78-.88,8.58-4.72,16.28-10.51,22.06-6.61,6.61-15.75,10.69-25.84,10.69H275.7v-36.53h235.25c3.46.57,8.38.55,23.43,0h309.44Z"/><path class="cls-7" d="M262.06,423.93c2.52,6.25,5.05,12.5,7.57,18.75.96,2.38,3.57,3.56,6.11,2.75,9.72-3.08,20.42-7.14,31.66-12.54,13.09-6.29,24.25-13.13,33.57-19.67,2.88-2.03,3.31-6.11.88-8.32l-17.84-16.2c-1.84-1.67-4.69-1.65-6.77.01-5.34,4.27-11.52,8.66-18.6,12.87-11.77,6.99-23.11,11.76-33.02,15.05-3.05,1.02-4.71,4.44-3.56,7.3Z"/><rect class="cls-17" x="124.54" y="539.53" width="36.53" height="35.27"/><rect class="cls-17" x="183.75" y="581.1" width="20.16" height="11.34" transform="translate(-218.68 126.65) rotate(-23.6)"/><path class="cls-4" d="M103.13,565.98c-8.82-1.68-17.64-3.36-26.45-5.04-.62-.35-1.75-1.11-2.52-2.52-1.58-2.9-.17-5.94,0-6.3,2.94-6.72,5.88-13.44,8.82-20.16.37-1.17,1.07-2.71,2.52-3.78,1.61-1.18,3.4-1.24,3.78-1.26,3.5-.23,40.89-8.19,95.74-20.16l41.57,83.14c-7.56-.84-15.12-1.68-22.67-2.52-2-3.54-5.04-8.27-9.45-13.23-4.45-5-18.26-20.51-40.31-23.93-27.22-4.23-47.78,12.95-51.02,15.75Z"/><path class="cls-17" d="M509.84,545.3c5.33-4.91,9.49-11.41,18.59-8.09,2.24.82,5.82-2.03,9.25-3.38-1.46-2.25-2.43-3.73-4.4-6.77,3.82,0,6.46-.34,8.98.08,3.73.62,7.42,2.69,11.03,2.48,5.68-.33,7.7,1.54,7.1,7.02-.2,1.81.24,3.69.45,6.37-17.01,2.59-33.69,6.96-51.01,2.29Z"/><path class="cls-17" d="M573.93,538.34c-3.86.29-7.92-.16-11.52,1.05-4.9,1.65-9.43,4.56-13.76,8.31,16.19,5.23,31.62.91,47.35-1.57,0-1.5.07-2.31-.01-3.1-1.05-10-1.06-9.88-10.29-10.15-1.95-.06-3.84-1.44-5.82-1.9-2.62-.61-5.31-.92-7.97-1.36-.17.66-.33,1.32-.5,1.98.93,1.45,1.86,2.9,2.8,4.36-.09.79-.19,1.59-.28,2.38Z"/><path class="cls-32" d="M556.95,375.75c-2.5,4.14-4.75,7.87-7.42,12.3-13.2-10.47-23.23-24.78-41.65-26.2.25-.59.5-1.19.75-1.78,2.47-.37,4.95-.73,9.24-1.37-4.17-3.57-7.28-6.23-10.38-8.88.16-.36.33-.72.49-1.08,3.2.86,6.4,1.73,10.77,2.91-2.38-4.4-4.19-7.75-6-11.09.4-.32.79-.64,1.19-.95,2.84,2.38,5.68,4.75,9.5,7.95-.8-4.57-1.39-7.96-1.98-11.36.54-.18,1.07-.36,1.61-.55,1.46,3.05,2.73,6.21,4.43,9.12,1.26,2.16,3.08,4,4.65,5.98,1.56-1.71,3.16-3.37,4.65-5.13.55-.65.85-1.51,1.26-2.27.56.29,1.13.57,1.69.86-.78,4-1.97,7.97-2.18,12-.12,2.22.75,5.29,2.33,6.65,5.2,4.47,10.91,8.34,17.06,12.91Z"/><path class="cls-32" d="M620.46,423.87c3.83-2.95,7.28-5.61,11.38-8.77,8.51,14.54,12.67,31.52,29.33,39.51l-1.35,1.39c-2.44-.55-4.88-1.11-9.1-2.07,2.59,4.84,4.53,8.44,6.46,12.04l-.91.78c-2.65-1.95-5.31-3.91-8.93-6.57.62,4.97,1.1,8.74,1.57,12.51l-1.45.47c-1.79-3.25-3.57-6.49-5.98-10.86-.91,4.54-1.59,7.92-2.27,11.3l-1.7-.11c-.25-3.36-.29-6.75-.82-10.07-.39-2.47-1.42-4.84-2.17-7.26-2.07,1.02-4.17,2-6.19,3.1-.75.4-1.34,1.1-2,1.66l-1.41-1.19c2.21-3.53,4.83-6.86,6.52-10.62.91-2.03,1.22-5.21.24-7.04-3.22-6.05-7.15-11.73-11.22-18.21Z"/><path class="cls-12" d="M553.18,340.07c-.35-10.63-.71-21.25-1.06-31.88-1.39-.41-3.08-1.09-3.19-2.13-.12-1.16,1.88-1.63,2.13-3.19.33-2.08-3.01-2.89-3.19-5.31-.22-2.88,4.11-6.7,7.44-6.38.87.08,1.64.45,2.13,0,.9-.84-.88-2.99,0-4.25.9-1.28,4.14-1.07,6.38,0,1.25.6,1.8,1.28,2.13,1.06.81-.53-2.51-4.71-1.06-7.44.88-1.66,3.46-2.7,5.31-2.13,2.31.71,2.5,3.6,5.31,4.25.93.21,1.69.08,2.13,0,3.6-.67,4.28-4.34,6.38-4.25,1.95.08,2.46,3.3,4.25,3.19,1.26-.08,1.39-1.7,3.19-3.19,2.43-2.01,6.62-2.69,8.5-1.06,1.86,1.61.81,4.93,2.13,5.31.83.24,1.43-1.03,3.19-2.13,1.96-1.22,5.14-2.06,7.44-1.06,3.23,1.4,2.32,5.41,5.31,6.38,2.36.76,4.2-1.31,6.38,0,1.27.76,1.02,1.7,2.13,2.13,2.01.78,3.5-2.02,6.38-2.13,2.56-.09,5.25,1.98,6.38,4.25,1.79,3.59-.79,6.7,1.06,8.5,1.54,1.5,3.83-.17,6.38,1.06,3.25,1.57,3.95,6.4,4.25,8.5,1.8,12.41-12.58,44.06-13.81,46.76-27.98-4.96-55.97-9.92-83.95-14.88Z"/><path class="cls-23" d="M636.59,417.11c-.82.71-1.64,1.42-2.46,2.13-3.56,3.09-7.13,6.19-10.71,9.28-.92.79-1.85,1.6-2.77,2.39-1.35-2.97-2.42-4.4-3.19-4.25-2.04.38-2.04,11.72,0,34-.06.03-.11.05-.18.06-6.1,2.38-18.83,6.36-34.89,4.19-13.54-1.83-23.42-7.22-28.7-10.63.14-.98.29-1.95.43-2.94,2.34-16.02,4.67-32.05,7.02-48.07-6.02-3.89-12.04-7.8-18.06-11.69,1.35-1.84,2.7-3.68,4.03-5.53,2.78-3.8,5.56-7.61,8.34-11.43.5-.69,1.02-1.4,1.52-2.09.15-.2.3-.42.45-.62,7.08,2.83,14.16,5.67,21.25,8.5,4.64,1.86,9.28,3.72,13.93,5.57,2.44.98,4.87,1.97,7.32,2.94.35-.05.72-.08,1.06-.1,1.45-.13,2.82-.11,4.09-.01.42.03.82.06,1.22.11.48.06.94.13,1.41.23,17.69,3.21,27.26,24.27,28.87,27.94Z"/><path class="cls-37" d="M572.74,383.74l2.74-.17c-.62,1.49-1.42,4.03-.94,6.94,1.49,8.93,13.38,11.03,13.54,18.41.06,2.8-1.64,2.99-3.59,8.48-1.96,5.53-2.08,10.53-1.88,13.88l-2.74.17c-1.81-6.71-.82-11.03.51-13.79,2.06-4.3,5.28-5.53,4.96-8.57-.26-2.53-2.62-2.78-7.37-7.79-2.97-3.14-5.28-5.63-6.09-9.25-.76-3.42.12-6.48.85-8.31Z"/><path class="cls-37" d="M606.69,395.33c-1.49,3.4-4.23,5.39-7.75,7.9-5.63,4.01-7.99,3.8-8.73,6.24-.89,2.91,2.03,4.75,3.21,9.36.77,2.96.92,7.39-2.15,13.63-.88-.23-1.76-.47-2.66-.69.84-3.25,1.7-8.18.83-13.98-.57-3.77-1.46-5.29-1.83-6.66-.21-.73-.28-1.41-.06-2.36.09-.4.21-.78.37-1.15,2.53-6.06,13.47-6.31,16.46-14.31.59-1.59.74-3.14.71-4.47.42.03.82.06,1.22.11.48.06.94.13,1.41.23.11,1.78-.06,3.96-1.03,6.16Z"/><path class="cls-32" d="M558.49,307.13c-1.42,8.86-2.83,17.71-4.25,26.57-3.08.24-4.6,1.41-5.31,2.13-3.58,3.61-2.78,12.02,3.19,20.19-.09,2.76.15,7.06,2.13,11.69,4.94,11.57,16.71,15.76,20.19,17,22.68,8.08,45.68-11.8,46.76-12.75,2.08.39,6.23.84,10.63-1.06,6.3-2.74,12.51-10.09,10.63-17-.12-.44-1.49-5.83-6.38-7.44-4.12-1.36-9.11.5-12.22,4.78-.35-3.19-.71-6.38-1.06-9.56,1.62-1.66,4.28-4.89,5.31-9.56,0,0,1.63-7.36-3.19-15.94-6.14-10.94-32.88-14.84-66.42-9.03Z"/><ellipse class="cls-27" cx="566.99" cy="341.66" rx="9.56" ry="10.1"/><ellipse class="cls-27" cx="604.19" cy="346.44" rx="10.63" ry="9.56"/><ellipse class="cls-17" cx="564.34" cy="342.19" rx="4.78" ry="5.31"/><circle class="cls-17" cx="599.94" cy="347.51" r="5.31"/><ellipse class="cls-27" cx="567.52" cy="341.31" rx=".53" ry=".89"/><ellipse class="cls-27" cx="603.65" cy="345.56" rx=".53" ry=".89"/><path class="cls-9" d="M597.81,366.1c-.92,3.68-5.01,6.93-11.18,7.76-1,.14-2.06.21-3.17.21-3.18,0-5.74-.67-7.82-1.72-3.12-1.57-5.15-4-6.52-6.25-2.52-4.17-.84-6.75,4.12-7.73h.01c2.57-.51,6.01-.58,10.21-.24,3.63.3,6.95.81,9.49,1.69,3.59,1.23,5.63,3.19,4.86,6.28Z"/><path class="cls-27" d="M593.03,360.26c0,2.05-4.76,3.72-10.63,3.72s-10.63-1.67-10.63-3.72c0-.68.53-1.33,1.47-1.88h.01c2.57-.51,6.01-.58,10.21-.24,3.63.3,6.95.81,9.49,1.69.05.15.07.29.07.44Z"/><path class="cls-27" d="M586.63,373.86c-1,.14-2.06.21-3.17.21-3.18,0-5.74-.67-7.82-1.72.97-1.19,2.91-2,5.16-2,3.11,0,5.66,1.55,5.82,3.51Z"/><ellipse class="cls-18" cx="609.5" cy="361.85" rx="5.31" ry="2.66"/><ellipse class="cls-18" cx="558.49" cy="354.95" rx="5.31" ry="3.19"/><ellipse class="cls-18" cx="630.75" cy="360.26" rx="6.38" ry="4.25" transform="translate(43 787.09) rotate(-65.72)"/><path class="cls-2" d="M600.16,323.42c.49-.37,3.64-2.66,8.17-1.91,5.58.92,8.1,5.6,8.26,5.9"/><path class="cls-2" d="M560.13,321.61c.28-.45,2.13-3.26,5.96-4,4.72-.9,8.09,2.2,8.3,2.4"/><path class="cls-16" d="M584.71,354l-4.77-.24c-.17,0-.26-.2-.17-.34l2.59-4.01c.09-.14.3-.13.38.02l2.18,4.25c.08.15-.04.33-.21.32Z"/><path class="cls-32" d="M601,378.85v12.75c-.67.64-4.63,4.29-10.69,4.28-.32,0-.66-.01-1-.03-6.26-.43-9.95-4.53-10.63-5.31v-10.63c7.44-.35,14.88-.71,22.32-1.06Z"/><path class="cls-14" d="M594.62,393.2c-.18.17-1.83,1.72-4.31,2.69-.32,0-.66-.01-1-.03-6.26-.43-9.95-4.53-10.63-5.31v-3.01c2.36,2.36,5.91,4.93,10.63,5.66,1.98.31,3.78.23,5.31,0Z"/><path class="cls-25" d="M554.09,451.35c8.41,2.93,19.03,5.85,31.49,7.56,12.08,1.66,22.79,1.75,31.49,1.26,1.1,2.77,3.12,9.05,1.26,16.38-3.87,15.24-20.69,19.96-21.41,20.16-7.14-1.26-14.28-2.52-21.41-3.78.07-3.22.39-7.07,1.26-11.34,1.03-5.04,2.53-9.27,3.97-12.58-2.53,1.4-6.63,4.09-10.27,8.8-4.21,5.45-5.71,10.91-6.3,13.86-9.66-1.68-19.32-3.36-28.97-5.04.99-6.06,3.42-15.6,10.08-25.19,2.92-4.2,6.02-7.52,8.82-10.08Z"/><path class="cls-25" d="M542.08,481.58c5.68.84,11.37,1.68,17.05,2.52-2.07,15.12-4.13,30.23-6.2,45.35-1.42.29-4.3.7-7.75,0-3.01-.61-5.1-1.79-6.2-2.52,1.03-15.12,2.07-30.23,3.1-45.35Z"/><path class="cls-25" d="M579.87,485.36c5.68.84,11.37,1.68,17.05,2.52-2.07,15.12-4.13,30.23-6.2,45.35-1.42.29-4.3.7-7.75,0-3.01-.61-5.1-1.79-6.2-2.52,1.03-15.12,2.07-30.23,3.1-45.35Z"/><path class="cls-4" d="M303.38,207.26c-1.66,11.72-3.78,26.64-6.22,44.19-1.94,13.92-4.08,29.46-6.39,46.36-5.28,38.62-11.21,83-12.66,94.63-5.43,43.67-8.33,113.35,6.32,220.79-4.37,1.46-24,7.52-44.28-2.53-11.59-5.73-18.32-14.21-21.5-18.92-5.79-17.3-11.27-33.17-16.45-47.94-1.66-4.74-3.98-11.26-8.86-18.92-6.36-10-10.12-9.17-15.18-17.66-2.44-4.08-5.66-11.26-7.6-26.5-.58-4.53-1.13-10.54-1.26-17.66-.3-.21-.6-.42-.89-.63-2.66-1.89-5.32-3.78-7.97-5.67-.42-18.52-.84-37.01-1.26-55.51,4.21-1.26,8.44-2.53,12.65-3.79.15-.63.29-1.26.47-1.89,2.66-11.11,6.12-22.74,10.54-34.69.93-2.52,1.9-5.04,2.91-7.57,6.17-15.41,13.34-29.63,21.14-42.7,10.56-17.79,22.3-33.47,34.29-47.23,16.09-18.45,32.64-33.42,47.48-45.24,2.38-1.89,4.71-3.7,6.98-5.42.24-.19.47-.37.69-.53,2.09-1.59,4.14-3.11,6.13-4.55.3-.15.6-.28.92-.4Z"/><path class="cls-29" d="M245.47,407.75v43.11c0,6.53-5.3,11.83-11.83,11.83h-65.27c-3.07-3-4.91-4.81-7.98-7.81-.4-17.77-.81-35.52-1.21-53.29,4.19-1.26,8.4-2.52,12.6-3.78.15-.63.29-1.26.45-1.89h61.41c6.53,0,11.83,5.3,11.83,11.83Z"/><path class="cls-3" d="M290.85,228.44c.35,4.87-1.26,10.55-1.98,15.95-1.42,8.71-2.81,17.01-4.58,27.81-4.79,29.12-10.76,65.36-12.76,77.49-.57,3.45-1.03,6.21-2.88,9.47-7.27,12.17-17.7,12.08-31.34,10.66-8.44-.61-17.03-1.24-25.53-1.85-5.58-.41-10.63-.77-15.98-1.16-6.1-.65-9.85-.06-11.97-2.41-.91-1.27-.53-3.42.49-6.34,1.31-3.65,3.09-7.75,4.71-11.44,11.98-27.69,28.92-53.16,47.94-76.8,12.26-15.07,26.32-29.13,41-41.95,4.5-4.23,11.77-8.54,12.86.42v.15Z"/><rect class="cls-34" x="180.6" y="407.89" width="47.87" height="12.6" rx="5" ry="5"/><ellipse class="cls-19" cx="169.26" cy="429.31" rx="4.41" ry="20.78"/><ellipse class="cls-27" cx="171.15" cy="428.68" rx="4.41" ry="20.78"/><path class="cls-20" d="M182.38,507.42c.74-.86,2.79-.94,4.38-1.09.94-.02,1.89.25,2.49,1,2.35,4.12,3.99,8.83,6.27,13.13,6.56,13.23,13.77,26.33,20.01,34.51,14.35,18.9,44.92,24.34,61.03,25.36,2.36-.12,3.34,1.81,3.48,3.98.96,8.42,2.17,16.86,2.99,25.3.12,1.92-1.17,3.12-2.93,3.46-3.27.8-6.84,1.38-10.85,1.55-21.04,1.84-43.08-14.51-48.88-21.83-1.06-1.41-1.56-3.61-2.1-5.46-5.52-19.38-9.58-30.46-16.17-45.8-6.58-14.77-10.77-21.26-15.63-27.82-.9-1.21-2.33-2.99-3.48-4.43-.39-.49-.94-1.33-.67-1.77l.06-.09Z"/><polygon class="cls-22" points="119.28 526.28 183.17 511.73 184.78 524.63 119.28 526.28"/><circle class="cls-17" cx="137.14" cy="622.67" r="59.21"/><circle class="cls-36" cx="137.14" cy="622.67" r="30.86"/><rect class="cls-17" x="643.53" y="492.92" width="186.43" height="100.78"/><path class="cls-24" d="M845.65,503.08l-9.57,1.3-3.62-26.57-.86-6.3-2.49-18.3,7.7-1.05c8.86-1.21,16.99,4.99,18.2,13.83l.76,5.52.86,6.3,1.25,9.2c1.06,7.81-4.41,15.02-12.22,16.07Z"/><path class="cls-34" d="M855.77,471.51h-24.16l-2.49-18.3,7.7-1.05c8.86-1.21,16.99,4.99,18.2,13.83l.76,5.52Z"/><path class="cls-34" d="M845.65,503.08l-9.57,1.3-3.62-26.57h24.16l1.25,9.2c1.06,7.81-4.41,15.02-12.22,16.07Z"/><circle class="cls-17" cx="137.14" cy="622.67" r="26.45"/><circle class="cls-17" cx="744.31" cy="622.67" r="59.21"/><circle class="cls-36" cx="744.31" cy="622.67" r="30.86"/><circle class="cls-17" cx="744.31" cy="622.67" r="26.45"/><path class="cls-30" d="M779.58,407.96c.04,1.49-.18,2.92-.63,4.28-47.16,2.44-94.31,4.96-141.36,8.53-4.47.66-10.23.62-14.94-.71-.25-26.28.09-83.35.1-115.8-.03-30.19,3.93-41.33-22.35-60.02-6.11-4.03-12.17-5.49-19.55-5.5-1.98-.03-3.94-.04-5.92-.04-3.68-.69-7.55-.98-11.77-1-4.69-.03-9.36-.04-14.06-.06.92-.14,1.86-.21,2.82-.24l203.93-4.23c10.09-.21,18.57,6.41,18.81,14.73l4.91,160.07Z"/><path class="cls-6" d="M847.31,570.5c-.8,4.87-2.81,9.69-8.15,10.28-6.05.82-13.43.29-19.66.4-4.3-.02-9.39-.67-12.33-3.84-14.04-15.24-32.71-33.05-66.16-32.14-15.55.68-31.67,7.44-43.6,16.42-6.92,5.18-10.43,8.7-16.11,15.57-3.6,4.57-7.49,8.72-12.91,9.86-68.61,3.64-137.65,4.03-206.38,6.48-13.51,1.68-27.59-8.72-29.72-22.23-.96-5.19-.81-11.84-.94-17.77-.17-14.32-.41-35.89-.02-43.21-.88-14.2,14.84-10.82,24.7-10.84,8.61.32,14.56-5.22,13.29-13.88-.23-8.42-.46-23.66-.75-43.34.21-6.12-1.24-13.97,1.42-19.12,4.6-4.86,6.97,5.83,6.67,9.3.31,25.63,1.35,82.65.03,98.39-2.7,17.94,8.08,38.8,26.42,44.28,12.86,4.51,26.05,2.05,39.37,2.01,19.39.31,33.19-4.43,43.39-21.45,9.94-13.93,11.19-52.68,12.2-77.12.61-21.64-.75-50.52,20.32-63.04,4.02-2.32,8.64-2.92,13.17-3.07,13.1-.47,25.5-.9,37.78-1.31,50.95-1.65,145.72-4.82,150-3.21,7.97,2.14,11.92,10.91,12.19,18.74,1.08,9.16,2.67,21.82,3.92,32.28,5.9,48.43,9.76,79.26,12.14,94.03,1.07,4.85.83,11.15-.22,17.29l-.05.26Z"/><path class="cls-26" d="M827.89,581.1h-18.08c-1.85-2.66-27.34-38.13-68.02-36.53-28.76,1.13-48.9,20.16-52.91,23.93-7.23,6.83-12.04,13.74-15.12,18.9-6.03.18-12.07.35-18.1.52h-.15c-.01-.38-.01-.77-.01-1.15,0-47.31,38.63-85.66,86.29-85.66s83.16,35.32,86.1,79.99Z"/><path class="cls-10" d="M827.23,581.1h-17.42c-1.85-2.66-27.34-38.13-68.02-36.53-28.76,1.13-48.9,20.16-52.91,23.93-7.23,6.83-12.04,13.74-15.12,18.9-6.03.18-12.07.35-18.1.52,2.67-44.92,40.21-80.51,86.13-80.51s79.6,32.05,85.44,73.69Z"/><path class="cls-11" d="M330.5,580.2c0-.96.06-1.59,0-2.2-1.17-10.06-1.17-9.98-10.62-10.35-1.77-.07-3.48-1.31-5.26-1.76-2.63-.67-5.31-1.12-7.96-1.66-.2.64-.41,1.27-.61,1.91.85,1.49,1.7,2.99,3.04,5.33-2.97,1.29-6.3,4.21-8.53,3.43-8.02-2.83-11.93,3.27-17.27,7.21,6.1,4.97,31.24,3.81,47.24-1.91Z"/><path class="cls-6" d="M474.73,455.13h113.99c8,0,14.5,6.5,14.5,14.5v93.19c0,8-6.5,14.5-14.5,14.5h-112.82c-.64,0-1.17-.52-1.17-1.17v-121.02h0Z"/><path class="cls-21" d="M547.3,464.92c.64-1.51,1.9-1.64,2.87-1.59,12.96.38,25.96.7,38.9,1.11,5.51-.45,7.71,9.02,7.25,20.63-.19,10.62-.02,39.47-.03,68.95-.06,6.15-1.22,9.31-3.67,9.01-14.11.36-28.23.72-42.35,1.07-.97.04-2.21-.1-2.87-1.48-.75-1.4-.87-4.39-.87-6.76,0-28.09,0-56.21,0-84.3,0-2.22.09-5.09.71-6.52l.05-.12Z"/><rect class="cls-6" x="558.5" y="488.51" width="25.19" height="5.04" rx="2" ry="2"/><rect class="cls-41" x="578.03" y="408.52" width="16.38" height="23.93" rx="3.56" ry="3.56"/><rect class="cls-17" x="581.81" y="412.3" width="8.82" height="8.82"/><rect class="cls-27" x="581.81" y="423.64" width="8.82" height="1.26"/><rect class="cls-27" x="581.81" y="426.16" width="8.82" height="1.26"/><rect class="cls-17" x="322.31" y="477.81" width="118.41" height="105.81"/><rect class="cls-28" x="312.23" y="462.69" width="138.57" height="30.23" rx="12" ry="12"/><path class="cls-38" d="M360.73,582.72c0-.96.06-1.59,0-2.2-1.17-10.06-1.17-9.98-10.62-10.35-1.77-.07-3.48-1.31-5.26-1.76-2.63-.67-5.31-1.12-7.96-1.66-.2.64-.41,1.27-.61,1.91.85,1.49,1.7,2.99,3.04,5.33-2.97,1.29-6.3,4.21-8.53,3.43-8.02-2.83-11.93,3.27-17.27,7.21,6.1,4.97,31.24,3.81,47.24-1.91Z"/><path class="cls-31" d="M324.83,457.65c20.99,12.6,41.99,25.19,62.98,37.79-1.78,2.73-3.48,5.67-5.04,8.82-12.44,25.16-9.7,51.08-6.3,66.76-28.55.42-57.11.84-85.66,1.26-2.89-7.43-12.79-35.47-1.26-68.02,9.47-26.74,28.07-41.47,35.27-46.61Z"/><path class="cls-17" d="M342.91,571.51c-4.17-20.16-1.95-35.06,1.03-45.21,5.62-19.08,18.74-37.45,21.36-44.37l5.25,3.15h.01c-6.34,11.63-14.31,29.83-17.22,53.32-1.56,12.57-1.3,23.77-.38,32.95l-10.06.15Z"/><rect class="cls-28" x="463.4" y="327.9" width="12.6" height="62.98" rx="5" ry="5" transform="translate(56.36 -63.61) rotate(8.24)"/><path class="cls-8" d="M313.88,388.14c5-5.39,10.54-10.97,16.64-16.64,6.66-6.19,13.18-11.72,19.41-16.64,14.79-.92,29.58-1.85,44.38-2.77,8.44.59,18.9,2.08,30.51,5.55,15.45,4.62,27.55,11.15,36.06,16.64-6.76,4.16-15.81,11.09-22.19,22.19-14.17,24.66-1.6,46.3-8.32,72.11-3.91,15.01-15.08,34.29-47.15,52.7-18.04-7.97-24.9-17.46-27.73-24.96-2.79-7.4-1.1-11.38-5.55-16.64-5.33-6.31-11.44-4.93-27.73-11.09-8.59-3.25-19.68-7.45-19.41-11.09.19-2.56,6.07-5.82,33.28-8.32,1.81-.12,11.02-.9,16.64-8.32,5.85-7.72,6.32-21.58,0-24.96-4.69-2.51-12.96.85-19.41,8.32-6.47-12.02-12.94-24.04-19.41-36.06Z"/><path class="cls-7" d="M334.5,290.54c-.14,7.37,0,15.02-.07,22.41-.04,1.17-.14,2.5-.79,3.37-1.06,1.51-4.09,1.81-5.76,3.05-3.39,2.08-4.66,6.03-4.22,9.88.52,8.15,6.3,11.13,12.86,15.6,6.44,4.66,8.61,11.76,14.56,16.66,20.66,17.41,42.36,6.78,55.55-17.56,1.15-1.43,2.73-1.61,4.44-1.91,4.87-.75,11.02-5.08,12.71-10.34,3.22-7.57-2.69-13.55-11.4-10.98-2.5.79-5.48,1.34-5.35-2.22-.08-12.08.03-24.54-.06-36.57-.03-2.72-.65-4.84-2.42-6.88-20.3-26.44-62.63-19.6-70.03,15.17l-.02.34Z"/><path class="cls-5" d="M340.23,300.77c.72-2.86,2.9-5.05,5.55-5.55,3.44-.65,7.17,1.65,8.32,5.55"/><path class="cls-5" d="M381.83,300.77c.72-2.86,2.9-5.05,5.55-5.55,3.44-.65,7.17,1.65,8.32,5.55"/><ellipse class="cls-27" cx="352.71" cy="320.19" rx="5.55" ry="6.93"/><path class="cls-7" d="M461.6,344.44c4,.86,8.48-2.7,10.07-6,2.38-4.94-2.34-8.19,0-13.5,1.38-3.13,3.32-2.9,5.45-7.11,1.64-3.25,2.65-7.66,1.56-8.31-.92-.55-3.77,1.3-12.5,12.42,3.64-5.9,4.92-10.9,5.41-14.32.14-.96.7-4.91-.17-5.19-.74-.24-2.3,2.12-3.81,5.02-1.39,2.66-3.72,6.23-7.84,9.99,1.22-5,2.44-10,3.66-15-.01-.93-.19-2-.92-2.25-1.38-.47-3.95,2.31-4.58,3-4.75,5.15-3.82,11.21-4.58,11.25-.49.02-1.31-2.48-2.75-12-1.26-2.78-2.33-3-2.75-3-1.66,0-3.28,3.25-3.66,6-.36,2.61.55,3.59.92,7.5.08.88.01.9,0,5.25,0,2.24,0,4.06,0,5.25,1.05.29,7.41,2.13,10.07,7.5,1.41,2.84,1.16,5.43.92,6.75.52,3.4,2.65,6.14,5.49,6.75Z"/><path class="cls-1" d="M459.34,344.44c-3.07-.6-8.89-2.18-13.12-6.55-6.89-7.12-7-19.01,1.28-28.09,2.07-.15,3.12.37,3.66.78,2.49,1.88,1.93,7.16-1.75,13.15,1.85.75,4.62,2.15,6.95,4.67,6.4,6.93,3.2,15.5,2.98,16.04Z"/><ellipse class="cls-27" cx="385.99" cy="320.19" rx="5.55" ry="6.93"/><ellipse class="cls-17" cx="354.1" cy="321.57" rx="2.77" ry="4.16"/><path class="cls-27" d="M379.06,343.76c0,.42-.06.83-.19,1.22-.92,3.24-5.44,5.71-10.9,5.71s-10.01-2.47-10.93-5.74c-.11-.39-.17-.78-.17-1.19,0-2.86,2.75-5.3,6.71-6.35.78.89,1.86,1.75,3.25,2.19,2.39.78,5.08.17,7.29-1.58,3,1.22,4.94,3.33,4.94,5.74Z"/><path class="cls-33" d="M336.51,317.54c-2.67.91-7.6-7.28-8.15-8.2-7.69-12.77-12.19-35.68,0-49.18,5.56-6.16,12.76-7.75,27.17-10.93,17.41-3.85,29.24-6.46,38.03,0,7.64,5.61,8.05,14.45,19.02,19.13,4.68,2,6.31,1.11,8.15,2.73,11.01,9.68-12.1,55.99-16.3,54.65-2.85-.91,7.7-22.38-2.72-43.72-1.73-3.54-7.17-14.68-19.02-19.13-15.92-5.97-36.16,2.88-43.46,16.39-8.58,15.88,1.47,36.82-2.72,38.25Z"/><ellipse class="cls-17" cx="387.38" cy="321.57" rx="2.77" ry="4.16"/><path class="cls-13" d="M392.93,342.38c-1.3,3.36-4.41,5.55-7.82,5.55-2.44,0-4.69-1.11-6.24-2.94-.69-.75-1.22-1.64-1.61-2.61-.72.36-7.74,3.8-13.04,0-.8-.55-1.75-1.44-2.61-2.77-.64,2.61-2.39,4.63-4.58,5.35-.22.08-.44.14-.67.19-3.22.64-6.74-1.66-7.82-5.55,1.64.19,6.35.47,10.43-2.77,1.14-.89,2-1.89,2.63-2.77.11.33.72,1.91,1.97,3.36.78.89,1.86,1.75,3.25,2.19,2.39.78,5.08.17,7.29-1.58,1.25-.97,2.33-2.3,3.13-3.97.72,1.25,4.08,7.02,10.46,8.32,2.02.42,3.83.28,5.21,0Z"/><path class="cls-7" d="M362.42,367.34c.18,2.3.85,6.89,3.88,11.65,2.64,4.14,5.87,6.56,7.77,7.77,1.77-1.24,4.77-3.69,7.12-7.77,2.79-4.84,3.19-9.41,3.24-11.65h-22Z"/><path class="cls-15" d="M363.05,368.14c.63,2.96,4.92,4.37,8.51,2.68.03-.01.06-.03.09-.04,2.59-1.23,4.02-2.37,4.72-3.01-.91-.26-2.69-.66-5.5-.66-3.34,0-6.38.54-7.86.84l.04.19Z"/><path class="cls-42" d="M401.25,403.39h11.09v16.07c0,.32-.26.57-.57.57h-9.88c-.35,0-.64-.29-.64-.64v-16h0Z"/><path class="cls-7" d="M423.48,377.76c.72-1.84,4.15-8.88,23.25-10.83,2.98,1.52,6.85,3.89,10.74,7.54,5.14,4.83,8.16,9.88,9.87,13.34-2.47-4.46-4.92-9.47-7.17-15.03-5.05-12.43-7.63-23.95-8.96-33.44,4.63-1.4,9.26-2.8,13.89-4.2,4.84,4.66,16.25,16.91,20.7,36.59,5.28,23.34-2.67,41.98-5.39,47.7-5.29.51-13.05.55-21.66-2.19-20.9-6.66-39.96-27.57-35.27-39.47Z"/><path class="cls-35" d="M370.04,322.25c-.31-.09-.88.2-1.54.82-1.03.97-2.25,2.61-2.65,4.1-.05.19-.09.37-.12.55-.03.2-.05.4-.05.59,0,.23.02.45.06.67.05.27.14.52.26.75.13.25.3.48.5.69.23.24.51.45.82.63.04.02.12.07.16.09.05.03.16.09.22.11.11.06.23.11.34.16.27.12.56.22.86.3.55.16,1.12.26,1.66.3.41.04.8.04,1.15.02.29-.01.55-.04.77-.08.19-.04.34-.08.46-.13.09-.04.16-.09.2-.14.03-.04.05-.09.05-.14.03-.47-1.69-1.37-2.58-2.69-.21-.31-.38-.64-.5-1-.26-.78-.24-1.74-.09-2.67.19-1.2.5-2.26.3-2.7-.02-.05-.05-.09-.08-.13-.04-.05-.09-.08-.15-.1h-.02Z"/><path class="cls-8" d="M418.05,395.93c-3.68-14.04,6.31-30.05,22.67-32.75,7.98,3.36,15.96,6.72,23.93,10.08-5.46,13.86-10.92,27.71-16.38,41.57-14.07,2-27.04-6.71-30.23-18.9Z"/><path class="cls-17" d="M464.37,382.18c.06-.06,1.39,2.6,2.54,5.77.75,2.08,1.3,4.03,1.23,4.02-.06,0-.57-1.46-1.88-4.9-1.41-3.69-1.92-4.85-1.88-4.9Z"/><path class="cls-17" d="M271.56,670.59v31.84c-2.07-1.17-3.95-1.75-5.65-1.75-5.41,0-8.12,4.14-8.12,12.42v37.66h-29.77v-43.39c0-11.46,3.13-20.61,9.39-27.43,6.26-6.82,14.62-10.23,25.08-10.23,2.33,0,5.36.29,9.08.88Z"/><path class="cls-17" d="M324.42,720.98v30.81c-2.44.42-4.67.64-6.69.64-11.94,0-21.89-3.93-29.85-11.78-7.96-7.85-11.94-17.7-11.94-29.54s4.02-21.28,12.06-29.3c8.04-8.01,17.82-12.02,29.34-12.02,12.84,0,22.97,3.76,30.37,11.27,7.4,7.51,11.11,17.77,11.11,30.77v38.93h-29.77v-36.78c0-4.19-1.02-7.54-3.06-10.03-2.04-2.49-4.79-3.74-8.24-3.74-3.13,0-5.84,1.14-8.12,3.42-2.28,2.28-3.42,4.99-3.42,8.12,0,3.29,1.03,6,3.1,8.12,2.07,2.12,4.7,3.18,7.88,3.18,2.6,0,5.02-.69,7.24-2.07Z"/><path class="cls-17" d="M405.94,671.39v79.37h-29.77v-79.37h29.77ZM391.14,635.96c4.03,0,7.52,1.42,10.47,4.26,2.95,2.84,4.42,6.2,4.42,10.07,0,4.14-1.39,7.54-4.18,10.19-2.79,2.65-6.36,3.98-10.71,3.98s-7.92-1.33-10.71-3.98c-2.79-2.65-4.18-6.05-4.18-10.19,0-3.87,1.47-7.23,4.42-10.07,2.95-2.84,6.43-4.26,10.47-4.26Z"/><path class="cls-17" d="M472.34,642.09h29.77v66.16c0,12.15-3.18,22.05-9.55,29.69-3.66,4.41-8.32,7.91-13.97,10.51s-11.45,3.9-17.4,3.9c-11.84,0-21.81-3.98-29.93-11.94s-12.18-17.73-12.18-29.3,4.03-20.88,12.1-29.06c8.07-8.17,17.62-12.26,28.66-12.26,1.75,0,4.41.16,7.96.48v32.8c-2.44-1.91-4.88-2.87-7.32-2.87-3.08,0-5.72,1.13-7.92,3.38-2.2,2.26-3.3,4.98-3.3,8.16s1.14,5.72,3.42,7.92c2.28,2.2,5.02,3.3,8.2,3.3,7.64,0,11.46-5.28,11.46-15.84v-65.04Z"/><path class="cls-17" d="M555.45,669.71c11.25,0,20.9,4.05,28.94,12.14,8.04,8.09,12.06,17.79,12.06,29.1s-4.07,21.23-12.22,29.3c-8.15,8.07-17.98,12.1-29.5,12.1s-21.36-4.05-29.54-12.14c-8.17-8.09-12.26-17.84-12.26-29.26s4.09-21.4,12.26-29.34c8.17-7.93,18.26-11.9,30.25-11.9ZM554.66,699.09c-3.18,0-5.89,1.15-8.12,3.46-2.23,2.31-3.34,5.13-3.34,8.48s1.13,6.1,3.38,8.44c2.25,2.34,4.95,3.5,8.08,3.5s5.9-1.17,8.16-3.5c2.26-2.33,3.38-5.15,3.38-8.44s-1.11-6.17-3.34-8.48c-2.23-2.31-4.96-3.46-8.2-3.46Z"/><path class="cls-17" d="M333.77,795.5v31.37c-4.19,0-7.07.78-8.64,2.35-1.57,1.57-2.56,4.66-2.99,9.28-1.38,15.34-7.32,26.17-17.83,32.48-5.57,3.29-13.48,4.94-23.72,4.94h-4.14v-31.53h1.35c4.78,0,8.19-.99,10.23-2.98,2.04-1.99,3.22-5.48,3.54-10.47.42-8.12,1.18-13.83,2.27-17.12,1.09-3.29,3.3-6.55,6.65-9.79,5.84-5.68,13.93-8.52,24.28-8.52h9Z"/><path class="cls-17" d="M392.21,837.22l29.54-1.12c-.85,11.46-5.12,20.89-12.82,28.26-7.7,7.38-17.06,11.07-28.1,11.07-11.68,0-21.53-4.06-29.58-12.18-8.04-8.12-12.06-18.07-12.06-29.85s4.06-20.78,12.18-28.74c8.12-7.96,17.86-11.94,29.22-11.94,9.92,0,18.68,3.13,26.27,9.39,7.59,6.26,12.31,14.25,14.17,23.96l-30.17,1.12c-2.6-3.4-5.89-5.1-9.87-5.1-3.4,0-6.18,1.12-8.36,3.34-2.18,2.23-3.26,5.04-3.26,8.44s1.15,6.34,3.46,8.68c2.31,2.34,5.19,3.5,8.64,3.5,5.04,0,8.62-2.95,10.75-8.84Z"/><path class="cls-17" d="M464.49,765.09v33.2c5.04-3.66,10.08-5.49,15.12-5.49,7.64,0,13.71,2.76,18.19,8.28,4.48,5.52,6.73,12.98,6.73,22.37v50.31h-29.77v-41.96c0-3.4-.36-5.68-1.07-6.85-.72-1.17-2.11-1.75-4.18-1.75-3.34,0-5.02,2.47-5.02,7.4v43.15h-29.77v-108.67h29.77Z"/><path class="cls-17" d="M559.55,792.71c11.25,0,20.9,4.05,28.94,12.14,8.04,8.09,12.06,17.79,12.06,29.1s-4.07,21.23-12.22,29.3c-8.15,8.07-17.98,12.1-29.5,12.1s-21.36-4.05-29.54-12.14c-8.17-8.09-12.26-17.84-12.26-29.26s4.09-21.4,12.26-29.34c8.17-7.93,18.26-11.9,30.25-11.9ZM558.75,822.09c-3.18,0-5.89,1.15-8.12,3.46-2.23,2.31-3.34,5.13-3.34,8.48s1.13,6.1,3.38,8.44c2.25,2.34,4.95,3.5,8.08,3.5s5.9-1.17,8.16-3.5c2.26-2.33,3.38-5.15,3.38-8.44s-1.11-6.17-3.34-8.48c-2.23-2.31-4.96-3.46-8.2-3.46Z"/><path class="cls-17" d="M650.62,792.71c11.25,0,20.9,4.05,28.94,12.14,8.04,8.09,12.06,17.79,12.06,29.1s-4.07,21.23-12.22,29.3c-8.15,8.07-17.98,12.1-29.5,12.1s-21.36-4.05-29.54-12.14c-8.17-8.09-12.26-17.84-12.26-29.26s4.09-21.4,12.26-29.34c8.17-7.93,18.26-11.9,30.25-11.9ZM649.83,822.09c-3.18,0-5.89,1.15-8.12,3.46-2.23,2.31-3.34,5.13-3.34,8.48s1.13,6.1,3.38,8.44c2.25,2.34,4.95,3.5,8.08,3.5s5.9-1.17,8.16-3.5c2.26-2.33,3.38-5.15,3.38-8.44s-1.11-6.17-3.34-8.48c-2.23-2.31-4.96-3.46-8.2-3.46Z"/><path class="cls-17" d="M733.65,765.09h-29.3l-.31.54v108.13h29.78v-108.37l-.17-.3Z"/><polygon class="cls-17" points="733.82 765.39 733.82 765.7 704.04 765.7 704.04 765.63 704.35 765.09 713.81 748.7 719 739.72 724.19 748.7 733.65 765.09 733.82 765.39"/><path class="cls-27" d="M724.19,748.7c-1.55.83-3.31,1.3-5.19,1.3s-3.64-.47-5.19-1.3l5.19-8.98,5.19,8.98Z"/><rect class="cls-27" x="704" y="766" width="29.82" height="2"/><polygon class="cls-40" points="733.82 864 704.04 864 704 864 704 873 704.04 873 733.82 873 733.82 864"/></svg>