<?xml version="1.0" encoding="utf-8"?>
<!-- Generator: Adobe Illustrator 27.5.0, SVG Export Plug-In . SVG Version: 6.00 Build 0)  -->
<svg version="1.1" id="Layer_1" xmlns="http://www.w3.org/2000/svg" xmlns:xlink="http://www.w3.org/1999/xlink" x="0px" y="0px"
	 viewBox="0 0 2267.644 2000" style="enable-background:new 0 0 2267.644 2000;" xml:space="preserve">
<g>
	<g>
		<g>
			<rect x="0" y="0" style="fill:#FFFFFF;" width="2267.644" height="2000"/>
		</g>
	</g>
</g>
<g>
	<g>
		<g>
			<g>
				<g>
					<path style="fill:#FFEFE0;" d="M555.314,1863.079l-169.982,0.968c0,0-262.42-248.466-238.626-831.718
						c23.794-583.251,430.221-895.408,718.245-914.684c351.365-23.515,415.373,160.463,686.06,212.38
						c237.06,45.467,388.883,142.124,495.811,379.036c102.232,226.507,141.039,717.381-83.651,1154.018H555.314z"/>
				</g>
			</g>
		</g>
	</g>
	<g>
		<g>
			<g>
				<g>
					<g>
						<g>
							<path style="fill:#258D8C;" d="M841.576,1864.751c6.863-4.346,119.416-176.689,193.536-95.2
								c0,0,111.18-298.794,263.538-284.669c152.358,14.125,23.334,235.776,23.334,235.776s130.396-42.375,100.199,69.537
								c0,0,165.398-19.55,153.044,74.977L841.576,1864.751z"/>
						</g>
					</g>
				</g>
			</g>
			<g>
				<g>
					<g>
						<g>
							
								<ellipse transform="matrix(0.7851 -0.6194 0.6194 0.7851 -667.9374 1265.2571)" style="fill:#258D8C;" cx="1489.28" cy="1595.133" rx="51.438" ry="27.398"/>
						</g>
					</g>
				</g>
			</g>
			<g>
				<g>
					<g>
						<g>
							<path style="fill:#258D8C;" d="M1496.502,1655.89c-12.028,11.487-15.477,24.933-7.703,30.034
								c7.774,5.101,23.826-0.076,35.854-11.563c12.028-11.487,15.477-24.933,7.703-30.034
								C1524.582,1639.226,1508.53,1644.403,1496.502,1655.89z"/>
						</g>
					</g>
				</g>
			</g>
		</g>
		<g>
			<g>
				<g>
					<g>
						<path d="M1241.136,1529.714c-0.399,0-0.798-0.118-1.108-0.354c-0.633-0.484-0.651-1.283-0.039-1.784
							c1.113-0.912,27.579-22.339,55.964-22.339c0.006,0,0.009,0,0.009,0c0.887,0,1.6,0.566,1.6,1.263s-0.714,1.262-1.594,1.262
							c0,0-0.009,0-0.016,0c-27.02,0-53.407,21.352-53.67,21.568C1241.97,1529.585,1241.554,1529.714,1241.136,1529.714z"/>
					</g>
				</g>
			</g>
		</g>
		<g>
			<g>
				<g>
					<g>
						<path d="M1262.399,1527.992c-0.402,0-0.802-0.119-1.113-0.358c-0.63-0.486-0.644-1.285-0.029-1.785
							c0.51-0.414,12.771-10.174,38.442-13.276c0.877-0.104,1.683,0.368,1.816,1.057c0.133,0.689-0.465,1.333-1.335,1.438
							c-24.625,2.976-36.523,12.447-36.64,12.543C1263.228,1527.865,1262.814,1527.992,1262.399,1527.992z"/>
					</g>
				</g>
			</g>
		</g>
	</g>
	<g>
		<g>
			<g>
				<g>
					<g>
						<g>
							<path style="fill:#258D8C;" d="M718.068,1864.941c-3.777-2.392-65.714-97.231-106.502-52.388
								c0,0-61.182-164.425-145.024-156.652c-83.842,7.773-50.074,124.571-50.074,124.571c-10.25-6.5-38.25-6.25-27.5,26.667
								c-39.333-18.667-67.333,29.333-28,58.035L718.068,1864.941z"/>
						</g>
					</g>
				</g>
			</g>
		</g>
	</g>
	<g>
		<g>
			<g>
				<rect x="225.058" y="1861.879" style="fill:#4C222E;" width="1821.765" height="6.586"/>
			</g>
		</g>
	</g>
	<g>
		<g>
			<g>
				<path style="fill:#D0F6FC;" d="M1176.053,467.743c-0.012-0.43-0.033-0.857-0.064-1.282
					c-0.837-14.413-12.117-25.923-26.229-26.777c-0.417-0.031-0.836-0.052-1.257-0.065c-0.14-0.002-0.275-0.021-0.415-0.021H524.777
					c-0.14,0-0.275,0.019-0.415,0.021c-0.422,0.013-0.841,0.034-1.258,0.065c-14.111,0.854-25.392,12.365-26.229,26.777
					c-0.03,0.425-0.051,0.853-0.064,1.282c-0.002,0.143-0.021,0.281-0.021,0.425v1323.714c0,13.769,10.93,24.92,24.398,24.92
					h630.486c13.468,0,24.399-11.151,24.399-24.92V468.168C1176.074,468.025,1176.055,467.886,1176.053,467.743z M497.232,538.1
					v-39.985h40.729c1.179,0.542,2.474,0.847,3.833,0.847c1.373,0,2.681-0.305,3.846-0.847h21.316
					c1.166,0.542,2.473,0.847,3.846,0.847c1.373,0,2.681-0.305,3.846-0.847h21.316c1.166,0.542,2.474,0.847,3.846,0.847
					s2.681-0.305,3.846-0.847h449.441v0.847h73.7v-0.847h49.03V538.1H497.232z"/>
			</g>
		</g>
		<g>
			<g>
				<g>
					<g>
						<path style="fill:#20111D;" d="M1135.125,410.868H537.74c-38.436,0-69.608,31.824-69.608,71.096v1308.82
							c0,39.271,31.171,71.096,69.608,71.096h597.385c38.45,0,69.608-31.824,69.608-71.096V481.964
							C1204.733,442.693,1173.575,410.868,1135.125,410.868z M1176.074,1778.178c0,21.336-16.939,38.623-37.815,38.623h-603.64
							c-20.889,0-37.828-17.288-37.828-38.623V482.691c0-23.809,18.895-43.094,42.192-43.094h594.898
							c23.298,0,42.192,19.285,42.192,43.094V1778.178z"/>
					</g>
				</g>
			</g>
		</g>
		<g>
			<g>
				<path style="fill:#D0F6FC;" d="M1176.08,537.974v1253.912c0,13.763-10.935,24.919-24.41,24.919H521.194
					c-13.475,0-24.397-11.156-24.397-24.919V537.974h0.436v0.127h678.599v-0.127H1176.08z"/>
			</g>
			<g>
				<g>
					<path style="fill:#FFFFFF;" d="M672.474,538.101h-23.663l0.1,219.297H496.797v24.168h152.127l0.075,162.183H496.797v24.169
						h152.214l0.112,249.101H496.797v24.168h152.338l0.112,234.269h-152.45v24.168H649.26l0.149,317.18h23.663l-0.112-239.802
						h310.231v99.434H854.914v140.368h23.663v-116.2h297.503v-24.169h-169.226v-99.434h168.753v-24.168H848.675l-0.1-111.506
						h254.176l0.1-322.255h73.23v-24.168h-73.23l0.05-126.986h73.18V943.75h-73.18l0.05-162.183h73.13v-24.168h-73.118v-96.254
						h73.118v-24.168H672.524L672.474,538.101z M672.586,781.566h255.807v87.986c-37.587,5.355-67.402,35.808-72.645,74.197H672.661
						L672.586,781.566z M940.225,892.869c33.987,0,61.648,28.252,61.648,62.965c0,34.714-27.66,62.965-61.648,62.965
						c-33.987,0-61.648-28.252-61.648-62.965C878.577,921.12,906.238,892.869,940.225,892.869z M672.674,967.918h183.075
						c5.243,38.39,35.058,68.842,72.645,74.197v52.789H672.736L672.674,967.918z M672.948,1552.834l-0.199-433.761h151.865
						l0.399,433.761H672.948z M1079.088,1417.159H848.55l-0.274-298.087h230.911L1079.088,1417.159z M1079.188,1094.905H952.056
						v-52.789c37.587-5.355,67.402-35.807,72.645-74.197h54.536L1079.188,1094.905z M1079.237,943.75h-54.536
						c-5.243-38.39-35.058-68.842-72.645-74.197v-87.986h127.231L1079.237,943.75z M911.991,661.144H1079.3v96.254H911.991V661.144z
						 M888.329,757.398H672.574l-0.05-96.254h215.805V757.398z"/>
				</g>
			</g>
			<g>
				<g>
					<path style="fill:#80C4A4;" d="M998.136,1694.245H886.049v-10.176h102.124V1572.13H831.252v-147.555h254.063v-310.374H934.62
						v-76.475c-25.578-1.59-46.427-15.531-60.518-40.559c-8.106-14.398-11.861-28.664-13.339-35.609H655.649V791.107h9.963v160.275
						h203.556l0.636,4.333c0.027,0.179,2.854,18.593,13.079,36.631c13.298,23.461,32.382,35.357,56.72,35.357h4.982v76.322h150.695
						v330.727H841.215v127.203h156.922V1694.245z"/>
				</g>
			</g>
			<g>
				<rect x="694.256" y="800.011" style="fill:#D0F6FC;" width="212.965" height="41.977"/>
			</g>
			<g>
				<rect x="923.412" y="1168.898" style="fill:#D0F6FC;" width="46.08" height="41.977"/>
			</g>
			<g>
				<rect x="1112.714" y="1147.274" style="fill:#D0F6FC;" width="46.08" height="41.977"/>
			</g>
			<g>
				<rect x="957.038" y="1285.925" style="fill:#D0F6FC;" width="46.08" height="41.977"/>
			</g>
			<g>
				<rect x="1024.29" y="1607.747" style="fill:#D0F6FC;" width="46.08" height="41.977"/>
			</g>
			<g>
				<rect x="1117.696" y="1607.747" style="fill:#D0F6FC;" width="46.08" height="41.977"/>
			</g>
			<g>
				<rect x="903.485" y="1723.501" style="fill:#D0F6FC;" width="257.8" height="41.977"/>
			</g>
			<g>
				<rect x="506.2" y="1058.232" style="fill:#D0F6FC;" width="46.08" height="41.977"/>
			</g>
			<g>
				<rect x="702.974" y="1009.895" style="fill:#D0F6FC;" width="46.08" height="41.977"/>
			</g>
			<g>
				<rect x="506.2" y="1126.921" style="fill:#D0F6FC;" width="46.08" height="41.977"/>
			</g>
			<g>
				<rect x="801.362" y="1009.895" style="fill:#D0F6FC;" width="46.08" height="41.977"/>
			</g>
			<g>
				<rect x="1015.572" y="1037.88" style="fill:#D0F6FC;" width="46.08" height="41.977"/>
			</g>
			<g>
				<rect x="702.974" y="872.516" style="fill:#D0F6FC;" width="46.08" height="41.977"/>
			</g>
			<g>
				<rect x="790.153" y="872.516" style="fill:#D0F6FC;" width="46.08" height="41.977"/>
			</g>
			<g>
				<rect x="1015.572" y="805.099" style="fill:#D0F6FC;" width="46.08" height="41.977"/>
			</g>
			<g>
				<rect x="825.024" y="688.073" style="fill:#D0F6FC;" width="46.08" height="41.977"/>
			</g>
			<g>
				<rect x="516.163" y="800.011" style="fill:#D0F6FC;" width="118.314" height="41.977"/>
			</g>
			<g>
				<rect x="516.163" y="886.508" style="fill:#D0F6FC;" width="118.314" height="41.977"/>
			</g>
			<g>
				<rect x="506.2" y="989.542" style="fill:#D0F6FC;" width="118.314" height="41.977"/>
			</g>
			<g>
				<rect x="580.924" y="551.966" style="fill:#D0F6FC;" width="46.08" height="178.084"/>
			</g>
			<g>
				<rect x="506.2" y="551.966" style="fill:#D0F6FC;" width="46.08" height="178.084"/>
			</g>
			<g>
				<rect x="979.455" y="688.073" style="fill:#D0F6FC;" width="46.08" height="41.977"/>
			</g>
			<g>
				<rect x="695.502" y="572.318" style="fill:#D0F6FC;" width="480.728" height="41.977"/>
			</g>
			<g>
				<rect x="757.772" y="688.073" style="fill:#D0F6FC;" width="46.08" height="41.977"/>
			</g>
			<g>
				<rect x="690.52" y="688.073" style="fill:#D0F6FC;" width="46.08" height="41.977"/>
			</g>
			<g>
				<rect x="863.632" y="1455.104" style="fill:#D0F6FC;" width="99.633" height="41.977"/>
			</g>
			<g>
				<rect x="757.772" y="1147.274" style="fill:#D0F6FC;" width="46.08" height="146.283"/>
			</g>
			<g>
				<rect x="587.151" y="1530.153" style="fill:#D0F6FC;" width="46.08" height="146.283"/>
			</g>
			<g>
				<rect x="690.52" y="1593.755" style="fill:#D0F6FC;" width="46.08" height="146.283"/>
			</g>
			<g>
				<rect x="790.153" y="1661.172" style="fill:#D0F6FC;" width="46.08" height="146.283"/>
			</g>
			<g>
				
					<rect x="854.422" y="1549.838" transform="matrix(-1.836970e-16 1 -1 -1.836970e-16 2515.594 759.6851)" style="fill:#D0F6FC;" width="47.065" height="175.603"/>
			</g>
			<g>
				<rect x="592.133" y="1701.877" style="fill:#D0F6FC;" width="46.08" height="63.601"/>
			</g>
			<g>
				<rect x="757.772" y="1345.71" style="fill:#D0F6FC;" width="46.08" height="41.977"/>
			</g>
			<g>
				<rect x="891.031" y="1360.974" style="fill:#D0F6FC;" width="132.013" height="41.977"/>
			</g>
			<g>
				<rect x="1023.044" y="1142.186" style="fill:#D0F6FC;" width="46.08" height="260.765"/>
			</g>
			<g>
				<rect x="980.701" y="1455.104" style="fill:#D0F6FC;" width="132.013" height="41.977"/>
			</g>
			<g>
				<rect x="1112.714" y="1236.316" style="fill:#D0F6FC;" width="46.08" height="260.765"/>
			</g>
			<g>
				<rect x="577.188" y="1264.3" style="fill:#D0F6FC;" width="46.08" height="41.977"/>
			</g>
			<g>
				<rect x="506.2" y="1264.3" style="fill:#D0F6FC;" width="46.08" height="41.977"/>
			</g>
			<g>
				<rect x="506.2" y="1413.127" style="fill:#D0F6FC;" width="46.08" height="41.977"/>
			</g>
			<g>
				<rect x="757.772" y="1425.847" style="fill:#D0F6FC;" width="46.08" height="41.977"/>
			</g>
			<g>
				<path style="fill:#ED2B47;" d="M629.945,716.178l29.879,60.575l31.364-59.787c9.285-21.93-5.62-46.95-28.993-47.942
					c-0.346-0.015-0.693-0.024-1.041-0.029c-0.348-0.005-0.696-0.004-1.042,0.002C636.722,669.388,621.204,694.016,629.945,716.178z
					 M660.919,687.983c8.556,0.11,15.405,7.284,15.297,16.023c-0.108,8.739-7.131,15.734-15.688,15.624
					c-8.556-0.11-15.405-7.284-15.297-16.023C645.339,694.868,652.363,687.873,660.919,687.983z"/>
			</g>
			<g>
				<path style="fill:#ED2B47;" d="M839.174,1640.941l29.879,60.575l31.364-59.787c9.285-21.93-5.62-46.95-28.993-47.942
					c-0.346-0.015-0.693-0.024-1.041-0.029c-0.348-0.005-0.696-0.004-1.042,0.002
					C845.951,1594.15,830.433,1618.778,839.174,1640.941z M870.148,1612.746c8.556,0.11,15.405,7.284,15.297,16.023
					c-0.108,8.739-7.132,15.734-15.688,15.624c-8.556-0.11-15.405-7.284-15.297-16.023
					C854.568,1619.631,861.592,1612.636,870.148,1612.746z"/>
			</g>
		</g>
		<g>
			<g>
				<path style="fill:#4CB7D8;" d="M1147.438,439.598H525.181c-15.677,0-28.39,12.976-28.39,28.994V538.1h0.44h678.351h0.246
					v-69.508C1175.828,452.573,1163.115,439.598,1147.438,439.598z"/>
			</g>
		</g>
		<g style="opacity:0.7;">
			<g>
				<g>
					<g>
						<path style="fill:#FFFFFF;" d="M552.332,489.384c0,3.889-2.315,7.236-5.648,8.73c-1.19,0.542-2.526,0.847-3.929,0.847
							c-1.389,0-2.711-0.305-3.915-0.847c-3.333-1.482-5.661-4.841-5.661-8.73c0-5.291,4.299-9.577,9.576-9.577
							C548.046,479.808,552.332,484.093,552.332,489.384z"/>
					</g>
				</g>
			</g>
			<g>
				<g>
					<g>
						<path style="fill:#FFFFFF;" d="M581.961,489.384c0,3.889-2.315,7.236-5.648,8.73c-1.19,0.542-2.526,0.847-3.928,0.847
							c-1.402,0-2.738-0.305-3.929-0.847c-3.333-1.494-5.648-4.841-5.648-8.73c0-5.291,4.286-9.577,9.577-9.577
							S581.961,484.093,581.961,489.384z"/>
					</g>
				</g>
			</g>
			<g>
				<g>
					<g>
						<path style="fill:#FFFFFF;" d="M611.589,489.384c0,3.889-2.315,7.236-5.648,8.73c-1.19,0.542-2.526,0.847-3.928,0.847
							c-1.402,0-2.738-0.305-3.928-0.847c-3.333-1.494-5.648-4.841-5.648-8.73c0-5.291,4.286-9.577,9.576-9.577
							C607.304,479.808,611.589,484.093,611.589,489.384z"/>
					</g>
				</g>
			</g>
			<g>
				<g>
					<g>
						<g>
							<path style="fill:#FFFFFF;" d="M1064.987,472.15v6.838h-3.876v11.732h3.876v8.241h75.275V472.15H1064.987z M1067.567,474.345
								h70.117v22.433h-70.117V474.345z"/>
						</g>
					</g>
				</g>
			</g>
			<g>
				<g>
					<g>
						<g>
							<rect x="1125.982" y="477.838" style="fill:#FFFFFF;" width="7.438" height="15.329"/>
						</g>
					</g>
				</g>
			</g>
			<g>
				<g>
					<g>
						<g>
							<rect x="1113.508" y="477.838" style="fill:#FFFFFF;" width="7.438" height="15.329"/>
						</g>
					</g>
				</g>
			</g>
			<g>
				<g>
					<g>
						<g>
							<rect x="1100.692" y="477.838" style="fill:#FFFFFF;" width="7.438" height="15.329"/>
						</g>
					</g>
				</g>
			</g>
		</g>
	</g>
	<g>
		<path style="fill:#FE9F73;" d="M2267.644,664.069c-489.265,166.4-540.96,179.371-579.457,175.347l-71.551-17.639l-9.073,6.408
			l-0.415-0.959c0,0-1.784,2.519-4.91,6.929l-27.433,30.754l2.612,4.237c-29.768,41.934-202.536,44.293-214.216,60.092
			c-18.363,24.841-229.327,76.083-226.04,107.052c3.287,30.971,279.461,264.046,279.461,264.046s132.909-11.775,159.778-29.756
			c15.082-10.092,218.181-88.676,218.181-88.676c14.036-6.653,17.946-10.122,52.716-32.163
			c12.237-7.758,70.623-28.746,84.597-32.574c95.567-26.178,217.779-52.727,335.749-77.725V664.069z"/>
		<g>
			<path d="M1623.302,1063.395c0.228-0.351,0.362-0.769,0.367-1.218c0.014-1.264-0.998-2.3-2.262-2.316
				c-0.26-0.003-26.469-0.481-67.079-14.874c-37.488-13.287-95.265-41.49-157.624-100.392c-0.919-0.868-2.368-0.827-3.236,0.092
				c-0.87,0.919-0.827,2.368,0.092,3.236c63.04,59.545,121.524,88.044,159.485,101.466c41.262,14.589,67.225,15.038,68.311,15.05
				C1622.17,1064.448,1622.889,1064.031,1623.302,1063.395z"/>
		</g>
		<g>
			<path d="M1796.109,1183.279c0.158-0.427,0.164-0.911-0.018-1.367c-0.391-0.979-1.501-1.455-2.479-1.065l-212.264,84.76
				c-0.979,0.391-1.456,1.501-1.064,2.479c0.391,0.979,1.501,1.455,2.479,1.065l212.264-84.76
				C1795.549,1184.182,1795.928,1183.768,1796.109,1183.279z"/>
		</g>
		<g>
			<path style="fill:#EF3A4C;" d="M1108.319,907.864l-25.325,39.794l-1.664,2.614l-25.325,39.794l432.138,319.235
				c12.154,8.978,29.37,5.776,37.483-6.972l64.451-101.275c8.113-12.748,3.723-29.701-9.558-36.908L1108.319,907.864z"/>
			<path style="fill:#3F9896;" d="M1122.609,906.518l-56.808,89.266c-3.539,5.562-18.91,12.146-24.471,8.607l-44.875-26.613
				l75.05-117.93l47.443,30.193C1124.509,893.579,1126.148,900.956,1122.609,906.518z"/>
			<path style="fill:#21111D;" d="M1108.61,932.842l-40.853,64.194c-7.211,11.331-22.298,14.683-33.629,7.472l-38.922-24.77
				l2.496-3.921l38.922,24.77c9.17,5.835,21.377,3.123,27.212-6.047l40.853-64.194L1108.61,932.842z"/>
			
				<ellipse transform="matrix(0.9761 -0.2171 0.2171 0.9761 -150.0508 195.5619)" style="opacity:0.5;fill:#88DFED;" cx="814.993" cy="780.674" rx="255.361" ry="255.572"/>
			
				<ellipse transform="matrix(0.9252 -0.3796 0.3796 0.9252 -175.7987 328.9627)" style="opacity:0.57;fill:#F3FFFE;" cx="746.344" cy="610.304" rx="95.958" ry="45.828"/>
			
				<rect x="1277.544" y="888.088" transform="matrix(0.5957 -0.8032 0.8032 0.5957 -410.0048 1494.8223)" style="fill:#21111D;" width="4.646" height="533.196"/>
			<path style="fill:#3F9896;" d="M677.831,996.201c-119.033-75.752-154.118-233.655-78.367-352.688
				c75.752-119.033,233.656-154.119,352.688-78.366c119.033,75.751,154.119,233.655,78.367,352.688
				C954.768,1036.868,796.864,1071.954,677.831,996.201z M1064.795,939.648c87.799-137.963,47.134-320.978-90.829-408.776
				c-137.962-87.799-320.977-47.134-408.776,90.829c-87.799,137.963-47.133,320.978,90.829,408.776
				C793.981,1118.276,976.996,1077.61,1064.795,939.648z"/>
			<path style="fill:#21111D;" d="M1066.756,940.896c-88.346,138.822-273.162,179.888-411.984,91.542
				c-138.824-88.347-179.889-273.163-91.543-411.985c41.417-65.081,105.46-111.079,180.334-129.525l1.111,4.511
				c-73.705,18.159-136.752,63.443-177.523,127.51c-86.97,136.66-46.543,318.597,90.117,405.568
				c136.661,86.97,318.597,46.544,405.567-90.116c40.368-63.432,54.828-139.019,40.718-212.834l4.564-0.873
				C1122.451,799.677,1107.762,876.46,1066.756,940.896z"/>
		</g>
		<g>
			<path style="fill:#FE9F73;" d="M1324.295,920.508l131.185,38.259l205.36-126.426c0,0-177.383-60.905-211.668-54.597
				c-34.285,6.307-101.2,24.086-137.036,24.274c-35.835,0.188-68.063,33.003-105.256,55.044
				c-37.193,22.041-82.234-1.286-83.287,31.856c-1.053,33.142,53.919,78.016,106.851,61.784
				C1283.378,934.468,1324.295,920.508,1324.295,920.508z"/>
		</g>
		<g>
			<path d="M1670.748,835.998c0.007-0.018,0.013-0.036,0.013-0.036c0.341-1.017-0.196-2.099-1.195-2.434
				c-0.755-0.254-76.347-25.606-145.312-45.108c-60.79-17.191-77.033-13.279-103.943-6.798c-4.147,0.999-8.437,2.032-13.213,3.064
				c-18.236,3.936-39.073,6.64-59.223,9.255c-18.734,2.431-36.429,4.727-49.544,7.754c-26.946,6.221-82.39,48.402-84.738,50.194
				c-0.837,0.64-0.997,1.837-0.358,2.674c0.64,0.837,1.837,0.998,2.674,0.358c0.568-0.434,57.135-43.473,83.28-49.509
				c12.932-2.985,30.537-5.27,49.176-7.688c20.229-2.625,41.145-5.339,59.537-9.31c4.821-1.04,9.133-2.079,13.302-3.083
				c26.304-6.336,42.182-10.16,102.011,6.759c68.877,19.478,144.381,44.801,145.135,45.054
				C1669.331,837.474,1670.392,836.962,1670.748,835.998z"/>
		</g>
		<g>
			<path d="M1325.906,921.101c0.145-0.393,0.162-0.836,0.019-1.264c-0.333-0.999-1.414-1.539-2.413-1.205l-38.622,12.903
				c-72.36,30.584-106.498,15.541-106.834,15.385c-28.608-12.488-41.556-28.359-47.389-39.478
				c-6.295-12.002-5.885-21.205-5.88-21.296c0.056-1.05-0.749-1.95-1.799-2.009c-1.05-0.059-1.949,0.741-2.01,1.791
				c-0.024,0.409-0.506,10.151,6.179,23.034c6.091,11.738,19.593,28.455,49.33,41.435c1.379,0.647,35.71,15.986,109.819-15.32
				l38.413-12.827C1325.292,922.06,1325.713,921.625,1325.906,921.101z"/>
		</g>
		<g>
			<path style="fill:#F07162;" d="M1135.019,896.378c-1.916-8.237-2.894-16.086-3.286-23.267c13.164-7.591,40.199-1.3,65.672-11.424
				l-0.001,0.012c0,0,1.876,13.489-2.351,24.944c-4.227,11.455-9.995,13.728-9.995,13.728l0,0l-35.261,5.107
				C1142.955,906.469,1136.44,902.489,1135.019,896.378z"/>
		</g>
		<g>
			<g>
				<g>
					<path d="M1659.072,895.411c0.207-0.561,0.121-1.213-0.283-1.711c-13.594-16.732-46.411-26.866-47.802-27.289
						c-0.925-0.281-1.895,0.242-2.183,1.164c-0.281,0.924,0.239,1.902,1.164,2.183c0.331,0.101,33.187,10.249,46.105,26.149
						c0.61,0.75,1.711,0.864,2.461,0.254C1658.787,895.956,1658.967,895.695,1659.072,895.411z"/>
				</g>
			</g>
			<g>
				<g>
					<path d="M1661.871,919.413c0.162-0.439,0.149-0.94-0.077-1.391c-9.666-19.272-39.523-36.247-40.789-36.96
						c-0.842-0.474-1.909-0.176-2.383,0.666c-0.479,0.843-0.176,1.909,0.665,2.383c0.301,0.169,30.193,17.167,39.378,35.48
						c0.434,0.864,1.485,1.213,2.348,0.779C1661.427,920.164,1661.722,919.815,1661.871,919.413z"/>
				</g>
			</g>
		</g>
		<g>
			<path d="M1295.713,860.747c0.126-0.341,0.156-0.722,0.065-1.102c-4.346-18.193-1.812-40.456-1.786-40.679
				c0.123-1.047-0.626-1.995-1.672-2.117c-1.047-0.122-1.996,0.63-2.117,1.673c-0.11,0.937-2.638,23.164,1.864,42.01
				c0.245,1.025,1.274,1.657,2.299,1.412C1295.01,861.79,1295.499,861.325,1295.713,860.747z"/>
		</g>
		<g>
			<path d="M1311.846,854.499c0.126-0.341,0.156-0.722,0.065-1.102c-4.346-18.193-1.812-40.456-1.785-40.679
				c0.122-1.047-0.626-1.995-1.673-2.117c-1.046-0.122-1.991,0.631-2.117,1.673c-0.11,0.937-2.637,23.164,1.864,42.01
				c0.245,1.025,1.274,1.657,2.299,1.412C1311.144,855.542,1311.633,855.078,1311.846,854.499z"/>
		</g>
		<g>
			<g>
				<path style="fill:#FE9F73;" d="M1166.232,1223.936c21.392,23.487,52.165,29.064,67.049,15.398l154.498-138.521
					c18.452-16.541,20.817-46.151,3.833-67.272c-18.61-23.147-51.143-27.086-71.036-9.25l-151.083,135.46
					c-18.228,16.343-20.403,44.415-4.38,62.925C1165.477,1223.096,1165.85,1223.516,1166.232,1223.936z"/>
			</g>
			<g>
				<path style="fill:#FE9F73;" d="M1250.812,1278.378c20.974,23.854,51.975,29.449,56.982,25.15l167.271-143.754
					c18.799-16.152,21.734-45.659,5.129-67.069c-18.195-23.461-50.702-28.024-70.968-10.603l-160.056,142.48
					c-3.958,3.544-8.429,10.623-9.483,15.83C1237.862,1249.429,1238.018,1263.826,1250.812,1278.378z"/>
			</g>
			<g>
				<path style="fill:#FE9F73;" d="M1349.701,1311.848c16.429,19.095,38.563,25.024,56.86,10.535l122.286-102.398
					c15.074-12.621,17.68-35.97,4.696-53.087c-14.227-18.759-39.994-22.678-56.245-9.067l-132.57,113.954
					c-2.282,1.962-3.868,4.615-4.469,7.564C1338.881,1286.112,1338.493,1298.821,1349.701,1311.848z"/>
			</g>
			<g>
				<path style="fill:#FE9F73;" d="M1116.352,1145.614c17.662,19.392,36.814,26.443,47.354,19.889l135.565-121.545
					c15.234-13.657,17.187-38.104,3.165-55.543c-15.366-19.111-42.225-22.364-58.651-7.635l-125.444,112.47
					c-14.129,12.668-16.332,34.188-4.682,49.168C1114.489,1143.485,1115.385,1144.552,1116.352,1145.614z"/>
			</g>
		</g>
		<g>
			<g>
				<g>
					<path d="M1482.115,1093.951c0.516-0.794,0.501-1.859-0.112-2.65c-9.569-12.339-23.608-20.279-38.518-21.783
						c-13.35-1.347-26.047,2.505-35.752,10.847l-126.607,113.354c-0.942,0.843-1.022,2.29-0.178,3.233
						c0.844,0.942,2.291,1.022,3.233,0.178l126.572-113.323c8.709-7.486,20.183-10.953,32.272-9.733
						c13.667,1.379,26.556,8.681,35.36,20.033c0.775,0.999,2.213,1.181,3.212,0.406
						C1481.806,1094.352,1481.979,1094.161,1482.115,1093.951z"/>
				</g>
				<g>
					<path d="M1333.687,1284.172c0.539-0.831,0.493-1.949-0.185-2.738c-0.824-0.959-2.27-1.068-3.229-0.244l-19.368,16.645
						c-10.868,9.053-38.158,2.023-58.375-20.969c-0.835-0.95-2.281-1.043-3.231-0.208c-0.949,0.835-1.042,2.282-0.208,3.231
						c22.551,25.647,52.234,31.884,64.77,21.441l19.395-16.667C1333.428,1284.516,1333.571,1284.351,1333.687,1284.172z"/>
				</g>
			</g>
			<g>
				<g>
					<path d="M1535.465,1168.145c0.51-0.786,0.502-1.84-0.097-2.63c-7.558-9.966-18.745-16.454-30.693-17.803
						c-10.718-1.209-20.963,1.761-28.846,8.364l-132.592,113.973c-0.958,0.824-1.068,2.269-0.244,3.228
						c0.824,0.959,2.269,1.068,3.228,0.244l132.569-113.954c6.892-5.771,15.91-8.373,25.371-7.305
						c10.709,1.208,20.753,7.047,27.559,16.02c0.764,1.007,2.2,1.205,3.207,0.44
						C1535.144,1168.558,1535.324,1168.362,1535.465,1168.145z"/>
				</g>
			</g>
			<g>
				<g>
					<path d="M1307.645,1037.667c9.709-14.962,8.78-35.507-3.425-50.686c-0.792-0.985-2.233-1.142-3.219-0.35
						c-0.987,0.794-1.141,2.234-0.35,3.219c13.047,16.226,11.769,39.244-2.909,52.403l-80.746,72.395
						c-0.941,0.844-1.02,2.292-0.176,3.233c0.844,0.941,2.292,1.02,3.233,0.176l80.746-72.395
						C1303.478,1043.261,1305.762,1040.568,1307.645,1037.667z"/>
				</g>
				<g>
					<path d="M1165.626,1166.751c0.468-0.721,0.509-1.678,0.024-2.457c-0.668-1.074-2.08-1.403-3.153-0.735
						c-10.038,6.242-28.317-1.771-44.452-19.487c-0.851-0.935-2.299-1.002-3.234-0.151c-0.934,0.851-1.002,2.299-0.151,3.234
						c17.926,19.681,38.122,27.836,50.255,20.292C1165.21,1167.264,1165.449,1167.024,1165.626,1166.751z"/>
				</g>
			</g>
		</g>
		<g>
			<path d="M1404.383,1059.099c0.276-0.425,0.413-0.945,0.355-1.488c-2.366-22.143-23.878-40.782-42.452-45.352
				c-16.34-4.02-34.12,2.153-43.239,10.328c-7.792,6.987-39.612,36.076-39.932,36.368c-0.932,0.852-0.998,2.301-0.145,3.234
				c0.853,0.933,2.301,0.998,3.234,0.145c0.32-0.293,32.124-29.367,39.9-36.338c8.022-7.193,24.448-12.893,39.088-9.291
				c14.318,3.523,36.613,19.115,38.993,41.393c0.134,1.257,1.263,2.168,2.52,2.033
				C1403.418,1060.054,1404.02,1059.657,1404.383,1059.099z"/>
		</g>
		<g>
			<path d="M1235.202,1240.58c0.536-0.827,0.494-1.94-0.177-2.729c-0.819-0.963-2.264-1.08-3.227-0.261
				c-16.004,13.609-42.187,3.225-55.881-7.075c-1.01-0.76-2.446-0.557-3.206,0.454c-0.764,1.011-0.557,2.446,0.454,3.205
				c14.871,11.185,43.548,22.253,61.6,6.904C1234.938,1240.93,1235.084,1240.762,1235.202,1240.58z"/>
		</g>
		<path style="fill:#F07162;" d="M1270.936,1052.028l27.944-26.616c5.599-5.254,4.075-23.595-5.791-34.108
			c-9.866-10.513-28.073-13.198-33.672-7.943l-27.944,26.616c-4.098,3.846,0.064,17.266,9.565,27.6
			C1251.039,1048.457,1266.622,1056.076,1270.936,1052.028z"/>
		<path style="fill:#F07162;" d="M1362.629,1096.218l26.41-21.761c5.599-5.254,2.617-25.149-8.707-37.215
			c-11.324-12.067-30.99-16.306-36.589-11.051l-24.513,23.399c-6.655,5.085-2.061,21.875,8.86,33.723
			C1339.586,1095.785,1354.621,1100.867,1362.629,1096.218z"/>
		<path style="fill:#F07162;" d="M1451.911,1160.017l27.915-26.647c5.599-5.254,2.617-25.149-8.707-37.216
			c-11.324-12.067-30.99-16.305-36.589-11.051l-27.916,26.647c-4.098,3.846,1.342,18.627,12.262,30.475
			C1430.373,1154.697,1447.597,1164.065,1451.911,1160.017z"/>
		<path style="fill:#F07162;" d="M1509.082,1224.778l24.386-22.336c4.89-4.403,2.686-21.499-6.802-32.037
			c-9.488-10.538-26.261-14.516-31.151-10.114l-24.386,22.336c-3.579,3.222,0.82,15.982,9.967,26.325
			C1490.724,1219.841,1505.314,1228.17,1509.082,1224.778z"/>
	</g>
</g>
</svg>
