<svg version="1.2" xmlns="http://www.w3.org/2000/svg" viewBox="0 0 500 500" width="500" height="500">
	<title>Search-rafiki-svg</title>
	<style>
		.s0 { fill: #e0e0e0 } 
		.s1 { fill: #f0f0f0 } 
		.s2 { fill: #fafafa } 
		.s3 { fill: #e6e6e6 } 
		.s4 { fill: #f5f5f5 } 
		.s5 { fill: #0076cd } 
		.s6 { fill: #ffffff } 
		.s7 { opacity: .4;fill: #000000 } 
		.s8 { opacity: .5;fill: #ffffff } 
		.s9 { opacity: .7;fill: #ffffff } 
		.s10 { opacity: .3;fill: #ffffff } 
		.s11 { fill: #e4897b } 
		.s12 { opacity: .4;fill: #fafafa } 
		.s13 { opacity: .3;fill: #000000 } 
		.s14 { fill: #263238 } 
		.s15 { fill: #de5753 } 
		.s16 { opacity: .1;fill: #000000 } 
		.s17 { fill: #203048 } 
		.s18 { fill: #ce6f64 } 
		.s19 { fill: #161f33 } 
		.s20 { opacity: .2;fill: #000000 } 
	</style>
	<g id="freepik--background-complete--inject-9">
		<path id="Layer" class="s0" d="m-50 423.9h602v0.3h-602z"/>
		<path id="Layer" class="s0" d="m365.3 435h41.4v0.3h-41.4z"/>
		<path id="Layer" class="s0" d="m432.1 434.1h23.3v0.3h-23.3z"/>
		<path id="Layer" class="s0" d="m216.9 434.8h30.9v0.3h-30.9z"/>
		<path id="Layer" class="s0" d="m249 439.1h21.1v0.3h-21.1z"/>
		<path id="Layer" class="s0" d="m60.4 431.8h63.8v0.3h-63.8z"/>
		<path id="Layer" fill-rule="evenodd" class="s0" d="m235.3 370.2h-232.4q-1.4 0-2.7-0.5-1.2-0.6-2.2-1.5-1-1-1.5-2.3-0.5-1.2-0.5-2.6v-326.8q0-1.3 0.5-2.6 0.6-1.2 1.5-2.2 1-0.9 2.3-1.5 1.2-0.5 2.6-0.5h232.4q1.4 0 2.7 0.5 1.2 0.6 2.2 1.5 1 1 1.5 2.3 0.5 1.2 0.5 2.6v326.7q0 1.4-0.5 2.6-0.5 1.3-1.5 2.3-1 0.9-2.2 1.5-1.3 0.5-2.7 0.5zm-232.4-340.2q-1.3 0-2.5 0.5-1.3 0.5-2.2 1.4-0.9 0.9-1.4 2.1-0.5 1.2-0.5 2.5v326.8q0 1.3 0.5 2.5 0.5 1.2 1.4 2.2 0.9 0.9 2.2 1.4 1.2 0.5 2.5 0.5h232.4q1.3 0 2.5-0.5 1.2-0.5 2.2-1.4 0.9-1 1.4-2.2 0.5-1.2 0.5-2.5v-326.8q0-1.3-0.5-2.5-0.5-1.2-1.4-2.1-1-0.9-2.2-1.4-1.2-0.5-2.5-0.5z"/>
		<path id="Layer" fill-rule="evenodd" class="s0" d="m495.7 370.2h-232.4q-1.4 0-2.7-0.5-1.2-0.6-2.2-1.5-1-1-1.5-2.3-0.5-1.2-0.5-2.6v-326.8q0-1.3 0.5-2.6 0.6-1.2 1.5-2.2 1-0.9 2.3-1.5 1.2-0.5 2.6-0.5h232.4q1.4 0 2.7 0.5 1.2 0.6 2.2 1.5 0.9 1 1.5 2.2 0.5 1.3 0.5 2.6v326.8q0 1.4-0.5 2.6-0.6 1.3-1.5 2.3-1 0.9-2.2 1.5-1.3 0.5-2.7 0.5zm-232.4-340.2q-1.3 0-2.5 0.5-1.3 0.5-2.2 1.4-0.9 0.9-1.4 2.1-0.5 1.2-0.5 2.5v326.8q0 1.3 0.5 2.5 0.5 1.2 1.4 2.2 0.9 0.9 2.2 1.4 1.2 0.5 2.5 0.5h232.4q1.3 0 2.6-0.5 1.2-0.5 2.1-1.4 0.9-1 1.4-2.2 0.5-1.2 0.5-2.5v-326.8q0-1.3-0.5-2.5-0.5-1.2-1.4-2.1-0.9-0.9-2.1-1.4-1.3-0.5-2.6-0.5z"/>
		<path id="Layer" class="s0" d="m291.1 58.9h181.4v156h-181.4z"/>
		<path id="Layer" class="s1" d="m295.1 58.9h181.5v156h-181.5z"/>
		<path id="Layer" class="s2" d="m302.4 66.3h166.9v141.3h-166.9z"/>
		<path id="Layer" class="s0" d="m405.1 66.3h10.9v141.3h-10.9z"/>
		<path id="Layer" class="s0" d="m347.7 66.3h10.9v141.3h-10.9z"/>
		<path id="Layer" class="s1" d="m408.9 60.8h10.9v151.4h-10.9z"/>
		<path id="Layer" class="s1" d="m351.5 60.8h10.9v151.4h-10.9z"/>
		<path id="Layer" class="s0" d="m466.3 66.2h3v141.4h-3z"/>
		<path id="Layer" class="s0" d="m163.5 182.1c0 0-22.1-38 8.6-68.3 0 0 8 5.2 7.8 12.2-0.1 7-8.5 8.8-6.7 14.6 1.8 5.9 9.8 11.6 4.5 16.4-5.2 4.9 0.9 9.1 0.5 15.1-0.3 5.9-14.7 10-14.7 10z"/>
		<path id="Layer" class="s3" d="m167 188.3c0 0 8.9-43-29.7-62.1 0 0-5.9 7.4-3.6 14.1 2.3 6.6 10.9 5.6 11 11.7 0.1 6.1-5.6 14.1 0.9 17 6.4 3 2 8.9 4.2 14.5 2.3 5.5 17.2 4.8 17.2 4.8z"/>
		<path id="Layer" class="s1" d="m147.3 177.4c0 0 0.4 37.2 15.3 37.2 14.8 0 15.2-37.2 15.2-37.2z"/>
		<path id="Layer" class="s3" d="m58 200.6c0 0 0.8 14 32.6 14 31.7 0 32.5-14 32.5-14z"/>
		<path id="Layer" class="s1" d="m372.1 288.1c0-1.7 1.4-3.1 3.2-3.1h18c1.8 0 3.2 1.4 3.2 3.1v29c0 1.7-1.4 3.1-3.2 3.1h-18c-1.8 0-3.2-1.4-3.2-3.1z"/>
		<path id="Layer" class="s3" d="m423.3 298.6c0-1.2 0.9-2.1 2.1-2.1h12.2c1.1 0 2.1 0.9 2.1 2.1v19.5c0 1.2-1 2.1-2.1 2.1h-12.2c-1.2 0-2.1-0.9-2.1-2.1z"/>
		<path id="Layer" class="s1" d="m423.3 294.9c0-0.4 0.3-0.7 0.7-0.7h15c0.3 0 0.7 0.3 0.7 0.7v1.2c0 0.4-0.4 0.8-0.7 0.8h-15c-0.4 0-0.7-0.4-0.7-0.8z"/>
		<path id="Layer" class="s3" d="m333.3 300.6c0 0 0.6 19.6 23.6 19.6 23 0 23.6-19.6 23.6-19.6z"/>
		<path id="Layer" class="s0" d="m276.2 267.8h34.8v6.9h-34.8z"/>
		<path id="Layer" class="s1" d="m311 267.8h172.9v6.9h-172.9z"/>
		<path id="Layer" class="s0" d="m276.2 320.2h34.8v6.9h-34.8z"/>
		<path id="Layer" class="s1" d="m311 320.2h172.9v6.9h-172.9z"/>
		<path id="Layer" class="s0" d="m282.3 274.7h6.4v149.2h-6.4z"/>
		<path id="Layer" class="s1" d="m311 274.7h6.4v149.2h-6.4z"/>
		<path id="Layer" class="s0" d="m455.2 274.7h6.4v149.2h-6.4z"/>
		<path id="Layer" class="s1" d="m477.5 274.7h6.4v149.2h-6.4z"/>
		<path id="Layer" class="s3" d="m25.1 223.3h32.9v191.6h-32.9z"/>
		<path id="Layer" class="s3" d="m31.4 414.8h162.2v9.1h-162.2z"/>
		<path id="Layer" class="s1" d="m199.9 414.8h-141.9v-191.5h141.9z"/>
		<path id="Layer" class="s3" d="m187 342.5h-116.1v-46.8h116.1z"/>
		<path id="Layer" class="s3" d="m187 397.8h-116.1v-46.8h116.1z"/>
		<path id="Layer" class="s1" d="m142 300.8h-26.1q-0.6 0-1.2-0.2-0.6-0.3-1.1-0.7-0.4-0.5-0.6-1.1-0.3-0.5-0.3-1.2 0-0.6 0.3-1.2 0.2-0.6 0.6-1.1 0.5-0.4 1.1-0.6 0.6-0.3 1.2-0.3h26.1q0.6 0 1.2 0.3 0.6 0.2 1 0.6 0.5 0.5 0.7 1.1 0.3 0.6 0.3 1.2 0 0.7-0.3 1.2-0.2 0.6-0.7 1.1-0.4 0.4-1 0.7-0.6 0.2-1.2 0.2z"/>
		<path id="Layer" class="s3" d="m70.9 240.4h116.1v46.8h-116.1z"/>
		<path id="Layer" class="s1" d="m142 245.5h-26.1q-0.6 0-1.2-0.2-0.6-0.3-1.1-0.7-0.4-0.5-0.6-1.1-0.3-0.6-0.3-1.2 0-0.6 0.3-1.2 0.2-0.6 0.6-1.1 0.5-0.4 1.1-0.7 0.6-0.2 1.2-0.2h26.1q0.6 0 1.2 0.2 0.6 0.3 1 0.7 0.5 0.5 0.7 1.1 0.3 0.6 0.3 1.2 0 0.6-0.3 1.2-0.2 0.6-0.7 1.1-0.4 0.4-1 0.7-0.6 0.2-1.2 0.2z"/>
		<path id="Layer" class="s1" d="m142 356.1h-26.1q-0.6 0-1.2-0.2-0.6-0.3-1.1-0.7-0.4-0.5-0.6-1.1-0.3-0.5-0.3-1.2 0-0.6 0.3-1.2 0.2-0.6 0.6-1 0.5-0.5 1.1-0.7 0.6-0.3 1.2-0.3h26.1q0.6 0 1.2 0.3 0.6 0.2 1 0.7 0.5 0.4 0.7 1 0.3 0.6 0.3 1.2 0 0.7-0.3 1.2-0.2 0.6-0.7 1.1-0.4 0.4-1 0.7-0.6 0.2-1.2 0.2z"/>
		<path id="Layer" class="s3" d="m58 214.6h146.3v8.7h-146.3z"/>
		<path id="Layer" class="s0" d="m20.5 214.6h37.5v8.7h-37.5z"/>
		<path id="Layer" class="s3" d="m41.4 66.3h53.2v58.4h-53.2z"/>
		<path id="Layer" class="s1" d="m45.4 66.3h55v58.4h-55z"/>
		<path id="Layer" class="s2" d="m95.8 70.9v49.2h-45.8v-49.2z"/>
		<path id="Layer" class="s1" d="m84.7 82.8v25.4h-23.6v-25.4z"/>
		<path id="Layer" class="s3" d="m110.4 49h40.3v43.4h-40.3z"/>
		<path id="Layer" class="s1" d="m114.2 49h40.8v43.4h-40.8z"/>
		<path id="Layer" class="s2" d="m117.7 52.4h33.9v36.5h-33.9z"/>
		<path id="Layer" class="s1" d="m134.6 61.4l-9.3 16.1h18.6l-9.3-16.1z"/>
	</g>
	<g id="freepik--Shadow--inject-9">
		<path id="Layer" class="s4" d="m251 478.3c-129.1 0-233.4-6.1-233.4-13.7 0-7.5 104.3-13.6 233.4-13.6 129.1 0 233.4 6.1 233.4 13.6 0 7.6-104.3 13.7-233.4 13.7z"/>
	</g>
	<g id="freepik--speech-bubbles--inject-9">
		<path id="Layer" class="s5" d="m326 148.4c0-5.1 4.2-9.3 9.4-9.3h121.9c5.2 0 9.4 4.2 9.4 9.3v36c0 5.1-4.2 9.3-9.4 9.3h-121.9c-5.2 0-9.4-4.2-9.4-9.3z"/>
		<path id="Layer" class="s5" d="m337.7 149.9c0-0.9 0.8-1.6 1.7-1.6h92.9c0.9 0 1.6 0.7 1.6 1.6v2.9c0 0.9-0.7 1.6-1.6 1.6h-92.9c-0.9 0-1.7-0.7-1.7-1.6z"/>
		<path id="Layer" class="s5" d="m337.7 164.7c0-0.9 0.8-1.7 1.7-1.7h63.7c0.9 0 1.6 0.8 1.6 1.7v2.8c0 0.9-0.7 1.6-1.6 1.6h-63.7c-0.9 0-1.7-0.7-1.7-1.6z"/>
		<path id="Layer" class="s5" d="m337.7 179.4c0-0.9 0.8-1.6 1.7-1.6h46.8c0.9 0 1.6 0.7 1.6 1.6v2.8c0 0.9-0.7 1.7-1.6 1.7h-46.8c-0.9 0-1.7-0.8-1.7-1.7z"/>
		<path id="Layer" class="s5" d="m394.9 179.4c0-0.9 0.8-1.6 1.7-1.6h46.8c0.9 0 1.6 0.7 1.6 1.6v2.8c0 0.9-0.7 1.7-1.6 1.7h-46.8c-0.9 0-1.7-0.8-1.7-1.7z"/>
		<g id="Layer" style="opacity: .5">
			<path id="Layer" class="s6" d="m337.7 149.9c0-0.9 0.8-1.6 1.7-1.6h92.9c0.9 0 1.6 0.7 1.6 1.6v2.9c0 0.9-0.7 1.6-1.6 1.6h-92.9c-0.9 0-1.7-0.7-1.7-1.6z"/>
			<path id="Layer" class="s6" d="m337.7 164.7c0-0.9 0.8-1.7 1.7-1.7h63.7c0.9 0 1.6 0.8 1.6 1.7v2.8c0 0.9-0.7 1.6-1.6 1.6h-63.7c-0.9 0-1.7-0.7-1.7-1.6z"/>
			<path id="Layer" class="s6" d="m337.7 179.4c0-0.9 0.8-1.6 1.7-1.6h46.8c0.9 0 1.6 0.7 1.6 1.6v2.8c0 0.9-0.7 1.7-1.6 1.7h-46.8c-0.9 0-1.7-0.8-1.7-1.7z"/>
			<path id="Layer" class="s6" d="m394.9 179.4c0-0.9 0.8-1.6 1.7-1.6h46.8c0.9 0 1.6 0.7 1.6 1.6v2.8c0 0.9-0.7 1.7-1.6 1.7h-46.8c-0.9 0-1.7-0.8-1.7-1.7z"/>
		</g>
		<path id="Layer" class="s5" d="m210.2 140.1c0-7.6 6.2-13.8 13.7-13.8h139.7c7.6 0 13.7 6.2 13.7 13.8v52.7c0 7.5-6.1 13.7-13.7 13.7h-139.7c-7.5 0-13.7-6.2-13.7-13.7z"/>
		<path id="Layer" class="s5" d="m227.4 142.2c0-1.3 1.1-2.4 2.4-2.4h136.2c1.4 0 2.4 1.1 2.4 2.4v4.2c0 1.3-1 2.4-2.4 2.4h-136.2c-1.3 0-2.4-1.1-2.4-2.4z"/>
		<path id="Layer" class="s5" d="m227.4 163.9c0-1.4 1.1-2.5 2.4-2.5h93.4c1.3 0 2.4 1.1 2.4 2.5v4.1c0 1.3-1.1 2.4-2.4 2.4h-93.4c-1.3 0-2.4-1.1-2.4-2.4z"/>
		<path id="Layer" class="s5" d="m227.4 185.5c0-1.4 1.1-2.4 2.4-2.4h68.6c1.3 0 2.4 1 2.4 2.4v4.1c0 1.3-1.1 2.4-2.4 2.4h-68.6c-1.3 0-2.4-1.1-2.4-2.4z"/>
		<path id="Layer" class="s5" d="m311.2 185.5c0-1.4 1.1-2.4 2.4-2.4h57.4c1.3 0 2.4 1 2.4 2.4v4.1c0 1.3-1.1 2.4-2.4 2.4h-57.4c-1.3 0-2.4-1.1-2.4-2.4z"/>
		<g id="Layer" style="opacity: .5">
			<path id="Layer" class="s6" d="m227.4 142.2c0-1.3 1.1-2.4 2.4-2.4h136.2c1.4 0 2.4 1.1 2.4 2.4v4.2c0 1.3-1 2.4-2.4 2.4h-136.2c-1.3 0-2.4-1.1-2.4-2.4z"/>
			<path id="Layer" class="s6" d="m227.4 163.9c0-1.4 1.1-2.5 2.4-2.5h93.4c1.3 0 2.4 1.1 2.4 2.5v4.1c0 1.3-1.1 2.4-2.4 2.4h-93.4c-1.3 0-2.4-1.1-2.4-2.4z"/>
			<path id="Layer" class="s6" d="m227.4 185.5c0-1.4 1.1-2.4 2.4-2.4h68.6c1.3 0 2.4 1 2.4 2.4v4.1c0 1.3-1.1 2.4-2.4 2.4h-68.6c-1.3 0-2.4-1.1-2.4-2.4z"/>
			<path id="Layer" class="s6" d="m311.2 185.5c0-1.4 1.1-2.4 2.4-2.4h57.4c1.3 0 2.4 1 2.4 2.4v4.1c0 1.3-1.1 2.4-2.4 2.4h-57.4c-1.3 0-2.4-1.1-2.4-2.4z"/>
		</g>
		<path id="Layer" class="s5" d="m205.2 227.4c0-3.5 2.8-6.4 6.4-6.4h67.2c3.5 0 6.4 2.9 6.4 6.4v99.4c0 3.5-2.9 6.4-6.4 6.4h-67.2c-3.6 0-6.4-2.9-6.4-6.4z"/>
		<path id="Layer" class="s7" d="m205.2 227.4c0-3.5 2.8-6.4 6.4-6.4h67.2c3.5 0 6.4 2.9 6.4 6.4v99.4c0 3.5-2.9 6.4-6.4 6.4h-67.2c-3.6 0-6.4-2.9-6.4-6.4z"/>
		<path id="Layer" class="s2" d="m214.4 233.9c0-0.6 0.5-1.2 1.2-1.2h59.1c0.7 0 1.2 0.6 1.2 1.2v2.6c0 0.7-0.5 1.2-1.2 1.2h-59.1c-0.7 0-1.2-0.5-1.2-1.2z"/>
		<path id="Layer" class="s2" d="m214.4 245.9c0-0.7 0.5-1.2 1.2-1.2h40.5c0.6 0 1.1 0.5 1.1 1.2v2.6c0 0.6-0.5 1.2-1.1 1.2h-40.5c-0.7 0-1.2-0.6-1.2-1.2z"/>
		<path id="Layer" class="s2" d="m214.4 257.9c0-0.7 0.5-1.2 1.2-1.2h59.1c0.7 0 1.2 0.5 1.2 1.2v2.6c0 0.6-0.5 1.1-1.2 1.1h-59.1c-0.7 0-1.2-0.5-1.2-1.1z"/>
		<path id="Layer" class="s2" d="m214.4 269.8c0-0.6 0.5-1.2 1.2-1.2h22.3c0.6 0 1.2 0.6 1.2 1.2v2.6c0 0.7-0.6 1.2-1.2 1.2h-22.3c-0.7 0-1.2-0.5-1.2-1.2z"/>
		<path id="Layer" class="s2" d="m244.9 269.8c0-0.6 0.5-1.2 1.2-1.2h22.3c0.6 0 1.2 0.6 1.2 1.2v2.6c0 0.7-0.6 1.2-1.2 1.2h-22.3c-0.7 0-1.2-0.5-1.2-1.2z"/>
		<path id="Layer" class="s2" d="m214.4 281.8c0-0.7 0.5-1.2 1.2-1.2h59.1c0.7 0 1.2 0.5 1.2 1.2v2.6c0 0.7-0.5 1.2-1.2 1.2h-59.1c-0.7 0-1.2-0.5-1.2-1.2z"/>
		<path id="Layer" class="s2" d="m214.4 293.8c0-0.7 0.5-1.2 1.2-1.2h59.1c0.7 0 1.2 0.5 1.2 1.2v2.6c0 0.6-0.5 1.2-1.2 1.2h-59.1c-0.7 0-1.2-0.6-1.2-1.2z"/>
		<path id="Layer" class="s2" d="m214.4 305.7c0-0.6 0.5-1.1 1.2-1.1h48.7c0.7 0 1.2 0.5 1.2 1.1v2.7c0 0.6-0.5 1.1-1.2 1.1h-48.7c-0.7 0-1.2-0.5-1.2-1.1z"/>
		<path id="Layer" class="s2" d="m214.4 317.7c0-0.6 0.5-1.2 1.2-1.2h23c0.6 0 1.2 0.6 1.2 1.2v2.6c0 0.7-0.6 1.2-1.2 1.2h-23c-0.7 0-1.2-0.5-1.2-1.2z"/>
		<path id="Layer" class="s5" d="m294.9 220.3h-89.5l39.6 31.5 60.7 22.9v-43.6c0-1.4-0.3-2.8-0.9-4.1-0.5-1.3-1.3-2.5-2.3-3.5-1-1-2.2-1.8-3.5-2.3-1.3-0.6-2.7-0.9-4.1-0.9z"/>
		<path id="Layer" class="s7" d="m294.9 220.3h-89.5l39.6 31.5 60.7 22.9v-43.6c0-1.4-0.3-2.8-0.9-4.1-0.5-1.3-1.3-2.5-2.3-3.5-1-1-2.2-1.8-3.5-2.3-1.3-0.6-2.7-0.9-4.1-0.9z"/>
		<path id="Layer" class="s2" d="m223.7 238c0-0.8 0.7-1.4 1.5-1.4h66.1c0.8 0 1.5 0.6 1.5 1.4v4c0 0.8-0.7 1.5-1.5 1.5h-66.1c-0.8 0-1.5-0.7-1.5-1.5z"/>
		<path id="Layer" class="s5" d="m322.9 241.2c0-4.1 3.3-7.3 7.3-7.3h112.3c4.1 0 7.3 3.2 7.3 7.3v65.9c0 4-3.2 7.3-7.3 7.3h-112.3c-4 0-7.3-3.3-7.3-7.3z"/>
		<path id="Layer" class="s5" d="m342.9 221.2c0-4 3.3-7.3 7.3-7.3h112.3c4 0 7.3 3.3 7.3 7.3v65.9c0 4.1-3.3 7.3-7.3 7.3h-112.3c-4 0-7.3-3.2-7.3-7.3z"/>
		<path id="Layer" class="s8" d="m342.9 221.2c0-4 3.3-7.3 7.3-7.3h112.3c4 0 7.3 3.3 7.3 7.3v65.9c0 4.1-3.3 7.3-7.3 7.3h-112.3c-4 0-7.3-3.2-7.3-7.3z"/>
		<path id="Layer" class="s5" d="m415.2 224.6c0-1.7 1.4-3.2 3.2-3.2h37c1.8 0 3.3 1.5 3.3 3.2v40.1c0 1.8-1.5 3.3-3.3 3.3h-37c-1.8 0-3.2-1.5-3.2-3.3z"/>
		<path id="Layer" class="s9" d="m415.2 224.6c0-1.7 1.4-3.2 3.2-3.2h37c1.8 0 3.3 1.5 3.3 3.2v40.1c0 1.8-1.5 3.3-3.3 3.3h-37c-1.8 0-3.2-1.5-3.2-3.3z"/>
		<path id="Layer" class="s5" d="m375 252.6c0-1.4 1.1-2.5 2.5-2.5h28.4c1.3 0 2.4 1.1 2.4 2.5v30.7c0 1.4-1.1 2.5-2.4 2.5h-28.4c-1.4 0-2.5-1.1-2.5-2.5z"/>
		<path id="Layer" class="s10" d="m375 252.6c0-1.4 1.1-2.5 2.5-2.5h28.4c1.3 0 2.4 1.1 2.4 2.5v30.7c0 1.4-1.1 2.5-2.4 2.5h-28.4c-1.4 0-2.5-1.1-2.5-2.5z"/>
		<path id="Layer" class="s5" d="m80 76.9c0-4.1 3.3-7.4 7.4-7.4h296.9c4 0 7.4 3.3 7.4 7.4v19c0 4.1-3.4 7.4-7.4 7.4h-296.9c-4.1 0-7.4-3.3-7.4-7.4z"/>
		<path id="Layer" class="s8" d="m80 76.9c0-4.1 3.3-7.4 7.4-7.4h296.9c4 0 7.4 3.3 7.4 7.4v19c0 4.1-3.4 7.4-7.4 7.4h-296.9c-4.1 0-7.4-3.3-7.4-7.4z"/>
		<path id="Layer" class="s5" d="m251.5 97.3h84.5v11.7h-84.5z"/>
		<path id="Layer" class="s8" d="m251.5 97.3h84.5v11.7h-84.5z"/>
		<path id="Layer" class="s5" d="m110.3 26.9c0-4 3.3-7.4 7.4-7.4h296.9c4.1 0 7.4 3.4 7.4 7.4v19.1c0 4.1-3.3 7.4-7.4 7.4h-296.9c-4.1 0-7.4-3.3-7.4-7.4z"/>
	</g>
	<g id="freepik--Character--inject-9">
		<path id="Layer" class="s11" d="m106.9 197.4c-1 2.4-2.2 5-3.2 7.5-1 2.6-2.1 5.2-3 7.8q-0.7 1.9-1.4 3.8-0.6 1.9-1.2 3.9-0.6 1.9-1.1 3.9-0.5 2-0.9 3.9l-0.3 2-0.2 0.7c0 0.2 0 0.5 0 0.7q0 0.4 0 0.9 0 0.4 0 0.9 0 0.4 0 0.8 0 0.5 0 0.9c0.3 2.6 0.7 5.3 1.3 8 1 5.5 2.3 11.1 3.6 16.6l-6.2 2.4q-1.1-1.9-2.1-4-1-2-1.9-4-0.9-2.1-1.8-4.1-0.8-2.1-1.5-4.2-0.4-1.1-0.8-2.3-0.4-1.1-0.7-2.2-0.3-1.1-0.6-2.2-0.3-1.2-0.5-2.3-0.1-0.7-0.2-1.3-0.2-0.6-0.2-1.3-0.1-0.6-0.2-1.3 0-0.6-0.1-1.3c0-0.4 0-0.9 0-1.4 0-0.5 0-1.1 0.1-1.4l0.3-2.5q0.1-1.1 0.3-2.3 0.1-1.1 0.3-2.3 0.2-1.1 0.5-2.3 0.2-1.1 0.5-2.3c0.7-3 1.5-5.9 2.4-8.8 0.9-2.9 2-5.7 3.1-8.5 0.6-1.4 1.2-2.8 1.8-4.2 0.5-1.4 1.2-2.7 1.9-4.2z"/>
		<path id="Layer" class="s11" d="m100.1 258.1l4.7 4.6-10.2 4.8c0 0-2.5-4.4-0.8-8.3z"/>
		<path id="Layer" class="s11" d="m108.6 269.5l-8.6 3.5-5.4-5.6 10.2-4.7 3.8 6.8z"/>
		<path id="Layer" class="s12" d="m284 264.6c-34.9-3.9-63.9-28.4-73.6-62.1-9.8-33.7 1.8-69.9 29.2-91.8 27.3-21.9 65.2-25.1 95.9-8.2 30.7 17 48.2 50.7 44.3 85.5-1.3 11.4-4.7 22.3-10.2 32.3-5.5 10-13 18.8-21.9 25.9-8.9 7.1-19.1 12.3-30 15.5-10.9 3.2-22.4 4.1-33.7 2.9z"/>
		<path id="Layer" class="s12" d="m347 110.1l-131.8 105.4q-0.8-1.8-1.6-3.6-1.2-3-2.2-6-1.1-3-1.8-6.1-0.8-3.1-1.4-6.3-0.5-3.1-0.9-6.3l113.9-91q3.5 1.2 6.9 2.6 3.4 1.5 6.6 3.3 3.3 1.7 6.4 3.7 3 2.1 5.9 4.3z"/>
		<path id="Layer" class="s12" d="m377.5 156.3l-124 99q-4.4-2.3-8.5-5.1-4.1-2.8-7.9-6-3.7-3.2-7.1-6.9-3.4-3.6-6.3-7.6l135.3-108.2q3.3 3.8 6.1 7.9 2.8 4.1 5.1 8.5 2.4 4.3 4.2 9 1.8 4.6 3.1 9.4z"/>
		<path id="Layer" class="s5" d="m196.1 145.3l-1.2-0.4q0.8-2.2 1.6-4.3 0.8-2.2 1.8-4.3 0.9-2.1 1.9-4.2 1-2.1 2.2-4.1l1 0.6q-1.1 2-2.1 4-1 2.1-1.9 4.2-0.9 2.1-1.8 4.2-0.8 2.1-1.5 4.3zm14.6-28.1l-1-0.7q3.7-5 8-9.5 4.2-4.6 9-8.5 4.8-4 10-7.4 5.2-3.4 10.8-6.2l0.5 1.1q-5.5 2.7-10.6 6.1-5.2 3.4-9.9 7.3-4.7 3.9-8.9 8.4-4.3 4.5-7.9 9.4zm131.9-29.5q-1.5-0.8-3-1.5-1.5-0.8-3-1.5-1.5-0.7-3.1-1.3-1.5-0.6-3.1-1.2l0.5-1.2q1.6 0.6 3.1 1.3 1.6 0.7 3.1 1.4 1.6 0.7 3.1 1.4 1.5 0.8 3 1.6z"/>
		<path id="Layer" class="s13" d="m196.1 145.3l-1.2-0.4q0.8-2.2 1.6-4.3 0.8-2.2 1.8-4.3 0.9-2.1 1.9-4.2 1-2.1 2.2-4.1l1 0.6q-1.1 2-2.1 4-1 2.1-1.9 4.2-0.9 2.1-1.8 4.2-0.8 2.1-1.5 4.3zm14.6-28.1l-1-0.7q3.7-5 8-9.5 4.2-4.6 9-8.5 4.8-4 10-7.4 5.2-3.4 10.8-6.2l0.5 1.1q-5.5 2.7-10.6 6.1-5.2 3.4-9.9 7.3-4.7 3.9-8.9 8.4-4.3 4.5-7.9 9.4zm131.9-29.5q-1.5-0.8-3-1.5-1.5-0.8-3-1.5-1.5-0.7-3.1-1.3-1.5-0.6-3.1-1.2l0.5-1.2q1.6 0.6 3.1 1.3 1.6 0.7 3.1 1.4 1.6 0.7 3.1 1.4 1.5 0.8 3 1.6z"/>
		<path id="Layer" fill-rule="evenodd" class="s5" d="m383.3 134.1c11.5 23 13.8 49.4 6.4 74-7.4 24.6-24 45.3-46.3 58-22.3 12.7-48.7 16.2-73.6 10-24.9-6.2-46.4-21.8-60.1-43.4-7.2 4.6-14.5 9.1-21.7 13.5-10.5 6.2-21.2 12.4-31.9 18.2-10.7 5.9-21.5 11.6-32.4 17.2-5.4 2.8-10.9 5.5-16.3 8.2q-1 0.6-2.1 1.1-1.1 0.4-2.2 0.8-1.1 0.3-2.2 0.6-1.1 0.3-2.3 0.4-0.6 0.1-1.3 0.1-0.6 0-1.3 0-0.6 0-1.2 0-0.7 0-1.3-0.1-0.8-0.1-1.5-0.2-0.8-0.2-1.5-0.4-0.7-0.1-1.5-0.4-0.7-0.2-1.4-0.5c-1.6-0.7-3.2-1.7-4.5-3-1.3-1.2-2.4-2.7-3.2-4.3-0.8-1.7-1.3-3.4-1.5-5.2-0.2-1.8 0-3.6 0.4-5.4q0.2-0.7 0.5-1.5 0.2-0.7 0.5-1.4 0.3-0.7 0.7-1.4 0.3-0.6 0.7-1.3 0.3-0.5 0.7-1.1 0.4-0.5 0.7-1 0.4-0.5 0.9-1 0.4-0.5 0.8-0.9 0.8-0.9 1.7-1.6 0.9-0.8 1.9-1.4 0.9-0.7 1.9-1.2 1.1-0.6 2.1-1.1c5.5-2.6 11-5.4 16.5-7.9 11-5.3 22.2-10.4 33.3-15.3q16.8-7.4 33.9-14.2c7.9-3.1 15.8-6.1 23.9-8.9-8.9-24.1-8.2-50.7 2-74.2 10.2-23.6 29.1-42.3 52.7-52.3 23.7-10.1 50.2-10.6 74.3-1.6 24 9.1 43.6 27 54.7 50.1zm-30.3 96.3c6.8-7.8 12.1-16.8 15.4-26.7 3.3-9.8 4.7-20.1 4-30.5-0.7-10.3-3.4-20.4-8-29.7-14.1-28.6-44.1-45.9-75.9-43.8-31.9 2.1-59.3 23.2-69.5 53.4-10.3 30.2-1.3 63.6 22.7 84.7 24 21 58.3 25.5 86.9 11.4 9.3-4.6 17.6-11 24.4-18.8z"/>
		<path id="Layer" fill-rule="evenodd" class="s13" d="m383.3 134.1c11.5 23 13.8 49.4 6.4 74-7.4 24.6-24 45.3-46.3 58-22.3 12.7-48.7 16.2-73.6 10-24.9-6.2-46.4-21.8-60.1-43.4-7.2 4.6-14.5 9.1-21.7 13.5-10.5 6.2-21.2 12.4-31.9 18.2-10.7 5.9-21.5 11.6-32.4 17.2-5.4 2.8-10.9 5.5-16.3 8.2q-1 0.6-2.1 1.1-1.1 0.4-2.2 0.8-1.1 0.3-2.2 0.6-1.1 0.3-2.3 0.4-0.6 0.1-1.3 0.1-0.6 0-1.3 0-0.6 0-1.2 0-0.7 0-1.3-0.1-0.8-0.1-1.5-0.2-0.8-0.2-1.5-0.4-0.7-0.1-1.5-0.4-0.7-0.2-1.4-0.5c-1.6-0.7-3.2-1.7-4.5-3-1.3-1.2-2.4-2.7-3.2-4.3-0.8-1.7-1.3-3.4-1.5-5.2-0.2-1.8 0-3.6 0.4-5.4q0.2-0.7 0.5-1.5 0.2-0.7 0.5-1.4 0.3-0.7 0.7-1.4 0.3-0.6 0.7-1.3 0.3-0.5 0.7-1.1 0.4-0.5 0.7-1 0.4-0.5 0.9-1 0.4-0.5 0.8-0.9 0.8-0.9 1.7-1.6 0.9-0.8 1.9-1.4 0.9-0.7 1.9-1.2 1.1-0.6 2.1-1.1c5.5-2.6 11-5.4 16.5-7.9 11-5.3 22.2-10.4 33.3-15.3q16.8-7.4 33.9-14.2c7.9-3.1 15.8-6.1 23.9-8.9-8.9-24.1-8.2-50.7 2-74.2 10.2-23.6 29.1-42.3 52.7-52.3 23.7-10.1 50.2-10.6 74.3-1.6 24 9.1 43.6 27 54.7 50.1zm-30.3 96.3c6.8-7.8 12.1-16.8 15.4-26.7 3.3-9.8 4.7-20.1 4-30.5-0.7-10.3-3.4-20.4-8-29.7-14.1-28.6-44.1-45.9-75.9-43.8-31.9 2.1-59.3 23.2-69.5 53.4-10.3 30.2-1.3 63.6 22.7 84.7 24 21 58.3 25.5 86.9 11.4 9.3-4.6 17.6-11 24.4-18.8z"/>
		<path id="Layer" class="s14" d="m140.2 154.4c0 0.7 0.4 1.3 0.9 1.3 0.4 0 0.8-0.6 0.8-1.3 0-0.7-0.4-1.3-0.8-1.3-0.5 0-0.9 0.6-0.9 1.3z"/>
		<path id="Layer" class="s15" d="m140.6 155.7q0.3 0.8 0.6 1.6 0.4 0.8 0.8 1.5 0.5 0.8 1 1.5 0.4 0.8 1 1.5-0.4 0.2-0.8 0.4-0.4 0.2-0.9 0.3-0.4 0.1-0.9 0-0.4 0-0.8-0.1z"/>
		<path id="Layer" class="s14" d="m137.7 150.4q0 0-0.1 0 0 0-0.1 0 0 0-0.1-0.1 0 0 0 0-0.1-0.1-0.1-0.2 0-0.1 0-0.2 0 0 0.1-0.1 0-0.1 0.1-0.1 0.4-0.3 0.8-0.5 0.5-0.2 1-0.3 0.5-0.1 1-0.1 0.5 0.1 0.9 0.2 0.2 0.1 0.3 0.2 0.1 0.2 0 0.4 0 0.2-0.2 0.2-0.2 0.1-0.4 0-0.3-0.1-0.7-0.1-0.4 0-0.8 0-0.4 0.1-0.8 0.3-0.3 0.1-0.6 0.4-0.1 0-0.1 0 0 0 0 0-0.1 0-0.1 0 0 0-0.1 0z"/>
		<path id="Layer" class="s11" d="m115.9 159.7c1.2 6.5 2.5 18.4-2 22.7 0 0 1.8 6.6 13.8 6.6 13.2 0 6.3-6.6 6.3-6.6-7.2-1.7-7-7.1-5.8-12.1z"/>
		<path id="Layer" class="s5" d="m108.5 185.8c1.4-2.2-1-7.6-1-7.6 0 0 21.3-5.4 30 2.8 1.8 1.7-0.2 4.2-0.2 4.2z"/>
		<path id="Layer" class="s16" d="m108.5 185.8c1.4-2.2-1-7.6-1-7.6 0 0 21.3-5.4 30 2.8 1.8 1.7-0.2 4.2-0.2 4.2z"/>
		<path id="Layer" fill-rule="evenodd" class="s5" d="m73.3 431.4c-1.1 0-2.9-1.8-3.5-2.5q0-0.1 0-0.1 0 0 0 0 0-0.1 0-0.1 0 0 0-0.1 0.1 0 0.1 0 0 0 0 0 0-0.1 0.1-0.1 0 0 0 0c0.2 0 3.1 0.3 3.9 1.3q0.1 0.1 0.1 0.2 0.1 0.1 0.1 0.2 0 0.1 0 0.2 0 0.1 0 0.2 0 0.2 0 0.3-0.1 0.1-0.2 0.2-0.1 0.1-0.2 0.2-0.1 0.1-0.2 0.1zm-2.8-2.4c0.9 1 2.3 2.2 2.9 2 0 0 0.2 0 0.3-0.4q0-0.1 0-0.1 0-0.1 0-0.2 0 0-0.1-0.1 0 0 0-0.1-0.4-0.2-0.7-0.4-0.4-0.2-0.8-0.4-0.4-0.1-0.8-0.2-0.4-0.1-0.8-0.1z"/>
		<path id="Layer" fill-rule="evenodd" class="s5" d="m70.6 429q-0.1 0-0.1 0-0.1 0-0.2 0-0.1 0-0.2 0 0 0-0.1 0-0.1 0-0.1 0 0 0 0 0-0.1-0.1-0.1-0.1 0 0 0 0 0-0.1 0-0.1 0 0 0 0 0-0.1 0-0.1 0 0 0-0.1c0.1 0 1.9-1.9 3.2-1.9q0.1 0 0.2 0.1 0.1 0 0.3 0 0.1 0.1 0.2 0.1 0.1 0.1 0.1 0.2 0.1 0.1 0.2 0.2 0.1 0.1 0.1 0.2 0 0.1 0 0.2 0 0.1-0.1 0.2c-0.3 0.7-2.2 1.1-3.4 1.1zm-0.1-0.4c1.2 0 2.9-0.4 3.2-0.9 0 0 0.1-0.2-0.1-0.4q-0.1 0-0.1-0.1-0.1 0-0.2-0.1 0 0-0.1 0-0.1 0-0.2 0-0.3 0.1-0.7 0.2-0.3 0.2-0.7 0.3-0.3 0.2-0.6 0.5-0.3 0.2-0.5 0.5z"/>
		<path id="Layer" fill-rule="evenodd" class="s5" d="m152.7 458.8q-0.3 0-0.7-0.1-0.3 0-0.6 0-0.4 0-0.7-0.1-0.4 0-0.7-0.1 0 0-0.1 0 0 0 0-0.1 0 0 0 0-0.1-0.1-0.1-0.1 0 0 0 0 0.1-0.1 0.1-0.1 0 0 0-0.1 0 0 0 0c0.2-0.1 3.3-1.8 4.7-1.4q0.1 0 0.2 0 0.1 0.1 0.2 0.1 0.1 0.1 0.2 0.2 0 0.1 0.1 0.1 0.1 0.1 0.1 0.3 0 0.1 0 0.2 0 0.1 0 0.2 0 0.2-0.1 0.3c-0.3 0.5-1.4 0.7-2.6 0.7zm-2-0.6c1.6 0.2 3.9 0.2 4.3-0.4 0 0 0.1-0.2 0-0.4q-0.1-0.1-0.1-0.1 0-0.1-0.1-0.1-0.1 0-0.1-0.1-0.1 0-0.1 0c-1-0.3-2.8 0.5-3.9 1.1z"/>
		<path id="Layer" fill-rule="evenodd" class="s5" d="m150.1 458.5q-0.1 0-0.1 0 0 0 0 0 0 0 0 0-0.1 0-0.1 0 0 0 0 0 0 0 0-0.1-0.1 0-0.1 0 0-0.1 0-0.1 0.1-0.5 0.2-0.9 0.1-0.5 0.3-0.9 0.1-0.4 0.4-0.8 0.2-0.4 0.5-0.8 0.1-0.1 0.3-0.2 0.1-0.1 0.3-0.1 0.1 0 0.3-0.1 0.2 0 0.3 0.1c0.6 0 0.8 0.3 0.8 0.5 0.2 1-1.9 2.9-3 3.4zm2.1-3.6q-0.1 0-0.2 0-0.1 0.1-0.1 0.1-0.1 0-0.2 0.1-0.1 0-0.2 0.1-0.2 0.3-0.4 0.6-0.2 0.3-0.4 0.7-0.2 0.3-0.3 0.7 0 0.3-0.1 0.7c1.1-0.6 2.5-2.1 2.4-2.7 0 0 0-0.2-0.4-0.3z"/>
		<path id="Layer" class="s11" d="m140.3 458.3h8.9l0.9-20.5h-8.9l-0.9 20.5z"/>
		<path id="Layer" class="s11" d="m61.5 423.1l7.4 4.9 16.3-13.8-7.4-4.8-16.3 13.7z"/>
		<path id="Layer" class="s14" d="m70.1 427.5l-7.6-6.3q-0.1-0.1-0.3-0.1-0.1 0-0.2 0-0.2 0-0.3 0-0.1 0-0.2 0.1l-6.3 5q-0.3 0.2-0.4 0.5-0.1 0.2-0.1 0.5 0 0.3 0.1 0.6 0.1 0.3 0.4 0.4c2.7 2.2 4.1 3.1 7.5 5.9 2.1 1.7 7.2 6.9 10.1 9.2 2.9 2.4 5.6-0.2 4.6-1.4-4.3-5.4-6-10.1-6.5-13q0-0.2-0.1-0.4-0.1-0.2-0.2-0.4-0.1-0.1-0.2-0.3-0.1-0.1-0.3-0.3z"/>
		<path id="Layer" class="s14" d="m149.1 457.3h-9.6q-0.1 0-0.3 0-0.1 0.1-0.2 0.1-0.1 0.1-0.2 0.2 0 0.2-0.1 0.3l-1.7 7.8q-0.1 0.3 0 0.6 0 0.3 0.2 0.5 0.2 0.3 0.5 0.4 0.3 0.1 0.6 0.1c3.4 0 8.5-0.2 12.8-0.2 5.2 0 9.6 0.2 15.6 0.2 3.6 0 4.6-3.6 3.1-4-6.9-1.5-12.6-1.6-18.5-5.3q-0.3-0.2-0.5-0.3-0.3-0.1-0.6-0.2-0.2-0.1-0.5-0.2-0.3 0-0.6 0z"/>
		<path id="Layer" class="s14" d="m96.5 185c-7.7 3.6-12.1 27.8-12.1 27.8l18.8 7.5q1-2.5 1.9-5 1-2.6 1.8-5.2 0.8-2.6 1.6-5.2 0.7-2.6 1.3-5.2c2.6-11.2-5.5-18.4-13.3-14.7z"/>
		<path id="Layer" class="s17" d="m106.4 198.7c-4.6 4.7-6.7 13.9-7.7 19.8l4.5 1.8q1-2.4 1.9-4.9 0.9-2.5 1.7-5 0.9-2.5 1.6-5 0.7-2.5 1.3-5.1c-0.4-2.6-1.4-3.6-3.3-1.6z"/>
		<path id="Layer" class="s14" d="m147.6 184.9c0 0 9.4 10.6 0.5 76.4h-47.3c-0.3-7.2 4.3-42.7-2.7-76.9q1.9-0.4 3.9-0.7 2-0.3 4-0.5 1.9-0.3 3.9-0.5 2-0.2 4-0.3 2.5-0.1 5-0.2 2.5-0.1 5.1-0.1 2.5 0 5 0.1 2.5 0.1 5 0.2 1.7 0.2 3.4 0.4 1.8 0.3 3.5 0.6 1.7 0.3 3.3 0.7 1.7 0.3 3.4 0.8z"/>
		<path id="Layer" class="s17" d="m151.9 210.4l-7.9-13.7q-0.6 2.4-1 4.8-0.4 2.4-0.7 4.9-0.2 2.5-0.3 4.9 0 2.5 0.1 5c0.2 4.7 4.5 22.2 8.4 24.7q0.4-3.8 0.7-7.6 0.3-3.8 0.4-7.7 0.2-3.8 0.3-7.6 0.1-3.9 0-7.7z"/>
		<path id="Layer" class="s11" d="m153 194.3c1.2 5.8 2.4 11.8 3.7 17.7 1.3 5.9 2.7 11.8 4.2 17.5 0.4 1.4 0.8 2.8 1.2 4.2l0.3 1 0.2 0.5v-0.1c-0.1-0.1-0.2-0.1-0.1 0q0.2 0.2 0.4 0.4 0.2 0.2 0.4 0.3 0.3 0.2 0.5 0.3 0.3 0.1 0.5 0.2 0.4 0.1 0.9 0.3 0.4 0.1 0.9 0.3 0.4 0.1 0.8 0.2 0.5 0.1 0.9 0.2 2.2 0.3 4.3 0.5 2.1 0.3 4.3 0.4 2.2 0.2 4.3 0.2 2.2 0 4.3 0l1.2 6.5c-1.6 0.6-3.1 0.9-4.7 1.3q-2.4 0.6-4.8 0.9-1.2 0.2-2.5 0.4-1.2 0.1-2.5 0.2-1.2 0.1-2.5 0.1-1.3 0-2.5 0-0.7 0-1.4-0.1-0.7 0-1.4-0.1-0.7-0.1-1.4-0.2-0.7-0.2-1.3-0.3-0.9-0.2-1.7-0.5-0.9-0.3-1.7-0.6-0.8-0.4-1.5-0.9-0.8-0.4-1.5-1-0.5-0.3-0.9-0.8-0.4-0.4-0.8-0.8-0.3-0.5-0.7-1-0.3-0.5-0.6-1c-0.2-0.3-0.3-0.8-0.5-1.1l-0.2-0.6-0.5-1.2c-0.6-1.5-1.1-3-1.6-4.5-2.1-6-3.8-12.1-5.3-18.2-1.4-6-2.7-12.1-3.8-18.3z"/>
		<path id="Layer" class="s14" d="m135.8 191.3c-2.5 8.1 7.6 32.2 7.6 32.2l20.1-5.1c0 0-0.7-12.5-5.3-22.4-6.9-15-19.4-14.4-22.4-4.7z"/>
		<path id="Layer" class="s11" d="m184.9 238.4l10-0.3-4.8 10.5c0 0-4.1 0.5-7.5-5l-3.5-4.2 4.1-0.8q0.2-0.1 0.4-0.1 0.2 0 0.4-0.1 0.2 0 0.4 0 0.3 0 0.5 0z"/>
		<path id="Layer" class="s11" d="m201.2 240.1l-5.7 8.6-5.4-0.1 4.8-10.5 6.3 2z"/>
		<path id="Layer" class="s18" d="m150.1 437.8l-0.5 10.6h-8.9l0.5-10.6h8.9z"/>
		<path id="Layer" class="s18" d="m77.8 409.4l7.4 4.8-8.4 7.1-7.4-4.8 8.4-7.1z"/>
		<path id="Layer" class="s11" d="m116.5 152.9c0.5 8.7 0.3 13.9 4.8 18.4 6.6 6.7 17.4 2.7 19.5-6.1 1.9-7.8 0.7-20.8-7.8-24.3-1.9-0.8-4-1.1-6-0.8-2 0.2-4 1-5.6 2.2-1.7 1.2-3 2.8-3.8 4.6-0.9 1.9-1.3 3.9-1.1 6z"/>
		<path id="Layer" class="s14" d="m106.1 151.3c2.2 8 7.4 17.2 14 17.8 8.2 0.7 11.9-7.8 13-16.6 5-3.4 2.4-7.1 7.3-7.6 6.4-0.6 4.3-12.2-4-14.1 0 0 2.8 5.3-3.1 2.6q-2.1-1-4.3-1.7-2.2-0.7-4.5-1.1-2.3-0.4-4.6-0.4-2.3-0.1-4.6 0.1c-1.5 0.2 7.5 3.8 0.2 5.4-7.4 1.7-9.6 6.2-6.2 9 0 0-4.6 1.4-3.2 6.6z"/>
		<path id="Layer" class="s11" d="m128.1 154.3q0.1 0.8 0.3 1.6 0.1 0.8 0.5 1.6 0.3 0.7 0.7 1.4 0.5 0.7 1 1.3c1.9 2.1 3.9 0.8 4.3-1.8 0.3-2.3-0.4-6.2-2.7-7.4-2.4-1.2-4.3 0.7-4.1 3.3z"/>
		<path id="Layer" class="s5" d="m131.4 261.3c0 0 8.6 62.4 1.8 87.4-10.8 39.7-51.9 73.1-51.9 73.1l-14-9.2c0 0 35.1-28.2 39.4-61.4 3.8-29.7-5.9-65.7-5.9-89.9z"/>
		<path id="Layer" class="s16" d="m131.4 261.3c0 0 8.6 62.4 1.8 87.4-10.8 39.7-51.9 73.1-51.9 73.1l-14-9.2c0 0 35.1-28.2 39.4-61.4 3.8-29.7-5.9-65.7-5.9-89.9z"/>
		<path id="Layer" class="s5" d="m134.9 297q-0.8-1-1.7-1.9-0.9-1-1.9-1.9-0.9-0.9-1.9-1.8-1-0.8-2-1.6c1.4 20.2 2.6 50.2 1.3 71.6q0.7-1.6 1.3-3.1 0.6-1.6 1.2-3.2 0.5-1.5 1-3.1 0.5-1.6 1-3.2c3.3-12.3 2.9-33.4 1.7-51.8z"/>
		<path id="Layer" class="s13" d="m134.9 297q-0.8-1-1.7-1.9-0.9-1-1.9-1.9-0.9-0.9-1.9-1.8-1-0.8-2-1.6c1.4 20.2 2.6 50.2 1.3 71.6q0.7-1.6 1.3-3.1 0.6-1.6 1.2-3.2 0.5-1.5 1-3.1 0.5-1.6 1-3.2c3.3-12.3 2.9-33.4 1.7-51.8z"/>
		<path id="Layer" class="s5" d="m86.9 418.7c0.1 0-5.4 3.6-5.4 3.6l-15.3-10 4.9-4z"/>
		<path id="Layer" class="s13" d="m86.9 418.7c0.1 0-5.4 3.6-5.4 3.6l-15.3-10 4.9-4z"/>
		<path id="Layer" class="s5" d="m148.1 261.3c0 0 13.4 56.5 14.3 83.4 1.1 30.3-9.5 101.6-9.5 101.6h-15c0 0-1.8-71.9-2.5-99.4-0.7-30-18.4-85.6-18.4-85.6z"/>
		<path id="Layer" class="s16" d="m148.1 261.3c0 0 13.4 56.5 14.3 83.4 1.1 30.3-9.5 101.6-9.5 101.6h-15c0 0-1.8-71.9-2.5-99.4-0.7-30-18.4-85.6-18.4-85.6z"/>
		<path id="Layer" class="s5" d="m155.8 440.4c0 0-0.9 6.2-0.9 6.2h-18.2l-0.5-5.6z"/>
		<path id="Layer" class="s13" d="m155.8 440.4c0 0-0.9 6.2-0.9 6.2h-18.2l-0.5-5.6z"/>
	</g>
	<g id="freepik--character--inject-9">
		<path id="Layer" class="s11" d="m378.6 207c1 1 1.8 1.8 2.7 2.7 0.8 1 1.6 1.8 2.4 2.8 1.5 1.8 3 3.8 4.4 5.7q1.1 1.5 2.1 3 1 1.5 1.9 3 1 1.6 1.9 3.2 0.9 1.5 1.7 3.2l0.4 0.8q0.1 0.2 0.2 0.4 0.1 0.1 0.1 0.3 0.1 0.2 0.1 0.3 0.1 0.2 0.2 0.4 0.1 0.3 0.2 0.6 0 0.4 0.1 0.7 0.1 0.3 0.1 0.7 0.1 0.3 0.1 0.7 0 0.6 0 1.2 0 0.6-0.1 1.2-0.1 0.6-0.2 1.2-0.2 0.6-0.4 1.2-0.3 1-0.7 1.9-0.4 0.9-0.9 1.8-0.5 0.9-1 1.8-0.6 0.8-1.2 1.6-1.2 1.5-2.4 2.9-1.2 1.3-2.6 2.6-1.3 1.3-2.7 2.5-1.4 1.1-2.9 2.2l-3-3.4c1.4-1.7 2.8-3.5 4.2-5.2q0.5-0.7 0.9-1.3 0.5-0.7 1-1.4 0.4-0.6 0.8-1.3 0.5-0.7 0.9-1.4 0.3-0.7 0.7-1.3 0.3-0.6 0.6-1.3 0.2-0.7 0.5-1.4 0.2-0.7 0.4-1.4 0-0.2 0.1-0.5 0-0.2 0-0.5 0-0.2 0-0.5 0-0.3-0.1-0.5 0-0.1 0-0.2 0-0.1 0-0.1-0.1-0.1-0.1-0.2 0-0.1-0.1-0.2 0 0 0 0 0-0.1 0-0.1-0.1 0-0.1-0.1 0 0 0 0l-0.4-0.7q-0.9-1.4-1.8-2.8-0.9-1.4-1.8-2.8-1-1.3-2-2.7-0.9-1.3-2-2.7c-1.3-1.7-2.7-3.4-4.2-5.1q-1-1.3-2.2-2.5c-0.7-0.8-1.5-1.6-2.1-2.2z"/>
		<path id="Layer" class="s11" d="m380.2 253.2l-9-1.5 4.7 7.9c0 0 5.8-0.2 7.5-3.7z"/>
		<path id="Layer" class="s11" d="m364.6 255.3l4.3 6.4 7-2.1-4.7-7.9-6.6 3.6z"/>
		<path id="Layer" fill-rule="evenodd" class="s5" d="m379.8 458.7q-0.2 0-0.5-0.1-0.2 0-0.4 0-0.2-0.1-0.4-0.2-0.2-0.1-0.4-0.2-0.1-0.1-0.2-0.3-0.1-0.1-0.2-0.2 0-0.2 0-0.3 0-0.2 0-0.4 0 0 0.1-0.1 0-0.1 0.1-0.2 0-0.1 0.1-0.2 0.1 0 0.1-0.1c1.1-0.4 3.8 1.3 4.2 1.5q0 0.1 0 0.1 0 0 0 0 0 0.1 0 0.1 0 0 0 0.1 0 0 0 0 0 0 0 0.1 0 0-0.1 0 0 0 0 0-0.3 0.1-0.6 0.2-0.3 0-0.6 0.1-0.3 0-0.6 0-0.3 0-0.6 0.1zm-1.2-1.9q0 0-0.1 0 0 0 0 0-0.1 0-0.1 0 0 0-0.1 0 0 0 0 0-0.1 0.1-0.1 0.1 0 0 0 0.1-0.1 0-0.1 0.1 0 0.1 0 0.2 0 0.1 0.1 0.2 0 0.1 0 0.2 0.1 0 0.2 0.1c0.4 0.4 1.6 0.5 3.2 0.2q-0.4-0.2-0.7-0.4-0.4-0.2-0.8-0.4-0.3-0.1-0.7-0.2-0.4-0.1-0.8-0.2z"/>
		<path id="Layer" fill-rule="evenodd" class="s5" d="m382.2 458.3h-0.1c-0.9-0.5-2.5-2.4-2.3-3.4q0-0.2 0.1-0.3 0.1-0.1 0.2-0.2 0.1 0 0.2-0.1 0.1 0 0.2 0 0.1-0.1 0.3-0.1 0.1 0.1 0.2 0.1 0.1 0 0.2 0.1 0.1 0.1 0.2 0.1c1 0.9 1 3.5 1 3.7q0 0 0 0 0 0 0 0.1 0 0 0 0-0.1 0-0.1 0zm-1.6-3.6c-0.3 0-0.4 0.2-0.4 0.3-0.1 0.6 0.9 2.1 1.8 2.7q0-0.3-0.1-0.7 0-0.4-0.1-0.7-0.1-0.4-0.3-0.7-0.1-0.4-0.3-0.7-0.1 0-0.2-0.1 0 0-0.1 0-0.1-0.1-0.1-0.1-0.1 0-0.2 0z"/>
		<path id="Layer" fill-rule="evenodd" class="s5" d="m338.8 458.7q-0.3 0-0.6 0-0.3-0.1-0.6-0.1-0.3-0.1-0.5-0.2-0.3-0.1-0.5-0.3-0.1-0.1-0.2-0.2-0.1-0.1-0.1-0.3-0.1-0.1-0.1-0.3 0-0.1 0-0.2 0-0.1 0-0.2 0.1-0.1 0.1-0.2 0 0 0.1-0.1 0.1-0.1 0.2-0.1c1.1-0.6 4.7 1.2 5.1 1.4q0 0 0 0.1 0 0 0.1 0 0 0.1 0 0.1 0 0 0 0.1 0 0 0 0-0.1 0-0.1 0.1 0 0 0 0-0.1 0-0.1 0-0.3 0.1-0.7 0.2-0.4 0-0.7 0.1-0.4 0-0.7 0-0.4 0-0.7 0.1zm-1.6-1.9q-0.1 0-0.1 0-0.1 0-0.1 0-0.1 0-0.1 0-0.1 0-0.1 0.1-0.1 0-0.1 0 0 0 0 0.1-0.1 0-0.1 0 0 0.1 0 0.1 0 0.1 0 0.2 0 0.1 0.1 0.2 0 0.1 0 0.1 0.1 0.1 0.2 0.2c0.5 0.5 2 0.6 4 0.2q-0.4-0.2-0.9-0.4-0.4-0.2-0.9-0.4-0.5-0.1-1-0.2-0.4-0.1-0.9-0.2z"/>
		<path id="Layer" fill-rule="evenodd" class="s5" d="m341.6 458.3h-0.1c-1.1-0.5-3.2-2.4-3.1-3.4 0-0.3 0.3-0.6 0.8-0.6q0.2-0.1 0.4 0 0.1 0 0.3 0 0.1 0.1 0.3 0.1 0.1 0.1 0.3 0.2c1.1 1 1.3 3.4 1.3 3.5q0 0 0 0.1 0 0 0 0 0 0 0 0.1-0.1 0-0.1 0 0 0 0 0 0 0-0.1 0 0 0 0 0 0 0 0 0zm-2.2-3.6h-0.1c-0.4 0-0.4 0.2-0.4 0.2-0.1 0.7 1.3 2.2 2.4 2.8q-0.1-0.3-0.2-0.7-0.1-0.4-0.2-0.7-0.2-0.4-0.4-0.7-0.2-0.3-0.4-0.6-0.1-0.1-0.2-0.1-0.1-0.1-0.1-0.1-0.1-0.1-0.2-0.1-0.1 0-0.2 0z"/>
		<path id="Layer" class="s11" d="m355.8 179.4c-0.3 5.4-1.3 16.5 2.9 19.5 0 0-0.8 5.6-10.6 6.9-10.9 1.4-5.9-4.7-5.9-4.7 5.7-2.2 5-6.6 3.4-10.6z"/>
		<path id="Layer" class="s14" d="m333.4 169.7q-0.1 0-0.1 0-0.1 0-0.1 0 0 0-0.1 0 0-0.1 0-0.1-0.3-0.3-0.6-0.5-0.3-0.3-0.7-0.4-0.4-0.2-0.8-0.3-0.4 0-0.8 0-0.1 0-0.1 0-0.1 0-0.2-0.1-0.1 0-0.1-0.1-0.1-0.1-0.1-0.2 0 0 0-0.1 0.1-0.1 0.1-0.2 0.1 0 0.2-0.1 0 0 0.1 0 0.5-0.1 1 0 0.5 0.1 1 0.3 0.5 0.2 0.9 0.5 0.4 0.3 0.7 0.7 0.1 0.1 0.1 0.2 0 0.1 0 0.2-0.1 0.1-0.2 0.2-0.1 0.1-0.2 0.1z"/>
		<path id="Layer" class="s15" d="m331.5 175.1q-0.2 0.6-0.4 1.3-0.2 0.6-0.4 1.2-0.3 0.6-0.6 1.2-0.2 0.6-0.6 1.2 0.3 0.2 0.7 0.3 0.3 0.1 0.6 0.1 0.4 0 0.7-0.1 0.4 0 0.7-0.1z"/>
		<path id="Layer" class="s14" d="m332 173.8c0.1 0.7-0.2 1.3-0.7 1.4-0.5 0.1-0.9-0.5-1-1.2-0.1-0.7 0.2-1.4 0.7-1.4 0.4-0.1 0.9 0.4 1 1.2z"/>
		<path id="Layer" class="s14" d="m331.2 172.6l-1.8-0.3c0 0 1 1.2 1.8 0.3z"/>
		<path id="Layer" class="s11" d="m351.5 458.1h-9l-0.6-20.9h9l0.6 20.9z"/>
		<path id="Layer" class="s11" d="m392.5 458.1h-9l-2.9-20.9h9l2.9 20.9z"/>
		<path id="Layer" class="s14" d="m382.9 457.1h10.1q0.2 0 0.3 0.1 0.1 0 0.2 0.1 0.1 0.1 0.2 0.2 0 0.1 0 0.2l1.3 8.1q0 0.3-0.1 0.6-0.1 0.2-0.3 0.5-0.2 0.2-0.5 0.3-0.3 0.2-0.6 0.2c-3.5-0.1-5.2-0.3-9.7-0.3-2.7 0-6.7 0.3-10.5 0.3-3.8 0-4-3.8-2.4-4.1 7-1.5 8.2-3.6 10.5-5.6q0.2-0.2 0.4-0.3 0.1-0.1 0.3-0.1 0.2-0.1 0.4-0.1 0.2-0.1 0.4-0.1z"/>
		<path id="Layer" class="s14" d="m342.2 457.1h10.1q0.1 0 0.2 0.1 0.2 0 0.3 0.1 0.1 0.1 0.1 0.2 0.1 0.1 0.1 0.2l1.2 8.1q0 0.3 0 0.6-0.1 0.2-0.4 0.5-0.2 0.2-0.4 0.3-0.3 0.2-0.6 0.2c-3.6-0.1-5.3-0.3-9.7-0.3-2.8 0-8.5 0.3-12.2 0.3-3.8 0-4-3.8-2.4-4.1 7-1.5 9.8-3.6 12.2-5.6q0.1-0.2 0.3-0.3 0.2-0.1 0.4-0.1 0.2-0.1 0.4-0.1 0.2-0.1 0.4-0.1z"/>
		<path id="Layer" class="s18" d="m341.9 437.2l0.3 10.8h9l-0.3-10.8h-9z"/>
		<path id="Layer" class="s18" d="m389.6 437.2h-9l1.5 10.8h9l-1.5-10.8z"/>
		<path id="Layer" class="s11" d="m355.9 168.1c0.6 8.9 1.1 12.7-2.8 17.8-5.8 7.8-16.9 6.6-20.2-2-3-7.7-3.5-21 4.7-25.7 1.9-1 3.9-1.6 6-1.6 2.1 0 4.1 0.5 5.9 1.5 1.9 1 3.4 2.4 4.5 4.2 1.2 1.7 1.8 3.7 1.9 5.8z"/>
		<path id="Layer" class="s14" d="m361.1 176.4c5 2.8 8.8-4.1 8.8-4.1 0 0-9 1-8.2-4.4 1-7.1-4-15.7-16.8-14.6q-1 0.1-2 0.3-1-0.5-2.1-0.6-1.1-0.1-2.2 0.1-1.1 0.3-2 0.9-1 0.5-1.7 1.4c-3.6 0.3-8.4 4.6-5.1 10.3q0.1-0.2 0.2-0.5 0.1-0.2 0.2-0.4 0.1-0.2 0.3-0.5 0.2-0.2 0.3-0.4c0.3 3.4 3.2 8.7 6.9 9 0.7 4.6-2.3 9.9-1.2 14.6 1.5 6.9 13.1 8.5 13.1 8.5q-0.3-0.7-0.4-1.4-0.1-0.7 0-1.4 0.1-0.7 0.3-1.3 0.3-0.7 0.8-1.2c7.8 3.6 13 0 13 0-5.3-2-3.7-5.5-3.7-5.5q1.4 0.6 2.9 0.7 1.5 0 3-0.5 1.4-0.5 2.5-1.6 1.1-1 1.8-2.3-1.3 0-2.6-0.3-1.3-0.3-2.5-1-1.1-0.7-2.1-1.6-0.9-1-1.5-2.2z"/>
		<path id="Layer" class="s11" d="m340.8 174.3q0 0.6-0.1 1.3-0.1 0.6-0.3 1.2-0.3 0.6-0.6 1.2-0.4 0.5-0.8 1c-1.6 1.6-3.5 0.5-4.1-1.7-0.4-1.9-0.2-5 1.9-5.9q0.7-0.2 1.4-0.1 0.8 0 1.4 0.5 0.6 0.4 0.9 1.1 0.3 0.7 0.3 1.4z"/>
		<path id="Layer" class="s14" d="m348.3 257.5c0 0 2.3 59.5 7.7 94.3 4.4 28.2 23.9 94.1 23.9 94.1h12.3c0 0-10.2-63.6-12.4-91.5-5.6-70.5 9-85.7-4.8-100.4z"/>
		<path id="Layer" class="s19" d="m358.6 276.3c0 0-5.6-0.9-8.8 9.7 1.2 20 3.2 46.7 6.2 65.8 0.7 4.3 1.7 9.5 2.9 15.1-2.3-33.9-0.3-90.6-0.3-90.6z"/>
		<path id="Layer" class="s14" d="m338.7 258.8c0 0-10.1 65.7-9.5 93.2 0.6 28.6 11.1 93.9 11.1 93.9h12.2c0 0-2-63.6-0.9-91.7 1.2-30.6 13.7-98.9 13.7-98.9z"/>
		<path id="Layer" class="s5" d="m394 446.5h-16.4l-1.3-5.5 17.5 0.1 0.2 5.4z"/>
		<path id="Layer" class="s20" d="m394 446.5h-16.4l-1.3-5.5 17.5 0.1 0.2 5.4z"/>
		<path id="Layer" class="s5" d="m374.4 198.9c4.7 0.5 11.8 13.9 11.8 13.9l-11.8 9.1c0 0-9.9-8.7-8.7-13.5 1.2-5 4.2-9.9 8.7-9.5z"/>
		<path id="Layer" class="s16" d="m374.4 198.9c4.7 0.5 11.8 13.9 11.8 13.9l-11.8 9.1c0 0-9.9-8.7-8.7-13.5 1.2-5 4.2-9.9 8.7-9.5z"/>
		<path id="Layer" class="s5" d="m370.8 204.7q-0.4-0.1-0.9-0.2-0.4-0.1-0.9-0.2-0.5 0-0.9 0-0.5 0-1 0-0.2 0.5-0.4 1-0.2 0.5-0.4 1-0.2 0.5-0.3 1-0.2 0.6-0.3 1.1c-1.2 4.8 8.7 13.5 8.7 13.5l0.8-0.7z"/>
		<path id="Layer" class="s13" d="m370.8 204.7q-0.4-0.1-0.9-0.2-0.4-0.1-0.9-0.2-0.5 0-0.9 0-0.5 0-1 0-0.2 0.5-0.4 1-0.2 0.5-0.4 1-0.2 0.5-0.3 1-0.2 0.6-0.3 1.1c-1.2 4.8 8.7 13.5 8.7 13.5l0.8-0.7z"/>
		<path id="Layer" class="s11" d="m334.7 217.5c-3.5 8.7-7.1 17.5-9.9 26.2q-0.3 0.9-0.6 1.7l-0.4 1.3q0 0.1 0 0.3-0.1 0.2-0.1 0.3 0 0.2 0.1 0.3 0 0.2 0 0.3 0.3 0.6 0.6 1.1 0.3 0.5 0.7 1 0.4 0.5 0.9 0.9 0.4 0.4 0.9 0.7 1.4 1 2.8 1.9 1.4 0.9 2.9 1.6 1.4 0.8 2.9 1.5 1.6 0.7 3.1 1.3l-1.1 4.4q-1.9-0.2-3.8-0.7-1.8-0.4-3.7-1-1.8-0.6-3.6-1.3-1.7-0.8-3.4-1.7-1.1-0.6-2-1.3-0.9-0.7-1.8-1.5-0.8-0.9-1.5-1.8-0.7-1-1.2-2-0.3-0.7-0.5-1.4-0.2-0.7-0.3-1.4-0.1-0.7-0.1-1.5 0-0.7 0.1-1.4 0-0.1 0-0.2 0-0.1 0-0.2 0-0.1 0-0.2 0.1-0.1 0.1-0.1l0.1-0.5 0.2-1q0.2-0.9 0.5-1.8c1.2-4.8 2.7-9.4 4.3-13.9 1.6-4.5 3.3-9 5.3-13.5z"/>
		<path id="Layer" class="s5" d="m327.4 205.3c0 0-4.1 2.1 11.3 53.5l36.3-4.8c-2.5-14.7-3.7-23.8-0.6-55.1q-2-0.1-3.9-0.2-2 0-3.9 0-2 0-4 0-1.9 0.1-3.9 0.2-2.1 0.2-4.1 0.3-2.1 0.2-4.2 0.5-2 0.3-4.1 0.6-2 0.4-4.1 0.8c-6.9 1.6-14.8 4.2-14.8 4.2z"/>
		<path id="Layer" class="s16" d="m327.4 205.3c0 0-4.1 2.1 11.3 53.5l36.3-4.8c-2.5-14.7-3.7-23.8-0.6-55.1q-2-0.1-3.9-0.2-2 0-3.9 0-2 0-4 0-1.9 0.1-3.9 0.2-2.1 0.2-4.1 0.3-2.1 0.2-4.2 0.5-2 0.3-4.1 0.6-2 0.4-4.1 0.8c-6.9 1.6-14.8 4.2-14.8 4.2z"/>
		<path id="Layer" class="s5" d="m375.3 251.8l2.1 3.1c0.1 0.2-0.1 0.5-0.5 0.5l-38.1 5c-0.4 0-0.7-0.1-0.7-0.3l-0.8-3.2c0-0.2 0.2-0.4 0.6-0.5l36.8-4.8q0.1 0 0.2 0 0.1 0 0.1 0 0.1 0.1 0.2 0.1 0 0.1 0.1 0.1z"/>
		<path id="Layer" class="s20" d="m375.3 251.8l2.1 3.1c0.1 0.2-0.1 0.5-0.5 0.5l-38.1 5c-0.4 0-0.7-0.1-0.7-0.3l-0.8-3.2c0-0.2 0.2-0.4 0.6-0.5l36.8-4.8q0.1 0 0.2 0 0.1 0 0.1 0 0.1 0.1 0.2 0.1 0 0.1 0.1 0.1z"/>
		<path id="Layer" class="s14" d="m370.9 256.6l1-0.1c0.2 0 0.3-0.2 0.3-0.3l-1-4.2q-0.1 0-0.1-0.1 0 0-0.1 0-0.1-0.1-0.1-0.1-0.1 0-0.1 0.1l-1 0.1c-0.2 0-0.4 0.1-0.3 0.3l1 4.1c0 0.1 0.2 0.2 0.4 0.2z"/>
		<path id="Layer" class="s14" d="m347 259.7l1-0.2c0.2 0 0.3-0.1 0.3-0.2l-1-4.2q0 0-0.1-0.1 0 0-0.1-0.1 0 0-0.1 0-0.1 0-0.1 0l-1 0.2c-0.2 0-0.3 0.1-0.3 0.2l1 4.2c0 0.2 0.2 0.2 0.4 0.2z"/>
		<path id="Layer" class="s5" d="m329.1 222.8c1 4.6 2.4 10.5 4.4 18l0.5-18.9z"/>
		<path id="Layer" class="s13" d="m329.1 222.8c1 4.6 2.4 10.5 4.4 18l0.5-18.9z"/>
		<path id="Layer" class="s5" d="m327.4 205.3c-4.6 1.9-8.5 17.3-8.5 17.3l15.6 7.6c0 0 7.5-18.9 4.1-22.6-3.3-3.7-6-4.3-11.2-2.3z"/>
		<path id="Layer" class="s16" d="m327.4 205.3c-4.6 1.9-8.5 17.3-8.5 17.3l15.6 7.6c0 0 7.5-18.9 4.1-22.6-3.3-3.7-6-4.3-11.2-2.3z"/>
		<path id="Layer" class="s5" d="m354.5 446.5h-16.3l-1.3-5.5 18.2 0.1-0.6 5.4z"/>
		<path id="Layer" class="s20" d="m354.5 446.5h-16.3l-1.3-5.5 18.2 0.1-0.6 5.4z"/>
		<path id="Layer" class="s11" d="m338.9 256.4l-1.4-0.5q-0.4-0.2-1-0.2-0.5 0.1-0.9 0.4-0.4 0.4-0.6 0.9-0.2 0.4-0.1 1l0.9 6.2q0.1 0.5 0.3 0.9 0.3 0.4 0.7 0.7 0.4 0.2 0.9 0.3 0.5 0 0.9-0.1 0.2-0.1 0.4-0.2 0.2-0.1 0.3-0.2 0.2-0.1 0.4-0.2 0.1-0.1 0.3-0.2 0.3-0.3 0.6-0.6 0.2-0.3 0.4-0.7 0.1-0.4 0.2-0.8 0.1-0.4 0.1-0.9l-0.2-2.6q0-0.5-0.1-1-0.2-0.5-0.5-0.9-0.3-0.5-0.7-0.8-0.4-0.3-0.9-0.5z"/>
	</g>
</svg>