<svg version="1.2" xmlns="http://www.w3.org/2000/svg" viewBox="0 0 500 500" width="500" height="500">
	<title>Usability testing-rafiki-svg</title>
	<style>
		.s0 { fill: #ebebeb } 
		.s1 { fill: #e6e6e6 } 
		.s2 { fill: #f5f5f5 } 
		.s3 { fill: #f0f0f0 } 
		.s4 { fill: #e0e0e0 } 
		.s5 { fill: #fafafa } 
		.s6 { fill: #ffffff } 
		.s7 { fill: #0076cd } 
		.s8 { opacity: .2;fill: #000000 } 
		.s9 { opacity: .4;fill: #ffffff } 
		.s10 { opacity: .7;fill: #ffffff } 
		.s11 { fill: #7f3e3b } 
		.s12 { fill: #263238 } 
		.s13 { fill: #630f0f } 
		.s14 { opacity: .5;fill: #000000 } 
		.s15 { opacity: .3;fill: #000000 } 
	</style>
	<g id="freepik--background-complete--inject-15">
		<path id="Layer" class="s0" d="m-51 417.2h605v0.3h-605z"/>
		<path id="Layer" class="s0" d="m426.2 431h61.6v0.3h-61.6z"/>
		<path id="Layer" class="s0" d="m12.5 427.4h57.1v0.3h-57.1z"/>
		<path id="Layer" class="s0" d="m407.4 425.4h23.2v0.3h-23.2z"/>
		<path id="Layer" class="s0" d="m332.7 433.4h17.1v0.3h-17.1z"/>
		<path id="Layer" class="s0" d="m279.1 433.4h42.9v0.3h-42.9z"/>
		<path id="Layer" class="s0" d="m185.2 428.3h69v0.3h-69z"/>
		<path id="Layer" fill-rule="evenodd" class="s0" d="m235.8 363.2h-233.7q-1.3 0-2.6-0.5-1.3-0.6-2.2-1.5-1-1-1.5-2.3-0.6-1.2-0.6-2.6v-328.5q0-1.3 0.6-2.6 0.5-1.2 1.5-2.2 0.9-1 2.2-1.5 1.3-0.5 2.6-0.5h233.7q1.3 0 2.6 0.5 1.3 0.6 2.3 1.5 0.9 1 1.5 2.3 0.5 1.2 0.5 2.6v328.4q0 1.4-0.5 2.6-0.6 1.3-1.5 2.3-1 0.9-2.3 1.5-1.3 0.5-2.6 0.5zm-233.7-342q-1.3 0-2.5 0.5-1.2 0.6-2.1 1.5-1 0.9-1.5 2.1-0.5 1.2-0.5 2.5v328.5q0 1.3 0.5 2.5 0.5 1.2 1.5 2.2 0.9 0.9 2.1 1.4 1.2 0.5 2.5 0.5h233.7q1.3 0 2.5-0.5 1.2-0.5 2.1-1.4 1-1 1.5-2.2 0.5-1.2 0.5-2.5v-328.5q0-1.3-0.5-2.5-0.5-1.2-1.5-2.1-0.9-0.9-2.1-1.5-1.2-0.5-2.5-0.5z"/>
		<path id="Layer" fill-rule="evenodd" class="s0" d="m497.5 363.2h-233.6q-1.4 0-2.7-0.5-1.3-0.6-2.2-1.5-1-1-1.5-2.3-0.5-1.2-0.6-2.6v-328.5q0.1-1.3 0.6-2.6 0.5-1.2 1.5-2.2 1-1 2.2-1.5 1.3-0.5 2.7-0.5h233.6q1.4 0 2.6 0.5 1.3 0.6 2.3 1.5 0.9 1 1.5 2.2 0.5 1.3 0.5 2.6v328.5q0 1.4-0.5 2.6-0.6 1.3-1.5 2.3-1 0.9-2.3 1.5-1.2 0.5-2.6 0.5zm-233.6-342q-1.4 0-2.6 0.5-1.2 0.6-2.1 1.5-0.9 0.9-1.4 2.1-0.5 1.2-0.5 2.5v328.5q0 1.3 0.5 2.5 0.5 1.2 1.4 2.2 0.9 0.9 2.1 1.4 1.2 0.5 2.6 0.5h233.6q1.3 0 2.5-0.5 1.3-0.5 2.2-1.4 0.9-1 1.4-2.2 0.5-1.2 0.5-2.5v-328.5q0-1.3-0.5-2.5-0.5-1.2-1.4-2.1-0.9-0.9-2.2-1.5-1.2-0.5-2.5-0.5z"/>
		<path id="Layer" class="s1" d="m383.6 311.9h-36.3v-105.8h36.3z"/>
		<path id="Layer" class="s2" d="m383.6 206.1h75.2v105.8h-75.2z"/>
		<path id="Layer" class="s3" d="m437 271.4h21.8v14.3h-21.8z"/>
		<path id="Layer" class="s3" d="m437 289.7h21.8v14.4h-21.8z"/>
		<path id="Layer" class="s4" d="m383 206.1h-37.3v-5.3h37.3z"/>
		<path id="Layer" class="s3" d="m383 200.8h77.4v5.3h-77.4z"/>
		<path id="Layer" class="s1" d="m319.9 319.4h50.5v97.8h-50.5z"/>
		<path id="Layer" class="s2" d="m370.4 319.4h104.6v97.8h-104.6z"/>
		<path id="Layer" class="s3" d="m378.9 330.6h36.1v31.8h-36.1z"/>
		<path id="Layer" class="s3" d="m378.9 371.2h36.1v31.9h-36.1z"/>
		<path id="Layer" class="s4" d="m317.7 311.9h51.9v7.5h-51.9z"/>
		<path id="Layer" class="s3" d="m369.6 311.9h107.6v7.5h-107.6z"/>
		<path id="Layer" class="s0" d="m166.5 50.3h97.1v366.9h-97.1z"/>
		<path id="Layer" class="s5" d="m257 57.7v352h-83.9v-352z"/>
		<path id="Layer" class="s0" d="m66.6 50.3h97v366.9h-97z"/>
		<path id="Layer" class="s4" d="m166.5 415.7h-2.9v-363.9h2.9z"/>
		<path id="Layer" class="s5" d="m157.1 57.7v352h-83.9v-352z"/>
		<path id="Layer" class="s4" d="m21 45.5c0-0.7 0.6-1.2 1.2-1.2h285.7c0.7 0 1.2 0.5 1.2 1.2v0.9c0 0.6-0.5 1.2-1.2 1.2h-285.7c-0.6 0-1.2-0.6-1.2-1.2z"/>
		<path id="Layer" class="s4" d="m173.1 57.7h83.9v7.1h-83.9z"/>
		<path id="Layer" class="s4" d="m257 57.7v70.5h-83.9v-70.5z"/>
		<path id="Layer" class="s4" d="m157.1 57.7v154.2h-83.9v-154.2z"/>
		<g id="Layer" style="opacity: .5">
			<path id="Layer" class="s2" d="m247.4 36.6h27.7v376h-27.7z"/>
			<path id="Layer" class="s3" d="m254.7 36.6h13.1v376h-13.1z"/>
			<path id="Layer" class="s2" d="m262.3 36.6h27.7v376h-27.7z"/>
			<path id="Layer" class="s3" d="m269.6 36.6h13.1v376h-13.1z"/>
			<path id="Layer" class="s2" d="m276.1 36.6h27.8v376h-27.8z"/>
		</g>
		<g id="Layer" style="opacity: .5">
			<path id="Layer" class="s2" d="m25.4 36.6h82.9v376h-82.9z"/>
			<path id="Layer" class="s3" d="m47.3 36.6h39.1v376h-39.1z"/>
			<path id="Layer" class="s2" d="m69.9 36.6h82.9v376h-82.9z"/>
			<path id="Layer" class="s3" d="m91.8 36.6h39.1v376h-39.1z"/>
			<path id="Layer" class="s2" d="m111.3 36.6h82.9v376h-82.9z"/>
		</g>
		<path id="Layer" class="s5" d="m462 159.3h-106.4v-107.5h106.4z"/>
		<path id="Layer" class="s3" d="m382.3 84c0-2.9 2.4-5.2 5.2-5.2h42.6c2.9 0 5.2 2.3 5.2 5.2v43.1c0 2.9-2.3 5.2-5.2 5.2h-42.6c-2.8 0-5.2-2.3-5.2-5.2z"/>
		<path id="Layer" class="s6" d="m408.4 72.4c0-2 1.6-3.6 3.6-3.6h29.8c2 0 3.6 1.6 3.6 3.6v30.2c0 2-1.6 3.6-3.6 3.6h-29.8c-2 0-3.6-1.6-3.6-3.6z"/>
		<path id="Layer" class="s3" d="m386.3 122.9c0-1.3 1.1-2.5 2.5-2.5h20.6c1.4 0 2.6 1.2 2.6 2.5v21c0 1.4-1.2 2.5-2.6 2.5h-20.6c-1.4 0-2.5-1.1-2.5-2.5z"/>
		<path id="Layer" class="s3" d="m349.7 51.8h5.9v107.5h-5.9z"/>
	</g>
	<g id="freepik--Shadow--inject-15">
		<path id="freepik--path--inject-15" class="s2" d="m251.5 471.8c-129.7 0-234.6-6.1-234.6-13.7 0-7.6 104.9-13.7 234.6-13.7 129.7 0 234.6 6.1 234.6 13.7 0 7.6-104.9 13.7-234.6 13.7z"/>
	</g>
	<g id="freepik--Application--inject-15">
		<path id="Layer" class="s7" d="m413.4 93.8l-1.2-0.1c0.1-2.3-0.2-4.7-1-6.9-0.8-2.2-2-4.2-3.6-5.9-1.6-1.7-3.6-3.1-5.7-4-2.2-0.9-4.5-1.4-6.8-1.4h-21.9v-1.3h21.8c2.6 0 5.1 0.5 7.4 1.5 2.3 1 4.4 2.5 6.1 4.3 1.7 1.8 3 4 3.9 6.4 0.8 2.3 1.1 4.9 1 7.4z"/>
		<path id="Layer" class="s7" d="m410.9 113.8l0.7-11.5 1.2 0.1-0.7 11.5z"/>
		<path id="Layer" class="s7" d="m375.8 389.8h-145.7c-1.9 0-3.8-0.4-5.6-1.1-1.8-0.8-3.4-1.9-4.7-3.3-1.3-1.4-2.3-3.1-2.9-4.9-0.7-1.8-0.9-3.7-0.8-5.6l17.4-281.4c0.1-2 0.6-3.9 1.5-5.7 0.9-1.8 2.1-3.5 3.5-4.8 1.5-1.4 3.1-2.5 5-3.2 1.8-0.8 3.8-1.2 5.8-1.2h145.7c2 0 3.9 0.3 5.6 1.1 1.8 0.8 3.4 1.9 4.7 3.3 1.3 1.4 2.3 3 3 4.8 0.6 1.9 0.9 3.8 0.7 5.7l-17.3 281.4c-0.2 2-0.7 3.9-1.6 5.7-0.8 1.8-2 3.4-3.5 4.8-1.4 1.4-3.1 2.4-4.9 3.2-1.9 0.7-3.9 1.1-5.9 1.2z"/>
		<path id="Layer" class="s8" d="m288.7 142.7h-31.8c-1.1 0-2.2-0.2-3.2-0.7-1-0.4-1.9-1-2.7-1.8-0.7-0.8-1.3-1.8-1.7-2.8-0.3-1.1-0.5-2.2-0.4-3.3l1.6-26.4q0.2-1.8 0.9-3.3 0.8-1.6 2-2.8 1.3-1.1 2.9-1.8 1.6-0.7 3.3-0.7h31.8c1.1 0 2.2 0.2 3.2 0.7 1.1 0.4 2 1 2.7 1.8 0.8 0.8 1.4 1.8 1.7 2.8 0.4 1.1 0.5 2.2 0.5 3.3l-1.7 26.4q-0.1 1.8-0.9 3.3-0.7 1.6-2 2.8-1.2 1.1-2.8 1.8-1.6 0.7-3.4 0.7z"/>
		<path id="Layer" class="s8" d="m298 365q0.9 0 1.8-0.4 1-0.4 1.7-1 0.7-0.7 1.1-1.6 0.4-0.9 0.4-1.8l3.4-54.6q0.1-0.9-0.2-1.8-0.3-0.9-1-1.6-0.6-0.6-1.5-1-0.8-0.4-1.8-0.4h-81.2l-4 64.2z"/>
		<path id="Layer" class="s7" d="m213 276.3h-24.9q-0.7 0-1.3 0.3-0.6 0.2-1.1 0.7-0.5 0.5-0.8 1.1-0.3 0.6-0.3 1.2l-1.7 28.1q-0.1 0.6 0.1 1.2 0.2 0.6 0.7 1.1 0.4 0.5 1 0.7 0.6 0.3 1.3 0.3h24.8q0.7 0 1.3-0.3 0.6-0.2 1.1-0.7 0.5-0.4 0.8-1 0.3-0.7 0.3-1.3l1.8-28.1q0-0.6-0.2-1.2-0.2-0.6-0.6-1.1-0.5-0.5-1.1-0.7-0.6-0.3-1.2-0.3z"/>
		<path id="Layer" class="s9" d="m213 276.3h-24.9q-0.7 0-1.3 0.3-0.6 0.2-1.1 0.7-0.5 0.5-0.8 1.1-0.3 0.6-0.3 1.2l-1.7 28.1q-0.1 0.6 0.1 1.2 0.2 0.6 0.7 1.1 0.4 0.5 1 0.7 0.6 0.3 1.3 0.3h24.8q0.7 0 1.3-0.3 0.6-0.2 1.1-0.7 0.5-0.4 0.8-1 0.3-0.7 0.3-1.3l1.8-28.1q0-0.6-0.2-1.2-0.2-0.6-0.6-1.1-0.5-0.5-1.1-0.7-0.6-0.3-1.2-0.3z"/>
		<path id="Layer" fill-rule="evenodd" class="s6" d="m398.5 84.4c1.1 0.5 2.2 1.2 3.1 2.1 0.9 1 1.5 2.1 2 3.3 0.4 1.2 0.6 2.5 0.5 3.8l-6.4 103.5q-0.1 1-0.5 1.8-0.4 0.9-1.1 1.6-0.7 0.6-1.6 1-0.9 0.4-1.9 0.4h-156.1q-0.9 0-1.8-0.4-0.8-0.3-1.5-1-0.6-0.7-0.9-1.6-0.3-0.9-0.2-1.8l6.3-103.5c0.1-1.4 0.5-2.7 1.1-3.9 0.5-1.2 1.3-2.2 2.3-3.2 1-0.9 2.1-1.6 3.3-2.1 1.3-0.5 2.6-0.8 3.9-0.8h145.7c1.3 0 2.6 0.3 3.8 0.8zm-3.8 0.4h-145.7q-1.8 0.1-3.4 0.7-1.7 0.7-3 1.9-1.3 1.2-2 2.8-0.8 1.6-0.9 3.4l-6.4 103.6q-0.1 0.6 0.2 1.3 0.2 0.6 0.6 1.1 0.5 0.5 1.1 0.7 0.7 0.3 1.3 0.3h156.1q0.7 0 1.4-0.3 0.7-0.3 1.2-0.8 0.6-0.5 0.9-1.1 0.3-0.7 0.3-1.4l6.4-103.6c0.1-1.1 0-2.2-0.4-3.3-0.4-1-1-2-1.7-2.8-0.8-0.8-1.7-1.4-2.7-1.9-1-0.4-2.2-0.6-3.3-0.6z"/>
		<path id="Layer" class="s6" d="m316.7 214h-79.4q-1.3 0-2.5 0.5-1.1 0.4-2.1 1.3-0.9 0.9-1.4 2-0.6 1.2-0.7 2.5l-3.3 53q-0.1 1.3 0.3 2.4 0.4 1.2 1.3 2.1 0.8 0.9 1.9 1.3 1.2 0.5 2.4 0.5h79.3q1.3 0 2.5-0.5 1.2-0.5 2.1-1.3 0.9-0.9 1.5-2 0.5-1.2 0.6-2.5l3.3-53q0.1-1.3-0.3-2.4-0.4-1.2-1.3-2.1-0.8-0.9-1.9-1.3-1.1-0.5-2.3-0.5z"/>
		<path id="Layer" class="s6" d="m292.9 291h-79.4q-1.3 0-2.5 0.5-1.1 0.4-2.1 1.3-0.9 0.9-1.4 2-0.6 1.2-0.7 2.4l-3.2 53.1q-0.1 1.3 0.3 2.4 0.4 1.2 1.2 2.1 0.8 0.9 2 1.3 1.1 0.5 2.3 0.5h79.4q1.3 0 2.5-0.5 1.1-0.5 2.1-1.3 0.9-0.9 1.4-2.1 0.6-1.1 0.7-2.4l3.2-53.1q0.1-1.2-0.3-2.3-0.4-1.2-1.2-2.1-0.9-0.9-2-1.3-1.1-0.5-2.3-0.5z"/>
		<path id="Layer" class="s8" d="m356.2 253.3q-1.1 0-2.2 0.4-1 0.5-1.8 1.2-0.8 0.8-1.3 1.8-0.4 1-0.5 2.1l-2.9 46q0 1.1 0.3 2.1 0.4 1 1.1 1.8 0.7 0.7 1.7 1.2 1 0.4 2 0.4h43.1l3.4-57z"/>
		<path id="Layer" class="s7" d="m415.5 243.2h-69.7q-1.1 0-2.2 0.5-1 0.4-1.8 1.2-0.8 0.7-1.3 1.7-0.5 1-0.6 2.1l-2.8 46.7q-0.1 1.1 0.2 2.1 0.4 1 1.1 1.8 0.8 0.8 1.7 1.2 1 0.4 2.1 0.4h69.8q1.1 0 2.1-0.4 1-0.5 1.9-1.2 0.8-0.8 1.2-1.8 0.5-1 0.6-2.1l2.9-46.7q0.1-1-0.3-2-0.3-1.1-1.1-1.8-0.7-0.8-1.7-1.3-1-0.4-2.1-0.4z"/>
		<path id="Layer" class="s10" d="m415.5 243.2h-69.7q-1.1 0-2.2 0.5-1 0.4-1.8 1.2-0.8 0.7-1.3 1.7-0.5 1-0.6 2.1l-2.8 46.7q-0.1 1.1 0.2 2.1 0.4 1 1.1 1.8 0.8 0.8 1.7 1.2 1 0.4 2.1 0.4h69.8q1.1 0 2.1-0.4 1-0.5 1.9-1.2 0.8-0.8 1.2-1.8 0.5-1 0.6-2.1l2.9-46.7q0.1-1-0.3-2-0.3-1.1-1.1-1.8-0.7-0.8-1.7-1.3-1-0.4-2.1-0.4z"/>
		<path id="Layer" class="s7" d="m467.6 167.9h-41.3q-1.1 0-2.2 0.4-1 0.4-1.8 1.2-0.8 0.8-1.3 1.8-0.5 1-0.6 2.1l-2.8 46.6q-0.1 1.1 0.2 2.1 0.4 1 1.1 1.8 0.8 0.8 1.8 1.2 1 0.5 2 0.4h41.4q1.1 0 2.1-0.4 1-0.4 1.8-1.2 0.9-0.7 1.3-1.7 0.5-1.1 0.6-2.2l2.9-46.6q0.1-1.1-0.3-2.1-0.4-1-1.1-1.8-0.7-0.8-1.7-1.2-1-0.4-2.1-0.4z"/>
		<path id="Layer" class="s10" d="m467.6 167.9h-41.3q-1.1 0-2.2 0.4-1 0.4-1.8 1.2-0.8 0.8-1.3 1.8-0.5 1-0.6 2.1l-2.8 46.6q-0.1 1.1 0.2 2.1 0.4 1 1.1 1.8 0.8 0.8 1.8 1.2 1 0.5 2 0.4h41.4q1.1 0 2.1-0.4 1-0.4 1.8-1.2 0.9-0.7 1.3-1.7 0.5-1.1 0.6-2.2l2.9-46.6q0.1-1.1-0.3-2.1-0.4-1-1.1-1.8-0.7-0.8-1.7-1.2-1-0.4-2.1-0.4z"/>
		<path id="Layer" class="s7" d="m430 311.8h-17.2q-0.4 0-0.9 0.2-0.4 0.2-0.7 0.5-0.4 0.3-0.6 0.7-0.1 0.4-0.2 0.9l-1.2 19.4q0 0.4 0.1 0.8 0.2 0.4 0.5 0.8 0.3 0.3 0.7 0.5 0.4 0.1 0.9 0.1h17.2q0.4 0 0.9-0.1 0.4-0.2 0.7-0.5 0.4-0.3 0.6-0.8 0.1-0.4 0.2-0.8l1.2-19.4q0-0.5-0.1-0.9-0.2-0.4-0.5-0.7-0.3-0.4-0.7-0.5-0.4-0.2-0.9-0.2z"/>
		<path id="Layer" class="s9" d="m430 311.8h-17.2q-0.4 0-0.9 0.2-0.4 0.2-0.7 0.5-0.4 0.3-0.6 0.7-0.1 0.4-0.2 0.9l-1.2 19.4q0 0.4 0.1 0.8 0.2 0.4 0.5 0.8 0.3 0.3 0.7 0.5 0.4 0.1 0.9 0.1h17.2q0.4 0 0.9-0.1 0.4-0.2 0.7-0.5 0.4-0.3 0.6-0.8 0.1-0.4 0.2-0.8l1.2-19.4q0-0.5-0.1-0.9-0.2-0.4-0.5-0.7-0.3-0.4-0.7-0.5-0.4-0.2-0.9-0.2z"/>
		<path id="Layer" class="s7" d="m345.2 227.1c-18.4 17.8-46.7 18.2-63.5 0.9-16.7-17.2-15.4-45.6 3-63.4 18.3-17.8 46.7-18.2 63.4-1 16.8 17.3 15.5 45.7-2.9 63.5z"/>
		<path id="Layer" class="s6" d="m342.5 224.2c-16.7 16.2-42.5 16.6-57.8 0.9-15.2-15.7-14-41.4 2.7-57.6 16.7-16.2 42.5-16.6 57.7-0.9 15.3 15.7 14.1 41.4-2.6 57.6z"/>
		<path id="Layer" class="s7" d="m325.7 195.3c-6.1 6-15.6 6.2-21.2 0.4-5.6-5.8-5.2-15.3 1-21.3 6.1-5.9 15.6-6.1 21.2-0.3 5.6 5.8 5.2 15.3-1 21.2z"/>
		<path id="Layer" class="s7" d="m314.3 206.1c-11.7 0-22.2 4.6-28 11.3 1.4 2.3 3.1 4.3 5 6.1 1.9 1.9 4 3.4 6.3 4.7 2.3 1.3 4.8 2.2 7.3 2.9 2.6 0.6 5.2 0.9 7.8 0.9q4.1-0.1 8.1-1.1 4-1 7.7-2.8 3.7-1.9 6.8-4.6 3.1-2.7 5.6-6.1c-4.9-6.7-14.9-11.3-26.6-11.3z"/>
		<path id="Layer" class="s6" d="m283 136.9h-31.9c-1.1 0-2.2-0.3-3.2-0.7-1-0.4-1.9-1.1-2.7-1.9-0.7-0.8-1.3-1.7-1.7-2.8-0.3-1-0.5-2.1-0.4-3.2l1.6-26.4q0.2-1.8 0.9-3.3 0.7-1.6 2-2.8 1.3-1.2 2.9-1.8 1.6-0.7 3.3-0.7h31.8c1.1 0 2.2 0.2 3.2 0.6 1 0.5 1.9 1.1 2.7 1.9 0.7 0.8 1.3 1.8 1.7 2.8 0.3 1 0.5 2.2 0.4 3.3l-1.6 26.4q-0.1 1.7-0.9 3.3-0.7 1.5-2 2.7-1.2 1.2-2.8 1.9-1.6 0.6-3.3 0.7z"/>
		<path id="Layer" class="s7" d="m277.2 115.1l-16-10.7-1.3 21.4 17.3-10.7z"/>
		<path id="Layer" class="s6" d="m386 116.9h-75.9q-0.7 0-1.3-0.3-0.7-0.3-1.2-0.8-0.5-0.5-0.7-1.2-0.2-0.7-0.2-1.4l0.3-4.6q0.1-0.7 0.4-1.4 0.3-0.7 0.8-1.2 0.6-0.5 1.2-0.7 0.7-0.3 1.5-0.3h75.8q0.8 0 1.4 0.2 0.7 0.3 1.1 0.8 0.5 0.6 0.8 1.2 0.2 0.7 0.2 1.4l-0.3 4.6q-0.1 0.8-0.4 1.4-0.3 0.7-0.9 1.2-0.5 0.5-1.2 0.8-0.7 0.2-1.4 0.3z"/>
		<path id="Layer" class="s6" d="m384.8 136.8h-75.9q-0.7 0-1.4-0.2-0.6-0.3-1.1-0.8-0.5-0.6-0.7-1.2-0.3-0.7-0.2-1.4l0.3-4.6q0-0.7 0.3-1.4 0.4-0.7 0.9-1.2 0.5-0.5 1.2-0.8 0.7-0.2 1.4-0.2h75.9q0.7-0.1 1.4 0.2 0.6 0.3 1.1 0.8 0.5 0.5 0.7 1.2 0.3 0.7 0.2 1.4l-0.3 4.6q0 0.7-0.3 1.4-0.4 0.7-0.9 1.2-0.5 0.5-1.2 0.8-0.7 0.2-1.4 0.2z"/>
		<path id="Layer" class="s6" d="m409.9 261.5h-60.8q-0.5 0-0.9-0.2-0.4-0.2-0.7-0.5-0.4-0.4-0.5-0.8-0.2-0.5-0.1-0.9l0.1-1.8q0-0.4 0.2-0.9 0.2-0.4 0.6-0.8 0.3-0.3 0.8-0.5 0.4-0.2 0.9-0.2h60.8q0.5 0 0.9 0.2 0.5 0.2 0.8 0.5 0.3 0.4 0.5 0.8 0.1 0.5 0.1 0.9l-0.1 1.8q-0.1 0.5-0.3 0.9-0.2 0.4-0.5 0.8-0.4 0.3-0.8 0.5-0.5 0.2-1 0.2z"/>
		<path id="Layer" class="s6" d="m409.1 275.3h-60.8q-0.5 0-0.9-0.1-0.4-0.2-0.8-0.6-0.3-0.3-0.4-0.8-0.2-0.4-0.2-0.9l0.2-1.7q0-0.5 0.2-0.9 0.2-0.5 0.6-0.8 0.3-0.4 0.8-0.5 0.4-0.2 0.9-0.2h60.8q0.5 0 0.9 0.2 0.4 0.1 0.8 0.5 0.3 0.3 0.4 0.8 0.2 0.4 0.2 0.9l-0.1 1.7q-0.1 0.5-0.3 1-0.2 0.4-0.6 0.7-0.3 0.4-0.8 0.6-0.4 0.1-0.9 0.1z"/>
		<path id="Layer" class="s6" d="m408.2 289.2h-60.8q-0.5 0-0.9-0.2-0.4-0.2-0.8-0.5-0.3-0.4-0.4-0.8-0.2-0.5-0.1-0.9l0.1-1.8q0-0.5 0.2-0.9 0.2-0.4 0.6-0.8 0.3-0.3 0.8-0.5 0.4-0.2 0.9-0.2h60.8q0.5 0 0.9 0.2 0.5 0.2 0.8 0.5 0.3 0.4 0.5 0.8 0.1 0.5 0.1 0.9l-0.1 1.8q-0.1 0.4-0.3 0.9-0.2 0.4-0.5 0.8-0.4 0.3-0.8 0.5-0.5 0.2-1 0.2z"/>
		<path id="Layer" class="s6" d="m373.1 377c-2.4 2.3-6.1 2.4-8.2 0.1-2.2-2.2-2-5.9 0.3-8.2 2.4-2.3 6.1-2.4 8.3-0.1 2.2 2.2 2 5.9-0.4 8.2z"/>
		<path id="Layer" class="s6" d="m376.3 352.3q-0.1 1.2-0.6 2.3-0.5 1-1.4 1.8-0.8 0.9-1.9 1.3-1.1 0.4-2.3 0.5-1.1 0-2.2-0.5-1-0.4-1.8-1.3-0.8-0.8-1.2-1.9-0.4-1-0.3-2.2 0.1-1.1 0.6-2.2 0.5-1.1 1.4-1.9 0.8-0.8 1.9-1.2 1.1-0.5 2.3-0.5 1.2 0 2.2 0.4 1.1 0.5 1.8 1.3 0.8 0.8 1.2 1.9 0.4 1.1 0.3 2.2z"/>
		<path id="Layer" class="s6" d="m377.6 331.7q-0.1 1.2-0.6 2.2-0.5 1.1-1.4 1.9-0.9 0.8-2 1.2-1 0.5-2.2 0.5-1.2 0-2.2-0.4-1.1-0.5-1.8-1.3-0.8-0.8-1.2-1.9-0.4-1.1-0.3-2.2 0.1-1.2 0.6-2.3 0.5-1 1.4-1.8 0.8-0.9 1.9-1.3 1.1-0.4 2.3-0.5 1.1 0 2.2 0.5 1 0.4 1.8 1.3 0.8 0.8 1.2 1.9 0.3 1 0.3 2.2z"/>
		<path id="Layer" class="s6" d="m355.5 377c-2.4 2.3-6.1 2.4-8.2 0.1-2.2-2.2-2-5.9 0.3-8.2 2.4-2.3 6.1-2.4 8.3-0.1 2.2 2.2 2 5.9-0.4 8.2z"/>
		<path id="Layer" class="s6" d="m358.7 352.3q-0.1 1.2-0.6 2.3-0.5 1-1.4 1.8-0.8 0.9-1.9 1.3-1.1 0.4-2.3 0.5-1.1 0-2.2-0.5-1-0.4-1.8-1.3-0.8-0.8-1.2-1.9-0.4-1-0.3-2.2 0.1-1.1 0.6-2.2 0.5-1.1 1.4-1.9 0.8-0.8 1.9-1.2 1.1-0.5 2.3-0.5 1.1 0 2.2 0.4 1 0.5 1.8 1.3 0.8 0.8 1.2 1.9 0.4 1.1 0.3 2.2z"/>
		<path id="Layer" class="s6" d="m360 331.7q-0.1 1.2-0.6 2.2-0.5 1.1-1.4 1.9-0.9 0.8-2 1.2-1.1 0.5-2.2 0.5-1.2 0-2.2-0.4-1.1-0.5-1.9-1.3-0.7-0.8-1.1-1.9-0.4-1.1-0.3-2.2 0.1-1.2 0.6-2.3 0.5-1 1.4-1.8 0.8-0.9 1.9-1.3 1.1-0.4 2.3-0.5 1.1 0 2.2 0.5 1 0.4 1.8 1.3 0.8 0.8 1.2 1.9 0.3 1 0.3 2.2z"/>
	</g>
	<g id="freepik--Character--inject-15">
		<path id="Layer" class="s11" d="m115 198.7l6.8 5.3-9 4.8c0 0-4.2-4.6-2.1-8.4z"/>
		<path id="Layer" class="s11" d="m122.1 213.2l-4.1 1.3q-0.5 0.1-1 0.1-0.5-0.1-0.9-0.3-0.5-0.2-0.8-0.5-0.4-0.4-0.6-0.8l-1.9-4.3 9-4.7 2.1 5.6q0.2 0.6 0.2 1.1 0 0.6-0.3 1.1-0.2 0.6-0.7 0.9-0.4 0.4-1 0.5z"/>
		<path id="Layer" class="s7" d="m143.7 149.9l-3.6 2.3c-1.2 0.8-2.5 1.6-3.7 2.4q-3.7 2.4-7.3 5-1.8 1.2-3.5 2.5-1.7 1.3-3.3 2.7-1.7 1.4-3.3 2.8-1.6 1.4-3.1 2.9l-0.7 0.7-0.2 0.2q0 0 0 0 0 0 0 0 0 0 0 0 0-0.1 0-0.1c0 0-0.1 0.1-0.3 0.4q-0.1 0.3-0.2 0.7-0.1 0.3-0.2 0.7 0 0.3-0.1 0.7 0 0.3-0.1 0.7 0 1-0.1 2 0 1 0 2 0.1 1 0.1 2 0.1 1 0.2 2c0.6 5.7 1.8 11.7 2.9 17.5l-6.9 2.6q-1.1-2.1-2.1-4.3-1-2.2-1.9-4.5-0.9-2.2-1.7-4.5-0.8-2.3-1.4-4.7-0.4-1.3-0.6-2.5-0.3-1.3-0.5-2.6-0.2-1.3-0.4-2.6-0.1-1.3-0.2-2.6 0-0.8 0-1.6 0-0.8 0.1-1.6 0.1-0.8 0.2-1.6 0.1-0.8 0.3-1.6 0.2-0.5 0.3-1 0.2-0.5 0.4-1 0.2-0.4 0.5-0.9 0.2-0.5 0.5-0.9 0-0.2 0.1-0.3 0.1-0.1 0.2-0.2 0.1-0.2 0.2-0.3 0.1-0.1 0.2-0.2l0.3-0.5 0.2-0.2 0.8-1c1.1-1.4 2.3-2.6 3.4-3.8 1.1-1.3 2.3-2.4 3.6-3.5 2.4-2.3 4.9-4.3 7.4-6.4 2.5-2 5.2-3.8 7.9-5.6q2-1.4 4-2.6c1.4-0.9 2.7-1.7 4.3-2.5z"/>
		<path id="Layer" class="s12" d="m116.7 198.6q-0.9 0.4-1.8 0.7-0.9 0.4-1.9 0.7-0.9 0.3-1.8 0.6-0.9 0.3-1.9 0.5-0.1 0.1-0.2 0.2-0.2 0.1-0.3 0.2 0 0.1-0.1 0.3 0 0.1 0 0.3c0.2 1.2 0.4 2 1.1 2.1 0.6 0.1 7.9-2.4 8.4-3.4 0.3-0.5 0-1.2-0.4-1.8q0-0.2-0.2-0.3-0.1-0.1-0.3-0.2-0.1 0-0.3 0-0.2 0-0.3 0.1z"/>
		<path id="Layer" class="s7" d="m150.9 193.4l-14.6-35.7q-0.4-1-1.1-1.7-0.7-0.7-1.7-1.2-0.9-0.4-1.9-0.5-1.1 0-2.1 0.3l-41.3 13.8q-0.9 0.4-1.6 1-0.8 0.7-1.2 1.6-0.4 0.9-0.4 1.9-0.1 1 0.3 1.9l14.5 35.7q0.4 1 1.2 1.7 0.7 0.8 1.6 1.2 1 0.4 2 0.5 1.1 0.1 2-0.3l41.3-13.8q1-0.3 1.7-1 0.7-0.7 1.2-1.6 0.4-0.9 0.4-1.9 0-1-0.3-1.9z"/>
		<path id="Layer" class="s10" d="m150.9 193.4l-14.6-35.7q-0.4-1-1.1-1.7-0.7-0.7-1.7-1.2-0.9-0.4-1.9-0.5-1.1 0-2.1 0.3l-41.3 13.8q-0.9 0.4-1.6 1-0.8 0.7-1.2 1.6-0.4 0.9-0.4 1.9-0.1 1 0.3 1.9l14.5 35.7q0.4 1 1.2 1.7 0.7 0.8 1.6 1.2 1 0.4 2 0.5 1.1 0.1 2-0.3l41.3-13.8q1-0.3 1.7-1 0.7-0.7 1.2-1.6 0.4-0.9 0.4-1.9 0-1-0.3-1.9z"/>
		<path id="Layer" class="s12" d="m182.1 111.5c-0.1 0.7 0 1.4 0.6 1.5 0.5 0.1 1-0.4 1.2-1.1 0.2-0.7-0.1-1.4-0.5-1.5-0.5-0.1-1.1 0.4-1.3 1.1z"/>
		<path id="Layer" class="s13" d="m182.1 112.9q0.2 0.9 0.3 1.7 0.2 0.9 0.5 1.8 0.2 0.9 0.5 1.7 0.3 0.9 0.6 1.7-0.4 0.2-0.8 0.3-0.5 0-1 0-0.4 0-0.9-0.1-0.4-0.2-0.8-0.4z"/>
		<path id="Layer" class="s12" d="m180.6 106.9q0 0 0.1 0 0 0 0 0 0.1 0 0.1 0 0 0 0.1 0 0.3-0.2 0.7-0.2 0.4-0.1 0.8-0.1 0.4 0 0.8 0.2 0.4 0.1 0.8 0.3 0 0 0.1 0.1 0.1 0 0.2 0 0.1 0 0.2-0.1 0 0 0.1-0.1 0-0.1 0-0.2 0.1-0.1 0-0.1 0-0.1 0-0.2-0.1-0.1-0.1-0.1-0.5-0.3-1-0.4-0.4-0.2-1-0.2-0.5-0.1-1 0-0.5 0.1-1 0.3 0 0-0.1 0.1-0.1 0.1-0.1 0.1 0 0.1 0 0.2 0 0.1 0 0.2 0 0 0 0.1 0.1 0 0.1 0 0.1 0.1 0.1 0.1 0 0 0.1 0z"/>
		<path id="Layer" class="s11" d="m157.1 114.1c-0.4 6.7-2 18.9-7.6 22.1 0 0 0.1 7 12.1 10 13.3 3.3 8-5 8-5-6.8-3.5-5.3-8.8-2.8-13.5z"/>
		<path id="Layer" class="s12" d="m147.2 138.1c-0.5-2.4-0.9-5 1.4-5.2 2.6-0.2 15.8 2.1 19.9 4.8q0.9 0.5 1.5 1.3 0.5 0.7 0.8 1.6 0.3 1 0.1 1.9-0.1 1-0.6 1.8z"/>
		<path id="Layer" fill-rule="evenodd" class="s7" d="m83.9 431.3q-0.2-0.2-0.4-0.4-0.2-0.2-0.4-0.4-0.2-0.3-0.4-0.5 0 0 0 0 0-0.1 0-0.1 0 0 0-0.1 0 0 0 0 0 0 0-0.1 0.1 0 0.1 0 0 0 0.1 0 0 0 0 0c0.1 0 3.2 0.3 4 1.4q0.1 0.1 0.1 0.2 0.1 0.1 0.1 0.2 0 0.1 0 0.2 0 0.1 0 0.2c-0.1 0.6-0.4 0.8-0.7 0.8q-0.3 0-0.5-0.1-0.3 0-0.6-0.2-0.3-0.1-0.5-0.3-0.2-0.1-0.4-0.3-0.3-0.2-0.5-0.5zm2.5-0.1q-0.4-0.2-0.7-0.4-0.4-0.1-0.8-0.3-0.3-0.1-0.7-0.2-0.4-0.1-0.8-0.1c0.9 1 2.3 2.2 2.9 2.1 0.1 0 0.3-0.1 0.4-0.5q0 0 0-0.1 0-0.1 0-0.1-0.1-0.1-0.1-0.1 0-0.1 0-0.1-0.1-0.1-0.1-0.1 0 0 0 0-0.1-0.1-0.1-0.1 0 0 0 0z"/>
		<path id="Layer" fill-rule="evenodd" class="s7" d="m82.7 430q0 0 0 0 0 0 0-0.1 0 0 0 0 0 0 0-0.1 0 0 0 0 0 0 0-0.1 0 0 0 0c0.1-0.1 2-1.9 3.4-1.9q0.1 0 0.2 0 0.1 0 0.2 0.1 0.2 0 0.3 0.1 0.1 0.1 0.1 0.1 0.1 0.1 0.2 0.2 0.1 0.1 0.1 0.3 0 0.1 0 0.2 0 0.1-0.1 0.2c-0.5 0.9-3.2 1.3-4.2 1-0.1 0-0.1 0-0.1 0q-0.1 0-0.1 0zm3.7-1.7q0 0-0.1 0 0 0-0.1 0-0.1-0.1-0.1-0.1-0.4 0.1-0.8 0.3-0.4 0.1-0.7 0.3-0.3 0.2-0.6 0.4-0.3 0.3-0.6 0.5c1.2 0.1 3-0.3 3.3-0.8 0.1-0.1 0.1-0.2-0.1-0.4v-0.1q-0.1 0-0.2-0.1z"/>
		<path id="Layer" fill-rule="evenodd" class="s7" d="m152 449.2q-0.3 0-0.7 0-0.3 0-0.7-0.1-0.4 0-0.7-0.1 0 0-0.1 0 0 0 0-0.1 0 0-0.1 0 0 0 0-0.1 0 0 0 0 0-0.1 0-0.1 0 0 0-0.1 0.1 0 0.1 0c0.1-0.1 3.1-1.9 4.7-1.5q0.1 0 0.2 0.1 0.1 0 0.2 0.1 0.1 0.1 0.2 0.2 0.1 0 0.1 0.1 0.1 0.1 0.2 0.2 0 0.2 0 0.3 0 0.1 0 0.2 0 0.2-0.1 0.3c-0.3 0.5-1.4 0.7-2.6 0.7q-0.3 0-0.7-0.1zm2-1.7q-0.5 0-0.9 0.1-0.5 0.1-0.9 0.3-0.4 0.1-0.9 0.3-0.4 0.2-0.8 0.4c1.7 0.3 4 0.3 4.4-0.3 0.1-0.1 0.1-0.2-0.1-0.5q0-0.1-0.1-0.1 0-0.1-0.1-0.1 0 0-0.1-0.1-0.1 0-0.1 0-0.1 0-0.1 0-0.1 0-0.1 0-0.1 0-0.2 0 0 0-0.1 0z"/>
		<path id="Layer" fill-rule="evenodd" class="s7" d="m149.9 449q0 0 0 0-0.1 0-0.1 0 0 0 0 0-0.1 0-0.1-0.1 0 0 0 0 0 0 0-0.1 0 0 0 0c0-0.1-0.1-2.6 1-3.5q0.1-0.1 0.3-0.2 0.1-0.1 0.3-0.1 0.1-0.1 0.3-0.1 0.2 0 0.3 0c0.6 0.1 0.9 0.4 0.9 0.6 0.3 1.1-1.7 3-2.8 3.5h-0.1q0 0 0 0zm1.7-3.7q-0.1 0-0.2 0.1-0.1 0-0.2 0.1-0.1 0-0.1 0.1-0.3 0.3-0.4 0.6-0.2 0.3-0.3 0.7-0.1 0.4-0.2 0.7-0.1 0.4 0 0.8c1-0.7 2.3-2.2 2.2-2.9 0 0-0.1-0.2-0.5-0.2h-0.1q-0.1 0-0.2 0z"/>
		<path id="Layer" class="s11" d="m140 448.8h9.1l0.9-21.1h-9.1l-0.9 21.1z"/>
		<path id="Layer" class="s11" d="m73.5 427.4l8.9 2.3 9.8-19.3-8.9-2.3-9.8 19.3z"/>
		<path id="Layer" class="s12" d="m83.1 428.6l-7.8-6.6q-0.2-0.1-0.3-0.1-0.1-0.1-0.2-0.1-0.2 0-0.3 0.1-0.1 0-0.3 0.1l-6.6 5q-0.3 0.2-0.4 0.5-0.1 0.2-0.1 0.6 0 0.3 0.1 0.5 0.1 0.3 0.4 0.5c2.8 2.3 4.2 3.2 7.7 6.1 2.1 1.8 6.6 7 9.3 9.7 2.7 2.7 5.8 0.3 4.8-1q-1-1.6-1.9-3.3-0.9-1.6-1.6-3.4-0.7-1.7-1.3-3.5-0.5-1.9-0.8-3.7 0-0.2-0.1-0.4 0-0.2-0.1-0.4-0.1-0.1-0.3-0.3-0.1-0.1-0.2-0.3z"/>
		<path id="Layer" class="s12" d="m148.8 447.7h-9.9q-0.2 0-0.3 0.1-0.1 0-0.2 0.1-0.1 0.1-0.2 0.2 0 0.1 0 0.3l-1 8.1q0 0.3 0.1 0.6 0.1 0.3 0.3 0.5 0.2 0.2 0.5 0.4 0.3 0.1 0.6 0.1c3.6-0.1 8.7-0.3 13.3-0.3 5.3 0 6.2 0.3 12.4 0.3 3.7 0 4.4-3.8 2.8-4.1-7.3-1.6-9.5-1.7-16.1-5.6q-0.2-0.1-0.5-0.3-0.3-0.1-0.6-0.2-0.2-0.1-0.5-0.1-0.3-0.1-0.7-0.1z"/>
		<path id="Layer" class="s7" d="m182.9 153c-0.7 9.2-4.1 28.8-17.3 68.5l-48-9c0.9-6.4 9.6-33.4 11.5-63.9 0.2-2 0.7-4 1.6-5.8 0.9-1.8 2.2-3.3 3.8-4.6 1.5-1.3 3.3-2.2 5.2-2.8 2-0.6 4-0.7 6-0.4h0.2q2.6 0.3 5.2 0.7 2.5 0.4 5.1 0.9 2.5 0.5 5.1 1 2.5 0.6 5 1.2 1.4 0.4 2.7 0.9 1.3 0.4 2.6 0.9 1.3 0.5 2.6 1 1.2 0.5 2.5 1.1 1.5 0.6 2.7 1.7 1.2 1.1 2.1 2.5 0.8 1.3 1.2 2.9 0.4 1.6 0.2 3.2z"/>
		<path id="Layer" class="s8" d="m173.8 158.6c-0.3 5.2 1.6 16.2 3.3 24.5 1.6-6 2.7-11 3.7-15.3z"/>
		<path id="Layer" class="s7" d="m182.8 150.2c1.1 2.9 2.4 6 3.6 8.9 1.2 3 2.6 6 4 8.9q1 2.1 2 4.2 1.1 2.1 2.2 4.2 1.2 2 2.4 4 1.2 2.1 2.5 4c0.9 1.2 1.7 2.4 2.6 3.4l0.2 0.2h-0.1-0.1c0 0 0 0 0 0.1q0.1 0.1 0.3 0.2 0.1 0 0.2 0.1 0.1 0 0.2 0.1 0.1 0 0.2 0.1 0.4 0.1 0.9 0.2 0.4 0.1 0.9 0.2 0.4 0.1 0.8 0.1 0.5 0.1 0.9 0.1 0.6 0 1.1 0.1 0.6 0 1.1 0 0.6 0 1.1 0 0.6 0 1.1 0 2.4-0.2 4.8-0.4 2.4-0.2 4.8-0.5 2.4-0.2 4.7-0.6 2.4-0.4 4.8-0.8l2.4 7q-1.2 0.6-2.4 1.1-1.2 0.6-2.4 1.1-1.2 0.5-2.4 0.9-1.3 0.5-2.5 0.9-1.3 0.5-2.6 0.9-1.3 0.4-2.6 0.7-1.3 0.4-2.6 0.7-1.3 0.3-2.6 0.5-0.7 0.2-1.4 0.3-0.7 0.1-1.5 0.2-0.7 0.1-1.4 0.1-0.7 0.1-1.4 0.1-0.8 0.1-1.6 0.1-0.9 0-1.7 0-0.8-0.1-1.6-0.2-0.8-0.1-1.6-0.2-0.5-0.1-1-0.2-0.5-0.1-1-0.3-0.5-0.1-0.9-0.3-0.5-0.2-1-0.4-0.2-0.2-0.5-0.3-0.3-0.1-0.5-0.3-0.3-0.1-0.6-0.3-0.2-0.2-0.5-0.3-0.1-0.1-0.2-0.2-0.2-0.1-0.3-0.2-0.1-0.2-0.3-0.3-0.1-0.1-0.2-0.2l-0.5-0.5-0.3-0.2q-0.5-0.5-1-1.1-0.5-0.5-1-1-0.5-0.6-0.9-1.1-0.5-0.6-0.9-1.1-1.7-2.2-3.2-4.4-1.5-2.2-3-4.5-1.4-2.2-2.7-4.6-1.3-2.3-2.5-4.8c-1.6-3.1-3.1-6.2-4.5-9.4-1.3-3.2-2.7-6.3-3.9-9.8z"/>
		<path id="Layer" class="s8" d="m269.2 180.4l-17.2-3.4q-0.5-0.1-1 0-0.4 0.1-0.8 0.3-0.4 0.3-0.7 0.7-0.3 0.4-0.4 0.8l-5.1 19.2q-0.1 0.5-0.1 0.9 0.1 0.5 0.3 0.9 0.3 0.4 0.7 0.6 0.3 0.3 0.8 0.4l17.2 3.4q0.5 0.1 0.9 0 0.5-0.1 0.9-0.3 0.4-0.3 0.7-0.7 0.3-0.3 0.4-0.8l5.1-19.3q0.1-0.4 0-0.8-0.1-0.5-0.3-0.9-0.2-0.4-0.6-0.6-0.4-0.3-0.8-0.4z"/>
		<path id="Layer" class="s6" d="m263.2 171.6l-17.1-3.8q-0.5-0.1-1 0-0.4 0.1-0.9 0.3-0.4 0.3-0.7 0.6-0.2 0.4-0.4 0.9l-5.5 19.1q-0.1 0.4-0.1 0.9 0.1 0.4 0.3 0.8 0.3 0.4 0.6 0.7 0.4 0.2 0.9 0.3l17 3.8q0.5 0.1 1 0.1 0.4-0.1 0.9-0.4 0.4-0.2 0.7-0.6 0.2-0.4 0.4-0.8l5.5-19.1q0.1-0.5 0.1-0.9-0.1-0.5-0.3-0.9-0.2-0.4-0.6-0.6-0.3-0.3-0.8-0.4z"/>
		<path id="Layer" class="s11" d="m228.5 188.3l5.4-8 8.6 7.9c0 0-4.4 6.1-11.1 5.7z"/>
		<path id="Layer" class="s12" d="m226.7 188q0.4 0.9 0.8 1.8 0.4 0.9 0.7 1.8 0.4 0.9 0.7 1.8 0.3 0.9 0.6 1.8 0 0.2 0.1 0.3 0.1 0.1 0.2 0.2 0.2 0.1 0.3 0.1 0.2 0.1 0.3 0c1.2-0.2 2.1-0.4 2.1-1.1 0.1-0.6-2.6-7.8-3.5-8.3q-0.3 0-0.5-0.1-0.3 0-0.5 0.1-0.3 0-0.5 0.1-0.2 0.1-0.4 0.3-0.2 0.1-0.3 0.2-0.1 0.1-0.1 0.3-0.1 0.2-0.1 0.4 0.1 0.1 0.1 0.3z"/>
		<path id="Layer" class="s11" d="m244.5 179.1l1 2.1q0.3 0.6 0.4 1.3 0.2 0.7 0 1.4-0.1 0.6-0.4 1.2-0.3 0.7-0.8 1.1l-2.2 2-8.6-7.9 4.5-2.8q0.8-0.5 1.7-0.6 0.9-0.1 1.7 0.1 0.9 0.2 1.6 0.8 0.7 0.5 1.1 1.3z"/>
		<path id="Layer" class="s8" d="m150 427.7l-0.5 11.8h-9.1l0.5-11.8h9.1z"/>
		<path id="Layer" class="s8" d="m83.3 408.1l8.9 2.3-5.5 10.7-8.4-3.1 5-9.9z"/>
		<path id="Layer" class="s11" d="m158.7 104.1c-1.6 8.9-3 14 0.3 19.6 5 8.5 16.8 7.1 21.1-1.2 3.8-7.4 5.8-20.7-1.9-26.3-1.7-1.3-3.7-2.1-5.8-2.3-2.1-0.3-4.2 0-6.2 0.8-1.9 0.8-3.7 2.1-5 3.7-1.3 1.7-2.2 3.6-2.5 5.7z"/>
		<path id="Layer" class="s12" d="m174 112.8c4.5 1.8 7.2-4.7 6-7.1 1.5-0.9 7.5-2.3 6.8-6.9-0.7-4.6-5.2-5.9-8.5-12-1.2 0.6-0.9 4.3-0.9 4.3 0 0-2.7-4.8-9.7-4.7-7.1 0-9.7-2.9-9.7-2.9 0 0 0.5 4.6 3.1 5.7-3.9 1.2-3.9 7.3-9.5 8.1 1.2 2.4 4.4 2.4 4.4 2.4 0 0-3.3 2.8-2.6 6.3 0.6 3.5 4.4 12-0.1 14.9 9.7 3.5 22.6-0.4 20.7-8.1z"/>
		<path id="Layer" class="s11" d="m171.8 111.4q-0.1 0.8-0.2 1.6 0 0.9 0 1.7 0.1 0.8 0.3 1.6 0.3 0.9 0.6 1.6c1.2 2.7 3.6 2 4.8-0.4 1-2.3 1.5-6.3-0.4-8.2-2-1.8-4.4-0.6-5.1 2.1z"/>
		<path id="Layer" class="s7" d="m148.6 218.3c0 0-12.4 68.1-18.1 94.2-6.2 28.6-37.9 105.2-37.9 105.2l-15.9-5.1c0 0 19.9-72.9 28.9-101.7 1.8-30.6 5.7-79.2 12.1-98.4z"/>
		<path id="Layer" class="s14" d="m148.6 218.3c0 0-12.4 68.1-18.1 94.2-6.2 28.6-37.9 105.2-37.9 105.2l-15.9-5.1c0 0 19.9-72.9 28.9-101.7 1.8-30.6 5.7-79.2 12.1-98.4z"/>
		<path id="Layer" class="s7" d="m96 414.3c0 0-3.7 5.6-3.7 5.6l-17.8-5.9 2.1-5.3z"/>
		<path id="Layer" class="s15" d="m143 242.1c-11.7 1.9-10.8 36.3-9.5 55.6 3.4-16.8 7.6-39 10.7-55.6q-0.2 0-0.3 0-0.2 0-0.3 0-0.2 0-0.3 0-0.2 0-0.3 0z"/>
		<path id="Layer" class="s7" d="m165.6 221.5c0 0 2.6 63.4 1.6 91.2-1.1 29-14.2 123.7-14.2 123.7h-15.5c0 0-0.3-91.1 3.2-121.3-0.7-31-6.6-99.5-6.6-99.5z"/>
		<path id="Layer" class="s14" d="m165.6 221.5c0 0 2.6 63.4 1.6 91.2-1.1 29-14.2 123.7-14.2 123.7h-15.5c0 0-0.3-91.1 3.2-121.3-0.7-31-6.6-99.5-6.6-99.5z"/>
		<path id="Layer" class="s7" d="m155.9 430.3c0.1 0-0.9 6.4-0.9 6.4h-18.7l-0.5-5.7z"/>
		<path id="Layer" class="s12" d="m117.6 210.7c-1.6 0-1.7 3.8-1.2 4.9 0.5 1.1 7.5 1.8 26 5.9 18.4 4.2 23 4.4 23.6 4.1 0.6-0.2 1.8-5.3 0.6-5.5-1.1-0.2-20.1-3.2-28.2-5.1-8-1.8-18.5-4.1-20.8-4.3z"/>
	</g>
</svg>